<svg xmlns="http://www.w3.org/2000/svg" viewBox="0 0 48 48"><defs><style>.cls-1{fill:#ff6c2c;}</style></defs><g id="Base_Icons" data-name="Base Icons"><path d="M25.94141,28.03613C25.3042,28.01172,24.65576,28,24,28,13.68115,28,7.64111,30.94629,6.53369,36.52148A1.80281,1.80281,0,0,0,6.939,38.03516,2.86387,2.86387,0,0,0,9.15576,39H22.84424a.5.5,0,0,0,0-1H9.15576a1.88914,1.88914,0,0,1-1.44385-.59863.82326.82326,0,0,1-.19775-.68457C8.78174,30.33887,17.17871,29,24,29q.96461,0,1.90234.03613a.51325.51325,0,0,0,.51905-.48047A.5.5,0,0,0,25.94141,28.03613Z"/><path d="M24,25a9,9,0,1,0-9-9A9.01016,9.01016,0,0,0,24,25ZM24,8a8,8,0,1,1-8,8A8.00917,8.00917,0,0,1,24,8Z"/><path d="M32.58594,24.15991a.50508.50508,0,0,0-.10449.1731l-.00007.00049a.50033.50033,0,0,0-.02758.19287,8.62335,8.62335,0,0,0,.04669.18628.4984.4984,0,0,0,.11505.15649l.00067.001a.49828.49828,0,0,0,.166.09887l.003.00171a19.3455,19.3455,0,0,1,5.98,3.42871.49985.49985,0,1,0,.64746-.76171,20.28433,20.28433,0,0,0-5.64411-3.34449,12.66586,12.66586,0,0,0-.44574-16.12915.49984.49984,0,1,0-.74023.67188A11.63349,11.63349,0,0,1,32.58594,24.15991Z"/><path d="M15.21484,24.9707l.003-.00171a.49828.49828,0,0,0,.166-.09887l.00067-.001a.49735.49735,0,0,0,.115-.15649.48287.48287,0,0,0,.02417-.094.48979.48979,0,0,0,.02258-.09228.49987.49987,0,0,0-.02758-.193l-.00007-.00036a.5073.5073,0,0,0-.10382-.17237,11.63335,11.63335,0,0,1,.00275-15.3247.49984.49984,0,1,0-.74023-.67188,12.66638,12.66638,0,0,0-.45142,16.12232C7.58612,26.90137,3,32.64856,3,38.48242a.5.5,0,0,0,1,0C4,32.87305,8.61182,27.31738,15.21484,24.9707Z"/></g><g id="Sub_Icons" data-name="Sub Icons"><path class="cls-1" d="M40.5,30h-12A1.50164,1.50164,0,0,0,27,31.5v9A1.50164,1.50164,0,0,0,28.5,42h12A1.50164,1.50164,0,0,0,42,40.5v-9A1.50164,1.50164,0,0,0,40.5,30ZM41,40.5a.50065.50065,0,0,1-.5.5h-12a.50065.50065,0,0,1-.5-.5v-9a.50065.50065,0,0,1,.5-.5h12a.50065.50065,0,0,1,.5.5Z"/><rect class="cls-1" x="30.5" y="33.5" width="2" height="2" rx="0.5"/><path class="cls-1" d="M38.5,34.5h-4a.5.5,0,0,0,0,1h4a.5.5,0,0,0,0-1Z"/><path class="cls-1" d="M38.5,37.5H31a.5.5,0,0,0,0,1h7.5a.5.5,0,0,0,0-1Z"/></g></svg>