<svg xmlns="http://www.w3.org/2000/svg" viewBox="0 0 48 48"><defs><style>.cls-1{fill:#ff6c2c;}</style></defs><g id="Base_Icons" data-name="Base Icons"><path d="M24.0001,29a41.734,41.734,0,0,1,4.35742.21484c1.12012.11817,3.44043.39942,3.44043.39942l.1211-.99219s-2.332-.2832-3.45606-.40137A42.66357,42.66357,0,0,0,24.0001,28c-10.916,0-17.30176,3.51172-18.4668,10.15625a2.23093,2.23093,0,0,0,.51856,1.8418A2.9257,2.9257,0,0,0,8.28233,41H26.71787a.5.5,0,1,0,0-1H8.28233a1.91749,1.91749,0,0,1-1.46485-.64551,1.247,1.247,0,0,1-.2998-1.02637C7.87022,30.61816,16.77061,29,24.0001,29Z"/><path d="M24.0001,24.5a9.5,9.5,0,1,0-9.5-9.5A9.51081,9.51081,0,0,0,24.0001,24.5Zm0-18a8.5,8.5,0,1,1-8.5,8.5A8.51014,8.51014,0,0,1,24.0001,6.5Z"/></g><g id="Sub_Icons" data-name="Sub Icons"><path class="cls-1" d="M37.85362,34.14648a.49983.49983,0,0,0-.707,0l-7,7a.5.5,0,1,0,.707.707l7-7A.49983.49983,0,0,0,37.85362,34.14648Z"/><circle class="cls-1" cx="41.5001" cy="35.5" r="0.75"/><circle class="cls-1" cx="35.5001" cy="30.5" r="0.75"/><circle class="cls-1" cx="38.5001" cy="38.5" r="0.75"/><circle class="cls-1" cx="33.5001" cy="33.5" r="0.75"/><circle class="cls-1" cx="39.5001" cy="31.5" r="0.75"/></g></svg>