<svg xmlns="http://www.w3.org/2000/svg" viewBox="0 0 48 48"><defs><style>.cls-1{fill:#ff6c2c;}</style></defs><g id="Base_Icons" data-name="Base Icons"><path d="M24,3a21.00352,21.00352,0,0,0-7.38379,40.665.4822.4822,0,0,0,.17578.03223.4998.4998,0,0,0,.17578-.96778A19.99077,19.99077,0,1,1,43.05371,30.09766a.49986.49986,0,1,0,.95215.30468A21.01517,21.01517,0,0,0,24,3Z"/><path d="M24,16a.49971.49971,0,0,0-.5.5v7h-7a.5.5,0,0,0,0,1h7v7a.5.5,0,0,0,1,0v-7h7a.5.5,0,0,0,0-1h-7v-7A.49971.49971,0,0,0,24,16Z"/></g><g id="Sub_Icons" data-name="Sub Icons"><path class="cls-1" d="M23.17627,34H22a.49971.49971,0,0,0-.5.5v7a.49971.49971,0,0,0,.5.5h1.17627a4.00011,4.00011,0,1,0,0-8Zm0,7H22.5V35h.67627a3.00015,3.00015,0,1,1,0,6Z"/><path class="cls-1" d="M34.353,34a.49971.49971,0,0,0-.5.5v5.36035L30.062,34.2207a.50007.50007,0,0,0-.915.2793v7a.5.5,0,0,0,1,0V36.13965l3.791,5.63965a.50007.50007,0,0,0,.915-.2793v-7A.49972.49972,0,0,0,34.353,34Z"/><path class="cls-1" d="M40.23535,37.5H39.05859a1.25008,1.25008,0,1,1,0-2.5h1.76514a.5.5,0,0,0,0-1H39.05859a2.25,2.25,0,1,0,0,4.5h1.17676a1.25008,1.25008,0,1,1,0,2.5H37.294a.5.5,0,1,0,0,1h2.9414a2.25,2.25,0,1,0,0-4.5Z"/></g></svg>