<svg xmlns="http://www.w3.org/2000/svg" viewBox="0 0 48 48"><defs><style>.cls-1{fill:#ff6c2c;}</style></defs><g id="Base_Icons" data-name="Base Icons"><path d="M43.9834,26.37207,39.68457,10.09863A1.50421,1.50421,0,0,0,38.24023,9H24.76074a.5.5,0,0,0,0,1H38.24023a.4992.4992,0,0,1,.4795.36035L43.0166,26.62793A.501.501,0,0,0,43.5,27a.48457.48457,0,0,0,.12793-.0166A.50017.50017,0,0,0,43.9834,26.37207Z"/><path d="M7.76562,14.1377a.49638.49638,0,0,0-.61132.35546L4.0166,26.37207a.50017.50017,0,0,0,.35547.61133A.48557.48557,0,0,0,4.50049,27a.50043.50043,0,0,0,.48291-.37207L8.12109,14.749A.50015.50015,0,0,0,7.76562,14.1377Z"/><path d="M28,40H9.49609A.4968.4968,0,0,1,9,39.50391V25.499A.49929.49929,0,0,1,9.499,25H38.501a.49929.49929,0,0,1,.499.499v2.8125a.5.5,0,0,0,1,0V25.499A1.50122,1.50122,0,0,0,38.501,24H9.499A1.50122,1.50122,0,0,0,8,25.499V39.50391A1.49747,1.49747,0,0,0,9.49609,41H28a.5.5,0,0,0,0-1Z"/><path d="M12,30v5a.5.5,0,0,0,1,0V30a.5.5,0,0,0-1,0Z"/><path d="M15,30v5a.5.5,0,0,0,1,0V30a.5.5,0,0,0-1,0Z"/></g><g id="Sub_Icons" data-name="Sub Icons"><path class="cls-1" d="M38.5,35.5h-2v-2a.5.5,0,0,0-1,0v2h-2a.5.5,0,0,0,0,1h2v2a.5.5,0,0,0,1,0v-2h2a.5.5,0,0,0,0-1Z"/><path class="cls-1" d="M36,30a6,6,0,1,0,6,6A6.00657,6.00657,0,0,0,36,30Zm0,11a5,5,0,1,1,5-5A5.00588,5.00588,0,0,1,36,41Z"/><path class="cls-1" d="M6.5,12h.82324a3.00014,3.00014,0,0,0,0-6H6.5a.49971.49971,0,0,0-.5.5v5A.49971.49971,0,0,0,6.5,12ZM9.294,9a1.98776,1.98776,0,0,1-1.97071,2H7V7h.32324A1.98776,1.98776,0,0,1,9.294,9Z"/><path class="cls-1" d="M11.85254,12a.49971.49971,0,0,0,.5-.5V8.167l2.377,3.6084a.50213.50213,0,0,0,.418.22461.4878.4878,0,0,0,.14356-.02148A.49924.49924,0,0,0,15.64746,11.5v-5a.5.5,0,0,0-1,0V9.833l-2.377-3.6084a.50054.50054,0,0,0-.918.27539v5A.49971.49971,0,0,0,11.85254,12Z"/><path class="cls-1" d="M19.26465,11h-2.0586a.5.5,0,0,0,0,1h2.0586a1.75006,1.75006,0,0,0,0-3.5h-.82324a.75015.75015,0,0,1,0-1.5h1.23535a.5.5,0,0,0,0-1H18.44141a1.75006,1.75006,0,0,0,0,3.5h.82324a.75015.75015,0,0,1,0,1.5Z"/></g></svg>