<svg xmlns="http://www.w3.org/2000/svg" viewBox="0 0 48 48"><defs><style>.cls-1{fill:#ff6c2c;}</style></defs><g id="Base_Icons" data-name="Base Icons"><path d="M24,3a21,21,0,1,0,6.21582,41.06445.49993.49993,0,0,0-.2959-.95507A19.97787,19.97787,0,1,1,43.05371,30.09766a.49986.49986,0,1,0,.95215.30468A21.01517,21.01517,0,0,0,24,3Z"/><path d="M24,33a.49971.49971,0,0,0,.5-.5v-8h8a.5.5,0,0,0,0-1h-8v-8a.5.5,0,0,0-1,0v8h-8a.5.5,0,0,0,0,1h8v8A.49971.49971,0,0,0,24,33Z"/></g><g id="Sub_Icons" data-name="Sub Icons"><path class="cls-1" d="M41.28418,32.96875a.4923.4923,0,0,0-.13385-.15088,1.59009,1.59009,0,0,0-.46039-.41455l-3.88721-2.19141a1.6252,1.6252,0,0,0-1.604-.001L31.30859,32.4043a1.585,1.585,0,0,0-.45892.41333.49322.49322,0,0,0-.13385.15112.4786.4786,0,0,0-.03632.10974,1.5714,1.5714,0,0,0-.1795.70764V38.1709a1.597,1.597,0,0,0,.81006,1.38183l3.88721,2.19141a1.60076,1.60076,0,0,0,.552.17883.44647.44647,0,0,0,.50085.00037,1.58157,1.58157,0,0,0,.55115-.17822l3.89014-2.19336A1.59594,1.59594,0,0,0,41.5,38.1709V33.78516a1.5692,1.5692,0,0,0-.17944-.70655A.48179.48179,0,0,0,41.28418,32.96875Zm-5.59277-1.8877a.62749.62749,0,0,1,.61865.001l3.658,2.06226L36,35.4082l-3.968-2.26391Zm-3.88868,7.60157a.59514.59514,0,0,1-.30273-.5127V33.99231l4,2.28162v4.493Zm8.396-.001L36.5,40.76709V36.27393l4-2.28162V38.169A.59439.59439,0,0,1,40.19873,38.68164Z"/></g></svg>