<svg xmlns="http://www.w3.org/2000/svg" viewBox="0 0 48 48"><defs><style>.cls-1{fill:#ff6c2c;}</style></defs><g id="Base_Icons" data-name="Base Icons"><path d="M24,3a21,21,0,1,0,4.80957,41.44629.49957.49957,0,1,0-.22852-.97266,19.97939,19.97939,0,1,1,14.47266-13.376.49986.49986,0,1,0,.95215.30468A21.01517,21.01517,0,0,0,24,3Z"/><path d="M32.5,23.5h-8v-8a.5.5,0,0,0-1,0v8h-8a.5.5,0,0,0,0,1h8v8a.5.5,0,0,0,1,0v-8h8a.5.5,0,0,0,0-1Z"/></g><g id="Sub_Icons" data-name="Sub Icons"><path class="cls-1" d="M38.35693,31H35.21436a.49971.49971,0,0,0-.5.5V41a.5.5,0,0,0,1,0V38.333h2.64257a3.66658,3.66658,0,0,0,0-7.333Zm0,6.333H35.71436V32h2.64257a2.66661,2.66661,0,0,1,0,5.333Z"/><path class="cls-1" d="M30.5,31a.49971.49971,0,0,0-.5.5V41a.5.5,0,0,0,1,0V31.5A.49971.49971,0,0,0,30.5,31Z"/></g></svg>