<svg xmlns="http://www.w3.org/2000/svg" viewBox="0 0 48 48"><defs><style>.cls-1{fill:#ff6c2c;}</style></defs><g id="Base_Icons" data-name="Base Icons"><path d="M24,6C13.90674,6,6,9.7334,6,14.5S13.90674,23,24,23c7.98541,0,14.58459-2.34106,17-5.67773V24.167a4.346,4.346,0,0,1-1.6001,3.13379.49984.49984,0,1,0,.68457.72852A5.74141,5.74141,0,0,0,41.925,24.91284.48577.48577,0,0,0,42,24.665V14.5C42,9.7334,34.09326,6,24,6Zm0,16c-9.21484,0-17-3.43457-17-7.5S14.78516,7,24,7s17,3.43457,17,7.5S33.21484,22,24,22Z"/><path d="M24,32.667c1.14258,0,2.28662-.0498,3.40088-.14941a.5.5,0,0,0-.08887-.9961c-1.085.09668-2.19922.14551-3.312.14551-9.21484,0-17-3.43457-17-7.5v-.66015a.5.5,0,0,0-1,0V33.5C6,38.2666,13.90674,42,24,42c1.13867,0,2.28223-.0498,3.3999-.14844a.5.5,0,1,0-.08789-.99609C26.22363,40.95117,25.10938,41,24,41c-9.21484,0-17-3.43457-17-7.5V26.98926C9.41541,30.32593,16.01459,32.667,24,32.667Z"/></g><g id="Sub_Icons" data-name="Sub Icons"><path class="cls-1" d="M38.5,35.5h-2v-2a.5.5,0,0,0-1,0v2h-2a.5.5,0,0,0,0,1h2v2a.5.5,0,0,0,1,0v-2h2a.5.5,0,0,0,0-1Z"/><path class="cls-1" d="M36,30a6,6,0,1,0,6,6A6.00657,6.00657,0,0,0,36,30Zm0,11a5,5,0,1,1,5-5A5.00588,5.00588,0,0,1,36,41Z"/></g></svg>