<svg xmlns="http://www.w3.org/2000/svg" xmlns:xlink="http://www.w3.org/1999/xlink" viewBox="0 0 48 48"><defs><style>.cls-1{fill:url(#linear-gradient);}.cls-2{fill:#f69923;}.cls-3{fill:none;}.cls-4,.cls-5{fill:#be202e;}.cls-5{isolation:isolate;opacity:0.35;}.cls-6{fill:#c92037;}.cls-7{fill:#9e2064;}.cls-8{fill:url(#linear-gradient-2);}.cls-9{fill:url(#linear-gradient-3);}.cls-10{fill:url(#linear-gradient-4);}.cls-11{fill:url(#linear-gradient-5);}.cls-12{fill:#ff6c2c;}</style><linearGradient id="linear-gradient" x1="-16786.11786" y1="119.8631" x2="-16684.68808" y2="119.8631" gradientTransform="matrix(0.10497, -0.19377, -0.19377, -0.10497, 1798.11294, -3199.49269)" gradientUnits="userSpaceOnUse"><stop offset="0" stop-color="#662e8d"/><stop offset="1" stop-color="#662e8d"/></linearGradient><linearGradient id="linear-gradient-2" x1="-16800.38247" y1="96.3729" x2="-16607.00027" y2="96.3729" gradientTransform="matrix(0.10497, -0.19377, -0.19377, -0.10497, 1798.11294, -3199.49269)" gradientUnits="userSpaceOnUse"><stop offset="0.3233" stop-color="#9e2064"/><stop offset="0.6302" stop-color="#c92037"/><stop offset="0.7514" stop-color="#cd2335"/><stop offset="1" stop-color="#e97826"/></linearGradient><linearGradient id="linear-gradient-3" x1="-16800.40571" y1="97.04491" x2="-16607.01531" y2="97.04491" xlink:href="#linear-gradient-2"/><linearGradient id="linear-gradient-4" x1="-16691.73352" y1="97.17984" x2="-16649.04457" y2="97.17984" xlink:href="#linear-gradient-2"/><linearGradient id="linear-gradient-5" x1="-16787.73618" y1="101.2004" x2="-16672.65612" y2="101.2004" xlink:href="#linear-gradient"/></defs><g id="Base_Icons" data-name="Base Icons"><path class="cls-1" d="M18.14451,27.79515A24.125,24.125,0,0,0,17.557,30.741c-.00408.03477-.01011.06842-.01419.10319a6.286,6.286,0,0,0-1.719-1.65933,8.77478,8.77478,0,0,1,1.52869,4.16,4.01511,4.01511,0,0,1-1.98125-.46163,4.03776,4.03776,0,0,0,1.64569,1.13658,4.91547,4.91547,0,0,0-2.44308,1.03406,5.09767,5.09767,0,0,1,2.84181-.3435C16.153,37.69319,14.86855,40.99275,13.57143,44.5A.94224.94224,0,0,0,14.25,43.918c.23174-.63527,1.767-4.80225,4.1081-10.25953q.09974-.23254.20166-.468c.01869-.04388.03838-.08771.057-.1306q.37059-.85841.76634-1.75133.09046-.2031.181-.40721l.00347-.0078L18.17188,27.686c-.00908.03447-.01841.07293-.02761.10939Z"/><path class="cls-2" d="M34.07532,3.6598a10.96285,10.96285,0,0,0-2.13811,1.74359c-.38546.37849-.7602.76773-1.12777,1.16343q.5367,1.17322,1.07334,2.34644a29.45977,29.45977,0,0,1,2.88093-3.17157,27.39626,27.39626,0,0,0-2.72648,3.226,45.41419,45.41419,0,0,0,4.73713-.29141,5.78848,5.78848,0,0,0-.109-3.55758,3.04933,3.04933,0,0,0-1.49746-1.53717,1.34063,1.34063,0,0,0-1.09246.07813Z"/><path class="cls-3" d="M31.25538,16.50119l.02731-.00334-.17526.00835c-.0113.00431-.02061.00875-.03186.01207.06058-.00532.12022-.0117.1798-.01708Z"/><path class="cls-3" d="M29.77871,20.49739c-.10038.01591-.20247.02672-.30544.03546C29.57624,20.5241,29.67839,20.5123,29.77871,20.49739Z"/><path class="cls-3" d="M29.39559,20.54l.00206-.00088Z"/><path class="cls-4" d="M28.87671,22.50053c-.15579.01854-.31651.03578-.4813.05378l-.00306.00081c.08277-.007.16455-.014.24544-.0231s.15985-.01929.23892-.0315Z"/><path class="cls-5" d="M28.87671,22.50053c-.15579.01854-.31651.03578-.4813.05378l-.00306.00081c.08277-.007.16455-.014.24544-.0231s.15985-.01929.23892-.0315Z"/><path class="cls-4" d="M29.39975,20.53819l-.00106.00094-.00206.00089c.0262-.00141.05151-.00488.07671-.00635.104-.00868.20612-.02048.30544-.03545-.12428.01245-.25068.02678-.379.04Z"/><path class="cls-5" d="M29.39975,20.53819l-.00106.00094-.00206.00089c.0262-.00141.05151-.00488.07671-.00635.104-.00868.20612-.02048.30544-.03545-.12428.01245-.25068.02678-.379.04Z"/><path class="cls-6" d="M27.96874,14.56941q.61209-.99229,1.23535-1.93593.64593-.97827,1.302-1.89186c.02522-.03549.05149-.07191.07677-.10839q.6471-.89713,1.30082-1.71985L30.81038,6.567c-.09767.10512-.19545.21223-.29536.32121-.37408.41149-.76413.855-1.16482,1.3259-.45151.53084-.91727,1.09883-1.39176,1.6953-.43767.55169-.883,1.12994-1.32949,1.7291-.37994.51016-.76285,1.03616-1.14361,1.57633l-.04273.05947c.384,1.10857.92571,2.12733,1.38857,3.191q.5637-.96377,1.13755-1.89586Z"/><path class="cls-7" d="M20.52582,28.77244q.47615-1.0366.97664-2.09473.47922-1.01241.98115-2.03545.50093-1.02307,1.02208-2.04792.5292-1.04237,1.07708-2.07761.54156-1.0221,1.09937-2.03025.20092-.363.40368-.72283.3505-.62253.70627-1.2327c.01238-.02226.02569-.04346.03907-.06566l-1.38872-3.19082c-.02851.04029-.056.08064-.08455.12092-.40182.57387-.80348,1.16176-1.19894,1.76306q-.59968.91053-1.17933,1.85531-.48888.79567-.95665,1.60768c-.06282.11024-.12452.21855-.18628.32785q-.57779,1.02294-1.05405,1.978-.542,1.0806-.96684,2.06533-.28111.64625-.51739,1.24821c-.1309.34222-.25685.68575-.37669,1.02765q-.42615,1.20923-.74983,2.4177c.44851,1.0632.89828,2.15045,1.39561,3.20747q.36353-.81536.74446-1.65363c.0705-.1548.14212-.31153.21369-.46727Z"/><path class="cls-7" d="M27.05976,16.7423c-.05051.089-.10107.179-.1527.26985q-.22922.40779-.46546.83216-.25494.46025-.51518.94216c-.088.16174-.175.32453-.26426.49019q-.39836.74269-.80972,1.53557-.50558.97476-1.03191,2.02735-.50127,1.00354-1.0189,2.07915-.49174,1.02063-.99757,2.10844-.4511.97057-.91245,1.99458c-.015.0331-.03006.06621-.04409.09937q-.45846,1.01816-.92628,2.0918l-.021.04875,1.28022-.06124c-.02472-.00651-.05056-.01108-.07529-.01758A9.082,9.082,0,0,0,26.117,28.75923,12.01726,12.01726,0,0,0,27.908,26.567a19.74651,19.74651,0,0,0,1.19751-2.14334c.33657-.69192.66461-1.44336.98654-2.26021a4.62755,4.62755,0,0,1-1.21548.33933c-.078.01127-.158.02241-.23891.0315s-.16273.01712-.24545.02309l.00306-.0008a5.53231,5.53231,0,0,0,3.1349-2.69789,5.06433,5.06433,0,0,1-1.75071.641c-.10038.01591-.20247.02671-.30544.03546-.02625.0024-.05151.00487-.07671.00634l.00206-.00088.00106-.00095a5.78034,5.78034,0,0,0,1.31007-.62873c.0805-.05313.15913-.10838.23493-.16681.11573-.088.22576-.18137.33208-.28.068-.0629.13418-.12791.19851-.196a4.922,4.922,0,0,0,.42977-.52017c.0416-.0575.08226-.11606.123-.17661.05245-.08786.10277-.17384.152-.25889.22181-.38473.401-.729.54568-1.03237.07232-.15168.13592-.29189.19093-.42261.02216-.05168.04327-.10243.06325-.15124.059-.14649.1079-.27659.14688-.39128a3.91285,3.91285,0,0,0,.11775-.408,1.52765,1.52765,0,0,1-.17184.10261,6.01049,6.01049,0,0,1-1.79083.48845l1.17551-.05657-1.17551.05657-.02732.00334c-.05964.00638-.12022.0117-.18086.018.01131-.00431.01887-.01021.03011-.01353l-4.02036.19516-.02457.04153Z"/><path class="cls-6" d="M32.03818,8.96877c-.38768.52172-.81278,1.11519-1.27177,1.78864-.02416.03455-.04844.0711-.07265.10664q-.59456.87483-1.265,1.92713-.57859.91033-1.20772,1.96063-.54882.9166-1.1367,1.94895l3.98948-.18114A4.988,4.988,0,0,0,33.399,14.926c.14558-.18425.29268-.37739.43921-.5776.44835-.613.8926-1.29144,1.29456-1.96836a21.15017,21.15017,0,0,0,1.00481-1.89293,10.21436,10.21436,0,0,0,.4151-1.03229c.08952-.2717.16221-.53042.22116-.778a45.78322,45.78322,0,0,1-4.73608.29235Z"/><path class="cls-4" d="M28.638,22.53208c-.08089.00909-.16273.01712-.24544.0231C28.47526,22.5492,28.5571,22.54117,28.638,22.53208Z"/><path class="cls-5" d="M28.638,22.53208c-.08089.00909-.16273.01712-.24544.0231C28.47526,22.5492,28.5571,22.54117,28.638,22.53208Z"/><path class="cls-8" d="M28.638,22.53208c-.08089.00909-.16273.01712-.24544.0231C28.47526,22.5492,28.5571,22.54117,28.638,22.53208Z"/><path class="cls-4" d="M29.39559,20.54c.0262-.0014.05151-.00487.07671-.00634C29.44711,20.53516,29.42185,20.53763,29.39559,20.54Z"/><path class="cls-5" d="M29.39559,20.54c.0262-.0014.05151-.00487.07671-.00634C29.44711,20.53516,29.42185,20.53763,29.39559,20.54Z"/><path class="cls-9" d="M29.39559,20.54c.0262-.0014.05151-.00487.07671-.00634C29.44711,20.53516,29.42185,20.53763,29.39559,20.54Z"/><path class="cls-4" d="M29.39844,20.53947l.00106-.00094Z"/><path class="cls-5" d="M29.39844,20.53947l.00106-.00094Z"/><path class="cls-10" d="M29.39844,20.53947l.00106-.00094Z"/><path class="cls-11" d="M19.76322,31.57439q-.36324.83635-.73147,1.70541l-.01056.02537c-.035.08192-.069.16389-.104.2458-.165.39118-.30952.74358-.63957,1.545a3.1857,3.1857,0,0,1,1.10479,1.46589,2.5309,2.5309,0,0,0-.71806-1.78657c2.27862.24158,4.28142-.21393,5.39846-1.81591A4.19535,4.19535,0,0,0,24.34,32.504a2.19732,2.19732,0,0,1-2.1616.643l-.00719.00257.00719-.00257a6.12765,6.12765,0,0,0,3.24143-2.32821c.18307-.257.36262-.53925.54806-.85313a4.99717,4.99717,0,0,1-4.78774,1.2338l-.07476-.01664L19.9,31.26062c-.04639.10423-.09179.20853-.13724.31382Z"/></g><g id="Sub_Icons" data-name="Sub Icons"><path class="cls-12" d="M36.08911,38.499a.49971.49971,0,0,1-.5-.5v-2a.5.5,0,0,1,1,0v2A.49971.49971,0,0,1,36.08911,38.499Z"/><path class="cls-12" d="M36.09057,34.5a.50469.50469,0,0,1-.35986-.15039A.4974.4974,0,0,1,35.59057,34a.40492.40492,0,0,1,.04-.19043.44.44,0,0,1,.1001-.16016.44445.44445,0,0,1,.16992-.10937.49525.49525,0,0,1,.54.10937.35973.35973,0,0,1,.10986.16016.41084.41084,0,0,1,.04.19043.46951.46951,0,0,1-.1499.34961.36207.36207,0,0,1-.16016.11035A.42934.42934,0,0,1,36.09057,34.5Z"/><path class="cls-12" d="M36.08911,41.999a6,6,0,1,1,6-6A6.00655,6.00655,0,0,1,36.08911,41.999Zm0-11a5,5,0,1,0,5,5A5.00589,5.00589,0,0,0,36.08911,30.999Z"/></g></svg>