<svg xmlns="http://www.w3.org/2000/svg" viewBox="0 0 48 48"><defs><style>.cls-1{fill:#ff6c2c;}</style></defs><g id="Base_Icons" data-name="Base Icons"><path d="M24,3A21,21,0,1,0,45,24,21.02422,21.02422,0,0,0,24,3Zm0,41A20,20,0,1,1,44,24,20.02229,20.02229,0,0,1,24,44Z"/><path d="M35.91992,36.03223a14.47822,14.47822,0,0,1-10.63574,4.59082.5.5,0,0,0,0,1,15.46957,15.46957,0,0,0,11.36426-4.90528.50018.50018,0,1,0-.72852-.68554Z"/></g><g id="Sub_Icons" data-name="Sub Icons"><path class="cls-1" d="M37,17a.49971.49971,0,0,0-.5.5v13a.5.5,0,0,0,1,0v-13A.49971.49971,0,0,0,37,17Z"/><path class="cls-1" d="M28.333,26.667a4.8335,4.8335,0,1,0,0-9.667H24a.49971.49971,0,0,0-.5.5v13a.5.5,0,0,0,1,0V26.667Zm0-8.667a3.8335,3.8335,0,1,1,0,7.667H24.5V18Z"/><path class="cls-1" d="M15.80762,17.3418c-.004-.01172-.01325-.02-.018-.03125a.49161.49161,0,0,0-.0498-.08643.36391.36391,0,0,0-.13031-.13061A.49187.49187,0,0,0,15.522,17.043c-.01117-.00464-.0191-.01367-.03076-.01758a.45516.45516,0,0,0-.05725-.00684.47511.47511,0,0,0-.102-.01245.48889.48889,0,0,0-.09631.01172.46758.46758,0,0,0-.06086.00757c-.01226.00415-.02056.01367-.03234.01856a.48571.48571,0,0,0-.08332.04809.47138.47138,0,0,0-.07678.05908.72079.72079,0,0,0-.106.15967c-.00476.01123-.014.01929-.01794.031l-4.333,13a.50135.50135,0,0,0,.31641.63281A.49616.49616,0,0,0,11,31a.5019.5019,0,0,0,.47461-.3418l1.109-3.32715a.48809.48809,0,0,0,.222.05762h5.05567a.48755.48755,0,0,0,.22186-.05762l1.10919,3.32715A.50191.50191,0,0,0,19.667,31a.49622.49622,0,0,0,.15821-.02539.50135.50135,0,0,0,.3164-.63281Zm-2.90991,9.04687L15.33307,19.082,17.769,26.38867Z"/></g></svg>