<svg xmlns="http://www.w3.org/2000/svg" viewBox="0 0 48 48"><defs><style>.cls-1{fill:#ff6c2c;}</style></defs><g id="Base_Icons" data-name="Base Icons"><path d="M41.5,10H13.72266a.5.5,0,1,0,0,1H41.5a.501.501,0,0,1,.5.5v25a.501.501,0,0,1-.5.5H6.5a.501.501,0,0,1-.5-.5V14.5498a.5.5,0,1,0-1,0V36.5A1.50164,1.50164,0,0,0,6.5,38h35A1.50164,1.50164,0,0,0,43,36.5v-25A1.50164,1.50164,0,0,0,41.5,10Z"/><path d="M5.5,11a.4664.4664,0,0,0,.34961-.15039A.35936.35936,0,0,0,5.96,10.68945.40093.40093,0,0,0,6,10.5a.47.47,0,0,0-.15039-.35059.49323.49323,0,0,0-.7002,0A.4727.4727,0,0,0,5,10.5a.4542.4542,0,0,0,.14941.34961A.47.47,0,0,0,5.5,11Z"/><path d="M8.0498,10.96a.40241.40241,0,0,0,.19043.04.5036.5036,0,0,0,.35938-.15039.43923.43923,0,0,0,.10059-.16016.41308.41308,0,0,0,.04-.18945.50406.50406,0,0,0-.14062-.35059A.49665.49665,0,0,0,8.0498,10.04a.35488.35488,0,0,0-.16015.10937A.47271.47271,0,0,0,7.74023,10.5a.45421.45421,0,0,0,.14942.34961A.43017.43017,0,0,0,8.0498,10.96Z"/><path d="M10.62988,10.84961A.42265.42265,0,0,0,10.79,10.96a.47053.47053,0,0,0,.37988,0,.36482.36482,0,0,0,.16016-.11035A.4542.4542,0,0,0,11.47949,10.5a.4048.4048,0,0,0-.04-.19043.52365.52365,0,0,0-.26953-.26953.50154.50154,0,0,0-.37988,0,.34975.34975,0,0,0-.16016.10937.47365.47365,0,0,0-.15039.35059.413.413,0,0,0,.04.18945A.35936.35936,0,0,0,10.62988,10.84961Z"/></g><g id="Sub_Icons" data-name="Sub Icons"><path class="cls-1" d="M34.5,29V19a.5.5,0,0,0-1,0V29a.5.5,0,0,0,1,0Z"/><path class="cls-1" d="M24.5,29V26.167h2.833a3.8335,3.8335,0,1,0,0-7.667H24a.49971.49971,0,0,0-.5.5V29a.5.5,0,0,0,1,0Zm2.833-9.5a2.8335,2.8335,0,1,1,0,5.667H24.5V19.5Z"/><path class="cls-1" d="M14,29.5a.5019.5019,0,0,0,.47461-.3418l.81824-2.45483a.48387.48387,0,0,0,.09582.01929h3.88867a.47318.47318,0,0,0,.09656-.01954l.81848,2.45508A.50191.50191,0,0,0,20.667,29.5a.49622.49622,0,0,0,.15821-.02539.50135.50135,0,0,0,.3164-.63281l-3.334-10c-.004-.01172-.01319-.01978-.01795-.03125a.49849.49849,0,0,0-.05023-.08692.48329.48329,0,0,0-.05591-.07275.71762.71762,0,0,0-.15857-.106c-.01226-.00537-.02093-.01513-.03375-.01953a.48317.48317,0,0,0-.062-.00732.49643.49643,0,0,0-.09723-.01123.51606.51606,0,0,0-.09119.01074.50281.50281,0,0,0-.066.00781c-.01355.00464-.02276.01514-.03564.02051a.73961.73961,0,0,0-.1579.10644.48914.48914,0,0,0-.05279.06885.48191.48191,0,0,0-.05219.08985c-.00476.01123-.01391.019-.01788.03076l-3.333,10a.50135.50135,0,0,0,.31641.63281A.49616.49616,0,0,0,14,29.5Zm1.61969-3.77734L17.33307,20.582,19.047,25.72266Z"/></g></svg>