<svg xmlns="http://www.w3.org/2000/svg" viewBox="0 0 48 48"><defs><style>.cls-1{fill:#ff6c2c;}</style></defs><g id="Base_Icons" data-name="Base Icons"><path d="M27.375,6h-6.75A1.62657,1.62657,0,0,0,19,7.625v6.75A1.62657,1.62657,0,0,0,20.625,16h6.75A1.62657,1.62657,0,0,0,29,14.375V7.625A1.62657,1.62657,0,0,0,27.375,6ZM28,14.375a.62557.62557,0,0,1-.625.625h-6.75A.62557.62557,0,0,1,20,14.375V7.625A.62557.62557,0,0,1,20.625,7h6.75A.62557.62557,0,0,1,28,7.625Z"/><path d="M40.375,6h-6.75A1.62657,1.62657,0,0,0,32,7.625v6.75A1.62657,1.62657,0,0,0,33.625,16h6.75A1.62657,1.62657,0,0,0,42,14.375V7.625A1.62657,1.62657,0,0,0,40.375,6ZM41,14.375a.62557.62557,0,0,1-.625.625h-6.75A.62557.62557,0,0,1,33,14.375V7.625A.62557.62557,0,0,1,33.625,7h6.75A.62557.62557,0,0,1,41,7.625Z"/><path d="M14.375,19H7.625A1.62657,1.62657,0,0,0,6,20.625v6.75A1.62657,1.62657,0,0,0,7.625,29h6.75A1.62657,1.62657,0,0,0,16,27.375v-6.75A1.62657,1.62657,0,0,0,14.375,19ZM15,27.375a.62557.62557,0,0,1-.625.625H7.625A.62557.62557,0,0,1,7,27.375v-6.75A.62557.62557,0,0,1,7.625,20h6.75a.62557.62557,0,0,1,.625.625Z"/><path d="M27.375,19h-6.75A1.62657,1.62657,0,0,0,19,20.625v6.75A1.62657,1.62657,0,0,0,20.625,29h6.75A1.62657,1.62657,0,0,0,29,27.375v-6.75A1.62657,1.62657,0,0,0,27.375,19ZM28,27.375a.62557.62557,0,0,1-.625.625h-6.75A.62557.62557,0,0,1,20,27.375v-6.75A.62557.62557,0,0,1,20.625,20h6.75a.62557.62557,0,0,1,.625.625Z"/><path d="M40.375,19h-6.75A1.62657,1.62657,0,0,0,32,20.625v6.75A1.62657,1.62657,0,0,0,33.625,29h6.75A1.62657,1.62657,0,0,0,42,27.375v-6.75A1.62657,1.62657,0,0,0,40.375,19ZM41,27.375a.62557.62557,0,0,1-.625.625h-6.75A.62557.62557,0,0,1,33,27.375v-6.75A.62557.62557,0,0,1,33.625,20h6.75a.62557.62557,0,0,1,.625.625Z"/><path d="M14.375,32H7.625A1.62657,1.62657,0,0,0,6,33.625v6.75A1.62657,1.62657,0,0,0,7.625,42h6.75A1.62657,1.62657,0,0,0,16,40.375v-6.75A1.62657,1.62657,0,0,0,14.375,32ZM15,40.375a.62557.62557,0,0,1-.625.625H7.625A.62557.62557,0,0,1,7,40.375v-6.75A.62557.62557,0,0,1,7.625,33h6.75a.62557.62557,0,0,1,.625.625Z"/><path d="M27.375,32h-6.75A1.62657,1.62657,0,0,0,19,33.625v6.75A1.62657,1.62657,0,0,0,20.625,42h6.75A1.62657,1.62657,0,0,0,29,40.375v-6.75A1.62657,1.62657,0,0,0,27.375,32ZM28,40.375a.62557.62557,0,0,1-.625.625h-6.75A.62557.62557,0,0,1,20,40.375v-6.75A.62557.62557,0,0,1,20.625,33h6.75a.62557.62557,0,0,1,.625.625Z"/><path d="M40.375,32h-6.75A1.62657,1.62657,0,0,0,32,33.625v6.75A1.62657,1.62657,0,0,0,33.625,42h6.75A1.62657,1.62657,0,0,0,42,40.375v-6.75A1.62657,1.62657,0,0,0,40.375,32ZM41,40.375a.62557.62557,0,0,1-.625.625h-6.75A.62557.62557,0,0,1,33,40.375v-6.75A.62557.62557,0,0,1,33.625,33h6.75a.62557.62557,0,0,1,.625.625Z"/></g><g id="Sub_Icons" data-name="Sub Icons"><rect class="cls-1" x="6" y="6" width="10" height="10" rx="1.625"/></g></svg>