<svg xmlns="http://www.w3.org/2000/svg" viewBox="0 0 48 48"><defs><style>.cls-1{fill:#ff6c2c;}</style></defs><g id="Base_Icons" data-name="Base Icons"><path d="M43.645,16.73438,40.34961,11.248a2.67284,2.67284,0,0,0-3.57617-.91309,1.61008,1.61008,0,0,1-1.72071-.084,18.22785,18.22785,0,0,0-4.23-2.35938,1.44659,1.44659,0,0,1-.91308-1.3584A2.57734,2.57734,0,0,0,27.29639,4H20.70361a2.57753,2.57753,0,0,0-2.61328,2.53418,1.46476,1.46476,0,0,1-.9126,1.35742A18.22119,18.22119,0,0,0,12.94727,10.251a1.61614,1.61614,0,0,1-1.73194.07714,2.67683,2.67683,0,0,0-3.56885.92676L4.355,16.73438a2.45136,2.45136,0,0,0-.27051,1.9121A2.52228,2.52228,0,0,0,5.31494,20.207a1.44577,1.44577,0,0,1,.77149,1.43652,16.57225,16.57225,0,0,0,0,4.71387,1.44558,1.44558,0,0,1-.771,1.43555,2.52325,2.52325,0,0,0-1.231,1.56152,2.45184,2.45184,0,0,0,.271,1.91113L7.65039,36.752a2.67194,2.67194,0,0,0,3.57568.91309,1.60694,1.60694,0,0,1,1.7212.084,18.22785,18.22785,0,0,0,4.23,2.35938,1.44659,1.44659,0,0,1,.91308,1.3584A2.57734,2.57734,0,0,0,20.70361,44h6.59278a.5.5,0,1,0,0-1H20.70361a1.57712,1.57712,0,0,1-1.61328-1.53418A2.43891,2.43891,0,0,0,17.544,39.17871a17.21948,17.21948,0,0,1-3.998-2.23047,2.5967,2.5967,0,0,0-2.82276-.14746,1.65678,1.65678,0,0,1-2.21533-.56445L5.21289,30.75a1.45634,1.45634,0,0,1-.1626-1.13672,1.52855,1.52855,0,0,1,.75-.94531,2.45037,2.45037,0,0,0,1.27637-2.45215,15.54247,15.54247,0,0,1,0-4.43066A2.45058,2.45058,0,0,0,5.7998,19.332a1.52943,1.52943,0,0,1-.74951-.94531A1.4562,1.4562,0,0,1,5.2124,17.25l3.29151-5.48047a1.669,1.669,0,0,1,2.2373-.55957,2.59024,2.59024,0,0,0,2.80469-.1582,17.21282,17.21282,0,0,1,3.99853-2.23047,2.44049,2.44049,0,0,0,1.5459-2.28809A1.57631,1.57631,0,0,1,20.70361,5h6.59278a1.57712,1.57712,0,0,1,1.61328,1.53418,2.43891,2.43891,0,0,0,1.54638,2.28711,17.21948,17.21948,0,0,1,3.998,2.23047,2.59718,2.59718,0,0,0,2.82324.14746,1.65585,1.65585,0,0,1,2.21485.56445L42.7876,17.25a1.4562,1.4562,0,0,1,.16211,1.13672,1.52855,1.52855,0,0,1-.75.94531,2.45037,2.45037,0,0,0-1.27637,2.45215,15.54247,15.54247,0,0,1,0,4.43066A2.451,2.451,0,0,0,42.19971,28.668a.50018.50018,0,0,0,.48486-.875,1.44615,1.44615,0,0,1-.771-1.43652,16.57225,16.57225,0,0,0,0-4.71387,1.44558,1.44558,0,0,1,.771-1.43555,2.52139,2.52139,0,0,0,1.231-1.56055A2.45136,2.45136,0,0,0,43.645,16.73438Z"/><path d="M32.87012,28.65137a.50007.50007,0,0,0,.66357-.24414,10.48882,10.48882,0,1,0-5.92431,5.45605.50018.50018,0,1,0-.34376-.93945,9.4889,9.4889,0,1,1,5.36084-4.93653A.50016.50016,0,0,0,32.87012,28.65137Z"/></g><g id="Sub_Icons" data-name="Sub Icons"><path class="cls-1" d="M40.83984,31.87988a.5.5,0,0,0,0-1H39.08008a.49972.49972,0,0,0-.5.5v1.75977a.5.5,0,0,0,1,0v-.61621A4.99055,4.99055,0,1,1,36,31a.5.5,0,0,0,0-1,6.02629,6.02629,0,1,0,4.34686,1.87988Z"/></g></svg>