<svg xmlns="http://www.w3.org/2000/svg" viewBox="0 0 48 48"><defs><style>.cls-1{fill:#ff6c2c;}</style></defs><g id="Base_Icons" data-name="Base Icons"><path d="M36.198,8.43555h4.14184a.5.5,0,1,0,0-1H34.66016a.49971.49971,0,0,0-.5.5v5.67968a.5.5,0,1,0,1,0V8.90283A18.99709,18.99709,0,0,1,24,43.27539a.5.5,0,0,0,0,1A19.99348,19.99348,0,0,0,36.198,8.43555Z"/><path d="M13.33984,34.43555a.49972.49972,0,0,0-.5.5v4.71338A18.99774,18.99774,0,0,1,24,5.27539a.5.5,0,0,0,0-1A19.99414,19.99414,0,0,0,11.80072,40.11523H7.66016a.5.5,0,1,0,0,1h5.67968a.49971.49971,0,0,0,.5-.5V34.93555A.49971.49971,0,0,0,13.33984,34.43555Z"/></g><g id="Sub_Icons" data-name="Sub Icons"><path class="cls-1" d="M32.5,25a.49971.49971,0,0,0-.5-.5H23.5V14a.5.5,0,0,0-1,0V25a.49971.49971,0,0,0,.5.5h9A.49971.49971,0,0,0,32.5,25Z"/></g></svg>