<svg xmlns="http://www.w3.org/2000/svg" viewBox="0 0 48 48"><defs><style>.cls-1{fill:#ff6c2c;}</style></defs><g id="Base_Icons" data-name="Base Icons"><path d="M13.5,6C9.22461,6,6,7.50488,6,9.5S9.22461,13,13.5,13c2.85083,0,5.228-.67126,6.5-1.70874V17.5c0,1.18262-2.66992,2.5-6.5,2.5S7,18.68262,7,17.5V15.50293a.5.5,0,0,0-1,0V17.5C6,19.49512,9.22461,21,13.5,21S21,19.49512,21,17.5v-8C21,7.50488,17.77539,6,13.5,6Zm0,6C9.66992,12,7,10.68262,7,9.5S9.66992,7,13.5,7,20,8.31738,20,9.5,17.33008,12,13.5,12Z"/><path d="M17.01953,16.5a.49971.49971,0,0,0-.5-.5h-.00976a.49557.49557,0,0,0-.49512.5.50245.50245,0,0,0,1.00488,0Z"/><path d="M27.5,13h6.00293A.49722.49722,0,0,1,34,13.49707V20.293l-2.14648-2.14649a.5.5,0,0,0-.707.707l2.99939,2.99939a.5015.5015,0,0,0,.70826,0l2.99939-2.99939a.5.5,0,1,0-.707-.707L35,20.293v-6.7959A1.49915,1.49915,0,0,0,33.50293,12H27.5a.5.5,0,0,0,0,1Z"/><path d="M20.5,35H14.502a.50305.50305,0,0,1-.502-.502V27.707l2.14648,2.14649a.5.5,0,0,0,.707-.707l-2.99939-2.99939a.5015.5015,0,0,0-.70826,0l-2.99939,2.99939a.5.5,0,0,0,.707.707L13,27.707v6.791A1.50373,1.50373,0,0,0,14.502,36H20.5a.5.5,0,0,0,0-1Z"/></g><g id="Sub_Icons" data-name="Sub Icons"><path class="cls-1" d="M34.5,27c-4.27539,0-7.5,1.50488-7.5,3.5S30.22461,34,34.5,34c2.85083,0,5.228-.67126,6.5-1.70874V38.5c0,1.18262-2.66992,2.5-6.5,2.5S28,39.68262,28,38.5V36.50293a.5.5,0,1,0-1,0V38.5c0,1.99512,3.22461,3.5,7.5,3.5S42,40.49512,42,38.5v-8C42,28.50488,38.77539,27,34.5,27Zm0,6c-3.83008,0-6.5-1.31738-6.5-2.5S30.66992,28,34.5,28,41,29.31738,41,30.5,38.33008,33,34.5,33Z"/><path class="cls-1" d="M38.01953,37.5a.49971.49971,0,0,0-.5-.5h-.00976a.49557.49557,0,0,0-.49512.5.50245.50245,0,0,0,1.00488,0Z"/></g></svg>