<svg xmlns="http://www.w3.org/2000/svg" viewBox="0 0 48 48"><defs><style>.cls-1{fill:#ff6c2c;}</style></defs><g id="Base_Icons" data-name="Base Icons"><path d="M43.499,10H4.501A1.50331,1.50331,0,0,0,3,11.501V37.499A1.50331,1.50331,0,0,0,4.501,39H43.499A1.50331,1.50331,0,0,0,45,37.499V11.501A1.50331,1.50331,0,0,0,43.499,10ZM4,29V20H9v9Zm6-9H24v9H10Zm7-1V11H32v8ZM32,30v8H17V30Zm7-10h5v9H39Zm5-8.499V19H33V11H43.499A.50138.50138,0,0,1,44,11.501ZM4.501,11H16v8H4V11.501A.50138.50138,0,0,1,4.501,11ZM4,37.499V30H16v8H4.501A.50138.50138,0,0,1,4,37.499ZM43.499,38H33V30H44v7.499A.50138.50138,0,0,1,43.499,38Z"/></g><g id="Sub_Icons" data-name="Sub Icons"><rect class="cls-1" x="25" y="20" width="13" height="9"/></g></svg>