<svg xmlns="http://www.w3.org/2000/svg" viewBox="0 0 48 48"><defs><style>.cls-1{fill:#ff6c2c;}</style></defs><g id="Base_Icons" data-name="Base Icons"><path d="M42.3739,14.749a15.67978,15.67978,0,0,0-2.28613-4.3916l-.208-.24316-.0025-.002a8.13491,8.13491,0,0,0-15.12585,3.12421l-2.54255.8338a.50045.50045,0,0,0-.02832.94043L24.911,16.09283a8.11818,8.11818,0,0,0,1.87988,3.5962L5.89539,40.64746a.49995.49995,0,1,0,.709.70508L16.68891,31.23761A15.73311,15.73311,0,0,0,42.3739,14.749ZM27.7782,9.14355a7.13661,7.13661,0,0,1,10.11523,0,7.18983,7.18983,0,0,1-1.20411,11.1211.47451.47451,0,0,0-.06017.05835c-.01159.00958-.02124.02032-.03186.03082a.48791.48791,0,0,0-.0683.08978.44162.44162,0,0,0-.04022.09284.48406.48406,0,0,0-.01923.08.43324.43324,0,0,0-.01165.04858,8.679,8.679,0,0,1-14.81934,5.85351c-.037-.03729-.06988-.07678-.10614-.1145l6.26923-6.28686a.50261.50261,0,0,0,.1084-.54334.49183.49183,0,0,0-.13184-.28283A7.19738,7.19738,0,0,1,27.7782,9.14355Zm-3.94434,5.44629.85645-.28021c.00232.21076.01147.42151.03.63159ZM37.869,30.2041a14.69846,14.69846,0,0,1-20.47266.34766l3.42957-3.43921c.0354.03686.06763.07562.10364.11206a9.67468,9.67468,0,0,0,16.50732-6.26849,8.24192,8.24192,0,0,0,1.16553-.95807,8.15973,8.15973,0,0,0,2.36737-6.11573c.16711.38746.32129.781.45489,1.18311A14.7315,14.7315,0,0,1,37.869,30.2041Z"/></g><g id="Sub_Icons" data-name="Sub Icons"><path class="cls-1" d="M30.74988,13.25a1.25,1.25,0,1,0-1.25-1.25A1.25117,1.25117,0,0,0,30.74988,13.25Zm0-1.5a.25048.25048,0,0,1,.25.25c0,.27539-.5.27539-.5,0A.25048.25048,0,0,1,30.74988,11.75Z"/></g></svg>