<svg xmlns="http://www.w3.org/2000/svg" viewBox="0 0 48 48"><defs><style>.cls-1{fill:#ff6c2c;}</style></defs><g id="Base_Icons" data-name="Base Icons"><path d="M24.00045,3.5A20.35715,20.35715,0,0,0,15.9067,5.16016a.49958.49958,0,1,0,.39453.918A19.5111,19.5111,0,0,1,42.27,30.832a.50028.50028,0,0,0,.9375.34961,20.7642,20.7642,0,0,0,.6836-2.20312A20.51547,20.51547,0,0,0,24.00045,3.5Z"/><path d="M31.25533,42.10547A19.51646,19.51646,0,0,1,5.39205,18.14941a.49943.49943,0,0,0-.95312-.29882A20.51194,20.51194,0,0,0,31.62838,43.0332a.5.5,0,0,0-.373-.92773Z"/><path d="M31.91439,27.41309a.21682.21682,0,0,0,.06995.14233.21252.21252,0,0,0,.10742.11133.49308.49308,0,0,0,.10706.06885l.00573.00366a.47294.47294,0,0,0,.087.01513.48106.48106,0,0,0,.0946.01905h.001l.70509-.001a.50013.50013,0,0,0,.499-.5V14.90918a.5.5,0,0,0-1,0v5.062a9.48626,9.48626,0,1,0-5.05566,12.84912.5.5,0,1,0-.373-.92773,8.49336,8.49336,0,1,1,5.085-5.82813,8.36728,8.36728,0,0,1-.32715,1.02735,3.6649,3.6649,0,0,1-.03418.18261l.00116.00562A.49037.49037,0,0,0,31.91439,27.41309Z"/></g><g id="Sub_Icons" data-name="Sub Icons"><path class="cls-1" d="M11.00045,11a2.5,2.5,0,1,0-2.5-2.5A2.50231,2.50231,0,0,0,11.00045,11Zm0-4a1.5,1.5,0,1,1-1.5,1.5A1.50164,1.50164,0,0,1,11.00045,7Z"/><path class="cls-1" d="M7.31686,16h7.36621a1.4188,1.4188,0,0,0,1.31738-1.499V12.5a.5.5,0,0,0-1,0v2.001c0,.28515-.168.499-.31738.499H7.31686c-.14942,0-.31641-.21387-.31641-.499V12.5a.5.5,0,0,0-1,0v2.001A1.4187,1.4187,0,0,0,7.31686,16Z"/><path class="cls-1" d="M38.16647,31.99805a1.34635,1.34635,0,0,0-.59766-.34864l-5.874-1.60156a1.34172,1.34172,0,0,0-1.64649,1.64844l1.60156,5.87012a1.33459,1.33459,0,0,0,.34571.59765L35.685,41.85352a.49995.49995,0,0,0,.707-.707L32.7026,37.457a.337.337,0,0,1-.08789-.15234L31.9938,35.0282l3.03534-3.03443,2.275.62049a.3383.3383,0,0,1,.15332.08886l3.68946,3.68848a.49995.49995,0,0,0,.707-.707Zm-6.47565,1.91919-.67767-2.48462a.3421.3421,0,0,1,.41894-.41992l2.4859.678Z"/><path class="cls-1" d="M37.29537,36.58789a.49995.49995,0,0,0-.707.707l1.7832,1.7832a.49995.49995,0,0,0,.707-.707Z"/></g></svg>