<svg xmlns="http://www.w3.org/2000/svg" viewBox="0 0 48 48"><defs><style>.cls-1{fill:#ff6c2c;}</style></defs><g id="Base_Icons" data-name="Base Icons"><path d="M32.85352,23.83691a.50026.50026,0,0,0,.00048-.707l-4.917-4.92383a1.89836,1.89836,0,0,0-.83887-.48632l-4.35351-1.189a.48275.48275,0,0,0-.11334-.031l-5.24067-1.43133a1.892,1.892,0,0,0-2.32226,2.32519l1.42981,5.25086a.48358.48358,0,0,0,.03.11005l1.18719,4.3598a1.89906,1.89906,0,0,0,.48731.83984l4.89209,4.89942a.50029.50029,0,0,0,.708-.707l-4.89306-4.90039a.88842.88842,0,0,1-.22949-.3955l-1.13355-4.16272,5.1311-5.13868L26.835,18.68457a.88653.88653,0,0,1,.395.22949l4.916,4.92285A.50039.50039,0,0,0,32.85352,23.83691ZM17.24365,21.5752,16.0332,17.12988A.89151.89151,0,0,1,17.127,16.0332l4.43976,1.21253Z"/><path d="M22.22852,24.00684a.50025.50025,0,0,0-.00049.707l2.65088,2.65429a.50029.50029,0,0,0,.708-.707L22.936,24.00684A.50039.50039,0,0,0,22.22852,24.00684Z"/><path d="M26.99854,25.74707a.50049.50049,0,0,0,.354-.85352l-2.65088-2.65527a.50029.50029,0,0,0-.708.707l2.65088,2.65528A.49953.49953,0,0,0,26.99854,25.74707Z"/><path d="M24,3a21,21,0,1,0,6.21582,41.06445.49993.49993,0,0,0-.2959-.95507A19.97787,19.97787,0,1,1,43.05371,30.09766a.49986.49986,0,1,0,.95215.30468A21.01517,21.01517,0,0,0,24,3Z"/></g><g id="Sub_Icons" data-name="Sub Icons"><path class="cls-1" d="M34.50293,32H38.0921a1.5,1.5,0,1,0,0-1H34.50293A1.50446,1.50446,0,0,0,33,32.50293V35.5H30.5a.5.5,0,0,0,0,1H33v2.99707A1.50446,1.50446,0,0,0,34.50293,41H38.0921a1.5,1.5,0,1,0,0-1H34.50293A.50347.50347,0,0,1,34,39.49707V36.5h4.0921a1.5,1.5,0,1,0,0-1H34V32.50293A.50347.50347,0,0,1,34.50293,32ZM39.5,31a.5.5,0,1,1-.5.5A.50065.50065,0,0,1,39.5,31Zm0,9a.5.5,0,1,1-.5.5A.50065.50065,0,0,1,39.5,40Zm0-4.5a.5.5,0,1,1-.5.5A.50065.50065,0,0,1,39.5,35.5Z"/></g></svg>