<svg xmlns="http://www.w3.org/2000/svg" viewBox="0 0 48 48"><defs><style>.cls-1{fill:#ff6c2c;}</style></defs><g id="Base_Icons" data-name="Base Icons"><path d="M19,12H38.68475L37.418,13.126a.50013.50013,0,0,0,.66406.748l2.25-2,.00873-.01172a.501.501,0,0,0,.07428-.0996.26.26,0,0,0,.066-.16846.49092.49092,0,0,0,.019-.07959l-.0014-.00781L40.5,11.5a.479.479,0,0,0-.02087-.10352.50581.50581,0,0,0-.01722-.08544.49726.49726,0,0,0-.109-.165L38.35352,9.14648a.5.5,0,0,0-.707.707L38.793,11H19a.5.5,0,0,0,0,1Z"/><path d="M19,25H38.68475L37.418,26.126a.50013.50013,0,0,0,.66406.748l2.25-2,.00873-.01172a.501.501,0,0,0,.07428-.0996.26.26,0,0,0,.066-.16846.49092.49092,0,0,0,.019-.07959l-.0014-.00781L40.5,24.5a.479.479,0,0,0-.02087-.10352.50581.50581,0,0,0-.01722-.08544.49726.49726,0,0,0-.109-.165l-1.99939-1.99952a.5.5,0,0,0-.707.707L38.793,24H19a.5.5,0,0,0,0,1Z"/><path d="M27.5,37H7.81525L9.082,35.874a.50013.50013,0,0,0-.66406-.748l-2.25,2-.00873.01172a.501.501,0,0,0-.07428.0996.26.26,0,0,0-.066.16846A.49092.49092,0,0,0,6,37.48535l.0014.00781L6,37.5a.479.479,0,0,0,.02087.10352.50581.50581,0,0,0,.01722.08544.49726.49726,0,0,0,.109.165l1.99939,1.99952a.5.5,0,0,0,.707-.707L7.707,38H27.5a.5.5,0,0,0,0-1Z"/></g><g id="Sub_Icons" data-name="Sub Icons"><path class="cls-1" d="M8.25,15.5h3.5A2.25278,2.25278,0,0,0,14,13.25V9.75A2.25278,2.25278,0,0,0,11.75,7.5H8.25A2.25278,2.25278,0,0,0,6,9.75v3.5A2.25278,2.25278,0,0,0,8.25,15.5ZM7,9.75A1.25116,1.25116,0,0,1,8.25,8.5h3.5A1.25116,1.25116,0,0,1,13,9.75v3.5a1.25116,1.25116,0,0,1-1.25,1.25H8.25A1.25116,1.25116,0,0,1,7,13.25Z"/><path class="cls-1" d="M8.25,28.5h3.5A2.25278,2.25278,0,0,0,14,26.25v-3.5a2.25278,2.25278,0,0,0-2.25-2.25H8.25A2.25278,2.25278,0,0,0,6,22.75v3.5A2.25278,2.25278,0,0,0,8.25,28.5ZM7,22.75A1.25116,1.25116,0,0,1,8.25,21.5h3.5A1.25116,1.25116,0,0,1,13,22.75v3.5a1.25116,1.25116,0,0,1-1.25,1.25H8.25A1.25116,1.25116,0,0,1,7,26.25Z"/></g></svg>