<svg xmlns="http://www.w3.org/2000/svg" viewBox="0 0 48 48"><defs><style>.cls-1{fill:#ff6c2c;}</style></defs><g id="Base_Icons" data-name="Base Icons"><path d="M30.07666,28.42871A40.05076,40.05076,0,0,0,24,28C13.0835,28,6.69727,31.51172,5.53271,38.15625a2.23227,2.23227,0,0,0,.51807,1.8418A2.93288,2.93288,0,0,0,8.28271,41H26.71729a.5.5,0,0,0,0-1H8.28271a1.9206,1.9206,0,0,1-1.4663-.64551,1.24592,1.24592,0,0,1-.29834-1.02637C7.86914,30.61816,16.77051,29,24,29a39.04684,39.04684,0,0,1,5.92334.417.50005.50005,0,0,0,.15332-.98828Z"/><path d="M24,5.5a9.43745,9.43745,0,0,0-5.51611,1.76465.50024.50024,0,0,0,.58105.81445,8.49947,8.49947,0,1,1-3.44824,8.334.49994.49994,0,1,0-.98633.16406A9.50067,9.50067,0,1,0,24,5.5Z"/></g><g id="Sub_Icons" data-name="Sub Icons"><path class="cls-1" d="M31.5,35h9a.5.5,0,0,0,.35352-.85352l-3.5-3.5a.5.5,0,0,0-.707.707L39.293,34H31.5a.5.5,0,0,0,0,1Z"/><path class="cls-1" d="M40.5,37h-9a.5.5,0,0,0-.35352.85352l3.5,3.5a.5.5,0,0,0,.707-.707L32.707,38H40.5a.5.5,0,0,0,0-1Z"/><path class="cls-1" d="M8,13.5A1.99785,1.99785,0,0,0,9.096,9.83032L9.80078,8.5H11.5v4.071a2,2,0,1,0,1,0V8.5h1.69092L14.868,9.85406A1.99684,1.99684,0,1,0,16,9.5c-.06226,0-.12091.01276-.1817.01837l-.871-1.742A.5011.5011,0,0,0,14.5,7.5h-5a.50121.50121,0,0,0-.44189.26562L8.13177,9.51331C8.0874,9.51038,8.0451,9.5,8,9.5a2,2,0,0,0,0,4Zm5,1a1,1,0,1,1-1-1A1.001,1.001,0,0,1,13,14.5Zm4-3a1,1,0,1,1-1-1A1.001,1.001,0,0,1,17,11.5Zm-9-1a1,1,0,1,1-1,1A1.001,1.001,0,0,1,8,10.5Z"/></g></svg>