<svg xmlns="http://www.w3.org/2000/svg" viewBox="0 0 48 48"><defs><style>.cls-1{fill:#ff6c2c;}</style></defs><g id="Base_Icons" data-name="Base Icons"><path d="M13.5,24.5h.56573l-.48175.72266a.5.5,0,1,0,.832.55468l.584-.876.584.876a.5.5,0,0,0,.832-.55468L15.93427,24.5H16.5a.5.5,0,0,0,0-1h-1v-1a.5.5,0,0,0-1,0v1h-1a.5.5,0,0,0,0,1Z"/><path d="M21,22a.49971.49971,0,0,0-.5.5v1h-1a.5.5,0,0,0,0,1h.56573l-.48175.72266a.5.5,0,1,0,.832.55468l.584-.876.584.876a.5.5,0,0,0,.832-.55468L21.93427,24.5H22.5a.5.5,0,0,0,0-1h-1v-1A.49971.49971,0,0,0,21,22Z"/><path d="M28.5,23.5h-1v-1a.5.5,0,0,0-1,0v1h-1a.5.5,0,0,0,0,1h.56573l-.48175.72266a.5.5,0,1,0,.832.55468l.584-.876.584.876a.5.5,0,0,0,.832-.55468L27.93427,24.5H28.5a.5.5,0,0,0,0-1Z"/><path d="M34.5,25h-3a.5.5,0,0,0,0,1h3a.5.5,0,0,0,0-1Z"/><path d="M41.5,10H13.72266a.5.5,0,1,0,0,1H41.5a.501.501,0,0,1,.5.5v15a.5.5,0,0,0,1,0v-15A1.50164,1.50164,0,0,0,41.5,10Z"/><path d="M26.68555,37H6.50049A.50107.50107,0,0,1,6,36.5V14.5498a.5.5,0,1,0-1,0V36.5A1.50206,1.50206,0,0,0,6.50049,38H26.68555a.5.5,0,1,0,0-1Z"/><path d="M5.1499,10.84961a.36207.36207,0,0,0,.16016.11035.47053.47053,0,0,0,.37988,0,.35789.35789,0,0,0,.15967-.11035A.35172.35172,0,0,0,5.96,10.68945.40679.40679,0,0,0,6,10.5a.47183.47183,0,0,0-.15039-.35059A.34833.34833,0,0,0,5.68994,10.04a.50154.50154,0,0,0-.37988,0,.35231.35231,0,0,0-.16016.10937A.47136.47136,0,0,0,5,10.5a.40093.40093,0,0,0,.04.18945A.35074.35074,0,0,0,5.1499,10.84961Z"/><path d="M8.0498,10.96a.40241.40241,0,0,0,.19043.04.51411.51411,0,0,0,.5-.5.47365.47365,0,0,0-.15039-.35059A.34978.34978,0,0,0,8.42969,10.04a.50157.50157,0,0,0-.37989,0,.35488.35488,0,0,0-.16015.10937.48486.48486,0,0,0,0,.7002A.36479.36479,0,0,0,8.0498,10.96Z"/><path d="M10.79,10.96a.47053.47053,0,0,0,.37988,0,.36482.36482,0,0,0,.16016-.11035.34975.34975,0,0,0,.10937-.16016.40081.40081,0,0,0,.04-.18945.4727.4727,0,0,0-.14941-.35059.50236.50236,0,0,0-.7002,0,.47365.47365,0,0,0-.15039.35059.455.455,0,0,0,.15039.34961A.35936.35936,0,0,0,10.79,10.96Z"/></g><g id="Sub_Icons" data-name="Sub Icons"><path class="cls-1" d="M40.49707,34H31.50293A1.50414,1.50414,0,0,0,30,35.50293v4.99414A1.50414,1.50414,0,0,0,31.50293,42h8.99414A1.50414,1.50414,0,0,0,42,40.49707V35.50293A1.50414,1.50414,0,0,0,40.49707,34ZM41,40.49707A.50347.50347,0,0,1,40.49707,41H31.50293A.50347.50347,0,0,1,31,40.49707V35.50293A.50347.50347,0,0,1,31.50293,35h8.99414A.50347.50347,0,0,1,41,35.50293Z"/><path class="cls-1" d="M39.5,33a.49971.49971,0,0,0,.5-.5V31.48145A1.48373,1.48373,0,0,0,38.51855,30h-5.0371A1.48373,1.48373,0,0,0,32,31.48145V32.5a.5.5,0,0,0,1,0V31.48145A.48179.48179,0,0,1,33.48145,31h5.0371A.48179.48179,0,0,1,39,31.48145V32.5A.49971.49971,0,0,0,39.5,33Z"/><circle class="cls-1" cx="34.5" cy="38" r="0.54999"/><circle class="cls-1" cx="37.5" cy="38" r="0.54999"/></g></svg>