<svg xmlns="http://www.w3.org/2000/svg" viewBox="0 0 48 48"><defs><style>.cls-1{fill:#ff6c2c;}</style></defs><g id="Base_Icons" data-name="Base Icons"><path d="M26.84375,38H9.15527a1.88954,1.88954,0,0,1-1.44336-.59863.82469.82469,0,0,1-.19726-.68457C8.78125,30.33887,17.17871,29,24,29a38.12755,38.12755,0,0,1,7.1748.60742.51138.51138,0,0,0,.58594-.39648.50114.50114,0,0,0-.39648-.58594A39.13442,39.13442,0,0,0,24,28C13.68066,28,7.6416,30.94629,6.53418,36.52148A1.80249,1.80249,0,0,0,6.939,38.03516,2.86283,2.86283,0,0,0,9.15527,39H26.84375a.5.5,0,0,0,0-1Z"/><path d="M24,24a7.9633,7.9633,0,0,1-7.64062-5.62109.50008.50008,0,1,0-.95508.29687A9.00206,9.00206,0,1,0,18.89453,8.58789a.49979.49979,0,0,0,.56836.82227A8.0003,8.0003,0,1,1,24,24Z"/><path d="M32.583,24.16406a.49764.49764,0,0,0-.1286.36316.48309.48309,0,0,0,.01776.07257.48962.48962,0,0,0,.029.113.49815.49815,0,0,0,.11554.15662l.00049.00067a.49593.49593,0,0,0,.16607.09887l.00287.00171a19.04154,19.04154,0,0,1,6.915,4.28223.5.5,0,0,0,.69922-.71484,19.95364,19.95364,0,0,0-6.63525-4.24018,12.668,12.668,0,0,0-.4419-16.13385.49984.49984,0,1,0-.74023.67188A11.63567,11.63567,0,0,1,32.583,24.16406Z"/><path d="M15.21387,24.9707l.00287-.00171a.49593.49593,0,0,0,.16607-.09887l.00043-.00061a.40687.40687,0,0,0,.14435-.26862.48311.48311,0,0,0,.01806-.07379.49776.49776,0,0,0-.12866-.363A11.16648,11.16648,0,0,1,12.6875,18.4082a.49962.49962,0,0,0-.98633.16016A12.214,12.214,0,0,0,14.21667,24.29C7.58142,26.90662,3,32.65118,3,38.48242a.5.5,0,0,0,1,0C4,32.87305,8.61133,27.31738,15.21387,24.9707Z"/></g><g id="Sub_Icons" data-name="Sub Icons"><path class="cls-1" d="M31.5,35h9a.5.5,0,0,0,.35352-.85352l-3.5-3.5a.5.5,0,0,0-.707.707L39.293,34H31.5a.5.5,0,0,0,0,1Z"/><path class="cls-1" d="M40.5,37h-9a.5.5,0,0,0-.35352.85352l3.5,3.5a.5.5,0,0,0,.707-.707L32.707,38H40.5a.5.5,0,0,0,0-1Z"/><path class="cls-1" d="M8,13.5A1.99773,1.99773,0,0,0,9.09558,9.83026L9.80078,8.5H11.5v4.071a2,2,0,1,0,1,0V8.5h1.69141l.67669,1.35413A1.99667,1.99667,0,1,0,16,9.5c-.06226,0-.12091.01276-.1817.01837l-.871-1.742A.5011.5011,0,0,0,14.5,7.5h-5a.49878.49878,0,0,0-.44141.26562L8.13226,9.51337C8.08771,9.51038,8.04529,9.5,8,9.5a2,2,0,0,0,0,4Zm5,1a1,1,0,1,1-1-1A1.00067,1.00067,0,0,1,13,14.5Zm4-3a1,1,0,1,1-1-1A1.00067,1.00067,0,0,1,17,11.5Zm-9-1a1,1,0,1,1-1,1A1.00067,1.00067,0,0,1,8,10.5Z"/></g></svg>