<svg xmlns="http://www.w3.org/2000/svg" viewBox="0 0 48 48"><defs><style>.cls-1{fill:#ff6c2c;}</style></defs><g id="Base_Icons" data-name="Base Icons"><path d="M38,21.5H35.5a.5.5,0,0,0,0,1H38a2,2,0,0,0,0-4H37a1,1,0,0,1,0-2h1.5a.5.5,0,0,0,0-1H37a2,2,0,0,0,0,4h1a1,1,0,0,1,0,2Z"/><path d="M17.75,15.5a.49971.49971,0,0,0-.5.5V32a.5.5,0,0,0,1,0V16A.49971.49971,0,0,0,17.75,15.5Z"/><path d="M32.75,20.7998A5.323,5.323,0,0,0,27.4165,15.5h-4.833a.49971.49971,0,0,0-.5.5V32a.5.5,0,0,0,1,0V26.09961h4.333A5.323,5.323,0,0,0,32.75,20.7998ZM23.0835,16.5h4.333a4.29994,4.29994,0,1,1,0,8.59961h-4.333Z"/></g><g id="Sub_Icons" data-name="Sub Icons"><path class="cls-1" d="M41.44434,36.75586l-.24268.4375.20605-.47754A5.09232,5.09232,0,0,0,41.459,36c0-.24316-.01806-.48145-.01464-.75586a1.06861,1.06861,0,0,0,.52-.66211,1.0487,1.0487,0,0,0-.11573-.81641L40.919,32.2168a1.09938,1.09938,0,0,0-1.43311-.41211c-.02.00781-.13428.01953-.15332.03027a7.46133,7.46133,0,0,0-1.30664-.76172A1.08609,1.08609,0,0,0,36.92969,30H35.07031a1.141,1.141,0,0,0-1.126,1.123,9.87553,9.87553,0,0,0-1.376.707,1.12043,1.12043,0,0,0-1.48877.38965l-.92822,1.54589a1.0487,1.0487,0,0,0-.11573.81641,1.18389,1.18389,0,0,0,.55665.70215A5.09232,5.09232,0,0,0,30.541,36c0,.24316.01806.48145.01464.75586a1.07023,1.07023,0,0,0-.51953.66113,1.04941,1.04941,0,0,0,.11524.81739l.92968,1.54882a1.09781,1.09781,0,0,0,1.43311.41211c.02-.00781.13428-.01953.15332-.03027a7.46133,7.46133,0,0,0,1.30664.76172A1.08609,1.08609,0,0,0,35.07031,42h1.85938a1.141,1.141,0,0,0,1.126-1.123,5.48465,5.48465,0,0,0,1.27686-.71191l-.29932-.40039.39991.40625a1.11332,1.11332,0,0,0,1.48681-.39063l.92871-1.54687a1.04646,1.04646,0,0,0,.11524-.81641A1.07023,1.07023,0,0,0,41.44434,36.75586ZM40.0625,39.26562a.11664.11664,0,0,1-.14893.02735,1.091,1.091,0,0,0-1.17968.07129,4.47376,4.47376,0,0,1-1.0459.583,1.047,1.047,0,0,0-.66211.97949A.08941.08941,0,0,1,36.92969,41H35.07031a.08866.08866,0,0,1-.09619-.07422,1.04588,1.04588,0,0,0-.66357-.97851,4.49381,4.49381,0,0,1-1.04444-.583,1.06674,1.06674,0,0,0-.63965-.21094,1.13147,1.13147,0,0,0-.54541.14258.10841.10841,0,0,1-.14306-.0293l-.896-1.63672a1.04337,1.04337,0,0,0,.54053-1.05664A3.97114,3.97114,0,0,1,31.541,36a4.0188,4.0188,0,0,1,.0415-.5752,1.21648,1.21648,0,0,0-.57373-1.14355l.92773-1.5459a.11407.11407,0,0,1,.14991-.02832,1.09147,1.09147,0,0,0,1.17968-.07129,4.47376,4.47376,0,0,1,1.0459-.583,1.047,1.047,0,0,0,.66211-.97949A.08941.08941,0,0,1,35.07031,31h1.85938a.08866.08866,0,0,1,.09619.07422,1.04588,1.04588,0,0,0,.66357.97851,4.49381,4.49381,0,0,1,1.04444.583,1.094,1.094,0,0,0,1.18506.06836.11093.11093,0,0,1,.14306.0293l.896,1.63672a1.04337,1.04337,0,0,0-.54053,1.05664A3.97114,3.97114,0,0,1,40.459,36a4.0188,4.0188,0,0,1-.0415.5752,1.04213,1.04213,0,0,0,.54053,1.05468l.0332.08887Z"/><path class="cls-1" d="M37.25,33.834a2.50054,2.50054,0,1,0,.915,3.416A2.50474,2.50474,0,0,0,37.25,33.834Zm.04883,2.916A1.499,1.499,0,1,1,36.75,34.7002,1.504,1.504,0,0,1,37.29883,36.75Z"/></g></svg>