<svg xmlns="http://www.w3.org/2000/svg" viewBox="0 0 48 48"><defs><style>.cls-1{fill:#ff6c2c;}</style></defs><g id="Base_Icons" data-name="Base Icons"><path d="M19.68928,5.26694c.51828-.13579,1.01294-.26085,1.50516-.39526a11.07591,11.07591,0,0,1,3.00865-.37135,12.427,12.427,0,0,1,6.408,1.75238,12.85631,12.85631,0,0,1,6.22112,8.8612,4.50364,4.50364,0,0,1-.078,1.64678,12.35454,12.35454,0,0,1-3.561,6.882c-.07724.07679-.15707.151-.23629.22576a.37212.37212,0,0,1-.05347.03065c.0777-.26851.15174-.51864.22243-.76983a14.08955,14.08955,0,0,0,.50882-3.28575,13.71141,13.71141,0,0,0-.96083-5.686,6.38011,6.38011,0,0,0-.79036-1.40693,37.08132,37.08132,0,0,0-2.34793-2.9852,13.52614,13.52614,0,0,0-7.80718-4.25053c-.66072-.11847-1.33408-.16429-2.03913-.248ZM30.27476,17.80853a14.06522,14.06522,0,0,0-10.257-7.67389,13.98076,13.98076,0,0,0-12.26706,3.533c.16575-.29932.32023-.60569.49939-.89658a12.50037,12.50037,0,0,1,8.47627-5.99769A12.98906,12.98906,0,0,1,27.00088,8.94044a3.71138,3.71138,0,0,1,.773.83373,11.97218,11.97218,0,0,1,2.388,5.75125c.09233.70193.09095,1.41643.13072,2.1251a1.06687,1.06687,0,0,1-.01783.15786ZM23.7523,15.223a13.80547,13.80547,0,0,0-12.49374,1.79085,13.94716,13.94716,0,0,0-6.0633,11.179c-.037-.113-.06749-.20384-.09674-.29533-.03123-.09809-.064-.19618-.09155-.29549a12.63656,12.63656,0,0,1-.49878-3.88883,12.8735,12.8735,0,0,1,3.62869-8.66595,12.61389,12.61389,0,0,1,6.07594-3.55548,6.85469,6.85469,0,0,1,1.15263-.231,4.72706,4.72706,0,0,1,1.04539.06927,12.18808,12.18808,0,0,1,6.50936,3.039c.30057.26912.56534.57825.8321.85366ZM27.96659,42.82c-.36257.10192-.72317.212-1.08849.30422a11.58764,11.58764,0,0,1-3.55785.35618A12.70646,12.70646,0,0,1,12.972,37.46371a11.95016,11.95016,0,0,1-1.81335-4.76394,4.25245,4.25245,0,0,1,.05987-1.23007,12.15781,12.15781,0,0,1,2.55572-5.95064c.37294-.46821.80514-.88891,1.211-1.3306a1.00583,1.00583,0,0,1,.10146-.084,14.04427,14.04427,0,0,0,1.7742,12.606A13.85359,13.85359,0,0,0,27.96675,42.82ZM17.69875,30.32623a14.06648,14.06648,0,0,0,22.25367,4.06722c-.16164.29426-.31261.595-.48689.88125a12.85931,12.85931,0,0,1-18.48772,3.93786,2.07459,2.07459,0,0,1-.40859-.38238,12.3039,12.3039,0,0,1-2.73153-6.00811,12.71651,12.71651,0,0,1-.15143-2.3786c.00076-.03.0061-.06008.01249-.11724ZM42.86433,19.82605c.15417.67864.3321,1.353.457,2.03683a12.081,12.081,0,0,1,.112,3.361,12.65763,12.65763,0,0,1-1.59245,5.0697,12.856,12.856,0,0,1-6.27506,5.61591,10.83931,10.83931,0,0,1-2.8307.80891,4.39486,4.39486,0,0,1-1.18768-.06284A12.13976,12.13976,0,0,1,26.284,34.57889a12.32463,12.32463,0,0,1-1.97514-1.70978c-.03123-.03356-.0585-.07095-.08775-.107a13.8251,13.8251,0,0,0,12.5233-1.77828,13.9193,13.9193,0,0,0,6.06405-11.14049l.05592-.01732ZM18.77567,29.76468a15.26277,15.26277,0,0,0,2.67959,1.95744.4824.4824,0,0,1,.14716.15479,13.699,13.699,0,0,0,4.5496,4.36485.23412.23412,0,0,1,.08623.07709,12.84639,12.84639,0,0,1-7.46242-6.55417ZM29.20089,18.20885c-.26615-.225-.519-.469-.80133-.67143-.5847-.41917-1.1857-.815-1.77786-1.22348a.765.765,0,0,1-.211-.19,13.75866,13.75866,0,0,0-4.50131-4.33911.30132.30132,0,0,1-.10573-.09272,12.73838,12.73838,0,0,1,7.39722,6.51678Zm7.18257,3.32881a12.89438,12.89438,0,0,1-6.50738,7.47865c.03-.03924.05713-.08077.08988-.11725a14.35884,14.35884,0,0,0,1.78562-2.47423.6379.6379,0,0,1,.19028-.2115,13.78387,13.78387,0,0,0,4.3511-4.59214c.01524-.0259.03306-.05027.05058-.07464l.03991-.009ZM18.1174,18.96657c-.37736.48583-.76812.96431-1.1304,1.46363-.25578.3522-.46891.73565-.71023,1.09919a1.02227,1.02227,0,0,1-.26477.28567,13.79893,13.79893,0,0,0-4.2539,4.48516c-.02956.05012-.06323.09763-.11457.17641a12.85066,12.85066,0,0,1,6.474-7.51006Zm-4.54687-1.89675a12.65753,12.65753,0,0,1,9.81858-.68124,14.0705,14.0705,0,0,0-2.87169.43464,2.04889,2.04889,0,0,1-.93935.02407,13.38736,13.38736,0,0,0-5.90425.20429c-.03351.00874-.06886.01226-.10329.01824Zm2.65323,7.436c.07465.6204.13726,1.25336.23217,1.88142.06124.40706.16088.80937.26112,1.20922a1.12831,1.12831,0,0,1,.01417.5171,12.58614,12.58614,0,0,0-.22913,3.7889c.08455.84324.24421,1.67882.353,2.4042a12.50949,12.50949,0,0,1-1.2707-4.7687,13.22947,13.22947,0,0,1,.63939-5.03215ZM31.10473,13.541a13.20475,13.20475,0,0,1,.686,9.951c-.08882-.68737-.17108-1.37781-.27041-2.06564a5.124,5.124,0,0,0-.18693-.85228,1.71919,1.71919,0,0,1-.02133-.892,12.90476,12.90476,0,0,0,.11274-4.3322c-.08562-.58714-.20567-1.16938-.31993-1.80894ZM24.5972,31.60119a15.48556,15.48556,0,0,0,3.26443-.51235,1.124,1.124,0,0,1,.45947.04568,13.54684,13.54684,0,0,0,6.04852-.19694.19711.19711,0,0,1,.10435-.00583,12.78557,12.78557,0,0,1-9.87677.6696Z"/></g><g id="Sub_Icons" data-name="Sub Icons"><path class="cls-1" d="M34.327,7.97352a12.90258,12.90258,0,0,1,6.99458,9.43577,12.74575,12.74575,0,0,1-2.19086,9.67348,4.49648,4.49648,0,0,1-1.06275.94961,11.97413,11.97413,0,0,1-5.80965,2.27223c-.6438.07387-1.29553.0774-1.94345.0915A14.07237,14.07237,0,0,0,37.92152,20.1879,13.95473,13.95473,0,0,0,34.327,7.97352Z"/><path class="cls-1" d="M17.59089,17.86585a14.21882,14.21882,0,0,0-4.03346,22.35363l-.03047.04475c-.55179-.34361-1.12415-.65856-1.65187-1.036A12.52976,12.52976,0,0,1,6.75984,31.6087,12.80775,12.80775,0,0,1,8.82821,21.07053a1.541,1.541,0,0,1,.27514-.28752,12.12032,12.12032,0,0,1,6.49793-2.8485c.65752-.07938,1.32387-.08291,1.98641-.12122l.00305.05256Z"/></g></svg>