<svg xmlns="http://www.w3.org/2000/svg" viewBox="0 0 48 48"><defs><style>.cls-1{fill:#ff6c2c;}</style></defs><g id="Base_Icons" data-name="Base Icons"><path d="M34.5,12h-21a.5.5,0,0,0,0,1h21a.5.5,0,0,0,0-1Z"/><path d="M34.5,36h-21a.5.5,0,0,0,0,1h21a.5.5,0,0,0,0-1Z"/><path d="M40.49805,23H40l-.002-12.501A1.50122,1.50122,0,0,0,38.499,9H37.5a.5.5,0,0,0,0,1h.999a.4993.4993,0,0,1,.499.499L39,23.5a.49971.49971,0,0,0,.5.5h.998a.5.5,0,1,1,0,1H39.5a.49971.49971,0,0,0-.5.5l-.002,13.001a.4993.4993,0,0,1-.499.499H37.5a.5.5,0,0,0,0,1h.999a1.50122,1.50122,0,0,0,1.499-1.499L40,26h.498A1.50377,1.50377,0,0,0,42,24.50684v-.01368A1.50377,1.50377,0,0,0,40.49805,23Z"/><path d="M34.5,18h-21a.5.5,0,0,0,0,1h21a.5.5,0,0,0,0-1Z"/><path d="M34.5,30h-21a.5.5,0,0,0,0,1h21a.5.5,0,0,0,0-1Z"/><path d="M7.502,24H8.5a.49971.49971,0,0,0,.5-.5l.002-13.001A.4993.4993,0,0,1,9.501,10H10.5a.5.5,0,0,0,0-1H9.501a1.50122,1.50122,0,0,0-1.499,1.499L8,23H7.502A1.50377,1.50377,0,0,0,6,24.49316v.01368A1.50377,1.50377,0,0,0,7.502,26H8l.002,12.501A1.50122,1.50122,0,0,0,9.501,40H10.5a.5.5,0,0,0,0-1H9.501a.4993.4993,0,0,1-.499-.499L9,25.5a.49971.49971,0,0,0-.5-.5H7.502a.5.5,0,1,1,0-1Z"/><path d="M34.5,15h-21a.5.5,0,0,0,0,1h21a.5.5,0,0,0,0-1Z"/><path d="M34.5,33h-21a.5.5,0,0,0,0,1h21a.5.5,0,0,0,0-1Z"/></g><g id="Sub_Icons" data-name="Sub Icons"><path class="cls-1" d="M34.5,24h-21a.5.5,0,0,0,0,1h21a.5.5,0,0,0,0-1Z"/><path class="cls-1" d="M34.5,21h-21a.5.5,0,0,0,0,1h21a.5.5,0,0,0,0-1Z"/><path class="cls-1" d="M34.5,27h-21a.5.5,0,0,0,0,1h21a.5.5,0,0,0,0-1Z"/></g></svg>