<svg xmlns="http://www.w3.org/2000/svg" viewBox="0 0 48 48"><defs><style>.cls-1{fill:#ff6c2c;}</style></defs><g id="Base_Icons" data-name="Base Icons"><path d="M28.375,41c-1.59863-.01855-2.12012-.29785-2.44336-.74316a5.06047,5.06047,0,0,1-.95117-1.876,55.755,55.755,0,0,1-.41211-9.11328V29.126a.44833.44833,0,0,0-.49316-.43555.60994.60994,0,0,0-.50684.55176,55.72372,55.72372,0,0,0,.44336,9.38574,6.06065,6.06065,0,0,0,1.11133,2.21777c.58984.81055,1.498,1.13379,3.24023,1.1543h.00586a.5.5,0,0,0,.00586-1Z"/><path d="M35.22363,26.793a.49972.49972,0,0,0-.5.5v.02148a.49067.49067,0,0,0,.5.48926.509.509,0,0,0,.5-.51074A.49971.49971,0,0,0,35.22363,26.793Z"/><path d="M23.6748,17.16406a2.71333,2.71333,0,0,0-3.291-2.21582,8.1898,8.1898,0,0,0-2.835.96753c.13159-1.62866.63843-4.73437,2.58691-6.70386a6.331,6.331,0,0,1,4.80274-1.8125C31.45215,7.502,34.22266,13,34.81641,14.78711c-1.96582-.20606-3.30079.17773-3.97364,1.14551-1.29589,1.86328.22852,5.125,1.88965,8.07129a.51253.51253,0,0,0,.13574.15429,2.38865,2.38865,0,0,0,2.68653.02246c.00958-.0061.01458-.01611.02362-.02246a.49573.49573,0,0,0,.08417-.08056.48143.48143,0,0,0,.045-.05493,1.02846,1.02846,0,0,0,.06872-.17286c.00141-.00732.00592-.01318.007-.02075a11.11693,11.11693,0,0,0-.081-2.94824,12.52544,12.52544,0,0,1-.12891-1.78711A12.66963,12.66963,0,0,1,35.74316,17.5a10.06393,10.06393,0,0,0,.15412-1.96484.73632.73632,0,0,0,.04021-.34082A12.35852,12.35852,0,0,0,29.267,7.31982c2.26391-.4812,7.136-.92187,10.27106,3.07471,1.12988,1.46875.18652,7.39746-2.76758,13.13477a.49842.49842,0,0,0,.21582.67285.49321.49321,0,0,0,.22851.05566.49915.49915,0,0,0,.44434-.27148c3.00684-5.83789,4.20508-12.209,2.66894-14.20508C36.11328,4.40918,28.92773,6.169,27.67383,6.71582a.47631.47631,0,0,0-.06989.03076,11.59448,11.59448,0,0,0-2.65082-.34717c-.04589-.001-.09082-.001-.13574-.001a7.55231,7.55231,0,0,0-4.37225,1.26318c-1.18036-.44775-7.043-2.46826-10.67072.09717-2.00586,1.41992-2.93164,3.96289-2.75195,7.56055C7.10645,17,9.58105,30.42773,13.4668,31.71875a2.03172,2.03172,0,0,0,.64355.10645,2.72006,2.72006,0,0,0,2.07617-1.18262c1.309-1.5813,2.51545-2.88135,2.91083-3.30176a4.59263,4.59263,0,0,0,2.18878.585c.14453,0,.29-.00683.43457-.02051a.50165.50165,0,0,0,.4502-.543,2.16409,2.16409,0,0,1,.44238-1.46679l.1836-.30957C24.418,22.78125,24.169,19.458,23.6748,17.16406ZM33.543,23.40527c-.875-1.55371-2.96582-5.33984-1.87891-6.90234.56446-.80957,1.98493-.8523,3.22473-.70044a10.31391,10.31391,0,0,1-.13391,1.54712,13.42848,13.42848,0,0,0-.18164,1.71484A13.48281,13.48281,0,0,0,34.709,20.999a11.378,11.378,0,0,1,.10407,2.4458A1.38574,1.38574,0,0,1,33.543,23.40527ZM15.417,30.00391c-.85156,1.02929-1.44433.833-1.63476.76562-3.03321-1.00781-5.64258-13.12207-5.76172-15.501-.16113-3.23144.623-5.48242,2.33008-6.69238,2.80188-1.98218,7.40564-.75976,9.18817-.17041-.03815.03711-.07935.06885-.11688.10694-3.02149,3.05664-2.92579,8.28808-2.91993,8.50976a.60126.60126,0,0,0,.01252.06348c.003.10669.00982.24292.02069.42578a21.4738,21.4738,0,0,1-.10645,4.35254,5.44918,5.44918,0,0,0,1.43555,4.56054,5.034,5.034,0,0,0,.39941.34327C17.77063,27.29614,16.632,28.53613,15.417,30.00391Zm6.4834-4.86426-.1416.23535a3.37057,3.37057,0,0,0-.58691,1.54883,3.76076,3.76076,0,0,1-2.58594-1.19141A4.45482,4.45482,0,0,1,17.419,22.002a22.74185,22.74185,0,0,0,.11523-4.5498c-.00781-.125-.01465-.23145-.01856-.31738a5.85361,5.85361,0,0,1,3.92383-1.15625A1.61619,1.61619,0,0,1,22.69727,17.375C23.1543,19.49609,23.39258,22.55664,21.90039,25.13965Z"/><path d="M21.333,16.23047a1.65314,1.65314,0,0,0-1.14552.19238.65837.65837,0,0,0-.26073.43555,1.069,1.069,0,0,0,.33594.79785,1.47,1.47,0,0,0,.84472.45605,1.1713,1.1713,0,0,0,.165.01172,1.27728,1.27728,0,0,0,1.24121-.90625.66089.66089,0,0,0-.13379-.49218A1.67028,1.67028,0,0,0,21.333,16.23047Z"/><path d="M32.918,15.87988c-.77832.1084-1.24219.49317-1.18164.98145a1.0364,1.0364,0,0,0,.415.625,1.36824,1.36824,0,0,0,.82519.28711,1.20032,1.20032,0,0,0,.167-.01172c.63282-.08789,1.251-.74512,1.18067-1.25488a.6563.6563,0,0,0-.26074-.43457A1.65307,1.65307,0,0,0,32.918,15.87988Z"/></g><g id="Sub_Icons" data-name="Sub Icons"><path class="cls-1" d="M41.44336,36.75586l-.24219.4375.207-.47754A5.09248,5.09248,0,0,0,41.459,36c0-.24316-.01757-.48145-.01464-.75586a1.06623,1.06623,0,0,0,.51953-.66211,1.04234,1.04234,0,0,0-.11524-.81641L40.919,32.21875a1.08577,1.08577,0,0,0-1.40625-.4248c-.03028.01074-.15235.02539-.17969.041a7.45965,7.45965,0,0,0-1.30762-.76172A1.08567,1.08567,0,0,0,36.92969,30H35.07031a1.14287,1.14287,0,0,0-1.127,1.123,9.82442,9.82442,0,0,0-1.375.708,1.11351,1.11351,0,0,0-1.48828.38868l-.92871,1.54589a1.0447,1.0447,0,0,0-.11524.81739,1.184,1.184,0,0,0,.55567.70117A5.09248,5.09248,0,0,0,30.541,36c0,.24316.01757.48145.01562.75586a1.06586,1.06586,0,0,0-.52051.66113,1.0447,1.0447,0,0,0,.11524.81739l.92968,1.54687a1.08452,1.08452,0,0,0,1.40625.4248c.03028-.01074.15235-.02539.17969-.041a7.45965,7.45965,0,0,0,1.30762.76172A1.08567,1.08567,0,0,0,35.07031,42h1.85938a1.14287,1.14287,0,0,0,1.127-1.123A5.50691,5.50691,0,0,0,39.333,40.165l.10058.00586a1.11342,1.11342,0,0,0,1.48633-.39063l.92871-1.54589a1.0447,1.0447,0,0,0,.11524-.81739A1.06586,1.06586,0,0,0,41.44336,36.75586Zm-1.38087,2.50976a.11215.11215,0,0,1-.14843.02833,1.0855,1.0855,0,0,0-1.18066.07031,4.50867,4.50867,0,0,1-1.04492.583,1.0489,1.0489,0,0,0-.66309.97949A.08744.08744,0,0,1,36.92969,41H35.07031a.08846.08846,0,0,1-.0957-.07422,1.047,1.047,0,0,0-.66406-.97851,4.52182,4.52182,0,0,1-1.044-.583,1.06959,1.06959,0,0,0-.64062-.21094,1.11619,1.11619,0,0,0-.54493.14258.11009.11009,0,0,1-.14257-.0293L31.043,37.62988a1.04154,1.04154,0,0,0,.53906-1.05664,4.02012,4.02012,0,0,1,0-1.14551,1.21383,1.21383,0,0,0-.57324-1.14648l.9287-1.54687a.11731.11731,0,0,1,.14845-.02833,1.08957,1.08957,0,0,0,1.18066-.07031,4.50826,4.50826,0,0,1,1.04492-.583,1.0489,1.0489,0,0,0,.66309-.97949A.08744.08744,0,0,1,35.07031,31h1.85938a.08846.08846,0,0,1,.0957.07422,1.047,1.047,0,0,0,.66406.97851,4.52223,4.52223,0,0,1,1.044.583,1.09122,1.09122,0,0,0,1.18555.06836.10755.10755,0,0,1,.14257.0293l.89551,1.63672a1.04154,1.04154,0,0,0-.53906,1.05664,4.02012,4.02012,0,0,1,0,1.14551,1.04216,1.04216,0,0,0,.53906,1.05761l.03418.08887Z"/><path class="cls-1" d="M37.25,33.834a2.49982,2.49982,0,1,0,.915,3.416h.001A2.50612,2.50612,0,0,0,37.25,33.834Zm.0498,2.916a1.49962,1.49962,0,1,1-.5498-2.0498A1.50474,1.50474,0,0,1,37.2998,36.75Z"/></g></svg>