<svg xmlns="http://www.w3.org/2000/svg" viewBox="0 0 48 48"><defs><style>.cls-1{fill:#ff6c2c;}</style></defs><g id="Base_Icons" data-name="Base Icons"><path d="M8.5,40a.49971.49971,0,0,1-.5-.5v-12a.5.5,0,0,1,1,0v12A.49971.49971,0,0,1,8.5,40Z"/><path d="M12.5,40a.49971.49971,0,0,1-.5-.5v-22a.5.5,0,0,1,1,0v22A.49971.49971,0,0,1,12.5,40Z"/><path d="M16.5,40a.49971.49971,0,0,1-.5-.5v-19a.5.5,0,0,1,1,0v19A.49971.49971,0,0,1,16.5,40Z"/><path d="M20.5,40a.49971.49971,0,0,1-.5-.5V8.5a.5.5,0,0,1,1,0v31A.49971.49971,0,0,1,20.5,40Z"/><path d="M32.5,33a.49971.49971,0,0,1-.5-.5v-17a.5.5,0,0,1,1,0v17A.49971.49971,0,0,1,32.5,33Z"/><path d="M24.5,40a.49971.49971,0,0,1-.5-.5v-14a.5.5,0,0,1,1,0v14A.49971.49971,0,0,1,24.5,40Z"/><path d="M28.5,33a.49971.49971,0,0,1-.5-.5v-14a.5.5,0,0,1,1,0v14A.49971.49971,0,0,1,28.5,33Z"/><path d="M36.5,33a.49971.49971,0,0,1-.5-.5v-6a.5.5,0,0,1,1,0v6A.49971.49971,0,0,1,36.5,33Z"/><path d="M40.5,33a.49971.49971,0,0,1-.5-.5v-10a.5.5,0,0,1,1,0v10A.49971.49971,0,0,1,40.5,33Z"/></g><g id="Sub_Icons" data-name="Sub Icons"><path class="cls-1" d="M32.86878,36.72374h2.16859l-.33584,1.17253a.74131.74131,0,0,1-.28787.39375.82779.82779,0,0,1-.48937.14874H32.91676a1.03945,1.03945,0,0,0-.60931.18377.96261.96261,0,0,0-.36945.49874.85028.85028,0,0,0-.01437.44622.92557.92557,0,0,0,.1871.37187.95354.95354,0,0,0,.34543.25817,1.095,1.095,0,0,0,.4606.09622h.61412a.35855.35855,0,0,1,.28306.12686.28346.28346,0,0,1,.06238.28438L33.49249,42h-.67168a2.92657,2.92657,0,0,1-1.27141-.2756,2.82525,2.82525,0,0,1-.96437-.73065,2.47806,2.47806,0,0,1-.52294-1.03684,2.33424,2.33424,0,0,1,.03358-1.19441l.03839-.13125a2.45511,2.45511,0,0,1,.3886-.77434,2.66683,2.66683,0,0,1,.62371-.60379,2.97787,2.97787,0,0,1,.80125-.38936A3.03,3.03,0,0,1,32.86878,36.72374Z"/><path class="cls-1" d="M34.5,42l1.89034-6.45751a.74062.74062,0,0,1,.28786-.39375A.82778.82778,0,0,1,37.16755,35h2.00551a2.92662,2.92662,0,0,1,1.2714.27566,2.82894,2.82894,0,0,1,.96431.73059,2.53063,2.53063,0,0,1,.52775,1.0369,2.237,2.237,0,0,1-.03836,1.19435l-.03835.13125a2.51938,2.51938,0,0,1-.38383.7744,2.66244,2.66244,0,0,1-.619.60811,2.899,2.899,0,0,1-.80125.39375,3.02746,3.02746,0,0,1-.9212.14H37.39782l.34546-1.18125a.74187.74187,0,0,1,.28787-.385.828.828,0,0,1,.48933-.14874h.55662a1.04894,1.04894,0,0,0,.61884-.19249.89311.89311,0,0,0,.35983-.49874.78551.78551,0,0,0,.01437-.42878.93148.93148,0,0,0-.187-.37188,1.0038,1.0038,0,0,0-.34546-.2625,1.05836,1.05836,0,0,0-.46054-.1006H38.00235l-1.40094,4.75126a.74329.74329,0,0,1-.28787.385A.8124.8124,0,0,1,35.83376,42Z"/></g></svg>