<svg xmlns="http://www.w3.org/2000/svg" viewBox="0 0 48 48"><defs><style>.cls-1{fill:#ff6c2c;}</style></defs><g id="Base_Icons" data-name="Base Icons"><path d="M27,42H10.48047A1.482,1.482,0,0,1,9,40.51953V19.5a.5.5,0,0,1,1,0V40.51953A.48138.48138,0,0,0,10.48047,41H27a.5.5,0,0,1,0,1Z"/><path d="M38.5,27.5A.49971.49971,0,0,1,38,27V7.49609A.4968.4968,0,0,0,37.50391,7H17.5a.5.5,0,0,1,0-1H37.50391A1.49747,1.49747,0,0,1,39,7.49609V27A.49971.49971,0,0,1,38.5,27.5Z"/><path d="M31.5,28h-17a.5.5,0,0,1,0-1h17a.5.5,0,0,1,0,1Z"/><path d="M27.5,35h-13a.5.5,0,0,1,0-1h13a.5.5,0,0,1,0,1Z"/><path d="M33.5,21h-19a.5.5,0,0,1,0-1h19a.5.5,0,0,1,0,1Z"/><path d="M33.5,14h-13a.5.5,0,0,1,0-1h13a.5.5,0,0,1,0,1Z"/></g><g id="Sub_Icons" data-name="Sub Icons"><path class="cls-1" d="M36,41.999a.49564.49564,0,0,1-.2373-.06054C35.71973,41.916,31.5,39.59375,31.5,36V32.47168a.952.952,0,0,1,.57422-.89356l3.73535-1.54a.495.495,0,0,1,.38086,0l3.73535,1.541a.94961.94961,0,0,1,.57422.89258V36c0,3.59375-4.21973,5.916-4.2627,5.93848A.49564.49564,0,0,1,36,41.999Zm.001-10.958-3.5459,1.46191L32.5,36c0,2.52246,2.67383,4.39746,3.5,4.916.82617-.51856,3.5-2.39356,3.5-4.916V32.47168Z"/><path class="cls-1" d="M37.06641,35.40039H34.93359a.5.5,0,1,1,0-1h2.13282a.5.5,0,1,1,0,1Z"/><path class="cls-1" d="M11.76074,16H10.23926a.97956.97956,0,0,1-.98731-.96875,3.463,3.463,0,0,1-1.0332-.55078.97138.97138,0,0,1-1.32129-.34082L6.13672,12.875a.94757.94757,0,0,1-.10352-.74023.9615.9615,0,0,1,.46875-.59571A1.91956,1.91956,0,0,1,6.44238,11a4.30548,4.30548,0,0,1,.043-.59766.749.749,0,0,1-.45215-.53711A.94464.94464,0,0,1,6.13672,9.126l.75976-1.26563A1.00552,1.00552,0,0,1,8.2373,7.50977a4.3819,4.3819,0,0,1,1.04786-.585A.92123.92123,0,0,1,10.23926,6h1.52148a.97956.97956,0,0,1,.98731.96875,3.463,3.463,0,0,1,1.0332.55078.97357.97357,0,0,1,1.32129.34082L15.86328,9.125a.94757.94757,0,0,1,.10352.74023.9615.9615,0,0,1-.46875.59571A1.91956,1.91956,0,0,1,15.55762,11a4.11268,4.11268,0,0,1-.03711.55176.9621.9621,0,0,1,.44629.583.94464.94464,0,0,1-.10352.73925l-.75976,1.2666a1.00648,1.00648,0,0,1-1.33887.35157,4.4966,4.4966,0,0,1-1.04981.583A.92123.92123,0,0,1,11.76074,16ZM8.24707,13.49121a.95964.95964,0,0,1,.56934.18652,3.56748,3.56748,0,0,0,.834.46778.95469.95469,0,0,1,.60156.88476L11.76074,15a.916.916,0,0,1,.58985-.85547,3.55326,3.55326,0,0,0,.831-.46484.98487.98487,0,0,1,1.06543-.06348l.73633-1.21973a.94113.94113,0,0,1-.459-.93847,3.16813,3.16813,0,0,0,0-.915.946.946,0,0,1,.48731-.95606L14.24512,8.375a.96963.96963,0,0,1-1.06153-.05273,3.56748,3.56748,0,0,0-.834-.46778.95469.95469,0,0,1-.60156-.88476L10.23926,7a.916.916,0,0,1-.58985.85547,3.55326,3.55326,0,0,0-.831.46484.98294.98294,0,0,1-1.06543.06348L6.99414,9.64062a.83666.83666,0,0,1,.48145.90137,3.16813,3.16813,0,0,0,0,.915.946.946,0,0,1-.48731.95606l.7666,1.21191A.972.972,0,0,1,8.24707,13.49121Zm6.75879-1.13183v0Z"/><path class="cls-1" d="M10.99609,13.13574a2.13581,2.13581,0,1,1,1.85352-1.06738h0A2.13811,2.13811,0,0,1,10.99609,13.13574ZM11.002,9.86426a1.13628,1.13628,0,1,0,.98243,1.7041h0a1.1352,1.1352,0,0,0-.98243-1.7041Zm1.415,1.9541h0Z"/></g></svg>