<svg xmlns="http://www.w3.org/2000/svg" viewBox="0 0 48 48"><defs><style>.cls-1{fill:#ff6c2c;}</style></defs><g id="Base_Icons" data-name="Base Icons"><path d="M27.29639,44H20.70361a2.57734,2.57734,0,0,1-2.61328-2.5332,1.44659,1.44659,0,0,0-.91308-1.3584,18.22785,18.22785,0,0,1-4.23-2.35938,1.60893,1.60893,0,0,0-1.7212-.084A2.67194,2.67194,0,0,1,7.65039,36.752L4.35547,31.26562a2.45184,2.45184,0,0,1-.271-1.91113,2.52325,2.52325,0,0,1,1.231-1.56152,1.44558,1.44558,0,0,0,.771-1.43555,16.57225,16.57225,0,0,1,0-4.71387A1.44577,1.44577,0,0,0,5.31494,20.207a2.52228,2.52228,0,0,1-1.23047-1.56055,2.45136,2.45136,0,0,1,.27051-1.9121l3.2915-5.4795a2.67777,2.67777,0,0,1,3.56885-.92676,1.61415,1.61415,0,0,0,1.73194-.07714A18.22119,18.22119,0,0,1,17.17773,7.8916a1.46476,1.46476,0,0,0,.9126-1.35742A2.57753,2.57753,0,0,1,20.70361,4h6.59278a2.57734,2.57734,0,0,1,2.61328,2.5332,1.44659,1.44659,0,0,0,.91308,1.3584,18.22785,18.22785,0,0,1,4.23,2.35938,1.61008,1.61008,0,0,0,1.72071.084,2.67377,2.67377,0,0,1,3.57617.91309L43.645,16.73438a2.45136,2.45136,0,0,1,.27051,1.9121,2.52139,2.52139,0,0,1-1.231,1.56055,1.44558,1.44558,0,0,0-.771,1.43555,16.57225,16.57225,0,0,1,0,4.71387,1.44615,1.44615,0,0,0,.771,1.43652.50018.50018,0,0,1-.48486.875,2.451,2.451,0,0,1-1.27637-2.45313,15.54247,15.54247,0,0,0,0-4.43066A2.45037,2.45037,0,0,1,42.19971,19.332a1.52855,1.52855,0,0,0,.75-.94531A1.4562,1.4562,0,0,0,42.7876,17.25l-3.29541-5.48633a1.65677,1.65677,0,0,0-2.21485-.56445,2.59718,2.59718,0,0,1-2.82324-.14746,17.21948,17.21948,0,0,0-3.998-2.23047,2.43891,2.43891,0,0,1-1.54638-2.28711A1.57712,1.57712,0,0,0,27.29639,5H20.70361a1.57631,1.57631,0,0,0-1.61328,1.5332,2.44049,2.44049,0,0,1-1.5459,2.28809,17.21282,17.21282,0,0,0-3.99853,2.23047,2.59217,2.59217,0,0,1-2.80469.1582,1.66805,1.66805,0,0,0-2.2373.55957L5.2124,17.25a1.4562,1.4562,0,0,0-.16211,1.13672,1.52943,1.52943,0,0,0,.74951.94531,2.45058,2.45058,0,0,1,1.27686,2.45313,15.54247,15.54247,0,0,0,0,4.43066A2.45037,2.45037,0,0,1,5.80029,28.668a1.52855,1.52855,0,0,0-.75.94531A1.45634,1.45634,0,0,0,5.21289,30.75l3.29492,5.48633a1.65772,1.65772,0,0,0,2.21533.56445,2.5967,2.5967,0,0,1,2.82276.14746,17.21948,17.21948,0,0,0,3.998,2.23047,2.43891,2.43891,0,0,1,1.54638,2.28711A1.57712,1.57712,0,0,0,20.70361,43h6.59278a.5.5,0,1,1,0,1Z"/><path d="M24.00049,34.5a10.49057,10.49057,0,1,1,9.5332-6.09277.49985.49985,0,1,1-.90723-.41993,9.49184,9.49184,0,1,0-5.36084,4.93653.50018.50018,0,1,1,.34376.93945A10.45467,10.45467,0,0,1,24.00049,34.5Z"/></g><g id="Sub_Icons" data-name="Sub Icons"><path class="cls-1" d="M30.5,41.5a.49943.49943,0,0,1-.44189-.7334l1.16455-2.20312A4.5159,4.5159,0,0,1,30,35.52539C30,32.75391,32.69141,30.5,36,30.5s6,2.25391,6,5.02539-2.69141,5.02637-6,5.02637a6.98515,6.98515,0,0,1-2.63379-.51074l-2.63135,1.40039A.50406.50406,0,0,1,30.5,41.5Zm1.70459-2.65527-.501.94824,1.33057-.708a.48609.48609,0,0,1,.50537-.05762A5.95678,5.95678,0,0,0,36,39.55176c2.75684,0,5-1.80664,5-4.02637S38.75684,31.5,36,31.5s-5,1.80566-5,4.02539a3.59753,3.59753,0,0,0,1.19531,2.60254.501.501,0,0,1,.04541.67773A.39212.39212,0,0,1,32.20459,38.84473Z"/><path class="cls-1" d="M38,36H34a.5.5,0,0,1,0-1h4a.5.5,0,0,1,0,1Z"/></g></svg>