<svg xmlns="http://www.w3.org/2000/svg" viewBox="0 0 48 48"><defs><style>.cls-1{fill:#ff6c2c;}</style></defs><g id="Base_Icons" data-name="Base Icons"><path d="M27.7041,36.5H6.40723A.90526.90526,0,0,1,5.5,35.59961V15.40039a.5.5,0,0,0-1,0V35.59961A1.90592,1.90592,0,0,0,6.40723,37.5H27.7041a.5.5,0,0,0,0-1Z"/><path d="M41.59277,10.5H18.40723a.5.5,0,0,0,0,1H41.59277a.90526.90526,0,0,1,.90723.90039V13.5h-24a.5.5,0,0,0,0,1h24V30.7998a.5.5,0,1,0,1,0V12.40039A1.90592,1.90592,0,0,0,41.59277,10.5Z"/><path d="M13.5,18v2a.49971.49971,0,0,0,.5.5h2a.49971.49971,0,0,0,.5-.5V18a.49971.49971,0,0,0-.5-.5H14A.49971.49971,0,0,0,13.5,18Zm1,.5h1v1h-1Z"/><path d="M20,20.5h2a.49971.49971,0,0,0,.5-.5V18a.49971.49971,0,0,0-.5-.5H20a.49971.49971,0,0,0-.5.5v2A.49971.49971,0,0,0,20,20.5Zm.5-2h1v1h-1Z"/><path d="M28,17.5H26a.49971.49971,0,0,0-.5.5v2a.49971.49971,0,0,0,.5.5h2a.49971.49971,0,0,0,.5-.5V18A.49971.49971,0,0,0,28,17.5Zm-.5,2h-1v-1h1Z"/><path d="M32,20.5h2a.49971.49971,0,0,0,.5-.5V18a.49971.49971,0,0,0-.5-.5H32a.49971.49971,0,0,0-.5.5v2A.49971.49971,0,0,0,32,20.5Zm.5-2h1v1h-1Z"/><path d="M38,20.5h2a.49971.49971,0,0,0,.5-.5V18a.49971.49971,0,0,0-.5-.5H38a.49971.49971,0,0,0-.5.5v2A.49971.49971,0,0,0,38,20.5Zm.5-2h1v1h-1Z"/><path d="M16.5,24a.49971.49971,0,0,0-.5-.5H14a.49971.49971,0,0,0-.5.5v2a.49971.49971,0,0,0,.5.5h2a.49971.49971,0,0,0,.5-.5Zm-1,1.5h-1v-1h1Z"/><path d="M19.5,26a.49971.49971,0,0,0,.5.5h2a.49971.49971,0,0,0,.5-.5V24a.49971.49971,0,0,0-.5-.5H20a.49971.49971,0,0,0-.5.5Zm1-1.5h1v1h-1Z"/><path d="M28,23.5H26a.49971.49971,0,0,0-.5.5v2a.49971.49971,0,0,0,.5.5h2a.49971.49971,0,0,0,.5-.5V24A.49971.49971,0,0,0,28,23.5Zm-.5,2h-1v-1h1Z"/><path d="M31.5,26a.49971.49971,0,0,0,.5.5h2a.49971.49971,0,0,0,.5-.5V24a.49971.49971,0,0,0-.5-.5H32a.49971.49971,0,0,0-.5.5Zm1-1.5h1v1h-1Z"/><path d="M37.5,26a.49971.49971,0,0,0,.5.5h2a.49971.49971,0,0,0,.5-.5V24a.49971.49971,0,0,0-.5-.5H38a.49971.49971,0,0,0-.5.5Zm1-1.5h1v1h-1Z"/><path d="M16,29.5H14a.49971.49971,0,0,0-.5.5v2a.49971.49971,0,0,0,.5.5h2a.49971.49971,0,0,0,.5-.5V30A.49971.49971,0,0,0,16,29.5Zm-.5,2h-1v-1h1Z"/><path d="M19.5,32a.49971.49971,0,0,0,.5.5h2a.49971.49971,0,0,0,.5-.5V30a.49971.49971,0,0,0-.5-.5H20a.49971.49971,0,0,0-.5.5Zm1-1.5h1v1h-1Z"/><path d="M28,29.5H26a.49971.49971,0,0,0-.5.5v2a.49971.49971,0,0,0,.5.5h2a.49971.49971,0,0,0,.5-.5V30A.49971.49971,0,0,0,28,29.5Zm-.5,2h-1v-1h1Z"/><path d="M10.5,18a.49971.49971,0,0,0-.5-.5H8a.49971.49971,0,0,0-.5.5v2a.49971.49971,0,0,0,.5.5h2a.49971.49971,0,0,0,.5-.5Zm-1,1.5h-1v-1h1Z"/><path d="M10.5,24a.49971.49971,0,0,0-.5-.5H8a.49971.49971,0,0,0-.5.5v2a.49971.49971,0,0,0,.5.5h2a.49971.49971,0,0,0,.5-.5Zm-1,1.5h-1v-1h1Z"/><path d="M10,29.5H8a.49971.49971,0,0,0-.5.5v2a.49971.49971,0,0,0,.5.5h2a.49971.49971,0,0,0,.5-.5V30A.49971.49971,0,0,0,10,29.5Zm-.5,2h-1v-1h1Z"/></g><g id="Sub_Icons" data-name="Sub Icons"><path class="cls-1" d="M36,30a6.00666,6.00666,0,1,0,6,6A6.00657,6.00657,0,0,0,36,30Zm4.85156,7.21484A5.00494,5.00494,0,1,1,41,36,5.01375,5.01375,0,0,1,40.85156,37.21484Z"/><path class="cls-1" d="M38,35.5H36.5V34.001a.5.5,0,0,0-1,0V36a.49971.49971,0,0,0,.5.5h2a.5.5,0,0,0,0-1Z"/><path class="cls-1" d="M6.0332,12.13477a.94757.94757,0,0,0,.10352.74023l.76074,1.26465a.97138.97138,0,0,0,1.32129.34082,3.463,3.463,0,0,0,1.0332.55078A.97956.97956,0,0,0,10.23926,16h1.52148a.92123.92123,0,0,0,.9541-.9248,4.4966,4.4966,0,0,0,1.04981-.583,1.0046,1.0046,0,0,0,1.33887-.35157l.75976-1.2666a.94464.94464,0,0,0,.10352-.73925.9621.9621,0,0,0-.44629-.583A4.11268,4.11268,0,0,0,15.55762,11a1.91956,1.91956,0,0,0-.05957-.53906.9615.9615,0,0,0,.46875-.59571.94757.94757,0,0,0-.10352-.74023l-.76074-1.26465a.97335.97335,0,0,0-1.32129-.34082,3.463,3.463,0,0,0-1.0332-.55078A.97956.97956,0,0,0,11.76074,6H10.23926a.92123.92123,0,0,0-.9541.9248,4.3819,4.3819,0,0,0-1.04786.585,1.00553,1.00553,0,0,0-1.34082.35058L6.13672,9.126a.94464.94464,0,0,0-.10352.73925.749.749,0,0,0,.45215.53711A4.30548,4.30548,0,0,0,6.44238,11a1.91956,1.91956,0,0,0,.05957.53906A.9615.9615,0,0,0,6.0332,12.13477ZM7.44238,11a3.23037,3.23037,0,0,1,.03321-.458.83666.83666,0,0,0-.48145-.90137l.75879-1.25683a.98487.98487,0,0,0,1.06543-.06348,3.55326,3.55326,0,0,1,.831-.46484A.916.916,0,0,0,10.23926,7L11.748,6.96973a.95469.95469,0,0,0,.60156.88476,3.56748,3.56748,0,0,1,.834.46778.96776.96776,0,0,0,1.06153.05273l.7666,1.21191a.946.946,0,0,0-.48731.95606,3.16813,3.16813,0,0,1,0,.915.94113.94113,0,0,0,.459.93847l-.73633,1.21973a.985.985,0,0,0-1.06543.06348,3.55326,3.55326,0,0,1-.831.46484A.916.916,0,0,0,11.76074,15l-1.50879.03027a.95469.95469,0,0,0-.60156-.88476,3.56748,3.56748,0,0,1-.834-.46778.95964.95964,0,0,0-.56934-.18652.972.972,0,0,0-.49219.13379l-.7666-1.21191a.946.946,0,0,0,.48731-.95606A3.20609,3.20609,0,0,1,7.44238,11Z"/><path class="cls-1" d="M9.93164,12.84961a2.136,2.136,0,1,0-.78125-2.918A2.1178,2.1178,0,0,0,9.93164,12.84961Zm.084-2.418a1.13668,1.13668,0,1,1,.416,1.55274A1.13816,1.13816,0,0,1,10.01562,10.43164Z"/></g></svg>