<svg xmlns="http://www.w3.org/2000/svg" viewBox="0 0 48 48"><defs><style>.cls-1{fill:#ff6c2c;}</style></defs><g id="Base_Icons" data-name="Base Icons"><path d="M24,29c.98779,0,1.94434.02734,2.84277.082a.49268.49268,0,0,0,.5293-.46875.50023.50023,0,0,0-.46875-.5293C25.98486,28.02832,25.0083,28,24,28,13.68115,28,7.64111,30.94629,6.53369,36.52148A1.80281,1.80281,0,0,0,6.939,38.03516,2.86387,2.86387,0,0,0,9.15576,39H26.84424a.5.5,0,0,0,0-1H9.15576a1.88914,1.88914,0,0,1-1.44385-.59863.82326.82326,0,0,1-.19775-.68457C8.78174,30.33887,17.17871,29,24,29Z"/><path d="M24,25a9,9,0,1,0-9-9A9.01016,9.01016,0,0,0,24,25ZM24,8a8,8,0,1,1-8,8A8.00917,8.00917,0,0,1,24,8Z"/><path d="M32.58594,24.15991a.50508.50508,0,0,0-.10449.1731l-.00007.00049a.50036.50036,0,0,0-.02758.19281,8.17672,8.17672,0,0,0,.04669.18628.49821.49821,0,0,0,.11505.15661l.00067.00092a.49611.49611,0,0,0,.166.09881l.003.00177a19.40044,19.40044,0,0,1,4.40722,2.23242.49974.49974,0,1,0,.5625-.82617,20.32473,20.32473,0,0,0-3.9801-2.09131,12.66629,12.66629,0,0,0-.452-16.12158.49984.49984,0,1,0-.74023.67188A11.63349,11.63349,0,0,1,32.58594,24.15991Z"/><path d="M15.21484,24.9707l.003-.00177a.49611.49611,0,0,0,.166-.09881l.00067-.00092a.4994.4994,0,0,0,.115-.15649.48509.48509,0,0,0,.02417-.094.491.491,0,0,0,.02258-.0924.4999.4999,0,0,0-.02758-.19294l-.00007-.00036a.50632.50632,0,0,0-.10382-.1723,11.63345,11.63345,0,0,1,.00275-15.32477.49984.49984,0,1,0-.74023-.67188,12.66638,12.66638,0,0,0-.45142,16.12232C7.58612,26.90137,3,32.64856,3,38.48242a.5.5,0,0,0,1,0C4,32.87305,8.61182,27.31738,15.21484,24.9707Z"/></g><g id="Sub_Icons" data-name="Sub Icons"><path class="cls-1" d="M40.501,30H31.499A1.50091,1.50091,0,0,0,30,31.499v4.002a1.48776,1.48776,0,0,0,.38977.999A1.48776,1.48776,0,0,0,30,37.499v2.002A1.50091,1.50091,0,0,0,31.499,41a.5.5,0,0,0,0-1A.49929.49929,0,0,1,31,39.501V37.499A.49929.49929,0,0,1,31.499,37h.99024a.5.5,0,0,0,0-1H31.499A.49929.49929,0,0,1,31,35.501V31.499A.49929.49929,0,0,1,31.499,31h9.002a.49929.49929,0,0,1,.499.499V34.5a.5.5,0,0,0,1,0V31.499A1.50091,1.50091,0,0,0,40.501,30Z"/><path class="cls-1" d="M34,33a.5.5,0,0,0-1,0v1a.5.5,0,0,0,1,0Z"/><path class="cls-1" d="M40,36a2,2,0,1,0-2,2A2.00229,2.00229,0,0,0,40,36Zm-3,0a1,1,0,1,1,1,1A1.001,1.001,0,0,1,37,36Z"/><path class="cls-1" d="M41.5,39a.49971.49971,0,0,0-.5.5v1.001a.49929.49929,0,0,1-.499.499H35.499A.49929.49929,0,0,1,35,40.501V39.5a.5.5,0,0,0-1,0v1.001A1.50091,1.50091,0,0,0,35.499,42h5.002A1.50091,1.50091,0,0,0,42,40.501V39.5A.49971.49971,0,0,0,41.5,39Z"/></g></svg>