<svg xmlns="http://www.w3.org/2000/svg" viewBox="0 0 48 48"><defs><style>.cls-1{fill:#ff6c2c;}</style></defs><g id="Base_Icons" data-name="Base Icons"><path d="M29.72119,28.376A40.71191,40.71191,0,0,0,24,28C13.0835,28,6.69727,31.51172,5.53271,38.15625a2.23227,2.23227,0,0,0,.51807,1.8418A2.93288,2.93288,0,0,0,8.28271,41H27.71729a.5.5,0,0,0,0-1H8.28271a1.9206,1.9206,0,0,1-1.4663-.64551,1.24592,1.24592,0,0,1-.29834-1.02637C7.86914,30.61816,16.77051,29,24,29a39.59362,39.59362,0,0,1,5.57959.36621.50015.50015,0,1,0,.1416-.99023Z"/><path d="M18.33154,8.665a8.49934,8.49934,0,1,1-2.10791,9.77246.49974.49974,0,0,0-.91406.4043,9.50154,9.50154,0,1,0,2.355-10.9209.49965.49965,0,1,0,.667.74414Z"/></g><g id="Sub_Icons" data-name="Sub Icons"><path class="cls-1" d="M36,30a6,6,0,1,0,6,6A6,6,0,0,0,36,30Zm4.94946,5.5H38.98737a8.9206,8.9206,0,0,0-1.071-4.11523A4.99423,4.99423,0,0,1,40.94946,35.5ZM36,41c-.76874,0-1.85284-1.74438-1.97595-4.5H37.976C37.85284,39.25562,36.7688,41,36,41Zm-1.97595-5.5C34.14716,32.74438,35.23126,31,36,31c.7688,0,1.85284,1.74438,1.97595,4.5Zm.05957-4.11523A8.9206,8.9206,0,0,0,33.01263,35.5H31.05054A4.99423,4.99423,0,0,1,34.08362,31.38477ZM31.05054,36.5h1.96209a8.9206,8.9206,0,0,0,1.071,4.11523A4.99423,4.99423,0,0,1,31.05054,36.5Zm6.86584,4.11523A8.9206,8.9206,0,0,0,38.98737,36.5h1.96209A4.99423,4.99423,0,0,1,37.91638,40.61523Z"/><path class="cls-1" d="M7.88116,9.5H12.5a.5.5,0,0,0,0-1H7.88116L9.82031,6.88379a.49989.49989,0,0,0-.64062-.76758l-3,2.5a.4997.4997,0,0,0,0,.76758l3,2.5a.49989.49989,0,0,0,.64062-.76758Z"/><path class="cls-1" d="M14.17969,15.11621a.49989.49989,0,1,0,.64062.76758l3-2.5a.4997.4997,0,0,0,0-.76758l-3-2.5a.49989.49989,0,1,0-.64062.76758L16.11884,12.5H11.5a.5.5,0,0,0,0,1h4.61884Z"/></g></svg>