<svg xmlns="http://www.w3.org/2000/svg" viewBox="0 0 48 48"><defs><style>.cls-1{fill:#ff6c2c;}</style></defs><g id="Base_Icons" data-name="Base Icons"><path d="M26.49805,43H10.502A1.50373,1.50373,0,0,1,9,41.49805V11.502A1.50373,1.50373,0,0,1,10.502,10h22.9961A1.50373,1.50373,0,0,1,35,11.502V27.5a.5.5,0,0,1-1,0V11.502a.50305.50305,0,0,0-.502-.502H10.502a.50305.50305,0,0,0-.502.502v29.9961a.50305.50305,0,0,0,.502.502h15.9961a.5.5,0,1,1,0,1Z"/><path d="M38.5,28a.49971.49971,0,0,1-.5-.5V7.5a.501.501,0,0,0-.5-.5H17a.5.5,0,0,1,0-1H37.5A1.50164,1.50164,0,0,1,39,7.5v20A.49971.49971,0,0,1,38.5,28Z"/></g><g id="Sub_Icons" data-name="Sub Icons"><path class="cls-1" d="M30.5,41.5a.49943.49943,0,0,1-.44238-.7334l1.165-2.20312A4.51639,4.51639,0,0,1,30,35.52539C30,32.75391,32.69141,30.5,36,30.5s6,2.25391,6,5.02539-2.69141,5.02637-6,5.02637a6.98143,6.98143,0,0,1-2.63379-.51074l-2.63086,1.40039A.506.506,0,0,1,30.5,41.5Zm1.70508-2.65527-.502.94824,1.332-.709a.489.489,0,0,1,.50488-.05664,5.94948,5.94948,0,0,0,2.46.52442c2.75684,0,5-1.80664,5-4.02637S38.75684,31.5,36,31.5s-5,1.80566-5,4.02539a3.5977,3.5977,0,0,0,1.19531,2.60254.50046.50046,0,0,1,.04492.67773A.45175.45175,0,0,1,32.20508,38.84473Z"/><path class="cls-1" d="M38,36H34a.5.5,0,0,1,0-1h4a.5.5,0,0,1,0,1Z"/></g></svg>