<svg xmlns="http://www.w3.org/2000/svg" viewBox="0 0 48 48"><defs><style>.cls-1{fill:#ff6c2c;}</style></defs><g id="Base_Icons" data-name="Base Icons"><path d="M27.5,41H19V38.5a.5.5,0,0,0-1,0V41H15V38.5a.5.5,0,0,0-1,0V41H11V38.5a.5.5,0,0,0-1,0V41H7.5a.501.501,0,0,1-.5-.5V33H41.5l.00079-.00018a.54056.54056,0,0,0,.09394-.00861.60663.60663,0,0,0,.21746-.10968.487.487,0,0,0,.12018-.14477.47927.47927,0,0,0,.03766-.08808.48815.48815,0,0,0,.01966-.09753.1257.1257,0,0,0,.001-.09729.46027.46027,0,0,0,.00049-.04859L37.43066,8.71A2.49864,2.49864,0,0,0,35.05762,7H12.94238a2.51147,2.51147,0,0,0-2.38965,1.77344L6.00879,32.40527a.486.486,0,0,0,.00152.14338c-.00158.01763-.01031.03289-.01031.051V40.5A1.50164,1.50164,0,0,0,7.5,42h20a.5.5,0,0,0,0-1ZM11.51855,9.02637A1.49761,1.49761,0,0,1,12.94238,8H35.05762a1.4897,1.4897,0,0,1,1.40722.96289L40.89441,32H7.10547Z"/></g><g id="Sub_Icons" data-name="Sub Icons"><path class="cls-1" d="M34.70154,37.89624l.33581-1.17255H32.86877a3.02955,3.02955,0,0,0-.92114.14008,2.97442,2.97442,0,0,0-.80127.38934,2.66791,2.66791,0,0,0-.62372.60376,2.45619,2.45619,0,0,0-.38861.77436l-.03839.13128a2.33485,2.33485,0,0,0-.03357,1.1944,2.47787,2.47787,0,0,0,.523,1.0368,2.82571,2.82571,0,0,0,.96436.73066A2.92688,2.92688,0,0,0,32.8208,42h.67169l.38385-1.295a.28351.28351,0,0,0-.06238-.28437.35868.35868,0,0,0-.28308-.12683h-.61413a1.09476,1.09476,0,0,1-.46057-.09625.9534.9534,0,0,1-.34546-.25818.92458.92458,0,0,1-.18707-.37189.84973.84973,0,0,1,.01434-.44616.9628.9628,0,0,1,.36944-.49878,1.03983,1.03983,0,0,1,.60932-.18378h1.00757a.82763.82763,0,0,0,.48932-.14874A.74151.74151,0,0,0,34.70154,37.89624Z"/><path class="cls-1" d="M41.40875,36.00623a2.82862,2.82862,0,0,0-.96429-.7306A2.92664,2.92664,0,0,0,39.173,35H37.16754a.82785.82785,0,0,0-.48938.14874.74036.74036,0,0,0-.28784.39374L34.5,42h1.33374a.8124.8124,0,0,0,.4798-.14874.74316.74316,0,0,0,.28784-.385L38.00232,36.715h1.07477a1.0581,1.0581,0,0,1,.46057.10058,1.00343,1.00343,0,0,1,.34546.26251.93139.93139,0,0,1,.187.37189.78566.78566,0,0,1-.01434.42877.89313.89313,0,0,1-.35987.49872,1.04875,1.04875,0,0,1-.61883.19251h-.55658a.82809.82809,0,0,0-.48938.14874.74162.74162,0,0,0-.28784.385L37.39783,40.285h1.73675a3.0292,3.0292,0,0,0,.92121-.14,2.89856,2.89856,0,0,0,.8012-.3938,2.66261,2.66261,0,0,0,.619-.60809,2.51793,2.51793,0,0,0,.38379-.77442l.03833-.13122a2.237,2.237,0,0,0,.03839-1.19434A2.52989,2.52989,0,0,0,41.40875,36.00623Z"/></g></svg>