<svg xmlns="http://www.w3.org/2000/svg" viewBox="0 0 48 48"><defs><style>.cls-1{fill:#ff6c2c;}</style></defs><g id="Base_Icons" data-name="Base Icons"><path d="M24,3.5a20.5,20.5,0,0,0,0,41,6.225,6.225,0,0,0,3.63379-1.23828.50019.50019,0,1,0-.57813-.81641A5.24132,5.24132,0,0,1,24,43.5c-4.03528,0-7.48193-5.20038-8.85638-12.5H32.855c-.118.62134-.246,1.23523-.394,1.8252a.50023.50023,0,0,0,.9707.24218c.16687-.66668.31024-1.36242.44006-2.06738h8.97791c.01007,0,.01843-.00513.02838-.00574a.49765.49765,0,0,0,.4931-.296c.00489-.00976.03711-.08594.041-.09765l.0498-.14161A20.51564,20.51564,0,0,0,24,3.5ZM42.17889,17H33.85614c-1.04175-5.57184-3.28186-10.01178-6.11456-12.13116A19.54936,19.54936,0,0,1,42.17889,17Zm-9.32251,0H15.14362C16.518,9.70038,19.96472,4.5,24,4.5S31.482,9.70038,32.85638,17ZM20.25842,4.86884C17.42572,6.98822,15.18561,11.42816,14.14386,17H5.82117A19.54927,19.54927,0,0,1,20.25842,4.86884ZM5.45441,18h8.50665a39.271,39.271,0,0,0,0,12H5.45441a19.337,19.337,0,0,1,0-12Zm14.804,25.13116A19.54927,19.54927,0,0,1,5.82117,31h8.32269C15.18561,36.57184,17.42572,41.01178,20.25842,43.13116ZM14.5,24a38.52158,38.52158,0,0,1,.4649-6H33.0351A38.52158,38.52158,0,0,1,33.5,24a38.24092,38.24092,0,0,1-.46747,6H14.9649A38.52158,38.52158,0,0,1,14.5,24Zm28.05463,6H34.04218A39.21272,39.21272,0,0,0,34.5,24a38.744,38.744,0,0,0-.46106-6h8.50665a19.42452,19.42452,0,0,1,.009,12Z"/></g><g id="Sub_Icons" data-name="Sub Icons"><path class="cls-1" d="M34.70154,37.89624l.33581-1.17255H32.86877a3.02955,3.02955,0,0,0-.92114.14008,2.97442,2.97442,0,0,0-.80127.38934,2.66791,2.66791,0,0,0-.62372.60376,2.45619,2.45619,0,0,0-.38861.77436l-.03839.13128a2.33485,2.33485,0,0,0-.03357,1.1944,2.47787,2.47787,0,0,0,.523,1.0368,2.82571,2.82571,0,0,0,.96436.73066A2.92688,2.92688,0,0,0,32.8208,42h.67169l.38385-1.295a.28351.28351,0,0,0-.06238-.28437.35868.35868,0,0,0-.28308-.12683h-.61413a1.09476,1.09476,0,0,1-.46057-.09625.9534.9534,0,0,1-.34546-.25818.92458.92458,0,0,1-.18707-.37189.84973.84973,0,0,1,.01434-.44616.9628.9628,0,0,1,.36944-.49878,1.03983,1.03983,0,0,1,.60932-.18378h1.00757a.82763.82763,0,0,0,.48932-.14874A.74151.74151,0,0,0,34.70154,37.89624Z"/><path class="cls-1" d="M41.40875,36.00623a2.82862,2.82862,0,0,0-.96429-.7306A2.92664,2.92664,0,0,0,39.173,35H37.16754a.82785.82785,0,0,0-.48938.14874.74036.74036,0,0,0-.28784.39374L34.5,42h1.33374a.8124.8124,0,0,0,.4798-.14874.74316.74316,0,0,0,.28784-.385L38.00232,36.715h1.07477a1.0581,1.0581,0,0,1,.46057.10058,1.00343,1.00343,0,0,1,.34546.26251.93139.93139,0,0,1,.187.37189.78566.78566,0,0,1-.01434.42877.89313.89313,0,0,1-.35987.49872,1.04875,1.04875,0,0,1-.61883.19251h-.55658a.82809.82809,0,0,0-.48938.14874.74162.74162,0,0,0-.28784.385L37.39783,40.285h1.73675a3.0292,3.0292,0,0,0,.92121-.14,2.89856,2.89856,0,0,0,.8012-.3938,2.66261,2.66261,0,0,0,.619-.60809,2.51793,2.51793,0,0,0,.38379-.77442l.03833-.13122a2.237,2.237,0,0,0,.03839-1.19434A2.52989,2.52989,0,0,0,41.40875,36.00623Z"/></g></svg>