<svg xmlns="http://www.w3.org/2000/svg" viewBox="0 0 48 48"><defs><style>.cls-1{fill:#ff6c2c;}</style></defs><g id="Base_Icons" data-name="Base Icons"><path d="M39.47266,41a.50568.50568,0,0,1-.26465-.0752L34.51465,38H19.5625a1.50581,1.50581,0,0,1-1.50391-1.50391V29.69043a.5.5,0,0,1,1,0v6.80566A.50389.50389,0,0,0,19.5625,37H34.65723a.50456.50456,0,0,1,.26465.0752l4.05078,2.52441V37.5a.49971.49971,0,0,1,.5-.5h2.03125A.4968.4968,0,0,0,42,36.50391V21.49805A.49888.49888,0,0,0,41.502,21H32.5a.5.5,0,0,1,0-1h9.002A1.49956,1.49956,0,0,1,43,21.49805V36.50391A1.49747,1.49747,0,0,1,41.50391,38H39.97266v2.5a.49853.49853,0,0,1-.5.5Z"/><path d="M37.60254,32.0957H23.45605a.5.5,0,1,1,0-1H37.60254a.5.5,0,0,1,0,1Z"/><path d="M37.5,27h-8a.5.5,0,0,1,0-1h8a.5.5,0,0,1,0,1Z"/></g><g id="Sub_Icons" data-name="Sub Icons"><path class="cls-1" d="M6,28a.49931.49931,0,0,1-.44727-.72266l2.21-4.43457a7.77826,7.77826,0,0,1-2.792-5.7539c0-5.04,5.60742-9.14063,12.5-9.14063s12.5,4.10059,12.5,9.14063-5.60742,9.13965-12.5,9.13965a16.39631,16.39631,0,0,1-5.77343-1.03125l-5.47266,2.75A.50872.50872,0,0,1,6,28Zm2.73047-4.8584L7.11719,26.37891l4.22754-2.124a.47374.47374,0,0,1,.49023-.07715,15.30813,15.30813,0,0,0,5.63574,1.05079c6.34082,0,11.5-3.65137,11.5-8.13965s-5.15918-8.14063-11.5-8.14063-11.5,3.65235-11.5,8.14063a6.93486,6.93486,0,0,0,2.76758,5.27636.499.499,0,0,1,.09277.66895A.45981.45981,0,0,1,8.73047,23.1416Z"/><path class="cls-1" d="M24.5,16h-14a.5.5,0,0,1,0-1h14a.5.5,0,0,1,0,1Z"/><path class="cls-1" d="M20.294,20H10.5a.5.5,0,0,1,0-1H20.294a.5.5,0,0,1,0,1Z"/></g></svg>