<svg xmlns="http://www.w3.org/2000/svg" viewBox="0 0 48 48"><defs><style>.cls-1{fill:#ff6c2c;}</style></defs><g id="Base_Icons" data-name="Base Icons"><path d="M27,38.5H12A2.50231,2.50231,0,0,1,9.5,36V12A2.50231,2.50231,0,0,1,12,9.5H36A2.50231,2.50231,0,0,1,38.5,12V27a.5.5,0,0,0,1,0V12A3.50424,3.50424,0,0,0,36,8.5H12A3.50424,3.50424,0,0,0,8.5,12V36A3.50424,3.50424,0,0,0,12,39.5H27a.5.5,0,0,0,0-1Z"/></g><g id="Sub_Icons" data-name="Sub Icons"><path class="cls-1" d="M40.97461,36.63965l-.00391.00683A4.41909,4.41909,0,0,0,41.0166,36a4.85182,4.85182,0,0,0-.042-.63965,1.0213,1.0213,0,0,0,.499-.63574.998.998,0,0,0-.11133-.7832l-.84375-1.40528a1.08918,1.08918,0,0,0-1.457-.36621,4.89877,4.89877,0,0,0-1.166-.64844,1.04188,1.04188,0,0,0-1.05078-1.03027H35.15527a1.03044,1.03044,0,0,0-1.04394,1.02441,6.39663,6.39663,0,0,0-1.20508.64649,1.06732,1.06732,0,0,0-1.4248.374l-.84375,1.4043a1.00092,1.00092,0,0,0-.11133.78418.92586.92586,0,0,0,.50488.61523A4.46072,4.46072,0,0,0,30.9834,36a4.85182,4.85182,0,0,0,.042.63965,1.0213,1.0213,0,0,0-.499.63574.998.998,0,0,0,.11133.7832l.84375,1.40528a1.08893,1.08893,0,0,0,1.457.36621,4.89858,4.89858,0,0,0,1.166.64844,1.04188,1.04188,0,0,0,1.05078,1.03027h1.68946a1.03044,1.03044,0,0,0,1.04394-1.02441,6.39694,6.39694,0,0,0,1.20508-.64649,1.07273,1.07273,0,0,0,1.42578-.373l.84277-1.40527a1.00092,1.00092,0,0,0,.11133-.78418A1.0213,1.0213,0,0,0,40.97461,36.63965ZM39.584,38.94629a1.051,1.051,0,0,0-1.13183.06933,4.03272,4.03272,0,0,1-.93555.52247,1.09012,1.09012,0,0,0-.67187.95312l-1.72266-.01269a1.002,1.002,0,0,0-.6377-.93946,4.05836,4.05836,0,0,1-.93652-.52344,1.04135,1.04135,0,0,0-.63086-.2041,1.34423,1.34423,0,0,0-.56347.12989l-.835-1.41211a.99969.99969,0,0,0,.51856-1.01758A3.53716,3.53716,0,0,1,32.001,36a3.47072,3.47072,0,0,1,.03711-.51465,1.00522,1.00522,0,0,0-.5293-1.02051l.90723-1.41113a1.04685,1.04685,0,0,0,1.13183-.06933,4.03272,4.03272,0,0,1,.93555-.52247,1.09012,1.09012,0,0,0,.67187-.95312l1.72266.01269a1.002,1.002,0,0,0,.63769.93946,4.05822,4.05822,0,0,1,.93653.52344,1.153,1.153,0,0,0,1.19433.07421l.835,1.41211a.99969.99969,0,0,0-.51856,1.01758A3.53716,3.53716,0,0,1,39.999,36a3.47072,3.47072,0,0,1-.03711.51465,1.00006,1.00006,0,0,0,.51954,1.01465l.00878.00586Z"/><path class="cls-1" d="M37,34.26855A1.99948,1.99948,0,1,0,35.99707,38.001a2.01729,2.01729,0,0,0,.52051-.06934A1.99948,1.99948,0,0,0,37,34.26855ZM36.86621,36.5A.99991.99991,0,1,1,36.5,35.13379,1.00488,1.00488,0,0,1,36.86621,36.5Z"/><path class="cls-1" d="M18.78131,21.08186h3.61431l-.55974,1.9263a1.21908,1.21908,0,0,1-.47978.64688,1.39375,1.39375,0,0,1-.81561.24435H18.86127a1.7501,1.7501,0,0,0-1.01551.30192,1.58343,1.58343,0,0,0-.61576.81935,1.37764,1.37764,0,0,0-.02395.73307,1.5127,1.5127,0,0,0,.31184.61094,1.5875,1.5875,0,0,0,.57572.42414,1.84768,1.84768,0,0,0,.76766.15807h1.02354a.60135.60135,0,0,1,.47176.20841.46077.46077,0,0,1,.104.46719L19.82083,29.75H18.70135a4.937,4.937,0,0,1-2.119-.45278,4.70221,4.70221,0,0,1-1.60727-1.20034,4.04964,4.04964,0,0,1-.87157-1.70339,3.782,3.782,0,0,1,.056-1.96224l.064-.21563a4.01206,4.01206,0,0,1,.64767-1.27213,4.41658,4.41658,0,0,1,1.03952-.99193,4.99281,4.99281,0,0,1,1.33542-.63967A5.11731,5.11731,0,0,1,18.78131,21.08186Z"/><path class="cls-1" d="M21.5,29.75l3.15056-10.60877a1.218,1.218,0,0,1,.47978-.64687,1.39358,1.39358,0,0,1,.81561-.24436h3.34251a4.93721,4.93721,0,0,1,2.119.45287,4.70853,4.70853,0,0,1,1.60717,1.20025,4.13573,4.13573,0,0,1,.87959,1.70348,3.62488,3.62488,0,0,1-.06392,1.96215l-.06393.21563a4.11529,4.11529,0,0,1-.63971,1.27222,4.40823,4.40823,0,0,1-1.0316.999,4.86073,4.86073,0,0,1-1.33542.64688,5.11318,5.11318,0,0,1-1.53533.23H26.3297l.57578-1.94063a1.22043,1.22043,0,0,1,.47977-.63255,1.394,1.394,0,0,1,.81556-.24436h.92769a1.766,1.766,0,0,0,1.0314-.31623,1.46838,1.46838,0,0,0,.59972-.81936,1.27288,1.27288,0,0,0,.02395-.70443,1.52223,1.52223,0,0,0-.31173-.61094,1.67029,1.67029,0,0,0-.57578-.43125,1.78526,1.78526,0,0,0-.76756-.16527H27.33725l-2.3349,7.80564a1.22279,1.22279,0,0,1-.47978.63246A1.36772,1.36772,0,0,1,23.723,29.75Z"/></g></svg>