<svg xmlns="http://www.w3.org/2000/svg" viewBox="0 0 48 48"><defs><style>.cls-1{fill:#ff6c2c;}</style></defs><g id="Base_Icons" data-name="Base Icons"><path d="M41.50488,14.40039H23.40723a.874.874,0,0,1-.72364-.38379L20.86621,11.334A1.89591,1.89591,0,0,0,19.294,10.5H6.87012A1.87216,1.87216,0,0,0,5,12.37012V36.5A1.50164,1.50164,0,0,0,6.5,38H26a.5.5,0,0,0,0-1H6.5a.501.501,0,0,1-.5-.5V19H42v8a.5.5,0,0,0,1,0V15.89551A1.49706,1.49706,0,0,0,41.50488,14.40039ZM6,18V12.37012A.87147.87147,0,0,1,6.87012,11.5H19.294a.89692.89692,0,0,1,.74414.39453l1.81738,2.68359a1.87458,1.87458,0,0,0,1.55176.82227H41.50488A.49513.49513,0,0,1,42,15.89551V18Z"/></g><g id="Sub_Icons" data-name="Sub Icons"><path class="cls-1" d="M40.24805,37.64844a5.24834,5.24834,0,0,0-.59864-6.27539L38.56055,30.2832a1.0383,1.0383,0,0,0-1.46192.04L35.484,31.938l-1.066-1.06592a.49995.49995,0,1,0-.707.707l1.0661,1.06616L32.645,34.77759,31.5791,33.71094a.49995.49995,0,1,0-.707.707L31.938,35.48462l-1.61475,1.615A1.09327,1.09327,0,0,0,30,37.86914a.97679.97679,0,0,0,.28516.69434l1.08886,1.085a4.78879,4.78879,0,0,0,3.43067,1.37011,5.97781,5.97781,0,0,0,2.8601-.75415l1.58912,1.58912a.49995.49995,0,1,0,.707-.707l-1.44574-1.4458a6.60518,6.60518,0,0,0,.63519-.55127,6.523,6.523,0,0,0,.53961-.645l1.45648,1.45655a.49995.49995,0,0,0,.707-.707Zm-1.80469.79394c-1.8916,1.8916-4.74707,2.11524-6.36231.498l-1.05078-1.13379,6.82325-6.81641,1.08886,1.08985C40.55859,33.69629,40.335,36.55078,38.44336,38.44238Z"/></g></svg>