<svg xmlns="http://www.w3.org/2000/svg" viewBox="0 0 48 48"><defs><style>.cls-1{fill:#ff6c2c;}</style></defs><g id="Base_Icons" data-name="Base Icons"><path d="M21.72766,22.965l.58777-2.01007h-3.795a5.40461,5.40461,0,0,0-1.61206.24005,5.25524,5.25524,0,0,0-1.40217.66748,4.62568,4.62568,0,0,0-1.09149,1.035,4.17629,4.17629,0,0,0-.68,1.32746l-.0672.225a3.92344,3.92344,0,0,0-.05878,2.04755,4.217,4.217,0,0,0,.91516,1.7774,4.93561,4.93561,0,0,0,1.68763,1.25257A5.21148,5.21148,0,0,0,18.4364,30h1.17548l.67169-2.22a.47854.47854,0,0,0-.10919-.48749.633.633,0,0,0-.4953-.21747H18.60431a1.95023,1.95023,0,0,1-.806-.165,1.66559,1.66559,0,0,1-.60449-.44256,1.57541,1.57541,0,0,1-.32746-.63751,1.42923,1.42923,0,0,1,.02515-.765,1.65365,1.65365,0,0,1,.64654-.855,1.8461,1.8461,0,0,1,1.06629-.315h1.76318a1.47031,1.47031,0,0,0,.85645-.255A1.27269,1.27269,0,0,0,21.72766,22.965Z"/><path d="M24.54871,29.745a1.27694,1.27694,0,0,0,.50378-.66l2.4516-8.145H29.385a1.884,1.884,0,0,1,.80591.17249,1.752,1.752,0,0,1,.60455.45,1.58381,1.58381,0,0,1,.32733.63751,1.31989,1.31989,0,0,1-.02514.73505,1.53265,1.53265,0,0,1-.6297.855,1.86232,1.86232,0,0,1-1.083.33h-.97412a1.47037,1.47037,0,0,0-.85633.255,1.27488,1.27488,0,0,0-.50378.66l-.60455,2.025h3.03936A5.40069,5.40069,0,0,0,31.0976,26.82a5.11862,5.11862,0,0,0,1.40222-.675,4.61624,4.61624,0,0,0,1.08313-1.04248,4.28285,4.28285,0,0,0,.67169-1.32758l.06714-.225a3.7603,3.7603,0,0,0,.06714-2.04749,4.3064,4.3064,0,0,0-.92359-1.77752,4.941,4.941,0,0,0-1.6875-1.25245A5.21223,5.21223,0,0,0,29.55286,18H26.04321a1.4698,1.4698,0,0,0-.85638.25494,1.27193,1.27193,0,0,0-.50379.675L21.37494,30h2.33417A1.44259,1.44259,0,0,0,24.54871,29.745Z"/><path d="M30.10156,41.999A18.97325,18.97325,0,0,1,24,43a.5.5,0,0,0,0,1,19.96134,19.96134,0,0,0,6.42188-1.05371.5.5,0,0,0-.32032-.94727Z"/><path d="M36.19818,8.16016h4.14166a.5.5,0,1,0,0-1H34.66016a.49971.49971,0,0,0-.5.5v5.67968a.5.5,0,1,0,1,0V8.62738a19.0267,19.0267,0,0,1,7.18261,20.34821.4996.4996,0,1,0,.96485.25976A20.01417,20.01417,0,0,0,36.19818,8.16016Z"/><path d="M13.33984,34.16016a.49972.49972,0,0,0-.5.5v4.71246A18.99713,18.99713,0,0,1,24,5a.5.5,0,0,0,0-1A19.99357,19.99357,0,0,0,11.80182,39.83984H7.66016a.5.5,0,1,0,0,1h5.67968a.49971.49971,0,0,0,.5-.5V34.66016A.49971.49971,0,0,0,13.33984,34.16016Z"/></g><g id="Sub_Icons" data-name="Sub Icons"><path class="cls-1" d="M41.96387,34.582a1.04234,1.04234,0,0,0-.11524-.81641L40.919,32.21875a1.085,1.085,0,0,0-1.40625-.4248c-.03028.01074-.15235.02539-.17969.041a7.45965,7.45965,0,0,0-1.30762-.76172A1.08567,1.08567,0,0,0,36.92969,30H35.07031a1.14287,1.14287,0,0,0-1.127,1.123,9.82442,9.82442,0,0,0-1.375.708,1.11351,1.11351,0,0,0-1.48828.38868l-.92871,1.54589a1.0447,1.0447,0,0,0-.11524.81739,1.184,1.184,0,0,0,.55567.70117A5.09248,5.09248,0,0,0,30.541,36c0,.24316.01757.48145.01562.75586a1.06586,1.06586,0,0,0-.52051.66113,1.0447,1.0447,0,0,0,.11524.81739l.92968,1.54687a1.08551,1.08551,0,0,0,1.40625.4248c.03028-.01074.15235-.02539.17969-.041a7.45965,7.45965,0,0,0,1.30762.76172A1.08567,1.08567,0,0,0,35.07031,42h1.85938a1.14287,1.14287,0,0,0,1.127-1.123A5.50691,5.50691,0,0,0,39.333,40.165l.10058.00586a1.11367,1.11367,0,0,0,1.48633-.39063l.92871-1.54589a1.0447,1.0447,0,0,0,.11524-.81739,1.06586,1.06586,0,0,0-.52051-.66113l-.24219.4375.207-.47754A5.09248,5.09248,0,0,0,41.459,36c0-.24316-.01757-.48145-.01464-.75586A1.06623,1.06623,0,0,0,41.96387,34.582ZM40.0625,39.26562a.11217.11217,0,0,1-.14844.02833,1.08729,1.08729,0,0,0-1.18066.07031,4.50847,4.50847,0,0,1-1.04492.583,1.0489,1.0489,0,0,0-.66309.97949A.08744.08744,0,0,1,36.92969,41H35.07031a.08846.08846,0,0,1-.0957-.07422,1.047,1.047,0,0,0-.66406-.97851,4.522,4.522,0,0,1-1.044-.583,1.06959,1.06959,0,0,0-.64062-.21094,1.11619,1.11619,0,0,0-.54493.14258.11008.11008,0,0,1-.14257-.0293L31.043,37.62988a1.04154,1.04154,0,0,0,.53906-1.05664,4.02012,4.02012,0,0,1,0-1.14551,1.21383,1.21383,0,0,0-.57324-1.14648l.92871-1.54687a.1173.1173,0,0,1,.14844-.02833,1.09136,1.09136,0,0,0,1.18066-.07031,4.50847,4.50847,0,0,1,1.04492-.583,1.0489,1.0489,0,0,0,.66309-.97949A.08744.08744,0,0,1,35.07031,31h1.85938a.08846.08846,0,0,1,.0957.07422,1.047,1.047,0,0,0,.66406.97851,4.522,4.522,0,0,1,1.044.583,1.09134,1.09134,0,0,0,1.18555.06836.10755.10755,0,0,1,.14257.0293l.89551,1.63672a1.04154,1.04154,0,0,0-.53906,1.05664,4.02012,4.02012,0,0,1,0,1.14551,1.04216,1.04216,0,0,0,.53906,1.05761l.03418.08887Z"/><path class="cls-1" d="M37.25,33.834a2.49982,2.49982,0,1,0,.915,3.416h.001A2.50612,2.50612,0,0,0,37.25,33.834Zm.0498,2.916a1.49962,1.49962,0,1,1-.5498-2.0498A1.50388,1.50388,0,0,1,37.2998,36.75Z"/></g></svg>