<svg xmlns="http://www.w3.org/2000/svg" viewBox="0 0 48 48"><defs><style>.cls-1{fill:#ff6c2c;}</style></defs><g id="Base_Icons" data-name="Base Icons"><path d="M37.5,38H36.43616A1.37347,1.37347,0,0,0,36.5,37.60547V35.39453A1.39662,1.39662,0,0,0,35.10547,34H34.3797L29.65747,17h.70972A1.13362,1.13362,0,0,0,31.5,15.86719V13.13281A1.05412,1.05412,0,0,0,31.47314,13h3.02979A1.49915,1.49915,0,0,0,36,11.50293V6.002A1.00276,1.00276,0,0,0,34.99805,5H31.002A1.00276,1.00276,0,0,0,30,6.002L29.99805,7,29,6.99805V6.002A1.00276,1.00276,0,0,0,27.99805,5H20.002A1.00276,1.00276,0,0,0,19,6.002L18.99805,7,18,6.99805V6.002A1.00276,1.00276,0,0,0,16.99805,5H13.002A1.00276,1.00276,0,0,0,12,6.002v5.499A1.50122,1.50122,0,0,0,13.499,13h3.02784a1.05412,1.05412,0,0,0-.02686.13281v2.73438A1.13362,1.13362,0,0,0,17.63281,17h.70972L13.6203,34h-.72577A1.39662,1.39662,0,0,0,11.5,35.39453v2.21094A1.37347,1.37347,0,0,0,11.56384,38H10.5A1.50164,1.50164,0,0,0,9,39.5v2A1.50164,1.50164,0,0,0,10.5,43h27A1.50164,1.50164,0,0,0,39,41.5v-2A1.50164,1.50164,0,0,0,37.5,38Zm-20-22.13281V13.13281A.133.133,0,0,1,17.63281,13H30.36719a.133.133,0,0,1,.13281.13281v2.73438A.133.133,0,0,1,30.36719,16H17.63281A.133.133,0,0,1,17.5,15.86719ZM19.37988,17h9.24024L33.3418,34H14.6582ZM12.5,37.60547V35.39453A.39469.39469,0,0,1,12.89453,35H35.10547a.39469.39469,0,0,1,.39453.39453v2.21094A.39469.39469,0,0,1,35.10547,38H12.89453A.39469.39469,0,0,1,12.5,37.60547ZM38,41.5a.501.501,0,0,1-.5.5h-27a.501.501,0,0,1-.5-.5v-2a.501.501,0,0,1,.5-.5h27a.501.501,0,0,1,.5.5Z"/></g><g id="Sub_Icons" data-name="Sub Icons"><path class="cls-1" d="M13,11.501,13.002,6,17,6.002v.9961A1.00276,1.00276,0,0,0,18.002,8h.9961A1.00276,1.00276,0,0,0,20,6.99805L20.002,6,28,6.002v.9961A1.00276,1.00276,0,0,0,29.002,8h.9961A1.00276,1.00276,0,0,0,31,6.99805L31.002,6h3.9961L35,11.50293A.49722.49722,0,0,1,34.50293,12H13.499A.49929.49929,0,0,1,13,11.501Z"/></g></svg>