<svg xmlns="http://www.w3.org/2000/svg" viewBox="0 0 48 48"><defs><style>.cls-1{fill:#ff6c2c;}</style></defs><g id="Base_Icons" data-name="Base Icons"><path d="M24,3a21,21,0,0,0,0,42,21.26762,21.26762,0,0,0,3.28418-.25488.4999.4999,0,0,0,.417-.57129.51291.51291,0,0,0-.57129-.417A20.26053,20.26053,0,0,1,24,44,19.98176,19.98176,0,1,1,43.05273,30.09766a.50032.50032,0,0,0,.95313.30468A21.01517,21.01517,0,0,0,24,3Z"/><path d="M24,33a.49971.49971,0,0,0,.5-.5v-8h8a.5.5,0,0,0,0-1h-8v-8a.5.5,0,0,0-1,0v8h-8a.5.5,0,0,0,0,1h8v8A.49971.49971,0,0,0,24,33Z"/></g><g id="Sub_Icons" data-name="Sub Icons"><path class="cls-1" d="M36,36a3,3,0,1,0-3-3A3.00328,3.00328,0,0,0,36,36Zm0-5a2,2,0,1,1-2,2A2.0026,2.0026,0,0,1,36,31Z"/><path class="cls-1" d="M41.5,38a.49971.49971,0,0,0-.5.5v2.001a.49929.49929,0,0,1-.499.499H31.499A.49929.49929,0,0,1,31,40.501V38.5a.5.5,0,0,0-1,0v2.001A1.50122,1.50122,0,0,0,31.499,42h9.002A1.50122,1.50122,0,0,0,42,40.501V38.5A.49971.49971,0,0,0,41.5,38Z"/></g></svg>