<svg xmlns="http://www.w3.org/2000/svg" viewBox="0 0 48 48"><defs><style>.cls-1{fill:#ff6c2c;}</style></defs><g id="Base_Icons" data-name="Base Icons"><path d="M24,3a21,21,0,1,0,6.21582,41.06445.49993.49993,0,0,0-.2959-.95507A19.97787,19.97787,0,1,1,43.05371,30.09766a.49986.49986,0,1,0,.95215.30468A21.01517,21.01517,0,0,0,24,3Z"/><path d="M24,33a.49971.49971,0,0,0,.5-.5v-8h8a.5.5,0,0,0,0-1h-8v-8a.5.5,0,0,0-1,0v8h-8a.5.5,0,0,0,0,1h8v8A.49971.49971,0,0,0,24,33Z"/></g><g id="Sub_Icons" data-name="Sub Icons"><path class="cls-1" d="M36,30a5.98034,5.98034,0,0,0-4.23077,1.75024l-.01142.00757-.00757.01142a5.99681,5.99681,0,0,0,8.48584,8.4757l.00562-.00372.00384-.0058A5.99694,5.99694,0,0,0,36,30Zm3.85364,9.14636-1.06049-1.05987a3.43307,3.43307,0,0,0,0-4.1731l1.06018-1.06018a4.8911,4.8911,0,0,1,.00031,6.29315ZM33.5,36A2.5,2.5,0,1,1,36,38.5,2.50263,2.50263,0,0,1,33.5,36Zm5.64624-3.85376-1.06018,1.06018a3.43316,3.43316,0,0,0-4.17212.00006l-1.06036-1.06006a4.891,4.891,0,0,1,6.29266-.00018ZM31,36a4.95062,4.95062,0,0,1,1.14655-3.14655l1.0603,1.06a3.43309,3.43309,0,0,0-.00006,4.173L32.1463,39.1463A4.95055,4.95055,0,0,1,31,36Zm1.85333,3.85339,1.06055-1.05993a3.43311,3.43311,0,0,0,4.17224.00006l1.06055,1.05987a4.891,4.891,0,0,1-6.29334,0Z"/></g></svg>