<svg xmlns="http://www.w3.org/2000/svg" viewBox="0 0 48 48"><defs><style>.cls-1{fill:#ff6c2c;}</style></defs><g id="Base_Icons" data-name="Base Icons"><path d="M34,31.70215V15.29785A2.301,2.301,0,0,0,31.70215,13H15.29785A2.301,2.301,0,0,0,13,15.29785v5.627a.5.5,0,1,0,1,0v-5.627A1.29908,1.29908,0,0,1,15.29785,14h16.4043A1.29908,1.29908,0,0,1,33,15.29785v16.4043A1.29908,1.29908,0,0,1,31.70215,33h-4.627a.5.5,0,1,0,0,1h4.627A2.301,2.301,0,0,0,34,31.70215Z"/><path d="M21.81641,24H9.18359A2.186,2.186,0,0,0,7,26.18359V38.81641A2.186,2.186,0,0,0,9.18359,41H21.81641A2.186,2.186,0,0,0,24,38.81641V26.18359A2.186,2.186,0,0,0,21.81641,24Zm.3963,1.08032L8.08026,39.21265A1.16023,1.16023,0,0,1,8,38.81641V35.25488L18.25488,25h3.56153A1.1609,1.1609,0,0,1,22.21271,25.08032ZM9.18359,25h7.65723L8,33.84082V26.18359A1.18531,1.18531,0,0,1,9.18359,25Zm-.3963,14.91968L22.91974,25.78735A1.16023,1.16023,0,0,1,23,26.18359v3.56153L12.74512,40H9.18359A1.1609,1.1609,0,0,1,8.78729,39.91968ZM21.81641,40H14.15918L23,31.15918v7.65723A1.18531,1.18531,0,0,1,21.81641,40Z"/><path d="M41.15137,6H28.84863A1.85048,1.85048,0,0,0,27,7.84863V9.85449a.5.5,0,0,0,1,0V7.84863A.8498.8498,0,0,1,28.84863,7H41.15137A.8498.8498,0,0,1,42,7.84863V20.15137A.8498.8498,0,0,1,41.15137,21H36.75293a.5.5,0,0,0,0,1h4.39844A1.85048,1.85048,0,0,0,43,20.15137V7.84863A1.85048,1.85048,0,0,0,41.15137,6Z"/><path d="M30.30957,9.96A.40492.40492,0,0,0,30.5,10a.4664.4664,0,0,0,.34961-.15039A.35936.35936,0,0,0,30.96,9.68945.40093.40093,0,0,0,31,9.5a.47.47,0,0,0-.15039-.35059A.34975.34975,0,0,0,30.68945,9.04a.50154.50154,0,0,0-.37988,0,.35491.35491,0,0,0-.16016.10937A.4727.4727,0,0,0,30,9.5a.40093.40093,0,0,0,.04.18945.34975.34975,0,0,0,.10937.16016A.36482.36482,0,0,0,30.30957,9.96Z"/><path d="M33.30957,9.96a.47053.47053,0,0,0,.37988,0A.537.537,0,0,0,33.96,9.68945.40093.40093,0,0,0,34,9.5a.43142.43142,0,0,0-.04-.19043.36482.36482,0,0,0-.11035-.16016A.34975.34975,0,0,0,33.68945,9.04a.50154.50154,0,0,0-.37988,0,.35491.35491,0,0,0-.16016.10937A.4727.4727,0,0,0,33,9.5a.40093.40093,0,0,0,.04.18945.34975.34975,0,0,0,.10937.16016A.36482.36482,0,0,0,33.30957,9.96Z"/><path d="M36.14941,9.84961A.45379.45379,0,0,0,36.5,10a.40093.40093,0,0,0,.18945-.04A.537.537,0,0,0,36.96,9.68945.40093.40093,0,0,0,37,9.5a.47.47,0,0,0-.15039-.35059A.34975.34975,0,0,0,36.68945,9.04a.50154.50154,0,0,0-.37988,0,.52365.52365,0,0,0-.26953.26953A.43142.43142,0,0,0,36,9.5a.40093.40093,0,0,0,.04.18945A.34975.34975,0,0,0,36.14941,9.84961Z"/><path d="M39.14941,9.84961a.36482.36482,0,0,0,.16016.11035A.40492.40492,0,0,0,39.5,10a.4664.4664,0,0,0,.34961-.15039A.35936.35936,0,0,0,39.96,9.68945.40093.40093,0,0,0,40,9.5a.43142.43142,0,0,0-.04-.19043.36482.36482,0,0,0-.11035-.16016A.34975.34975,0,0,0,39.68945,9.04a.50154.50154,0,0,0-.37988,0,.35491.35491,0,0,0-.16016.10937A.4727.4727,0,0,0,39,9.5a.40093.40093,0,0,0,.04.18945A.34975.34975,0,0,0,39.14941,9.84961Z"/><path d="M39.04,12.68945a.34975.34975,0,0,0,.10937.16016.36482.36482,0,0,0,.16016.11035.47053.47053,0,0,0,.37988,0,.537.537,0,0,0,.27051-.27051.47053.47053,0,0,0,0-.37988.36482.36482,0,0,0-.11035-.16016.34975.34975,0,0,0-.16016-.10937.48829.48829,0,0,0-.54.10937.35491.35491,0,0,0-.10937.16016.47053.47053,0,0,0,0,.37988Z"/><path d="M39.04,15.68945a.34975.34975,0,0,0,.10937.16016.36482.36482,0,0,0,.16016.11035A.40492.40492,0,0,0,39.5,16a.42732.42732,0,0,0,.18945-.04.537.537,0,0,0,.27051-.27051A.40093.40093,0,0,0,40,15.5a.43142.43142,0,0,0-.04-.19043.36482.36482,0,0,0-.11035-.16016.34975.34975,0,0,0-.16016-.10937.50154.50154,0,0,0-.37988,0,.52365.52365,0,0,0-.26953.26953A.43142.43142,0,0,0,39,15.5.40093.40093,0,0,0,39.04,15.68945Z"/><path d="M39.04,18.68945a.34975.34975,0,0,0,.10937.16016.36482.36482,0,0,0,.16016.11035.47053.47053,0,0,0,.37988,0,.42265.42265,0,0,0,.16016-.11035A.45171.45171,0,0,0,40,18.5a.40492.40492,0,0,0-.04-.19043.36482.36482,0,0,0-.11035-.16016.34975.34975,0,0,0-.16016-.10937.49543.49543,0,0,0-.54.10937.35491.35491,0,0,0-.10937.16016.47053.47053,0,0,0,0,.37988Z"/><path d="M36.04,12.68945a.34975.34975,0,0,0,.10937.16016.36482.36482,0,0,0,.16016.11035.47053.47053,0,0,0,.37988,0,.537.537,0,0,0,.27051-.27051.47053.47053,0,0,0,0-.37988.36482.36482,0,0,0-.11035-.16016.34975.34975,0,0,0-.16016-.10937.50154.50154,0,0,0-.37988,0,.52365.52365,0,0,0-.26953.26953.47053.47053,0,0,0,0,.37988Z"/><path d="M36.14941,15.84961a.36482.36482,0,0,0,.16016.11035.47053.47053,0,0,0,.37988,0,.537.537,0,0,0,.27051-.27051A.40093.40093,0,0,0,37,15.5a.43142.43142,0,0,0-.04-.19043.36482.36482,0,0,0-.11035-.16016.34975.34975,0,0,0-.16016-.10937.50154.50154,0,0,0-.37988,0,.52365.52365,0,0,0-.26953.26953A.43142.43142,0,0,0,36,15.5.469.469,0,0,0,36.14941,15.84961Z"/><path d="M36.04,18.68945a.34975.34975,0,0,0,.10937.16016.36482.36482,0,0,0,.16016.11035A.40492.40492,0,0,0,36.5,19a.4664.4664,0,0,0,.34961-.15039.35936.35936,0,0,0,.11035-.16016.47053.47053,0,0,0,0-.37988.36482.36482,0,0,0-.11035-.16016.34975.34975,0,0,0-.16016-.10937.50154.50154,0,0,0-.37988,0,.52365.52365,0,0,0-.26953.26953.47053.47053,0,0,0,0,.37988Z"/></g><g id="Sub_Icons" data-name="Sub Icons"><path class="cls-1" d="M34.70154,37.39624l.33587-1.17261H32.86877a3.02958,3.02958,0,0,0-.92114.14014,2.97452,2.97452,0,0,0-.80127.3894,2.66672,2.66672,0,0,0-.62372.60376,2.45633,2.45633,0,0,0-.38855.77442l-.03839.1311a2.33423,2.33423,0,0,0-.03357,1.19458,2.47744,2.47744,0,0,0,.52289,1.03662,2.82552,2.82552,0,0,0,.96442.73072A2.92472,2.92472,0,0,0,32.8208,41.5h.67169l.38385-1.29492a.28364.28364,0,0,0-.06238-.28443.35861.35861,0,0,0-.28308-.127h-.61413a1.09584,1.09584,0,0,1-.46057-.09619.95567.95567,0,0,1-.34546-.25806.92682.92682,0,0,1-.18707-.37207.84991.84991,0,0,1,.01434-.446.96231.96231,0,0,1,.36951-.49878,1.03908,1.03908,0,0,1,.60925-.18384h1.00757A.82874.82874,0,0,0,34.4137,37.79.74146.74146,0,0,0,34.70154,37.39624Z"/><path class="cls-1" d="M41.93652,36.54321a2.52818,2.52818,0,0,0-.52777-1.03686,2.83043,2.83043,0,0,0-.96429-.73072A2.9255,2.9255,0,0,0,39.1731,34.5H37.16754a.82749.82749,0,0,0-.48932.14868.74151.74151,0,0,0-.2879.3938L34.5,41.5h1.3338a.813.813,0,0,0,.47974-.14868.74359.74359,0,0,0,.2879-.385l1.40094-4.75122h1.07471a1.05639,1.05639,0,0,1,.46057.10058,1.00243,1.00243,0,0,1,.34546.26245.93064.93064,0,0,1,.187.37183.7857.7857,0,0,1-.01434.429.893.893,0,0,1-.35987.49853,1.04843,1.04843,0,0,1-.61883.19263h-.55658a.82786.82786,0,0,0-.48932.14868.74224.74224,0,0,0-.2879.385l-.34546,1.1814h1.73675a3.03084,3.03084,0,0,0,.92121-.14014,2.90162,2.90162,0,0,0,.80127-.3938,2.66276,2.66276,0,0,0,.619-.60815,2.51661,2.51661,0,0,0,.38379-.77442l.03839-.1311A2.23758,2.23758,0,0,0,41.93652,36.54321Z"/></g></svg>