<svg xmlns="http://www.w3.org/2000/svg" viewBox="0 0 48 48"><defs><style>.cls-1{fill:#ff6c2c;}</style></defs><g id="Base_Icons" data-name="Base Icons"><path d="M14.99975,27V21a1.50164,1.50164,0,0,0-1.5-1.5h-6a1.50164,1.50164,0,0,0-1.5,1.5v6a1.50164,1.50164,0,0,0,1.5,1.5h6A1.50164,1.50164,0,0,0,14.99975,27Zm-8,0V21a.501.501,0,0,1,.5-.5h6a.501.501,0,0,1,.5.5v6a.501.501,0,0,1-.5.5h-6A.501.501,0,0,1,6.99975,27Z"/><path d="M23.99975,6a4.5,4.5,0,1,0,4.5,4.5A4.50492,4.50492,0,0,0,23.99975,6Zm0,8a3.5,3.5,0,1,1,3.5-3.5A3.50425,3.50425,0,0,1,23.99975,14Z"/><path d="M32.49975,11h3.998a.503.503,0,0,1,.502.502v3.68286l-1.126-1.26684a.50014.50014,0,0,0-.748.66406l2,2.25.01172.00879a2.11186,2.11186,0,0,0,.15985.11475.50925.50925,0,0,0,.10406.02465A.49493.49493,0,0,0,37.4851,17h.01465a.50305.50305,0,0,0,.35413-.14709l1.99939-1.99939a.49995.49995,0,0,0-.707-.707L37.99975,15.293V11.502A1.50373,1.50373,0,0,0,36.4978,10h-3.998a.5.5,0,0,0,0,1Z"/><path d="M25.29272,33H22.70678a1.20782,1.20782,0,0,0-1.207,1.207V40.793A1.20782,1.20782,0,0,0,22.70678,42h2.58594a1.20781,1.20781,0,0,0,1.207-1.207V34.207A1.20781,1.20781,0,0,0,25.29272,33Zm.207,7.793a.20713.20713,0,0,1-.207.207H22.70678a.20714.20714,0,0,1-.207-.207V34.207a.20714.20714,0,0,1,.207-.207h2.58594a.20713.20713,0,0,1,.207.207Z"/><path d="M37.49975,19.75a1.69867,1.69867,0,0,0-1.501.8916l-2.77149,4.98145a1.76656,1.76656,0,0,0,.02051,1.77246,1.70527,1.70527,0,0,0,1.48047.85449h5.54394a1.70757,1.70757,0,0,0,1.48047-.85352,1.77069,1.77069,0,0,0,.02051-1.77343L39.00073,20.6416A1.69867,1.69867,0,0,0,37.49975,19.75Zm3.39063,7.13867a.70547.70547,0,0,1-.61817.36133H34.72827a.70815.70815,0,0,1-.61914-.36133.77955.77955,0,0,1-.00879-.77929l2.77148-4.98145a.71062.71062,0,0,1,1.25586,0l2.77149,4.98145A.77718.77718,0,0,1,40.89038,26.88867Z"/><path d="M15.49975,37h-3.998a.50306.50306,0,0,1-.502-.502V32.81519l1.126,1.26684a.50014.50014,0,0,0,.748-.66406l-2-2.25-.01172-.00879a2.11744,2.11744,0,0,0-.15985-.11475.5095.5095,0,0,0-.10407-.02465A.4947.4947,0,0,0,10.5144,31l-.0072.00146L10.49975,31a.49823.49823,0,0,0-.35412.14709L8.14624,33.14648a.49995.49995,0,0,0,.707.707L9.99975,32.707v3.791A1.50373,1.50373,0,0,0,11.50171,38h3.998a.5.5,0,0,0,0-1Z"/><path d="M16.97888,10.39648a.50678.50678,0,0,0-.01721-.08544.49931.49931,0,0,0-.109-.16517L14.85327,8.14648a.49995.49995,0,0,0-.707.707L15.29272,10h-3.791a1.50373,1.50373,0,0,0-1.502,1.502V15.5a.5.5,0,0,0,1,0V11.502a.50306.50306,0,0,1,.502-.502h3.6828l-1.26679,1.126a.50013.50013,0,0,0,.66406.748l2.25-2,.00873-.01172a.49756.49756,0,0,0,.0719-.09619.25716.25716,0,0,0,.06751-.16772.49142.49142,0,0,0,.01983-.08374l-.0014-.00781.0014-.00684A.47691.47691,0,0,0,16.97888,10.39648Z"/></g><g id="Sub_Icons" data-name="Sub Icons"><path class="cls-1" d="M36.0896,35.499a.49972.49972,0,0,0-.5.5v2a.5.5,0,0,0,1,0v-2A.49972.49972,0,0,0,36.0896,35.499Z"/><path class="cls-1" d="M36.44018,33.64941a.50116.50116,0,0,0-.69922,0,.34941.34941,0,0,0-.11035.16016.40492.40492,0,0,0-.04.19043.42732.42732,0,0,0,.04.18945.40171.40171,0,0,0,.11035.16016.35649.35649,0,0,0,.15918.11035.40492.40492,0,0,0,.19043.04.46638.46638,0,0,0,.34961-.15039.55289.55289,0,0,0,.11035-.16016.65718.65718,0,0,0,.04-.18945.60105.60105,0,0,0-.04-.19043A.45594.45594,0,0,0,36.44018,33.64941Z"/><path class="cls-1" d="M36.0896,29.999a6,6,0,1,0,6,6A6.00656,6.00656,0,0,0,36.0896,29.999Zm0,11a5,5,0,1,1,5-5A5.00588,5.00588,0,0,1,36.0896,40.999Z"/></g></svg>