<svg xmlns="http://www.w3.org/2000/svg" viewBox="0 0 48 48"><defs><style>.cls-1{fill:#ff6c2c;}</style></defs><g id="Base_Icons" data-name="Base Icons"><path d="M24,6C13.90625,6,6,9.7334,6,14.5S13.90625,23,24,23c7.98572,0,14.58466-2.34106,17-5.67773V24.167a4.34712,4.34712,0,0,1-1.59961,3.13379.49951.49951,0,1,0,.68359.72852,5.73631,5.73631,0,0,0,1.84107-3.1167A.48617.48617,0,0,0,42,24.665V14.5C42,9.7334,34.09375,6,24,6Zm0,16c-9.21484,0-17-3.43457-17-7.5S14.78516,7,24,7s17,3.43457,17,7.5S33.21484,22,24,22Z"/><path d="M24,32.667c1.1416,0,2.28613-.0498,3.40039-.14941a.50012.50012,0,0,0,.4541-.542.51347.51347,0,0,0-.542-.45411c-1.08594.09668-2.2002.14551-3.3125.14551-9.21484,0-17-3.43457-17-7.5v-.66015a.5.5,0,0,0-1,0V33.5C6,38.2666,13.90625,42,24,42c1.1377,0,2.28223-.0498,3.40039-.14844a.5.5,0,1,0-.08789-.99609C26.22363,40.95117,25.1084,41,24,41c-9.21484,0-17-3.43457-17-7.5V26.98926C9.41534,30.32593,16.01428,32.667,24,32.667Z"/></g><g id="Sub_Icons" data-name="Sub Icons"><path class="cls-1" d="M36,30a4.50491,4.50491,0,0,0-4.5,4.5c0,2.32324,3.69531,6.81543,4.11621,7.32031a.4997.4997,0,0,0,.76758,0C36.80469,41.31543,40.5,36.82324,40.5,34.5A4.50491,4.50491,0,0,0,36,30Zm0,10.707c-1.24414-1.56738-3.5-4.71582-3.5-6.207a3.5,3.5,0,0,1,7,0C39.5,35.99121,37.24414,39.13965,36,40.707Z"/><path class="cls-1" d="M36,32.5A1.5,1.5,0,1,0,37.5,34,1.50164,1.50164,0,0,0,36,32.5Zm0,2a.5.5,0,1,1,.5-.5A.501.501,0,0,1,36,34.5Z"/></g></svg>