<svg xmlns="http://www.w3.org/2000/svg" viewBox="0 0 48 48"><defs><style>.cls-1{fill:#ff6c2c;}</style></defs><g id="Base_Icons" data-name="Base Icons"><path d="M17.5,40H11.50391A.50389.50389,0,0,1,11,39.49609V13a.5.5,0,0,0-1,0V39.49609A1.5058,1.5058,0,0,0,11.50391,41H17.5a.5.5,0,0,0,0-1Z"/><path d="M37,13V31a.5.5,0,0,0,1,0V13a.5.5,0,0,0-1,0Z"/><path d="M39.5,10a.5.5,0,0,0,0-1H27V7.50293A1.50227,1.50227,0,0,0,25.502,6.001L22.5,6A1.50289,1.50289,0,0,0,21,7.50293V9H8.5a.5.5,0,0,0,0,1ZM22,7.50293A.50222.50222,0,0,1,22.5,7l3.001.001A.50117.50117,0,0,1,26,7.50293V9H22Z"/><path d="M16,17V34a.5.5,0,0,0,1,0V17a.5.5,0,0,0-1,0Z"/><path d="M23.5,17V31a.5.5,0,0,0,1,0V17a.5.5,0,0,0-1,0Z"/><path d="M31,17V31a.5.5,0,0,0,1,0V17a.5.5,0,0,0-1,0Z"/></g><g id="Sub_Icons" data-name="Sub Icons"><path class="cls-1" d="M23.17676,34H22a.49971.49971,0,0,0-.5.5v7a.49971.49971,0,0,0,.5.5h1.17676a4.00011,4.00011,0,1,0,0-8Zm0,7H22.5V35h.67676a3.00014,3.00014,0,1,1,0,6Z"/><path class="cls-1" d="M34.35254,34a.49971.49971,0,0,0-.5.5v5.35938l-3.79-5.63868a.50012.50012,0,0,0-.915.2793v7a.5.5,0,0,0,1,0V36.14062l3.79,5.63868a.50012.50012,0,0,0,.915-.2793v-7A.49971.49971,0,0,0,34.35254,34Z"/><path class="cls-1" d="M40.23535,37.5H39.05859a1.25008,1.25008,0,1,1,0-2.5h1.76465a.5.5,0,0,0,0-1H39.05859a2.25,2.25,0,1,0,0,4.5h1.17676a1.25008,1.25008,0,1,1,0,2.5H37.294a.5.5,0,1,0,0,1h2.9414a2.25,2.25,0,1,0,0-4.5Z"/></g></svg>