<svg xmlns="http://www.w3.org/2000/svg" viewBox="0 0 48 48"><defs><style>.cls-1{fill:#ff6c2c;}</style></defs><g id="Base_Icons" data-name="Base Icons"><path d="M26.5,40H11.50391A.50389.50389,0,0,1,11,39.49609V13a.5.5,0,0,0-1,0V39.49609A1.5058,1.5058,0,0,0,11.50391,41H26.5a.5.5,0,0,0,0-1Z"/><path d="M37,13V28a.5.5,0,0,0,1,0V13a.5.5,0,0,0-1,0Z"/><path d="M39.5,10a.5.5,0,0,0,0-1H27V7.50293A1.50227,1.50227,0,0,0,25.502,6.001L22.5,6A1.50289,1.50289,0,0,0,21,7.50293V9H8.5a.5.5,0,0,0,0,1ZM22,7.50293A.50222.50222,0,0,1,22.5,7l3.001.001A.50117.50117,0,0,1,26,7.50293V9H22Z"/><path d="M16,17V34a.5.5,0,0,0,1,0V17a.5.5,0,0,0-1,0Z"/><path d="M23.5,17V34a.5.5,0,0,0,1,0V17a.5.5,0,0,0-1,0Z"/><path d="M31,17V28a.5.5,0,0,0,1,0V17a.5.5,0,0,0-1,0Z"/></g><g id="Sub_Icons" data-name="Sub Icons"><path class="cls-1" d="M36,30.5c-3.30859,0-6,2.25391-6,5.02539a4.51639,4.51639,0,0,0,1.22266,3.03809l-1.165,2.20312A.49943.49943,0,0,0,30.5,41.5a.506.506,0,0,0,.23535-.05859L33.36621,40.041A6.98143,6.98143,0,0,0,36,40.55176c3.30859,0,6-2.25488,6-5.02637S39.30859,30.5,36,30.5Zm0,9.05176a5.94948,5.94948,0,0,1-2.46-.52442.489.489,0,0,0-.50488.05664l-1.332.709.502-.94824a.45175.45175,0,0,0,.03515-.03907.50046.50046,0,0,0-.04492-.67773A3.5977,3.5977,0,0,1,31,35.52539C31,33.30566,33.24316,31.5,36,31.5s5,1.80566,5,4.02539S38.75684,39.55176,36,39.55176Z"/><path class="cls-1" d="M38,35H34a.5.5,0,0,0,0,1h4a.5.5,0,0,0,0-1Z"/></g></svg>