<svg xmlns="http://www.w3.org/2000/svg" viewBox="0 0 48 48"><defs><style>.cls-1{fill:#ff6c2c;}</style></defs><g id="Base_Icons" data-name="Base Icons"><path d="M27.5,40H11.50391A.50389.50389,0,0,1,11,39.49609V13a.5.5,0,0,0-1,0V39.49609A1.5058,1.5058,0,0,0,11.50391,41H27.5a.5.5,0,0,0,0-1Z"/><path d="M37,13V27a.5.5,0,0,0,1,0V13a.5.5,0,0,0-1,0Z"/><path d="M39.5,10a.5.5,0,0,0,0-1H27V7.50293A1.50227,1.50227,0,0,0,25.502,6.001L22.5,6A1.50289,1.50289,0,0,0,21,7.50293V9H8.5a.5.5,0,0,0,0,1ZM22,7.50293A.50222.50222,0,0,1,22.5,7l3.001.001A.50117.50117,0,0,1,26,7.50293V9H22Z"/><path d="M16,17V34a.5.5,0,0,0,1,0V17a.5.5,0,0,0-1,0Z"/><path d="M23.5,17V34a.5.5,0,0,0,1,0V17a.5.5,0,0,0-1,0Z"/><path d="M31,17V29a.5.5,0,0,0,1,0V17a.5.5,0,0,0-1,0Z"/></g><g id="Sub_Icons" data-name="Sub Icons"><path class="cls-1" d="M41.31848,33.07275a.47753.47753,0,0,0-.0343-.104.499.499,0,0,0-.13269-.1499,1.58928,1.58928,0,0,0-.462-.41553l-3.88672-2.19141a1.62917,1.62917,0,0,0-1.60351-.001L31.30859,32.4043a1.58232,1.58232,0,0,0-.46057.41479.49977.49977,0,0,0-.1322.14966.47969.47969,0,0,0-.03369.10229,1.56974,1.56974,0,0,0-.18213.71509v4.38379a1.59379,1.59379,0,0,0,.81055,1.38281l3.88672,2.19141a1.60571,1.60571,0,0,0,.55206.179.44678.44678,0,0,0,.50085.00024,1.58038,1.58038,0,0,0,.5506-.17822l3.89063-2.19336A1.59327,1.59327,0,0,0,41.5,38.16992V33.78613A1.56914,1.56914,0,0,0,41.31848,33.07275Zm-5.62707-1.9917a.62842.62842,0,0,1,.61914.001l3.6571,2.062L36,35.4082l-3.96777-2.26428Zm-3.88868,7.60157a.59412.59412,0,0,1-.30273-.5127V33.99231l4,2.28186v4.493Zm8.39649-.001L36.5,40.76709V36.27417l4-2.28186v4.17761A.59355.59355,0,0,1,40.19922,38.68164Z"/></g></svg>