<svg xmlns="http://www.w3.org/2000/svg" viewBox="0 0 48 48"><defs><style>.cls-1{fill:#ff6c2c;}</style></defs><g id="Base_Icons" data-name="Base Icons"><path d="M27,41H10.48047A.48138.48138,0,0,1,10,40.51953V18.915a.5.5,0,0,0-1,0V40.51953A1.482,1.482,0,0,0,10.48047,42H27a.5.5,0,0,0,0-1Z"/><path d="M17.91113,7H37.50391A.4968.4968,0,0,1,38,7.49609V27a.5.5,0,0,0,1,0V7.49609A1.49747,1.49747,0,0,0,37.50391,6H17.91113a.5.5,0,0,0,0,1Z"/><path d="M16.5,27a.5.5,0,0,0,0,1h15a.5.5,0,0,0,0-1Z"/><path d="M27.5,34h-11a.5.5,0,0,0,0,1h11a.5.5,0,0,0,0-1Z"/><path d="M34,20.5a.49971.49971,0,0,0-.5-.5h-17a.5.5,0,0,0,0,1h17A.49971.49971,0,0,0,34,20.5Z"/><path d="M33.5,13h-13a.5.5,0,0,0,0,1h13a.5.5,0,0,0,0-1Z"/><path d="M14.84961,20.14941a.50234.50234,0,0,0-.7002,0A.4727.4727,0,0,0,14,20.5a.40093.40093,0,0,0,.04.18945.34975.34975,0,0,0,.10937.16016.36482.36482,0,0,0,.16016.11035.47053.47053,0,0,0,.37988,0,.537.537,0,0,0,.27051-.27051A.40093.40093,0,0,0,15,20.5.47.47,0,0,0,14.84961,20.14941Z"/><path d="M14.96,27.30957a.36482.36482,0,0,0-.11035-.16016.34975.34975,0,0,0-.16016-.10937.48829.48829,0,0,0-.54.10937.35491.35491,0,0,0-.10937.16016.47053.47053,0,0,0,0,.37988.34975.34975,0,0,0,.10937.16016.36482.36482,0,0,0,.16016.11035A.40492.40492,0,0,0,14.5,28a.4664.4664,0,0,0,.34961-.15039.35936.35936,0,0,0,.11035-.16016.47053.47053,0,0,0,0-.37988Z"/><path d="M14.14941,34.14941a.35491.35491,0,0,0-.10937.16016A.40492.40492,0,0,0,14,34.5a.469.469,0,0,0,.14941.34961.36482.36482,0,0,0,.16016.11035.47053.47053,0,0,0,.37988,0,.35936.35936,0,0,0,.16016-.11035.4827.4827,0,0,0,0-.7002A.50236.50236,0,0,0,14.14941,34.14941Z"/></g><g id="Sub_Icons" data-name="Sub Icons"><path class="cls-1" d="M36.08887,35.499a.4997.4997,0,0,0-.5.5v2a.5.5,0,0,0,1,0v-2A.49972.49972,0,0,0,36.08887,35.499Z"/><path class="cls-1" d="M35.72949,33.64941A.50316.50316,0,0,0,35.58984,34a.55181.55181,0,0,0,.13965.34961.50746.50746,0,0,0,.36035.15039.43419.43419,0,0,0,.19043-.04.36187.36187,0,0,0,.15918-.11035.44721.44721,0,0,0,.11035-.16016.65718.65718,0,0,0,.04-.18945.50922.50922,0,0,0-.15039-.35059A.51447.51447,0,0,0,35.72949,33.64941Z"/><path class="cls-1" d="M36,30a6,6,0,1,0,6,6A6.00657,6.00657,0,0,0,36,30Zm0,11a5,5,0,1,1,5-5A5.00588,5.00588,0,0,1,36,41Z"/><path class="cls-1" d="M12.52246,15.40332l1.44238,1.44922A.49875.49875,0,0,0,14.31934,17h.00878a.49873.49873,0,0,0,.32032-.87793l-1.65235-1.66016a.50213.50213,0,0,0-.56152-.10253,3.85067,3.85067,0,0,1-5.335-4.37891l2.1709,2.1709a1.22865,1.22865,0,0,0,1.71484-.00586l1.16406-1.16406a1.22379,1.22379,0,0,0-.01367-1.72266L9.97949,7.10156a3.8453,3.8453,0,0,1,4.37989,5.334.50061.50061,0,0,0,.10156.56054l1.68554,1.68555a.49995.49995,0,0,0,.707-.707l-1.4502-1.4502A4.84769,4.84769,0,0,0,8.85254,6.43359a.49947.49947,0,0,0-.14649.8086l2.72657,2.72656a.22392.22392,0,0,1,.00487.31055l-1.15917,1.15918a.22474.22474,0,0,1-.30664,0L7.24023,8.707a.51116.51116,0,0,0-.44335-.13867.50283.50283,0,0,0-.36622.28613,4.84978,4.84978,0,0,0,6.0918,6.54883Z"/></g></svg>