<svg xmlns="http://www.w3.org/2000/svg" viewBox="0 0 48 48"><defs><style>.cls-1{fill:#ff6c2c;}</style></defs><g id="Base_Icons" data-name="Base Icons"><path d="M10.5,18.5A.49971.49971,0,0,0,11,18V13a.5.5,0,0,0-1,0v5A.49971.49971,0,0,0,10.5,18.5Z"/><path d="M18,39H7.49707A.49752.49752,0,0,1,7,38.50293v-13.998A.50554.50554,0,0,1,7.50488,24H40.49512A.50554.50554,0,0,1,41,24.50488V30a.5.5,0,0,0,1,0V24.50488l-.00067-.00659L42,24.49512a1.48381,1.48381,0,0,0-.38995-.99781A1.49291,1.49291,0,0,0,42,22.49609V8.50293A1.50446,1.50446,0,0,0,40.49707,7H7.50146A1.50331,1.50331,0,0,0,6,8.502V22.49707a1.4905,1.4905,0,0,0,.38971,1.00049A1.484,1.484,0,0,0,6,24.49512V38.50293A1.49883,1.49883,0,0,0,7.49707,40H18a.5.5,0,0,0,0-1ZM7,8.502A.50264.50264,0,0,1,7.50146,8H40.49707A.50347.50347,0,0,1,41,8.50293V22.49609A.50378.50378,0,0,1,40.49658,23H7.50342A.50357.50357,0,0,1,7,22.49707Z"/><path d="M10,29v5a.5.5,0,0,0,1,0V29a.5.5,0,0,0-1,0Z"/><path d="M14,29v5a.5.5,0,0,0,1,0V29a.5.5,0,0,0-1,0Z"/></g><g id="Sub_Icons" data-name="Sub Icons"><path class="cls-1" d="M23.17627,34H22a.49971.49971,0,0,0-.5.5v7a.49971.49971,0,0,0,.5.5h1.17627a4.00011,4.00011,0,1,0,0-8Zm0,7H22.5V35h.67627a3.00015,3.00015,0,1,1,0,6Z"/><path class="cls-1" d="M34.353,34a.49971.49971,0,0,0-.5.5v5.36035L30.062,34.2207a.50007.50007,0,0,0-.915.2793v7a.5.5,0,0,0,1,0V36.13965l3.791,5.63965a.50007.50007,0,0,0,.915-.2793v-7A.49972.49972,0,0,0,34.353,34Z"/><path class="cls-1" d="M40.23535,37.5H39.05859a1.25008,1.25008,0,1,1,0-2.5h1.76514a.5.5,0,0,0,0-1H39.05859a2.25,2.25,0,1,0,0,4.5h1.17676a1.25008,1.25008,0,1,1,0,2.5H37.294a.5.5,0,1,0,0,1h2.9414a2.25,2.25,0,1,0,0-4.5Z"/></g></svg>