<svg xmlns="http://www.w3.org/2000/svg" viewBox="0 0 48 48"><defs><style>.cls-1{fill:#ff6c2c;}</style></defs><g id="Base_Icons" data-name="Base Icons"><path d="M24,28.5a39.04887,39.04887,0,0,1,5.92383.417.5.5,0,0,0,.15234-.98828A40.03476,40.03476,0,0,0,24,27.5c-10.916,0-17.30176,3.51172-18.4668,10.15625a2.23093,2.23093,0,0,0,.51856,1.8418A2.92568,2.92568,0,0,0,8.28223,40.5H26.71777a.5.5,0,0,0,0-1H8.28223a1.91749,1.91749,0,0,1-1.46485-.64551,1.247,1.247,0,0,1-.2998-1.02637C7.87012,30.11816,16.77051,28.5,24,28.5Z"/><path d="M19.06543,8.0791a8.49947,8.49947,0,1,1-3.44824,8.334.49994.49994,0,1,0-.98633.16406,9.49918,9.49918,0,1,0,3.85254-9.3125.50052.50052,0,0,0,.582.81445Z"/></g><g id="Sub_Icons" data-name="Sub Icons"><path class="cls-1" d="M41.85352,35.68457,38.166,31.99805a1.34635,1.34635,0,0,0-.59766-.34864l-5.873-1.60156a1.342,1.342,0,0,0-1.64746,1.64844l1.60156,5.873a1.34582,1.34582,0,0,0,.34668.59472l3.68848,3.68946a.49995.49995,0,0,0,.707-.707l-3.69043-3.6914a.33775.33775,0,0,1-.08691-.15039l-.62079-2.2757,3.03528-3.03528,2.275.62055a.33835.33835,0,0,1,.15332.08886l3.68945,3.68848a.49995.49995,0,0,0,.707-.707ZM31.69043,33.918l-.67773-2.48438a.339.339,0,0,1,.08789-.333.34841.34841,0,0,1,.332-.08789l2.48517.67791Z"/><path class="cls-1" d="M37.29492,36.58789a.49995.49995,0,0,0-.707.707l1.7832,1.7832a.49995.49995,0,0,0,.707-.707Z"/><path class="cls-1" d="M8,13.5A1.99773,1.99773,0,0,0,9.09558,9.83026L9.80078,8.5H11.5v4.071a2,2,0,1,0,1,0V8.5h1.69141l.67669,1.35413A1.99667,1.99667,0,1,0,16,9.5c-.06226,0-.12091.01276-.1817.01837l-.871-1.742A.5011.5011,0,0,0,14.5,7.5h-5a.49878.49878,0,0,0-.44141.26562L8.13226,9.51337C8.08771,9.51038,8.04529,9.5,8,9.5a2,2,0,0,0,0,4Zm5,1a1,1,0,1,1-1-1A1.00067,1.00067,0,0,1,13,14.5Zm4-3a1,1,0,1,1-1-1A1.00067,1.00067,0,0,1,17,11.5Zm-9-1a1,1,0,1,1-1,1A1.00067,1.00067,0,0,1,8,10.5Z"/></g></svg>