<svg xmlns="http://www.w3.org/2000/svg" viewBox="0 0 48 48"><defs><style>.cls-1{fill:#ff6c2c;}</style></defs><g id="Base_Icons" data-name="Base Icons"><path d="M14.502,39h13.9961a.5.5,0,1,0,0-1H14.502a.50305.50305,0,0,1-.502-.502V7.502A.50305.50305,0,0,1,14.502,7h23.002A.4968.4968,0,0,1,38,7.49609V28.38867a.5.5,0,1,0,1,0V7.49609A1.49747,1.49747,0,0,0,37.50391,6H14.502A1.50373,1.50373,0,0,0,13,7.502v29.9961A1.50373,1.50373,0,0,0,14.502,39Z"/><path d="M30,42H10.5a.501.501,0,0,1-.5-.5v-20a.5.5,0,0,0-1,0v20A1.50164,1.50164,0,0,0,10.5,43H30a.5.5,0,0,0,0-1Z"/><path d="M28.03418,27.5a.49971.49971,0,0,0-.5-.5h-10a.5.5,0,0,0,0,1h10A.49971.49971,0,0,0,28.03418,27.5Z"/><path d="M17.53418,33a.5.5,0,0,0,0,1h8a.5.5,0,0,0,0-1Z"/><path d="M35,21.5a.49971.49971,0,0,0-.5-.5h-17a.5.5,0,0,0,0,1h17A.49971.49971,0,0,0,35,21.5Z"/><path d="M35,11.49512A1.49706,1.49706,0,0,0,33.50488,10H18.49512A1.49706,1.49706,0,0,0,17,11.49512v3.00976A1.49706,1.49706,0,0,0,18.49512,16H33.50488A1.49706,1.49706,0,0,0,35,14.50488Zm-1,3.00976A.49513.49513,0,0,1,33.50488,15H18.49512A.49513.49513,0,0,1,18,14.50488V11.49512A.49513.49513,0,0,1,18.49512,11H33.50488A.49513.49513,0,0,1,34,11.49512Z"/></g><g id="Sub_Icons" data-name="Sub Icons"><path class="cls-1" d="M41.85352,35.68457,38.166,31.99805a1.34635,1.34635,0,0,0-.59766-.34864l-5.873-1.60156a1.342,1.342,0,0,0-1.64746,1.64844l1.60156,5.873a1.34582,1.34582,0,0,0,.34668.59472l3.68848,3.68946a.49995.49995,0,0,0,.707-.707l-3.69043-3.6914a.33775.33775,0,0,1-.08691-.15039l-.62079-2.27564,3.03528-3.0354,2.275.62061a.33835.33835,0,0,1,.15332.08886l3.68945,3.68848a.49995.49995,0,0,0,.707-.707ZM31.69043,33.918l-.67773-2.48438a.339.339,0,0,1,.08789-.333.35084.35084,0,0,1,.332-.08789l2.48517.678Z"/><path class="cls-1" d="M37.29492,36.58789a.49995.49995,0,0,0-.707.707l1.7832,1.7832a.49995.49995,0,0,0,.707-.707Z"/></g></svg>