<svg xmlns="http://www.w3.org/2000/svg" viewBox="0 0 48 48"><defs><style>.cls-1{fill:#ff6c2c;}</style></defs><g id="Base_Icons" data-name="Base Icons"><path d="M32.85352,23.83691a.49982.49982,0,0,0,0-.707L27.9375,18.207a1.89283,1.89283,0,0,0-.83984-.4873l-4.35193-1.18866a.48585.48585,0,0,0-.11695-.032l-5.23816-1.43072a1.89273,1.89273,0,0,0-2.32226,2.32519l1.4292,5.247a.48386.48386,0,0,0,.03113.11432l1.18713,4.3584a1.88789,1.88789,0,0,0,.4873.84082l4.89258,4.89942a.49995.49995,0,1,0,.707-.707l-4.89355-4.90039a.886.886,0,0,1-.22852-.3955l-1.13391-4.16327,5.13092-5.13813L26.835,18.68457a.89472.89472,0,0,1,.39551.22949l4.916,4.92285A.49981.49981,0,0,0,32.85352,23.83691ZM17.244,21.5755,16.0332,17.12988A.89219.89219,0,0,1,17.127,16.0332L21.56744,17.246Z"/><path d="M22.22852,24.00684a.4998.4998,0,0,0,0,.707l2.65136,2.65429a.49995.49995,0,1,0,.707-.707l-2.65136-2.65429A.4998.4998,0,0,0,22.22852,24.00684Z"/><path d="M26.999,25.74707a.5.5,0,0,0,.35352-.85352l-2.65137-2.65527a.49995.49995,0,0,0-.707.707l2.65137,2.65528A.49838.49838,0,0,0,26.999,25.74707Z"/><path d="M24,3a21,21,0,1,0,4.2959,41.55957.49989.49989,0,1,0-.20508-.97852A19.98247,19.98247,0,1,1,43.05273,30.09766a.50032.50032,0,0,0,.95313.30468A21.01517,21.01517,0,0,0,24,3Z"/></g><g id="Sub_Icons" data-name="Sub Icons"><path class="cls-1" d="M36,30.5c-3.30859,0-6,2.25391-6,5.02539a4.51639,4.51639,0,0,0,1.22266,3.03809l-1.165,2.20312A.49943.49943,0,0,0,30.5,41.5a.506.506,0,0,0,.23535-.05859L33.36621,40.041A6.98143,6.98143,0,0,0,36,40.55176c3.30859,0,6-2.25488,6-5.02637S39.30859,30.5,36,30.5Zm0,9.05176a5.94948,5.94948,0,0,1-2.46-.52442.489.489,0,0,0-.50488.05664l-1.332.709.502-.94824a.45175.45175,0,0,0,.03515-.03907.50046.50046,0,0,0-.04492-.67773A3.5977,3.5977,0,0,1,31,35.52539C31,33.30566,33.24316,31.5,36,31.5s5,1.80566,5,4.02539S38.75684,39.55176,36,39.55176Z"/><path class="cls-1" d="M38,35H34a.5.5,0,0,0,0,1h4a.5.5,0,0,0,0-1Z"/></g></svg>