<svg xmlns="http://www.w3.org/2000/svg" viewBox="0 0 48 48"><defs><style>.cls-1{fill:#ff6c2c;}</style></defs><g id="Base_Icons" data-name="Base Icons"><path d="M43.49805,11.99512A1.50167,1.50167,0,0,0,41.99609,10.5H6.02051a1.51241,1.51241,0,0,0-1.293.73535,1.49326,1.49326,0,0,0-.21045.78516V36.001A1.50133,1.50133,0,0,0,6.0166,37.5H27.001a.5.5,0,0,0,0-1H6.0166a.49971.49971,0,0,1-.49951-.499V12.15533L23.51758,22.92578a.93665.93665,0,0,0,.96484,0L42.49805,12.146,42.5,27.001a.5.5,0,0,0,1,0ZM24.03125,22.06836,6.36847,11.5h35.264Z"/></g><g id="Sub_Icons" data-name="Sub Icons"><path class="cls-1" d="M40.501,30H31.499A1.50122,1.50122,0,0,0,30,31.499v4.002a1.48758,1.48758,0,0,0,.38989.999A1.48758,1.48758,0,0,0,30,37.499v2.002A1.50122,1.50122,0,0,0,31.499,41a.5.5,0,0,0,0-1A.49929.49929,0,0,1,31,39.501V37.499A.49929.49929,0,0,1,31.499,37h.99024a.5.5,0,0,0,0-1H31.499A.49929.49929,0,0,1,31,35.501V31.499A.49929.49929,0,0,1,31.499,31h9.002a.49929.49929,0,0,1,.499.499V34.5a.5.5,0,0,0,1,0V31.499A1.50122,1.50122,0,0,0,40.501,30Z"/><path class="cls-1" d="M34,33a.5.5,0,0,0-1,0v1a.5.5,0,0,0,1,0Z"/><path class="cls-1" d="M40,36a2,2,0,1,0-2,2A2.0026,2.0026,0,0,0,40,36Zm-3,0a1,1,0,1,1,1,1A1.00067,1.00067,0,0,1,37,36Z"/><path class="cls-1" d="M41.5,39a.49971.49971,0,0,0-.5.5v1.001a.49929.49929,0,0,1-.499.499H35.499A.49929.49929,0,0,1,35,40.501V39.5a.5.5,0,0,0-1,0v1.001A1.50122,1.50122,0,0,0,35.499,42h5.002A1.50122,1.50122,0,0,0,42,40.501V39.5A.49971.49971,0,0,0,41.5,39Z"/></g></svg>