<svg xmlns="http://www.w3.org/2000/svg" viewBox="0 0 48 48"><defs><style>.cls-1{fill:#ff6c2c;}</style></defs><g id="Base_Icons" data-name="Base Icons"><path d="M24,3a21.00352,21.00352,0,0,0-7.38379,40.665.4822.4822,0,0,0,.17578.03223.4999.4999,0,0,0,.17578-.96778,19.99314,19.99314,0,1,1,26.085-12.63183.50032.50032,0,0,0,.95313.30468A21.01517,21.01517,0,0,0,24,3Z"/><path d="M22.16406,31.71387a.5.5,0,0,0,.35352-.85352l-3.6084-3.61426a.886.886,0,0,1-.22852-.3955l-1.13391-4.16333,5.13092-5.13807L26.835,18.68457a.89472.89472,0,0,1,.39551.22949l4.916,4.92285a.49995.49995,0,1,0,.707-.707L27.9375,18.207a1.89283,1.89283,0,0,0-.83984-.4873L22.74573,16.531a.48862.48862,0,0,0-.11695-.032l-5.23816-1.43066a1.89273,1.89273,0,0,0-2.32226,2.32519l1.4292,5.24707a.48574.48574,0,0,0,.03113.11426l1.18713,4.3584a1.88789,1.88789,0,0,0,.4873.84082l3.60743,3.61328A.49835.49835,0,0,0,22.16406,31.71387ZM16.26465,16.26172a.8816.8816,0,0,1,.8623-.22852L21.56744,17.246,17.244,21.57544,16.0332,17.12988A.88339.88339,0,0,1,16.26465,16.26172Z"/><path d="M22.22852,24.71387l2.65136,2.65429a.49995.49995,0,1,0,.707-.707l-2.65136-2.65429a.49995.49995,0,1,0-.707.707Z"/><path d="M24.70117,22.23828a.49995.49995,0,0,0-.707.707l2.65137,2.65528a.49995.49995,0,1,0,.707-.707Z"/></g><g id="Sub_Icons" data-name="Sub Icons"><path class="cls-1" d="M23.17676,34H22a.49971.49971,0,0,0-.5.5v7a.49971.49971,0,0,0,.5.5h1.17676a4.00011,4.00011,0,1,0,0-8Zm0,7H22.5V35h.67676a3.00014,3.00014,0,1,1,0,6Z"/><path class="cls-1" d="M34.35254,34a.49971.49971,0,0,0-.5.5v5.35938l-3.79-5.63868a.50012.50012,0,0,0-.915.2793v7a.5.5,0,0,0,1,0V36.14062l3.79,5.63868a.50012.50012,0,0,0,.915-.2793v-7A.49971.49971,0,0,0,34.35254,34Z"/><path class="cls-1" d="M40.23535,37.5H39.05859a1.25008,1.25008,0,1,1,0-2.5h1.76465a.5.5,0,0,0,0-1H39.05859a2.25,2.25,0,1,0,0,4.5h1.17676a1.25008,1.25008,0,1,1,0,2.5H37.294a.5.5,0,1,0,0,1h2.9414a2.25,2.25,0,1,0,0-4.5Z"/></g></svg>