<svg xmlns="http://www.w3.org/2000/svg" viewBox="0 0 48 48"><defs><style>.cls-1{fill:#ff6c2c;}</style></defs><g id="Base_Icons" data-name="Base Icons"><path d="M32.85352,23.83691a.49982.49982,0,0,0,0-.707L27.9375,18.207a1.89283,1.89283,0,0,0-.83984-.4873L22.74573,16.531a.48862.48862,0,0,0-.11695-.032l-5.23816-1.43066a1.89273,1.89273,0,0,0-2.32226,2.32519l1.4292,5.24707a.48574.48574,0,0,0,.03113.11426l1.18713,4.3584a1.88789,1.88789,0,0,0,.4873.84082l4.89258,4.89942a.49995.49995,0,1,0,.707-.707l-4.89355-4.90039a.886.886,0,0,1-.22852-.3955l-1.13391-4.16333,5.13092-5.13807L26.835,18.68457a.89472.89472,0,0,1,.39551.22949l4.916,4.92285A.49981.49981,0,0,0,32.85352,23.83691ZM17.244,21.57544,16.0332,17.12988A.89219.89219,0,0,1,17.127,16.0332L21.56744,17.246Z"/><path d="M22.22852,24.00684a.4998.4998,0,0,0,0,.707l2.65136,2.65429a.49995.49995,0,1,0,.707-.707l-2.65136-2.65429A.4998.4998,0,0,0,22.22852,24.00684Z"/><path d="M26.999,25.74707a.5.5,0,0,0,.35352-.85352l-2.65137-2.65527a.49995.49995,0,0,0-.707.707l2.65137,2.65528A.49838.49838,0,0,0,26.999,25.74707Z"/><path d="M24,3a21,21,0,1,0,6.21582,41.06445.49978.49978,0,1,0-.29492-.95507A19.98364,19.98364,0,1,1,43.05273,30.09766a.50032.50032,0,0,0,.95313.30468A21.01517,21.01517,0,0,0,24,3Z"/></g><g id="Sub_Icons" data-name="Sub Icons"><path class="cls-1" d="M41.28418,32.96875a.50156.50156,0,0,0-.13239-.14941,1.58854,1.58854,0,0,0-.46234-.416l-3.88672-2.19141a1.62917,1.62917,0,0,0-1.60351-.001L31.30859,32.4043a1.58232,1.58232,0,0,0-.46057.41479.49977.49977,0,0,0-.1322.14966.47969.47969,0,0,0-.03369.10229,1.56974,1.56974,0,0,0-.18213.71509v4.38379a1.59379,1.59379,0,0,0,.81055,1.38281l3.88672,2.19141a1.60571,1.60571,0,0,0,.55206.179.44678.44678,0,0,0,.50085.00024,1.58038,1.58038,0,0,0,.5506-.17822l3.89063-2.19336A1.59327,1.59327,0,0,0,41.5,38.16992V33.78613a1.56914,1.56914,0,0,0-.18152-.71338A.47753.47753,0,0,0,41.28418,32.96875Zm-5.59277-1.8877a.62842.62842,0,0,1,.61914.001l3.6571,2.062L36,35.4082l-3.96777-2.26428Zm-3.88868,7.60157a.59412.59412,0,0,1-.30273-.5127V33.99231l4,2.28186v4.493Zm8.39649-.001L36.5,40.76709V36.27417l4-2.28186v4.17761A.59355.59355,0,0,1,40.19922,38.68164Z"/></g></svg>