<svg xmlns="http://www.w3.org/2000/svg" viewBox="0 0 48 48"><defs><style>.cls-1{fill:#ff6c2c;}</style></defs><g id="Base_Icons" data-name="Base Icons"><path d="M35.76465,10.19531H29.88232a.5.5,0,0,0,0,1h5.88233A7.83232,7.83232,0,0,1,43.5,19.10352v9.60839a.68969.68969,0,0,1-.67627.70118H41.5a.5.5,0,0,0,0,1h1.32373A1.69048,1.69048,0,0,0,44.5,28.71191V19.10352A8.83285,8.83285,0,0,0,35.76465,10.19531Z"/><path d="M16.59277,25.71777H9.18506a.5.5,0,0,0,0,1h7.40771a.5.5,0,0,0,0-1Z"/><path d="M24.74072,14.8916a.49971.49971,0,0,0,.5-.5V7.5h2.46289a.5.5,0,0,0,0-1H24.74072a.49972.49972,0,0,0-.5.5v7.3916A.49972.49972,0,0,0,24.74072,14.8916Z"/><path d="M28.6665,40.5H25.24072v-10a.47776.47776,0,0,0-.01751-.08691H30.207a.5.5,0,0,0,0-1H22.19745a1.43728,1.43728,0,0,0,.08038-.45606V19.0625a8.87023,8.87023,0,0,0-4.79242-7.86719H20.4707a.5.5,0,0,0,0-1H12.23535a8.73148,8.73148,0,0,0-7.91907,5.17188c-.04132.0896-.08813.17578-.12646.26709-.01062.02563-.01831.05273-.02869.07837A8.81129,8.81129,0,0,0,3.5,19.06055V28.957a1.45788,1.45788,0,0,0,1.45605,1.45606H24.25824a.47777.47777,0,0,0-.01752.08691v10H18.81494a.5.5,0,0,0,0,1H28.6665a.5.5,0,0,0,0-1ZM5.17627,29.41309A.68969.68969,0,0,1,4.5,28.71191V19.10352a8.01251,8.01251,0,0,1,.58551-3.01c.0094-.02295.01611-.04737.0257-.07007.03332-.08032.07489-.15576.11071-.23487a7.86921,7.86921,0,0,1,7.14283-4.59326h1.04638a7.8758,7.8758,0,0,1,7.8667,7.86719V28.957a.45627.45627,0,0,1-.45605.45606Z"/></g><g id="Sub_Icons" data-name="Sub Icons"><path class="cls-1" d="M41.96436,34.582a1.0487,1.0487,0,0,0-.11573-.81641L40.919,32.2168a1.09938,1.09938,0,0,0-1.43311-.41211c-.02.00781-.13428.01953-.15332.03027a7.46133,7.46133,0,0,0-1.30664-.76172A1.08609,1.08609,0,0,0,36.92969,30H35.07031a1.141,1.141,0,0,0-1.126,1.123,9.87553,9.87553,0,0,0-1.376.707,1.12043,1.12043,0,0,0-1.48877.38965l-.92822,1.54589a1.0487,1.0487,0,0,0-.11573.81641,1.18389,1.18389,0,0,0,.55665.70215A5.09232,5.09232,0,0,0,30.541,36c0,.24316.01806.48145.01464.75586a1.07023,1.07023,0,0,0-.51953.66113,1.04941,1.04941,0,0,0,.11524.81739l.92968,1.54882a1.09879,1.09879,0,0,0,1.43311.41211c.02-.00781.13428-.01953.15332-.03027a7.46133,7.46133,0,0,0,1.30664.76172A1.08609,1.08609,0,0,0,35.07031,42h1.85938a1.141,1.141,0,0,0,1.126-1.123,5.48465,5.48465,0,0,0,1.27686-.71191l-.29932-.40039.39991.40625a1.11332,1.11332,0,0,0,1.48681-.39063l.92871-1.54687a1.04646,1.04646,0,0,0,.11524-.81641,1.07023,1.07023,0,0,0-.51953-.66113l-.24268.4375.20605-.47754A5.09232,5.09232,0,0,0,41.459,36c0-.24316-.01806-.48145-.01464-.75586A1.06861,1.06861,0,0,0,41.96436,34.582ZM40.0625,39.26562a.11443.11443,0,0,1-.14893.02735,1.0872,1.0872,0,0,0-1.17968.07129,4.47376,4.47376,0,0,1-1.0459.583,1.047,1.047,0,0,0-.66211.97949A.08941.08941,0,0,1,36.92969,41H35.07031a.08866.08866,0,0,1-.09619-.07422,1.04588,1.04588,0,0,0-.66357-.97851,4.49381,4.49381,0,0,1-1.04444-.583,1.06674,1.06674,0,0,0-.63965-.21094,1.13147,1.13147,0,0,0-.54541.14258.10741.10741,0,0,1-.14306-.0293l-.896-1.63672a1.04337,1.04337,0,0,0,.54053-1.05664A3.97114,3.97114,0,0,1,31.541,36a4.0188,4.0188,0,0,1,.0415-.5752,1.21648,1.21648,0,0,0-.57373-1.14355l.92773-1.5459a.11512.11512,0,0,1,.14991-.02832,1.09534,1.09534,0,0,0,1.17968-.07129,4.47376,4.47376,0,0,1,1.0459-.583,1.047,1.047,0,0,0,.66211-.97949A.08941.08941,0,0,1,35.07031,31h1.85938a.08866.08866,0,0,1,.09619.07422,1.04588,1.04588,0,0,0,.66357.97851,4.49381,4.49381,0,0,1,1.04444.583,1.094,1.094,0,0,0,1.18506.06836.10987.10987,0,0,1,.14306.0293l.896,1.63672a1.04337,1.04337,0,0,0-.54053,1.05664A3.97114,3.97114,0,0,1,40.459,36a4.0188,4.0188,0,0,1-.0415.5752,1.04213,1.04213,0,0,0,.54053,1.05468l.0332.08887Z"/><path class="cls-1" d="M37.25,33.834a2.50054,2.50054,0,1,0,.915,3.416A2.50561,2.50561,0,0,0,37.25,33.834Zm.04883,2.916A1.499,1.499,0,1,1,36.75,34.7002,1.50315,1.50315,0,0,1,37.29883,36.75Z"/></g></svg>