<svg xmlns="http://www.w3.org/2000/svg" viewBox="0 0 48 48"><defs><style>.cls-1{fill:#ff6c2c;}</style></defs><g id="Base_Icons" data-name="Base Icons"><path d="M40.2041,10.5H7.80176A1.84134,1.84134,0,0,0,6,12.374V35.62793A1.83926,1.83926,0,0,0,7.7998,37.5H26a.5.5,0,0,0,0-1H7.7998A.83923.83923,0,0,1,7,35.62793V12.58374l16.05469,9.65454a1.83217,1.83217,0,0,0,1.89062,0L41,12.58374V26a.5.5,0,0,0,1,0V12.36816A1.83509,1.83509,0,0,0,40.2041,10.5ZM24.42969,21.38086a.8286.8286,0,0,1-.85938,0L7.38373,11.647a.7353.7353,0,0,1,.418-.147H40.2041a.72946.72946,0,0,1,.41437.14569Z"/></g><g id="Sub_Icons" data-name="Sub Icons"><path class="cls-1" d="M39,33a3,3,0,1,0-3,3A3.00328,3.00328,0,0,0,39,33Zm-5,0a2,2,0,1,1,2,2A2.0026,2.0026,0,0,1,34,33Z"/><path class="cls-1" d="M41.5,38a.49971.49971,0,0,0-.5.5v2.001a.49929.49929,0,0,1-.499.499H31.499A.49929.49929,0,0,1,31,40.501V38.5a.5.5,0,0,0-1,0v2.001A1.50122,1.50122,0,0,0,31.499,42h9.002A1.50122,1.50122,0,0,0,42,40.501V38.5A.49971.49971,0,0,0,41.5,38Z"/></g></svg>