<svg xmlns="http://www.w3.org/2000/svg" viewBox="0 0 48 48"><defs><style>.cls-1{fill:#ff6c2c;}</style></defs><g id="Base_Icons" data-name="Base Icons"><path d="M40.2041,10.5H7.80176A1.84134,1.84134,0,0,0,6,12.374V35.62793A1.83926,1.83926,0,0,0,7.7998,37.5H26a.5.5,0,0,0,0-1H7.7998A.83923.83923,0,0,1,7,35.62793V12.58374l16.05469,9.65454a1.83217,1.83217,0,0,0,1.89062,0L41,12.58374V26a.5.5,0,0,0,1,0V12.36816A1.83509,1.83509,0,0,0,40.2041,10.5ZM24.42969,21.38086a.8286.8286,0,0,1-.85938,0L7.38373,11.647a.7353.7353,0,0,1,.418-.147H40.2041a.72946.72946,0,0,1,.41437.14569Z"/></g><g id="Sub_Icons" data-name="Sub Icons"><path class="cls-1" d="M40,33.5c-.06226,0-.12091.01276-.1817.01837l-.871-1.742A.5011.5011,0,0,0,38.5,31.5h-5a.49878.49878,0,0,0-.44141.26562l-.92633,1.74775c-.04455-.003-.087-.01337-.13226-.01337a2.00764,2.00764,0,1,0,1.09558.33026L33.80078,32.5H35.5v4.071a2,2,0,1,0,1,0V32.5h1.69141l.67669,1.35413A1.99667,1.99667,0,1,0,40,33.5Zm-8,3a1,1,0,1,1,1-1A1.00067,1.00067,0,0,1,32,36.5Zm5,2a1,1,0,1,1-1-1A1.00067,1.00067,0,0,1,37,38.5Zm3-2a1,1,0,1,1,1-1A1.00067,1.00067,0,0,1,40,36.5Z"/></g></svg>