<svg xmlns="http://www.w3.org/2000/svg" viewBox="0 0 48 48"><defs><style>.cls-1{fill:#ff6c2c;}</style></defs><g id="Base_Icons" data-name="Base Icons"><path d="M19.333,30.94141H18a1.5,1.5,0,0,1,0-3h2a.5.5,0,0,0,0-1H18a2.5,2.5,0,0,0,0,5h1.333a1.5,1.5,0,1,1,0,3H16a.5.5,0,0,0,0,1h3.333a2.5,2.5,0,1,0,0-5Z"/><path d="M27.333,26.94141h-2.5a.49971.49971,0,0,0-.5.5v8a.5.5,0,0,0,1,0v-2.5h2a3,3,0,1,0,0-6Zm0,5h-2v-4h2a2,2,0,0,1,0,4Z"/><path d="M38,26.94141H33.333a.49971.49971,0,0,0-.5.5v8a.5.5,0,0,0,1,0v-3.5h2.834a.5.5,0,0,0,0-1H33.833v-3H38a.5.5,0,0,0,0-1Z"/><path d="M16.84961,21.05859a4.50028,4.50028,0,1,0,0-9H15.5a.49972.49972,0,0,0-.5.5v8a.49971.49971,0,0,0,.5.5Zm-.84961-8h.84961a3.50036,3.50036,0,1,1,0,7H16Z"/><path d="M32.875,12.55859a.5.5,0,0,0-1,0v8a.5.5,0,0,0,1,0Z"/><path d="M42.63965,12.07812a.50458.50458,0,0,0-.5625.2129L39.125,16.957l-2.95215-4.666a.50014.50014,0,0,0-.92285.26757v8a.5.5,0,0,0,1,0V14.28418l2.45215,3.876a.52077.52077,0,0,0,.8457,0L42,14.28418v6.27441a.5.5,0,0,0,1,0v-8A.50128.50128,0,0,0,42.63965,12.07812Z"/><path d="M24.77539,20.55859V17.63745l3.90137,3.303a.50028.50028,0,1,0,.64648-.76367l-4.274-3.61853,4.274-3.6178a.50028.50028,0,1,0-.64648-.76367l-3.90137,3.30371V12.55859a.5.5,0,0,0-1,0v8a.5.5,0,0,0,1,0Z"/></g><g id="Sub_Icons" data-name="Sub Icons"><path class="cls-1" d="M11.50977,13.7373,7.65253,18.3291,5.23828,16.02344a.50006.50006,0,1,0-.6914.72265l2.7998,2.67383.01483.00952.00958.012a.475.475,0,0,0,.095.05481.5328.5328,0,0,0,.05047.02917.48277.48277,0,0,0,.3761-.01025.48357.48357,0,0,0,.05493-.03785.473.473,0,0,0,.10608-.073c.0044-.00464.00556-.01075.00977-.01551l.01172-.00891,4.20019-5a.49977.49977,0,1,0-.76562-.64258Z"/><path class="cls-1" d="M11.50977,28.62012,7.69244,33.16431,5.27539,30.28613a.49977.49977,0,1,0-.76562.64258l2.7998,3.334c.009.01074.02216.01464.0318.02441.01135.01147.017.02637.02972.03711a.48157.48157,0,0,0,.07758.04468.46466.46466,0,0,0,.05444.03149.456.456,0,0,0,.37805,0,.48046.48046,0,0,0,.05555-.03174.49567.49567,0,0,0,.077-.04443c.0127-.01074.01837-.02564.02973-.03711.00964-.00977.02282-.01367.0318-.02441l4.20019-5a.49977.49977,0,1,0-.76562-.64258Z"/></g></svg>