<svg xmlns="http://www.w3.org/2000/svg" viewBox="0 0 48 48"><defs><style>.cls-1{fill:#ff6c2c;}</style></defs><g id="Base_Icons" data-name="Base Icons"><path d="M42.68457,27.793a1.4483,1.4483,0,0,1-.77148-1.43555,16.53241,16.53241,0,0,0,0-4.71484,1.4483,1.4483,0,0,1,.77148-1.43555A2.524,2.524,0,0,0,43.916,18.64551a2.44671,2.44671,0,0,0-.27149-1.91113L40.34961,11.248a2.6724,2.6724,0,0,0-3.5752-.91309,1.61346,1.61346,0,0,1-1.7207-.084A18.18631,18.18631,0,0,0,30.82227,7.8916a1.46565,1.46565,0,0,1-.91211-1.3584A2.57789,2.57789,0,0,0,27.2959,4H20.7041a2.57807,2.57807,0,0,0-2.61426,2.53418,1.46431,1.46431,0,0,1-.91211,1.35742A18.18631,18.18631,0,0,0,12.94629,10.251a1.61472,1.61472,0,0,1-1.73145.07714,2.67567,2.67567,0,0,0-3.56836.92676l-3.291,5.4795A2.44671,2.44671,0,0,0,4.084,18.64551,2.524,2.524,0,0,0,5.31543,20.207a1.4483,1.4483,0,0,1,.77148,1.43555,16.53241,16.53241,0,0,0,0,4.71484A1.4483,1.4483,0,0,1,5.31543,27.793,2.51879,2.51879,0,0,0,4.085,29.35254a2.45165,2.45165,0,0,0,.27051,1.91308L7.65039,36.752a2.67288,2.67288,0,0,0,3.5752.91309,1.606,1.606,0,0,1,1.7207.084,18.18631,18.18631,0,0,0,4.23144,2.35938,1.46565,1.46565,0,0,1,.91211,1.3584A2.57789,2.57789,0,0,0,20.7041,44h6.5918a2.57789,2.57789,0,0,0,2.61426-2.5332.5.5,0,0,0-1,0A1.57718,1.57718,0,0,1,27.2959,43H20.7041a1.578,1.578,0,0,1-1.61426-1.53418,2.44,2.44,0,0,0-1.54492-2.28711,17.236,17.236,0,0,1-3.999-2.23047,2.59807,2.59807,0,0,0-2.82227-.14746,1.658,1.658,0,0,1-2.21582-.56445L5.21289,30.75a1.45646,1.45646,0,0,1-.16211-1.1377,1.52686,1.52686,0,0,1,.749-.94433,2.45252,2.45252,0,0,0,1.27735-2.45313,15.4883,15.4883,0,0,1,0-4.42968A2.45252,2.45252,0,0,0,5.7998,19.332a1.53022,1.53022,0,0,1-.75-.94531A1.45449,1.45449,0,0,1,5.21289,17.25l3.291-5.48047a1.6685,1.6685,0,0,1,2.2373-.55957,2.59241,2.59241,0,0,0,2.80469-.1582,17.236,17.236,0,0,1,3.999-2.23047A2.44033,2.44033,0,0,0,19.08984,6.5332,1.57718,1.57718,0,0,1,20.7041,5h6.5918a1.578,1.578,0,0,1,1.61426,1.53418,2.44,2.44,0,0,0,1.54492,2.28711,17.236,17.236,0,0,1,3.999,2.23047,2.59807,2.59807,0,0,0,2.82227.14746,1.658,1.658,0,0,1,2.21582.56445L42.78711,17.25a1.45449,1.45449,0,0,1,.16309,1.13672,1.53022,1.53022,0,0,1-.75.94531,2.45252,2.45252,0,0,0-1.27735,2.45313,15.4883,15.4883,0,0,1,0,4.42968A2.45252,2.45252,0,0,0,42.2002,28.668a1.52686,1.52686,0,0,1,.749.94433,1.45646,1.45646,0,0,1-.16211,1.1377.50026.50026,0,1,0,.85742.51562,2.45165,2.45165,0,0,0,.27051-1.91308A2.51879,2.51879,0,0,0,42.68457,27.793Z"/><path d="M23.999,14.5A9.5067,9.5067,0,0,1,32.627,27.98633a9.70171,9.70171,0,0,1-.53027.9873.49979.49979,0,1,0,.85156.52344,10.74,10.74,0,0,0,.58594-1.08984,10.48988,10.48988,0,1,0-5.9248,5.45605.50018.50018,0,1,0-.34376-.93945A9.50113,9.50113,0,1,1,23.999,14.5Z"/></g><g id="Sub_Icons" data-name="Sub Icons"><path class="cls-1" d="M41.28418,32.96875a.50156.50156,0,0,0-.13239-.14941,1.58854,1.58854,0,0,0-.46234-.416l-3.88672-2.19141a1.62917,1.62917,0,0,0-1.60351-.001L31.30859,32.4043a1.58232,1.58232,0,0,0-.46057.41479.49977.49977,0,0,0-.1322.14966.47969.47969,0,0,0-.03369.10229,1.56974,1.56974,0,0,0-.18213.71509v4.38379a1.59379,1.59379,0,0,0,.81055,1.38281l3.88672,2.19141a1.60571,1.60571,0,0,0,.55206.179.44678.44678,0,0,0,.50085.00024,1.58038,1.58038,0,0,0,.5506-.17822l3.89063-2.19336A1.59327,1.59327,0,0,0,41.5,38.16992V33.78613a1.56914,1.56914,0,0,0-.18152-.71338A.47753.47753,0,0,0,41.28418,32.96875Zm-5.59277-1.8877a.62842.62842,0,0,1,.61914.001l3.6571,2.062L36,35.4082l-3.96777-2.26428Zm-3.88868,7.60157a.59412.59412,0,0,1-.30273-.5127V33.99231l4,2.28186v4.493Zm8.39649-.001L36.5,40.76709V36.27417l4-2.28186v4.17761A.59355.59355,0,0,1,40.19922,38.68164Z"/></g></svg>