<svg xmlns="http://www.w3.org/2000/svg" viewBox="0 0 48 48"><defs><style>.cls-1{fill:#ff6c2c;}</style></defs><g id="Base_Icons" data-name="Base Icons"><path d="M32.5,26a.49971.49971,0,0,0-.5-.5H23.5V15a.5.5,0,0,0-1,0V26a.49971.49971,0,0,0,.5.5h9A.49971.49971,0,0,0,32.5,26Z"/><path d="M29.35938,42.50977A19.04159,19.04159,0,0,1,24,43.27539a.5.5,0,0,0,0,1,20.02082,20.02082,0,0,0,5.64062-.80664.49968.49968,0,1,0-.28124-.959Z"/><path d="M36.198,8.43555h4.14184a.5.5,0,1,0,0-1H34.66016a.49971.49971,0,0,0-.5.5v5.67968a.5.5,0,1,0,1,0V8.90283a19.02378,19.02378,0,0,1,7.27832,19.977.4998.4998,0,0,0,.36523.60547.51125.51125,0,0,0,.12012.01465.50087.50087,0,0,0,.48535-.37988A20.01569,20.01569,0,0,0,36.198,8.43555Z"/><path d="M13.33984,34.43555a.49972.49972,0,0,0-.5.5v4.71338A18.99774,18.99774,0,0,1,24,5.27539a.5.5,0,0,0,0-1A19.99414,19.99414,0,0,0,11.80072,40.11523H7.66016a.5.5,0,1,0,0,1h5.67968a.49971.49971,0,0,0,.5-.5V34.93555A.49971.49971,0,0,0,13.33984,34.43555Z"/></g><g id="Sub_Icons" data-name="Sub Icons"><path class="cls-1" d="M40.5,32.50879h-.0166l-4.05078.0459a.56677.56677,0,0,1-.36914-.15723l-.40332-.42676a1.50726,1.50726,0,0,0-1.0918-.4707H31.501A1.50331,1.50331,0,0,0,30,33.001v5.998A1.50331,1.50331,0,0,0,31.501,40.5h8.99609A1.50414,1.50414,0,0,0,42,38.99707V34.00781a1.49867,1.49867,0,0,0-1.5-1.499Zm.5,6.48828a.50347.50347,0,0,1-.50293.50293H31.501A.50138.50138,0,0,1,31,38.999V33.001a.50138.50138,0,0,1,.501-.501h3.06738a.49858.49858,0,0,1,.36426.15723l.40429.42773a1.65226,1.65226,0,0,0,1.10645.46973l4.05176-.0459a.39518.39518,0,0,1,.35644.14453A.49566.49566,0,0,1,41,34.00781Z"/></g></svg>