<svg xmlns="http://www.w3.org/2000/svg" viewBox="0 0 48 48"><defs><style>.cls-1{fill:#ff6c2c;}</style></defs><g id="Base_Icons" data-name="Base Icons"><path d="M43.6582,13.52539a.50637.50637,0,0,0-.55859.17481L38.625,19.667,34.15039,13.7002A.5.5,0,0,0,33.25,14V27a.5.5,0,0,0,1,0V15.5l3.97461,5.2998a.51866.51866,0,0,0,.80078,0L43,15.5V27a.5.5,0,0,0,1,0V14A.501.501,0,0,0,43.6582,13.52539Z"/><path d="M24.26367,13.57812a.49668.49668,0,0,0-.68555.15821l-3.62536,5.80078L16.2959,13.73438a.49771.49771,0,1,0-.8418.53124l3.91278,6.20875-3.91376,6.262a.49629.49629,0,0,0,.15821.68555.49105.49105,0,0,0,.26367.07617.49625.49625,0,0,0,.42188-.23438L19.956,21.40918l3.62311,5.749a.49771.49771,0,1,0,.8418-.53125l-3.87909-6.15527,3.88007-6.208A.49629.49629,0,0,0,24.26367,13.57812Z"/><path d="M28.875,13.5a.49971.49971,0,0,0-.5.5V27a.5.5,0,0,0,1,0V14A.49971.49971,0,0,0,28.875,13.5Z"/><path d="M11.8125,14.5a.5.5,0,0,0,0-1H4.5A.49971.49971,0,0,0,4,14V27a.49971.49971,0,0,0,.5.5h7.3125a.5.5,0,0,0,0-1H5V21H8.5625a.5.5,0,0,0,0-1H5V14.5Z"/></g><g id="Sub_Icons" data-name="Sub Icons"><path class="cls-1" d="M41.96387,34.582a1.04234,1.04234,0,0,0-.11524-.81641L40.919,32.21875a1.08551,1.08551,0,0,0-1.40625-.4248c-.03028.01074-.15235.02539-.17969.041a7.45965,7.45965,0,0,0-1.30762-.76172A1.08567,1.08567,0,0,0,36.92969,30H35.07031a1.14287,1.14287,0,0,0-1.127,1.123,9.82442,9.82442,0,0,0-1.375.708,1.11469,1.11469,0,0,0-1.48828.38868l-.92871,1.54589a1.0447,1.0447,0,0,0-.11524.81739,1.184,1.184,0,0,0,.55567.70117A5.09248,5.09248,0,0,0,30.541,36c0,.24316.01757.48145.01562.75586a1.06586,1.06586,0,0,0-.52051.66113,1.0447,1.0447,0,0,0,.11524.81739l.92968,1.54687a1.08478,1.08478,0,0,0,1.40625.4248c.03028-.01074.15235-.02539.17969-.041a7.45965,7.45965,0,0,0,1.30762.76172A1.08567,1.08567,0,0,0,35.07031,42h1.85938a1.14287,1.14287,0,0,0,1.127-1.123A5.50691,5.50691,0,0,0,39.333,40.165l.10058.00586a1.11318,1.11318,0,0,0,1.48633-.39063l.92871-1.54589a1.0447,1.0447,0,0,0,.11524-.81739,1.06586,1.06586,0,0,0-.52051-.66113l-.24219.4375.207-.47754A5.09248,5.09248,0,0,0,41.459,36c0-.24316-.01757-.48145-.01464-.75586A1.06623,1.06623,0,0,0,41.96387,34.582ZM40.0625,39.26562a.11217.11217,0,0,1-.14844.02833,1.08729,1.08729,0,0,0-1.18066.07031,4.50847,4.50847,0,0,1-1.04492.583,1.0489,1.0489,0,0,0-.66309.97949A.08744.08744,0,0,1,36.92969,41H35.07031a.08846.08846,0,0,1-.0957-.07422,1.047,1.047,0,0,0-.66406-.97851,4.522,4.522,0,0,1-1.044-.583,1.06959,1.06959,0,0,0-.64062-.21094,1.11619,1.11619,0,0,0-.54493.14258.109.109,0,0,1-.14257-.0293L31.043,37.62988a1.04154,1.04154,0,0,0,.53906-1.05664,4.02012,4.02012,0,0,1,0-1.14551,1.21383,1.21383,0,0,0-.57324-1.14648l.92871-1.54687a.1173.1173,0,0,1,.14844-.02833,1.09136,1.09136,0,0,0,1.18066-.07031,4.50847,4.50847,0,0,1,1.04492-.583,1.0489,1.0489,0,0,0,.66309-.97949A.08744.08744,0,0,1,35.07031,31h1.85938a.08846.08846,0,0,1,.0957.07422,1.047,1.047,0,0,0,.66406.97851,4.522,4.522,0,0,1,1.044.583,1.09122,1.09122,0,0,0,1.18555.06836.10855.10855,0,0,1,.14257.0293l.89551,1.63672a1.04154,1.04154,0,0,0-.53906,1.05664,4.02012,4.02012,0,0,1,0,1.14551,1.04216,1.04216,0,0,0,.53906,1.05761l.03418.08887Z"/><path class="cls-1" d="M37.25,33.834a2.49982,2.49982,0,1,0,.915,3.416h.001A2.50612,2.50612,0,0,0,37.25,33.834Zm.0498,2.916a1.49962,1.49962,0,1,1-.5498-2.0498A1.50279,1.50279,0,0,1,37.2998,36.75Z"/></g></svg>