<svg xmlns="http://www.w3.org/2000/svg" viewBox="0 0 48 48"><defs><style>.cls-1{fill:#ff6c2c;}</style></defs><g id="Base_Icons" data-name="Base Icons"><path d="M41.3291,10.25781a2.126,2.126,0,0,0,.51074-2.36328A2.24619,2.24619,0,0,0,39.7373,6.5H8.2627a2.24676,2.24676,0,0,0-2.103,1.39551,2.10236,2.10236,0,0,0,.47705,2.32617L22.375,28.82617c.01074.0127.02246.02442.03418.03613a2.24188,2.24188,0,0,0,1.1029.57789A.46779.46779,0,0,0,23.5,29.5v12a.5.5,0,0,0,1,0v-12a.46962.46962,0,0,0-.01337-.06641,2.35166,2.35166,0,0,0,1.13837-.60742Zm-18.208,17.90137L7.36621,9.53906a1.12781,1.12781,0,0,1-.2793-1.26953A1.23571,1.23571,0,0,1,8.2627,7.5H39.7373a1.23571,1.23571,0,0,1,1.17579.76953,1.15576,1.15576,0,0,1-.31348,1.30567L24.89551,28.14355A1.2993,1.2993,0,0,1,23.12109,28.15918Z"/></g><g id="Sub_Icons" data-name="Sub Icons"><path class="cls-1" d="M36,29.5A6.5,6.5,0,1,0,42.5,36,6.50753,6.50753,0,0,0,36,29.5Zm5.47546,6.01514A.48341.48341,0,0,0,41.40039,35.5H39.48682A9.13365,9.13365,0,0,0,38.251,30.9873,5.50673,5.50673,0,0,1,41.47546,35.51514ZM36,41.5c-1.11926,0-2.34515-2.0354-2.47479-5h4.94958C38.34515,39.4646,37.11926,41.5,36,41.5Zm-2.47479-6c.12964-2.9646,1.35553-5,2.47479-5s2.34515,2.0354,2.47479,5Zm.22381-4.5127A9.13365,9.13365,0,0,0,32.51318,35.5H30.59961a.48341.48341,0,0,0-.07507.01514A5.50673,5.50673,0,0,1,33.749,30.9873Zm-3.22448,5.49756a.48341.48341,0,0,0,.07507.01514h1.91357A9.13365,9.13365,0,0,0,33.749,41.0127,5.50673,5.50673,0,0,1,30.52454,36.48486ZM38.251,41.0127A9.13365,9.13365,0,0,0,39.48682,36.5h1.91357a.48341.48341,0,0,0,.07507-.01514A5.50673,5.50673,0,0,1,38.251,41.0127Z"/></g></svg>