<svg xmlns="http://www.w3.org/2000/svg" viewBox="0 0 48 48"><defs><style>.cls-1{fill:#ff6c2c;}</style></defs><g id="Base_Icons" data-name="Base Icons"><path d="M13.5,24.5h.56573l-.48175.72266a.5.5,0,1,0,.832.55468l.584-.876.584.876a.5.5,0,0,0,.832-.55468L15.93427,24.5H16.5a.5.5,0,0,0,0-1h-1v-1a.5.5,0,0,0-1,0v1h-1a.5.5,0,0,0,0,1Z"/><path d="M21,22a.49971.49971,0,0,0-.5.5v1h-1a.5.5,0,0,0,0,1h.56573l-.48175.72266a.5.5,0,1,0,.832.55468l.584-.876.584.876a.5.5,0,0,0,.832-.55468L21.93427,24.5H22.5a.5.5,0,0,0,0-1h-1v-1A.49971.49971,0,0,0,21,22Z"/><path d="M28.5,23.5h-1v-1a.5.5,0,0,0-1,0v1h-1a.5.5,0,0,0,0,1h.56573l-.48175.72266a.5.5,0,1,0,.832.55468l.584-.876.584.876a.5.5,0,0,0,.832-.55468L27.93427,24.5H28.5a.5.5,0,0,0,0-1Z"/><path d="M34.5,25h-3a.5.5,0,0,0,0,1h3a.5.5,0,0,0,0-1Z"/><path d="M41.5,10H13.72266a.5.5,0,1,0,0,1H41.5a.501.501,0,0,1,.5.5v20a.5.5,0,0,0,1,0v-20A1.50164,1.50164,0,0,0,41.5,10Z"/><path d="M26.68555,37H6.5a.501.501,0,0,1-.5-.5V14.5498a.5.5,0,1,0-1,0V36.5A1.50164,1.50164,0,0,0,6.5,38H26.68555a.5.5,0,1,0,0-1Z"/><path d="M5.14941,10.84961A.47.47,0,0,0,5.5,11a.482.482,0,0,0,.34961-.15039A.35936.35936,0,0,0,5.96,10.68945.40093.40093,0,0,0,6,10.5a.47.47,0,0,0-.15039-.35059A.34975.34975,0,0,0,5.68945,10.04a.48829.48829,0,0,0-.54.10937.35491.35491,0,0,0-.10937.16016.47053.47053,0,0,0,0,.37988A.34975.34975,0,0,0,5.14941,10.84961Z"/><path d="M7.88965,10.84961A.36479.36479,0,0,0,8.0498,10.96a.4287.4287,0,0,0,.19043.04.46638.46638,0,0,0,.34961-.15039.3593.3593,0,0,0,.11036-.16016.41308.41308,0,0,0,.04-.18945.47365.47365,0,0,0-.15039-.35059A.34978.34978,0,0,0,8.42969,10.04a.50157.50157,0,0,0-.37989,0,.52375.52375,0,0,0-.26953.26953.47053.47053,0,0,0,0,.37988A.3497.3497,0,0,0,7.88965,10.84961Z"/><path d="M10.62988,10.84961A.482.482,0,0,0,10.97949,11a.40489.40489,0,0,0,.19043-.04.36482.36482,0,0,0,.16016-.11035.34975.34975,0,0,0,.10937-.16016.47053.47053,0,0,0,0-.37988.52365.52365,0,0,0-.26953-.26953.49507.49507,0,0,0-.54.10937.36482.36482,0,0,0-.11035.16016.47053.47053,0,0,0,0,.37988A.35936.35936,0,0,0,10.62988,10.84961Z"/></g><g id="Sub_Icons" data-name="Sub Icons"><path class="cls-1" d="M33,33a3,3,0,1,0,3-3A3.00328,3.00328,0,0,0,33,33Zm3-2a2,2,0,1,1-2,2A2.0026,2.0026,0,0,1,36,31Z"/><path class="cls-1" d="M41.5,38a.49971.49971,0,0,0-.5.5v2.001a.49929.49929,0,0,1-.499.499H31.499A.49929.49929,0,0,1,31,40.501V38.5a.5.5,0,0,0-1,0v2.001A1.50122,1.50122,0,0,0,31.499,42h9.002A1.50122,1.50122,0,0,0,42,40.501V38.5A.49971.49971,0,0,0,41.5,38Z"/></g></svg>