<svg xmlns="http://www.w3.org/2000/svg" viewBox="0 0 48 48"><defs><style>.cls-1{fill:#ff6c2c;}</style></defs><g id="Base_Icons" data-name="Base Icons"><path d="M42,8.50293A1.50446,1.50446,0,0,0,40.49707,7H7.50146A1.50331,1.50331,0,0,0,6,8.502V22.49707a1.49075,1.49075,0,0,0,.38971,1.00049A1.484,1.484,0,0,0,6,24.49512V38.50293A1.49883,1.49883,0,0,0,7.49707,40H27a.5.5,0,0,0,0-1H7.49707A.49752.49752,0,0,1,7,38.50293v-13.998A.50554.50554,0,0,1,7.50488,24H40.49512A.50554.50554,0,0,1,41,24.50488V28a.5.5,0,0,0,1,0V24.50488l-.00067-.00659L42,24.49512a1.48381,1.48381,0,0,0-.38995-.99781A1.49268,1.49268,0,0,0,42,22.49609ZM7.50488,23H7.50342A.50357.50357,0,0,1,7,22.49707V8.502A.50264.50264,0,0,1,7.50146,8H40.49707A.50347.50347,0,0,1,41,8.50293V22.49609A.50378.50378,0,0,1,40.49658,23H7.50488Z"/><path d="M10.5,12.5a.49971.49971,0,0,0-.5.5v5a.5.5,0,0,0,1,0V13A.49971.49971,0,0,0,10.5,12.5Z"/><path d="M10,29v5a.5.5,0,0,0,1,0V29a.5.5,0,0,0-1,0Z"/><path d="M14,29v5a.5.5,0,0,0,1,0V29a.5.5,0,0,0-1,0Z"/></g><g id="Sub_Icons" data-name="Sub Icons"><path class="cls-1" d="M36,30a6.00317,6.00317,0,1,0,6,6A6.00657,6.00657,0,0,0,36,30Zm4.85107,7.21484A5.0032,5.0032,0,1,1,41,36,5.01148,5.01148,0,0,1,40.85107,37.21484Z"/><path class="cls-1" d="M37.85352,34.14648a.49983.49983,0,0,0-.707,0L36,35.293l-1.14648-1.14649a.5.5,0,0,0-.707.707L35.293,36l-1.14649,1.14648a.5.5,0,1,0,.707.707L36,36.707l1.14648,1.14649a.5.5,0,0,0,.707-.707L36.707,36l1.14649-1.14648A.49983.49983,0,0,0,37.85352,34.14648Z"/></g></svg>