<svg xmlns="http://www.w3.org/2000/svg" viewBox="0 0 48 48"><defs><style>.cls-1{fill:#ff6c2c;}</style></defs><g id="Base_Icons" data-name="Base Icons"><path d="M10.49963,18.5a.49971.49971,0,0,0,.5-.5V13a.5.5,0,0,0-1,0v5A.49971.49971,0,0,0,10.49963,18.5Z"/><path d="M17.99963,39H7.4967a.49721.49721,0,0,1-.49707-.49707v-13.998A.50554.50554,0,0,1,7.50451,24H40.49475a.50554.50554,0,0,1,.50488.50488V30a.5.5,0,0,0,1,0V24.50488l-.00067-.00659.00067-.00317a1.48317,1.48317,0,0,0-.38983-.99756,1.49327,1.49327,0,0,0,.38983-1.00147V8.50293A1.50393,1.50393,0,0,0,40.49768,7H7.50158A1.50373,1.50373,0,0,0,5.99963,8.502V22.49707a1.49085,1.49085,0,0,0,.38989,1.00049,1.48265,1.48265,0,0,0-.38989.99756V38.50293A1.49914,1.49914,0,0,0,7.4967,40H17.99963a.5.5,0,0,0,0-1Zm-11-30.498A.503.503,0,0,1,7.50158,8h32.9961a.50326.50326,0,0,1,.502.50293V22.49609A.50368.50368,0,0,1,40.4967,23H7.50353a.50367.50367,0,0,1-.5039-.50293Z"/><path d="M9.99963,29v5a.5.5,0,0,0,1,0V29a.5.5,0,0,0-1,0Z"/></g><g id="Sub_Icons" data-name="Sub Icons"><path class="cls-1" d="M26.16662,34h-4.667a.49971.49971,0,0,0-.5.5v7a.5.5,0,0,0,1,0v-3h3a.5.5,0,0,0,0-1h-3V35h4.167a.5.5,0,0,0,0-1Z"/><path class="cls-1" d="M40.16662,34h-2.333a.49972.49972,0,0,0-.5.5v7a.5.5,0,0,0,1,0V39.667h1.833a2.8335,2.8335,0,0,0,0-5.667Zm0,4.667h-1.833V35h1.833a1.8335,1.8335,0,0,1,0,3.667Z"/><path class="cls-1" d="M34.91662,34h-5.833a.5.5,0,0,0,0,1h2.416v6.5a.5.5,0,0,0,1,0V35h2.417a.5.5,0,0,0,0-1Z"/></g></svg>