<svg xmlns="http://www.w3.org/2000/svg" viewBox="0 0 48 48"><defs><style>.cls-1{fill:#ff6c2c;}</style></defs><g id="Base_Icons" data-name="Base Icons"><path d="M24,6c-1.26953,0-2.53223.06152-3.752.18164a.50122.50122,0,0,0-.44922.54688.50928.50928,0,0,0,.54687.44921C21.53418,7.05957,22.76367,7,24,7c9.21484,0,17,3.43457,17,7.5S33.21484,22,24,22c-5.51855,0-10.72754-1.21484-13.93652-3.248a.49958.49958,0,1,0-.53516.84375C12.88965,21.72754,18.2998,23,24,23c7.98572,0,14.58466-2.34106,17-5.67761V24.167a4.34712,4.34712,0,0,1-1.59961,3.13379.49951.49951,0,1,0,.68359.72852,5.73685,5.73685,0,0,0,1.84107-3.11658A.48678.48678,0,0,0,42,24.665V14.5C42,9.7334,34.09375,6,24,6Z"/><path d="M24,32.667c1.1416,0,2.28613-.0498,3.40039-.14941a.50012.50012,0,0,0,.4541-.542.516.516,0,0,0-.542-.45411C26.22656,31.61816,25.1123,31.667,24,31.667c-9.21484,0-17-3.43457-17-7.5v-.66015a.5.5,0,0,0-1,0V33.5C6,38.2666,13.90625,42,24,42c1.1377,0,2.28223-.0498,3.40039-.14844a.49954.49954,0,0,0,.4541-.542.50635.50635,0,0,0-.542-.4541C26.22363,40.95117,25.1084,41,24,41c-9.21484,0-17-3.43457-17-7.5V26.98938C9.41534,30.32593,16.01428,32.667,24,32.667Z"/></g><g id="Sub_Icons" data-name="Sub Icons"><path class="cls-1" d="M6.5,16.5A.49971.49971,0,0,0,7,16V13.5H9.5a.5.5,0,0,0,0-1H7v-2h3.5a.5.5,0,0,0,0-1h-4A.49971.49971,0,0,0,6,10v6A.49971.49971,0,0,0,6.5,16.5Z"/><path class="cls-1" d="M21,16V14.5h1.5a2.5,2.5,0,0,0,0-5h-2a.49971.49971,0,0,0-.5.5v6a.5.5,0,0,0,1,0Zm1.5-5.5a1.5,1.5,0,0,1,0,3H21v-3Z"/><path class="cls-1" d="M13,10.5h2V16a.5.5,0,0,0,1,0V10.5h2a.5.5,0,0,0,0-1H13a.5.5,0,0,0,0,1Z"/><path class="cls-1" d="M41.96387,34.582a1.04234,1.04234,0,0,0-.11524-.81641L40.919,32.21875a1.08478,1.08478,0,0,0-1.40625-.4248c-.03028.01074-.15235.02539-.17969.041a7.45965,7.45965,0,0,0-1.30762-.76172A1.08567,1.08567,0,0,0,36.92969,30H35.07031a1.14287,1.14287,0,0,0-1.127,1.123,9.82442,9.82442,0,0,0-1.375.708,1.11376,1.11376,0,0,0-1.48828.38868l-.92871,1.54589a1.0447,1.0447,0,0,0-.11524.81739,1.184,1.184,0,0,0,.55567.70117A5.09248,5.09248,0,0,0,30.541,36c0,.24316.01757.48145.01562.75586a1.06586,1.06586,0,0,0-.52051.66113,1.0447,1.0447,0,0,0,.11524.81739l.92968,1.54687a1.08577,1.08577,0,0,0,1.40625.4248c.03028-.01074.15235-.02539.17969-.041a7.45965,7.45965,0,0,0,1.30762.76172A1.08567,1.08567,0,0,0,35.07031,42h1.85938a1.14287,1.14287,0,0,0,1.127-1.123A5.50691,5.50691,0,0,0,39.333,40.165l.10058.00586a1.11367,1.11367,0,0,0,1.48633-.39063l.92871-1.54589a1.0447,1.0447,0,0,0,.11524-.81739,1.06586,1.06586,0,0,0-.52051-.66113l-.24219.4375.207-.47754A5.09248,5.09248,0,0,0,41.459,36c0-.24316-.01757-.48145-.01464-.75586A1.06623,1.06623,0,0,0,41.96387,34.582Zm-1.90139,4.68359a.11214.11214,0,0,1-.14842.02833,1.08729,1.08729,0,0,0-1.18066.07031,4.50888,4.50888,0,0,1-1.04492.583,1.0489,1.0489,0,0,0-.66309.97949A.08744.08744,0,0,1,36.92969,41H35.07031a.08846.08846,0,0,1-.0957-.07422,1.047,1.047,0,0,0-.66406-.97851,4.52161,4.52161,0,0,1-1.044-.583,1.06959,1.06959,0,0,0-.64062-.21094,1.11619,1.11619,0,0,0-.54493.14258.11009.11009,0,0,1-.14257-.0293L31.043,37.62988a1.04154,1.04154,0,0,0,.53906-1.05664,4.02012,4.02012,0,0,1,0-1.14551,1.21383,1.21383,0,0,0-.57324-1.14648l.92869-1.54687a.11733.11733,0,0,1,.14846-.02833,1.09148,1.09148,0,0,0,1.18066-.07031,4.50806,4.50806,0,0,1,1.04492-.583,1.0489,1.0489,0,0,0,.66309-.97949A.08744.08744,0,0,1,35.07031,31h1.85938a.08846.08846,0,0,1,.0957.07422,1.047,1.047,0,0,0,.66406.97851,4.52244,4.52244,0,0,1,1.044.583,1.09134,1.09134,0,0,0,1.18555.06836.10755.10755,0,0,1,.14257.0293l.89551,1.63672a1.04154,1.04154,0,0,0-.53906,1.05664,4.02012,4.02012,0,0,1,0,1.14551,1.04216,1.04216,0,0,0,.53906,1.05761l.03418.08887Z"/><path class="cls-1" d="M37.25,33.834a2.49982,2.49982,0,1,0,.915,3.416h.001A2.50612,2.50612,0,0,0,37.25,33.834Zm.0498,2.916a1.49962,1.49962,0,1,1-.5498-2.0498A1.50365,1.50365,0,0,1,37.2998,36.75Z"/></g></svg>