<svg xmlns="http://www.w3.org/2000/svg" viewBox="0 0 48 48"><defs><style>.cls-1{fill:#ff6c2c;}</style></defs><g id="Base_Icons" data-name="Base Icons"><path d="M24,3a21,21,0,1,0,6.21582,41.06445.49993.49993,0,0,0-.2959-.95507A19.97787,19.97787,0,1,1,43.05371,30.09766a.49986.49986,0,1,0,.95215.30468A21.01517,21.01517,0,0,0,24,3Z"/><path d="M32.5,23.5h-8v-8a.5.5,0,0,0-1,0v8h-8a.5.5,0,0,0,0,1h8v8a.5.5,0,0,0,1,0v-8h8a.5.5,0,0,0,0-1Z"/></g><g id="Sub_Icons" data-name="Sub Icons"><path class="cls-1" d="M37,30a3.49484,3.49484,0,0,0-2.49792,5.94434l-.99378,5.46582a.49986.49986,0,0,0,.769.50586L37,40.10059,39.72266,41.916a.49986.49986,0,0,0,.769-.50586l-.99378-5.46582A3.49484,3.49484,0,0,0,37,30Zm0,1a2.5,2.5,0,1,1-2.5,2.5A2.50263,2.50263,0,0,1,37,31Zm.27734,8.084a.50238.50238,0,0,0-.55468,0l-2.02,1.34668L35.4,36.59448a3.35936,3.35936,0,0,0,3.20008,0l.69732,3.83618Z"/></g></svg>