<svg xmlns="http://www.w3.org/2000/svg" viewBox="0 0 48 48"><defs><style>.cls-1{fill:#ff6c2c;}</style></defs><g id="Base_Icons" data-name="Base Icons"><path d="M24,3.5a20.5,20.5,0,0,0,0,41,6.225,6.225,0,0,0,3.63379-1.23828.50019.50019,0,1,0-.57813-.81641A5.24132,5.24132,0,0,1,24,43.5c-4.03528,0-7.48193-5.20038-8.85638-12.5h13.706a.5.5,0,0,0,0-1H14.9649a38.95045,38.95045,0,0,1,0-12H33.0351A38.52158,38.52158,0,0,1,33.5,24c0,1.19141-.05273,2.38281-.1582,3.54a.50083.50083,0,0,0,.45312.543.517.517,0,0,0,.543-.45313C34.44531,26.44336,34.5,25.22168,34.5,24a38.744,38.744,0,0,0-.46106-6h8.50665A19.40554,19.40554,0,0,1,43.5,24a19.62666,19.62666,0,0,1-.5332,4.54883.5.5,0,1,0,.97265.23242A20.518,20.518,0,0,0,24,3.5ZM20.25842,4.86884C17.42572,6.98822,15.18561,11.42816,14.14386,17H5.82117A19.54927,19.54927,0,0,1,20.25842,4.86884Zm0,38.26232A19.54927,19.54927,0,0,1,5.82117,31h8.32269C15.18561,36.57184,17.42572,41.01178,20.25842,43.13116ZM13.96106,30H5.45441a19.337,19.337,0,0,1,0-12h8.50665a39.271,39.271,0,0,0,0,12Zm1.18256-13C16.518,9.70038,19.96472,4.5,24,4.5S31.482,9.70038,32.85638,17Zm18.71252,0c-1.04175-5.57184-3.28186-10.01178-6.11456-12.13116A19.54936,19.54936,0,0,1,42.17889,17Z"/></g><g id="Sub_Icons" data-name="Sub Icons"><path class="cls-1" d="M41.96387,34.582a1.04234,1.04234,0,0,0-.11524-.81641L40.919,32.21875a1.08452,1.08452,0,0,0-1.40625-.4248c-.03028.01074-.15235.02539-.17969.041a7.45965,7.45965,0,0,0-1.30762-.76172A1.08567,1.08567,0,0,0,36.92969,30H35.07031a1.14287,1.14287,0,0,0-1.127,1.123,9.82442,9.82442,0,0,0-1.375.708,1.11351,1.11351,0,0,0-1.48828.38868l-.92871,1.54589a1.0447,1.0447,0,0,0-.11524.81739,1.184,1.184,0,0,0,.55567.70117A5.09248,5.09248,0,0,0,30.541,36c0,.24316.01757.48145.01562.75586a1.06586,1.06586,0,0,0-.52051.66113,1.0447,1.0447,0,0,0,.11524.81739l.92968,1.54687a1.08577,1.08577,0,0,0,1.40625.4248c.03028-.01074.15235-.02539.17969-.041a7.45965,7.45965,0,0,0,1.30762.76172A1.08567,1.08567,0,0,0,35.07031,42h1.85938a1.14287,1.14287,0,0,0,1.127-1.123A5.50691,5.50691,0,0,0,39.333,40.165l.10058.00586a1.11367,1.11367,0,0,0,1.48633-.39063l.92871-1.54589a1.0447,1.0447,0,0,0,.11524-.81739,1.06586,1.06586,0,0,0-.52051-.66113l-.24219.4375.207-.47754A5.09248,5.09248,0,0,0,41.459,36c0-.24316-.01757-.48145-.01464-.75586A1.06623,1.06623,0,0,0,41.96387,34.582Zm-1.90139,4.68359a.11239.11239,0,0,1-.14842.02833,1.08729,1.08729,0,0,0-1.18066.07031,4.50888,4.50888,0,0,1-1.04492.583,1.0489,1.0489,0,0,0-.66309.97949A.08744.08744,0,0,1,36.92969,41H35.07031a.08846.08846,0,0,1-.0957-.07422,1.047,1.047,0,0,0-.66406-.97851,4.52161,4.52161,0,0,1-1.044-.583,1.06959,1.06959,0,0,0-.64062-.21094,1.11619,1.11619,0,0,0-.54493.14258.10979.10979,0,0,1-.14257-.0293L31.043,37.62988a1.04154,1.04154,0,0,0,.53906-1.05664,4.02012,4.02012,0,0,1,0-1.14551,1.21383,1.21383,0,0,0-.57324-1.14648l.92869-1.54687a.11763.11763,0,0,1,.14846-.02833,1.09148,1.09148,0,0,0,1.18066-.07031,4.50806,4.50806,0,0,1,1.04492-.583,1.0489,1.0489,0,0,0,.66309-.97949A.08744.08744,0,0,1,35.07031,31h1.85938a.08846.08846,0,0,1,.0957.07422,1.047,1.047,0,0,0,.66406.97851,4.52244,4.52244,0,0,1,1.044.583,1.09134,1.09134,0,0,0,1.18555.06836.10781.10781,0,0,1,.14257.0293l.89551,1.63672a1.04154,1.04154,0,0,0-.53906,1.05664,4.02012,4.02012,0,0,1,0,1.14551,1.04216,1.04216,0,0,0,.53906,1.05761l.03418.08887Z"/><path class="cls-1" d="M37.25,33.834a2.49982,2.49982,0,1,0,.915,3.416h.001A2.50612,2.50612,0,0,0,37.25,33.834Zm.0498,2.916a1.49962,1.49962,0,1,1-.5498-2.0498A1.50365,1.50365,0,0,1,37.2998,36.75Z"/></g></svg>