<svg xmlns="http://www.w3.org/2000/svg" viewBox="0 0 48 48"><defs><style>.cls-1{fill:#ff6c2c;}</style></defs><g id="Base_Icons" data-name="Base Icons"><path d="M42,8.50293A1.50414,1.50414,0,0,0,40.49707,7H7.502A1.50373,1.50373,0,0,0,6,8.502V22.49707a1.491,1.491,0,0,0,.38965,1.00049A1.48424,1.48424,0,0,0,6,24.49512V38.50293A1.49883,1.49883,0,0,0,7.49707,40H27a.5.5,0,0,0,0-1H7.49707A.49722.49722,0,0,1,7,38.50293v-13.998A.50554.50554,0,0,1,7.50488,24H40.49512A.50554.50554,0,0,1,41,24.50488V28a.5.5,0,0,0,1,0V24.50488l-.00067-.00659L42,24.49512a1.48363,1.48363,0,0,0-.39-.99793,1.49242,1.49242,0,0,0,.39-1.0011ZM7.50488,23H7.50293A.50347.50347,0,0,1,7,22.49707V8.502A.50305.50305,0,0,1,7.502,8H40.49707A.50347.50347,0,0,1,41,8.50293V22.49609A.50389.50389,0,0,1,40.49609,23H7.50488Z"/><path d="M10.5,12.5a.49971.49971,0,0,0-.5.5v5a.5.5,0,0,0,1,0V13A.49971.49971,0,0,0,10.5,12.5Z"/><path d="M10,29v5a.5.5,0,0,0,1,0V29a.5.5,0,0,0-1,0Z"/><path d="M14,29v5a.5.5,0,0,0,1,0V29a.5.5,0,0,0-1,0Z"/></g><g id="Sub_Icons" data-name="Sub Icons"><path class="cls-1" d="M38.14648,34.14648,35.5,36.793l-1.64648-1.64649a.5.5,0,0,0-.707.707l2,2a.49984.49984,0,0,0,.707,0l3-3a.5.5,0,0,0-.707-.707Z"/><path class="cls-1" d="M36,30a6,6,0,1,0,6,6A6.00657,6.00657,0,0,0,36,30Zm0,11a5,5,0,1,1,5-5A5.00588,5.00588,0,0,1,36,41Z"/></g></svg>