<svg xmlns="http://www.w3.org/2000/svg" viewBox="0 0 48 48"><defs><style>.cls-1{fill:#ff6c2c;}</style></defs><g id="Base_Icons" data-name="Base Icons"><path d="M17.84576,24.20129a1.75022,1.75022,0,0,1,1.01551-.30194h1.6792a1.39378,1.39378,0,0,0,.81561-.24432,1.219,1.219,0,0,0,.4798-.64691l.55975-1.92627H18.78131a5.11729,5.11729,0,0,0-1.53528.23,4.99273,4.99273,0,0,0-1.33539.63965,4.41736,4.41736,0,0,0-1.03955.99194,4.01222,4.01222,0,0,0-.64764,1.27216l-.064.21557a3.78217,3.78217,0,0,0-.0559,1.96228,4.04914,4.04914,0,0,0,.87152,1.70337,4.70245,4.70245,0,0,0,1.6073,1.20032,4.93687,4.93687,0,0,0,2.119.45282H19.8208l.63971-2.12756a.46074.46074,0,0,0-.10394-.46717.60128.60128,0,0,0-.47174-.20843H18.86127a1.84793,1.84793,0,0,1-.76764-.158,1.58786,1.58786,0,0,1-.57575-.4242,1.5124,1.5124,0,0,1-.31183-.6109,1.3777,1.3777,0,0,1,.02393-.73309A1.5838,1.5838,0,0,1,17.84576,24.20129Z"/><path d="M32.095,26.0556a4.40764,4.40764,0,0,0,1.03162-.999,4.1154,4.1154,0,0,0,.63971-1.27222l.0639-.21563a3.62521,3.62521,0,0,0,.064-1.96216,4.13617,4.13617,0,0,0-.87964-1.70343,4.70823,4.70823,0,0,0-1.60712-1.20026,4.937,4.937,0,0,0-2.119-.45288H25.94592a1.39358,1.39358,0,0,0-.81561.24432,1.21848,1.21848,0,0,0-.4798.64692L21.49994,29.75h2.223a1.36781,1.36781,0,0,0,.79962-.24438,1.223,1.223,0,0,0,.4798-.63245l2.3349-7.80567h1.7912a1.78544,1.78544,0,0,1,.76758.16529,1.67029,1.67029,0,0,1,.5758.43127,1.52248,1.52248,0,0,1,.31171.6109,1.273,1.273,0,0,1-.02393.70447,1.46816,1.46816,0,0,1-.59973.81934,1.76589,1.76589,0,0,1-1.03143.31622h-.92767a1.39408,1.39408,0,0,0-.81556.24439,1.22047,1.22047,0,0,0-.47979.63256l-.57575,1.94062H29.2243a5.1133,5.1133,0,0,0,1.53534-.23A4.85962,4.85962,0,0,0,32.095,26.0556Z"/><path d="M41.5,10H13.72266a.5.5,0,1,0,0,1H41.5a.501.501,0,0,1,.5.5v17a.5.5,0,0,0,1,0v-17A1.50164,1.50164,0,0,0,41.5,10Z"/><path d="M26.68555,37H6.50049A.50107.50107,0,0,1,6,36.5V14.5498a.5.5,0,1,0-1,0V36.5A1.50206,1.50206,0,0,0,6.50049,38H26.68555a.5.5,0,1,0,0-1Z"/><path d="M5.1499,10.84961a.36207.36207,0,0,0,.16016.11035A.40041.40041,0,0,0,5.5,11a.4664.4664,0,0,0,.34961-.15039A.35172.35172,0,0,0,5.96,10.68945.40679.40679,0,0,0,6,10.5a.47183.47183,0,0,0-.15039-.35059.50172.50172,0,0,0-.69971,0A.47136.47136,0,0,0,5,10.5a.40093.40093,0,0,0,.04.18945A.35074.35074,0,0,0,5.1499,10.84961Z"/><path d="M7.88965,10.84961a.48269.48269,0,0,0,.70019,0,.3593.3593,0,0,0,.11036-.16016.41308.41308,0,0,0,.04-.18945.47365.47365,0,0,0-.15039-.35059.49507.49507,0,0,0-.54-.10937.35488.35488,0,0,0-.16015.10937A.47271.47271,0,0,0,7.74023,10.5a.40093.40093,0,0,0,.04.18945A.3497.3497,0,0,0,7.88965,10.84961Z"/><path d="M10.62988,10.84961A.42265.42265,0,0,0,10.79,10.96a.42732.42732,0,0,0,.18945.04.40489.40489,0,0,0,.19043-.04.36482.36482,0,0,0,.16016-.11035A.4542.4542,0,0,0,11.47949,10.5a.4727.4727,0,0,0-.14941-.35059.50236.50236,0,0,0-.7002,0,.47365.47365,0,0,0-.15039.35059.413.413,0,0,0,.04.18945A.35936.35936,0,0,0,10.62988,10.84961Z"/></g><g id="Sub_Icons" data-name="Sub Icons"><path class="cls-1" d="M36,30a5.98034,5.98034,0,0,0-4.23077,1.75024l-.01142.00757-.00757.01142a5.99686,5.99686,0,0,0,8.48719,8.47448l.00378-.0025.0025-.00378A5.99707,5.99707,0,0,0,36,30Zm3.85352,9.14648L38.79333,38.0863a3.433,3.433,0,0,0,0-4.1726l1.06019-1.06018a4.891,4.891,0,0,1,0,6.293ZM33.5,36A2.5,2.5,0,1,1,36,38.5,2.50231,2.50231,0,0,1,33.5,36Zm5.64648-3.85352L38.0863,33.20667a3.433,3.433,0,0,0-4.1726,0l-1.06018-1.06019a4.891,4.891,0,0,1,6.293,0ZM31,36a4.95086,4.95086,0,0,1,1.14648-3.14648l1.06019,1.06018a3.433,3.433,0,0,0,0,4.1726l-1.06019,1.06018A4.95086,4.95086,0,0,1,31,36Zm1.85352,3.85352,1.06018-1.06019a3.433,3.433,0,0,0,4.1726,0l1.06018,1.06019a4.891,4.891,0,0,1-6.293,0Z"/></g></svg>