<svg xmlns="http://www.w3.org/2000/svg" viewBox="0 0 48 48"><defs><style>.cls-1{fill:#ff6c2c;}</style></defs><g id="Base_Icons" data-name="Base Icons"><path d="M27.5,12H6.5a.5.5,0,0,1,0-1h21a.5.5,0,0,1,0,1Z"/><path d="M38.25,15.5h-3.5a2.25309,2.25309,0,0,1-2.25-2.25V9.75A2.25309,2.25309,0,0,1,34.75,7.5h3.5A2.25309,2.25309,0,0,1,40.5,9.75v3.5A2.25309,2.25309,0,0,1,38.25,15.5Zm-3.5-7A1.25116,1.25116,0,0,0,33.5,9.75v3.5a1.25116,1.25116,0,0,0,1.25,1.25h3.5a1.25116,1.25116,0,0,0,1.25-1.25V9.75A1.25116,1.25116,0,0,0,38.25,8.5Z"/><path d="M27.5,25H6.5a.5.5,0,0,1,0-1h21a.5.5,0,0,1,0,1Z"/><path d="M38.25,28.5h-3.5a2.25309,2.25309,0,0,1-2.25-2.25v-3.5a2.25309,2.25309,0,0,1,2.25-2.25h3.5a2.25309,2.25309,0,0,1,2.25,2.25v3.5A2.25309,2.25309,0,0,1,38.25,28.5Zm-3.5-7a1.25116,1.25116,0,0,0-1.25,1.25v3.5a1.25116,1.25116,0,0,0,1.25,1.25h3.5a1.25116,1.25116,0,0,0,1.25-1.25v-3.5a1.25116,1.25116,0,0,0-1.25-1.25Z"/><path d="M27.5,38H6.5a.5.5,0,0,1,0-1h21a.5.5,0,0,1,0,1Z"/></g><g id="Sub_Icons" data-name="Sub Icons"><path class="cls-1" d="M35.25,41.5a.50119.50119,0,0,1-.39355-.19141l-2.75-3.5a.50011.50011,0,1,1,.7871-.61718l2.34766,2.9873,4.8584-6.47851a.50019.50019,0,0,1,.80078.5996l-5.25,7a.50006.50006,0,0,1-.39453.2002Z"/></g></svg>