<svg xmlns="http://www.w3.org/2000/svg" viewBox="0 0 32 32"><defs><style>.cls-1{fill:#ff6c2c;}</style></defs><g id="Category_Icons" data-name="Category Icons"><path class="cls-1" d="M26.34277,18.53906l-.03515-.10644a4.99142,4.99142,0,0,0-.23731-.59668l-.04443-.09375-.05322-1.668-1.04688-1.04688-1.66748-.05371-.09326-.04394a5.072,5.072,0,0,0-.59766-.23731l-.10693-.03515L21.23828,13.5H19.76172l-1.22217,1.15723-.10693.03515a5.072,5.072,0,0,0-.59766.23731l-.09326.04394-1.66748.05371-1.04688,1.04688-.05322,1.668-.04443.09375a4.99142,4.99142,0,0,0-.23731.59668l-.03515.10644L13.5,19.76172v1.47656l1.15723,1.22266.03515.10644a4.99142,4.99142,0,0,0,.23731.59668l.04443.09375.05322,1.668,1.04688,1.04688,1.66748.05371.09326.04394a5.072,5.072,0,0,0,.59766.23731l.10693.03515L19.76172,27.5h1.47656l1.22217-1.15723.10693-.03515a5.072,5.072,0,0,0,.59766-.23731l.09326-.04394,1.66748-.05371,1.04688-1.04688.05322-1.668.04443-.09375a4.99142,4.99142,0,0,0,.23731-.59668l.03515-.10644L27.5,21.23828V19.76172ZM20.5,24A3.5,3.5,0,1,1,24,20.5,3.5,3.5,0,0,1,20.5,24Z"/><path d="M10.5,22H6.64111a1.71845,1.71845,0,0,1-1.30664-.58984,1.3637,1.3637,0,0,1-.31445-1.125c.519-2.96094,3.043-4.75293,7.29883-5.18164a.49347.49347,0,0,1,.54785.44726.49938.49938,0,0,1-.44727.54688C8.603,16.4834,6.44482,17.94922,6.00537,20.457a.37838.37838,0,0,0,.09473.30957.70561.70561,0,0,0,.541.2334H10.5a.5.5,0,0,1,0,1Z"/><path d="M14.5,13A4.5,4.5,0,1,1,19,8.5,4.50491,4.50491,0,0,1,14.5,13Zm0-8A3.5,3.5,0,1,0,18,8.5,3.50424,3.50424,0,0,0,14.5,5Z"/><path d="M2.7876,20.03027a.53627.53627,0,0,1-.11035-.01172.50024.50024,0,0,1-.37793-.59765c.65869-2.93164,2.91211-5.09766,6.69775-6.44141l.084-.0332-.376-.51953A6.99986,6.99986,0,0,1,9.7959,3.31641a.49984.49984,0,1,1,.67187.74023,6.00087,6.00087,0,0,0-.94336,7.79688l.74268,1.02636a.5002.5002,0,0,1-.21973.75782l-.69824.27832c-3.458,1.22656-5.4956,3.15039-6.07422,5.72363A.50052.50052,0,0,1,2.7876,20.03027Z"/><path d="M20.45166,11.89746a.49362.49362,0,0,1-.22266-.05273.49953.49953,0,0,1-.22461-.66993A5.94347,5.94347,0,0,0,20.63184,8.5a6.01241,6.01241,0,0,0-1.96778-4.44336.49984.49984,0,1,1,.67188-.74023A7.01284,7.01284,0,0,1,21.63184,8.5a6.93262,6.93262,0,0,1-.73243,3.12012A.49955.49955,0,0,1,20.45166,11.89746Z"/><path d="M26.78333,18.27771a5.554,5.554,0,0,0-.26111-.65552l-.05652-1.76208L25.13989,14.5343l-1.76208-.05652a5.56728,5.56728,0,0,0-.65558-.26111L21.4375,13h-1.875l-1.28473,1.21667a5.5664,5.5664,0,0,0-.65552.26111l-1.76214.05652L14.5343,15.86011l-.05652,1.76208a5.554,5.554,0,0,0-.26111.65552L13,19.5625v1.875l1.21667,1.28467a5.54748,5.54748,0,0,0,.26111.65564l.05658,1.76208,1.32581,1.32581,1.76208.05652a5.5664,5.5664,0,0,0,.65552.26111L19.5625,28h1.875l1.28473-1.21667a5.56728,5.56728,0,0,0,.65558-.26111l1.762-.05652,1.32587-1.32581.05652-1.76208a5.54748,5.54748,0,0,0,.26111-.65564L28,21.4375v-1.875ZM27,21.03906l-.94269.99549-.15527.16394-.06976.2146a4.53369,4.53369,0,0,1-.21381.53674l-.08905.188-.00665.20788-.04389,1.36682-.76642.76636-1.36676.04383-.20788.00671-.188.089a4.54035,4.54035,0,0,1-.53687.214l-.21453.0697-.16382.15515L21.03912,27H19.96088l-.99549-.94275-.16382-.15515-.21453-.0697a4.54445,4.54445,0,0,1-.53687-.214l-.188-.089-.20788-.00671-1.3667-.04383-.76642-.76636-.04389-1.36682-.00671-.20788-.089-.188a4.53038,4.53038,0,0,1-.21387-.53662l-.06976-.21472-.15521-.16394L14,21.03906V19.96082l.94275-.99549.15521-.16382.06976-.21472a4.53038,4.53038,0,0,1,.21387-.53662l.089-.188.00671-.20788.04383-1.36682.76642-.76636,1.36676-.04383.20788-.00671.188-.089a4.54445,4.54445,0,0,1,.53687-.214l.21453-.0697.16382-.15515L19.96088,14h1.07824l.99549.94275.16382.15515.21453.0697a4.54035,4.54035,0,0,1,.53687.214l.188.089.20788.00671,1.36676.04383.76642.76636.04389,1.36682.00665.20788.08905.188a4.551,4.551,0,0,1,.21387.53662l.06976.21472.15515.16382L27,19.96082Z"/><path d="M20.5,16.5a4,4,0,1,0,4,4A4.00427,4.00427,0,0,0,20.5,16.5Zm0,7a3,3,0,1,1,3-3A3.00328,3.00328,0,0,1,20.5,23.5Z"/></g></svg>