<svg xmlns="http://www.w3.org/2000/svg" viewBox="0 0 48 48"><defs><style>.cls-1{fill:#ff6c2c;}</style></defs><g id="Base_Icons" data-name="Base Icons"><path d="M43.9834,26.37207,39.68457,10.09863A1.50421,1.50421,0,0,0,38.24023,9H9.76074A1.50959,1.50959,0,0,0,8.3125,10.10547L4.0166,26.37207a.50017.50017,0,0,0,.35547.61133A.48457.48457,0,0,0,4.5,27a.501.501,0,0,0,.4834-.37207L9.27734,10.36816A.50454.50454,0,0,1,9.76074,10H38.24023a.4992.4992,0,0,1,.4795.36035L43.0166,26.62793A.501.501,0,0,0,43.5,27a.48457.48457,0,0,0,.12793-.0166A.50017.50017,0,0,0,43.9834,26.37207Z"/><path d="M28,40H9.49609A.4968.4968,0,0,1,9,39.50391V25.499A.49929.49929,0,0,1,9.499,25H38.501a.49929.49929,0,0,1,.499.499v2.8125a.5.5,0,0,0,1,0V25.499A1.50122,1.50122,0,0,0,38.501,24H9.499A1.50122,1.50122,0,0,0,8,25.499V39.50391A1.49747,1.49747,0,0,0,9.49609,41H28a.5.5,0,0,0,0-1Z"/><path d="M12,30v5a.5.5,0,0,0,1,0V30a.5.5,0,0,0-1,0Z"/><path d="M15,30v5a.5.5,0,0,0,1,0V30a.5.5,0,0,0-1,0Z"/></g><g id="Sub_Icons" data-name="Sub Icons"><path class="cls-1" d="M40.49707,34H31.50293A1.50414,1.50414,0,0,0,30,35.50293v4.99414A1.50414,1.50414,0,0,0,31.50293,42h8.99414A1.50414,1.50414,0,0,0,42,40.49707V35.50293A1.50414,1.50414,0,0,0,40.49707,34ZM41,40.49707A.50347.50347,0,0,1,40.49707,41H31.50293A.50347.50347,0,0,1,31,40.49707V35.50293A.50347.50347,0,0,1,31.50293,35h8.99414A.50347.50347,0,0,1,41,35.50293Z"/><path class="cls-1" d="M39.5,33a.49971.49971,0,0,0,.5-.5V31.48145A1.48373,1.48373,0,0,0,38.51855,30h-5.0371A1.48373,1.48373,0,0,0,32,31.48145V32.5a.5.5,0,0,0,1,0V31.48145A.48179.48179,0,0,1,33.48145,31h5.0371A.48179.48179,0,0,1,39,31.48145V32.5A.49971.49971,0,0,0,39.5,33Z"/><circle class="cls-1" cx="34.5" cy="38" r="0.54999"/><circle class="cls-1" cx="37.5" cy="38" r="0.54999"/></g></svg>