<svg id="Base_Icons" data-name="Base Icons" xmlns="http://www.w3.org/2000/svg" xmlns:xlink="http://www.w3.org/1999/xlink" viewBox="0 0 48 48"><defs><style>.cls-1{fill:url(#linear-gradient);}.cls-2{fill:#f69923;}.cls-3{fill:none;}.cls-4,.cls-5{fill:#be202e;}.cls-5{isolation:isolate;opacity:0.35;}.cls-6{fill:#c92037;}.cls-7{fill:#9e2064;}.cls-8{fill:url(#linear-gradient-2);}.cls-9{fill:url(#linear-gradient-3);}.cls-10{fill:url(#linear-gradient-4);}.cls-11{fill:url(#linear-gradient-5);}</style><linearGradient id="linear-gradient" x1="-22746.61874" y1="-4830.94101" x2="-22660.03234" y2="-4830.94101" gradientTransform="matrix(0.10497, -0.19377, -0.19377, -0.10497, 1460.99676, -4876.57261)" gradientUnits="userSpaceOnUse"><stop offset="0" stop-color="#662e8d"/><stop offset="1" stop-color="#662e8d"/></linearGradient><linearGradient id="linear-gradient-2" x1="-22758.79584" y1="-4850.99361" x2="-22593.71348" y2="-4850.99361" gradientTransform="matrix(0.10497, -0.19377, -0.19377, -0.10497, 1460.99676, -4876.57261)" gradientUnits="userSpaceOnUse"><stop offset="0.3233" stop-color="#9e2064"/><stop offset="0.6302" stop-color="#c92037"/><stop offset="0.7514" stop-color="#cd2335"/><stop offset="1" stop-color="#e97826"/></linearGradient><linearGradient id="linear-gradient-3" x1="-22758.81568" y1="-4850.41994" x2="-22593.72632" y2="-4850.41994" xlink:href="#linear-gradient-2"/><linearGradient id="linear-gradient-4" x1="-22666.04674" y1="-4850.30476" x2="-22629.60495" y2="-4850.30476" xlink:href="#linear-gradient-2"/><linearGradient id="linear-gradient-5" x1="-22748.00023" y1="-4846.87257" x2="-22649.76116" y2="-4846.87257" xlink:href="#linear-gradient"/></defs><path d="M23.5,34a.49971.49971,0,0,0-.5.5V37H20V34.5a.5.5,0,0,0-1,0v6a.5.5,0,0,0,1,0V38h3v2.5a.5.5,0,0,0,1,0v-6A.49971.49971,0,0,0,23.5,34Z"/><path d="M42.5,34h-2a.49971.49971,0,0,0-.5.5v6a.5.5,0,0,0,1,0V39h1.5a2.5,2.5,0,0,0,0-5Zm0,4H41V35h1.5a1.5,1.5,0,0,1,0,3Z"/><path d="M38,34H33a.5.5,0,0,0,0,1h2v5.5a.5.5,0,0,0,1,0V35h2a.5.5,0,0,0,0-1Z"/><path d="M31,34H26a.5.5,0,0,0,0,1h2v5.5a.5.5,0,0,0,1,0V35h2a.5.5,0,0,0,0-1Z"/><path class="cls-1" d="M13.90385,27.23976a20.59353,20.59353,0,0,0-.50153,2.51472c-.00349.02969-.00863.05841-.01212.08809a5.3661,5.3661,0,0,0-1.46744-1.41649,7.49056,7.49056,0,0,1,1.305,3.55124,3.42745,3.42745,0,0,1-1.69131-.39407,3.44691,3.44691,0,0,0,1.40486.97025,4.19613,4.19613,0,0,0-2.08556.88273,4.35169,4.35169,0,0,1,2.42594-.29323C12.20379,35.68931,11.1073,38.506,10,41.5a.80434.80434,0,0,0,.57922-.49688c.19784-.54229,1.5084-4.09947,3.50692-8.75812q.08514-.19852.17215-.3995c.016-.03746.03276-.07488.04866-.11149q.31635-.73278.65419-1.495c.05148-.1156.103-.23118.15449-.34763l.003-.00665-1.19138-2.73809c-.00776.02942-.01572.06226-.02358.09338Z"/><path class="cls-2" d="M27.50332,6.63641a9.35888,9.35888,0,0,0-1.82521,1.48843c-.32906.32311-.649.65538-.96273.99318q.45815,1.00154.91626,2.00305A25.14889,25.14889,0,0,1,28.091,8.41364a23.38671,23.38671,0,0,0-2.32748,2.75388,38.7692,38.7692,0,0,0,4.04389-.24876,4.94127,4.94127,0,0,0-.093-3.037A2.60307,2.60307,0,0,0,28.436,6.56958a1.14445,1.14445,0,0,0-.93258.06669Z"/><path class="cls-3" d="M25.09605,17.59857l.02332-.00285-.14961.00713c-.00965.00369-.0176.00747-.0272.01031.05172-.00455.10263-.01.15349-.01459Z"/><path class="cls-3" d="M23.83548,21.01c-.08569.01358-.17284.0228-.26074.03027C23.66264,21.03277,23.74984,21.0227,23.83548,21.01Z"/><path class="cls-3" d="M23.50843,21.04637l.00176-.00075Z"/><path class="cls-4" d="M23.06548,22.72c-.133.01583-.27019.03055-.41086.04591l-.00262.00069c.07067-.00595.14047-.01195.20953-.01971s.13645-.01647.204-.02689Z"/><path class="cls-5" d="M23.06548,22.72c-.133.01583-.27019.03055-.41086.04591l-.00262.00069c.07067-.00595.14047-.01195.20953-.01971s.13645-.01647.204-.02689Z"/><path class="cls-4" d="M23.512,21.0448l-.0009.0008-.00176.00076c.02236-.00121.044-.00416.06548-.00542.08876-.00741.176-.01749.26075-.03027-.1061.01064-.214.02287-.32357.03414Z"/><path class="cls-5" d="M23.512,21.0448l-.0009.0008-.00176.00076c.02236-.00121.044-.00416.06548-.00542.08876-.00741.176-.01749.26075-.03027-.1061.01064-.214.02287-.32357.03414Z"/><path class="cls-6" d="M22.29039,15.9495q.52251-.84708,1.05457-1.65262.5514-.83511,1.1115-1.615c.02153-.03029.044-.06138.06554-.09253q.55239-.76584,1.11045-1.46816l-.91627-2.003c-.08338.08973-.16685.18117-.25214.2742-.31933.35127-.6523.7299-.99436,1.13187-.38543.45316-.783.938-1.18808,1.4472-.37363.471-.75375.96459-1.13493,1.47606-.32434.43551-.65122.88453-.97626,1.34565l-.03648.05077c.3278.94634.79025,1.816,1.18537,2.724q.48122-.82272.97108-1.61841Z"/><path class="cls-7" d="M15.93667,28.074q.40647-.88491.83372-1.78819.4091-.86426.83757-1.73758.42762-.87334.87251-1.74823.45174-.88981.91946-1.77356.4623-.87253.93848-1.73314.17153-.30985.34461-.617.29921-.53144.60291-1.05231c.01057-.019.02193-.0371.03335-.056l-1.18549-2.72387c-.02434.03439-.04783.06884-.07217.10323-.343.48988-.68591.99174-1.02349,1.505q-.51192.77727-1.00675,1.58379-.41733.67924-.81665,1.37242c-.05363.09411-.1063.18656-.159.27987q-.49323.87324-.8998,1.68852-.46269.92245-.82535,1.76308-.24.55168-.44168,1.06555c-.11174.29214-.21926.5854-.32155.87726q-.36381,1.03227-.64011,2.06389c.38288.90761.76683,1.83575,1.19138,2.73809q.31032-.696.63551-1.41164c.06018-.13214.12132-.26594.18242-.39889Z"/><path class="cls-7" d="M21.51443,17.8044c-.04311.07595-.08628.15276-.13035.23037q-.19567.3481-.39734.71037-.21763.39289-.4398.80429c-.07511.13807-.14942.277-.22559.41845q-.34.634-.69121,1.31086-.43159.83211-.88091,1.73066-.4279.85668-.86979,1.77488-.41977.87128-.85158,1.79989-.38508.82854-.77892,1.70269c-.01283.02826-.02567.05652-.03764.08483q-.39137.86916-.79073,1.78568l-.01791.04162,1.09287-.05228c-.0211-.00556-.04316-.00946-.06427-.015a7.753,7.753,0,0,0,4.27836-2.06894,10.25885,10.25885,0,0,0,1.5289-1.87146,16.8545,16.8545,0,0,0,1.02226-1.82968c.28732-.59066.56735-1.23213.84217-1.92944a3.9505,3.9505,0,0,1-1.0376.28967c-.06659.00962-.13489.01913-.20395.02689s-.13891.01461-.20953.01972l.00261-.00069a4.72275,4.72275,0,0,0,2.67614-2.30308,4.32326,4.32326,0,0,1-1.49451.54716c-.08569.01358-.17284.0228-.26074.03026-.02242.00206-.044.00416-.06549.00542l.00176-.00076.00091-.0008a4.93529,4.93529,0,0,0,1.11835-.53672c.06872-.04536.13584-.09253.20055-.1424.0988-.07514.19272-.15483.28348-.239.05808-.05369.11454-.10919.16946-.16735a4.20169,4.20169,0,0,0,.36688-.444c.03551-.04908.07022-.09908.105-.15077.04477-.075.08773-.1484.12979-.221.18935-.32842.34235-.62231.46582-.88128.06174-.12949.116-.24917.163-.36077.01893-.04412.03694-.08744.054-.1291.05033-.12506.09211-.23612.12539-.334a3.34,3.34,0,0,0,.10051-.34834,1.303,1.303,0,0,1-.14669.08759,5.13085,5.13085,0,0,1-1.52876.417l1.00349-.04829-1.00349.04829-.02332.00286c-.05091.00544-.10262.01-.15439.01538.00965-.00368.01611-.00872.02571-.01155l-3.432.1666-.021.03545Z"/><path class="cls-6" d="M25.7643,11.16846c-.33095.44537-.69384.952-1.08566,1.52689-.02062.0295-.04135.06069-.062.091q-.50754.74679-1.07985,1.6451-.49392.77712-1.031,1.67371-.46851.78248-.97036,1.66374l3.40565-.15463A4.25809,4.25809,0,0,0,26.926,16.25394c.12427-.15729.24984-.32217.37493-.49307.38274-.52335.762-1.10245,1.10511-1.68031a18.05515,18.05515,0,0,0,.85777-1.61592,8.71792,8.71792,0,0,0,.35435-.88123c.07643-.23193.13847-.45279.1888-.66411a39.08093,39.08093,0,0,1-4.043.24957Z"/><path class="cls-4" d="M22.8617,22.7469c-.06906.00776-.13891.01461-.20953.01972C22.72279,22.76151,22.79264,22.75466,22.8617,22.7469Z"/><path class="cls-5" d="M22.8617,22.7469c-.06906.00776-.13891.01461-.20953.01972C22.72279,22.76151,22.79264,22.75466,22.8617,22.7469Z"/><path class="cls-8" d="M22.8617,22.7469c-.06906.00776-.13891.01461-.20953.01972C22.72279,22.76151,22.79264,22.75466,22.8617,22.7469Z"/><path class="cls-4" d="M23.50843,21.04637c.02236-.0012.044-.00416.06549-.00541C23.55241,21.04221,23.53085,21.04432,23.50843,21.04637Z"/><path class="cls-5" d="M23.50843,21.04637c.02236-.0012.044-.00416.06549-.00541C23.55241,21.04221,23.53085,21.04432,23.50843,21.04637Z"/><path class="cls-9" d="M23.50843,21.04637c.02236-.0012.044-.00416.06549-.00541C23.55241,21.04221,23.53085,21.04432,23.50843,21.04637Z"/><path class="cls-4" d="M23.51087,21.04589l.0009-.00081Z"/><path class="cls-5" d="M23.51087,21.04589l.0009-.00081Z"/><path class="cls-10" d="M23.51087,21.04589l.0009-.00081Z"/><path class="cls-11" d="M15.28567,30.466q-.31008.714-.62442,1.45583l-.009.02166c-.0299.06993-.05893.1399-.08882.20983-.14082.33393-.26422.63476-.546,1.31885a2.71955,2.71955,0,0,1,.94311,1.25138,2.16049,2.16049,0,0,0-.613-1.52512c1.94516.20622,3.65488-.18263,4.60845-1.55017a3.582,3.582,0,0,0,.23667-.38874,1.87578,1.87578,0,0,1-1.84527.54888l-.00614.00219.00614-.00219a5.231,5.231,0,0,0,2.76708-1.9875c.15627-.2194.30955-.46034.46785-.72829a4.26589,4.26589,0,0,1-4.08709,1.05326l-.06382-.01421-1.02905.06648c-.0396.089-.07835.178-.11715.2679Z"/></svg>