<svg xmlns="http://www.w3.org/2000/svg" viewBox="0 0 48 48"><defs><style>.cls-1{fill:#ff6c2c;}</style></defs><g id="Base_Icons" data-name="Base Icons"><path d="M41.666,22h-.23615A17.70851,17.70851,0,0,0,24,5,17.70851,17.70851,0,0,0,6.57013,22H6.334A2.33644,2.33644,0,0,0,4,24.334v8.23243a2.33644,2.33644,0,0,0,2.334,2.334H6.5769C6.90735,37.75452,10.03,40,13.82617,40H20.6084a.5.5,0,1,0,0-1H13.82617c-3.233,0-5.90173-1.798-6.24341-4.09961h.17017a2.33643,2.33643,0,0,0,2.334-2.334V24.334A2.33644,2.33644,0,0,0,7.75293,22H7.57007A16.69518,16.69518,0,0,1,24,6,16.69518,16.69518,0,0,1,40.42993,22h-.18286a2.33644,2.33644,0,0,0-2.334,2.334v3.23243a.5.5,0,1,0,1,0V24.334A1.33576,1.33576,0,0,1,40.24707,23h1.419A1.33576,1.33576,0,0,1,43,24.334v7.23243a.5.5,0,1,0,1,0V24.334A2.33644,2.33644,0,0,0,41.666,22ZM9.08691,24.334v8.23243a1.33576,1.33576,0,0,1-1.334,1.334H6.334A1.33576,1.33576,0,0,1,5,32.56641V24.334A1.33576,1.33576,0,0,1,6.334,23H7.75293A1.33576,1.33576,0,0,1,9.08691,24.334Z"/></g><g id="Sub_Icons" data-name="Sub Icons"><path class="cls-1" d="M39.92578,31.5791l-3.73535-1.541a.495.495,0,0,0-.38086,0l-3.73535,1.54a.952.952,0,0,0-.57422.89356V36c0,3.59375,4.21973,5.916,4.2627,5.93848a.49535.49535,0,0,0,.4746,0C36.28027,41.916,40.5,39.59375,40.5,36V32.47168A.94961.94961,0,0,0,39.92578,31.5791ZM39.5,36c0,2.52246-2.67383,4.39746-3.5,4.916-.82617-.51856-3.5-2.39356-3.5-4.916l-.04492-3.49707L36.001,31.041,39.5,32.47168Z"/><path class="cls-1" d="M34,35a1.99854,1.99854,0,0,0,1.5,1.929V37.5a.5.5,0,0,0,1,0v-.571A1.99672,1.99672,0,1,0,34,35Zm3,0a1,1,0,1,1-1-1A1.00067,1.00067,0,0,1,37,35Z"/></g></svg>