<svg xmlns="http://www.w3.org/2000/svg" viewBox="0 0 48 48"><defs><style>.cls-1{fill:#ff6c2c;}</style></defs><g id="Base_Icons" data-name="Base Icons"><path d="M42,8.50293A1.50414,1.50414,0,0,0,40.49707,7H7.502A1.50373,1.50373,0,0,0,6,8.502V22.49707a1.49064,1.49064,0,0,0,.38959,1.00049A1.48448,1.48448,0,0,0,6,24.49512V38.50293A1.49915,1.49915,0,0,0,7.49707,40H28a.5.5,0,0,0,0-1H7.49707A.49722.49722,0,0,1,7,38.50293v-13.998A.50554.50554,0,0,1,7.50488,24H40.49512A.50554.50554,0,0,1,41,24.50488V28a.5.5,0,0,0,1,0V24.50488l-.00067-.00659L42,24.49512a1.48416,1.48416,0,0,0-.39-.998,1.49189,1.49189,0,0,0,.39-1.001ZM7.50488,23H7.50293A.50347.50347,0,0,1,7,22.49707V8.502A.50305.50305,0,0,1,7.502,8H40.49707A.50347.50347,0,0,1,41,8.50293V22.49609A.50389.50389,0,0,1,40.49609,23H7.50488Z"/><path d="M10.5,12.5a.49971.49971,0,0,0-.5.5v5a.5.5,0,0,0,1,0V13A.49971.49971,0,0,0,10.5,12.5Z"/><path d="M10,29v5a.5.5,0,0,0,1,0V29a.5.5,0,0,0-1,0Z"/><path d="M14,29v5a.5.5,0,0,0,1,0V29a.5.5,0,0,0-1,0Z"/></g><g id="Sub_Icons" data-name="Sub Icons"><path class="cls-1" d="M36,30a6,6,0,1,0,2.23242,11.57031c.10156-.04.20215-.084.30078-.12988a.50023.50023,0,0,0-.42382-.90625q-.12159.05714-.249.1084a4.99,4.99,0,1,1,2.65918-2.499l-.085.169-.0003.001-.00654.00879a.75069.75069,0,0,1-.40136.375A.77571.77571,0,0,1,39,38V33.7998a.49843.49843,0,0,0-.99664-.0166,3.035,3.035,0,1,0,.01593,4.40723A1.74634,1.74634,0,0,0,39.75,39.75a1.69768,1.69768,0,0,0,1.50488-.89307.47725.47725,0,0,0,.06836-.08545l.09571-.19238A6.00265,6.00265,0,0,0,36,30Zm.74512,7.85742A2.00084,2.00084,0,1,1,38,36a1.96834,1.96834,0,0,1-.05957.48633A2.00756,2.00756,0,0,1,36.74512,37.85742Z"/></g></svg>