<svg xmlns="http://www.w3.org/2000/svg" viewBox="0 0 48 48"><defs><style>.cls-1{fill:#ff6c2c;}</style></defs><g id="Base_Icons" data-name="Base Icons"><path d="M44.49121,23.81348c-.00391-.46289-.03516-.92188-.07031-1.38086l-.01563-.23633c-.00976-.15137-.01953-.30371-.03613-.45508-.043-.38965-.10937-.77344-.18359-1.207l-.03614-.22168c-.0332-.20605-.0664-.41211-.11035-.61816-.03711-.1709-.081-.33985-.126-.50879l-.02442-.09473a.48136.48136,0,0,0-.01562-.12207c-.02149-.08594-.04785-.168-.0752-.25l-.11426-.39648c-.05371-.20118-.10839-.40137-.17089-.59766-.03125-.09766-.06739-.19336-.10254-.29l-.05957-.165c-.082-.23633-.1709-.46875-.25977-.69824l-.07031-.18555c-.06934-.18066-.1377-.36133-.21387-.53613-.03711-.085-.07812-.169-.11915-.25293l-.0664-.1377c-.123-.27148-.25293-.53808-.38769-.7998l-.08594-.1709c-.06836-.13574-.13672-.27246-.21-.40527-.04394-.07813-.09081-.15528-.13769-.23145l-.07812-.1289q-.249-.43213-.51758-.84864l-.09961-.15527c-.06152-.09766-.123-.19531-.1875-.28906-.05371-.08008-.1123-.15821-.16992-.23535l-.10352-.14161c-.19824-.27539-.40039-.543-.61132-.80859l-.10743-.13769c-.05761-.0752-.11523-.1504-.1748-.22168-.07715-.09278-.15723-.18165-.2373-.27051l-.12891-.14453q-.31641-.35889-.64551-.69922L38.625,9.64844c-.06251-.06739-.124-.13477-.18848-.19824-.10449-.1045-.21386-.20411-.32324-.30372l-.15137-.13769c-.18579-.17358-.37463-.34046-.56439-.5033-.00488-.00451-.00671-.01086-.01178-.01526l-.01428-.008c-.01392-.0119-.0274-.02509-.04138-.03693l-.12988-.11523c-.07422-.06738-.14844-.13477-.22657-.19824-.13086-.10743-.2666-.209-.40234-.31055L36.416,7.7041c-.2002-.15234-.40137-.29883-.6045-.4414l-.15332-.11133c-.09668-.07129-.19433-.14258-.29492-.21-.13769-.0918-.28027-.17871-.42383-.26563l-.15918-.09668c-.19824-.12305-.39941-.24121-.60058-.35742l-.15723-.09082c-.13672-.08008-.27246-.15918-.41211-.23438-.11914-.06347-.24219-.12207-.36426-.18164l-.17675-.08593c-.21192-.10352-.42481-.20411-.72364-.33985-.20312-.09277-.40527-.18457-.61523-.26953l-.4502-.16992c-.23925-.0918-.47851-.17676-.71875-.25781-.26172-.08887-.52441-.17578-.84179-.27149-.01172-.0039-.11133-.03808-.12207-.041-.04981-.01368-.09864-.02442-.22168-.05176-.26368-.07129-.52832-.13477-.79493-.19531-.25878-.05957-.51562-.11719-.77832-.166l-.43164-.08105c-.25-.042-.501-.07227-.75195-.10254l-.165-.02051c-.20605-.02539-.41113-.05078-.61621-.06934l-.13477-.01269c-.12695-.0127-.2539-.02539-.38085-.0332-.22754-.01465-.45606-.01856-.68457-.02149l-.373-.01269C24.17676,3.50586,24.08984,3.5,24,3.5l-.32031.00977c-.13965.001-.27832.00293-.4209.00683-.19141.00781-.38281.02442-.57422.041l-.49023.03711c-.15137.00976-.30274.01953-.45118.03613-.18066.01855-.35839.042-.53711.06738-.15917.02149-.31835.05078-.47753.08008l-.46973.08106c-.18848.03027-.376.06152-.56445.10156-.12012.02636-.24024.05566-.35938.085l-.36621.08105c-.08789.02246-.17285.04981-.25684.07813l-.375.10742c-.20507.05566-.41113.11035-.6123.1748-.09277.03028-.18457.06348-.27637.09766l-.17871.06348c-.23633.082-.46875.1709-.70215.26172l-.21582.083c-.16894.06446-.33789.12891-.5.19922-.08691.03809-.17285.08008-.25879.12207l-.13379.06446c-.27148.123-.5371.25293-.80371.38867l-.19629.09961c-.11669.05877-.23339.118-.34552.18-.00958.00458-.02008.00421-.02948.00946-.00915.00507-.01422.014-.02294.01953-.07013.03906-.13862.0802-.20752.12207l-.13184.08008c-.28809.166-.56934.33789-.84766.51758l-.16015.10156c-.09571.06055-.19141.12109-.28614.18555-.07812.05371-.15429.11035-.23046.167l-.14551.10742q-.41163.2959-.80762.61035l-.13769.10743c-.0752.05761-.1504.11523-.22168.1748-.09278.07715-.18262.15723-.27149.23828l-.14355.12793q-.35889.31641-.7002.64649l-.12012.1123c-.06738.06152-.13574.124-.19921.18848-.10059.10156-.19727.207-.294.3125l-.14941.16308c-.19239.207-.38086.419-.56153.63086l-.11523.12988c-.06738.07422-.13477.14844-.19824.22657-.10743.13086-.209.2666-.31055.40234L7.7041,11.584c-.15234.2002-.29883.40137-.4414.6045l-.11426.15722c-.07032.09571-.14063.19043-.208.291-.09082.13672-.17578.27832-.26172.41894l-.10059.165q-.18456.29883-.35644.59961L6.127,13.9834c-.07812.13379-.15722.26758-.23047.40625-.06445.12109-.124.24512-.18359.36914l-.083.17285c-.10449.21094-.20508.42383-.34179.72559-.0918.20215-.1836.40332-.26856.6123l-.16992.4502c-.0918.23828-.17676.47754-.25781.71875-.08789.26172-.17481.52246-.27149.84179-.0039.01172-.03808.11133-.041.12207-.01465.04981-.02539.09961-.05176.22266-.07129.2627-.13477.52734-.19531.793-.05957.25781-.11719.5166-.166.7793l-.08105.43261c-.03809.22657-.06641.4541-.09473.68262l-.0293.24023c-.02539.20411-.05078.40723-.06836.60938l-.01269.13477c-.0127.12695-.02539.2539-.0332.38085-.01465.22754-.01856.45508-.02149.68457l-.01269.37208C3.50586,23.82227,3.5,23.91016,3.5,24l.00977.32129c.001.13867.00293.27832.00683.41992.00781.18945.02442.37988.041.57031l.03711.49414c.00976.15137.01953.30274.03613.45118.01855.18066.042.36035.06738.53808.02149.15723.05078.31446.0791.47266l.08106.46582c.03125.19238.0625.38379.10254.56836.02344.11426.05176.22558.0791.33789l.08691.3916c.02149.08594.04785.168.0752.25l.11426.39648c.05371.20118.10839.40137.17089.59766.03125.09766.06739.19336.10254.29l.05957.165c.082.23633.1709.46875.25977.69824l.07031.18555c.06934.18066.1377.36133.21387.53613.03711.085.07812.16895.11914.25293l.06641.1377c.123.2705.25293.5371.38867.80371l.10156.20019c.06348.125.126.25.19336.37207.04.07324.084.14356.12695.21485l.08789.14746q.2505.4292.51856.84668l.09961.15527c.06152.09766.123.19531.1875.28906.05371.08008.1123.15821.16992.23535l.10352.14161c.19824.27539.40039.543.61132.80859l.11035.1416c.05665.07422.11231.14746.17286.2207.07519.08985.15429.17676.23242.26368l.13281.14843c.21094.23926.42578.47168.64649.7002l.1123.12012c.06152.06738.124.13574.18848.19921.10644.10547.21679.207.32714.30762l.14747.13477q.312.29.63379.56543l.13476.12011c.07227.06446.14453.12891.21973.19043.13086.10743.2666.209.40234.31055l.15527.11719c.2002.15234.40137.29883.6045.4414l.15332.11133c.09668.07129.19433.14258.29492.21.13769.0918.28027.17871.42383.26563l.15918.09668c.19922.124.40039.24316.60058.35742l.15723.09082c.13672.08008.27246.15918.41211.23438.11914.06347.24219.12207.36426.18164l.17675.08593c.21192.10352.42481.20411.72364.33985.20312.09277.40527.18457.61523.26953l.4502.16992c.23925.0918.47754.17676.71777.25781.26172.08887.52344.17481.84277.27149l.124.042a.4786.4786,0,0,0,.1123.01562c.29883.084.59863.16114.90137.23047.30469.07032.61133.13184.9209.18848q.56689.10254,1.14355.17383c.27149.0332.54395.0625.81641.084.4209.03516.84375.05567,1.26855.06446l.167.00878c.08789.00684.17578.0127.26562.0127a.45252.45252,0,0,0,.12793-.01953,20.59384,20.59384,0,0,0,4.90332-.60742.49866.49866,0,0,0,.36133-.60743.49218.49218,0,0,0-.60742-.36132A19.46039,19.46039,0,0,1,24.5,43.4657V24.5H43.46954a19.43594,19.43594,0,0,1-.71075,4.82227.50048.50048,0,0,0,.96289.27343,20.553,20.553,0,0,0,.76465-5.47851A.51972.51972,0,0,0,44.5,24ZM15.877,6.28711l.15625-.0752c.07032-.03418.14063-.06933.2168-.10156.14941-.06543.30273-.124.457-.18262l.22363-.08593c.22168-.085.44239-.16992.665-.24805l.19727-.07031c.07812-.0293.15723-.05762.2373-.084.18653-.05957.376-.11035.56446-.16015l.22656-.06153c.07031-.01953.13769-.041.20508-.06347a2.082,2.082,0,0,1,.25976-.07227l.61914-.14355c.16993-.03614.3418-.06446.51465-.0918l.48926-.085c.14453-.02637.28906-.05274.43457-.07324.168-.02344.33594-.04493.50684-.06348.13476-.01465.27148-.02344.4082-.03223l.51269-.03906c.17579-.01465.35157-.03027.52344-.03711L24,4.5c.06543,0,.12891.00488.19238.00977.07227.00488.14453.00976.21875.01171l.21094.00391c.21289.00293.42481.00586.63574.01953.11621.00781.23145.01856.34766.03028l.1416.01367c.19629.01758.38965.041.64844.07324l.10254.01269c.2373.0293.47363.05762.70507.09571l.416.07812c.249.04688.49316.10254.73926.15821.25293.05859.50586.11816.7539.18457l.26465.06836c.00977.0039.1045.03515.11524.03906.252.07226.499.15527.749.24121.23047.07617.45606.15723.68359.24414l.43067.16211c.19531.0791.38476.166.66211.293.20508.09179.4082.18847.60937.28711l.18554.08984c.11036.05274.21974.10547.32716.16309.12793.06836.25293.1416.37695.21386l.165.09668c.19336.10938.38281.22168.57324.33985l.166.10156c.13086.0791.26172.1582.38769.24219.08789.05859.17286.12109.25782.18359l.168.12207c.19433.13672.38574.27539.57519.4209l.16211.12207c.125.09277.249.18555.36816.2832l.015.01306-12.26465,14.211L15.015,6.70679l.09729-.04956C15.36328,6.53027,15.61523,6.40625,15.877,6.28711Zm5.72852,37.05078c-.36524-.0459-.72656-.09961-1.08789-.166-.29492-.05274-.58594-.11231-.876-.17872-.30957-.07031-.61426-.15039-.93945-.24121a.40218.40218,0,0,0-.09668-.01757c-.03027-.01075-.08887-.03028-.09668-.03223-.25293-.07422-.501-.15625-.751-.24121-.22851-.07715-.45508-.15821-.68261-.24512l-.43067-.16211c-.19531-.0791-.38476-.166-.66211-.293-.20508-.09179-.4082-.18847-.60937-.28711l-.18555-.08984c-.11035-.05274-.21973-.10547-.32715-.16309-.12793-.06836-.25293-.1416-.377-.21386l-.167-.09668c-.19239-.10938-.38184-.22266-.57129-.33985l-.166-.10156c-.13086-.0791-.26172-.1582-.38769-.24219-.08789-.05859-.17286-.12109-.25782-.18359l-.168-.12207c-.19433-.13672-.38574-.27539-.57519-.4209l-.16211-.12207c-.125-.09277-.249-.18555-.36816-.2832-.06348-.05176-.124-.10645-.1836-.16016l-.15429-.13672c-.20508-.17578-.40625-.35449-.60352-.53808l-.15332-.14063c-.10059-.0918-.20117-.18262-.29785-.2793-.05371-.05273-.10449-.10937-.15528-.165l-.12988-.13867c-.21-.21777-.415-.43847-.61426-.666l-.14257-.15918c-.07032-.07715-.14063-.1543-.20606-.2334L8.75,36.13184c-.2002-.251-.39258-.50684-.58008-.76758L8.05469,35.208c-.04981-.06641-.09864-.13184-.14649-.20117-.05761-.085-.1123-.17188-.166-.25782l-.10645-.167c-.1709-.26367-.334-.53223-.49219-.80371l-.20605-.3457c-.06055-.11035-.11719-.22266-.17383-.33594l-.10644-.209c-.127-.251-.251-.50391-.37012-.76465L6.21,31.96289c-.03418-.06934-.06836-.13867-.09961-.21094-.07031-.16113-.13281-.32617-.19531-.49218l-.07324-.19239c-.08594-.21972-.16895-.44043-.24805-.666l-.06641-.18262c-.03027-.082-.06054-.165-.08789-.249-.05859-.18164-.10742-.36621-.15722-.55078l-.06446-.23829c-.01953-.07226-.043-.14355-.0664-.21386a2.14859,2.14859,0,0,1-.06934-.25293l-.07129-.31543c-.02441-.09961-.0498-.2002-.07226-.30567-.03711-.17089-.06446-.34472-.09278-.51953l-.085-.48633c-.02636-.14355-.05273-.28613-.07226-.42968-.02344-.168-.04493-.33692-.06348-.50782-.01465-.13476-.02344-.27148-.03223-.4082l-.03906-.51562c-.01562-.17481-.03027-.34961-.03711-.52051L4.5,24c0-.06543.00488-.12988.00977-.19336.00488-.07226.00976-.14453.01171-.21875l.00391-.21094c.00293-.21191.00586-.42383.01953-.63476.00781-.11621.01856-.23145.03028-.34766l.01367-.1416c.0166-.19434.041-.38574.07324-.64746l.02148-.16992c.02637-.21485.05274-.42871.08789-.63867l.07715-.416c.04688-.249.10254-.49414.15821-.73926.05859-.25293.11816-.50586.18554-.75488l.06739-.26367c.00293-.00977.03515-.10352.03808-.11426.07422-.25293.15723-.502.24121-.751.07715-.22851.15821-.4541.24512-.68261l.16211-.43067c.0791-.19336.165-.38281.293-.66211.09179-.20508.18847-.4082.28711-.60937l.08886-.18262c.05274-.11133.10645-.22266.16407-.331.0664-.126.13867-.24708.21-.37012l.10058-.17285c.10938-.19239.22266-.38086.33985-.57129l.10449-.1709c.07812-.12988.15723-.25977.23828-.38281.05762-.08594.11914-.16895.18066-.25293l.126-.17286c.13672-.19433.27539-.38574.4209-.57519l.12207-.16211c.09277-.125.18555-.249.2832-.36816.05371-.06543.11035-.12793.166-.19043l.13281-.14844c.17383-.20508.35254-.40527.53418-.60059l.15723-.1709c.08691-.09472.17285-.19042.26465-.28222.05273-.05371.10937-.10449.165-.15528l.13867-.12988q.32518-.31641.666-.61426l.15332-.13769c.0791-.07129.15821-.14258.24219-.21192.06152-.05175.125-.10058.18945-.14941L11.86816,8.75c.25-.19922.50684-.39258.76661-.58008l.35839-.26269c.083-.05567.168-.10938.252-.16211l.17285-.10938c.23675-.15259.47827-.29876.72351-.442L23.5,24.12891V43.47406c-.375-.00952-.74731-.02533-1.11914-.05609C22.12012,43.39648,21.86133,43.36914,21.60547,43.33789ZM37.10376,9.583c.05835.053.1189.10339.17651.15728l.15918.14649c.09864.08887.19727.17871.293.27344.05371.05273.10449.10839.15528.16406l.13085.14062c.209.2168.41407.4375.61329.665l.13867.1543c.07129.0791.14258.15723.21094.24121.05175.06152.10058.125.14941.18945l.11914.15332c.2002.251.39258.50684.58008.76758l.11523.15625c.04981.06641.09864.13184.14649.20117.05761.085.1123.17188.166.25782l.10645.167q.25488.39551.49316.80762l.09082.14941c.03906.06348.07813.127.11425.19238.06642.12012.12892.24414.19044.36817l.09082.18066c.12793.248.251.501.36914.76074l.07715.16016c.03418.06934.06836.13867.09961.21094.07031.16113.13281.32617.19531.49218l.07324.19239c.08594.21972.169.44043.248.666l.06641.18262c.03027.082.06054.165.08789.249.05859.18164.10742.36621.15722.55078l.06446.23829c.01953.07226.043.14355.0664.21386.00977.0293.01953.0586.02832.08789a.49475.49475,0,0,0,.01563.11329l.05371.20507c.041.15528.082.31055.11523.46485.03907.18652.07032.377.10059.56738l.0459.28125c.06347.36426.126.72852.167,1.09766.01465.13574.02344.27246.03223.41015l.0166.249c.02588.33056.03967.66033.051.99023H25.0918Z"/></g><g id="Sub_Icons" data-name="Sub Icons"><path class="cls-1" d="M41.96387,34.582a1.04234,1.04234,0,0,0-.11524-.81641L40.919,32.21875a1.0838,1.0838,0,0,0-1.40625-.4248c-.03028.01074-.15235.02539-.17969.041a7.45965,7.45965,0,0,0-1.30762-.76172A1.08567,1.08567,0,0,0,36.92969,30H35.07031a1.14287,1.14287,0,0,0-1.127,1.123,9.82442,9.82442,0,0,0-1.375.708,1.11351,1.11351,0,0,0-1.48828.38868l-.92871,1.54589a1.0447,1.0447,0,0,0-.11524.81739,1.184,1.184,0,0,0,.55567.70117A5.09248,5.09248,0,0,0,30.541,36c0,.24316.01757.48145.01562.75586a1.06586,1.06586,0,0,0-.52051.66113,1.0447,1.0447,0,0,0,.11524.81739l.92968,1.54687a1.0838,1.0838,0,0,0,1.40625.4248c.03028-.01074.15235-.02539.17969-.041a7.45965,7.45965,0,0,0,1.30762.76172A1.08567,1.08567,0,0,0,35.07031,42h1.85938a1.14287,1.14287,0,0,0,1.127-1.123A5.50691,5.50691,0,0,0,39.333,40.165l.10058.00586a1.11367,1.11367,0,0,0,1.48633-.39063l.92871-1.54589a1.0447,1.0447,0,0,0,.11524-.81739,1.06586,1.06586,0,0,0-.52051-.66113l-.24219.4375.207-.47754A5.09248,5.09248,0,0,0,41.459,36c0-.24316-.01757-.48145-.01464-.75586A1.06623,1.06623,0,0,0,41.96387,34.582Zm-1.90138,4.68359a.11115.11115,0,0,1-.14843.02833,1.08729,1.08729,0,0,0-1.18066.07031,4.50867,4.50867,0,0,1-1.04492.583,1.0489,1.0489,0,0,0-.66309.97949A.08744.08744,0,0,1,36.92969,41H35.07031a.08846.08846,0,0,1-.0957-.07422,1.047,1.047,0,0,0-.66406-.97851,4.52182,4.52182,0,0,1-1.044-.583,1.06959,1.06959,0,0,0-.64062-.21094,1.11619,1.11619,0,0,0-.54493.14258.11008.11008,0,0,1-.14257-.0293L31.043,37.62988a1.04154,1.04154,0,0,0,.53906-1.05664,4.02012,4.02012,0,0,1,0-1.14551,1.21383,1.21383,0,0,0-.57324-1.14648l.9287-1.54687a.11731.11731,0,0,1,.14845-.02833,1.08955,1.08955,0,0,0,1.18066-.07031,4.50826,4.50826,0,0,1,1.04492-.583,1.0489,1.0489,0,0,0,.66309-.97949A.08744.08744,0,0,1,35.07031,31h1.85938a.08846.08846,0,0,1,.0957.07422,1.047,1.047,0,0,0,.66406.97851,4.52223,4.52223,0,0,1,1.044.583,1.09134,1.09134,0,0,0,1.18555.06836.10755.10755,0,0,1,.14257.0293l.89551,1.63672a1.04154,1.04154,0,0,0-.53906,1.05664,4.02012,4.02012,0,0,1,0,1.14551,1.04216,1.04216,0,0,0,.53906,1.05761l.03418.08887Z"/><path class="cls-1" d="M37.25,33.834a2.49982,2.49982,0,1,0,.915,3.416h.001A2.50612,2.50612,0,0,0,37.25,33.834Zm.0498,2.916a1.49962,1.49962,0,1,1-.5498-2.0498A1.50365,1.50365,0,0,1,37.2998,36.75Z"/></g></svg>