<svg xmlns="http://www.w3.org/2000/svg" viewBox="0 0 48 48"><defs><style>.cls-1{fill:#ff6c2c;}</style></defs><g id="Base_Icons" data-name="Base Icons"><path d="M24,3a21,21,0,1,0,6.21582,41.06445.49978.49978,0,1,0-.29492-.95507A19.98364,19.98364,0,1,1,43.05273,30.09766a.50032.50032,0,0,0,.95313.30468A21.01517,21.01517,0,0,0,24,3Z"/><path d="M24,17a.49971.49971,0,0,0-.5.5V31.21436l-4.63184-5.05225a.49971.49971,0,1,0-.73632.67578l5.5,6a.49911.49911,0,0,0,.73632,0l5.5-6a.49971.49971,0,0,0-.73632-.67578L24.5,31.21436V17.5A.49971.49971,0,0,0,24,17Z"/></g><g id="Sub_Icons" data-name="Sub Icons"><path class="cls-1" d="M37,30a3.49476,3.49476,0,0,0-2.49829,5.94385l-.9939,5.46631a.50026.50026,0,0,0,.76953.50586L37,40.10059,39.72266,41.916a.50026.50026,0,0,0,.76953-.50586l-.9939-5.46631A3.49476,3.49476,0,0,0,37,30Zm0,1a2.5,2.5,0,1,1-2.5,2.5A2.50231,2.50231,0,0,1,37,31Zm.27734,8.084a.50238.50238,0,0,0-.55468,0l-2.02051,1.34668.69812-3.83593a3.36,3.36,0,0,0,3.19946,0l.69812,3.83593Z"/></g></svg>