<svg xmlns="http://www.w3.org/2000/svg" viewBox="0 0 48 48"><defs><style>.cls-1{fill:#ff6c2c;}</style></defs><g id="Base_Icons" data-name="Base Icons"><path d="M41.11816,17.31738l-3.56347-3.56347a4.26824,4.26824,0,1,0-5.3086-5.3086L28.68262,4.88184a3.01571,3.01571,0,0,0-4.25977,0L16.626,12.67969a.49959.49959,0,0,0,.32714.85254,3.26836,3.26836,0,1,1-3.42089,3.42089.49959.49959,0,0,0-.85254-.32714L4.88184,24.42285a3.0166,3.0166,0,0,0,0,4.25977l3.56347,3.56347a4.26824,4.26824,0,1,0,5.3086,5.3086l3.56347,3.56347a3.01542,3.01542,0,0,0,4.25977,0L29.374,33.32031a.49959.49959,0,0,0-.32714-.85254,3.26836,3.26836,0,1,1,3.42089-3.42089.49959.49959,0,0,0,.85254.32714l7.79785-7.79687A3.0166,3.0166,0,0,0,41.11816,17.31738Zm-.707,3.55274L33.294,27.98633a4.21313,4.21313,0,0,0-1.0586-1.78711,4.26819,4.26819,0,1,0-6.03613,6.03613,4.21313,4.21313,0,0,0,1.78711,1.0586l-7.11621,7.11718a2.017,2.017,0,0,1-2.84571,0L13.78027,36.167a.49959.49959,0,0,0-.85254.32715,3.26061,3.26061,0,0,1-.93945,2.13965,3.34743,3.34743,0,0,1-4.62207,0,3.254,3.254,0,0,1,2.13965-5.56152.49959.49959,0,0,0,.32715-.85254L5.58887,27.97559a2.0152,2.0152,0,0,1,0-2.84571l7.11718-7.11621a4.21313,4.21313,0,0,0,1.0586,1.78711,4.26819,4.26819,0,0,0,6.03613-6.03613,4.21313,4.21313,0,0,0-1.78711-1.0586l7.11621-7.11718a2.017,2.017,0,0,1,2.84571,0L32.21973,9.833a.49959.49959,0,0,0,.85254-.32715,3.26061,3.26061,0,0,1,.93945-2.13965,3.34743,3.34743,0,0,1,4.62207,0,3.254,3.254,0,0,1-2.13965,5.56152.49959.49959,0,0,0-.32715.85254l4.24414,4.24414A2.0152,2.0152,0,0,1,40.41113,20.87012Z"/></g><g id="Sub_Icons" data-name="Sub Icons"><path class="cls-1" d="M39.6709,36.624,36.5,39.39844V31.5a.5.5,0,0,0-1,0v7.89844L32.3291,36.624a.49967.49967,0,1,0-.6582.752l4,3.5a87.31483,87.31483,0,0,0,.14551.08691.47268.47268,0,0,0,.36718,0,87.31483,87.31483,0,0,0,.14551-.08691l4-3.5a.49967.49967,0,0,0-.6582-.752Z"/></g></svg>