<svg xmlns="http://www.w3.org/2000/svg" viewBox="0 0 48 48"><defs><style>.cls-1{fill:#ff6c2c;fill-rule:evenodd;}</style></defs><g id="Base_Icons" data-name="Base Icons"><path d="M41.5,38H6.50049A1.50206,1.50206,0,0,1,5,36.5V14.5498a.5.5,0,1,1,1,0V36.5a.50107.50107,0,0,0,.50049.5H41.5a.501.501,0,0,0,.5-.5v-25a.501.501,0,0,0-.5-.5H13.72266a.5.5,0,1,1,0-1H41.5A1.50164,1.50164,0,0,1,43,11.5v25A1.50164,1.50164,0,0,1,41.5,38Z"/><path d="M5.5,11a.40041.40041,0,0,1-.18994-.04.36207.36207,0,0,1-.16016-.11035A.453.453,0,0,1,5,10.5a.47136.47136,0,0,1,.1499-.35059A.35231.35231,0,0,1,5.31006,10.04a.45657.45657,0,0,1,.37988,0,.34833.34833,0,0,1,.15967.10937A.47183.47183,0,0,1,6,10.5a.40679.40679,0,0,1-.04.18945.35172.35172,0,0,1-.11035.16016.35789.35789,0,0,1-.15967.11035A.40294.40294,0,0,1,5.5,11Z"/><path d="M8.24023,11a.40241.40241,0,0,1-.19043-.04.36479.36479,0,0,1-.16015-.11035A.45421.45421,0,0,1,7.74023,10.5a.47271.47271,0,0,1,.14942-.35059A.41618.41618,0,0,1,8.0498,10.04a.49507.49507,0,0,1,.54.10937A.47365.47365,0,0,1,8.74023,10.5a.41308.41308,0,0,1-.04.18945.53712.53712,0,0,1-.27051.27051A.401.401,0,0,1,8.24023,11Z"/><path d="M10.97949,11a.401.401,0,0,1-.18945-.04.35936.35936,0,0,1-.16016-.11035A.455.455,0,0,1,10.47949,10.5a.50434.50434,0,0,1,.69043-.46.35491.35491,0,0,1,.16016.10937.4727.4727,0,0,1,.14941.35059.40081.40081,0,0,1-.04.18945.34975.34975,0,0,1-.10937.16016.36482.36482,0,0,1-.16016.11035A.40489.40489,0,0,1,10.97949,11Z"/></g><g id="Sub_Icons" data-name="Sub Icons"><g id="logo"><path class="cls-1" d="M19.25342,22.46328a2.56577,2.56577,0,0,1-.24642,1.18079,2.09919,2.09919,0,0,1-.66427.774,2.85333,2.85333,0,0,1-.96426.42938,4.69854,4.69854,0,0,1-1.13568.13559H15.3321V28H13.5V20h2.78564a4.96826,4.96826,0,0,1,1.16247.12994,2.66793,2.66793,0,0,1,.94284.41808,1.99592,1.99592,0,0,1,.63212.75706,2.61317,2.61317,0,0,1,.23035,1.1582Zm-1.71431-.04339a.84321.84321,0,0,0-.11036-.453.76925.76925,0,0,0-.298-.27624,1.277,1.277,0,0,0-.42488-.1326,3.5465,3.5465,0,0,0-.49109-.03315h-.82769v1.84531h.79458a2.831,2.831,0,0,0,.50765-.0442,1.36161,1.36161,0,0,0,.43592-.1547.82809.82809,0,0,0,.30348-.29282.8726.8726,0,0,0,.11036-.45856Zm7.18007,2.15154a1.16928,1.16928,0,0,0-.30063-.806,1.14678,1.14678,0,0,0-.90187-.33684,1.55391,1.55391,0,0,0-.53989.09023,1.40491,1.40491,0,0,0-.42946.24661,1.22348,1.22348,0,0,0-.29449.36692,1.058,1.058,0,0,0-.1227.4391Zm1.43835.63612v.21563a1.80642,1.80642,0,0,1-.01108.20485h-4.0019a.92013.92013,0,0,0,.13857.40971,1.17771,1.17771,0,0,0,.29931.31806,1.46421,1.46421,0,0,0,.41017.21024,1.48512,1.48512,0,0,0,.47113.07547,1.56524,1.56524,0,0,0,.73165-.15633,1.4374,1.4374,0,0,0,.48777-.40432l1.26376.77628a2.53955,2.53955,0,0,1-1.02542.84636A3.47492,3.47492,0,0,1,23.44156,28a3.62157,3.62157,0,0,1-1.17507-.18868,2.87279,2.87279,0,0,1-.97-.54986,2.54947,2.54947,0,0,1-.65405-.88949,2.90771,2.90771,0,0,1-.23834-1.20755,2.94936,2.94936,0,0,1,.2328-1.19137,2.69146,2.69146,0,0,1,.63188-.90566,2.82876,2.82876,0,0,1,.94227-.57682,3.3032,3.3032,0,0,1,1.17507-.20486,3.04813,3.04813,0,0,1,1.11965.19947,2.44142,2.44142,0,0,1,.87576.57681,2.65252,2.65252,0,0,1,.57091.91645,3.43952,3.43952,0,0,1,.20508,1.22911Zm5.10486-1.27005a1.26131,1.26131,0,0,0-.22491-.04464,2.1212,2.1212,0,0,0-.21444-.01116,1.15848,1.15848,0,0,0-.58057.13393,1.2003,1.2003,0,0,0-.37659.32366,1.25594,1.25594,0,0,0-.204.41294,1.47031,1.47031,0,0,0-.06276.39063V28H27.88356V22.442h1.6528v.80358h.02092a1.77469,1.77469,0,0,1,.56489-.692,1.39707,1.39707,0,0,1,.84732-.26786,1.82687,1.82687,0,0,1,.204.01116.74281.74281,0,0,1,.16215.03349ZM32.774,28V20H34.5v8Z"/></g></g></svg>