<svg xmlns="http://www.w3.org/2000/svg" viewBox="0 0 48 48"><defs><style>.cls-1{fill:#ff6c2c;}</style></defs><g id="Base_Icons" data-name="Base Icons"><path d="M42,8.50293A1.50414,1.50414,0,0,0,40.49707,7H7.502A1.50373,1.50373,0,0,0,6,8.502V22.49707a1.49064,1.49064,0,0,0,.38959,1.00049A1.48448,1.48448,0,0,0,6,24.49512V38.50293A1.49915,1.49915,0,0,0,7.49707,40H27a.5.5,0,0,0,0-1H7.49707A.49722.49722,0,0,1,7,38.50293V24.49512A.49513.49513,0,0,1,7.49512,24h33A.50554.50554,0,0,1,41,24.50488V27a.5.5,0,0,0,1,0V24.50488A1.49386,1.49386,0,0,0,41.60754,23.5,1.49215,1.49215,0,0,0,42,22.49609ZM7.50293,23A.50347.50347,0,0,1,7,22.49707V8.502A.50305.50305,0,0,1,7.502,8H40.49707A.50347.50347,0,0,1,41,8.50293V22.49609A.50389.50389,0,0,1,40.49609,23H7.50293Z"/><path d="M10.5,12.5a.49971.49971,0,0,0-.5.5v5a.5.5,0,0,0,1,0V13A.49971.49971,0,0,0,10.5,12.5Z"/><path d="M10,29v5a.5.5,0,0,0,1,0V29a.5.5,0,0,0-1,0Z"/><path d="M14,29v5a.5.5,0,0,0,1,0V29a.5.5,0,0,0-1,0Z"/></g><g id="Sub_Icons" data-name="Sub Icons"><path class="cls-1" d="M41.96387,34.582a1.04234,1.04234,0,0,0-.11524-.81641L40.919,32.21875a1.08426,1.08426,0,0,0-1.40625-.4248c-.03028.01074-.15235.02539-.17969.041a7.45965,7.45965,0,0,0-1.30762-.76172A1.08567,1.08567,0,0,0,36.92969,30H35.07031a1.14287,1.14287,0,0,0-1.127,1.123,9.82442,9.82442,0,0,0-1.375.708,1.11307,1.11307,0,0,0-1.48828.38868l-.92871,1.54589a1.0447,1.0447,0,0,0-.11524.81739,1.184,1.184,0,0,0,.55567.70117A5.09248,5.09248,0,0,0,30.541,36c0,.24316.01757.48145.01562.75586a1.06586,1.06586,0,0,0-.52051.66113,1.0447,1.0447,0,0,0,.11524.81739l.92968,1.54687a1.08426,1.08426,0,0,0,1.40625.4248c.03028-.01074.15235-.02539.17969-.041a7.45965,7.45965,0,0,0,1.30762.76172A1.08567,1.08567,0,0,0,35.07031,42h1.85938a1.14287,1.14287,0,0,0,1.127-1.123A5.50691,5.50691,0,0,0,39.333,40.165l.10058.00586a1.11367,1.11367,0,0,0,1.48633-.39063l.92871-1.54589a1.0447,1.0447,0,0,0,.11524-.81739,1.06586,1.06586,0,0,0-.52051-.66113l-.24219.4375.207-.47754A5.09248,5.09248,0,0,0,41.459,36c0-.24316-.01757-.48145-.01464-.75586A1.06623,1.06623,0,0,0,41.96387,34.582Zm-1.90138,4.68359a.11214.11214,0,0,1-.14843.02833,1.08538,1.08538,0,0,0-1.18066.07031,4.50867,4.50867,0,0,1-1.04492.583,1.0489,1.0489,0,0,0-.66309.97949A.08744.08744,0,0,1,36.92969,41H35.07031a.08846.08846,0,0,1-.0957-.07422,1.047,1.047,0,0,0-.66406-.97851,4.52182,4.52182,0,0,1-1.044-.583,1.06959,1.06959,0,0,0-.64062-.21094,1.11619,1.11619,0,0,0-.54493.14258.11008.11008,0,0,1-.14257-.0293L31.043,37.62988a1.04154,1.04154,0,0,0,.53906-1.05664,4.02012,4.02012,0,0,1,0-1.14551,1.21383,1.21383,0,0,0-.57324-1.14648l.9287-1.54687a.11731.11731,0,0,1,.14845-.02833,1.09148,1.09148,0,0,0,1.18066-.07031,4.50826,4.50826,0,0,1,1.04492-.583,1.0489,1.0489,0,0,0,.66309-.97949A.08744.08744,0,0,1,35.07031,31h1.85938a.08846.08846,0,0,1,.0957.07422,1.047,1.047,0,0,0,.66406.97851,4.52223,4.52223,0,0,1,1.044.583,1.0911,1.0911,0,0,0,1.18555.06836.10755.10755,0,0,1,.14257.0293l.89551,1.63672a1.04154,1.04154,0,0,0-.53906,1.05664,4.02012,4.02012,0,0,1,0,1.14551,1.04216,1.04216,0,0,0,.53906,1.05761l.03418.08887Z"/><path class="cls-1" d="M37.25,33.834a2.49982,2.49982,0,1,0,.915,3.416h.001A2.50612,2.50612,0,0,0,37.25,33.834Zm.0498,2.916a1.49962,1.49962,0,1,1-.5498-2.0498A1.50365,1.50365,0,0,1,37.2998,36.75Z"/></g></svg>