<svg xmlns="http://www.w3.org/2000/svg" viewBox="0 0 48 48"><defs><style>.cls-1{fill:#ff6c2c;}</style></defs><g id="Base_Icons" data-name="Base Icons"><path d="M36.19818,8.16016h4.14166a.5.5,0,1,0,0-1H34.66016a.49971.49971,0,0,0-.5.5v5.67968a.5.5,0,1,0,1,0V8.62744A18.99709,18.99709,0,0,1,24,43a.5.5,0,0,0,0,1A19.99357,19.99357,0,0,0,36.19818,8.16016Z"/><path d="M13.33984,34.16016a.49972.49972,0,0,0-.5.5v4.7124A18.99709,18.99709,0,0,1,24,5a.5.5,0,0,0,0-1A19.99357,19.99357,0,0,0,11.80182,39.83984H7.66016a.5.5,0,1,0,0,1h5.67968a.49971.49971,0,0,0,.5-.5V34.66016A.49971.49971,0,0,0,13.33984,34.16016Z"/></g><g id="Sub_Icons" data-name="Sub Icons"><path class="cls-1" d="M17.75,15.5a.49971.49971,0,0,0-.5.5V32a.5.5,0,0,0,1,0V16A.49971.49971,0,0,0,17.75,15.5Z"/><path class="cls-1" d="M27.417,26.09961a5.29991,5.29991,0,1,0,0-10.59961H22.583a.49971.49971,0,0,0-.5.5V32a.5.5,0,0,0,1,0V26.09961Zm0-9.59961a4.29993,4.29993,0,1,1,0,8.59961H23.083V16.5Z"/></g></svg>