<svg xmlns="http://www.w3.org/2000/svg" viewBox="0 0 48 48"><defs><style>.cls-1{fill:#ff6c2c;}</style></defs><g id="Base_Icons" data-name="Base Icons"><path d="M33,26.5a.49971.49971,0,0,0-.5-.5h-17a.50008.50008,0,0,0-.3252.87988l7,6A.4954.4954,0,0,0,22.5,33a.5.5,0,0,0,.3252-.87988L16.85156,27H32.5A.49971.49971,0,0,0,33,26.5Z"/><path d="M15,21.5a.49971.49971,0,0,0,.5.5h17a.50008.50008,0,0,0,.3252-.87988l-7-6a.50006.50006,0,1,0-.6504.75976L31.14844,21H15.5A.49971.49971,0,0,0,15,21.5Z"/><path d="M24,3a21.00246,21.00246,0,0,0-4.56641,41.502.52511.52511,0,0,0,.1084.01172.50007.50007,0,0,0,.1084-.98828A19.98964,19.98964,0,1,1,43.05273,30.09766a.50032.50032,0,0,0,.95313.30468A21.01517,21.01517,0,0,0,24,3Z"/></g><g id="Sub_Icons" data-name="Sub Icons"><path class="cls-1" d="M36.22363,38.05273a.50139.50139,0,0,0-.6709.22364L34.5,40.38184l-1.05273-2.10547a.50006.50006,0,0,0-.89454.44726l1.5,3a.50011.50011,0,0,0,.89454,0l1.5-3A.50056.50056,0,0,0,36.22363,38.05273Z"/><path class="cls-1" d="M39.92969,37.64844a2.17623,2.17623,0,0,0-1.43653.51269c.09473-1.27148.67188-1.9414,1.67676-1.9414a1.61156,1.61156,0,0,1,.86035.16894l.00592.00244a1.16856,1.16856,0,0,1,.18073.13013.49847.49847,0,0,0,.706.02441.47476.47476,0,0,0,.00275-.686,2.00766,2.00766,0,0,0-.72137-.50269,2.96626,2.96626,0,0,0-1.03443-.18213c-1.66211,0-2.65527,1.26465-2.65527,3.38282,0,2.14941.89941,3.38281,2.46777,3.38281a2.14633,2.14633,0,0,0-.05273-4.292Zm.05273,3.25a1.1465,1.1465,0,0,1-1.26855-1.0918,1.1289,1.1289,0,0,1,1.21582-1.11328,1.10384,1.10384,0,1,1,.05273,2.20508Z"/><path class="cls-1" d="M29,35H27a.49971.49971,0,0,0-.5.5v6a.5.5,0,0,0,1,0V40H29a2.5,2.5,0,0,0,0-5Zm0,4H27.5V36H29a1.5,1.5,0,0,1,0,3Z"/><path class="cls-1" d="M24,35a.49971.49971,0,0,0-.5.5v6a.5.5,0,0,0,1,0v-6A.49971.49971,0,0,0,24,35Z"/></g></svg>