<svg xmlns="http://www.w3.org/2000/svg" viewBox="0 0 48 48"><defs><style>.cls-1{fill:#ff6c2c;}</style></defs><g id="Base_Icons" data-name="Base Icons"><path d="M40.5016,8.5H7.49867a1.50122,1.50122,0,0,0-1.499,1.499V22.001a1.50122,1.50122,0,0,0,1.499,1.499H40.5016a1.50039,1.50039,0,0,0,1.498-1.499V9.999A1.50039,1.50039,0,0,0,40.5016,8.5Zm0,14H7.49867a.49929.49929,0,0,1-.499-.499V9.999a.49929.49929,0,0,1,.499-.499H40.5016a.49909.49909,0,0,1,.498.499V12.5H39.76918a.76978.76978,0,0,0-.76953.76953v6.46094a.76978.76978,0,0,0,.76953.76953h1.23047v1.501A.49909.49909,0,0,1,40.5016,22.5Zm.498-3h-1v-6h1Z"/><path d="M17.85316,12.64648a.49982.49982,0,0,0-.707,0l-.91345.91346a2.96209,2.96209,0,0,0-3.4657-.00037l-.91382-.91309a.49995.49995,0,0,0-.707.707l.91376.91308a2.96172,2.96172,0,0,0,0,3.4668l-.91376.91308a.49995.49995,0,1,0,.707.707l.91382-.91309a2.96209,2.96209,0,0,0,3.4657-.00037l.91345.91346a.49995.49995,0,1,0,.707-.707l-.91345-.91345a2.96186,2.96186,0,0,0,0-3.46606l.91345-.91345A.49981.49981,0,0,0,17.85316,12.64648ZM12.49965,16a2,2,0,1,1,2,2A2.0026,2.0026,0,0,1,12.49965,16Z"/><path d="M40.5016,26.5H7.49867a1.50122,1.50122,0,0,0-1.499,1.499V39.001a1.50122,1.50122,0,0,0,1.499,1.499H27.5016a.5.5,0,0,0,0-1H7.49867a.49929.49929,0,0,1-.499-.499V27.999a.49929.49929,0,0,1,.499-.499H40.5016a.49909.49909,0,0,1,.498.499.5.5,0,0,0,1,0A1.50039,1.50039,0,0,0,40.5016,26.5Z"/><path d="M17.85316,30.14648a.49982.49982,0,0,0-.707,0l-.91345.91346a2.96209,2.96209,0,0,0-3.4657-.00037l-.91382-.91309a.49995.49995,0,0,0-.707.707l.91376.91308a2.96172,2.96172,0,0,0,0,3.4668l-.91376.91308a.49995.49995,0,1,0,.707.707l.91382-.91309a2.96209,2.96209,0,0,0,3.4657-.00037l.91345.91346a.49995.49995,0,1,0,.707-.707l-.91345-.91345a2.96186,2.96186,0,0,0,0-3.46606l.91345-.91345A.49981.49981,0,0,0,17.85316,30.14648ZM12.49965,33.5a2,2,0,1,1,2,2A2.0026,2.0026,0,0,1,12.49965,33.5Z"/></g><g id="Sub_Icons" data-name="Sub Icons"><path class="cls-1" d="M41.49965,35.5a.49971.49971,0,0,0-.5.5,4.98942,4.98942,0,0,1-8.47553,3.58008h.61615a.5.5,0,0,0,0-1H31.38051a.49971.49971,0,0,0-.5.5v1.75976a.5.5,0,0,0,1,0v-.49316A5.988,5.988,0,0,0,41.99965,36,.49972.49972,0,0,0,41.49965,35.5Z"/><path class="cls-1" d="M35.99965,31a5.00346,5.00346,0,0,1,3.4765,1.41992H38.86a.5.5,0,0,0,0,1h1.75976a.49971.49971,0,0,0,.5-.5V31.16016a.5.5,0,0,0-1,0v.493A5.98875,5.98875,0,0,0,29.99965,36a.5.5,0,0,0,1,0A5.00588,5.00588,0,0,1,35.99965,31Z"/></g></svg>