<svg xmlns="http://www.w3.org/2000/svg" viewBox="0 0 48 48"><defs><style>.cls-1{fill:#ff6c2c;}</style></defs><g id="Base_Icons" data-name="Base Icons"><path d="M40.5,6H7.5A1.50164,1.50164,0,0,0,6,7.5v33A1.50164,1.50164,0,0,0,7.5,42h21a.5.5,0,0,0,0-1H7.5a.501.501,0,0,1-.5-.5V7.5A.501.501,0,0,1,7.5,7h33a.501.501,0,0,1,.5.5V18h-.4043A.59683.59683,0,0,0,40,18.5957v6.8086A.59683.59683,0,0,0,40.5957,26H41v2.5a.5.5,0,0,0,1,0V7.5A1.50164,1.50164,0,0,0,40.5,6Z"/><path d="M37.5,27.48535a.49971.49971,0,0,0,.5-.5V11.002A1.00276,1.00276,0,0,0,36.99805,10H11.002A1.00276,1.00276,0,0,0,10,11.002v25.9961A1.00276,1.00276,0,0,0,11.002,38h15.9834a.5.5,0,0,0,0-1L11,36.99805,11.002,11,37,11.002v15.9834A.49971.49971,0,0,0,37.5,27.48535Z"/><path d="M29.35352,18.38281a.49983.49983,0,0,0-.707,0L27.3678,19.6615a5.46326,5.46326,0,0,0-6.7356,0l-1.27868-1.27869a.49995.49995,0,0,0-.707.707l1.25531,1.25537a5.46435,5.46435,0,0,0-.24029,7.02259l-1.015,1.015a.49995.49995,0,1,0,.707.707l.99163-.9917a5.46529,5.46529,0,0,0,7.3097,0l.99163.9917a.49995.49995,0,1,0,.707-.707l-1.015-1.015a5.46435,5.46435,0,0,0-.24029-7.02259l1.25531-1.25537A.49982.49982,0,0,0,29.35352,18.38281ZM24,28.5A4.5,4.5,0,1,1,28.5,24,4.50491,4.50491,0,0,1,24,28.5Z"/></g><g id="Sub_Icons" data-name="Sub Icons"><path class="cls-1" d="M41.96387,34.582a1.04234,1.04234,0,0,0-.11524-.81641L40.919,32.21875a1.08524,1.08524,0,0,0-1.40625-.4248c-.03028.01074-.15235.02539-.17969.041a7.45965,7.45965,0,0,0-1.30762-.76172A1.08567,1.08567,0,0,0,36.92969,30H35.07031a1.14287,1.14287,0,0,0-1.127,1.123,9.82442,9.82442,0,0,0-1.375.708,1.11469,1.11469,0,0,0-1.48828.38868l-.92871,1.54589a1.0447,1.0447,0,0,0-.11524.81739,1.184,1.184,0,0,0,.55567.70117A5.09248,5.09248,0,0,0,30.541,36c0,.24316.01757.48145.01562.75586a1.06586,1.06586,0,0,0-.52051.66113,1.0447,1.0447,0,0,0,.11524.81739l.92968,1.54687a1.08524,1.08524,0,0,0,1.40625.4248c.03028-.01074.15235-.02539.17969-.041a7.45965,7.45965,0,0,0,1.30762.76172A1.08567,1.08567,0,0,0,35.07031,42h1.85938a1.14287,1.14287,0,0,0,1.127-1.123A5.50691,5.50691,0,0,0,39.333,40.165l.10058.00586a1.11318,1.11318,0,0,0,1.48633-.39063l.92871-1.54589a1.0447,1.0447,0,0,0,.11524-.81739,1.06586,1.06586,0,0,0-.52051-.66113l-.24219.4375.207-.47754A5.09248,5.09248,0,0,0,41.459,36c0-.24316-.01757-.48145-.01464-.75586A1.06623,1.06623,0,0,0,41.96387,34.582Zm-1.90138,4.68359a.11115.11115,0,0,1-.14843.02833,1.08538,1.08538,0,0,0-1.18066.07031,4.50867,4.50867,0,0,1-1.04492.583,1.0489,1.0489,0,0,0-.66309.97949A.08744.08744,0,0,1,36.92969,41H35.07031a.08846.08846,0,0,1-.0957-.07422,1.047,1.047,0,0,0-.66406-.97851,4.52182,4.52182,0,0,1-1.044-.583,1.06959,1.06959,0,0,0-.64062-.21094,1.11619,1.11619,0,0,0-.54493.14258.11009.11009,0,0,1-.14257-.0293L31.043,37.62988a1.04154,1.04154,0,0,0,.53906-1.05664,4.02012,4.02012,0,0,1,0-1.14551,1.21383,1.21383,0,0,0-.57324-1.14648l.9287-1.54687a.1185.1185,0,0,1,.14845-.02833,1.09148,1.09148,0,0,0,1.18066-.07031,4.50826,4.50826,0,0,1,1.04492-.583,1.0489,1.0489,0,0,0,.66309-.97949A.08744.08744,0,0,1,35.07031,31h1.85938a.08846.08846,0,0,1,.0957.07422,1.047,1.047,0,0,0,.66406.97851,4.52223,4.52223,0,0,1,1.044.583,1.09326,1.09326,0,0,0,1.18555.06836.10755.10755,0,0,1,.14257.0293l.89551,1.63672a1.04154,1.04154,0,0,0-.53906,1.05664,4.02012,4.02012,0,0,1,0,1.14551,1.04216,1.04216,0,0,0,.53906,1.05761l.03418.08887Z"/><path class="cls-1" d="M37.25,33.834a2.49982,2.49982,0,1,0,.915,3.416h.001A2.50612,2.50612,0,0,0,37.25,33.834Zm.0498,2.916a1.49962,1.49962,0,1,1-.5498-2.0498A1.50279,1.50279,0,0,1,37.2998,36.75Z"/></g></svg>