<svg xmlns="http://www.w3.org/2000/svg" viewBox="0 0 48 48"><defs><style>.cls-1{fill:#ff6c2c;}</style></defs><g id="Base_Icons" data-name="Base Icons"><path d="M40.5,6H7.5A1.50164,1.50164,0,0,0,6,7.5v33A1.50164,1.50164,0,0,0,7.5,42h21a.5.5,0,0,0,0-1H7.5a.501.501,0,0,1-.5-.5V7.5A.501.501,0,0,1,7.5,7h33a.501.501,0,0,1,.5.5V18h-.4043A.59683.59683,0,0,0,40,18.5957v6.8086A.59683.59683,0,0,0,40.5957,26H41v2.5a.5.5,0,0,0,1,0V7.5A1.50164,1.50164,0,0,0,40.5,6Z"/><path d="M37.5,27.48535a.49971.49971,0,0,0,.5-.5V11.002A1.00276,1.00276,0,0,0,36.99805,10H11.002A1.00276,1.00276,0,0,0,10,11.002v25.9961A1.00276,1.00276,0,0,0,11.002,38h15.9834a.5.5,0,0,0,0-1L11,36.99805,11.002,11,37,11.002v15.9834A.49971.49971,0,0,0,37.5,27.48535Z"/><path d="M29.35352,18.38281a.49983.49983,0,0,0-.707,0L27.3678,19.6615a5.46326,5.46326,0,0,0-6.7356,0l-1.27868-1.27869a.49995.49995,0,0,0-.707.707l1.25531,1.25537a5.46435,5.46435,0,0,0-.24029,7.02259l-1.015,1.015a.49995.49995,0,1,0,.707.707l.99163-.9917a5.46529,5.46529,0,0,0,7.3097,0l.99163.9917a.49995.49995,0,1,0,.707-.707l-1.015-1.015a5.46435,5.46435,0,0,0-.24029-7.02259l1.25531-1.25537A.49982.49982,0,0,0,29.35352,18.38281ZM24,28.5A4.5,4.5,0,1,1,28.5,24,4.50491,4.50491,0,0,1,24,28.5Z"/></g><g id="Sub_Icons" data-name="Sub Icons"><path class="cls-1" d="M41.5,35.5a.49971.49971,0,0,0-.5.5,4.98994,4.98994,0,0,1-8.47626,3.58008h.61688a.5.5,0,0,0,0-1H31.38086a.49971.49971,0,0,0-.5.5v1.75976a.5.5,0,0,0,1,0v-.49316A5.988,5.988,0,0,0,42,36,.49971.49971,0,0,0,41.5,35.5Z"/><path class="cls-1" d="M36,31a5.00867,5.00867,0,0,1,3.47626,1.41992h-.61688a.5.5,0,0,0,0,1h1.75976a.49971.49971,0,0,0,.5-.5V31.16016a.5.5,0,0,0-1,0v.493A5.98806,5.98806,0,0,0,30,36a.5.5,0,0,0,1,0A5.00588,5.00588,0,0,1,36,31Z"/></g></svg>