<svg xmlns="http://www.w3.org/2000/svg" viewBox="0 0 48 48"><defs><style>.cls-1{fill:#ff6c2c;}</style></defs><g id="Base_Icons" data-name="Base Icons"><path d="M40.05188,17.33887a.27489.27489,0,0,0-.10962-.18018,18.61058,18.61058,0,0,0-6.60339-6.602.48045.48045,0,0,0-.08887-.07812.47116.47116,0,0,0-.089-.03,18.3621,18.3621,0,0,0-18.32092-.00061.46481.46481,0,0,0-.09009.03064.48045.48045,0,0,0-.08887.07812A18.61042,18.61042,0,0,0,8.0567,17.1604a.27038.27038,0,0,0-.10858.17847A18.43761,18.43761,0,0,0,7.97754,35.751a.50055.50055,0,0,0,.68359.18164c.00525-.00305.00794-.0083.013-.01148l.00067-.00024,2.2959-1.3252a.49966.49966,0,1,0-.5-.86523L8.606,34.80676a17.48083,17.48083,0,0,1-2.0896-7.80969H8.667a.5.5,0,0,0,0-1H6.52533a17.37972,17.37972,0,0,1,2.07873-7.80981l1.86664,1.07739a.49966.49966,0,0,0,.5-.86524L9.12134,17.332a17.60305,17.60305,0,0,1,5.71155-5.71081l1.0675,1.84948a.49966.49966,0,1,0,.86523-.5L15.68823,11.104A17.38411,17.38411,0,0,1,23.5,9.02539V11.166a.5.5,0,1,0,1,0V9.02539A17.38411,17.38411,0,0,1,32.31177,11.104l-1.07739,1.8667a.49966.49966,0,1,0,.86523.5l1.0675-1.84948A17.60305,17.60305,0,0,1,38.87866,17.332L37.0293,18.39941a.49966.49966,0,1,0,.5.86524l1.86664-1.07739a17.37972,17.37972,0,0,1,2.07873,7.80981H39.333a.5.5,0,0,0,0,1h2.14538a17.61728,17.61728,0,0,1-.24206,2.543.4998.4998,0,0,0,.98437.17383,18.59753,18.59753,0,0,0,.2793-3.2168A18.36027,18.36027,0,0,0,40.05188,17.33887Z"/><path d="M30.61426,21.37305a.49995.49995,0,1,0-.707-.707l-4.2818,4.28088a2.85974,2.85974,0,1,0,.707.707ZM24,29.127a1.84766,1.84766,0,1,1,1.30536-3.15381l.0003.00049.00049.00025A1.84665,1.84665,0,0,1,24,29.127Z"/></g><g id="Sub_Icons" data-name="Sub Icons"><path class="cls-1" d="M39,33a3,3,0,1,0-3,3A3.00328,3.00328,0,0,0,39,33Zm-5,0a2,2,0,1,1,2,2A2.0026,2.0026,0,0,1,34,33Z"/><path class="cls-1" d="M41.5,38a.49971.49971,0,0,0-.5.5v2.001a.49929.49929,0,0,1-.499.499H31.499A.49929.49929,0,0,1,31,40.501V38.5a.5.5,0,0,0-1,0v2.001A1.50122,1.50122,0,0,0,31.499,42h9.002A1.50122,1.50122,0,0,0,42,40.501V38.5A.49971.49971,0,0,0,41.5,38Z"/></g></svg>