<svg xmlns="http://www.w3.org/2000/svg" viewBox="0 0 48 48"><defs><style>.cls-1{fill:#ff6c2c;}</style></defs><g id="Base_Icons" data-name="Base Icons"><path d="M10.5,18.5A.49971.49971,0,0,0,11,18V13a.5.5,0,0,0-1,0v5A.49971.49971,0,0,0,10.5,18.5Z"/><path d="M28,39H7.49707A.49722.49722,0,0,1,7,38.50293v-13.998A.50554.50554,0,0,1,7.50488,24H40.49512A.50554.50554,0,0,1,41,24.50488V26a.5.5,0,0,0,1,0V24.50488l-.00067-.00653L42,24.49512a1.48351,1.48351,0,0,0-.39-.99793,1.49242,1.49242,0,0,0,.39-1.0011V8.50293A1.50414,1.50414,0,0,0,40.49707,7H7.502A1.50373,1.50373,0,0,0,6,8.502V22.49707a1.49119,1.49119,0,0,0,.38959,1.00061A1.48383,1.48383,0,0,0,6,24.49512V38.50293A1.49915,1.49915,0,0,0,7.49707,40H28a.5.5,0,0,0,0-1ZM7,8.502A.50305.50305,0,0,1,7.502,8H40.49707A.50347.50347,0,0,1,41,8.50293V22.49609A.50389.50389,0,0,1,40.49609,23H7.50293A.50347.50347,0,0,1,7,22.49707Z"/><path d="M10,29v5a.5.5,0,0,0,1,0V29a.5.5,0,0,0-1,0Z"/><path d="M14,29v5a.5.5,0,0,0,1,0V29a.5.5,0,0,0-1,0Z"/></g><g id="Sub_Icons" data-name="Sub Icons"><path class="cls-1" d="M44,31.5a2.5,2.5,0,1,0-3,2.44946V38.502a.49888.49888,0,0,1-.498.498H35.94946a2.5,2.5,0,1,0,0,1H40.502A1.49956,1.49956,0,0,0,42,38.502V33.94946A2.50345,2.50345,0,0,0,44,31.5ZM33.5,41A1.5,1.5,0,1,1,35,39.5,1.50164,1.50164,0,0,1,33.5,41Zm8-8A1.5,1.5,0,1,1,43,31.5,1.50164,1.50164,0,0,1,41.5,33Z"/></g></svg>