<svg xmlns="http://www.w3.org/2000/svg" viewBox="0 0 48 48"><defs><style>.cls-1{fill:#ff6c2c;}</style></defs><g id="Base_Icons" data-name="Base Icons"><path d="M26.71973,38H9.03027a1.88954,1.88954,0,0,1-1.44336-.59863.82469.82469,0,0,1-.19726-.68457C8.65625,30.33887,17.05371,29,23.875,29a38.12755,38.12755,0,0,1,7.1748.60742.51243.51243,0,0,0,.58594-.39648.50114.50114,0,0,0-.39648-.58594A39.13442,39.13442,0,0,0,23.875,28C13.55566,28,7.5166,30.94629,6.40918,36.52148a1.80376,1.80376,0,0,0,.4043,1.51368A2.86458,2.86458,0,0,0,9.03027,39H26.71973a.5.5,0,0,0,0-1Z"/><path d="M33.25391,24.16406A.5.5,0,0,0,33.625,25a.4947.4947,0,0,0,.06555-.01367.49289.49289,0,0,0,.2616.23242,18.68763,18.68763,0,0,1,6.8164,4.38184.5.5,0,0,0,.7129-.70118,19.68151,19.68151,0,0,0-7.07135-4.56958,12.70537,12.70537,0,0,0-.414-16.16577.50056.50056,0,1,0-.74218.67188A11.667,11.667,0,0,1,33.25391,24.16406Z"/><path d="M24,24.5a8.495,8.495,0,0,1-7.81641-5.1543.50048.50048,0,0,0-.91992.39453A9.50161,9.50161,0,1,0,18.752,8.08008a.50026.50026,0,0,0,.55274.834A8.50016,8.50016,0,1,1,24,24.5Z"/><path d="M6.75,9.5h6a.5.5,0,0,0,0-1h-6a.5.5,0,0,0,0,1Z"/><path d="M6.75,12.5h9.5a.5.5,0,0,0,0-1H6.75a.5.5,0,0,0,0,1Z"/><path d="M6.75,15.5h8.5a.5.5,0,0,0,0-1H6.75a.5.5,0,0,0,0,1Z"/></g><g id="Sub_Icons" data-name="Sub Icons"><path class="cls-1" d="M37.5,34a.49971.49971,0,0,0-.5.5v3a.5.5,0,0,0,1,0v-3A.49971.49971,0,0,0,37.5,34Z"/><path class="cls-1" d="M36,30a6,6,0,1,0,6,6A6.00657,6.00657,0,0,0,36,30Zm0,11a5,5,0,1,1,5-5A5.00588,5.00588,0,0,1,36,41Z"/><path class="cls-1" d="M34.5,34a.49971.49971,0,0,0-.5.5v3a.5.5,0,0,0,1,0v-3A.49971.49971,0,0,0,34.5,34Z"/></g></svg>