<svg xmlns="http://www.w3.org/2000/svg" viewBox="0 0 48 48"><defs><style>.cls-1{fill:#ff6c2c;}</style></defs><g id="Base_Icons" data-name="Base Icons"><path d="M35.5,12.49609V16.5a.5.5,0,0,0,1,0V12.49609A1.49747,1.49747,0,0,0,35.00391,11H24.5V6.49609A1.49747,1.49747,0,0,0,23.00391,5H19.5a.5.5,0,0,0,0,1h3.50391A.4968.4968,0,0,1,23.5,6.49609V11H13.00293A1.50414,1.50414,0,0,0,11.5,12.50293V16.5a.5.5,0,0,0,1,0V12.50293A.50347.50347,0,0,1,13.00293,12h22.001A.4968.4968,0,0,1,35.5,12.49609Z"/><path d="M36,21a9.00984,9.00984,0,0,0-9,9,8.9184,8.9184,0,0,0,.91113,3.9502,9.056,9.056,0,0,0,.72754,1.22949.50218.50218,0,0,0,.40918.21191.49455.49455,0,0,0,.28809-.0918.50034.50034,0,0,0,.12109-.69628A7.83838,7.83838,0,0,1,28.02789,30.5h3.49292c.00965.35327.0152.70911.04364,1.0498a.50384.50384,0,0,0,.54.45606.49881.49881,0,0,0,.45606-.54c-.02637-.31335-.03076-.64111-.03992-.96582H39.485c-.01539.55054-.04792,1.09595-.1139,1.62207a.49986.49986,0,0,0,.43457.55762.43847.43847,0,0,0,.0625.0039.50016.50016,0,0,0,.49512-.43847c.07086-.566.106-1.15283.12164-1.74512H43.972a7.9001,7.9001,0,0,1-.79132,3.03223,8.14622,8.14622,0,0,1-.41113.73339.49988.49988,0,1,0,.8457.53321A9.00166,9.00166,0,0,0,36,21Zm7.97467,8.5H40.48779a12.33955,12.33955,0,0,0-2.07373-7.12585A8.0103,8.0103,0,0,1,43.97467,29.5ZM36,22c1.63031,0,3.36639,2.99487,3.48816,7.5H32.51184C32.63361,24.99487,34.36969,22,36,22Zm-2.41406.37415A12.33955,12.33955,0,0,0,31.51221,29.5H28.02533A8.0103,8.0103,0,0,1,33.58594,22.37415Z"/><path d="M31.75,35.5h6a.5.5,0,0,0,0-1h-6a.5.5,0,0,0,0,1Z"/><path d="M41.25,37.5h-9.5a.5.5,0,0,0,0,1h9.5a.5.5,0,0,0,0-1Z"/><path d="M40.25,40.5h-8.5a.5.5,0,0,0,0,1h8.5a.5.5,0,0,0,0-1Z"/></g><g id="Sub_Icons" data-name="Sub Icons"><path class="cls-1" d="M12,21a9,9,0,1,0,9,9A9,9,0,0,0,12,21Zm7.97467,8.5h-3.4873A12.36678,12.36678,0,0,0,14.369,22.3584,8.01124,8.01124,0,0,1,19.97467,29.5ZM12,38c-1.59576,0-3.36206-3.05713-3.48779-7.5h6.97558C15.36206,34.94287,13.59576,38,12,38ZM8.51221,29.5C8.63794,25.05713,10.40424,22,12,22s3.36206,3.05713,3.48779,7.5ZM9.631,22.3584A12.36678,12.36678,0,0,0,7.51263,29.5H4.02533A8.01124,8.01124,0,0,1,9.631,22.3584ZM4.02533,30.5h3.4873A12.36678,12.36678,0,0,0,9.631,37.6416,8.01124,8.01124,0,0,1,4.02533,30.5ZM14.369,37.6416A12.36678,12.36678,0,0,0,16.48737,30.5h3.4873A8.01124,8.01124,0,0,1,14.369,37.6416Z"/></g></svg>