<svg xmlns="http://www.w3.org/2000/svg" viewBox="0 0 48 48"><defs><style>.cls-1{fill:#ff6c2c;}</style></defs><g id="Base_Icons" data-name="Base Icons"><path d="M24,3a20.80212,20.80212,0,0,0-8.96387,2.00391.50018.50018,0,1,0,.42774.90429A19.80369,19.80369,0,0,1,24,4,20.01335,20.01335,0,0,1,43.05273,30.09766a.50141.50141,0,0,0,.32422.6289.51551.51551,0,0,0,.15235.02344.50135.50135,0,0,0,.47656-.34766A21.01517,21.01517,0,0,0,24,3Z"/><path d="M29.9209,43.10938A20.01845,20.01845,0,0,1,4.65234,18.91211a.49979.49979,0,0,0-.96679-.25391A21.01575,21.01575,0,0,0,30.21582,44.06445a.49978.49978,0,1,0-.29492-.95507Z"/><path d="M18,27H30a.5.5,0,0,0,0-1H18a.5.5,0,0,0,0,1Z"/><path d="M18,22H30a.5.5,0,0,0,0-1H18a.5.5,0,0,0,0,1Z"/><path d="M6.75,9.5h6a.5.5,0,0,0,0-1h-6a.5.5,0,0,0,0,1Z"/><path d="M6.75,12.5h9.5a.5.5,0,0,0,0-1H6.75a.5.5,0,0,0,0,1Z"/><path d="M6.75,15.5h8.5a.5.5,0,0,0,0-1H6.75a.5.5,0,0,0,0,1Z"/></g><g id="Sub_Icons" data-name="Sub Icons"><path class="cls-1" d="M36,30a6,6,0,1,0,6,6A6,6,0,0,0,36,30Zm4.94946,5.5H38.98737a8.9206,8.9206,0,0,0-1.071-4.11523A4.99423,4.99423,0,0,1,40.94946,35.5ZM36,41c-.7688,0-1.85284-1.74438-1.97595-4.5H37.976C37.85284,39.25562,36.7688,41,36,41Zm-1.97595-5.5C34.14716,32.74438,35.2312,31,36,31s1.85284,1.74438,1.97595,4.5Zm.05957-4.11523A8.9206,8.9206,0,0,0,33.01263,35.5H31.05054A4.99423,4.99423,0,0,1,34.08362,31.38477ZM31.05054,36.5h1.96209a8.9206,8.9206,0,0,0,1.071,4.11523A4.99423,4.99423,0,0,1,31.05054,36.5Zm6.86584,4.11523A8.9206,8.9206,0,0,0,38.98737,36.5h1.96209A4.99423,4.99423,0,0,1,37.91638,40.61523Z"/></g></svg>