<svg xmlns="http://www.w3.org/2000/svg" viewBox="0 0 48 48"><defs><style>.cls-1{fill:#ff6c2c;}</style></defs><g id="Base_Icons" data-name="Base Icons"><path d="M28.99414,14.52539a.5012.5012,0,0,0-.55859.17578l-4.06348,5.46094-4.06348-5.46094A.50029.50029,0,0,0,19.40723,15V27a.5.5,0,0,0,1,0V16.50977l3.56347,4.78906a.52075.52075,0,0,0,.80274,0l3.56347-4.78906V27a.5.5,0,0,0,1,0V15A.49875.49875,0,0,0,28.99414,14.52539Z"/><path d="M15.7041,14.57715a.49833.49833,0,0,0-.68555.16015l-3.2843,5.29627L8.42188,14.73633a.4975.4975,0,1,0-.84376.52734L11.15,20.97577,7.57715,26.7373a.49781.49781,0,1,0,.8457.5254l3.31531-5.34626,3.28137,5.24762a.49624.49624,0,0,0,.42188.23438.49105.49105,0,0,0,.26367-.07617.49647.49647,0,0,0,.1582-.68555l-3.54083-5.66254,3.54181-5.71148A.49728.49728,0,0,0,15.7041,14.57715Z"/><path d="M33.30273,27.5H40a.5.5,0,0,0,0-1H33.80273V15a.5.5,0,0,0-1,0V27A.49972.49972,0,0,0,33.30273,27.5Z"/></g><g id="Sub_Icons" data-name="Sub Icons"><path class="cls-1" d="M40.832,35.126l-4.5-4a158.45419,158.45419,0,0,0-.14758-.08881.499.499,0,0,0-.3689,0,158.45419,158.45419,0,0,0-.14758.08881l-4.5,4a.50013.50013,0,1,0,.66406.748L35.5,32.6134V40.5a.5.5,0,0,0,1,0V32.6134L40.168,35.874a.50013.50013,0,1,0,.66406-.748Z"/></g></svg>