<svg xmlns="http://www.w3.org/2000/svg" viewBox="0 0 48 48"><defs><style>.cls-1{fill:#ff6c2c;}</style></defs><g id="Base_Icons" data-name="Base Icons"><path d="M26.81836,41H10.498A.49888.49888,0,0,1,10,40.502V12.915a.49456.49456,0,0,1,.14258-.35156l5.4209-5.42188A.48623.48623,0,0,1,15.91113,7H37.50391A.4968.4968,0,0,1,38,7.49609V26.5a.5.5,0,0,0,1,0V7.49609A1.49747,1.49747,0,0,0,37.50391,6H15.91113a1.48159,1.48159,0,0,0-1.05371.43359L9.43457,11.85742A1.48821,1.48821,0,0,0,9,12.915V40.502A1.49956,1.49956,0,0,0,10.498,42H26.81836a.5.5,0,0,0,0-1Z"/><path d="M17,12.43164V10.5a.5.5,0,0,0-1,0v1.93164A.56477.56477,0,0,1,15.43945,13H13.5a.5.5,0,0,0,0,1h1.93945A1.566,1.566,0,0,0,17,12.43164Z"/><path d="M32,27.5a.49971.49971,0,0,0-.5-.5h-17a.5.5,0,0,0,0,1h17A.49971.49971,0,0,0,32,27.5Z"/><path d="M14.5,34a.5.5,0,0,0,0,1h12a.5.5,0,0,0,0-1Z"/><path d="M34,20.5a.49971.49971,0,0,0-.5-.5h-19a.5.5,0,0,0,0,1h19A.49971.49971,0,0,0,34,20.5Z"/><path d="M33.5,13h-13a.5.5,0,0,0,0,1h13a.5.5,0,0,0,0-1Z"/></g><g id="Sub_Icons" data-name="Sub Icons"><path class="cls-1" d="M41.5,35.5a.49971.49971,0,0,0-.5.5,4.98994,4.98994,0,0,1-8.47626,3.58008h.61688a.5.5,0,0,0,0-1H31.38086a.49971.49971,0,0,0-.5.5v1.75976a.5.5,0,0,0,1,0v-.4931A5.988,5.988,0,0,0,42,36,.49971.49971,0,0,0,41.5,35.5Z"/><path class="cls-1" d="M36,31a5.00841,5.00841,0,0,1,3.47626,1.41992h-.61688a.5.5,0,0,0,0,1h1.75976a.49971.49971,0,0,0,.5-.5V31.16016a.5.5,0,0,0-1,0v.493A5.98806,5.98806,0,0,0,30,36a.5.5,0,0,0,1,0A5.00588,5.00588,0,0,1,36,31Z"/></g></svg>