<svg xmlns="http://www.w3.org/2000/svg" viewBox="0 0 48 48"><defs><style>.cls-1{fill:#ff6c2c;}</style></defs><g id="Base_Icons" data-name="Base Icons"><path d="M41.666,22h-.23615A17.70856,17.70856,0,0,0,24,5,17.70856,17.70856,0,0,0,6.57013,22H6.334A2.33644,2.33644,0,0,0,4,24.334v8.23243a2.33644,2.33644,0,0,0,2.334,2.334H6.5769C6.90735,37.75439,10.03,40,13.82617,40H20.6084a.5.5,0,1,0,0-1H13.82617c-3.233,0-5.90173-1.79785-6.24341-4.09961h.17017a2.33643,2.33643,0,0,0,2.334-2.334V24.334A2.33644,2.33644,0,0,0,7.75293,22H7.57007A16.69518,16.69518,0,0,1,24,6,16.69518,16.69518,0,0,1,40.42993,22h-.18286a2.33644,2.33644,0,0,0-2.334,2.334v4.23243a.5.5,0,1,0,1,0V24.334A1.33576,1.33576,0,0,1,40.24707,23h1.419A1.33576,1.33576,0,0,1,43,24.334v7.23243a.5.5,0,1,0,1,0V24.334A2.33644,2.33644,0,0,0,41.666,22ZM9.08691,24.334v8.23243a1.33576,1.33576,0,0,1-1.334,1.334H6.334A1.33576,1.33576,0,0,1,5,32.56641V24.334A1.33576,1.33576,0,0,1,6.334,23H7.75293A1.33576,1.33576,0,0,1,9.08691,24.334Z"/></g><g id="Sub_Icons" data-name="Sub Icons"><path class="cls-1" d="M40.14551,31.5h-8.291A1.85673,1.85673,0,0,0,30,33.35449v5.291A1.85673,1.85673,0,0,0,31.85449,40.5h8.291A1.85673,1.85673,0,0,0,42,38.64551v-5.291A1.85673,1.85673,0,0,0,40.14551,31.5ZM41,38.64551a.85606.85606,0,0,1-.85449.85449h-8.291A.85606.85606,0,0,1,31,38.64551v-5.291A.85606.85606,0,0,1,31.85449,32.5h8.291A.85606.85606,0,0,1,41,33.35449Z"/><path class="cls-1" d="M39.252,33.56543,36,35.42383l-3.252-1.8584a.50038.50038,0,1,0-.4961.86914l3.5,2a.5029.5029,0,0,0,.4961,0l3.5-2a.50038.50038,0,0,0-.4961-.86914Z"/></g></svg>