<svg xmlns="http://www.w3.org/2000/svg" viewBox="0 0 48 48"><defs><style>.cls-1{fill:#ff6c2c;}</style></defs><g id="Base_Icons" data-name="Base Icons"><path d="M40.2041,10.5H7.80176A1.84134,1.84134,0,0,0,6,12.374V35.62793A1.83926,1.83926,0,0,0,7.7998,37.5H26a.5.5,0,0,0,0-1H7.7998A.83923.83923,0,0,1,7,35.62793V12.58374l16.05469,9.65454a1.83217,1.83217,0,0,0,1.89062,0L41,12.58374V26a.5.5,0,0,0,1,0V12.36816A1.83509,1.83509,0,0,0,40.2041,10.5ZM24.42969,21.38086a.8286.8286,0,0,1-.85938,0L7.38373,11.647a.7353.7353,0,0,1,.418-.147H40.2041a.72946.72946,0,0,1,.41437.14569Z"/></g><g id="Sub_Icons" data-name="Sub Icons"><path class="cls-1" d="M36.92969,42H35.07031a1.08567,1.08567,0,0,1-1.0957-1.07324A7.45965,7.45965,0,0,1,32.667,40.165c-.02734.01562-.14941.03027-.17969.041a1.08551,1.08551,0,0,1-1.40625-.4248l-.92968-1.54687a1.0447,1.0447,0,0,1-.11524-.81739,1.06586,1.06586,0,0,1,.52051-.66113c.00195-.27441-.01562-.5127-.01562-.75586a5.09248,5.09248,0,0,1,.05078-.71582,1.184,1.184,0,0,1-.55567-.70117,1.0447,1.0447,0,0,1,.11524-.81739l.92871-1.54589a1.11351,1.11351,0,0,1,1.48828-.38868,9.82442,9.82442,0,0,1,1.375-.708A1.14287,1.14287,0,0,1,35.07031,30h1.85938a1.08567,1.08567,0,0,1,1.0957,1.07324A7.45965,7.45965,0,0,1,39.333,31.835c.02734-.01562.14941-.03027.17969-.041a1.08452,1.08452,0,0,1,1.40625.4248l.92968,1.54687a1.04234,1.04234,0,0,1,.11524.81641,1.06623,1.06623,0,0,1-.51953.66211c-.00293.27441.01464.5127.01464.75586a5.09248,5.09248,0,0,1-.05078.71582l-.207.47754.24219-.4375a1.06586,1.06586,0,0,1,.52051.66113,1.0447,1.0447,0,0,1-.11524.81739l-.92871,1.54589a1.11367,1.11367,0,0,1-1.48633.39063h0L39.333,40.165h0a5.50691,5.50691,0,0,1-1.27637.71191A1.14287,1.14287,0,0,1,36.92969,42ZM32.626,39.15332a1.06959,1.06959,0,0,1,.64062.21094,4.52182,4.52182,0,0,0,1.044.583,1.047,1.047,0,0,1,.66406.97851A.08846.08846,0,0,0,35.07031,41h1.85938a.08744.08744,0,0,0,.0957-.07324,1.0489,1.0489,0,0,1,.66309-.97949,4.50867,4.50867,0,0,0,1.04492-.583,1.08729,1.08729,0,0,1,1.18066-.07031.1124.1124,0,0,0,.14843-.02833l.92872-1.54687-.03418-.08887a1.04216,1.04216,0,0,1-.53906-1.05761,4.02012,4.02012,0,0,0,0-1.14551,1.04154,1.04154,0,0,1,.53906-1.05664l-.89551-1.63672a.10781.10781,0,0,0-.14257-.0293,1.09122,1.09122,0,0,1-1.18555-.06836,4.52223,4.52223,0,0,0-1.044-.583,1.047,1.047,0,0,1-.66406-.97851A.08846.08846,0,0,0,36.92969,31H35.07031a.08744.08744,0,0,0-.0957.07324,1.0489,1.0489,0,0,1-.66309.97949,4.50826,4.50826,0,0,0-1.04492.583,1.09148,1.09148,0,0,1-1.18066.07031.11762.11762,0,0,0-.14845.02833l-.9287,1.54687a1.21383,1.21383,0,0,1,.57324,1.14648,4.02012,4.02012,0,0,0,0,1.14551,1.04154,1.04154,0,0,1-.53906,1.05664l.89551,1.63672a.10979.10979,0,0,0,.14257.0293A1.11619,1.11619,0,0,1,32.626,39.15332Z"/><path class="cls-1" d="M35.99512,38.499A2.49951,2.49951,0,1,1,38.166,37.25h-.001A2.50151,2.50151,0,0,1,35.99512,38.499Zm.00781-3.999a1.49962,1.49962,0,1,0,.74707.2002A1.50364,1.50364,0,0,0,36.00293,34.5ZM37.73242,37h0Z"/></g></svg>