<svg xmlns="http://www.w3.org/2000/svg" viewBox="0 0 48 48"><defs><style>.cls-1{fill:#ff6c2c;}</style></defs><g id="Base_Icons" data-name="Base Icons"><path d="M25.127,45h-6.2539a2.47113,2.47113,0,0,1-2.50586-2.42871,1.36314,1.36314,0,0,0-.84961-1.26465A17.29009,17.29009,0,0,1,11.498,39.06445a1.49923,1.49923,0,0,0-1.6045-.07715,2.56038,2.56038,0,0,1-3.42675-.876l-3.126-5.20508a2.35351,2.35351,0,0,1-.26074-1.832,2.426,2.426,0,0,1,1.18066-1.499,1.34362,1.34362,0,0,0,.71875-1.335,15.74861,15.74861,0,0,1,0-4.48046,1.34436,1.34436,0,0,0-.71777-1.335,2.42418,2.42418,0,0,1-1.18164-1.499,2.35351,2.35351,0,0,1,.26074-1.832l3.12207-5.19824a2.56483,2.56483,0,0,1,3.41992-.88867,1.508,1.508,0,0,0,1.61524-.07129,17.29009,17.29009,0,0,1,4.01953-2.24219,1.36181,1.36181,0,0,0,.84961-1.26367A2.47131,2.47131,0,0,1,18.87305,7H25.127a2.47113,2.47113,0,0,1,2.50586,2.42871,1.36314,1.36314,0,0,0,.84961,1.26465A17.29009,17.29009,0,0,1,32.502,12.93555a1.49912,1.49912,0,0,0,1.6045.07715,2.56366,2.56366,0,0,1,3.42675.876l3.126,5.20508a2.35351,2.35351,0,0,1,.26074,1.832,2.426,2.426,0,0,1-1.18066,1.499,1.34362,1.34362,0,0,0-.71875,1.335,15.74861,15.74861,0,0,1,0,4.48046,1.34436,1.34436,0,0,0,.71777,1.335h.001a2.426,2.426,0,0,1,1.18066,1.499,2.35351,2.35351,0,0,1-.26074,1.832l-3.124,5.20117a2.562,2.562,0,0,1-3.415.8877,1.50546,1.50546,0,0,0-1.61817.06933,17.29009,17.29009,0,0,1-4.01953,2.24219,1.36181,1.36181,0,0,0-.84961,1.26367A2.47131,2.47131,0,0,1,25.127,45ZM10.65527,37.79a2.40387,2.40387,0,0,1,1.44239.47363A16.30436,16.30436,0,0,0,15.88477,40.377a2.36809,2.36809,0,0,1,1.48242,2.19336A1.47125,1.47125,0,0,0,18.87305,44H25.127a1.47044,1.47044,0,0,0,1.50586-1.42871A2.33932,2.33932,0,0,1,28.11523,40.377a16.30436,16.30436,0,0,0,3.78711-2.11328,2.48331,2.48331,0,0,1,2.68848-.15137,1.55566,1.55566,0,0,0,2.08691-.5205l3.124-5.20118a1.35209,1.35209,0,0,0,.15136-1.05761,1.42708,1.42708,0,0,0-.70019-.88281,2.34941,2.34941,0,0,1-1.22266-2.35254,14.70442,14.70442,0,0,0,0-4.19532,2.34862,2.34862,0,0,1,1.22364-2.35254,1.42884,1.42884,0,0,0,.69921-.88281,1.35209,1.35209,0,0,0-.15136-1.05761l-3.126-5.20508a1.54756,1.54756,0,0,0-2.06738-.52637,2.49286,2.49286,0,0,1-2.70606-.1416A16.30436,16.30436,0,0,0,28.11523,11.623a2.36809,2.36809,0,0,1-1.48242-2.19336A1.47125,1.47125,0,0,0,25.127,8h-6.2539a1.47044,1.47044,0,0,0-1.50586,1.42871A2.33932,2.33932,0,0,1,15.88477,11.623a16.30436,16.30436,0,0,0-3.78711,2.11328,2.47755,2.47755,0,0,1-2.68848.15137,1.55611,1.55611,0,0,0-2.08887.52343L4.19824,19.60938A1.35209,1.35209,0,0,0,4.04688,20.667a1.42708,1.42708,0,0,0,.70019.88281,2.34941,2.34941,0,0,1,1.22266,2.35254,14.70442,14.70442,0,0,0,0,4.19532A2.34862,2.34862,0,0,1,4.74609,30.4502a1.42884,1.42884,0,0,0-.69921.88281,1.35209,1.35209,0,0,0,.15136,1.05761l3.126,5.20508a1.55,1.55,0,0,0,2.06738.52539A2.6103,2.6103,0,0,1,10.65527,37.79Z"/><path d="M22,36A10,10,0,1,1,32,26,10.01177,10.01177,0,0,1,22,36Zm0-19a9,9,0,1,0,9,9A9.00984,9.00984,0,0,0,22,17Z"/></g><g id="Sub_Icons" data-name="Sub Icons"><path class="cls-1" d="M41.5,7h-10a.5.5,0,0,1,0-1h10a.5.5,0,0,1,0,1Z"/><path class="cls-1" d="M41.5,10h-8a.5.5,0,0,1,0-1h8a.5.5,0,0,1,0,1Z"/></g></svg>