<svg xmlns="http://www.w3.org/2000/svg" viewBox="0 0 48 48"><defs><style>.cls-1{fill:#ff6c2c;}</style></defs><g id="Base_Icons" data-name="Base Icons"><path d="M42,8.50293A1.50414,1.50414,0,0,0,40.49707,7H7.502A1.50373,1.50373,0,0,0,6,8.502V22.49707a1.49064,1.49064,0,0,0,.38959,1.00049A1.48448,1.48448,0,0,0,6,24.49512V38.50293A1.49915,1.49915,0,0,0,7.49707,40H17a.5.5,0,0,0,0-1H7.49707A.49722.49722,0,0,1,7,38.50293v-13.998A.50554.50554,0,0,1,7.50488,24H40.49512A.50554.50554,0,0,1,41,24.50488V30a.5.5,0,0,0,1,0V24.50488l-.00067-.00659L42,24.49512a1.48416,1.48416,0,0,0-.39-.998,1.49189,1.49189,0,0,0,.39-1.001ZM7.50488,23H7.50293A.50347.50347,0,0,1,7,22.49707V8.502A.50305.50305,0,0,1,7.502,8H40.49707A.50347.50347,0,0,1,41,8.50293V22.49609A.50389.50389,0,0,1,40.49609,23H7.50488Z"/><path d="M10.5,12.5a.49971.49971,0,0,0-.5.5v5a.5.5,0,0,0,1,0V13A.49971.49971,0,0,0,10.5,12.5Z"/><path d="M10,29v5a.5.5,0,0,0,1,0V29a.5.5,0,0,0-1,0Z"/></g><g id="Sub_Icons" data-name="Sub Icons"><path class="cls-1" d="M41.6582,33.02539a.50686.50686,0,0,0-.55859.17481L38.875,36.167,36.65039,33.2002A.5.5,0,0,0,35.75,33.5v7a.5.5,0,0,0,1,0V35l1.72461,2.2998a.51866.51866,0,0,0,.80078,0L41,35v5.5a.5.5,0,0,0,1,0v-7A.501.501,0,0,0,41.6582,33.02539Z"/><path class="cls-1" d="M31.26367,33.07812a.49668.49668,0,0,0-.68555.15821L28.82,36.04932l-1.774-2.81494a.49771.49771,0,1,0-.8418.53124l2.03,3.2212-2.031,3.24951a.49629.49629,0,0,0,.15821.68555.49105.49105,0,0,0,.26367.07617.49625.49625,0,0,0,.42188-.23438l1.7763-2.842L30.5791,40.708a.49771.49771,0,0,0,.8418-.53125L29.409,36.98438l2.01288-3.22071A.49629.49629,0,0,0,31.26367,33.07812Z"/><path class="cls-1" d="M33.625,33a.49971.49971,0,0,0-.5.5v7a.5.5,0,0,0,1,0v-7A.49971.49971,0,0,0,33.625,33Z"/><path class="cls-1" d="M24.4375,34a.5.5,0,0,0,0-1H20.5a.49971.49971,0,0,0-.5.5v7a.49971.49971,0,0,0,.5.5h3.9375a.5.5,0,0,0,0-1H21V37.5h1.6875a.5.5,0,0,0,0-1H21V34Z"/></g></svg>