<svg xmlns="http://www.w3.org/2000/svg" viewBox="0 0 48 48"><defs><style>.cls-1{fill:#ff6c2c;}</style></defs><g id="Base_Icons" data-name="Base Icons"><path d="M18.5,12h21a.5.5,0,0,0,0-1h-21a.5.5,0,0,0,0,1Z"/><path d="M18.5,25h21a.5.5,0,0,0,0-1h-21a.5.5,0,0,0,0,1Z"/><path d="M26.5,37h-8a.5.5,0,0,0,0,1h8a.5.5,0,0,0,0-1Z"/><path d="M14.09961,33.7002l-4.8584,6.47851-2.34766-2.9873a.50011.50011,0,1,0-.7871.61718l2.75,3.5A.50119.50119,0,0,0,9.25,41.5h.00586a.50006.50006,0,0,0,.39453-.2002l5.25-7a.50019.50019,0,0,0-.80078-.5996Z"/><path d="M14.09961,20.7002l-4.8584,6.47851-2.34766-2.9873a.50011.50011,0,1,0-.7871.61718l2.75,3.5A.50119.50119,0,0,0,9.25,28.5h.00586a.50006.50006,0,0,0,.39453-.2002l5.25-7a.50019.50019,0,1,0-.80078-.5996Z"/><path d="M14.09961,7.7002l-4.8584,6.47851-2.34766-2.9873a.50011.50011,0,0,0-.7871.61718l2.75,3.5A.50119.50119,0,0,0,9.25,15.5h.00586a.50006.50006,0,0,0,.39453-.2002l5.25-7a.50019.50019,0,0,0-.80078-.5996Z"/></g><g id="Sub_Icons" data-name="Sub Icons"><path class="cls-1" d="M36,30a6,6,0,1,0,2.23242,11.57031c.10156-.04.20215-.084.30078-.12988a.50023.50023,0,0,0-.42382-.90625q-.12159.05714-.249.1084a4.99,4.99,0,1,1,2.65918-2.499l-.085.169-.0003.001-.00654.00879a.75069.75069,0,0,1-.40136.375A.77571.77571,0,0,1,39,38V33.7998a.49843.49843,0,0,0-.99664-.0166,3.035,3.035,0,1,0,.01593,4.40723A1.74634,1.74634,0,0,0,39.75,39.75a1.69768,1.69768,0,0,0,1.50488-.89307.47725.47725,0,0,0,.06836-.08545l.09571-.19238A6.00265,6.00265,0,0,0,36,30Zm.74512,7.85742A2.00084,2.00084,0,1,1,38,36a1.96834,1.96834,0,0,1-.05957.48633A2.00756,2.00756,0,0,1,36.74512,37.85742Z"/></g></svg>