<svg xmlns="http://www.w3.org/2000/svg" viewBox="0 0 48 48"><defs><style>.cls-1{fill:#ff6c2c;}</style></defs><g id="Base_Icons" data-name="Base Icons"><path d="M26.81836,42H10.498A1.49956,1.49956,0,0,1,9,40.502V12.915a1.48821,1.48821,0,0,1,.43457-1.05762l5.42285-5.42383A1.48159,1.48159,0,0,1,15.91113,6H37.50391A1.49747,1.49747,0,0,1,39,7.49609v21.001a.5.5,0,1,1-1,0V7.49609A.4968.4968,0,0,0,37.50391,7H15.91113a.48623.48623,0,0,0-.34765.1416l-5.4209,5.42188A.49456.49456,0,0,0,10,12.915V40.502a.49888.49888,0,0,0,.498.498H26.81836a.5.5,0,0,1,0,1Z"/><path d="M15.43945,14H13.5a.5.5,0,0,1,0-1h1.93945A.56477.56477,0,0,0,16,12.43164V10.5a.5.5,0,0,1,1,0v1.93164A1.566,1.566,0,0,1,15.43945,14Z"/><path d="M26.5,35h-12a.5.5,0,0,1,0-1h12a.5.5,0,0,1,0,1Z"/><path d="M33.5,14h-13a.5.5,0,0,1,0-1h13a.5.5,0,0,1,0,1Z"/><path d="M16.5,30a.49971.49971,0,0,1-.5-.5v-8a.5.5,0,0,1,1,0v8A.49971.49971,0,0,1,16.5,30Z"/><path d="M19.5,30a.49971.49971,0,0,1-.5-.5v-10a.5.5,0,0,1,1,0v10A.49971.49971,0,0,1,19.5,30Z"/><path d="M22.5,30a.49971.49971,0,0,1-.5-.5v-11a.5.5,0,0,1,1,0v11A.49971.49971,0,0,1,22.5,30Z"/><path d="M25.5,30a.49971.49971,0,0,1-.5-.5v-9a.5.5,0,0,1,1,0v9A.49971.49971,0,0,1,25.5,30Z"/><path d="M28.5,30a.49971.49971,0,0,1-.5-.5v-7a.5.5,0,0,1,1,0v7A.49971.49971,0,0,1,28.5,30Z"/><path d="M31.5,30a.49971.49971,0,0,1-.5-.5v-9a.5.5,0,0,1,1,0v9A.49971.49971,0,0,1,31.5,30Z"/></g><g id="Sub_Icons" data-name="Sub Icons"><path class="cls-1" d="M40.14551,40.5h-8.291A1.85673,1.85673,0,0,1,30,38.64551v-5.291A1.85673,1.85673,0,0,1,31.85449,31.5h8.291A1.85673,1.85673,0,0,1,42,33.35449v5.291A1.85673,1.85673,0,0,1,40.14551,40.5Zm-8.291-8A.85606.85606,0,0,0,31,33.35449v5.291a.85606.85606,0,0,0,.85449.85449h8.291A.85606.85606,0,0,0,41,38.64551v-5.291A.85606.85606,0,0,0,40.14551,32.5Z"/><path class="cls-1" d="M36,36.5a.49869.49869,0,0,1-.248-.06543l-3.5-2a.50038.50038,0,1,1,.4961-.86914L36,35.42383l3.252-1.8584a.50038.50038,0,0,1,.4961.86914l-3.5,2A.49869.49869,0,0,1,36,36.5Z"/></g></svg>