<svg xmlns="http://www.w3.org/2000/svg" viewBox="0 0 48 48"><defs><style>.cls-1{fill:#ff6c2c;}</style></defs><g id="Base_Icons" data-name="Base Icons"><path d="M35.76465,10.19531H29.88281a.5.5,0,0,0,0,1h5.88184A7.832,7.832,0,0,1,43.5,19.10352v9.60839a.6901.6901,0,0,1-.67676.70118H22.19708a1.4386,1.4386,0,0,0,.08026-.45606V19.0625a8.87053,8.87053,0,0,0-4.79223-7.86719H20.4707a.5.5,0,0,0,0-1H12.23535A8.73151,8.73151,0,0,0,4.3194,15.36084c-.04248.0918-.0904.18066-.1297.27417-.00952.0227-.01636.04687-.02564.06982A8.81194,8.81194,0,0,0,3.5,19.06055V28.957a1.45788,1.45788,0,0,0,1.45605,1.45606H24.31049a.4868.4868,0,0,0-.06928.23925V40.5H18.81445a.5.5,0,0,0,0,1H27.667a.5.5,0,0,0,0-1H25.24121V30.65234a.48689.48689,0,0,0-.06927-.23925h17.6513A1.69057,1.69057,0,0,0,44.5,28.71191V19.10352A8.83316,8.83316,0,0,0,35.76465,10.19531ZM5.17676,29.41309A.6901.6901,0,0,1,4.5,28.71191V19.10352a8.014,8.014,0,0,1,.5827-3.00245c.01044-.02563.018-.05273.02875-.07836.03241-.07789.07294-.15137.10773-.22828a7.86953,7.86953,0,0,1,7.14605-4.59912h1.0459a7.87538,7.87538,0,0,1,7.86621,7.86719V28.957a.45575.45575,0,0,1-.45507.45606Z"/><path d="M16.59277,25.71777H9.18555a.5.5,0,0,0,0,1h7.40722a.5.5,0,0,0,0-1Z"/><path d="M24.74121,14.8916a.49971.49971,0,0,0,.5-.5V7.5H27.7041a.5.5,0,0,0,0-1H24.74121a.49971.49971,0,0,0-.5.5v7.3916A.49971.49971,0,0,0,24.74121,14.8916Z"/></g><g id="Sub_Icons" data-name="Sub Icons"><path class="cls-1" d="M36.5,38.5H31.707l1.14649-1.14648a.5.5,0,0,0-.707-.707L30.14709,38.646a.50111.50111,0,0,0,0,.708l1.99939,1.99952a.5.5,0,0,0,.707-.707L31.707,39.5H36.5a.5.5,0,0,0,0-1Z"/><path class="cls-1" d="M41.96155,34.80908a.49816.49816,0,0,0-.10864-.16308l-1.99939-1.99952a.5.5,0,0,0-.707.707L40.293,34.5H35.5a.5.5,0,0,0,0,1h4.793l-1.14649,1.14648a.5.5,0,1,0,.707.707L41.85291,35.354a.50111.50111,0,0,0,.10864-.54492Z"/></g></svg>