<svg xmlns="http://www.w3.org/2000/svg" viewBox="0 0 48 48"><defs><style>.cls-1{fill:#ff6c2c;}</style></defs><g id="Base_Icons" data-name="Base Icons"><path d="M24,6C13.90625,6,6,9.7334,6,14.5S13.90625,23,24,23c7.98572,0,14.58466-2.34106,17-5.67773V24.167a4.34712,4.34712,0,0,1-1.59961,3.13379.49951.49951,0,1,0,.68359.72852,5.73631,5.73631,0,0,0,1.84107-3.1167A.48617.48617,0,0,0,42,24.665V14.5C42,9.7334,34.09375,6,24,6Zm0,16c-9.21484,0-17-3.43457-17-7.5S14.78516,7,24,7s17,3.43457,17,7.5S33.21484,22,24,22Z"/><path d="M24,32.667c1.1416,0,2.28613-.0498,3.40039-.14941a.50012.50012,0,0,0,.4541-.542.51594.51594,0,0,0-.542-.45411c-1.08594.09668-2.2002.14551-3.3125.14551-9.21484,0-17-3.43457-17-7.5v-.66015a.5.5,0,0,0-1,0V33.5C6,38.2666,13.90625,42,24,42c1.1377,0,2.28223-.0498,3.40039-.14844a.49954.49954,0,0,0,.4541-.542.50982.50982,0,0,0-.542-.4541C26.22363,40.95117,25.1084,41,24,41c-9.21484,0-17-3.43457-17-7.5V26.98926C9.41534,30.32593,16.01428,32.667,24,32.667Z"/></g><g id="Sub_Icons" data-name="Sub Icons"><path class="cls-1" d="M41.97266,34.585a1.05479,1.05479,0,0,0-.11719-.82324l-.92871-1.54785a1.09144,1.09144,0,0,0-1.417-.42774,1.69849,1.69849,0,0,0-.17188.042,7.13949,7.13949,0,0,0-1.30371-.75488,1.095,1.095,0,0,0-1.10449-1.082H35.07031a1.14245,1.14245,0,0,0-1.12988,1.124,9.40491,9.40491,0,0,0-1.36816.708,1.121,1.121,0,0,0-1.499.39258l-.92871,1.5459a1.05538,1.05538,0,0,0-.11719.82324,1.16719,1.16719,0,0,0,.55664.69824A4.96433,4.96433,0,0,0,30.53223,36c0,.24316.01757.48242.0205.748a1.08184,1.08184,0,0,0-.52539.667,1.05538,1.05538,0,0,0,.11719.82324l.92871,1.54785a1.09332,1.09332,0,0,0,1.417.42774,1.69849,1.69849,0,0,0,.17188-.042,7.13949,7.13949,0,0,0,1.30371.75488,1.095,1.095,0,0,0,1.10449,1.082h1.85938a1.14245,1.14245,0,0,0,1.12988-1.124,9.55132,9.55132,0,0,0,1.36914-.707,1.12269,1.12269,0,0,0,1.498-.39355l.92871-1.5459a1.05538,1.05538,0,0,0,.11719-.82324,1.08184,1.08184,0,0,0-.52539-.667l-.2461.44531.21485-.47656A4.96433,4.96433,0,0,0,41.46777,36c0-.24316-.01757-.48242-.01855-.749A1.077,1.077,0,0,0,41.97266,34.585Zm-1.918,4.67578a.10216.10216,0,0,1-.13672.02539,1.09678,1.09678,0,0,0-1.18945.07129,4.492,4.492,0,0,1-1.043.582,1.056,1.056,0,0,0-.669.98731.07971.07971,0,0,1-.08691.06445H35.07031a.07959.07959,0,0,1-.08691-.06543,1.05517,1.05517,0,0,0-.66992-.98633,4.50545,4.50545,0,0,1-1.042-.582,1.07723,1.07723,0,0,0-.6455-.21289,1.12874,1.12874,0,0,0-.54981.14453.10031.10031,0,0,1-.13086-.02636l-.89746-1.626a1.04722,1.04722,0,0,0,.542-1.06445,4.10259,4.10259,0,0,1,0-1.14356,1.19653,1.19653,0,0,0-.57422-1.14355l.92969-1.5459a.10717.10717,0,0,1,.13672-.02539,1.09486,1.09486,0,0,0,1.18945-.07129,4.492,4.492,0,0,1,1.043-.582,1.056,1.056,0,0,0,.669-.98731.07971.07971,0,0,1,.08691-.06445h1.85938a.07959.07959,0,0,1,.08691.06543,1.05517,1.05517,0,0,0,.66992.98633,4.50545,4.50545,0,0,1,1.042.582,1.09785,1.09785,0,0,0,1.19531.06836.10278.10278,0,0,1,.13086.02636l.89746,1.626a1.04722,1.04722,0,0,0-.542,1.06445,4.10259,4.10259,0,0,1,0,1.14356,1.04785,1.04785,0,0,0,.542,1.06543l.03223.07812Z"/><path class="cls-1" d="M37.25,33.834a2.49982,2.49982,0,1,0,.915,3.416h.001A2.50658,2.50658,0,0,0,37.25,33.834Zm.0498,2.916a1.50066,1.50066,0,1,1-1.29687-2.25,1.48942,1.48942,0,0,1,.74707.2002A1.50451,1.50451,0,0,1,37.2998,36.75Z"/></g></svg>