<svg xmlns="http://www.w3.org/2000/svg" viewBox="0 0 48 48"><defs><style>.cls-1{fill:#ff6c2c;}</style></defs><g id="Base_Icons" data-name="Base Icons"><path d="M43.9834,26.37207,39.68457,10.09863A1.50421,1.50421,0,0,0,38.24023,9H9.76074A1.50959,1.50959,0,0,0,8.3125,10.10547L4.0166,26.37207a.50017.50017,0,0,0,.35547.61133A.48457.48457,0,0,0,4.5,27a.501.501,0,0,0,.4834-.37207L9.27734,10.36816A.50454.50454,0,0,1,9.76074,10H38.24023a.4992.4992,0,0,1,.4795.36035L43.0166,26.62793A.501.501,0,0,0,43.5,27a.48457.48457,0,0,0,.12793-.0166A.50017.50017,0,0,0,43.9834,26.37207Z"/><path d="M28,40H9.49609A.4968.4968,0,0,1,9,39.50391V25.499A.49929.49929,0,0,1,9.499,25H38.501a.49929.49929,0,0,1,.499.499v2.8125a.5.5,0,0,0,1,0V25.499A1.50122,1.50122,0,0,0,38.501,24H9.499A1.50122,1.50122,0,0,0,8,25.499V39.50391A1.49747,1.49747,0,0,0,9.49609,41H28a.5.5,0,0,0,0-1Z"/><path d="M12,30v5a.5.5,0,0,0,1,0V30a.5.5,0,0,0-1,0Z"/><path d="M15,30v5a.5.5,0,0,0,1,0V30a.5.5,0,0,0-1,0Z"/></g><g id="Sub_Icons" data-name="Sub Icons"><path class="cls-1" d="M41.96387,34.582a1.04234,1.04234,0,0,0-.11524-.81641L40.919,32.21875a1.08524,1.08524,0,0,0-1.40625-.4248c-.03028.01074-.15235.02539-.17969.041a7.45965,7.45965,0,0,0-1.30762-.76172A1.08567,1.08567,0,0,0,36.92969,30H35.07031a1.14287,1.14287,0,0,0-1.127,1.123,9.82442,9.82442,0,0,0-1.375.708,1.11351,1.11351,0,0,0-1.48828.38868l-.92871,1.54589a1.0447,1.0447,0,0,0-.11524.81739,1.184,1.184,0,0,0,.55567.70117A5.09248,5.09248,0,0,0,30.541,36c0,.24316.01757.48145.01562.75586a1.06586,1.06586,0,0,0-.52051.66113,1.0447,1.0447,0,0,0,.11524.81739l.92968,1.54687a1.08354,1.08354,0,0,0,1.40625.4248c.03028-.01074.15235-.02539.17969-.041a7.45965,7.45965,0,0,0,1.30762.76172A1.08567,1.08567,0,0,0,35.07031,42h1.85938a1.14287,1.14287,0,0,0,1.127-1.123A5.50691,5.50691,0,0,0,39.333,40.165l.10058.00586a1.11367,1.11367,0,0,0,1.48633-.39063l.92871-1.54589a1.0447,1.0447,0,0,0,.11524-.81739,1.06586,1.06586,0,0,0-.52051-.66113l-.24219.4375.207-.47754A5.09248,5.09248,0,0,0,41.459,36c0-.24316-.01757-.48145-.01464-.75586A1.06623,1.06623,0,0,0,41.96387,34.582ZM40.0625,39.26562a.11044.11044,0,0,1-.14844.02833,1.08538,1.08538,0,0,0-1.18066.07031,4.50847,4.50847,0,0,1-1.04492.583,1.0489,1.0489,0,0,0-.66309.97949A.08744.08744,0,0,1,36.92969,41H35.07031a.08846.08846,0,0,1-.0957-.07422,1.047,1.047,0,0,0-.66406-.97851,4.522,4.522,0,0,1-1.044-.583,1.06959,1.06959,0,0,0-.64062-.21094,1.11619,1.11619,0,0,0-.54493.14258.10979.10979,0,0,1-.14257-.0293L31.043,37.62988a1.04154,1.04154,0,0,0,.53906-1.05664,4.02012,4.02012,0,0,1,0-1.14551,1.21383,1.21383,0,0,0-.57324-1.14648l.92871-1.54687a.1188.1188,0,0,1,.14844-.02833,1.08945,1.08945,0,0,0,1.18066-.07031,4.50847,4.50847,0,0,1,1.04492-.583,1.0489,1.0489,0,0,0,.66309-.97949A.08744.08744,0,0,1,35.07031,31h1.85938a.08846.08846,0,0,1,.0957.07422,1.047,1.047,0,0,0,.66406.97851,4.522,4.522,0,0,1,1.044.583,1.0911,1.0911,0,0,0,1.18555.06836.10781.10781,0,0,1,.14257.0293l.89551,1.63672a1.04154,1.04154,0,0,0-.53906,1.05664,4.02012,4.02012,0,0,1,0,1.14551,1.04216,1.04216,0,0,0,.53906,1.05761l.03418.08887Z"/><path class="cls-1" d="M37.25,33.834a2.49982,2.49982,0,1,0,.915,3.416h.001A2.50612,2.50612,0,0,0,37.25,33.834Zm.0498,2.916a1.49962,1.49962,0,1,1-.5498-2.0498A1.50428,1.50428,0,0,1,37.2998,36.75Z"/></g></svg>