<svg xmlns="http://www.w3.org/2000/svg" viewBox="0 0 48 48"><defs><style>.cls-1{fill:#ff6c2c;}</style></defs><g id="Base_Icons" data-name="Base Icons"><path d="M26.33887,5.66016a1.206,1.206,0,0,1,.85937-.35547h.002a1.20484,1.20484,0,0,1,.85937.3584l6.89355,6.90429a15.23416,15.23416,0,0,1,3.79981,14.749.49965.49965,0,0,0,.35156.61328.49332.49332,0,0,0,.61328-.35157,16.237,16.237,0,0,0-4.05761-15.71777L28.76855,4.958a2.1985,2.1985,0,0,0-1.5664-.65332h-.00391a2.19722,2.19722,0,0,0-1.5664.64843L22.19061,8.3938l-3.008-3.00806a.49995.49995,0,1,0-.707.707l3.00793,3.00782L9.1,21.48193,6.09277,18.47559a.49995.49995,0,1,0-.707.707L8.39282,22.189l-3.4397,3.439a2.21265,2.21265,0,0,0,0,3.13184l6.90235,6.90136a15.88243,15.88243,0,0,0,11.29492,4.64942,16.98285,16.98285,0,0,0,3.998-.48243.50122.50122,0,0,0,.36816-.60449.507.507,0,0,0-.60449-.36816A15.0739,15.0739,0,0,1,12.5625,34.9541L5.66016,28.05273a1.213,1.213,0,0,1,0-1.71777Z"/></g><g id="Sub_Icons" data-name="Sub Icons"><path class="cls-1" d="M38.34473,43.00879H36.65527a1.04188,1.04188,0,0,1-1.05078-1.03027,4.89877,4.89877,0,0,1-1.166-.64844,1.08986,1.08986,0,0,1-1.457-.36621l-.84375-1.40528a.998.998,0,0,1-.11133-.7832,1.0213,1.0213,0,0,1,.499-.63574,4.85182,4.85182,0,0,1-.042-.63965,4.46072,4.46072,0,0,1,.04785-.66016.92586.92586,0,0,1-.50488-.61523,1.00092,1.00092,0,0,1,.11133-.78418l.84375-1.4043a1.06615,1.06615,0,0,1,1.4248-.374,6.39694,6.39694,0,0,1,1.20508-.64649,1.03044,1.03044,0,0,1,1.04394-1.02441h1.68946a1.04188,1.04188,0,0,1,1.05078,1.03027,4.89877,4.89877,0,0,1,1.166.64844,1.088,1.088,0,0,1,1.457.36621l.84375,1.40528a.998.998,0,0,1,.11133.7832,1.0213,1.0213,0,0,1-.499.63574,4.85182,4.85182,0,0,1,.042.63965,4.41909,4.41909,0,0,1-.0459.64648l.00391-.00683a1.0213,1.0213,0,0,1,.499.63574,1.00092,1.00092,0,0,1-.11133.78418l-.84277,1.40527a1.07273,1.07273,0,0,1-1.42578.373,6.39694,6.39694,0,0,1-1.20508.64649A1.03044,1.03044,0,0,1,38.34473,43.00879ZM34.417,40.31152a1.04135,1.04135,0,0,1,.63086.2041,4.05822,4.05822,0,0,0,.93653.52344,1.002,1.002,0,0,1,.63769.93946l1.72266.01269a1.09012,1.09012,0,0,1,.67187-.95312,4.03272,4.03272,0,0,0,.93555-.52247,1.05087,1.05087,0,0,1,1.13183-.06933l.90625-1.41113-.00878-.00586a1.00006,1.00006,0,0,1-.51954-1.01465A3.47072,3.47072,0,0,0,41.499,37.5a3.53716,3.53716,0,0,0-.03613-.51172.99969.99969,0,0,1,.51856-1.01758l-.835-1.41211a1.1507,1.1507,0,0,1-1.19433-.07421,4.05822,4.05822,0,0,0-.93653-.52344,1.002,1.002,0,0,1-.63769-.93946l-1.72266-.01269a1.09012,1.09012,0,0,1-.67187.95312,4.03272,4.03272,0,0,0-.93555.52247,1.04673,1.04673,0,0,1-1.13183.06933l-.90723,1.41113a1.00522,1.00522,0,0,1,.5293,1.02051A3.47072,3.47072,0,0,0,33.501,37.5a3.53716,3.53716,0,0,0,.03613.51172.99969.99969,0,0,1-.51856,1.01758l.835,1.41211A1.34423,1.34423,0,0,1,34.417,40.31152Z"/><path class="cls-1" d="M37.49707,39.501a2.00748,2.00748,0,1,1,.52051-.06934A2.01729,2.01729,0,0,1,37.49707,39.501ZM37.501,36.5a.99991.99991,0,1,0,.499.13379A1.00114,1.00114,0,0,0,37.501,36.5Z"/></g></svg>