<svg xmlns="http://www.w3.org/2000/svg" viewBox="0 0 48 48"><defs><style>.cls-1{fill:#ff6c2c;}</style></defs><g id="Base_Icons" data-name="Base Icons"><path d="M32.54742,15.6059l2.52778,2.52691a.4998.4998,0,0,0,.707,0l5.65625-5.65722a.49983.49983,0,0,0,0-.707L38.91162,9.2417l2.477-2.47705a.49995.49995,0,1,0-.707-.707L23.26086,23.47839a10.52241,10.52241,0,1,0,.7334.68067Zm2.88129,1.46637-2.12207-2.1211,4.9502-4.95019,2.12109,2.12109ZM16.5,41A9.5,9.5,0,1,1,26,31.5,9.51081,9.51081,0,0,1,16.5,41Z"/></g><g id="Sub_Icons" data-name="Sub Icons"><path class="cls-1" d="M40.5,37a.49971.49971,0,0,0-.5.5v2.998a.50305.50305,0,0,1-.502.502H31.5a.501.501,0,0,1-.5-.5V32.50391A.50389.50389,0,0,1,31.50391,32H34.5a.5.5,0,0,0,0-1H31.50391A1.5058,1.5058,0,0,0,30,32.50391V40.5A1.50164,1.50164,0,0,0,31.5,42h7.998A1.50373,1.50373,0,0,0,41,40.49805V37.5A.49971.49971,0,0,0,40.5,37Z"/><path class="cls-1" d="M41.92462,30.25165a.46552.46552,0,0,0-.03345-.04956.49245.49245,0,0,0-.199-.16333l-.00079-.00067-.0047-.00043A.49667.49667,0,0,0,41.5,30h-4a.5.5,0,0,0,0,1h2.793l-5.14649,5.14648a.5.5,0,1,0,.707.707L41,31.707V34.5a.5.5,0,0,0,1,0v-4A.486.486,0,0,0,41.92462,30.25165Z"/></g></svg>