<svg xmlns="http://www.w3.org/2000/svg" viewBox="0 0 48 48"><defs><style>.cls-1{fill:#ff6c2c;}</style></defs><g id="Base_Icons" data-name="Base Icons"><path d="M24,4A20.00016,20.00016,0,0,0,11.78906,39.83984H7.66016a.5.5,0,1,0,0,1h5.67968a.49971.49971,0,0,0,.5-.5V34.66016a.5.5,0,0,0-1,0v4.70752A18.98581,18.98581,0,1,1,42.10059,29.793a.50032.50032,0,1,0,.95312.30469A20.016,20.016,0,0,0,24,4Z"/><path d="M29.624,42.1543A18.99013,18.99013,0,0,1,24,43a.5.5,0,0,0,0,1,19.98975,19.98975,0,0,0,5.91895-.89062.49979.49979,0,0,0-.29493-.95508Z"/><path d="M31.81348,25.291l-.001-.001a.29.29,0,0,1-.16406-.28027A7.04492,7.04492,0,0,0,31.72168,24a7.16173,7.16173,0,0,0-.07227-1.00879.28954.28954,0,0,1,.16407-.28223,1.33679,1.33679,0,0,0,.65039-.82617,1.30736,1.30736,0,0,0-.14453-1.01953l-1.35254-2.251a1.40079,1.40079,0,0,0-1.874-.48339.354.354,0,0,1-.376-.0127,7.80691,7.80691,0,0,0-1.80664-1.00781.29194.29194,0,0,1-.18164-.27442,1.36129,1.36129,0,0,0-1.376-1.34277H22.64746a1.36148,1.36148,0,0,0-1.376,1.34375.2939.2939,0,0,1-.18164.27442,7.76739,7.76739,0,0,0-1.80664,1.00683.36365.36365,0,0,1-.38183.00977,1.40143,1.40143,0,0,0-1.87012.48925l-1.35156,2.248a1.31113,1.31113,0,0,0-.14356,1.01953,1.33945,1.33945,0,0,0,.65137.82715.29.29,0,0,1,.16406.28027A7.04492,7.04492,0,0,0,16.27832,24a7.16173,7.16173,0,0,0,.07227,1.00879.28954.28954,0,0,1-.16407.28223,1.33679,1.33679,0,0,0-.65039.82617,1.30736,1.30736,0,0,0,.14453,1.01953l1.35254,2.251a1.40055,1.40055,0,0,0,1.874.48339.35987.35987,0,0,1,.376.0127,7.80691,7.80691,0,0,0,1.80664,1.00781.29194.29194,0,0,1,.18164.27442,1.36129,1.36129,0,0,0,1.376,1.34277h2.70508a1.36148,1.36148,0,0,0,1.376-1.34375.2939.2939,0,0,1,.18164-.27442,7.76739,7.76739,0,0,0,1.80664-1.00683.36177.36177,0,0,1,.38183-.00977,1.39994,1.39994,0,0,0,1.86914-.48828l1.35254-2.249a1.31113,1.31113,0,0,0,.14356-1.01953A1.33679,1.33679,0,0,0,31.81348,25.291Zm-.36524,1.32226-1.35254,2.249a.38313.38313,0,0,1-.50879.12012,1.36861,1.36861,0,0,0-1.47949.08692,6.746,6.746,0,0,1-1.57031.875,1.31939,1.31939,0,0,0-.82617,1.22168.34338.34338,0,0,1-.3584.32519H22.64746a.34415.34415,0,0,1-.3584-.32617,1.31675,1.31675,0,0,0-.82617-1.21973,6.78506,6.78506,0,0,1-1.57031-.876,1.32988,1.32988,0,0,0-.79883-.2627,1.41572,1.41572,0,0,0-.68848.17969.38182.38182,0,0,1-.501-.12207l-1.35157-2.251a.29628.29628,0,0,1-.03418-.23242.327.327,0,0,1,.16114-.2002,1.29353,1.29353,0,0,0,.67773-1.31543A6.15942,6.15942,0,0,1,17.2959,24a6.04094,6.04094,0,0,1,.0625-.86621,1.29379,1.29379,0,0,0-.67774-1.31348.32966.32966,0,0,1-.16211-.20117.2994.2994,0,0,1,.03321-.23242l1.35058-2.248a.38365.38365,0,0,1,.51075-.12109,1.3607,1.3607,0,0,0,1.47949-.08692,6.746,6.746,0,0,1,1.57031-.875,1.31939,1.31939,0,0,0,.82617-1.22168.34338.34338,0,0,1,.3584-.32519h2.70508a.34415.34415,0,0,1,.3584.32617,1.31675,1.31675,0,0,0,.82617,1.21973,6.78506,6.78506,0,0,1,1.57031.876,1.36885,1.36885,0,0,0,1.48731.083.37718.37718,0,0,1,.501.12207l1.35157,2.251a.29628.29628,0,0,1,.03418.23242.327.327,0,0,1-.16114.2002,1.29353,1.29353,0,0,0-.67773,1.31543A6.15942,6.15942,0,0,1,30.7041,24a6.04094,6.04094,0,0,1-.0625.86621,1.29454,1.29454,0,0,0,.67774,1.31348.32966.32966,0,0,1,.16211.20117A.2994.2994,0,0,1,31.44824,26.61328Z"/><path d="M25.4502,21.48926a2.89947,2.89947,0,1,0-1.45508,5.41211,2.90051,2.90051,0,0,0,1.45508-5.41211Zm.19531,3.46094a1.90015,1.90015,0,1,1-2.1377-2.78516,1.91073,1.91073,0,0,1,.49512-.06543,1.90072,1.90072,0,0,1,1.64258,2.85059Z"/></g><g id="Sub_Icons" data-name="Sub Icons"><path class="cls-1" d="M37,30a3.49476,3.49476,0,0,0-2.49829,5.94385l-.9939,5.46631a.50026.50026,0,0,0,.76953.50586L37,40.10059,39.72266,41.916a.50026.50026,0,0,0,.76953-.50586l-.9939-5.46631A3.49476,3.49476,0,0,0,37,30Zm0,1a2.5,2.5,0,1,1-2.5,2.5A2.50231,2.50231,0,0,1,37,31Zm.27734,8.084a.50238.50238,0,0,0-.55468,0l-2.02051,1.34668.69812-3.83593a3.36,3.36,0,0,0,3.19946,0l.69812,3.83593Z"/></g></svg>