<svg xmlns="http://www.w3.org/2000/svg" viewBox="0 0 48 48"><defs><style>.cls-1{fill:#ff6c2c;}</style></defs><g id="Base_Icons" data-name="Base Icons"><path d="M33,29H17.5127a.5.5,0,1,1,0-1H33a.5.5,0,0,1,0,1Z"/><path d="M12.5,28.5a.5.5,0,0,1-.35352-.85352L15.793,24l-3.64649-3.64648a.5.5,0,0,1,.707-.707l4,4a.49983.49983,0,0,1,0,.707l-4,4A.49842.49842,0,0,1,12.5,28.5Z"/><path d="M42.5,29a.49971.49971,0,0,1-.5-.5v-17a.501.501,0,0,0-.5-.5H13.72266a.5.5,0,1,1,0-1H41.5A1.50164,1.50164,0,0,1,43,11.5v17A.49971.49971,0,0,1,42.5,29Z"/><path d="M26.68555,38H6.5A1.50164,1.50164,0,0,1,5,36.5V14.5498a.5.5,0,1,1,1,0V36.5a.501.501,0,0,0,.5.5H26.68555a.5.5,0,1,1,0,1Z"/><path d="M5.5,11a.47.47,0,0,1-.35059-.15039A.34975.34975,0,0,1,5.04,10.68945.40093.40093,0,0,1,5,10.5a.4727.4727,0,0,1,.14941-.35059.49189.49189,0,0,1,.54-.10937.34975.34975,0,0,1,.16016.10937A.47.47,0,0,1,6,10.5a.40093.40093,0,0,1-.04.18945.35936.35936,0,0,1-.11035.16016A.4664.4664,0,0,1,5.5,11Z"/><path d="M8.24023,11a.467.467,0,0,1-.35058-.15039.3497.3497,0,0,1-.10938-.16016.40093.40093,0,0,1-.04-.18945.47271.47271,0,0,1,.14942-.35059.50231.50231,0,0,1,.70019,0A.47365.47365,0,0,1,8.74023,10.5a.41308.41308,0,0,1-.04.18945.53712.53712,0,0,1-.27051.27051A.401.401,0,0,1,8.24023,11Z"/><path d="M10.97949,11a.482.482,0,0,1-.34961-.15039.35936.35936,0,0,1-.11035-.16016.413.413,0,0,1-.04-.18945.47365.47365,0,0,1,.15039-.35059.49507.49507,0,0,1,.54-.10937.35491.35491,0,0,1,.16016.10937.4727.4727,0,0,1,.14941.35059.40081.40081,0,0,1-.04.18945.34975.34975,0,0,1-.10937.16016A.4685.4685,0,0,1,10.97949,11Z"/></g><g id="Sub_Icons" data-name="Sub Icons"><path class="cls-1" d="M36.92969,42H35.07031a1.08567,1.08567,0,0,1-1.0957-1.07324A7.45965,7.45965,0,0,1,32.667,40.165c-.02734.01562-.14941.03027-.17969.041a1.086,1.086,0,0,1-1.40625-.4248l-.92968-1.54687a1.0447,1.0447,0,0,1-.11524-.81739,1.06586,1.06586,0,0,1,.52051-.66113c.00195-.27441-.01562-.5127-.01562-.75586a5.09248,5.09248,0,0,1,.05078-.71582,1.184,1.184,0,0,1-.55567-.70117,1.0447,1.0447,0,0,1,.11524-.81739l.92871-1.54589a1.11444,1.11444,0,0,1,1.48828-.38868,9.82442,9.82442,0,0,1,1.375-.708A1.14287,1.14287,0,0,1,35.07031,30h1.85938a1.08567,1.08567,0,0,1,1.0957,1.07324A7.45965,7.45965,0,0,1,39.333,31.835c.02734-.01562.14941-.03027.17969-.041a1.08551,1.08551,0,0,1,1.40625.4248l.92968,1.54687a1.04234,1.04234,0,0,1,.11524.81641,1.06623,1.06623,0,0,1-.51953.66211c-.00293.27441.01464.5127.01464.75586a5.09248,5.09248,0,0,1-.05078.71582l-.207.47754.24219-.4375a1.06586,1.06586,0,0,1,.52051.66113,1.0447,1.0447,0,0,1-.11524.81739l-.92871,1.54589a1.11367,1.11367,0,0,1-1.48633.39063h0L39.333,40.165h0a5.50691,5.50691,0,0,1-1.27637.71191A1.14287,1.14287,0,0,1,36.92969,42ZM32.626,39.15332a1.06959,1.06959,0,0,1,.64062.21094,4.52182,4.52182,0,0,0,1.044.583,1.047,1.047,0,0,1,.66406.97851A.08846.08846,0,0,0,35.07031,41h1.85938a.08744.08744,0,0,0,.0957-.07324,1.0489,1.0489,0,0,1,.66309-.97949,4.50867,4.50867,0,0,0,1.04492-.583,1.08538,1.08538,0,0,1,1.18066-.07031.11215.11215,0,0,0,.14843-.02833l.92872-1.54687-.03418-.08887a1.04216,1.04216,0,0,1-.53906-1.05761,4.02012,4.02012,0,0,0,0-1.14551,1.04154,1.04154,0,0,1,.53906-1.05664l-.89551-1.63672a.10755.10755,0,0,0-.14257-.0293,1.09122,1.09122,0,0,1-1.18555-.06836,4.52223,4.52223,0,0,0-1.044-.583,1.047,1.047,0,0,1-.66406-.97851A.08846.08846,0,0,0,36.92969,31H35.07031a.08744.08744,0,0,0-.0957.07324,1.0489,1.0489,0,0,1-.66309.97949,4.50826,4.50826,0,0,0-1.04492.583,1.08957,1.08957,0,0,1-1.18066.07031.1185.1185,0,0,0-.14845.02833l-.9287,1.54687a1.21383,1.21383,0,0,1,.57324,1.14648,4.02012,4.02012,0,0,0,0,1.14551,1.04154,1.04154,0,0,1-.53906,1.05664l.89551,1.63672a.11008.11008,0,0,0,.14257.0293A1.11619,1.11619,0,0,1,32.626,39.15332Z"/><path class="cls-1" d="M35.99512,38.499A2.49951,2.49951,0,1,1,38.166,37.25h-.001A2.50151,2.50151,0,0,1,35.99512,38.499Zm.00781-3.999a1.49962,1.49962,0,1,0,.74707.2002A1.50364,1.50364,0,0,0,36.00293,34.5ZM37.73242,37h0Z"/></g></svg>