<svg xmlns="http://www.w3.org/2000/svg" viewBox="0 0 48 48"><defs><style>.cls-1{fill:#ff6c2c;}</style></defs><g id="Base_Icons" data-name="Base Icons"><path d="M41.43848,11.76855,38.91162,9.2417l2.477-2.47705a.49995.49995,0,1,0-.707-.707L23.26086,23.47839a10.49162,10.49162,0,1,0-3.95813,18.1427.49969.49969,0,1,0-.26757-.96289A9.50154,9.50154,0,1,1,26,31.5a.5.5,0,0,0,1,0,10.46074,10.46074,0,0,0-3.00574-7.34094l8.55316-8.55316,2.52778,2.52691a.4998.4998,0,0,0,.707,0l5.65625-5.65722A.49983.49983,0,0,0,41.43848,11.76855Zm-6.00977,5.30372-2.12207-2.1211,4.9502-4.95019,2.12109,2.12109Z"/></g><g id="Sub_Icons" data-name="Sub Icons"><path class="cls-1" d="M42,34a.49971.49971,0,0,0-.5.5v3H37.794v-3a.5.5,0,0,0-1,0v7a.5.5,0,0,0,1,0v-3H41.5v3a.5.5,0,0,0,1,0v-7A.49971.49971,0,0,0,42,34Z"/><path class="cls-1" d="M32.58789,37.5H31.41211a1.25008,1.25008,0,1,1,0-2.5h1.76465a.5.5,0,0,0,0-1H31.41211a2.25,2.25,0,1,0,0,4.5h1.17578a1.25008,1.25008,0,1,1,0,2.5H29.64746a.5.5,0,1,0,0,1h2.94043a2.25,2.25,0,1,0,0-4.5Z"/><path class="cls-1" d="M24.94141,37.5H23.76465a1.25008,1.25008,0,1,1,0-2.5H25.5293a.5.5,0,0,0,0-1H23.76465a2.25,2.25,0,1,0,0,4.5h1.17676a1.25008,1.25008,0,1,1,0,2.5H22a.5.5,0,0,0,0,1h2.94141a2.25,2.25,0,1,0,0-4.5Z"/></g></svg>