<svg xmlns="http://www.w3.org/2000/svg" viewBox="0 0 48 48"><defs><style>.cls-1{fill:#ff6c2c;}</style></defs><g id="Base_Icons" data-name="Base Icons"><path d="M27.16858,28.48761A5.49718,5.49718,0,0,0,29.47467,24.5h9.00952a14.704,14.704,0,0,1-.14728,1.6709c-.04589.29492-.09863.58594-.16015.873a.50043.50043,0,0,0,.38476.59375.5527.5527,0,0,0,.10547.01074.50114.50114,0,0,0,.48828-.39551c.06543-.30664.12207-.61523.16993-.93066a15.67116,15.67116,0,0,0,.15911-2.24457A.4729.4729,0,0,0,39.5,24c0-.09521-.01257-.18732-.01428-.28217-.0055-.33929-.02368-.67639-.05133-1.013-.0141-.16919-.02851-.33783-.048-.50543-.04058-.35126-.09546-.69928-.16-1.046-.02875-.15381-.05664-.30737-.08984-.45959-.07526-.34516-.16517-.68579-.26416-1.025-.04364-.14959-.08619-.29919-.13416-.4469-.10608-.32617-.22626-.64715-.35437-.9663-.06183-.15412-.12256-.30823-.18909-.4599-.13141-.29908-.27563-.59253-.42651-.88416-.08356-.16168-.16669-.323-.25574-.48132-.15375-.2732-.31891-.54053-.49-.80579-.10333-.16009-.20673-.31934-.31573-.47528-.07892-.11316-.14606-.23206-.22821-.34351-.11145-.15124-.23731-.28735-.35346-.43383-.10315-.12964-.20636-.25861-.3136-.38483-.23437-.27716-.47766-.54327-.7287-.80158-.08184-.08392-.16369-.16729-.24743-.24938q-.43012-.4229-.88886-.808-.09429-.0791-.18963-.1568-.48835-.39742-1.00538-.75232c-.06524-.04474-.13079-.08856-.19671-.13238q-.5094-.33792-1.04315-.6344c-.09626-.05359-.19336-.105-.2909-.15662-.32476-.17077-.65435-.33087-.99139-.47827-.15241-.0672-.30646-.13013-.46137-.1925-.28826-.11512-.57916-.223-.87518-.32093-.21484-.07171-.43182-.13672-.65069-.19915-.25171-.07117-.50458-.13739-.761-.19617-.25678-.05927-.51569-.11048-.77716-.15674-.12824-.02264-.25244-.05737-.38165-.077-.12128-.01837-.24225-.02154-.36353-.037q-.37335-.04743-.75134-.0766c-.29236-.0232-.58344-.03748-.87482-.04431C24.22089,8.51447,24.11224,8.5,24,8.5c-.09686,0-.19055.01276-.28705.01453-.33539.00555-.66858.02362-1.00128.05078-.173.01434-.3454.02893-.51672.04895-.34833.04028-.69336.09479-1.0373.15869-.15582.029-.31146.05737-.46569.091-.34436.07508-.68433.16492-1.02277.26361-.14948.04364-.299.08594-.44653.13391-.32734.10645-.64948.22706-.96973.35566-.15253.06121-.305.12127-.4552.18713-.301.13214-.59625.27728-.88965.4292-.15961.08258-.31885.16461-.47522.2525-.27508.15473-.54419.321-.81122.49335-.15875.10248-.31665.20514-.47137.31317-.11353.07916-.23279.14655-.34461.229-.1513.11152-.28747.23743-.434.35358-.12963.10315-.25848.2063-.3847.31348-.27716.23437-.54327.47766-.80158.7287-.08392.08184-.16729.16369-.24938.24743q-.4229.43013-.808.88886c-.05273.06286-.105.12585-.15674.18957q-.39779.48881-.75293,1.00623c-.04443.06463-.08783.1297-.13128.19507q-.33829.50985-.635,1.04413c-.05353.09619-.105.19329-.15656.29077-.17077.32476-.33087.65435-.47827.99139-.0672.15241-.13013.30646-.1925.46137-.11512.28826-.223.57916-.32093.87518-.07171.21472-.13665.43164-.19909.65039-.07123.252-.13758.50537-.19641.76215-.05909.25622-.11023.51452-.15638.77539-.0227.12854-.05749.253-.07715.38256a.474.474,0,0,0,.0044.09272A15.34855,15.34855,0,0,0,21.58954,39.29309a.47878.47878,0,0,0,.08819.03211c.15754.0238.315.03466.47248.05371.14471.01733.28839.03613.43426.04937.47876.04456.95734.07465,1.43506.07465a15.35737,15.35737,0,0,0,3.26172-.35059.4995.4995,0,0,0,.38184-.59472.49432.49432,0,0,0-.59473-.38184,14.42312,14.42312,0,0,1-3.39356.30774c-.29461-.00659-.58721-.02045-.87731-.04443q-.29847-.0251-.59693-.06293a14.38654,14.38654,0,0,1-5.01037-1.58252l4.50677-7.806a5.43247,5.43247,0,0,0,4.60632-.00012l2.30512,3.99292a.49966.49966,0,1,0,.86523-.5ZM18.52533,23.5h-9a14.49029,14.49029,0,0,1,.21136-2.03693q.06363-.359.14368-.71228.0846-.36739.1875-.72747.08469-.299.18146-.5929.14116-.42362.30646-.83575.08331-.20838.1726-.41376c.14154-.32147.29285-.63764.45661-.94641.04455-.08454.0896-.16883.13586-.25244q.28391-.51087.606-.9964c.03607-.0542.0722-.10828.109-.162q.34022-.49621.71973-.96179.0639-.07837.1289-.15589.37-.44164.77442-.85193.10509-.10665.2127-.21106.37244-.36427.77094-.7008c.11047-.09326.2232-.18414.33679-.27448q.36539-.29149.74872-.56024c.142-.09875.28613-.19263.43078-.28595.05646-.03644.11548-.06909.17243-.1048l4.50061,7.79541A5.49752,5.49752,0,0,0,18.52533,23.5Zm3.17187-4.48779-4.50262-7.79889c.06281-.03351.12537-.06751.18854-.1.26147-.13483.52569-.265.79608-.38409.15924-.07013.32062-.13367.482-.19782.27716-.11029.55683-.21545.842-.30877.16327-.05341.32831-.10035.49329-.14783.28961-.08344.5816-.16089.87836-.22638.16986-.03742.34088-.06879.512-.1.29645-.05426.59528-.1015.89771-.13739.1806-.02136.36194-.03711.54364-.05157.29327-.02362.58862-.03913.88641-.04492q.30487-.00559.611.002c.269.006.53583.02008.801.04059.2337.01837.46747.0415.70141.07116.23822.03022.47431.06684.70887.10846q.359.06363.71228.14368.36739.0846.72747.1875.299.08469.5929.18146.42362.14116.83575.30646.20838.08331.41376.1726c.32147.14154.63764.29285.94641.45661l.04291.02307L26.3028,19.01221a5.43258,5.43258,0,0,0-4.6056,0Zm9.9715-7.29554c.1142.0716.23352.13556.34564.21021.0542.03607.10828.0722.16205.109q.49621.34022.96179.71973.07838.0639.15589.1289.44165.37.85193.77442.10665.10509.21106.2127.36428.37244.7008.77094c.09326.11047.18414.2232.27448.33679q.29259.36677.56237.75159c.09589.13775.18708.27777.27784.41809.16522.25525.32507.51422.47436.78009.07861.13995.15161.282.22534.424.14508.27978.28443.56287.41144.85284.0586.13379.11194.26929.16638.40454.12287.30549.23871.61451.341.92981.04217.13.07934.26123.11773.39222.09491.324.18134.65161.25379.98449.02923.13471.05389.27033.07928.40589.062.33026.1142.66369.15326,1.00134.01727.15063.03046.30182.043.45319.02008.23877.02832.48065.03662.72253h-9a5.49752,5.49752,0,0,0-2.30658-3.98792ZM16.331,36.28314A14.48491,14.48491,0,0,1,9.52533,24.5h9a5.49724,5.49724,0,0,0,2.3064,3.98779ZM19.5,24A4.5,4.5,0,1,1,24,28.5,4.50491,4.50491,0,0,1,19.5,24Z"/><path d="M24,3.5a20.5,20.5,0,1,0,4.25684,40.55762.50035.50035,0,0,0,.38574-.59278.50637.50637,0,0,0-.59278-.38574,19.47674,19.47674,0,1,1,15.10743-15.418.5.5,0,0,0,.39843.584.50764.50764,0,0,0,.09375.00879.5.5,0,0,0,.49024-.40723A20.51813,20.51813,0,0,0,24,3.5Z"/></g><g id="Sub_Icons" data-name="Sub Icons"><path class="cls-1" d="M36,30a3,3,0,1,0,3,3A3.00328,3.00328,0,0,0,36,30Zm0,5a2,2,0,1,1,2-2A2.0026,2.0026,0,0,1,36,35Z"/><path class="cls-1" d="M41.5,38a.49971.49971,0,0,0-.5.5v2.001a.49929.49929,0,0,1-.499.499H39V38.5a.5.5,0,0,0-1,0V41H31.499A.49929.49929,0,0,1,31,40.501V38.5a.5.5,0,0,0-1,0v2.001A1.50122,1.50122,0,0,0,31.499,42h9.002A1.50122,1.50122,0,0,0,42,40.501V38.5A.49971.49971,0,0,0,41.5,38Z"/><path class="cls-1" d="M39.46387,35.917a.50189.50189,0,0,0,.69433-.13769,5.00634,5.00634,0,0,0,.11524-5.376.4996.4996,0,0,0-.85352.51953,4.0057,4.0057,0,0,1-.09375,4.29981A.50092.50092,0,0,0,39.46387,35.917Z"/></g></svg>