<svg xmlns="http://www.w3.org/2000/svg" viewBox="0 0 48 48"><defs><style>.cls-1{fill:#ff6c2c;}</style></defs><g id="Base_Icons" data-name="Base Icons"><path d="M19.44727,41.999a3.00327,3.00327,0,0,1-2.12989-.88086l-3.56347-3.56347a4.26824,4.26824,0,1,1-5.3086-5.3086L4.88184,28.68262a3.0166,3.0166,0,0,1,0-4.25977L12.67969,16.626a.49959.49959,0,0,1,.85254.32714,3.26836,3.26836,0,1,0,3.42089-3.42089.49959.49959,0,0,1-.32714-.85254l7.79687-7.79785a3.01571,3.01571,0,0,1,4.25977,0l3.56347,3.56347a4.26824,4.26824,0,1,1,5.3086,5.3086l3.56347,3.56347a3.0166,3.0166,0,0,1,0,4.25977L33.32031,29.374a.49959.49959,0,0,1-.85254-.32714,3.26836,3.26836,0,1,0-3.42089,3.42089.49959.49959,0,0,1,.32714.85254l-7.79687,7.79785A3.00658,3.00658,0,0,1,19.44727,41.999Zm-6.02051-5.97851a.49988.49988,0,0,1,.35351.14648l4.24414,4.24414a2.017,2.017,0,0,0,2.84571,0L27.98633,33.294a4.21313,4.21313,0,0,1-1.78711-1.0586,4.26819,4.26819,0,1,1,6.03613-6.03613,4.21313,4.21313,0,0,1,1.0586,1.78711l7.11718-7.11621a2.0152,2.0152,0,0,0,0-2.84571L36.167,13.78027a.49959.49959,0,0,1,.32715-.85254,3.25872,3.25872,0,0,0,2.13965-5.56152,3.34743,3.34743,0,0,0-4.62207,0,3.26061,3.26061,0,0,0-.93945,2.13965.49959.49959,0,0,1-.85254.32715L27.97559,5.58887a2.017,2.017,0,0,0-2.84571,0l-7.11621,7.11718a4.21313,4.21313,0,0,1,1.78711,1.0586,4.26819,4.26819,0,0,1-6.03613,6.03613,4.21313,4.21313,0,0,1-1.0586-1.78711L5.58887,25.12988a2.0152,2.0152,0,0,0,0,2.84571L9.833,32.21973a.49959.49959,0,0,1-.32715.85254,3.25872,3.25872,0,0,0-2.13965,5.56152,3.34743,3.34743,0,0,0,4.62207,0,3.26061,3.26061,0,0,0,.93945-2.13965.49895.49895,0,0,1,.499-.47363Z"/></g><g id="Sub_Icons" data-name="Sub Icons"><path class="cls-1" d="M38.34473,43.00879H36.65527a1.04188,1.04188,0,0,1-1.05078-1.03027,4.89877,4.89877,0,0,1-1.166-.64844,1.08986,1.08986,0,0,1-1.457-.36621l-.84375-1.40528a.998.998,0,0,1-.11133-.7832,1.0213,1.0213,0,0,1,.499-.63574,4.85182,4.85182,0,0,1-.042-.63965,4.46072,4.46072,0,0,1,.04785-.66016.92586.92586,0,0,1-.50488-.61523,1.00092,1.00092,0,0,1,.11133-.78418l.84375-1.4043a1.06615,1.06615,0,0,1,1.4248-.374,6.39694,6.39694,0,0,1,1.20508-.64649,1.03044,1.03044,0,0,1,1.04394-1.02441h1.68946a1.04188,1.04188,0,0,1,1.05078,1.03027,4.89877,4.89877,0,0,1,1.166.64844,1.088,1.088,0,0,1,1.457.36621l.84375,1.40528a.998.998,0,0,1,.11133.7832,1.0213,1.0213,0,0,1-.499.63574,4.85182,4.85182,0,0,1,.042.63965,4.41909,4.41909,0,0,1-.0459.64648l.00391-.00683a1.0213,1.0213,0,0,1,.499.63574,1.00092,1.00092,0,0,1-.11133.78418l-.84277,1.40527a1.07273,1.07273,0,0,1-1.42578.373,6.39694,6.39694,0,0,1-1.20508.64649A1.03044,1.03044,0,0,1,38.34473,43.00879ZM34.417,40.31152a1.04135,1.04135,0,0,1,.63086.2041,4.05822,4.05822,0,0,0,.93653.52344,1.002,1.002,0,0,1,.63769.93946l1.72266.01269a1.09012,1.09012,0,0,1,.67187-.95312,4.03272,4.03272,0,0,0,.93555-.52247,1.05087,1.05087,0,0,1,1.13183-.06933l.90625-1.41113-.00878-.00586a1.00006,1.00006,0,0,1-.51954-1.01465A3.47072,3.47072,0,0,0,41.499,37.5a3.53716,3.53716,0,0,0-.03613-.51172.99969.99969,0,0,1,.51856-1.01758l-.835-1.41211a1.1507,1.1507,0,0,1-1.19433-.07421,4.05822,4.05822,0,0,0-.93653-.52344,1.002,1.002,0,0,1-.63769-.93946l-1.72266-.01269a1.09012,1.09012,0,0,1-.67187.95312,4.03272,4.03272,0,0,0-.93555.52247,1.04673,1.04673,0,0,1-1.13183.06933l-.90723,1.41113a1.00522,1.00522,0,0,1,.5293,1.02051A3.47072,3.47072,0,0,0,33.501,37.5a3.53716,3.53716,0,0,0,.03613.51172.99969.99969,0,0,1-.51856,1.01758l.835,1.41211A1.34423,1.34423,0,0,1,34.417,40.31152Z"/><path class="cls-1" d="M37.49707,39.501a2.00748,2.00748,0,1,1,.52051-.06934A2.01729,2.01729,0,0,1,37.49707,39.501ZM37.501,36.5a.99991.99991,0,1,0,.499.13379A1.00114,1.00114,0,0,0,37.501,36.5Z"/></g></svg>