<svg xmlns="http://www.w3.org/2000/svg" viewBox="0 0 48 48"><defs><style>.cls-1{fill:#ff6c2c;}</style></defs><g id="Base_Icons" data-name="Base Icons"><path d="M41.125,29.75a.5.5,0,0,0,.35645-.85059,19.68325,19.68325,0,0,0-7.07135-4.56964,12.70529,12.70529,0,0,0-.414-16.16571.50056.50056,0,1,0-.74218.67188,11.667,11.667,0,0,1,0,15.32812.4763.4763,0,0,0,.43664.82233.49279.49279,0,0,0,.2616.23236,18.68763,18.68763,0,0,1,6.8164,4.38184A.49836.49836,0,0,0,41.125,29.75Z"/><path d="M26.71973,38H9.03027a1.88954,1.88954,0,0,1-1.44336-.59863.82469.82469,0,0,1-.19726-.68457C8.65625,30.33887,17.05371,29,23.875,29a38.12755,38.12755,0,0,1,7.1748.60742.51244.51244,0,0,0,.58594-.39648.50115.50115,0,0,0-.39648-.58594A39.13442,39.13442,0,0,0,23.875,28C13.55566,28,7.5166,30.94629,6.40918,36.52148a1.80376,1.80376,0,0,0,.4043,1.51368A2.86458,2.86458,0,0,0,9.03027,39H26.71973a.5.5,0,0,0,0-1Z"/><path d="M23.875,7a8.88707,8.88707,0,0,0-5.03125,1.53711.49974.49974,0,1,0,.5625.82617A7.90058,7.90058,0,0,1,23.875,8a8,8,0,1,1-7.48242,10.82324.50006.50006,0,0,0-.93555.35352A8.99888,8.99888,0,1,0,23.875,7Z"/></g><g id="Sub_Icons" data-name="Sub Icons"><path class="cls-1" d="M38.75,32h-3a.49971.49971,0,0,0-.5.5v9a.5.5,0,0,0,1,0V39h2.5a3.5,3.5,0,0,0,0-7Zm0,6h-2.5V33h2.5a2.5,2.5,0,0,1,0,5Z"/><path class="cls-1" d="M31.25,32a.49971.49971,0,0,0-.5.5v9a.5.5,0,0,0,1,0v-9A.49971.49971,0,0,0,31.25,32Z"/><path class="cls-1" d="M8,13.5A1.99773,1.99773,0,0,0,9.09558,9.83026L9.80078,8.5H11.5v4.071a2,2,0,1,0,1,0V8.5h1.69141l.67669,1.35413A1.99667,1.99667,0,1,0,16,9.5c-.06226,0-.12091.01276-.1817.01837l-.871-1.742A.5011.5011,0,0,0,14.5,7.5h-5a.49878.49878,0,0,0-.44141.26562L8.13226,9.51337C8.08771,9.51038,8.04529,9.5,8,9.5a2,2,0,0,0,0,4Zm5,1a1,1,0,1,1-1-1A1.00067,1.00067,0,0,1,13,14.5Zm4-3a1,1,0,1,1-1-1A1.00067,1.00067,0,0,1,17,11.5Zm-9-1a1,1,0,1,1-1,1A1.00067,1.00067,0,0,1,8,10.5Z"/></g></svg>