<svg xmlns="http://www.w3.org/2000/svg" viewBox="0 0 48 48"><defs><style>.cls-1{fill:#ff6c2c;}</style></defs><g id="Base_Icons" data-name="Base Icons"><path d="M27.71777,41H8.28223a2.92568,2.92568,0,0,1-2.23047-1.002,2.23093,2.23093,0,0,1-.51856-1.8418C6.69824,31.51172,13.084,28,24,28a39.01658,39.01658,0,0,1,6.585.51172.50133.50133,0,0,1,.4082.57812.5082.5082,0,0,1-.57812.40821A37.92644,37.92644,0,0,0,24,29c-7.22949,0-16.12988,1.61816-17.48242,9.32812a1.247,1.247,0,0,0,.2998,1.02637A1.91749,1.91749,0,0,0,8.28223,40H27.71777a.5.5,0,0,1,0,1Z"/><path d="M24,24.5A9.5,9.5,0,1,1,33.5,15,9.51081,9.51081,0,0,1,24,24.5Zm0-18A8.5,8.5,0,1,0,32.5,15,8.51014,8.51014,0,0,0,24,6.5Z"/></g><g id="Sub_Icons" data-name="Sub Icons"><path class="cls-1" d="M36,42a6,6,0,1,1,6-6A6.00657,6.00657,0,0,1,36,42Zm0-11a5,5,0,1,0,5,5A5.00588,5.00588,0,0,0,36,31Z"/><path class="cls-1" d="M34.5,38a.49971.49971,0,0,1-.5-.5v-3a.5.5,0,0,1,1,0v3A.49971.49971,0,0,1,34.5,38Z"/><path class="cls-1" d="M37.5,38a.49971.49971,0,0,1-.5-.5v-3a.5.5,0,0,1,1,0v3A.49971.49971,0,0,1,37.5,38Z"/></g></svg>