<svg xmlns="http://www.w3.org/2000/svg" viewBox="0 0 48 48"><defs><style>.cls-1{fill:#ff6c2c;}</style></defs><g id="Base_Icons" data-name="Base Icons"><path d="M30.47852,17.56836l7.42443-7.39014a1.99707,1.99707,0,1,0-.77295-.6416l-7.35656,7.32276a6.15191,6.15191,0,0,0-1.623,5.8916A11.12386,11.12386,0,1,1,8.24316,19.2002a11.26585,11.26585,0,0,1,3.48847-3.20166l1.97931,3.37939a.50117.50117,0,0,0,.43164.24707.51478.51478,0,0,0,.0664-.00391.50151.50151,0,0,0,.416-.36523l1.60742-5.915a.50064.50064,0,0,0-.35449-.61426l-6-1.585a.5.5,0,0,0-.55957.73633l1.91309,3.2666a12.36591,12.36591,0,0,0-3.80274,3.47363,12.0799,12.0799,0,0,0,9.21,18.98438c.24414.01465.48926.02246.73242.02246a12.09738,12.09738,0,0,0,11.7461-15.126A5.15429,5.15429,0,0,1,30.47852,17.56836ZM38.043,7.668a.99989.99989,0,1,1,0,1.41406A.99573.99573,0,0,1,38.043,7.668Z"/></g><g id="Sub_Icons" data-name="Sub Icons"><path class="cls-1" d="M41.44727,36.74805l-.2461.44531.21485-.47656A4.96433,4.96433,0,0,0,41.46777,36c0-.24316-.01757-.48242-.01855-.749a1.077,1.077,0,0,0,.52344-.666,1.05479,1.05479,0,0,0-.11719-.82324l-.92871-1.54785a1.09242,1.09242,0,0,0-1.417-.42774,1.69849,1.69849,0,0,0-.17188.042,7.13949,7.13949,0,0,0-1.30371-.75488,1.095,1.095,0,0,0-1.10449-1.082H35.07031a1.14245,1.14245,0,0,0-1.12988,1.124,9.40491,9.40491,0,0,0-1.36816.708,1.121,1.121,0,0,0-1.499.39258l-.92871,1.5459a1.05538,1.05538,0,0,0-.11719.82324,1.16719,1.16719,0,0,0,.55664.69824A4.96433,4.96433,0,0,0,30.53223,36c0,.24316.01757.48242.0205.748a1.08184,1.08184,0,0,0-.52539.667,1.05538,1.05538,0,0,0,.11719.82324l.92871,1.54785a1.09458,1.09458,0,0,0,1.417.42774,1.69849,1.69849,0,0,0,.17188-.042,7.13949,7.13949,0,0,0,1.30371.75488,1.095,1.095,0,0,0,1.10449,1.082h1.85938a1.14245,1.14245,0,0,0,1.12988-1.124,9.55132,9.55132,0,0,0,1.36914-.707,1.12361,1.12361,0,0,0,1.498-.39355l.92871-1.5459a1.05538,1.05538,0,0,0,.11719-.82324A1.08184,1.08184,0,0,0,41.44727,36.74805Zm-1.39258,2.51269a.10316.10316,0,0,1-.13672.02539,1.09678,1.09678,0,0,0-1.18945.07129,4.492,4.492,0,0,1-1.043.582,1.056,1.056,0,0,0-.669.98731.07971.07971,0,0,1-.08691.06445H35.07031a.07959.07959,0,0,1-.08691-.06543,1.05517,1.05517,0,0,0-.66992-.98633,4.50545,4.50545,0,0,1-1.042-.582,1.07723,1.07723,0,0,0-.6455-.21289,1.12874,1.12874,0,0,0-.54981.14453.10138.10138,0,0,1-.13086-.02636l-.89746-1.626a1.04722,1.04722,0,0,0,.542-1.06445,4.10259,4.10259,0,0,1,0-1.14356,1.19653,1.19653,0,0,0-.57422-1.14355l.92969-1.5459a.10717.10717,0,0,1,.13672-.02539,1.09486,1.09486,0,0,0,1.18945-.07129,4.492,4.492,0,0,1,1.043-.582,1.056,1.056,0,0,0,.669-.98731.07971.07971,0,0,1,.08691-.06445h1.85938a.07959.07959,0,0,1,.08691.06543,1.05517,1.05517,0,0,0,.66992.98633,4.50545,4.50545,0,0,1,1.042.582,1.098,1.098,0,0,0,1.19531.06836.10167.10167,0,0,1,.13086.02636l.89746,1.626a1.04722,1.04722,0,0,0-.542,1.06445,4.10259,4.10259,0,0,1,0,1.14356,1.04785,1.04785,0,0,0,.542,1.06543l.03223.07812Z"/><path class="cls-1" d="M37.0752,34.13867a2.14956,2.14956,0,1,0-1.07813,4.0127,2.19735,2.19735,0,0,0,.55957-.07422,2.14956,2.14956,0,0,0,.51856-3.93848Zm-.07911,2.43653h-.001a1.1494,1.1494,0,1,1-1.293-1.68653,1.16452,1.16452,0,0,1,.2998-.03906,1.15473,1.15473,0,0,1,1.10938.85254A1.14685,1.14685,0,0,1,36.99609,36.5752Z"/></g></svg>