<svg xmlns="http://www.w3.org/2000/svg" viewBox="0 0 48 48"><defs><style>.cls-1{fill:#ff6c2c;}</style></defs><g id="Base_Icons" data-name="Base Icons"><path d="M7.38184,15.5H5.5A.49971.49971,0,0,0,5,16V26a.49971.49971,0,0,0,.5.5H7.38184c3.06152,0,4.88964-2.05566,4.88964-5.5S10.44336,15.5,7.38184,15.5Zm0,10H6v-9H7.38184c3.38476,0,3.88964,2.81934,3.88964,4.5S10.7666,25.5,7.38184,25.5Z"/><path d="M38.7373,26.5C41.08789,26.5,43,24.03223,43,21s-1.91211-5.5-4.2627-5.5-4.26269,2.46777-4.26269,5.5S36.38672,26.5,38.7373,26.5Zm0-10C40.53613,16.5,42,18.51855,42,21s-1.46387,4.5-3.2627,4.5-3.26269-2.01855-3.26269-4.5S36.93848,16.5,38.7373,16.5Z"/><path d="M31.33887,26a.5.5,0,0,0,1,0V16a.501.501,0,0,0-.3418-.47461.50964.50964,0,0,0-.55762.17383L28.07617,20.169l-3.36328-4.46973a.50758.50758,0,0,0-.55762-.17383A.501.501,0,0,0,23.81348,16V26a.5.5,0,0,0,1,0V17.49609l2.86328,3.80469a.51917.51917,0,0,0,.79883,0l2.86328-3.80469Z"/><path d="M21.17773,16.5a.5.5,0,0,0,0-1H15.53418a.49971.49971,0,0,0-.5.5V26a.49971.49971,0,0,0,.5.5h5.64355a.5.5,0,0,0,0-1H16.03418v-4h2.63574a.5.5,0,1,0,0-1H16.03418v-4Z"/></g><g id="Sub_Icons" data-name="Sub Icons"><path class="cls-1" d="M41.96387,34.582a1.04234,1.04234,0,0,0-.11524-.81641L40.919,32.21875a1.08551,1.08551,0,0,0-1.40625-.4248c-.03028.01074-.15235.02539-.17969.041a7.45965,7.45965,0,0,0-1.30762-.76172A1.08567,1.08567,0,0,0,36.92969,30H35.07031a1.14287,1.14287,0,0,0-1.127,1.123,9.82442,9.82442,0,0,0-1.375.708,1.11444,1.11444,0,0,0-1.48828.38868l-.92871,1.54589a1.0447,1.0447,0,0,0-.11524.81739,1.184,1.184,0,0,0,.55567.70117A5.09248,5.09248,0,0,0,30.541,36c0,.24316.01757.48145.01562.75586a1.06586,1.06586,0,0,0-.52051.66113,1.0447,1.0447,0,0,0,.11524.81739l.92968,1.54687a1.08551,1.08551,0,0,0,1.40625.4248c.03028-.01074.15235-.02539.17969-.041a7.45965,7.45965,0,0,0,1.30762.76172A1.08567,1.08567,0,0,0,35.07031,42h1.85938a1.14287,1.14287,0,0,0,1.127-1.123A5.50691,5.50691,0,0,0,39.333,40.165l.10058.00586a1.11367,1.11367,0,0,0,1.48633-.39063l.92871-1.54589a1.0447,1.0447,0,0,0,.11524-.81739,1.06586,1.06586,0,0,0-.52051-.66113l-.24219.4375.207-.47754A5.09248,5.09248,0,0,0,41.459,36c0-.24316-.01757-.48145-.01464-.75586A1.06623,1.06623,0,0,0,41.96387,34.582Zm-1.90138,4.68359a.1124.1124,0,0,1-.14843.02833,1.08538,1.08538,0,0,0-1.18066.07031,4.50867,4.50867,0,0,1-1.04492.583,1.0489,1.0489,0,0,0-.66309.97949A.08744.08744,0,0,1,36.92969,41H35.07031a.08846.08846,0,0,1-.0957-.07422,1.047,1.047,0,0,0-.66406-.97851,4.52182,4.52182,0,0,1-1.044-.583,1.06959,1.06959,0,0,0-.64062-.21094,1.11619,1.11619,0,0,0-.54493.14258.10979.10979,0,0,1-.14257-.0293L31.043,37.62988a1.04154,1.04154,0,0,0,.53906-1.05664,4.02012,4.02012,0,0,1,0-1.14551,1.21383,1.21383,0,0,0-.57324-1.14648l.9287-1.54687a.11881.11881,0,0,1,.14845-.02833,1.08957,1.08957,0,0,0,1.18066-.07031,4.50826,4.50826,0,0,1,1.04492-.583,1.0489,1.0489,0,0,0,.66309-.97949A.08744.08744,0,0,1,35.07031,31h1.85938a.08846.08846,0,0,1,.0957.07422,1.047,1.047,0,0,0,.66406.97851,4.52223,4.52223,0,0,1,1.044.583,1.09122,1.09122,0,0,0,1.18555.06836.10781.10781,0,0,1,.14257.0293l.89551,1.63672a1.04154,1.04154,0,0,0-.53906,1.05664,4.02012,4.02012,0,0,1,0,1.14551,1.04216,1.04216,0,0,0,.53906,1.05761l.03418.08887Z"/><path class="cls-1" d="M37.25,33.834a2.49982,2.49982,0,1,0,.915,3.416h.001A2.50612,2.50612,0,0,0,37.25,33.834Zm.0498,2.916a1.49962,1.49962,0,1,1-.5498-2.0498A1.503,1.503,0,0,1,37.2998,36.75Z"/></g></svg>