<svg xmlns="http://www.w3.org/2000/svg" viewBox="0 0 48 48"><defs><style>.cls-1{fill:#ff6c2c;}</style></defs><g id="Base_Icons" data-name="Base Icons"><path d="M30.07617,28.42871A40.03476,40.03476,0,0,0,24,28C13.084,28,6.69824,31.51172,5.5332,38.15625a2.23093,2.23093,0,0,0,.51856,1.8418A2.92568,2.92568,0,0,0,8.28223,41H26.71777a.5.5,0,0,0,0-1H8.28223a1.91749,1.91749,0,0,1-1.46485-.64551,1.247,1.247,0,0,1-.2998-1.02637C7.87012,30.61816,16.77051,29,24,29a39.04887,39.04887,0,0,1,5.92383.417.5.5,0,0,0,.15234-.98828Z"/><path d="M24,5.5a9.44115,9.44115,0,0,0-5.5166,1.76465.50052.50052,0,0,0,.582.81445,8.49947,8.49947,0,1,1-3.44824,8.334.49994.49994,0,1,0-.98633.16406A9.50044,9.50044,0,1,0,24,5.5Z"/></g><g id="Sub_Icons" data-name="Sub Icons"><path class="cls-1" d="M38.75,32h-3a.49971.49971,0,0,0-.5.5v9a.5.5,0,0,0,1,0V39h2.5a3.5,3.5,0,0,0,0-7Zm0,6h-2.5V33h2.5a2.5,2.5,0,0,1,0,5Z"/><path class="cls-1" d="M31.25,32a.49971.49971,0,0,0-.5.5v9a.5.5,0,0,0,1,0v-9A.49971.49971,0,0,0,31.25,32Z"/><path class="cls-1" d="M8,13.5A1.99773,1.99773,0,0,0,9.09558,9.83026L9.80078,8.5H11.5v4.071a2,2,0,1,0,1,0V8.5h1.69141l.67669,1.35413A1.99667,1.99667,0,1,0,16,9.5c-.06226,0-.12091.01276-.1817.01837l-.871-1.742A.5011.5011,0,0,0,14.5,7.5h-5a.49878.49878,0,0,0-.44141.26562L8.13226,9.51337C8.08771,9.51038,8.04529,9.5,8,9.5a2,2,0,0,0,0,4Zm5,1a1,1,0,1,1-1-1A1.00067,1.00067,0,0,1,13,14.5Zm4-3a1,1,0,1,1-1-1A1.00067,1.00067,0,0,1,17,11.5Zm-9-1a1,1,0,1,1-1,1A1.00067,1.00067,0,0,1,8,10.5Z"/></g></svg>