<svg xmlns="http://www.w3.org/2000/svg" viewBox="0 0 48 48"><defs><style>.cls-1{fill:#ff6c2c;}</style></defs><g id="Base_Icons" data-name="Base Icons"><path d="M28.03418,27.5a.49971.49971,0,0,0-.5-.5h-12a.5.5,0,0,0,0,1h12A.49971.49971,0,0,0,28.03418,27.5Z"/><path d="M15.53418,33a.5.5,0,0,0,0,1h11a.5.5,0,0,0,0-1Z"/><path d="M33,21.5a.49971.49971,0,0,0-.5-.5h-17a.5.5,0,0,0,0,1h17A.49971.49971,0,0,0,33,21.5Z"/><path d="M18.38672,7H37.49707A.50347.50347,0,0,1,38,7.50293V26.49707a.5.5,0,1,0,1,0V7.50293A1.50414,1.50414,0,0,0,37.49707,6H18.38672a.5.5,0,0,0,0,1Z"/><path d="M28.49707,41H10.50293A.50347.50347,0,0,1,10,40.49707V20.78516a.5.5,0,0,0-1,0V40.49707A1.50414,1.50414,0,0,0,10.50293,42H28.49707a.5.5,0,1,0,0-1Z"/><path d="M32.53418,15h-14a.5.5,0,0,0,0,1h14a.5.5,0,0,0,0-1Z"/></g><g id="Sub_Icons" data-name="Sub Icons"><path class="cls-1" d="M12,16.55859l2.77637,1.38868a.49945.49945,0,0,0,.70215-.59082L13.98474,12.3772a3.5,3.5,0,1,0-3.96948,0L8.52148,17.35645a.49945.49945,0,0,0,.70215.59082ZM9.5,9.5A2.5,2.5,0,1,1,12,12,2.50231,2.50231,0,0,1,9.5,9.5Zm1.42737,3.31421a3.18923,3.18923,0,0,0,2.14526,0l1.11585,3.721-1.96485-.98243a.50056.50056,0,0,0-.44726,0l-1.96485.98243Z"/><path class="cls-1" d="M41.44336,36.75586l-.24219.4375.207-.47754A5.09248,5.09248,0,0,0,41.459,36c0-.24316-.01757-.48145-.01464-.75586a1.06623,1.06623,0,0,0,.51953-.66211,1.04234,1.04234,0,0,0-.11524-.81641L40.919,32.21875a1.08452,1.08452,0,0,0-1.40625-.4248c-.03028.01074-.15235.02539-.17969.041a7.45965,7.45965,0,0,0-1.30762-.76172A1.08567,1.08567,0,0,0,36.92969,30H35.07031a1.14287,1.14287,0,0,0-1.127,1.123,9.82442,9.82442,0,0,0-1.375.708,1.11351,1.11351,0,0,0-1.48828.38868l-.92871,1.54589a1.0447,1.0447,0,0,0-.11524.81739,1.184,1.184,0,0,0,.55567.70117A5.09248,5.09248,0,0,0,30.541,36c0,.24316.01757.48145.01562.75586a1.06586,1.06586,0,0,0-.52051.66113,1.0447,1.0447,0,0,0,.11524.81739l.92968,1.54687a1.086,1.086,0,0,0,1.40625.4248c.03028-.01074.15235-.02539.17969-.041a7.45965,7.45965,0,0,0,1.30762.76172A1.08567,1.08567,0,0,0,35.07031,42h1.85938a1.14287,1.14287,0,0,0,1.127-1.123A5.50691,5.50691,0,0,0,39.333,40.165l.10058.00586a1.11367,1.11367,0,0,0,1.48633-.39063l.92871-1.54589a1.0447,1.0447,0,0,0,.11524-.81739A1.06586,1.06586,0,0,0,41.44336,36.75586Zm-1.38087,2.50976a.11215.11215,0,0,1-.14843.02833,1.08729,1.08729,0,0,0-1.18066.07031,4.50867,4.50867,0,0,1-1.04492.583,1.0489,1.0489,0,0,0-.66309.97949A.08744.08744,0,0,1,36.92969,41H35.07031a.08846.08846,0,0,1-.0957-.07422,1.047,1.047,0,0,0-.66406-.97851,4.52182,4.52182,0,0,1-1.044-.583,1.06959,1.06959,0,0,0-.64062-.21094,1.11619,1.11619,0,0,0-.54493.14258.11008.11008,0,0,1-.14257-.0293L31.043,37.62988a1.04154,1.04154,0,0,0,.53906-1.05664,4.02012,4.02012,0,0,1,0-1.14551,1.21383,1.21383,0,0,0-.57324-1.14648l.9287-1.54687a.11731.11731,0,0,1,.14845-.02833,1.09148,1.09148,0,0,0,1.18066-.07031,4.50826,4.50826,0,0,1,1.04492-.583,1.0489,1.0489,0,0,0,.66309-.97949A.08744.08744,0,0,1,35.07031,31h1.85938a.08846.08846,0,0,1,.0957.07422,1.047,1.047,0,0,0,.66406.97851,4.52223,4.52223,0,0,1,1.044.583,1.09122,1.09122,0,0,0,1.18555.06836.10755.10755,0,0,1,.14257.0293l.89551,1.63672a1.04154,1.04154,0,0,0-.53906,1.05664,4.02012,4.02012,0,0,1,0,1.14551,1.04216,1.04216,0,0,0,.53906,1.05761l.03418.08887Z"/><path class="cls-1" d="M37.25,33.834a2.49982,2.49982,0,1,0,.915,3.416h.001A2.50612,2.50612,0,0,0,37.25,33.834Zm.0498,2.916a1.49962,1.49962,0,1,1-.5498-2.0498A1.50365,1.50365,0,0,1,37.2998,36.75Z"/></g></svg>