<svg xmlns="http://www.w3.org/2000/svg" viewBox="0 0 48 48"><defs><style>.cls-1{fill:#ff6c2c;}</style></defs><g id="Base_Icons" data-name="Base Icons"><path d="M24,25a9,9,0,1,0-9-9A9.01016,9.01016,0,0,0,24,25ZM24,8a8,8,0,1,1-8,8A8.00917,8.00917,0,0,1,24,8Z"/><path d="M15.21484,24.9707l.003-.00171a.49828.49828,0,0,0,.166-.09887l.00067-.001a.49871.49871,0,0,0,.115-.15649.48287.48287,0,0,0,.02417-.094.48979.48979,0,0,0,.02258-.09228.49887.49887,0,0,0-.02758-.19287l-.00007-.00049a.50179.50179,0,0,0-.10437-.17285,11.63355,11.63355,0,0,1,.0033-15.32422.49984.49984,0,1,0-.74023-.67188,12.66638,12.66638,0,0,0-.45142,16.12232C7.58612,26.90137,3,32.64844,3,38.48242a.5.5,0,0,0,1,0C4,32.87305,8.61182,27.31738,15.21484,24.9707Z"/><path d="M28.27539,28.19727c-.26855-.02539-.53809-.04883-.81152-.07032-.33057-.02441-.66651-.042-1.00489-.05957l-.707-.03515q-.80712-.02784-1.63427-.03028L23.97559,28l-.11768.002q-.8269.00294-1.63525.03028l-.70752.03515c-.33692.01758-.67285.03516-1.0044.05957-.27295.02149-.542.04493-.81006.07032q-.4226.041-.83789.09082c-.28662.0332-.5708.06836-.85009.10839-.18946.02735-.375.05957-.56055.09082l-.395.06348c-.1499.02246-.30029.0459-.44483.07324a.47713.47713,0,0,0-.09716.03028c-5.81592,1.15527-9.17383,3.80175-9.98145,7.86718A1.80281,1.80281,0,0,0,6.939,38.03516,2.86387,2.86387,0,0,0,9.15576,39H27.84424a.5.5,0,0,0,0-1H9.15576a1.88914,1.88914,0,0,1-1.44385-.59863.82326.82326,0,0,1-.19775-.68457c.72559-3.65235,3.85205-6.041,9.292-7.10059a.53551.53551,0,0,0,.08887-.02734c.10254-.01758.207-.03321.31152-.04883l.41358-.06738c.17724-.03028.35449-.05957.53564-.08594.271-.04.54639-.07324.82422-.10645.269-.03125.54053-.06152.81592-.08691.26172-.02539.52392-.04883.79-.06836.32373-.02441.65185-.042.98047-.05957l.69238-.0332q.791-.02784,1.603-.03028l-.002-.5L24,29v-.5l.11377.502q.81225.00294,1.60205.03028l.69189.0332c.33008.01758.65821.03516.981.05957.2666.01953.5293.043.791.06836a.49271.49271,0,0,0,.54541-.4502A.49989.49989,0,0,0,28.27539,28.19727Z"/><path d="M32.563,24.1582a.50308.50308,0,0,0-.106.17481l-.00006.00049a.50069.50069,0,0,0-.02759.19287,8.78273,8.78273,0,0,0,.04669.18628.49708.49708,0,0,0,.11506.15649l.00067.001a.49824.49824,0,0,0,.166.09887l.003.00171a19.19245,19.19245,0,0,1,5.44873,2.9961.50042.50042,0,0,0,.61817-.78711,20.13625,20.13625,0,0,0-5.081-2.88965,12.666,12.666,0,0,0-.4483-16.126.49984.49984,0,1,0-.74023.67188A11.63345,11.63345,0,0,1,32.563,24.1582Z"/></g><g id="Sub_Icons" data-name="Sub Icons"><path class="cls-1" d="M40.501,30H31.49609A1.49747,1.49747,0,0,0,30,31.49609v1.82618a2.501,2.501,0,0,0,1.5,2.28808v4.89356A1.49737,1.49737,0,0,0,32.99561,42h6.00878A1.49737,1.49737,0,0,0,40.5,40.50391V35.61035A2.501,2.501,0,0,0,42,33.32227V31.499A1.50091,1.50091,0,0,0,40.501,30ZM39.5,40.50391A.49638.49638,0,0,1,39.00439,41H32.99561A.49638.49638,0,0,1,32.5,40.50391V35.82227a2.48229,2.48229,0,0,0,1.75-.72461,2.57237,2.57237,0,0,0,3.5,0,2.48229,2.48229,0,0,0,1.75.72461ZM41,33.32227a1.49388,1.49388,0,0,1-2.811.71093.49987.49987,0,0,0-.87792,0,1.48368,1.48368,0,0,1-2.62208,0,.51946.51946,0,0,0-.87792,0A1.49388,1.49388,0,0,1,31,33.32227V31.49609A.4968.4968,0,0,1,31.49609,31H40.501a.49929.49929,0,0,1,.499.499Z"/></g></svg>