<svg xmlns="http://www.w3.org/2000/svg" viewBox="0 0 48 48"><defs><style>.cls-1{fill:#ff6c2c;}</style></defs><g id="Base_Icons" data-name="Base Icons"><path d="M38.14258,16.22168,31.77832,9.85742a.49982.49982,0,0,0-.707,0L9.85742,31.07129a.49982.49982,0,0,0,0,.707l6.36426,6.36426a.49983.49983,0,0,0,.707,0L38.14258,16.92871A.49982.49982,0,0,0,38.14258,16.22168ZM16.5752,37.082,10.918,31.4248,31.4248,10.918,37.082,16.5752Z"/><path d="M16.22168,29.65723a.49995.49995,0,0,0-.707.707l2.12109,2.12109a.49995.49995,0,0,0,.707-.707Z"/><path d="M42.38477,16.22168,31.77832,5.61523a.49982.49982,0,0,0-.707,0L5.61523,31.07129a.49982.49982,0,0,0,0,.707L16.22168,42.38477a.49983.49983,0,0,0,.707,0l3.88867-3.88868.3545.35352a.51466.51466,0,0,0,.707,0l2.82812-2.8291a.49982.49982,0,0,0,0-.707L24.35352,34.96l1.06054-1.06055a.49995.49995,0,0,0-.707-.707L23.293,34.60645l-.707.707L16.5752,41.32422,6.67578,31.4248l24.749-24.749,9.89942,9.89942-6.01074,6.01074-.707.707L33.19238,24.707a.49995.49995,0,1,0,.707.707L34.96,24.35352l.35352.35351a.49982.49982,0,0,0,.707,0l3.18261-3.18164a.4998.4998,0,0,0,0-.707l-.35351-.35449,3.53516-3.53516A.49982.49982,0,0,0,42.38477,16.22168Zm-6.584,7.291.21973-.21973,2.12109-2.12109h.001Z"/><path d="M19.0498,26.82812a.49995.49995,0,0,0-.707.707l2.12207,2.12207a.49995.49995,0,0,0,.707-.707Z"/><path d="M21.87891,24a.49995.49995,0,0,0-.707.707L23.293,26.82812a.49995.49995,0,0,0,.707-.707Z"/><path d="M24.707,21.17188a.49995.49995,0,0,0-.707.707L26.12109,24a.49995.49995,0,0,0,.707-.707Z"/><path d="M27.53516,18.34277a.49995.49995,0,0,0-.707.707l2.12208,2.12208a.49995.49995,0,0,0,.707-.707Z"/><path d="M29.65723,15.51465a.4998.4998,0,0,0,0,.707l2.12109,2.12109a.49995.49995,0,0,0,.707-.707l-2.12109-2.12109A.49982.49982,0,0,0,29.65723,15.51465Z"/></g><g id="Sub_Icons" data-name="Sub Icons"><path class="cls-1" d="M36,30a6,6,0,1,0,6,6A6.00657,6.00657,0,0,0,36,30Zm0,11a5,5,0,1,1,5-5A5.00588,5.00588,0,0,1,36,41Z"/><path class="cls-1" d="M38.5,35.5h-5a.5.5,0,0,0,0,1h5a.5.5,0,0,0,0-1Z"/></g></svg>