<svg xmlns="http://www.w3.org/2000/svg" viewBox="0 0 48 48"><defs><style>.cls-1{fill:#ff6c2c;}</style></defs><g id="Base_Icons" data-name="Base Icons"><path d="M29.499,41H10.49707A.49722.49722,0,0,1,10,40.50293v-33A.50347.50347,0,0,1,10.50293,7H37.49805A.50305.50305,0,0,1,38,7.502V28.499a.5.5,0,0,0,1,0V7.502A1.50373,1.50373,0,0,0,37.49805,6H10.50293A1.50414,1.50414,0,0,0,9,7.50293v33A1.49915,1.49915,0,0,0,10.49707,42H29.499a.5.5,0,0,0,0-1Z"/><path d="M28.03418,29.5a.49971.49971,0,0,0-.5-.5h-12a.5.5,0,0,0,0,1h12A.49971.49971,0,0,0,28.03418,29.5Z"/><path d="M15.53418,35a.5.5,0,0,0,0,1h11a.5.5,0,0,0,0-1Z"/><path d="M33,23.5a.49971.49971,0,0,0-.5-.5h-17a.5.5,0,0,0,0,1h17A.49971.49971,0,0,0,33,23.5Z"/><path d="M30.53418,18a.5.5,0,0,0,0-1h-4a.5.5,0,0,0,0,1Z"/><path d="M32.53418,12h-6a.5.5,0,0,0,0,1h6a.5.5,0,0,0,0-1Z"/><path d="M16.49512,18h5.00976A1.49706,1.49706,0,0,0,23,16.50488V13.49512A1.49706,1.49706,0,0,0,21.50488,12H16.49512A1.49706,1.49706,0,0,0,15,13.49512v3.00976A1.49706,1.49706,0,0,0,16.49512,18ZM16,13.49512A.49513.49513,0,0,1,16.49512,13h5.00976A.49513.49513,0,0,1,22,13.49512v3.00976A.49513.49513,0,0,1,21.50488,17H16.49512A.49513.49513,0,0,1,16,16.50488Z"/></g><g id="Sub_Icons" data-name="Sub Icons"><path class="cls-1" d="M41.85352,35.68457,38.166,31.99805a1.34635,1.34635,0,0,0-.59766-.34864l-5.873-1.60156a1.342,1.342,0,0,0-1.64746,1.64844l1.60156,5.873a1.34582,1.34582,0,0,0,.34668.59472l3.68848,3.68946a.49995.49995,0,0,0,.707-.707l-3.69043-3.6914a.33775.33775,0,0,1-.08691-.15039l-.62079-2.27564,3.03528-3.0354,2.275.62061a.33835.33835,0,0,1,.15332.08886l3.68945,3.68848a.49995.49995,0,0,0,.707-.707ZM31.69043,33.918l-.67773-2.48438a.339.339,0,0,1,.08789-.333.3558.3558,0,0,1,.332-.08789l2.48517.678Z"/><path class="cls-1" d="M37.29492,36.58789a.49995.49995,0,0,0-.707.707l1.7832,1.7832a.49995.49995,0,0,0,.707-.707Z"/></g></svg>