<svg xmlns="http://www.w3.org/2000/svg" viewBox="0 0 48 48"><defs><style>.cls-1{fill:#ff6c2c;}</style></defs><g id="Base_Icons" data-name="Base Icons"><path d="M27.99805,41.09375c-1.47168,1.05371-2.71387,1.8125-3.49707,2.26465a1.01562,1.01562,0,0,1-1.03125,0c-2.51953-1.4541-10.98047-6.79492-14.083-14.47461a.50033.50033,0,0,0-.92774.375c3.22266,7.97559,11.92188,13.4707,14.51075,14.96484a2.01358,2.01358,0,0,0,2.03125.001c.80273-.46289,2.07519-1.24023,3.5791-2.31836a.49973.49973,0,0,0-.582-.8125Z"/><path d="M17.63184,28a.49972.49972,0,0,0,.5-.5v-7a.50024.50024,0,0,0-.917-.27637l-1.89941,2.87012L13.417,20.22461A.49986.49986,0,0,0,12.5,20.5v7a.5.5,0,0,0,1,0V22.16211l1.39844,2.11328a.5.5,0,0,0,.834.001l1.39942-2.11524V27.5A.49971.49971,0,0,0,17.63184,28Z"/><path d="M30.36816,28h1.15821a4.00009,4.00009,0,0,0,0-8H30.36816a.49972.49972,0,0,0-.5.5v7A.49972.49972,0,0,0,30.36816,28Zm.5-7h.65821a3.00012,3.00012,0,0,1,0,6h-.65821Z"/><path d="M20.60547,24c0,2.20605,1.52246,4,3.39453,4s3.39453-1.79395,3.39453-4S25.87207,20,24,20,20.60547,21.794,20.60547,24Zm5.78906,0c0,1.6543-1.07422,3-2.39453,3s-2.39453-1.3457-2.39453-3S22.67969,21,24,21,26.39453,22.3457,26.39453,24Z"/><path d="M9,18.5a.49971.49971,0,0,0,.5-.5V13.21a1.20427,1.20427,0,0,1,.67969-1.13574l13.501-5.51074a.84094.84094,0,0,1,.63868,0l13.501,5.51074A1.20427,1.20427,0,0,1,38.5,13.21V18a.5.5,0,0,0,1,0V13.21a2.20793,2.20793,0,0,0-1.30273-2.06152L24.69629,5.6377a1.82927,1.82927,0,0,0-1.39258,0l-13.501,5.51074A2.20793,2.20793,0,0,0,8.5,13.21V18A.49971.49971,0,0,0,9,18.5Z"/></g><g id="Sub_Icons" data-name="Sub Icons"><path class="cls-1" d="M40.501,30H31.49609A1.49747,1.49747,0,0,0,30,31.49609v1.82618a2.501,2.501,0,0,0,1.5,2.28826v4.89338A1.49747,1.49747,0,0,0,32.99609,42h6.00782A1.49747,1.49747,0,0,0,40.5,40.50391V35.61053A2.501,2.501,0,0,0,42,33.32227V31.499A1.50122,1.50122,0,0,0,40.501,30ZM39.5,40.50391A.4968.4968,0,0,1,39.00391,41H32.99609A.4968.4968,0,0,1,32.5,40.50391V35.82227a2.48314,2.48314,0,0,0,1.75-.72461,2.57237,2.57237,0,0,0,3.5,0,2.48314,2.48314,0,0,0,1.75.72461ZM41,33.32227a1.49358,1.49358,0,0,1-2.81055.71093.50069.50069,0,0,0-.8789,0,1.48287,1.48287,0,0,1-2.6211,0,.52035.52035,0,0,0-.8789,0A1.49358,1.49358,0,0,1,31,33.32227V31.49609A.4968.4968,0,0,1,31.49609,31H40.501a.49929.49929,0,0,1,.499.499Z"/></g></svg>