<svg xmlns="http://www.w3.org/2000/svg" viewBox="0 0 48 48"><defs><style>.cls-1{fill:#ff6c2c;}</style></defs><g id="Base_Icons" data-name="Base Icons"><path d="M17.63184,28a.49972.49972,0,0,0,.5-.5v-7a.50024.50024,0,0,0-.917-.27637l-1.89941,2.87012L13.417,20.22461A.49986.49986,0,0,0,12.5,20.5v7a.5.5,0,0,0,1,0V22.16211l1.39844,2.11328a.5.5,0,0,0,.834.001l1.39942-2.11524V27.5A.49971.49971,0,0,0,17.63184,28Z"/><path d="M30.36816,28h1.15821a4.00009,4.00009,0,0,0,0-8H30.36816a.49972.49972,0,0,0-.5.5v7A.49972.49972,0,0,0,30.36816,28Zm.5-7h.65821a3.00012,3.00012,0,0,1,0,6h-.65821Z"/><path d="M20.60547,24c0,2.20605,1.52246,4,3.39453,4s3.39453-1.79395,3.39453-4S25.87207,20,24,20,20.60547,21.794,20.60547,24Zm5.78906,0c0,1.6543-1.07422,3-2.39453,3s-2.39453-1.3457-2.39453-3S22.67969,21,24,21,26.39453,22.3457,26.39453,24Z"/><path d="M27.99805,41.09375c-1.47168,1.05371-2.71387,1.8125-3.49707,2.26465a1.01562,1.01562,0,0,1-1.03125,0c-2.51953-1.4541-10.98047-6.79492-14.083-14.47461a.50033.50033,0,0,0-.92774.375c3.22266,7.97559,11.92188,13.4707,14.51075,14.96484a2.01358,2.01358,0,0,0,2.03125.001c.80273-.46289,2.07519-1.24023,3.5791-2.31836a.49973.49973,0,0,0-.582-.8125Z"/><path d="M9,18.5a.49971.49971,0,0,0,.5-.5V13.21a1.20427,1.20427,0,0,1,.67969-1.13574l13.501-5.51074a.84094.84094,0,0,1,.63868,0l13.501,5.51074A1.20427,1.20427,0,0,1,38.5,13.21V18a.5.5,0,0,0,1,0V13.21a2.20793,2.20793,0,0,0-1.30273-2.06152L24.69629,5.6377a1.82927,1.82927,0,0,0-1.39258,0l-13.501,5.51074A2.20793,2.20793,0,0,0,8.5,13.21V18A.49971.49971,0,0,0,9,18.5Z"/></g><g id="Sub_Icons" data-name="Sub Icons"><path class="cls-1" d="M41.44336,36.75586l-.24219.4375.207-.47754A5.09248,5.09248,0,0,0,41.459,36c0-.24316-.01757-.48145-.01464-.75586a1.06623,1.06623,0,0,0,.51953-.66211,1.04234,1.04234,0,0,0-.11524-.81641L40.919,32.21875a1.085,1.085,0,0,0-1.40625-.4248c-.03028.01074-.15235.02539-.17969.041a7.45965,7.45965,0,0,0-1.30762-.76172A1.08567,1.08567,0,0,0,36.92969,30H35.07031a1.14287,1.14287,0,0,0-1.127,1.123,9.82442,9.82442,0,0,0-1.375.708,1.11376,1.11376,0,0,0-1.48828.38868l-.92871,1.54589a1.0447,1.0447,0,0,0-.11524.81739,1.184,1.184,0,0,0,.55567.70117A5.09248,5.09248,0,0,0,30.541,36c0,.24316.01757.48145.01562.75586a1.06586,1.06586,0,0,0-.52051.66113,1.0447,1.0447,0,0,0,.11524.81739l.92968,1.54687a1.08452,1.08452,0,0,0,1.40625.4248c.03028-.01074.15235-.02539.17969-.041a7.45965,7.45965,0,0,0,1.30762.76172A1.08567,1.08567,0,0,0,35.07031,42h1.85938a1.14287,1.14287,0,0,0,1.127-1.123A5.50691,5.50691,0,0,0,39.333,40.165l.10058.00586a1.11435,1.11435,0,0,0,1.48633-.39063l.92871-1.54589a1.0447,1.0447,0,0,0,.11524-.81739A1.06586,1.06586,0,0,0,41.44336,36.75586Zm-1.38087,2.50976a.11115.11115,0,0,1-.14843.02833,1.08538,1.08538,0,0,0-1.18066.07031,4.50867,4.50867,0,0,1-1.04492.583,1.0489,1.0489,0,0,0-.66309.97949A.08744.08744,0,0,1,36.92969,41H35.07031a.08846.08846,0,0,1-.0957-.07422,1.047,1.047,0,0,0-.66406-.97851,4.52182,4.52182,0,0,1-1.044-.583,1.06959,1.06959,0,0,0-.64062-.21094,1.11619,1.11619,0,0,0-.54493.14258.109.109,0,0,1-.14257-.0293L31.043,37.62988a1.04154,1.04154,0,0,0,.53906-1.05664,4.02012,4.02012,0,0,1,0-1.14551,1.21383,1.21383,0,0,0-.57324-1.14648l.9287-1.54687a.11731.11731,0,0,1,.14845-.02833,1.08957,1.08957,0,0,0,1.18066-.07031,4.50826,4.50826,0,0,1,1.04492-.583,1.0489,1.0489,0,0,0,.66309-.97949A.08744.08744,0,0,1,35.07031,31h1.85938a.08846.08846,0,0,1,.0957.07422,1.047,1.047,0,0,0,.66406.97851,4.52223,4.52223,0,0,1,1.044.583,1.09146,1.09146,0,0,0,1.18555.06836.10855.10855,0,0,1,.14257.0293l.89551,1.63672a1.04154,1.04154,0,0,0-.53906,1.05664,4.02012,4.02012,0,0,1,0,1.14551,1.04216,1.04216,0,0,0,.53906,1.05761l.03418.08887Z"/><path class="cls-1" d="M37.25,33.834a2.49982,2.49982,0,1,0,.915,3.416h.001A2.50612,2.50612,0,0,0,37.25,33.834Zm.0498,2.916a1.49962,1.49962,0,1,1-.5498-2.0498A1.50451,1.50451,0,0,1,37.2998,36.75Z"/></g></svg>