<svg xmlns="http://www.w3.org/2000/svg" viewBox="0 0 48 48"><defs><style>.cls-1{fill:#ff6c2c;}</style></defs><g id="Base_Icons" data-name="Base Icons"><path d="M27.99805,41.09375c-1.47168,1.05371-2.71387,1.8125-3.49707,2.26465a1.01562,1.01562,0,0,1-1.03125,0c-2.51953-1.4541-10.98047-6.79492-14.083-14.47461a.50033.50033,0,0,0-.92774.375c3.22266,7.97559,11.92188,13.4707,14.51075,14.96484a2.01358,2.01358,0,0,0,2.03125.001c.80273-.46289,2.07519-1.24023,3.5791-2.31836a.49973.49973,0,0,0-.582-.8125Z"/><path d="M17.63184,28a.49972.49972,0,0,0,.5-.5v-7a.50024.50024,0,0,0-.917-.27637l-1.89941,2.87012L13.417,20.22461A.49986.49986,0,0,0,12.5,20.5v7a.5.5,0,0,0,1,0V22.16211l1.39844,2.11328a.5.5,0,0,0,.834.001l1.39942-2.11524V27.5A.49971.49971,0,0,0,17.63184,28Z"/><path d="M30.36816,28h1.15821a4.00009,4.00009,0,0,0,0-8H30.36816a.49972.49972,0,0,0-.5.5v7A.49972.49972,0,0,0,30.36816,28Zm.5-7h.65821a3.00012,3.00012,0,0,1,0,6h-.65821Z"/><path d="M20.60547,24c0,2.20605,1.52246,4,3.39453,4s3.39453-1.79395,3.39453-4S25.87207,20,24,20,20.60547,21.794,20.60547,24Zm5.78906,0c0,1.6543-1.07422,3-2.39453,3s-2.39453-1.3457-2.39453-3S22.67969,21,24,21,26.39453,22.3457,26.39453,24Z"/><path d="M9,18.5a.49971.49971,0,0,0,.5-.5V13.21a1.20427,1.20427,0,0,1,.67969-1.13574l13.501-5.51074a.84094.84094,0,0,1,.63868,0l13.501,5.51074A1.20427,1.20427,0,0,1,38.5,13.21V18a.5.5,0,0,0,1,0V13.21a2.20793,2.20793,0,0,0-1.30273-2.06152L24.69629,5.6377a1.82927,1.82927,0,0,0-1.39258,0l-13.501,5.51074A2.20793,2.20793,0,0,0,8.5,13.21V18A.49971.49971,0,0,0,9,18.5Z"/></g><g id="Sub_Icons" data-name="Sub Icons"><path class="cls-1" d="M41.85352,38.75781l-1.61817-1.61816a5.27273,5.27273,0,0,0-2.76367-6.667,5.28113,5.28113,0,0,0-4.36328,0,.49946.49946,0,0,0-.14649.80859l2.999,2.999a.29242.29242,0,0,1,.00488.41211L34.69238,35.9668a.29493.29493,0,0,1-.4082.001L31.2793,32.96289a.51029.51029,0,0,0-.44336-.13867.50282.50282,0,0,0-.36621.28613,5.28463,5.28463,0,0,0,6.668,7.125l1.60937,1.61719A.49874.49874,0,0,0,39.10156,42h.00879a.49872.49872,0,0,0,.32031-.87793L37.61035,39.293a.50016.50016,0,0,0-.56152-.10254,4.28454,4.28454,0,0,1-5.916-4.96L33.582,36.67969a1.30086,1.30086,0,0,0,1.81641-.00489l1.27929-1.28027a1.29625,1.29625,0,0,0-.01367-1.82519l-2.43457-2.43555a4.27908,4.27908,0,0,1,4.96094,5.916.50062.50062,0,0,0,.10156.56055l1.85449,1.85449a.49995.49995,0,0,0,.707-.707Z"/></g></svg>