<svg xmlns="http://www.w3.org/2000/svg" viewBox="0 0 48 48"><defs><style>.cls-1{fill:#ff6c2c;}</style></defs><g id="Base_Icons" data-name="Base Icons"><path d="M41.95538,13.83276a.45952.45952,0,0,0-.22778-.37158,4.48218,4.48218,0,0,0-1.48053-1.39282L26.249,4.10059a4.52194,4.52194,0,0,0-4.49609-.001L7.751,12.06934a4.47649,4.47649,0,0,0-1.47864,1.3916.48783.48783,0,0,0-.16589.166.49307.49307,0,0,0-.06183.20557A4.45872,4.45872,0,0,0,5.5,15.94922V31.8877c.00006.09082.01135.17968.01715.26977-.001.02612-.01031.05054-.01031.07691v5.97656a1.9981,1.9981,0,0,0,1.00293,1.72754l5.248,2.9873a1.97778,1.97778,0,0,0,.7171.229.454.454,0,0,0,.56385,0,1.97916,1.97916,0,0,0,.71515-.228l3.2879-1.8711L21.751,43.73633a4.52356,4.52356,0,0,0,4.49609.001l3.42773-1.95117a.49989.49989,0,1,0-.49414-.86914L25.751,42.86914a3.505,3.505,0,0,1-1.251.42749V24.228l16.71948-9.63477a3.45467,3.45467,0,0,1,.28052,1.356V31.8877a.5.5,0,0,0,1,0V15.94922A4.45789,4.45789,0,0,0,41.95538,13.83276ZM12.75684,34.65332l-5.71851-3.2959,5.21753-2.9707a1.00106,1.00106,0,0,1,.5-.13281,1.01913,1.01913,0,0,1,.50391.13379l5.21453,2.96972Zm-5.751,4.417a.99436.99436,0,0,1-.499-.85937V32.23438c0-.00879.00323-.01709.00347-.02588L12.25684,35.52v6.53882l-.00293-.00122Zm6.25195,2.98828-.001.00049V35.52l5.74639-3.312c.00031.00879.00361.01733.00361.02637V38.21a.99964.99964,0,0,1-.49707.85938Zm4.79474-1.57812.95429-.543a2.00252,2.00252,0,0,0,1-1.72559V32.2334a1.96861,1.96861,0,0,0-.21546-.86475.452.452,0,0,0-.19781-.3164,1.98424,1.98424,0,0,0-.58966-.54444l-5.24805-2.98828a2.01588,2.01588,0,0,0-1.99609-.001l-5.252,2.99024L6.5,30.51465V15.94922a3.45574,3.45574,0,0,1,.28052-1.356L23.5,24.228V43.29712a3.4977,3.4977,0,0,1-1.25293-.429ZM24,23.36133,7.30542,13.74023a3.47014,3.47014,0,0,1,.94165-.80273L22.249,4.96777a3.52267,3.52267,0,0,1,3.50391.001L39.751,12.93652a3.48,3.48,0,0,1,.94342.804Z"/></g><g id="Sub_Icons" data-name="Sub Icons"><path class="cls-1" d="M39.6709,36.624,36.5,39.39844V31.5a.5.5,0,0,0-1,0v7.89844L32.3291,36.624a.49967.49967,0,1,0-.6582.752l4,3.5a87.31483,87.31483,0,0,0,.14551.08691.47268.47268,0,0,0,.36718,0,87.31483,87.31483,0,0,0,.14551-.08691l4-3.5a.49967.49967,0,0,0-.6582-.752Z"/></g></svg>