<svg xmlns="http://www.w3.org/2000/svg" viewBox="0 0 48 48"><defs><style>.cls-1{fill:#ff6c2c;}</style></defs><g id="Base_Icons" data-name="Base Icons"><path d="M16.5,31H6.5a.5.5,0,0,1,0-1h10a.5.5,0,0,1,0,1Z"/><path d="M13.5,34h-7a.5.5,0,0,1,0-1h7a.5.5,0,0,1,0,1Z"/><path d="M13.73854,15.36043h-5.286L6,28H8.74883l.652-3.36043H11.7554a8.41323,8.41323,0,0,0,2.56451-.328,4.85361,4.85361,0,0,0,1.82964-1.09954,5.49391,5.49391,0,0,0,1.72609-3.09619,3.94067,3.94067,0,0,0-.65773-3.50136A4.38619,4.38619,0,0,0,13.73854,15.36043Zm1.296,4.5623A3.33323,3.33323,0,0,1,13.936,22.01764a4.03223,4.03223,0,0,1-2.4762.62735H9.78776l1.02646-5.29h1.88341a2.809,2.809,0,0,1,2.08833.5793A2.29814,2.29814,0,0,1,15.03452,19.92273Z"/><path d="M29.28051,18.75781a2.65059,2.65059,0,0,0-.5231-2.59625,4.73916,4.73916,0,0,0-3.1687-.80113H23.15515L23.80825,12H21.07654L18.61991,24.63957h2.73171l1.40713-7.2412H24.942a1.91955,1.91955,0,0,1,1.37062.34723,1.51766,1.51766,0,0,1,.1365,1.30151l-1.0867,5.59246h2.77507Z"/><path d="M37.7385,15.36043H32.45258L30,28h2.74885l.65193-3.36043h2.35457a8.41337,8.41337,0,0,0,2.56453-.328,4.85361,4.85361,0,0,0,1.82964-1.09954,5.49378,5.49378,0,0,0,1.72611-3.09619,3.94042,3.94042,0,0,0-.65773-3.50136A4.38626,4.38626,0,0,0,37.7385,15.36043Zm1.296,4.5623a3.33286,3.33286,0,0,1-1.0985,2.09491,4.03226,4.03226,0,0,1-2.47621.62735h-1.672l1.02638-5.29h1.88342a2.809,2.809,0,0,1,2.08834.5793A2.29748,2.29748,0,0,1,39.03449,19.92273Z"/></g><g id="Sub_Icons" data-name="Sub Icons"><path class="cls-1" d="M36,36a3,3,0,1,1,3-3A3.00328,3.00328,0,0,1,36,36Zm0-5a2,2,0,1,0,2,2A2.0026,2.0026,0,0,0,36,31Z"/><path class="cls-1" d="M40.001,42H31.999A1.50122,1.50122,0,0,1,30.5,40.501V38.5a.5.5,0,0,1,1,0v2.001a.49929.49929,0,0,0,.499.499h8.002a.49929.49929,0,0,0,.499-.499V38.5a.5.5,0,0,1,1,0v2.001A1.50122,1.50122,0,0,1,40.001,42Z"/></g></svg>