<svg xmlns="http://www.w3.org/2000/svg" viewBox="0 0 48 48"><defs><style>.cls-1{fill:#ff6c2c;}</style></defs><g id="Base_Icons" data-name="Base Icons"><path d="M16.5,30H6.5a.5.5,0,0,0,0,1h10a.5.5,0,0,0,0-1Z"/><path d="M13.5,33h-7a.5.5,0,0,0,0,1h7a.5.5,0,0,0,0-1Z"/><path d="M13.73853,15.36035h-5.286L6,28H8.74884l.652-3.36035h2.35461a8.41164,8.41164,0,0,0,2.56446-.32813,4.85036,4.85036,0,0,0,1.82965-1.09961,5.4925,5.4925,0,0,0,1.72613-3.09619,3.9407,3.9407,0,0,0-.65777-3.50122A4.38576,4.38576,0,0,0,13.73853,15.36035Zm1.296,4.5625A3.33281,3.33281,0,0,1,13.936,22.01758a4.03087,4.03087,0,0,1-2.4762.62744H9.78778l1.02643-5.29h1.88342a2.80866,2.80866,0,0,1,2.08832.57935A2.29826,2.29826,0,0,1,15.03455,19.92285Z"/><path d="M25.58868,15.36035H23.15515L23.80823,12H21.07654L18.61993,24.63965h2.73169l1.40711-7.24121H24.942a1.91932,1.91932,0,0,1,1.37066.34717,1.51773,1.51773,0,0,1,.13648,1.30151l-1.08667,5.59253h2.775l1.143-5.88184a2.65048,2.65048,0,0,0-.52313-2.59619A4.73854,4.73854,0,0,0,25.58868,15.36035Z"/><path d="M33.40076,24.63965h2.35461a8.41179,8.41179,0,0,0,2.56452-.32813,4.8509,4.8509,0,0,0,1.82965-1.09961,5.49195,5.49195,0,0,0,1.72607-3.09619,3.94033,3.94033,0,0,0-.65771-3.50122,4.38594,4.38594,0,0,0-3.47937-1.25415H32.45258L30,28h2.74884ZM34.81415,17.355h1.88342a2.80892,2.80892,0,0,1,2.08838.57935,2.29761,2.29761,0,0,1,.24853,1.98852A3.33215,3.33215,0,0,1,37.936,22.01758a4.03086,4.03086,0,0,1-2.47619.62744h-1.672Z"/></g><g id="Sub_Icons" data-name="Sub Icons"><path class="cls-1" d="M41.85352,35.68457,38.166,31.99805a1.34635,1.34635,0,0,0-.59766-.34864l-5.873-1.60156a1.342,1.342,0,0,0-1.64746,1.64844l1.60156,5.873a1.34582,1.34582,0,0,0,.34668.59472l3.68848,3.68946a.49995.49995,0,0,0,.707-.707l-3.69043-3.6914a.33775.33775,0,0,1-.08691-.15039l-.62079-2.27564,3.03528-3.0354,2.275.62061a.33835.33835,0,0,1,.15332.08886l3.68945,3.68848a.49995.49995,0,0,0,.707-.707ZM31.69043,33.918l-.67773-2.48438a.339.339,0,0,1,.08789-.333.346.346,0,0,1,.332-.08789l2.48517.678Z"/><path class="cls-1" d="M37.29492,36.58789a.49995.49995,0,0,0-.707.707l1.7832,1.7832a.49995.49995,0,0,0,.707-.707Z"/></g></svg>