<svg xmlns="http://www.w3.org/2000/svg" viewBox="0 0 48 48"><defs><style>.cls-1{fill:#ff6c2c;}</style></defs><g id="Base_Icons" data-name="Base Icons"><path d="M24,6C13.90625,6,6,9.7334,6,14.5S13.90625,23,24,23c7.98572,0,14.58466-2.34106,17-5.67773V24.167a4.34712,4.34712,0,0,1-1.59961,3.13379.49951.49951,0,1,0,.68359.72852,5.73631,5.73631,0,0,0,1.84107-3.1167A.48617.48617,0,0,0,42,24.665V14.5C42,9.7334,34.09375,6,24,6Zm0,16c-9.21484,0-17-3.43457-17-7.5S14.78516,7,24,7s17,3.43457,17,7.5S33.21484,22,24,22Z"/><path d="M24,32.667c1.1416,0,2.28613-.0498,3.40039-.14941a.50012.50012,0,0,0,.4541-.542.51532.51532,0,0,0-.542-.45411C26.22656,31.61816,25.1123,31.667,24,31.667c-9.21484,0-17-3.43457-17-7.5v-.66015a.5.5,0,0,0-1,0V33.5C6,38.2666,13.90625,42,24,42c1.1377,0,2.28223-.0498,3.40039-.14844a.49954.49954,0,0,0,.4541-.542.50863.50863,0,0,0-.542-.4541C26.22363,40.95117,25.1084,41,24,41c-9.21484,0-17-3.43457-17-7.5V26.98926C9.41534,30.32593,16.01428,32.667,24,32.667Z"/></g><g id="Sub_Icons" data-name="Sub Icons"><path class="cls-1" d="M36.332,31.126a.473.473,0,0,0-.0805-.04834.47989.47989,0,0,0-.06708-.04053.499.499,0,0,0-.3689,0,.47989.47989,0,0,0-.06708.04053.473.473,0,0,0-.0805.04834l-4.5,4a.50013.50013,0,1,0,.66406.748L35.5,32.61328V40.5a.5.5,0,0,0,1,0V32.61328L40.168,35.874a.50013.50013,0,1,0,.66406-.748Z"/></g></svg>