<svg xmlns="http://www.w3.org/2000/svg" viewBox="0 0 48 48"><defs><style>.cls-1{fill:#ff6c2c;}</style></defs><g id="Base_Icons" data-name="Base Icons"><path d="M13.5,24.5h.56573l-.48175.72266a.5.5,0,1,0,.832.55468l.584-.876.584.876a.5.5,0,0,0,.832-.55468L15.93427,24.5H16.5a.5.5,0,0,0,0-1h-1v-1a.5.5,0,0,0-1,0v1h-1a.5.5,0,0,0,0,1Z"/><path d="M21,22a.49971.49971,0,0,0-.5.5v1h-1a.5.5,0,0,0,0,1h.56573l-.48175.72266a.5.5,0,1,0,.832.55468l.584-.876.584.876a.5.5,0,0,0,.832-.55468L21.93427,24.5H22.5a.5.5,0,0,0,0-1h-1v-1A.49971.49971,0,0,0,21,22Z"/><path d="M28.5,23.5h-1v-1a.5.5,0,0,0-1,0v1h-1a.5.5,0,0,0,0,1h.56573l-.48175.72266a.5.5,0,1,0,.832.55468l.584-.876.584.876a.5.5,0,0,0,.832-.55468L27.93427,24.5H28.5a.5.5,0,0,0,0-1Z"/><path d="M34.5,26a.5.5,0,0,0,0-1h-3a.5.5,0,0,0,0,1Z"/><path d="M41.5,10H13.72266a.5.5,0,1,0,0,1H41.5a.501.501,0,0,1,.5.5v16a.5.5,0,0,0,1,0v-16A1.50164,1.50164,0,0,0,41.5,10Z"/><path d="M26.68555,37H6.5a.501.501,0,0,1-.5-.5V14.5498a.5.5,0,1,0-1,0V36.5A1.50164,1.50164,0,0,0,6.5,38H26.68555a.5.5,0,1,0,0-1Z"/><path d="M5.14941,10.84961a.36482.36482,0,0,0,.16016.11035.47053.47053,0,0,0,.37988,0A.537.537,0,0,0,5.96,10.68945.40093.40093,0,0,0,6,10.5a.47.47,0,0,0-.15039-.35059A.34975.34975,0,0,0,5.68945,10.04a.50154.50154,0,0,0-.37988,0,.35491.35491,0,0,0-.16016.10937A.4727.4727,0,0,0,5,10.5a.40093.40093,0,0,0,.04.18945A.34975.34975,0,0,0,5.14941,10.84961Z"/><path d="M7.88965,10.84961A.49438.49438,0,0,0,8.24023,11a.46638.46638,0,0,0,.34961-.15039.3593.3593,0,0,0,.11036-.16016.41308.41308,0,0,0,.04-.18945.47365.47365,0,0,0-.15039-.35059.50235.50235,0,0,0-.70019,0A.47271.47271,0,0,0,7.74023,10.5a.40093.40093,0,0,0,.04.18945A.3497.3497,0,0,0,7.88965,10.84961Z"/><path d="M10.62988,10.84961A.35936.35936,0,0,0,10.79,10.96a.47053.47053,0,0,0,.37988,0,.36482.36482,0,0,0,.16016-.11035.34975.34975,0,0,0,.10937-.16016.47053.47053,0,0,0,0-.37988.52365.52365,0,0,0-.26953-.26953.49507.49507,0,0,0-.54.10937.47365.47365,0,0,0-.15039.35059.413.413,0,0,0,.04.18945A.35936.35936,0,0,0,10.62988,10.84961Z"/></g><g id="Sub_Icons" data-name="Sub Icons"><path class="cls-1" d="M36,30c-3.4209,0-6,1.22852-6,2.85742s2.5791,2.85645,6,2.85645a8.9565,8.9565,0,0,0,5-1.23462v4.66333C41,40.01953,38.86133,41,36,41s-5-.98047-5-1.85742V37.57324a.5.5,0,0,0-1,0v1.56934C30,40.77148,32.5791,42,36,42s6-1.22852,6-2.85742V32.85742C42,31.22852,39.4209,30,36,30Zm0,4.71387c-2.86133,0-5-.98047-5-1.85645C31,31.98047,33.13867,31,36,31s5,.98047,5,1.85742C41,33.7334,38.86133,34.71387,36,34.71387Z"/><path class="cls-1" d="M38.877,38.35742a.49971.49971,0,0,0-.5-.5h-.00976a.49557.49557,0,0,0-.49512.5.50245.50245,0,0,0,1.00488,0Z"/></g></svg>