<svg xmlns="http://www.w3.org/2000/svg" viewBox="0 0 48 48"><defs><style>.cls-1{fill:#ff6c2c;}</style></defs><g id="Base_Icons" data-name="Base Icons"><path d="M26.81836,41H10.498A.49888.49888,0,0,1,10,40.502V12.915a.49456.49456,0,0,1,.14258-.35156l5.4209-5.42188A.48623.48623,0,0,1,15.91113,7H37.50391A.4968.4968,0,0,1,38,7.49609v24.001a.5.5,0,1,0,1,0V7.49609A1.49747,1.49747,0,0,0,37.50391,6H15.91113a1.48159,1.48159,0,0,0-1.05371.43359L9.43457,11.85742A1.48821,1.48821,0,0,0,9,12.915V40.502A1.49956,1.49956,0,0,0,10.498,42H26.81836a.5.5,0,0,0,0-1Z"/><path d="M17,10.5a.5.5,0,0,0-1,0v1.93164A.56477.56477,0,0,1,15.43945,13H13.5a.5.5,0,0,0,0,1h1.93945A1.566,1.566,0,0,0,17,12.43164Z"/><path d="M14.5,35h12a.5.5,0,0,0,0-1h-12a.5.5,0,0,0,0,1Z"/><path d="M34,13.5a.49971.49971,0,0,0-.5-.5h-13a.5.5,0,0,0,0,1h13A.49971.49971,0,0,0,34,13.5Z"/><path d="M16,21.5v8a.5.5,0,0,0,1,0v-8a.5.5,0,0,0-1,0Z"/><path d="M20,29.5v-10a.5.5,0,0,0-1,0v10a.5.5,0,0,0,1,0Z"/><path d="M23,29.5v-11a.5.5,0,0,0-1,0v11a.5.5,0,0,0,1,0Z"/><path d="M26,29.5v-9a.5.5,0,0,0-1,0v9a.5.5,0,0,0,1,0Z"/><path d="M28.5,22a.49971.49971,0,0,0-.5.5v7a.5.5,0,0,0,1,0v-7A.49971.49971,0,0,0,28.5,22Z"/><path d="M31,20.5v9a.5.5,0,0,0,1,0v-9a.5.5,0,0,0-1,0Z"/></g><g id="Sub_Icons" data-name="Sub Icons"><path class="cls-1" d="M35,35a.49971.49971,0,0,0-.5.5v4.34863l-3.084-4.626A.5.5,0,0,0,30.5,35.5v6a.5.5,0,0,0,1,0V37.15137l3.084,4.626A.50052.50052,0,0,0,35,42a.49411.49411,0,0,0,.14453-.02148A.49955.49955,0,0,0,35.5,41.5v-6A.49971.49971,0,0,0,35,35Z"/><path class="cls-1" d="M40,38H39a1,1,0,0,1,0-2h1.5a.5.5,0,0,0,0-1H39a2,2,0,0,0,0,4h1a1,1,0,0,1,0,2H37.5a.5.5,0,0,0,0,1H40a2,2,0,0,0,0-4Z"/></g></svg>