<svg xmlns="http://www.w3.org/2000/svg" viewBox="0 0 48 48"><defs><style>.cls-1{fill:#ff6c2c;}</style></defs><g id="Base_Icons" data-name="Base Icons"><path d="M40.22559,30.01172l-7.96943-4.39917L26.625,7.42773a2.7511,2.7511,0,0,0-5.25,0v.001L15.74408,25.61182l-7.97064,4.3999a2.19251,2.19251,0,0,0,.001,3.85644l15.12012,8.34766a2.30613,2.30613,0,0,0,2.21094,0l15.12109-8.34766a2.19251,2.19251,0,0,0-.001-3.85644ZM16.61932,26.16431a.4859.4859,0,0,0,.0506-.16333l.53943-1.74182A14.99641,14.99641,0,0,0,24,25.7334a14.97345,14.97345,0,0,0,6.79022-1.47583l1.7088,5.51782c-.085,2.12109-3.94238,3.90039-8.499,3.90039s-8.41406-1.7793-8.499-3.90039Zm5.71076-18.4397a1.7511,1.7511,0,0,1,3.33984-.001L28.14813,15.726a20.3954,20.3954,0,0,1-8.29651.00147ZM39.74316,32.99316,24.62305,41.34082a1.306,1.306,0,0,1-1.2461,0L8.25781,32.99316a1.1933,1.1933,0,0,1-.001-2.10644l7.06091-3.89819-.79529,2.56811A.50466.50466,0,0,0,14.5,29.7041c0,2.78809,4.17285,4.97168,9.5,4.97168s9.5-2.18359,9.5-4.97168a.50466.50466,0,0,0-.02246-.14746l-.795-2.56738,7.05969,3.89746a1.1933,1.1933,0,0,1,.001,2.10644Z"/></g><g id="Sub_Icons" data-name="Sub Icons"><path class="cls-1" d="M19.5542,16.68774a20.54236,20.54236,0,0,0,4.44287.47242,20.57259,20.57259,0,0,0,4.44855-.47364l2.04474,6.60279A13.76432,13.76432,0,0,1,24,24.7334,13.78532,13.78532,0,0,1,17.5127,23.293l-.00373-.00122Z"/></g></svg>