<svg xmlns="http://www.w3.org/2000/svg" viewBox="0 0 48 48"><defs><style>.cls-1{fill:#ff6c2c;}</style></defs><g id="Base_Icons" data-name="Base Icons"><path d="M13.5,24.5h.56573l-.48175.72266a.5.5,0,1,0,.832.55468l.584-.876.584.876a.5.5,0,0,0,.832-.55468L15.93427,24.5H16.5a.5.5,0,0,0,0-1h-1v-1a.5.5,0,0,0-1,0v1h-1a.5.5,0,0,0,0,1Z"/><path d="M21,22a.49971.49971,0,0,0-.5.5v1h-1a.5.5,0,0,0,0,1h.56573l-.48175.72266a.5.5,0,1,0,.832.55468l.584-.876.584.876a.5.5,0,0,0,.832-.55468L21.93427,24.5H22.5a.5.5,0,0,0,0-1h-1v-1A.49971.49971,0,0,0,21,22Z"/><path d="M28.5,23.5h-1v-1a.5.5,0,0,0-1,0v1h-1a.5.5,0,0,0,0,1h.56573l-.48175.72266a.5.5,0,1,0,.832.55468l.584-.876.584.876a.5.5,0,0,0,.832-.55468L27.93427,24.5H28.5a.5.5,0,0,0,0-1Z"/><path d="M31.5,26h3a.5.5,0,0,0,0-1h-3a.5.5,0,0,0,0,1Z"/><path d="M41.5,10H13.72266a.5.5,0,1,0,0,1H41.5a.501.501,0,0,1,.5.5v17a.5.5,0,0,0,1,0v-17A1.50164,1.50164,0,0,0,41.5,10Z"/><path d="M26.5,37H6.5a.501.501,0,0,1-.5-.5V14.5498a.5.5,0,1,0-1,0V36.5A1.50164,1.50164,0,0,0,6.5,38h20a.5.5,0,0,0,0-1Z"/><path d="M5.5,11a.4664.4664,0,0,0,.34961-.15039A.35936.35936,0,0,0,5.96,10.68945.40093.40093,0,0,0,6,10.5a.47.47,0,0,0-.15039-.35059.50236.50236,0,0,0-.7002,0A.4727.4727,0,0,0,5,10.5a.4542.4542,0,0,0,.14941.34961A.47.47,0,0,0,5.5,11Z"/><path d="M7.88965,10.84961A.43017.43017,0,0,0,8.0498,10.96a.40241.40241,0,0,0,.19043.04.46638.46638,0,0,0,.34961-.15039A.455.455,0,0,0,8.74023,10.5a.47365.47365,0,0,0-.15039-.35059A.34978.34978,0,0,0,8.42969,10.04a.50157.50157,0,0,0-.37989,0,.35488.35488,0,0,0-.16015.10937A.47271.47271,0,0,0,7.74023,10.5a.40093.40093,0,0,0,.04.18945A.3497.3497,0,0,0,7.88965,10.84961Z"/><path d="M10.62988,10.84961a.4827.4827,0,0,0,.7002,0,.34975.34975,0,0,0,.10937-.16016.47053.47053,0,0,0,0-.37988.52365.52365,0,0,0-.26953-.26953.49507.49507,0,0,0-.54.10937.36482.36482,0,0,0-.11035.16016.47053.47053,0,0,0,0,.37988A.35936.35936,0,0,0,10.62988,10.84961Z"/></g><g id="Sub_Icons" data-name="Sub Icons"><path class="cls-1" d="M41.96387,34.582a1.04234,1.04234,0,0,0-.11524-.81641L40.919,32.21875a1.08478,1.08478,0,0,0-1.40625-.4248c-.03028.01074-.15235.02539-.17969.041a7.45965,7.45965,0,0,0-1.30762-.76172A1.08567,1.08567,0,0,0,36.92969,30H35.07031a1.14287,1.14287,0,0,0-1.127,1.123,9.82442,9.82442,0,0,0-1.375.708,1.11351,1.11351,0,0,0-1.48828.38868l-.92871,1.54589a1.0447,1.0447,0,0,0-.11524.81739,1.184,1.184,0,0,0,.55567.70117A5.09248,5.09248,0,0,0,30.541,36c0,.24316.01757.48145.01562.75586a1.06586,1.06586,0,0,0-.52051.66113,1.0447,1.0447,0,0,0,.11524.81739l.92968,1.54687a1.08452,1.08452,0,0,0,1.40625.4248c.03028-.01074.15235-.02539.17969-.041a7.45965,7.45965,0,0,0,1.30762.76172A1.08567,1.08567,0,0,0,35.07031,42h1.85938a1.14287,1.14287,0,0,0,1.127-1.123A5.50691,5.50691,0,0,0,39.333,40.165l.10058.00586a1.11435,1.11435,0,0,0,1.48633-.39063l.92871-1.54589a1.0447,1.0447,0,0,0,.11524-.81739,1.06586,1.06586,0,0,0-.52051-.66113l-.24219.4375.207-.47754A5.09248,5.09248,0,0,0,41.459,36c0-.24316-.01757-.48145-.01464-.75586A1.06623,1.06623,0,0,0,41.96387,34.582Zm-1.90138,4.68359a.11115.11115,0,0,1-.14843.02833,1.0855,1.0855,0,0,0-1.18066.07031,4.50867,4.50867,0,0,1-1.04492.583,1.0489,1.0489,0,0,0-.66309.97949A.08744.08744,0,0,1,36.92969,41H35.07031a.08846.08846,0,0,1-.0957-.07422,1.047,1.047,0,0,0-.66406-.97851,4.52182,4.52182,0,0,1-1.044-.583,1.06959,1.06959,0,0,0-.64062-.21094,1.11619,1.11619,0,0,0-.54493.14258.109.109,0,0,1-.14257-.0293L31.043,37.62988a1.04154,1.04154,0,0,0,.53906-1.05664,4.02012,4.02012,0,0,1,0-1.14551,1.21383,1.21383,0,0,0-.57324-1.14648l.9287-1.54687a.11731.11731,0,0,1,.14845-.02833,1.08957,1.08957,0,0,0,1.18066-.07031,4.50826,4.50826,0,0,1,1.04492-.583,1.0489,1.0489,0,0,0,.66309-.97949A.08744.08744,0,0,1,35.07031,31h1.85938a.08846.08846,0,0,1,.0957.07422,1.047,1.047,0,0,0,.66406.97851,4.52223,4.52223,0,0,1,1.044.583,1.09122,1.09122,0,0,0,1.18555.06836.10855.10855,0,0,1,.14257.0293l.89551,1.63672a1.04154,1.04154,0,0,0-.53906,1.05664,4.02012,4.02012,0,0,1,0,1.14551,1.04216,1.04216,0,0,0,.53906,1.05761l.03418.08887Z"/><path class="cls-1" d="M37.25,33.834a2.49982,2.49982,0,1,0,.915,3.416h.001A2.50612,2.50612,0,0,0,37.25,33.834Zm.0498,2.916a1.49962,1.49962,0,1,1-.5498-2.0498A1.50474,1.50474,0,0,1,37.2998,36.75Z"/></g></svg>