<svg xmlns="http://www.w3.org/2000/svg" viewBox="0 0 48 48"><defs><style>.cls-1{fill:#ff6c2c;}</style></defs><g id="Base_Icons" data-name="Base Icons"><path d="M41.65625,8.24512,39.75977,6.3457A1.16135,1.16135,0,0,0,38.93066,6h-.001a1.14986,1.14986,0,0,0-.82227.34277C36.57129,7.89062,27.37305,17.12793,25.48145,19l-4.625-4.63281a1.87558,1.87558,0,0,0-1.33692-.55567h-.001a1.87521,1.87521,0,0,0-1.33789.55469L6.55371,26.01465a1.89732,1.89732,0,0,0,0,2.67773L19.2832,41.44531a1.88964,1.88964,0,0,0,2.67481,0L32.3147,31.06958l.00171-.00122.00116-.00171L33.585,29.79688a1.89673,1.89673,0,0,0,0-2.67872l-4.5625-4.57031c1.87012-1.89648,11.12793-11.14844,12.63477-12.64941A1.17087,1.17087,0,0,0,41.65625,8.24512ZM21.251,40.73828a.90885.90885,0,0,1-1.26075,0l-2.57409-2.57886,7.54675-7.56079a.49995.49995,0,1,0-.707-.707l-7.54608,7.56006-2.70307-2.708,7.547-7.56006a.49995.49995,0,0,0-.707-.707l-7.54639,7.55957L10.53137,31.262l7.54675-7.56079a.49995.49995,0,0,0-.707-.707L9.825,30.5542,7.26074,27.98535a.89592.89592,0,0,1,0-1.26367L17.26532,16.69861l13.99091,14.016Z"/></g><g id="Sub_Icons" data-name="Sub Icons"><path class="cls-1" d="M40.95215,9.18945c-.83106.82715-4.082,4.0752-7.12305,7.11817-1.52051,1.52246-2.98828,2.99316-4.07519,4.085-2.1377,2.14648-2.1377,2.14648-1.78614,2.51465l4.91016,4.918a.89531.89531,0,0,1,0,1.26464l-.91534.917L17.97174,15.991l.916-.91773a.89.89,0,0,1,1.26074,0l4.97363,4.98242a.49964.49964,0,0,0,.35352.14649h.001c.27051-.001.28614-.001,13.33985-13.1543A.15593.15593,0,0,1,38.93066,7a.17167.17167,0,0,1,.1211.05176l1.89648,1.89941A.16748.16748,0,0,1,40.95215,9.18945Z"/></g></svg>