<svg xmlns="http://www.w3.org/2000/svg" viewBox="0 0 48 48"><defs><style>.cls-1{fill:#ff6c2c;}</style></defs><g id="Base_Icons" data-name="Base Icons"><path d="M21.71777,41H8.28223a2.92568,2.92568,0,0,1-2.23047-1.002,2.23093,2.23093,0,0,1-.51856-1.8418C6.69824,31.51172,13.084,28,24,28c6.24609,0,11.0166,1.13867,14.17871,3.38281a.50019.50019,0,0,1-.57812.81641C34.61035,30.07617,30.03418,29,24,29c-7.22949,0-16.12988,1.61816-17.48242,9.32812a1.247,1.247,0,0,0,.2998,1.02637A1.91749,1.91749,0,0,0,8.28223,40H21.71777a.5.5,0,0,1,0,1Z"/><path d="M24,24.5A9.5,9.5,0,1,1,33.5,15,9.51081,9.51081,0,0,1,24,24.5Zm0-18A8.5,8.5,0,1,0,32.5,15,8.51014,8.51014,0,0,0,24,6.5Z"/></g><g id="Sub_Icons" data-name="Sub Icons"><path class="cls-1" d="M28.86927,35.68022h-2.643L25,42h1.37442l.326-1.68022H27.8777a4.20649,4.20649,0,0,0,1.28226-.164,2.42692,2.42692,0,0,0,.91482-.54976,2.747,2.747,0,0,0,.863-1.5481,1.97036,1.97036,0,0,0-.32886-1.75068A2.19309,2.19309,0,0,0,28.86927,35.68022Zm.648,2.28115a1.66659,1.66659,0,0,1-.54925,1.04745,2.01609,2.01609,0,0,1-1.23809.31367h-.836l.51323-2.645h.9417a1.40455,1.40455,0,0,1,1.04417.28964A1.1491,1.1491,0,0,1,29.51726,37.96137Z"/><path class="cls-1" d="M36.64025,37.3789a1.32525,1.32525,0,0,0-.26155-1.29812,2.36953,2.36953,0,0,0-1.58434-.40056H33.57758L33.90412,34H32.53827L31.31,40.31978h1.36585l.70357-3.62059H34.471a.9598.9598,0,0,1,.68531.17361.75882.75882,0,0,1,.06825.65075l-.54335,2.79623h1.38753Z"/><path class="cls-1" d="M40.86925,35.68022h-2.643L37,42h1.37442l.326-1.68022h1.17729a4.20654,4.20654,0,0,0,1.28226-.164,2.42684,2.42684,0,0,0,.91482-.54976,2.747,2.747,0,0,0,.86305-1.5481,1.97018,1.97018,0,0,0-.32886-1.75068A2.19311,2.19311,0,0,0,40.86925,35.68022Zm.648,2.28115a1.66641,1.66641,0,0,1-.54926,1.04745,2.01611,2.01611,0,0,1-1.2381.31367h-.836l.51319-2.645h.94171a1.40455,1.40455,0,0,1,1.04417.28964A1.14879,1.14879,0,0,1,41.51725,37.96137Z"/></g></svg>