<svg xmlns="http://www.w3.org/2000/svg" viewBox="0 0 48 48"><defs><style>.cls-1{fill:#ff6c2c;}</style></defs><g id="Base_Icons" data-name="Base Icons"><path d="M35,26.501a.5.5,0,0,0,1,0V10h.5A1.50164,1.50164,0,0,0,38,8.5v-2A1.50164,1.50164,0,0,0,36.5,5h-9A1.50164,1.50164,0,0,0,26,6.5v2A1.50164,1.50164,0,0,0,27.5,10H28V30.48633A.5143.5143,0,0,1,27.48633,31H11v-.5A1.50164,1.50164,0,0,0,9.5,29h-2A1.50164,1.50164,0,0,0,6,30.5v9A1.50164,1.50164,0,0,0,7.5,41h2A1.50164,1.50164,0,0,0,11,39.5V39H26.501a.5.5,0,0,0,0-1H11V32H27.48633A1.515,1.515,0,0,0,29,30.48633V10h6ZM10,39.5a.501.501,0,0,1-.5.5h-2a.501.501,0,0,1-.5-.5v-9a.501.501,0,0,1,.5-.5h2a.501.501,0,0,1,.5.5ZM27.5,9a.501.501,0,0,1-.5-.5v-2a.501.501,0,0,1,.5-.5h9a.501.501,0,0,1,.5.5v2a.501.501,0,0,1-.5.5Z"/></g><g id="Sub_Icons" data-name="Sub Icons"><path class="cls-1" d="M41.44336,36.75586l-.24219.4375.207-.47754A5.09248,5.09248,0,0,0,41.459,36c0-.24316-.01757-.48145-.01464-.75586a1.06623,1.06623,0,0,0,.51953-.66211,1.04234,1.04234,0,0,0-.11524-.81641L40.919,32.21875a1.085,1.085,0,0,0-1.40625-.4248c-.03028.01074-.15235.02539-.17969.041a7.45965,7.45965,0,0,0-1.30762-.76172A1.08567,1.08567,0,0,0,36.92969,30H35.07031a1.14287,1.14287,0,0,0-1.127,1.123,9.82442,9.82442,0,0,0-1.375.708,1.11376,1.11376,0,0,0-1.48828.38868l-.92871,1.54589a1.0447,1.0447,0,0,0-.11524.81739,1.184,1.184,0,0,0,.55567.70117A5.09248,5.09248,0,0,0,30.541,36c0,.24316.01757.48145.01562.75586a1.06586,1.06586,0,0,0-.52051.66113,1.0447,1.0447,0,0,0,.11524.81739l.92968,1.54687a1.08551,1.08551,0,0,0,1.40625.4248c.03028-.01074.15235-.02539.17969-.041a7.45965,7.45965,0,0,0,1.30762.76172A1.08567,1.08567,0,0,0,35.07031,42h1.85938a1.14287,1.14287,0,0,0,1.127-1.123A5.50691,5.50691,0,0,0,39.333,40.165l.10058.00586a1.11343,1.11343,0,0,0,1.48633-.39063l.92871-1.54589a1.0447,1.0447,0,0,0,.11524-.81739A1.06586,1.06586,0,0,0,41.44336,36.75586Zm-1.38088,2.50976a.11214.11214,0,0,1-.14842.02833,1.08741,1.08741,0,0,0-1.18066.07031,4.50888,4.50888,0,0,1-1.04492.583,1.0489,1.0489,0,0,0-.66309.97949A.08744.08744,0,0,1,36.92969,41H35.07031a.08846.08846,0,0,1-.0957-.07422,1.047,1.047,0,0,0-.66406-.97851,4.52161,4.52161,0,0,1-1.044-.583,1.06959,1.06959,0,0,0-.64062-.21094,1.11619,1.11619,0,0,0-.54493.14258.10979.10979,0,0,1-.14257-.0293L31.043,37.62988a1.04154,1.04154,0,0,0,.53906-1.05664,4.02012,4.02012,0,0,1,0-1.14551,1.21383,1.21383,0,0,0-.57324-1.14648l.92869-1.54687a.11763.11763,0,0,1,.14846-.02833,1.09136,1.09136,0,0,0,1.18066-.07031,4.50806,4.50806,0,0,1,1.04492-.583,1.0489,1.0489,0,0,0,.66309-.97949A.08744.08744,0,0,1,35.07031,31h1.85938a.08846.08846,0,0,1,.0957.07422,1.047,1.047,0,0,0,.66406.97851,4.52244,4.52244,0,0,1,1.044.583,1.0911,1.0911,0,0,0,1.18555.06836.10781.10781,0,0,1,.14257.0293l.89551,1.63672a1.04154,1.04154,0,0,0-.53906,1.05664,4.02012,4.02012,0,0,1,0,1.14551,1.04216,1.04216,0,0,0,.53906,1.05761l.03418.08887Z"/><path class="cls-1" d="M37.25,33.834a2.49982,2.49982,0,1,0,.915,3.416h.001A2.50612,2.50612,0,0,0,37.25,33.834Zm.0498,2.916a1.49962,1.49962,0,1,1-.5498-2.0498A1.50365,1.50365,0,0,1,37.2998,36.75Z"/></g></svg>