<svg xmlns="http://www.w3.org/2000/svg" viewBox="0 0 48 48"><defs><style>.cls-1{fill:#ff6c2c;}</style></defs><g id="Base_Icons" data-name="Base Icons"><path d="M40.49707,7H7.50293A1.50414,1.50414,0,0,0,6,8.50293V21.47949a.48717.48717,0,0,0,.06531.2334,5.87686,5.87686,0,0,0,2.94714,4.22559A.466.466,0,0,0,9,26V39.49707A1.50414,1.50414,0,0,0,10.50293,41H30.49707a.5.5,0,1,0,0-1H10.50293A.50347.50347,0,0,1,10,39.49707V26.39551a6.46745,6.46745,0,0,0,2.206.39062,6.22974,6.22974,0,0,0,5.72193-3.6018A6.65015,6.65015,0,0,0,24,26.78613a6.65979,6.65979,0,0,0,6.03589-3.53271,6.27264,6.27264,0,0,0,5.72095,3.53271A6.54264,6.54264,0,0,0,38,26.38721v1.10986a.5.5,0,1,0,1,0V26a.46779.46779,0,0,0-.01428-.0708,5.87555,5.87555,0,0,0,2.94848-4.21558A.48776.48776,0,0,0,42,21.47949V8.50293A1.50414,1.50414,0,0,0,40.49707,7ZM35.75684,25.78613a5.09933,5.09933,0,0,1-5.19507-4.43628c.01233-.14673.02514-.29321.02514-.44262V17.14258a.5.5,0,0,0-1,0v3.51953a.48609.48609,0,0,0-.07324.24512,5.57526,5.57526,0,0,0,.03095.575A5.38013,5.38013,0,0,1,24,25.78613c-3.08105,0-5.58691-2.18847-5.58691-4.8789V17.14258a.5.5,0,0,0-1,0v3.76465a5.05664,5.05664,0,0,1-5.207,4.8789A5.05575,5.05575,0,0,1,7,20.90723V8.50293A.50347.50347,0,0,1,7.50293,8H40.49707A.50347.50347,0,0,1,41,8.50293v12.4043A5.07681,5.07681,0,0,1,35.75684,25.78613Z"/></g><g id="Sub_Icons" data-name="Sub Icons"><path class="cls-1" d="M37,30a3.49476,3.49476,0,0,0-2.49829,5.94385l-.9939,5.46631a.50026.50026,0,0,0,.76953.50586L37,40.10059,39.72266,41.916a.50026.50026,0,0,0,.76953-.50586l-.9939-5.46631A3.49476,3.49476,0,0,0,37,30Zm0,1a2.5,2.5,0,1,1-2.5,2.5A2.50231,2.50231,0,0,1,37,31Zm.27734,8.084a.50238.50238,0,0,0-.55468,0l-2.02051,1.34668.69812-3.83593a3.36,3.36,0,0,0,3.19946,0l.69812,3.83593Z"/></g></svg>