<svg xmlns="http://www.w3.org/2000/svg" viewBox="0 0 48 48"><defs><style>.cls-1{fill:#ff6c2c;}</style></defs><g id="Base_Icons" data-name="Base Icons"><path d="M27.49119,38.87793l-3.916,2.21777a1.15058,1.15058,0,0,1-1.14941,0L7.5781,32.5459A1.15781,1.15781,0,0,1,7,31.54492V14.45605a1.15666,1.15666,0,0,1,.5791-1.001L22.42478,4.9043a1.1506,1.1506,0,0,1,1.14942,0l14.84765,8.55078A1.1578,1.1578,0,0,1,39,14.45605V27.22852a.5.5,0,0,0,1,0V14.45605a2.16219,2.16219,0,0,0-1.0791-1.86816L24.07322,4.03711a2.16088,2.16088,0,0,0-2.14746,0L7.08006,12.58789A2.161,2.161,0,0,0,6,14.45605V31.54492a2.16221,2.16221,0,0,0,1.0791,1.86817l14.84766,8.5498a2.16223,2.16223,0,0,0,2.14648,0l3.90234-2.21a.50006.50006,0,1,0-.48437-.875Z"/><path d="M28.88462,15.39868a1.72873,1.72873,0,0,0-1.73077,1.72717v7.79078l-7.62647-8.51416-.0907-.105a2.82144,2.82144,0,0,0-2.32128-.89881,1.72869,1.72869,0,0,0-1.73078,1.72717V28.87134a1.73078,1.73078,0,0,0,3.46155,0v-7.848l7.8078,8.72424.07617.098a2.91014,2.91014,0,0,0,2.15448.753,1.72876,1.72876,0,0,0,1.73078-1.72729V17.12585A1.72873,1.72873,0,0,0,28.88462,15.39868Z"/></g><g id="Sub_Icons" data-name="Sub Icons"><path class="cls-1" d="M40.874,36.168a.4996.4996,0,0,0-.70605-.042L36.5,39.3866V31.5a.5.5,0,1,0-1,0v7.8866L31.832,36.126a.50013.50013,0,1,0-.66406.748l4.5,4a204.18625,204.18625,0,0,1,.14734.08875.47672.47672,0,0,0,.36938,0A204.18625,204.18625,0,0,1,36.332,40.874l4.5-4A.50044.50044,0,0,0,40.874,36.168Z"/></g></svg>