<svg xmlns="http://www.w3.org/2000/svg" viewBox="0 0 48 48"><defs><style>.cls-1{fill:#ff6c2c;}</style></defs><g id="Base_Icons" data-name="Base Icons"><path d="M28.22735,15H19.77227a.5.5,0,0,0,0,1h3.72754V26.5a.5.5,0,0,0,1,0V16h3.72754a.5.5,0,0,0,0-1Z"/><path d="M16.54571,15H9.49981a.49971.49971,0,0,0-.5.5v11a.5.5,0,0,0,1,0v-5h3.72754a.5.5,0,1,0,0-1H9.99981V16h6.5459a.5.5,0,0,0,0-1Z"/><path d="M31.45489,27a.49972.49972,0,0,0,.5-.5V22.875h3.02246a3.9384,3.9384,0,1,0,0-7.875H31.45489a.49971.49971,0,0,0-.5.5v11A.49971.49971,0,0,0,31.45489,27Zm3.52246-11a2.93869,2.93869,0,1,1,0,5.875H31.95489V16Z"/></g><g id="Sub_Icons" data-name="Sub Icons"><path class="cls-1" d="M40.87383,36.168a.49965.49965,0,0,0-.706-.042l-3.668,3.26062V31.5a.5.5,0,0,0-1,0v7.8866l-3.668-3.26062a.50013.50013,0,1,0-.66406.748l4.5,4a204.18625,204.18625,0,0,1,.14734.08875.47672.47672,0,0,0,.36938,0,204.18625,204.18625,0,0,1,.14734-.08875l4.5-4A.50044.50044,0,0,0,40.87383,36.168Z"/></g></svg>