<svg xmlns="http://www.w3.org/2000/svg" viewBox="0 0 48 48"><defs><style>.cls-1{fill:#ff6c2c;}</style></defs><g id="Base_Icons" data-name="Base Icons"><path d="M30.71777,40H8.28223a1.91749,1.91749,0,0,1-1.46485-.64551,1.247,1.247,0,0,1-.2998-1.02637C7.87012,30.61816,16.77051,29,24,29a38.853,38.853,0,0,1,6.417.498c.81446.13769,2.18555.415,2.18653.416l.19921-.98047s-1.39257-.28222-2.21972-.42187A39.79138,39.79138,0,0,0,24,28C13.084,28,6.69824,31.51172,5.5332,38.15625a2.23093,2.23093,0,0,0,.51856,1.8418A2.92568,2.92568,0,0,0,8.28223,41H30.71777a.5.5,0,0,0,0-1Z"/><path d="M24,5.5A9.5,9.5,0,1,0,33.5,15,9.51081,9.51081,0,0,0,24,5.5Zm0,18A8.5,8.5,0,1,1,32.5,15,8.51014,8.51014,0,0,1,24,23.5Z"/></g><g id="Sub_Icons" data-name="Sub Icons"><path class="cls-1" d="M41.85352,35.14648l-1-1a.5.5,0,0,0-.707.707L40.793,35.5l-.64649.64648a.5.5,0,1,0,.707.707l1-1A.49983.49983,0,0,0,41.85352,35.14648Z"/><path class="cls-1" d="M36.85352,30.14648a.49983.49983,0,0,0-.707,0l-2,2a.5.5,0,0,0,.707.707L36.5,31.207l1.64648,1.64649a.5.5,0,0,0,.707-.707Z"/><path class="cls-1" d="M38.14648,38.14648,36.5,39.793l-1.64648-1.64649a.5.5,0,0,0-.707.707l2,2a.49984.49984,0,0,0,.707,0l2-2a.5.5,0,0,0-.707-.707Z"/><path class="cls-1" d="M32.85352,34.14648a.49983.49983,0,0,0-.707,0l-1,1a.49983.49983,0,0,0,0,.707l1,1a.5.5,0,0,0,.707-.707L32.207,35.5l.64649-.64648A.49983.49983,0,0,0,32.85352,34.14648Z"/></g></svg>