<svg xmlns="http://www.w3.org/2000/svg" viewBox="0 0 48 48"><defs><style>.cls-1{fill:#ff6c2c;}</style></defs><g id="Base_Icons" data-name="Base Icons"><path d="M30.81836,27a.49971.49971,0,0,0,.5-.5V17.00977l3.18945,4.28906a.52075.52075,0,0,0,.80274,0L38.5,17.00977V26.5a.5.5,0,0,0,1,0v-11a.5003.5003,0,0,0-.90137-.29883l-3.68945,4.96094-3.68945-4.96094a.5003.5003,0,0,0-.90137.29883v11A.49971.49971,0,0,0,30.81836,27Z"/><path d="M23.31836,15H19.90918a.49971.49971,0,0,0-.5.5v11a.5.5,0,0,0,1,0V22.875h2.90918a3.9376,3.9376,0,0,0,0-7.875Zm0,6.875H20.40918V16h2.90918a2.93764,2.93764,0,0,1,0,5.875Z"/><path d="M16.31836,18.9375A3.92818,3.92818,0,0,0,12.40918,15H9a.49971.49971,0,0,0-.5.5v11a.5.5,0,0,0,1,0V22.875h2.64069l2.579,3.90039a.49972.49972,0,1,0,.834-.55078l-2.2793-3.44727A3.93749,3.93749,0,0,0,16.31836,18.9375ZM12.40918,21.875H9.5V16h2.90918a2.93764,2.93764,0,0,1,0,5.875Z"/></g><g id="Sub_Icons" data-name="Sub Icons"><path class="cls-1" d="M41.85352,38.75781l-1.61817-1.61816a5.27273,5.27273,0,0,0-2.76367-6.667,5.28113,5.28113,0,0,0-4.36328,0,.49946.49946,0,0,0-.14649.80859l2.999,2.999a.29242.29242,0,0,1,.00488.41211L34.69238,35.9668a.29492.29492,0,0,1-.4082.001L31.2793,32.96289a.51694.51694,0,0,0-.44336-.13867.50282.50282,0,0,0-.36621.28613,5.28463,5.28463,0,0,0,6.668,7.125l1.60937,1.61719A.49874.49874,0,0,0,39.10156,42h.00879a.49872.49872,0,0,0,.32031-.87793L37.61035,39.293a.50046.50046,0,0,0-.56152-.10254,4.28454,4.28454,0,0,1-5.916-4.96L33.582,36.67969a1.30086,1.30086,0,0,0,1.81641-.00489l1.27929-1.28027a1.29625,1.29625,0,0,0-.01367-1.82519l-2.43457-2.43555a4.27908,4.27908,0,0,1,4.96094,5.916.50062.50062,0,0,0,.10156.56055l1.85449,1.85449a.49995.49995,0,0,0,.707-.707Z"/></g></svg>