<svg xmlns="http://www.w3.org/2000/svg" viewBox="0 0 48 48"><defs><style>.cls-1{fill:#ff6c2c;}</style></defs><g id="Base_Icons" data-name="Base Icons"><path d="M21.66406,37.21387a2.76406,2.76406,0,0,0,4.6709.001c.47363-.69629,1.01074-1.458,1.58594-2.26855a.50019.50019,0,0,0-.81641-.57813c-.5791.81641-1.12011,1.584-1.59668,2.28516a1.811,1.811,0,0,1-3.01562-.001c-.56641-.832-1.22266-1.75781-1.92481-2.74707C17.16211,29.10938,12.5,22.542,12.5,18.17285,12.5,11.18457,17.65918,5.5,24,5.5s11.5,5.68457,11.5,12.67285c0,2.10254-1.06641,4.90625-3.25977,8.57129a.49976.49976,0,1,0,.85743.51367C35.38672,23.43262,36.5,20.46094,36.5,18.17285,36.5,10.63379,30.89258,4.5,24,4.5S11.5,10.63379,11.5,18.17285c0,4.6875,4.5752,11.13281,8.252,16.31153C20.44922,35.46777,21.10254,36.38672,21.66406,37.21387Z"/><path d="M31.5,42.5h-15a.5.5,0,0,0,0,1h15a.5.5,0,0,0,0-1Z"/><path d="M23.89355,12.81836a.49972.49972,0,0,0-.5.5v7a.5.5,0,0,0,1,0v-1.833h1.78614a2.83391,2.83391,0,0,0,0-5.667Zm4.07129,2.834a1.81157,1.81157,0,0,1-1.78515,1.833H24.39355v-3.667h1.78614A1.81179,1.81179,0,0,1,27.96484,15.65234Z"/><path d="M19.96484,13.31836v7a.5.5,0,0,0,1,0v-7a.5.5,0,0,0-1,0Z"/></g><g id="Sub_Icons" data-name="Sub Icons"><path class="cls-1" d="M41.85352,38.75781l-1.61817-1.61816a5.27273,5.27273,0,0,0-2.76367-6.667,5.28113,5.28113,0,0,0-4.36328,0,.49946.49946,0,0,0-.14649.80859l2.999,2.999a.29242.29242,0,0,1,.00488.41211L34.69238,35.9668a.294.294,0,0,1-.4082.001L31.2793,32.96289a.51494.51494,0,0,0-.44336-.13867.50282.50282,0,0,0-.36621.28613,5.28463,5.28463,0,0,0,6.668,7.125l1.60937,1.61719A.49874.49874,0,0,0,39.10156,42h.00879a.49872.49872,0,0,0,.32031-.87793L37.61035,39.293a.4991.4991,0,0,0-.56152-.10254,4.28454,4.28454,0,0,1-5.916-4.96L33.582,36.67969a1.30086,1.30086,0,0,0,1.81641-.00489l1.27929-1.28027a1.29625,1.29625,0,0,0-.01367-1.82519l-2.43457-2.43555a4.27908,4.27908,0,0,1,4.96094,5.916.50062.50062,0,0,0,.10156.56055l1.85449,1.85449a.49995.49995,0,0,0,.707-.707Z"/></g></svg>