<svg xmlns="http://www.w3.org/2000/svg" viewBox="0 0 48 48"><defs><style>.cls-1{fill:#ff6c2c;}</style></defs><g id="Base_Icons" data-name="Base Icons"><path d="M32.54742,15.606l2.52778,2.52685a.4998.4998,0,0,0,.707,0l5.65625-5.65722a.49983.49983,0,0,0,0-.707L38.91162,9.2417l2.477-2.47705a.49995.49995,0,1,0-.707-.707L23.26086,23.47839a10.52241,10.52241,0,1,0,.7334.68067Zm2.88129,1.46631-2.12207-2.1211,4.9502-4.95019,2.12109,2.12109ZM16.5,41A9.5,9.5,0,1,1,26,31.5,9.51081,9.51081,0,0,1,16.5,41Z"/></g><g id="Sub_Icons" data-name="Sub Icons"><path class="cls-1" d="M39.5,30a2.0026,2.0026,0,0,0-2,2,1.97391,1.97391,0,0,0,.11542.64258L33.955,34.63684a2.06711,2.06711,0,1,0,.47882.87878L38.16833,33.481a1.99585,1.99585,0,0,0,.1576.13012L36.5882,38.00891C36.55835,38.00757,36.53021,38,36.5,38a2.01826,2.01826,0,1,0,1.04651.30359l1.7102-4.32825A1.95163,1.95163,0,0,0,39.5,34a2,2,0,0,0,0-4Zm-7,7a1,1,0,1,1,1-1A1.00067,1.00067,0,0,1,32.5,37Zm4,4a1,1,0,1,1,1-1A1.00067,1.00067,0,0,1,36.5,41Zm3-8a1,1,0,1,1,1-1A1.00067,1.00067,0,0,1,39.5,33Z"/></g></svg>