<svg xmlns="http://www.w3.org/2000/svg" viewBox="0 0 48 48"><defs><style>.cls-1{fill:#ff6c2c;}</style></defs><g id="Base_Icons" data-name="Base Icons"><path d="M40.2041,10.5H7.80176A1.84134,1.84134,0,0,0,6,12.374V35.62793A1.83926,1.83926,0,0,0,7.7998,37.5H26a.5.5,0,0,0,0-1H7.7998A.83923.83923,0,0,1,7,35.62793V12.58374l16.05469,9.65454a1.83217,1.83217,0,0,0,1.89062,0L41,12.58374V26a.5.5,0,0,0,1,0V12.36816A1.83509,1.83509,0,0,0,40.2041,10.5ZM24.42969,21.38086a.8286.8286,0,0,1-.85938,0L7.38373,11.647a.7353.7353,0,0,1,.418-.147H40.2041a.72946.72946,0,0,1,.41437.14569Z"/></g><g id="Sub_Icons" data-name="Sub Icons"><path class="cls-1" d="M39.11035,42h-.00879a.49874.49874,0,0,1-.35449-.14746L37.1377,40.23535a5.28464,5.28464,0,0,1-6.668-7.125.50282.50282,0,0,1,.36621-.28613.51029.51029,0,0,1,.44336.13867l3.00488,3.00488a.294.294,0,0,0,.4082-.001l1.27344-1.27442a.29242.29242,0,0,0-.00488-.41211l-2.999-2.999a.49946.49946,0,0,1,.14649-.80859,5.288,5.288,0,0,1,7.12988,2.95214,5.22468,5.22468,0,0,1-.00293,3.71485l1.61817,1.61816a.49995.49995,0,0,1-.707.707L39.292,37.61035a.50062.50062,0,0,1-.10156-.56055,4.28306,4.28306,0,0,0-4.96094-5.916l2.43457,2.43555a1.29625,1.29625,0,0,1,.01367,1.82519L35.39844,36.6748a1.30086,1.30086,0,0,1-1.81641.00489l-2.44922-2.44922a4.28511,4.28511,0,0,0,5.916,4.96.50244.50244,0,0,1,.56152.10254l1.82031,1.8291A.49872.49872,0,0,1,39.11035,42Z"/></g></svg>