<svg xmlns="http://www.w3.org/2000/svg" viewBox="0 0 48 48"><defs><style>.cls-1{fill:#ff6c2c;}</style></defs><g id="Base_Icons" data-name="Base Icons"><path d="M24,6C13.90625,6,6,9.7334,6,14.5S13.90625,23,24,23c7.98572,0,14.58466-2.34106,17-5.67773V24.167a4.34712,4.34712,0,0,1-1.59961,3.13379.49951.49951,0,1,0,.68359.72852,5.73631,5.73631,0,0,0,1.84107-3.1167A.48617.48617,0,0,0,42,24.665V14.5C42,9.7334,34.09375,6,24,6Zm0,16c-9.21484,0-17-3.43457-17-7.5S14.78516,7,24,7s17,3.43457,17,7.5S33.21484,22,24,22Z"/><path d="M24,32.667c1.1416,0,2.28613-.0498,3.40039-.14941a.50012.50012,0,0,0,.4541-.542.5172.5172,0,0,0-.542-.45411C26.22656,31.61816,25.1123,31.667,24,31.667c-9.21484,0-17-3.43457-17-7.5v-.66015a.5.5,0,0,0-1,0V33.5C6,38.2666,13.90625,42,24,42c1.1377,0,2.28223-.0498,3.40039-.14844a.49954.49954,0,0,0,.4541-.542.508.508,0,0,0-.542-.4541C26.22363,40.95117,25.1084,41,24,41c-9.21484,0-17-3.43457-17-7.5V26.98926C9.41534,30.32593,16.01428,32.667,24,32.667Z"/></g><g id="Sub_Icons" data-name="Sub Icons"><path class="cls-1" d="M40.23535,37.13965a5.27273,5.27273,0,0,0-2.76367-6.667,5.28113,5.28113,0,0,0-4.36328,0,.49946.49946,0,0,0-.14649.80859l2.999,2.999a.29242.29242,0,0,1,.00488.41211L34.69238,35.9668a.293.293,0,0,1-.4082.001L31.2793,32.96289a.51312.51312,0,0,0-.44336-.13867.50282.50282,0,0,0-.36621.28613,5.28463,5.28463,0,0,0,6.668,7.125l1.60937,1.61719A.49874.49874,0,0,0,39.10156,42h.00879a.49872.49872,0,0,0,.32031-.87793L37.61035,39.293a.50016.50016,0,0,0-.56152-.10254,4.28454,4.28454,0,0,1-5.916-4.96L33.582,36.67969a1.30086,1.30086,0,0,0,1.81641-.00489l1.27929-1.28027a1.29625,1.29625,0,0,0-.01367-1.82519l-2.43457-2.43555a4.27908,4.27908,0,0,1,4.96094,5.916.50062.50062,0,0,0,.10156.56055l1.85449,1.85449a.49995.49995,0,0,0,.707-.707Z"/></g></svg>