<svg xmlns="http://www.w3.org/2000/svg" viewBox="0 0 48 48"><defs><style>.cls-1{fill:#ff6c2c;}</style></defs><g id="Base_Icons" data-name="Base Icons"><path d="M15.5,22.5a.5.5,0,0,0-1,0v1h-1a.5.5,0,0,0,0,1h.56573l-.48175.72266a.5.5,0,1,0,.832.55468l.584-.876.584.876a.5.5,0,0,0,.832-.55468L15.93427,24.5H16.5a.5.5,0,0,0,0-1h-1Z"/><path d="M19.5,24.5h.56573l-.48175.72266a.5.5,0,1,0,.832.55468l.584-.876.584.876a.5.5,0,0,0,.832-.55468L21.93427,24.5H22.5a.5.5,0,0,0,0-1h-1v-1a.5.5,0,0,0-1,0v1h-1a.5.5,0,0,0,0,1Z"/><path d="M28.5,23.5h-1v-1a.5.5,0,0,0-1,0v1h-1a.5.5,0,0,0,0,1h.56573l-.48175.72266a.5.5,0,1,0,.832.55468l.584-.876.584.876a.5.5,0,0,0,.832-.55468L27.93427,24.5H28.5a.5.5,0,0,0,0-1Z"/><path d="M34.5,26a.5.5,0,0,0,0-1h-3a.5.5,0,0,0,0,1Z"/><path d="M41.5,10H19.72266a.5.5,0,0,0,0,1H41.5a.501.501,0,0,1,.5.5v19a.5.5,0,0,0,1,0v-19A1.50164,1.50164,0,0,0,41.5,10Z"/><path d="M27.5,37H6.5a.501.501,0,0,1-.5-.5V17.5498a.5.5,0,0,0-1,0V36.5A1.50164,1.50164,0,0,0,6.5,38h21a.5.5,0,0,0,0-1Z"/></g><g id="Sub_Icons" data-name="Sub Icons"><path class="cls-1" d="M41.85352,35.68457,38.166,31.99805a1.34635,1.34635,0,0,0-.59766-.34864l-5.873-1.60156a1.342,1.342,0,0,0-1.64746,1.64844l1.60156,5.873a1.34582,1.34582,0,0,0,.34668.59472l3.68848,3.68946a.49995.49995,0,0,0,.707-.707l-3.69043-3.6914a.33775.33775,0,0,1-.08691-.15039l-.62079-2.27564,3.03528-3.0354,2.275.62061a.33835.33835,0,0,1,.15332.08886l3.68945,3.68848a.49995.49995,0,0,0,.707-.707ZM31.69043,33.918l-.67773-2.48438a.339.339,0,0,1,.08789-.333.3558.3558,0,0,1,.332-.08789l2.48517.678Z"/><path class="cls-1" d="M37.29492,36.58789a.49995.49995,0,0,0-.707.707l1.7832,1.7832a.49995.49995,0,0,0,.707-.707Z"/><path class="cls-1" d="M16.444,11.75586l-.24219.4375.207-.47754A5.094,5.094,0,0,0,16.45961,11c0-.24316-.01758-.48145-.01465-.75586A1.06621,1.06621,0,0,0,16.9645,9.582a1.04238,1.04238,0,0,0-.11524-.81641l-.92969-1.54687a1.08523,1.08523,0,0,0-1.40625-.4248c-.03027.01074-.15234.02539-.17968.041A7.46,7.46,0,0,0,13.026,6.07324,1.08567,1.08567,0,0,0,11.93032,5H10.07094A1.14287,1.14287,0,0,0,8.944,6.12305a9.82442,9.82442,0,0,0-1.375.708,1.11375,1.11375,0,0,0-1.48828.38868L5.152,8.76562a1.0447,1.0447,0,0,0-.11524.81739,1.184,1.184,0,0,0,.55566.70117A5.094,5.094,0,0,0,5.54164,11c0,.24316.01758.48145.01563.75586a1.06582,1.06582,0,0,0-.52051.66113,1.0447,1.0447,0,0,0,.11524.81739l.92968,1.54687a1.08327,1.08327,0,0,0,1.40625.4248c.03028-.01074.15235-.02539.17969-.041a7.45965,7.45965,0,0,0,1.30762.76172A1.08567,1.08567,0,0,0,10.07094,17h1.85938a1.14287,1.14287,0,0,0,1.127-1.123,5.50711,5.50711,0,0,0,1.27637-.71191l.10058.00586a1.11318,1.11318,0,0,0,1.48633-.39063l.92871-1.54589a1.04474,1.04474,0,0,0,.11524-.81739A1.06586,1.06586,0,0,0,16.444,11.75586Zm-1.38087,2.50976a.11019.11019,0,0,1-.14843.02833,1.08538,1.08538,0,0,0-1.18066.07031,4.50874,4.50874,0,0,1-1.04493.583,1.0489,1.0489,0,0,0-.66308.97949A.08744.08744,0,0,1,11.93032,16H10.07094a.08846.08846,0,0,1-.0957-.07422,1.047,1.047,0,0,0-.66407-.97851,4.522,4.522,0,0,1-1.04394-.583,1.0696,1.0696,0,0,0-.64063-.21094,1.11618,1.11618,0,0,0-.54492.14258.1101.1101,0,0,1-.14258-.0293l-.8955-1.63672a1.04154,1.04154,0,0,0,.53906-1.05664,4.01915,4.01915,0,0,1,0-1.14551,1.21383,1.21383,0,0,0-.57324-1.14648l.9287-1.54687a.1185.1185,0,0,1,.14845-.02833,1.08957,1.08957,0,0,0,1.18066-.07031,4.50826,4.50826,0,0,1,1.04492-.583,1.0489,1.0489,0,0,0,.66309-.97949A.08743.08743,0,0,1,10.07094,6h1.85938a.08847.08847,0,0,1,.0957.07422,1.047,1.047,0,0,0,.66406.97851,4.52244,4.52244,0,0,1,1.044.583,1.09133,1.09133,0,0,0,1.18554.06836.10756.10756,0,0,1,.14258.0293l.89551,1.63672a1.04153,1.04153,0,0,0-.53906,1.05664,4.02012,4.02012,0,0,1,0,1.14551,1.04215,1.04215,0,0,0,.53906,1.05761l.03418.08887Z"/><path class="cls-1" d="M12.25063,8.834a2.49982,2.49982,0,1,0,.915,3.416h.001A2.50612,2.50612,0,0,0,12.25063,8.834Zm.0498,2.916a1.49962,1.49962,0,1,1-.5498-2.0498A1.50451,1.50451,0,0,1,12.30043,11.75Z"/></g></svg>