<svg xmlns="http://www.w3.org/2000/svg" viewBox="0 0 48 48"><defs><style>.cls-1{fill:#ff6c2c;}</style></defs><g id="Base_Icons" data-name="Base Icons"><path d="M39.5,34a2.46488,2.46488,0,0,0-.35486.03583l-2.943-6.01044A1.49769,1.49769,0,0,0,34.7793,27H13.2207a1.46674,1.46674,0,0,0-1.39648.96289l-2.985,6.07135A2.468,2.468,0,0,0,8.5,34a2.52545,2.52545,0,1,0,1.28821.36835l2.95886-6.02655A.49665.49665,0,0,1,13.2207,28H23.5v9.05054a2.5,2.5,0,1,0,1,0V28H34.7793a.53269.53269,0,0,1,.499.40332l2.91992,5.97235A2.48732,2.48732,0,1,0,39.5,34Z"/><path d="M14.501,23H33.49805A1.50373,1.50373,0,0,0,35,21.49805V7.51074A1.51247,1.51247,0,0,0,33.48926,6H14.50293A1.50414,1.50414,0,0,0,13,7.50293V21.499A1.50331,1.50331,0,0,0,14.501,23ZM34,21.49805a.50305.50305,0,0,1-.502.502H14.501A.50138.50138,0,0,1,14,21.499V15H34ZM14,7.50293A.50347.50347,0,0,1,14.50293,7H33.48926A.5118.5118,0,0,1,34,7.51074V14H14Z"/></g><g id="Sub_Icons" data-name="Sub Icons"><circle class="cls-1" cx="8.5" cy="36.5" r="1.5"/><circle class="cls-1" cx="24" cy="39.5" r="1.5"/><circle class="cls-1" cx="39.5" cy="36.5" r="1.5"/></g></svg>