<svg xmlns="http://www.w3.org/2000/svg" viewBox="0 0 48 48"><defs><style>.cls-1{fill:#ff6c2c;}</style></defs><g id="Base_Icons" data-name="Base Icons"><path d="M18.74982,16.5a.49971.49971,0,0,0-.5.5V33a.5.5,0,0,0,1,0V17A.49972.49972,0,0,0,18.74982,16.5Z"/><path d="M33.74982,21.7998a5.32292,5.32292,0,0,0-5.333-5.2998h-4.833a.49971.49971,0,0,0-.5.5V33a.5.5,0,0,0,1,0V27.09961h4.333A5.32293,5.32293,0,0,0,33.74982,21.7998ZM24.0838,17.5h4.333a4.29993,4.29993,0,1,1,0,8.59961h-4.333Z"/></g><g id="Sub_Icons" data-name="Sub Icons"><path class="cls-1" d="M41.85333,35.68457l-3.6875-3.68652a1.34682,1.34682,0,0,0-.59668-.34864l-5.874-1.60156a1.34172,1.34172,0,0,0-1.64649,1.64844l1.60157,5.87012a1.33448,1.33448,0,0,0,.3457.59765l3.68945,3.68946a.49995.49995,0,1,0,.707-.707L32.70294,37.457a.33706.33706,0,0,1-.08789-.15234l-.62091-2.27655,3.03491-3.03491,2.27448.62005a.34929.34929,0,0,1,.15332.08984L41.1463,36.3916a.49995.49995,0,0,0,.707-.707ZM31.6911,33.91711l-.67761-2.48449a.33573.33573,0,0,1,.08789-.332.34365.34365,0,0,1,.33105-.08789l2.48548.67761Z"/><path class="cls-1" d="M37.29474,36.58789a.49995.49995,0,0,0-.707.707l1.7832,1.7832a.49995.49995,0,0,0,.707-.707Z"/><path class="cls-1" d="M15.40411,12.52441A4.84836,4.84836,0,0,0,8.85236,6.43359a.4997.4997,0,0,0-.14649.8086l2.72656,2.72656a.22392.22392,0,0,1,.00489.31055l-1.15918,1.15918a.22474.22474,0,0,1-.30664,0L7.24005,8.707a.51118.51118,0,0,0-.44336-.13867.50509.50509,0,0,0-.36621.28613,4.84978,4.84978,0,0,0,6.0918,6.54883l1.44238,1.44922A.49874.49874,0,0,0,14.31915,17h.00879a.49872.49872,0,0,0,.32031-.87793l-1.65234-1.66016a.50213.50213,0,0,0-.56152-.10253,3.85163,3.85163,0,0,1-5.335-4.37891l2.17089,2.1709a1.22866,1.22866,0,0,0,1.71485-.00586l1.164-1.16406a1.22466,1.22466,0,0,0-.01267-1.72266L9.97931,7.10156a3.84449,3.84449,0,0,1,4.37988,5.334.50061.50061,0,0,0,.10156.56054l1.68555,1.68555a.49995.49995,0,0,0,.707-.707Z"/></g></svg>