<svg xmlns="http://www.w3.org/2000/svg" viewBox="0 0 48 48"><defs><style>.cls-1{fill:#ff6c2c;}</style></defs><g id="Base_Icons" data-name="Base Icons"><path d="M37.08105,10.919a.49995.49995,0,0,0-.707.707A17.50392,17.50392,0,1,1,25.93353,6.60944l-1.53705,1.537a.5.5,0,1,0,.707.707l2.5-2.5a.49983.49983,0,0,0,0-.707l-2.5-2.5a.5.5,0,0,0-.707.707L26.1759,5.63293a18.49226,18.49226,0,1,0,10.90515,5.286Z"/></g><g id="Sub_Icons" data-name="Sub Icons"><path class="cls-1" d="M26.94727,20.77637A.5011.5011,0,0,0,26.5,20.5h-5a.49878.49878,0,0,0-.44141.26562l-.92633,1.74775c-.04455-.003-.087-.01337-.13226-.01337a2.00764,2.00764,0,1,0,1.09558.33026L21.80078,21.5H23.5v4.071a2,2,0,1,0,1,0V21.5h1.69141l.67669,1.35413A1.99667,1.99667,0,1,0,28,22.5c-.06226,0-.12091.01276-.1817.01837ZM20,25.5a1,1,0,1,1,1-1A1.00067,1.00067,0,0,1,20,25.5Zm5,2a1,1,0,1,1-1-1A1.00067,1.00067,0,0,1,25,27.5Zm4-3a1,1,0,1,1-1-1A1.00067,1.00067,0,0,1,29,24.5Z"/></g></svg>