<svg xmlns="http://www.w3.org/2000/svg" viewBox="0 0 48 48"><defs><style>.cls-1{fill:#ff6c2c;}</style></defs><g id="Base_Icons" data-name="Base Icons"><path d="M20.67676,36.57227h-.00488a15.09667,15.09667,0,0,1-6.74122-1.4336,16.02728,16.02728,0,0,1-8.291-20.53125L15.501,24.4668a3.25683,3.25683,0,0,0,4.55273-.00489l4.40918-4.4082a3.25667,3.25667,0,0,0-.03613-4.582l-9.8252-9.82422A16.0109,16.0109,0,0,1,35.13867,27.13477a.50061.50061,0,0,0,.10156.56054l6.01954,6.01856a.49995.49995,0,1,0,.707-.707l-5.77735-5.77637a17.0197,17.0197,0,0,0-22.67187-22.207.49969.49969,0,0,0-.14649.80859l10.375,10.37207a2.24993,2.24993,0,0,1,.00489,3.14746l-4.4043,4.40332a2.25152,2.25152,0,0,1-3.14356,0L5.82324,13.377a.51162.51162,0,0,0-.44336-.13867.49941.49941,0,0,0-.36572.28613A17.02793,17.02793,0,0,0,13.5166,36.0498a16.73379,16.73379,0,0,0,7.001,1.52344c.05371,0,.10937,0,.16406-.001a.5.5,0,0,0-.00488-1Z"/></g><g id="Sub_Icons" data-name="Sub Icons"><path class="cls-1" d="M25.5,35h-1a.49971.49971,0,0,0-.5.5v6a.49971.49971,0,0,0,.5.5h1a3.5,3.5,0,0,0,0-7Zm0,6H25V36h.5a2.5,2.5,0,0,1,0,5Z"/><path class="cls-1" d="M35,35a.49971.49971,0,0,0-.5.5v4.34863l-3.084-4.626A.5.5,0,0,0,30.5,35.5v6a.5.5,0,0,0,1,0V37.15137l3.084,4.626A.50052.50052,0,0,0,35,42a.49411.49411,0,0,0,.14453-.02148A.49955.49955,0,0,0,35.5,41.5v-6A.49971.49971,0,0,0,35,35Z"/><path class="cls-1" d="M40,38H39a1,1,0,0,1,0-2h1.5a.5.5,0,0,0,0-1H39a2,2,0,0,0,0,4h1a1,1,0,0,1,0,2H37.5a.5.5,0,0,0,0,1H40a2,2,0,0,0,0-4Z"/></g></svg>