<svg xmlns="http://www.w3.org/2000/svg" viewBox="0 0 48 48"><defs><style>.cls-1{fill:#ff6c2c;}</style></defs><g id="Base_Icons" data-name="Base Icons"><path d="M37.08105,10.919a.49995.49995,0,0,0-.707.707,17.5,17.5,0,1,1-24.748,0A17.56716,17.56716,0,0,1,25.93323,6.60974L24.39648,8.14648a.5.5,0,1,0,.707.707l2.5-2.5a.49983.49983,0,0,0,0-.707l-2.5-2.5a.5.5,0,0,0-.707.707l1.77924,1.77929A18.49247,18.49247,0,1,0,37.08105,10.919Z"/></g><g id="Sub_Icons" data-name="Sub Icons"><path class="cls-1" d="M25,22a.49971.49971,0,0,0-.5-.5H19.88116l1.93915-1.61621a.49989.49989,0,0,0-.64062-.76758l-3,2.5a.4997.4997,0,0,0,0,.76758l3,2.5a.49989.49989,0,0,0,.64062-.76758L19.88116,22.5H24.5A.49971.49971,0,0,0,25,22Z"/><path class="cls-1" d="M26.11621,23.17969a.50005.50005,0,0,0,.06348.7041L28.11884,25.5H23.5a.5.5,0,0,0,0,1h4.61884l-1.93915,1.61621a.49989.49989,0,1,0,.64062.76758l3-2.5a.4997.4997,0,0,0,0-.76758l-3-2.5A.502.502,0,0,0,26.11621,23.17969Z"/></g></svg>