<svg xmlns="http://www.w3.org/2000/svg" viewBox="0 0 48 48"><defs><style>.cls-1{fill:#ff6c2c;}</style></defs><g id="Base_Icons" data-name="Base Icons"><path d="M21.5,13.75H41.03809a.5.5,0,0,0,0-1H21.5a.5.5,0,0,0,0,1Z"/><path d="M12.5,18.75a.5.5,0,0,0,0,1H39.26953a.5.5,0,0,0,0-1Z"/><path d="M42.5,24.75h-30a.5.5,0,0,0,0,1h30a.5.5,0,0,0,0-1Z"/><path d="M28.03809,30.75H12.5a.5.5,0,0,0,0,1H28.03809a.5.5,0,0,0,0-1Z"/><path d="M26.5,36.75h-14a.5.5,0,0,0,0,1h14a.5.5,0,0,0,0-1Z"/><path d="M7.75,17.25H6.25A1.25116,1.25116,0,0,0,5,18.5V20a1.25116,1.25116,0,0,0,1.25,1.25h1.5A1.25116,1.25116,0,0,0,9,20V18.5A1.25116,1.25116,0,0,0,7.75,17.25ZM8,20a.25048.25048,0,0,1-.25.25H6.25A.25048.25048,0,0,1,6,20V18.5a.25048.25048,0,0,1,.25-.25h1.5A.25048.25048,0,0,1,8,18.5Z"/><path d="M7.75,23.25H6.25A1.25116,1.25116,0,0,0,5,24.5V26a1.25116,1.25116,0,0,0,1.25,1.25h1.5A1.25116,1.25116,0,0,0,9,26V24.5A1.25116,1.25116,0,0,0,7.75,23.25ZM8,26a.25048.25048,0,0,1-.25.25H6.25A.25048.25048,0,0,1,6,26V24.5a.25048.25048,0,0,1,.25-.25h1.5A.25048.25048,0,0,1,8,24.5Z"/><path d="M7.75,29.25H6.25A1.25116,1.25116,0,0,0,5,30.5V32a1.25116,1.25116,0,0,0,1.25,1.25h1.5A1.25116,1.25116,0,0,0,9,32V30.5A1.25116,1.25116,0,0,0,7.75,29.25ZM8,32a.25048.25048,0,0,1-.25.25H6.25A.25048.25048,0,0,1,6,32V30.5a.25048.25048,0,0,1,.25-.25h1.5A.25048.25048,0,0,1,8,30.5Z"/><path d="M7.75,35.25H6.25A1.25116,1.25116,0,0,0,5,36.5V38a1.25116,1.25116,0,0,0,1.25,1.25h1.5A1.25116,1.25116,0,0,0,9,38V36.5A1.25116,1.25116,0,0,0,7.75,35.25ZM8,38a.25048.25048,0,0,1-.25.25H6.25A.25048.25048,0,0,1,6,38V36.5a.25048.25048,0,0,1,.25-.25h1.5A.25048.25048,0,0,1,8,36.5Z"/></g><g id="Sub_Icons" data-name="Sub Icons"><path class="cls-1" d="M37.147,36.43994A3.96038,3.96038,0,0,0,38,34a4,4,0,1,0-4,4,3.95988,3.95988,0,0,0,2.43994-.853l4.70654,4.70655a.5.5,0,0,0,.707-.707ZM31,34a3,3,0,1,1,3,3A3.00328,3.00328,0,0,1,31,34Z"/><path class="cls-1" d="M9.17969,11.88379a.49989.49989,0,1,0,.64062-.76758L7.88116,9.5H12.5a.5.5,0,0,0,0-1H7.88116L9.82031,6.88379a.49989.49989,0,1,0-.64062-.76758l-3,2.5a.4997.4997,0,0,0,0,.76758Z"/><path class="cls-1" d="M16.11884,12.5H11.5a.5.5,0,0,0,0,1h4.61884l-1.93915,1.61621a.49989.49989,0,1,0,.64062.76758l3-2.5a.4997.4997,0,0,0,0-.76758l-3-2.5a.49989.49989,0,1,0-.64062.76758Z"/></g></svg>