<svg xmlns="http://www.w3.org/2000/svg" viewBox="0 0 48 48"><defs><style>.cls-1{fill:#ff6c2c;}</style></defs><g id="Base_Icons" data-name="Base Icons"><path d="M24,45A21,21,0,1,1,45,24,21.02422,21.02422,0,0,1,24,45ZM24,4A20,20,0,1,0,44,24,20.02229,20.02229,0,0,0,24,4Z"/></g><g id="Sub_Icons" data-name="Sub Icons"><path class="cls-1" d="M24,34.5a.49971.49971,0,0,1-.5-.5V28a.49971.49971,0,0,1,.5-.5,7.46427,7.46427,0,0,0,5.86719-2.82812,7.57042,7.57042,0,0,0,1.43066-6.44532,7.48,7.48,0,0,0-5.52441-5.52441,7.56112,7.56112,0,0,0-6.44532,1.43066A7.46427,7.46427,0,0,0,16.5,20a.5.5,0,0,1-1,0,8.46391,8.46391,0,0,1,3.2041-6.64941A8.49927,8.49927,0,0,1,30.64941,25.2959,8.46007,8.46007,0,0,1,24.5,28.48535V34A.49971.49971,0,0,1,24,34.5Z"/><path class="cls-1" d="M24,38.5a.40492.40492,0,0,1-.19043-.04.36482.36482,0,0,1-.16016-.11035A.469.469,0,0,1,23.5,38a.40492.40492,0,0,1,.04-.19043.35491.35491,0,0,1,.10937-.16016.49543.49543,0,0,1,.54-.10937.34975.34975,0,0,1,.16016.10937.36482.36482,0,0,1,.11035.16016.47053.47053,0,0,1,0,.37988.537.537,0,0,1-.27051.27051A.40093.40093,0,0,1,24,38.5Z"/></g></svg>