<svg xmlns="http://www.w3.org/2000/svg" viewBox="0 0 48 48"><defs><style>.cls-1{fill:#ff6c2c;}</style></defs><g id="Base_Icons" data-name="Base Icons"><path d="M40.49609,24H7.50293A1.50414,1.50414,0,0,1,6,22.49707V8.502A1.50373,1.50373,0,0,1,7.502,7H40.49707A1.50414,1.50414,0,0,1,42,8.50293V22.49609A1.5058,1.5058,0,0,1,40.49609,24ZM7.502,8A.50305.50305,0,0,0,7,8.502V22.49707A.50347.50347,0,0,0,7.50293,23H40.49609A.50389.50389,0,0,0,41,22.49609V8.50293A.50347.50347,0,0,0,40.49707,8Z"/><path d="M10.5,18.5A.49971.49971,0,0,1,10,18V13a.5.5,0,0,1,1,0v5A.49971.49971,0,0,1,10.5,18.5Z"/><path d="M27,40H7.49707A1.49915,1.49915,0,0,1,6,38.50293V24.49512A1.49706,1.49706,0,0,1,7.49512,23h33A1.50622,1.50622,0,0,1,42,24.50488V28a.5.5,0,0,1-1,0V24.50488A.50554.50554,0,0,0,40.49512,24h-33A.49513.49513,0,0,0,7,24.49512V38.50293A.49722.49722,0,0,0,7.49707,39H27a.5.5,0,0,1,0,1Z"/><path d="M10.5,34.5A.49971.49971,0,0,1,10,34V29a.5.5,0,0,1,1,0v5A.49971.49971,0,0,1,10.5,34.5Z"/><path d="M14.5,34.5A.49971.49971,0,0,1,14,34V29a.5.5,0,0,1,1,0v5A.49971.49971,0,0,1,14.5,34.5Z"/><path d="M6.5,25.5A.49971.49971,0,0,1,6,25v-.49512A1.50622,1.50622,0,0,1,7.50488,23h33A1.49706,1.49706,0,0,1,42,24.49512a.5.5,0,0,1-1,0A.49513.49513,0,0,0,40.50488,24h-33A.50554.50554,0,0,0,7,24.50488V25A.49971.49971,0,0,1,6.5,25.5Z"/></g><g id="Sub_Icons" data-name="Sub Icons"><path class="cls-1" d="M36,42a5.99692,5.99692,0,1,1,2.2334-.42969A6.00657,6.00657,0,0,1,36,42Zm0-11a5.00494,5.00494,0,1,0,5,5A5.00588,5.00588,0,0,0,36,31Z"/><path class="cls-1" d="M38,36.5H36a.49971.49971,0,0,1-.5-.5V34.001a.5.5,0,0,1,1,0V35.5H38a.5.5,0,0,1,0,1Z"/></g></svg>