<svg xmlns="http://www.w3.org/2000/svg" viewBox="0 0 48 48"><defs><style>.cls-1{fill:#ff6c2c;}</style></defs><g id="Base_Icons" data-name="Base Icons"><path d="M42,8.50293A1.50414,1.50414,0,0,0,40.49707,7H7.502A1.50373,1.50373,0,0,0,6,8.502V22.49707a1.49119,1.49119,0,0,0,.38959,1.00061A1.48383,1.48383,0,0,0,6,24.49512V38.50293A1.49915,1.49915,0,0,0,7.49707,40H27a.5.5,0,0,0,0-1H7.49707A.49722.49722,0,0,1,7,38.50293v-13.998A.50554.50554,0,0,1,7.50488,24H40.49512A.50554.50554,0,0,1,41,24.50488V28a.5.5,0,0,0,1,0V24.50488l-.00067-.00653L42,24.49512a1.48351,1.48351,0,0,0-.39-.99793,1.49242,1.49242,0,0,0,.39-1.0011ZM7.50488,23H7.50293A.50347.50347,0,0,1,7,22.49707V8.502A.50305.50305,0,0,1,7.502,8H40.49707A.50347.50347,0,0,1,41,8.50293V22.49609A.50389.50389,0,0,1,40.49609,23H7.50488Z"/><path d="M10.5,12.5a.49971.49971,0,0,0-.5.5v5a.5.5,0,0,0,1,0V13A.49971.49971,0,0,0,10.5,12.5Z"/><path d="M10,29v5a.5.5,0,0,0,1,0V29a.5.5,0,0,0-1,0Z"/><path d="M14,29v5a.5.5,0,0,0,1,0V29a.5.5,0,0,0-1,0Z"/></g><g id="Sub_Icons" data-name="Sub Icons"><path class="cls-1" d="M39,33a3,3,0,1,0-3,3A3.00328,3.00328,0,0,0,39,33Zm-5,0a2,2,0,1,1,2,2A2.0026,2.0026,0,0,1,34,33Z"/><path class="cls-1" d="M41.5,38a.49971.49971,0,0,0-.5.5v2.001a.49929.49929,0,0,1-.499.499H31.499A.49929.49929,0,0,1,31,40.501V38.5a.5.5,0,0,0-1,0v2.001A1.50122,1.50122,0,0,0,31.499,42h9.002A1.50122,1.50122,0,0,0,42,40.501V38.5A.49971.49971,0,0,0,41.5,38Z"/></g></svg>