<svg xmlns="http://www.w3.org/2000/svg" viewBox="0 0 48 48"><defs><style>.cls-1{fill:#ff6c2c;}</style></defs><g id="Base_Icons" data-name="Base Icons"><path d="M26.33374,34.5h-13.667a7.16651,7.16651,0,1,1,0-14.333,6.97227,6.97227,0,0,1,3.56641.97559A10.07847,10.07847,0,0,1,16.16674,20a10.5,10.5,0,1,1,20.0752,4.291,4.85,4.85,0,0,1,1.0918-.124,5.17176,5.17176,0,0,1,5.166,5.166.5.5,0,1,1-1,0,4.17108,4.17108,0,0,0-4.166-4.166,4.11139,4.11139,0,0,0-1.91211.48731.50068.50068,0,0,1-.65821-.70508A9.49559,9.49559,0,1,0,17.16674,20a9.57905,9.57905,0,0,0,.25,2.13574.49968.49968,0,0,1-.80859.49414A6.07556,6.07556,0,0,0,12.66674,21.167a6.16651,6.16651,0,1,0,0,12.333h13.667a.5.5,0,0,1,0,1Z"/></g><g id="Sub_Icons" data-name="Sub Icons"><path class="cls-1" d="M36.0896,38.499a.49971.49971,0,0,1-.5-.5v-2a.5.5,0,0,1,1,0v2A.49972.49972,0,0,1,36.0896,38.499Z"/><path class="cls-1" d="M36.09057,34.5a.40492.40492,0,0,1-.19043-.04.46317.46317,0,0,1-.16992-.11035A.49909.49909,0,0,1,35.59057,34a.40492.40492,0,0,1,.04-.19043.43259.43259,0,0,1,.09961-.16016.51443.51443,0,0,1,.71,0,.35686.35686,0,0,1,.11035.16016.4048.4048,0,0,1,.04.19043.51411.51411,0,0,1-.5.5Z"/><path class="cls-1" d="M36.0896,41.999a6,6,0,1,1,6-6A6.00655,6.00655,0,0,1,36.0896,41.999Zm0-11a5,5,0,1,0,5,5A5.00589,5.00589,0,0,0,36.0896,30.999Z"/></g></svg>