<svg xmlns="http://www.w3.org/2000/svg" viewBox="0 0 48 48"><defs><style>.cls-1{fill:#ff6c2c;}</style></defs><g id="Base_Icons" data-name="Base Icons"><path d="M10.49975,18.5a.49971.49971,0,0,0,.5-.5V13a.5.5,0,0,0-1,0v5A.49972.49972,0,0,0,10.49975,18.5Z"/><path d="M26.99975,39H7.49682a.49722.49722,0,0,1-.49707-.49707v-13.998A.50555.50555,0,0,1,7.50464,24H40.49487a.50554.50554,0,0,1,.50488.50488V28a.5.5,0,1,0,1,0V24.50488l-.00067-.00659.00067-.00317a1.48389,1.48389,0,0,0-.38983-.99768,1.49268,1.49268,0,0,0,.38983-1.00135V8.50293A1.50414,1.50414,0,0,0,40.49682,7H7.50171a1.50373,1.50373,0,0,0-1.502,1.502V22.49707a1.49081,1.49081,0,0,0,.3899,1.00049,1.48284,1.48284,0,0,0-.3899.99756V38.50293A1.49915,1.49915,0,0,0,7.49682,40H26.99975a.5.5,0,1,0,0-1Zm-20-30.498A.50306.50306,0,0,1,7.50171,8H40.49682a.50346.50346,0,0,1,.50293.50293V22.49609A.50367.50367,0,0,1,40.49682,23H7.50366a.50368.50368,0,0,1-.50391-.50293Z"/><path d="M9.99975,29v5a.5.5,0,0,0,1,0V29a.5.5,0,0,0-1,0Z"/><path d="M13.99975,29v5a.5.5,0,0,0,1,0V29a.5.5,0,0,0-1,0Z"/></g><g id="Sub_Icons" data-name="Sub Icons"><path class="cls-1" d="M36.0896,35.499a.49972.49972,0,0,0-.5.5v2a.5.5,0,0,0,1,0v-2A.49972.49972,0,0,0,36.0896,35.499Z"/><path class="cls-1" d="M36.44018,33.64941A.34978.34978,0,0,0,36.28,33.54a.49.49,0,0,0-.53907.10937.34941.34941,0,0,0-.11035.16016.40492.40492,0,0,0-.04.19043.42732.42732,0,0,0,.04.18945.40171.40171,0,0,0,.11035.16016.45173.45173,0,0,0,.34961.15039.42736.42736,0,0,0,.18946-.04.35938.35938,0,0,0,.16015-.11035.4118.4118,0,0,0,.11035-.16016.42718.42718,0,0,0,.04-.18945.60105.60105,0,0,0-.04-.19043A.45594.45594,0,0,0,36.44018,33.64941Z"/><path class="cls-1" d="M36.0896,29.999a6,6,0,1,0,6,6A6.00656,6.00656,0,0,0,36.0896,29.999Zm0,11a5,5,0,1,1,5-5A5.00588,5.00588,0,0,1,36.0896,40.999Z"/></g></svg>