<svg xmlns="http://www.w3.org/2000/svg" viewBox="0 0 48 48"><defs><style>.cls-1{fill:#ff6c2c;}</style></defs><g id="Base_Icons" data-name="Base Icons"><path d="M41.666,22h-.23615A17.70851,17.70851,0,0,0,24,5,17.70851,17.70851,0,0,0,6.57013,22H6.334A2.33644,2.33644,0,0,0,4,24.334v8.23243a2.33644,2.33644,0,0,0,2.334,2.334H6.5769C6.90735,37.75452,10.03,40,13.82617,40H20.6084a.5.5,0,1,0,0-1H13.82617c-3.233,0-5.90173-1.798-6.24341-4.09961h.17017a2.33643,2.33643,0,0,0,2.334-2.334V24.334A2.33644,2.33644,0,0,0,7.75293,22H7.57007A16.69518,16.69518,0,0,1,24,6,16.69518,16.69518,0,0,1,40.42993,22h-.18286a2.33644,2.33644,0,0,0-2.334,2.334v2.23243a.5.5,0,1,0,1,0V24.334A1.33576,1.33576,0,0,1,40.24707,23h1.419A1.33576,1.33576,0,0,1,43,24.334v6.23243a.5.5,0,1,0,1,0V24.334A2.33644,2.33644,0,0,0,41.666,22ZM9.08691,24.334v8.23243a1.33576,1.33576,0,0,1-1.334,1.334H6.334A1.33576,1.33576,0,0,1,5,32.56641V24.334A1.33576,1.33576,0,0,1,6.334,23H7.75293A1.33576,1.33576,0,0,1,9.08691,24.334Z"/></g><g id="Sub_Icons" data-name="Sub Icons"><path class="cls-1" d="M39,33a3,3,0,1,0-3,3A3.00328,3.00328,0,0,0,39,33Zm-5,0a2,2,0,1,1,2,2A2.0026,2.0026,0,0,1,34,33Z"/><path class="cls-1" d="M41.5,38a.49971.49971,0,0,0-.5.5v2.001a.49929.49929,0,0,1-.499.499H31.499A.49929.49929,0,0,1,31,40.501V38.5a.5.5,0,0,0-1,0v2.001A1.50122,1.50122,0,0,0,31.499,42h9.002A1.50122,1.50122,0,0,0,42,40.501V38.5A.49971.49971,0,0,0,41.5,38Z"/></g></svg>