<svg xmlns="http://www.w3.org/2000/svg" viewBox="0 0 48 48"><defs><style>.cls-1{fill:#ff6c2c;}</style></defs><g id="Base_Icons" data-name="Base Icons"><path d="M24,12.47852a.49971.49971,0,0,0-.5.5v9.775A1.34467,1.34467,0,1,0,25.24646,24.5h6.3844a.5.5,0,0,0,0-1h-6.3844A1.34623,1.34623,0,0,0,24.5,22.75354v-9.775A.49971.49971,0,0,0,24,12.47852Z"/><path d="M24,4a20.00317,20.00317,0,0,0-7.042,38.72461.48216.48216,0,0,0,.17578.03223.4999.4999,0,0,0,.17578-.96778A19.094,19.094,0,0,1,5.01959,24.5H6.19531a.5.5,0,0,0,0-1h-1.17A18.99929,18.99929,0,0,1,23.5,5.02539V6.19531a.5.5,0,0,0,1,0V5.02539A18.99929,18.99929,0,0,1,42.97467,23.5h-1.17a.5.5,0,1,0,0,1h1.17376a18.894,18.894,0,0,1-1.12,6.002.49985.49985,0,1,0,.93945.3418A20.01219,20.01219,0,0,0,24,4Z"/></g><g id="Sub_Icons" data-name="Sub Icons"><path class="cls-1" d="M23.17676,34H22a.49971.49971,0,0,0-.5.5v7a.49971.49971,0,0,0,.5.5h1.17676a4.00011,4.00011,0,1,0,0-8Zm0,7H22.5V35h.67676a3.00014,3.00014,0,1,1,0,6Z"/><path class="cls-1" d="M34.35254,34a.49971.49971,0,0,0-.5.5v5.35938l-3.79-5.63868a.50012.50012,0,0,0-.915.2793v7a.5.5,0,0,0,1,0V36.14062l3.79,5.63868a.50013.50013,0,0,0,.91505-.2793v-7A.49971.49971,0,0,0,34.35254,34Z"/><path class="cls-1" d="M40.23535,37.5H39.05859a1.25008,1.25008,0,1,1,0-2.5h1.76465a.5.5,0,0,0,0-1H39.05859a2.25,2.25,0,1,0,0,4.5h1.17676a1.25008,1.25008,0,1,1,0,2.5H37.294a.5.5,0,1,0,0,1h2.9414a2.25,2.25,0,1,0,0-4.5Z"/></g></svg>