<svg xmlns="http://www.w3.org/2000/svg" viewBox="0 0 48 48"><defs><style>.cls-1{fill:#ff6c2c;}</style></defs><g id="Base_Icons" data-name="Base Icons"><path d="M29,29H9.5127a.5.5,0,0,0,0,1H29a.5.5,0,0,0,0-1Z"/><path d="M41.5,10H13.72266a.5.5,0,1,0,0,1H41.5a.501.501,0,0,1,.5.5v18a.5.5,0,0,0,1,0v-18A1.50164,1.50164,0,0,0,41.5,10Z"/><path d="M26.68555,37H6.5a.501.501,0,0,1-.5-.5V14.5498a.5.5,0,1,0-1,0V36.5A1.50164,1.50164,0,0,0,6.5,38H26.68555a.5.5,0,1,0,0-1Z"/><path d="M5.14941,10.84961a.4827.4827,0,0,0,.7002,0A.35936.35936,0,0,0,5.96,10.68945.40093.40093,0,0,0,6,10.5a.47.47,0,0,0-.15039-.35059A.34975.34975,0,0,0,5.68945,10.04a.50154.50154,0,0,0-.37988,0,.35491.35491,0,0,0-.16016.10937A.4727.4727,0,0,0,5,10.5a.40093.40093,0,0,0,.04.18945A.34975.34975,0,0,0,5.14941,10.84961Z"/><path d="M7.88965,10.84961A.36479.36479,0,0,0,8.0498,10.96a.40241.40241,0,0,0,.19043.04.46638.46638,0,0,0,.34961-.15039.3593.3593,0,0,0,.11036-.16016.47064.47064,0,0,0,0-.37988.36476.36476,0,0,0-.11036-.16016A.34978.34978,0,0,0,8.42969,10.04a.50157.50157,0,0,0-.37989,0,.35488.35488,0,0,0-.16015.10937A.47271.47271,0,0,0,7.74023,10.5a.40093.40093,0,0,0,.04.18945A.3497.3497,0,0,0,7.88965,10.84961Z"/><path d="M10.62988,10.84961A.46641.46641,0,0,0,10.97949,11a.40489.40489,0,0,0,.19043-.04.36482.36482,0,0,0,.16016-.11035.34975.34975,0,0,0,.10937-.16016.40081.40081,0,0,0,.04-.18945.4727.4727,0,0,0-.14941-.35059.35491.35491,0,0,0-.16016-.10937.50154.50154,0,0,0-.37988,0,.34975.34975,0,0,0-.16016.10937.36482.36482,0,0,0-.11035.16016.47053.47053,0,0,0,0,.37988A.35936.35936,0,0,0,10.62988,10.84961Z"/><path d="M10.01074,24H38.002A.9986.9986,0,0,0,39,23.002V17.99414a.9986.9986,0,0,0-.998-.99805H10.01074a.99859.99859,0,0,0-.998.99805V23.002A.99859.99859,0,0,0,10.01074,24ZM38,17.99414,38.002,23H10.0127l-.002-5.00391Z"/></g><g id="Sub_Icons" data-name="Sub Icons"><path class="cls-1" d="M37.874,35.668l-4-4.5a.50013.50013,0,1,0-.748.66406L36.3866,35.5H30.5a.5.5,0,0,0,0,1h5.8866L33.126,40.168a.50013.50013,0,0,0,.748.66406l4-4.5A.50054.50054,0,0,0,37.874,35.668Z"/><path class="cls-1" d="M37.874,31.168a.50013.50013,0,1,0-.748.66406L40.83105,36,37.126,40.168a.50013.50013,0,0,0,.748.66406l4-4.5a.50054.50054,0,0,0,0-.66406Z"/></g></svg>