<svg xmlns="http://www.w3.org/2000/svg" viewBox="0 0 48 48"><defs><style>.cls-1{fill:#ff6c2c;}</style></defs><g id="Base_Icons" data-name="Base Icons"><path d="M37.39941,7.59961a.4827.4827,0,0,0,.7002,0A.35936.35936,0,0,0,38.21,7.43945.40093.40093,0,0,0,38.25,7.25a.43142.43142,0,0,0-.04-.19043.36482.36482,0,0,0-.11035-.16016.49117.49117,0,0,0-.54-.10937.52365.52365,0,0,0-.26953.26953.43142.43142,0,0,0-.04.19043.40093.40093,0,0,0,.04.18945A.34975.34975,0,0,0,37.39941,7.59961Z"/><path d="M39.75,6.75a.49517.49517,0,0,0,.34961-.85059A.34975.34975,0,0,0,39.93945,5.79a.50154.50154,0,0,0-.37988,0,.35491.35491,0,0,0-.16016.10937A.50054.50054,0,0,0,39.75,6.75Z"/><path d="M42.09961,7.89941A.34975.34975,0,0,0,41.93945,7.79a.50154.50154,0,0,0-.37988,0,.35491.35491,0,0,0-.16016.10937A.50054.50054,0,0,0,41.75,8.75a.49517.49517,0,0,0,.34961-.85059Z"/><path d="M40.39941,10.59961A.47.47,0,0,0,40.75,10.75a.40093.40093,0,0,0,.18945-.04.35936.35936,0,0,0,.16016-.11035A.4664.4664,0,0,0,41.25,10.25a.40492.40492,0,0,0-.04-.19043.36482.36482,0,0,0-.11035-.16016.49117.49117,0,0,0-.54-.10937.52365.52365,0,0,0-.26953.26953.40492.40492,0,0,0-.04.19043A.469.469,0,0,0,40.39941,10.59961Z"/><path d="M27.88477,40.76562A16.503,16.503,0,1,1,39.5,25a16.7242,16.7242,0,0,1-.18555,2.4834.49954.49954,0,0,0,.41993.56836.50831.50831,0,0,0,.56835-.41992A17.65951,17.65951,0,0,0,40.5,25a17.37556,17.37556,0,0,0-2.26685-8.5838l1.29126-.85077a.50078.50078,0,0,0,.15235-.67773,19.57519,19.57519,0,0,0-2.54651-3.31092l2.97327-2.97326a.5.5,0,1,0-.707-.707l-2.97332,2.97333a19.57457,19.57457,0,0,0-3.307-2.54364.4979.4979,0,0,0-.66894.13965L31.5484,9.7453a17.48834,17.48834,0,1,0-3.36871,31.9754.49979.49979,0,0,0-.29492-.95508ZM32.99316,9.42773A18.70287,18.70287,0,0,1,38.56641,14.999l-.85358.56159a17.61488,17.61488,0,0,0-5.30841-5.29474Z"/><path d="M9,25a.5.5,0,0,0-1,0A15.01641,15.01641,0,0,0,23,40a.5.5,0,0,0,0-1A14.01572,14.01572,0,0,1,9,25Z"/></g><g id="Sub_Icons" data-name="Sub Icons"><path class="cls-1" d="M36,30a5.98034,5.98034,0,0,0-4.23077,1.75024l-.01142.00757-.00757.01142a5.99665,5.99665,0,0,0,8.48053,8.48053l.01142-.00757.00757-.01142A5.99665,5.99665,0,0,0,36,30Zm5,6a4.95086,4.95086,0,0,1-1.14648,3.14648l-7-7A4.95086,4.95086,0,0,1,36,31,5.00588,5.00588,0,0,1,41,36ZM31,36a4.95086,4.95086,0,0,1,1.14648-3.14648l7,7A4.95086,4.95086,0,0,1,36,41,5.00588,5.00588,0,0,1,31,36Z"/></g></svg>