<svg xmlns="http://www.w3.org/2000/svg" viewBox="0 0 48 48"><defs><style>.cls-1{fill:#ff6c2c;}</style></defs><g id="Base_Icons" data-name="Base Icons"><path d="M26.71973,38H9.03027a1.88954,1.88954,0,0,1-1.44336-.59863.82469.82469,0,0,1-.19726-.68457C8.65625,30.33887,17.05371,29,23.875,29a38.12755,38.12755,0,0,1,7.1748.60742.51138.51138,0,0,0,.58594-.39648.50115.50115,0,0,0-.39648-.58594A39.13442,39.13442,0,0,0,23.875,28C13.55566,28,7.5166,30.94629,6.40918,36.52148a1.80376,1.80376,0,0,0,.4043,1.51368A2.86458,2.86458,0,0,0,9.03027,39H26.71973a.5.5,0,0,0,0-1Z"/><path d="M33.25391,24.16406a.4763.4763,0,0,0,.43664.82233.49279.49279,0,0,0,.2616.23236,18.68763,18.68763,0,0,1,6.8164,4.38184.5.5,0,0,0,.7129-.70118,19.68325,19.68325,0,0,0-7.07135-4.56964,12.70529,12.70529,0,0,0-.414-16.16571.50056.50056,0,1,0-.74218.67188A11.667,11.667,0,0,1,33.25391,24.16406Z"/><path d="M24,25.5A9.5,9.5,0,1,0,14.5,16,9.51081,9.51081,0,0,0,24,25.5Zm0-18A8.5,8.5,0,1,1,15.5,16,8.51014,8.51014,0,0,1,24,7.5Z"/></g><g id="Sub_Icons" data-name="Sub Icons"><path class="cls-1" d="M40,33.5c-.06226,0-.12091.01276-.1817.01837l-.871-1.742A.5011.5011,0,0,0,38.5,31.5h-5a.49878.49878,0,0,0-.44141.26562l-.92633,1.74775c-.04455-.003-.087-.01337-.13226-.01337a2.00764,2.00764,0,1,0,1.09558.33026L33.80078,32.5H35.5v4.071a2,2,0,1,0,1,0V32.5h1.69141l.67669,1.35413A1.99667,1.99667,0,1,0,40,33.5Zm-8,3a1,1,0,1,1,1-1A1.00067,1.00067,0,0,1,32,36.5Zm5,2a1,1,0,1,1-1-1A1.00067,1.00067,0,0,1,37,38.5Zm3-2a1,1,0,1,1,1-1A1.00067,1.00067,0,0,1,40,36.5Z"/></g></svg>