<svg xmlns="http://www.w3.org/2000/svg" viewBox="0 0 48 48"><defs><style>.cls-1{fill:#ff6c2c;}</style></defs><g id="Base_Icons" data-name="Base Icons"><path d="M44.54688,22.72363C42.22754,19.85645,33.89258,10.5,24,10.5a17.12412,17.12412,0,0,0-4.09961.51367.5.5,0,0,0,.24023.97071A16.1262,16.1262,0,0,1,24,11.5c9.44922,0,17.52051,9.07227,19.76953,11.85254a1.02136,1.02136,0,0,1,0,1.29492A43.38052,43.38052,0,0,1,39.66016,29.042a.50027.50027,0,0,0,.68164.73242,44.47807,44.47807,0,0,0,4.20508-4.498A2.01332,2.01332,0,0,0,44.54688,22.72363Z"/><path d="M27.35645,36.13281A15.99426,15.99426,0,0,1,24,36.5c-9.44922,0-17.52051-9.07227-19.76953-11.85254a1.02136,1.02136,0,0,1,0-1.29492,43.29685,43.29685,0,0,1,4.293-4.56445.50038.50038,0,0,0-.67774-.73633,44.36325,44.36325,0,0,0-4.39258,4.67187,2.01332,2.01332,0,0,0,0,2.55274C5.77246,28.14355,14.10742,37.5,24,37.5a16.89243,16.89243,0,0,0,3.56738-.39062.49954.49954,0,1,0-.21093-.97657Z"/><path d="M24,19a5,5,0,1,0,5,5A5.00588,5.00588,0,0,0,24,19Zm0,9a4,4,0,1,1,4-4A4.004,4.004,0,0,1,24,28Z"/></g><g id="Sub_Icons" data-name="Sub Icons"><path class="cls-1" d="M36,30a5.98059,5.98059,0,0,0-4.23077,1.75024l-.01142.00757-.00757.01148a5.99663,5.99663,0,0,0,8.48053,8.48047l.01142-.00757.00757-.01148A5.9966,5.9966,0,0,0,36,30Zm5,6a4.95049,4.95049,0,0,1-1.14648,3.14648l-7-7A4.9512,4.9512,0,0,1,36,31,5.00588,5.00588,0,0,1,41,36ZM31,36a4.95049,4.95049,0,0,1,1.14648-3.14648l7,7A4.9512,4.9512,0,0,1,36,41,5.00588,5.00588,0,0,1,31,36Z"/><path class="cls-1" d="M11.92871,15.5a.49971.49971,0,0,0,.5-.5V13.167h1.78516a2.8339,2.8339,0,0,0,0-5.667H11.92871a.49971.49971,0,0,0-.5.5v7A.49971.49971,0,0,0,11.92871,15.5Zm2.28516-7a1.83412,1.83412,0,0,1,0,3.667H12.42871V8.5Z"/><path class="cls-1" d="M8.5,15.5A.49971.49971,0,0,0,9,15V8A.5.5,0,0,0,8,8v7A.49971.49971,0,0,0,8.5,15.5Z"/></g></svg>