<svg xmlns="http://www.w3.org/2000/svg" viewBox="0 0 48 48"><defs><style>.cls-1{fill:#ff6c2c;}</style></defs><g id="Base_Icons" data-name="Base Icons"><path d="M37.74512,8.92871a.49644.49644,0,0,0-.68067.19043L28.80664,23.82227l-9.49609-6.55079a.49873.49873,0,0,0-.68848.11622L10.0957,29.06934a.50044.50044,0,0,0,.8086.58984l8.23925-11.28809,9.5459,6.585a.49367.49367,0,0,0,.39746.07618.501.501,0,0,0,.32227-.24219L37.93555,9.60938A.49944.49944,0,0,0,37.74512,8.92871Z"/><path d="M26,35H7V9A.5.5,0,0,0,6,9V35.5a.49971.49971,0,0,0,.5.5H26a.5.5,0,0,0,0-1Z"/></g><g id="Sub_Icons" data-name="Sub Icons"><path class="cls-1" d="M31,34.5a6.46693,6.46693,0,0,1,1.03027-3.50684.50033.50033,0,1,0-.84179-.541A7.46655,7.46655,0,0,0,30,34.5c0,1.80664,1.041,4.17188,3.09375,7.0293a.5003.5003,0,0,0,.8125-.584C32.00488,38.2998,31,36.07031,31,34.5Z"/><path class="cls-1" d="M37.5,30A4.50491,4.50491,0,0,0,33,34.5c0,2.32324,3.69531,6.81543,4.11621,7.32031a.4997.4997,0,0,0,.76758,0C38.30469,41.31543,42,36.82324,42,34.5A4.50491,4.50491,0,0,0,37.5,30Zm0,10.707C36.25586,39.13965,34,35.99121,34,34.5a3.5,3.5,0,0,1,7,0C41,35.99121,38.74414,39.13965,37.5,40.707Z"/><path class="cls-1" d="M37.5,32.5A1.5,1.5,0,1,0,39,34,1.50164,1.50164,0,0,0,37.5,32.5Zm0,2A.5.5,0,1,1,38,34,.501.501,0,0,1,37.5,34.5Z"/></g></svg>