<svg xmlns="http://www.w3.org/2000/svg" viewBox="0 0 48 48"><defs><style>.cls-1{fill:#ff6c2c;}</style></defs><g id="Base_Icons" data-name="Base Icons"><path d="M44.54688,22.72363C42.22754,19.85645,33.89258,10.5,24,10.5a17.12412,17.12412,0,0,0-4.09961.51367.5.5,0,0,0,.24023.97071A16.1262,16.1262,0,0,1,24,11.5c9.44922,0,17.52051,9.07227,19.76953,11.85254a1.02136,1.02136,0,0,1,0,1.29492A43.38052,43.38052,0,0,1,39.66016,29.042a.50027.50027,0,0,0,.68164.73242,44.47807,44.47807,0,0,0,4.20508-4.498A2.01332,2.01332,0,0,0,44.54688,22.72363Z"/><path d="M27.35645,36.13281A15.99426,15.99426,0,0,1,24,36.5c-9.44922,0-17.52051-9.07227-19.76953-11.85254a1.02136,1.02136,0,0,1,0-1.29492,43.29685,43.29685,0,0,1,4.293-4.56445.50038.50038,0,0,0-.67774-.73633,44.36325,44.36325,0,0,0-4.39258,4.67187,2.01332,2.01332,0,0,0,0,2.55274C5.77246,28.14355,14.10742,37.5,24,37.5a16.89243,16.89243,0,0,0,3.56738-.39062.49954.49954,0,1,0-.21093-.97657Z"/><path d="M24,19a5,5,0,1,0,5,5A5.00588,5.00588,0,0,0,24,19Zm0,9a4,4,0,1,1,4-4A4.004,4.004,0,0,1,24,28Z"/></g><g id="Sub_Icons" data-name="Sub Icons"><path class="cls-1" d="M38.166,31.99805a1.34635,1.34635,0,0,0-.59766-.34864l-5.873-1.60156a1.342,1.342,0,0,0-1.64746,1.64844l1.60156,5.873a1.34582,1.34582,0,0,0,.34668.59472l3.68848,3.68946a.49995.49995,0,0,0,.707-.707l-3.69043-3.6914a.33775.33775,0,0,1-.08691-.15039l-.62079-2.27564,3.03528-3.0354,2.275.62061a.33835.33835,0,0,1,.15332.08886l3.68945,3.68848a.49995.49995,0,0,0,.707-.707ZM31.69043,33.918l-.67773-2.48438a.339.339,0,0,1,.08789-.333.35292.35292,0,0,1,.332-.08789l2.48517.678Z"/><path class="cls-1" d="M37.29492,36.58789a.49995.49995,0,0,0-.707.707l1.7832,1.7832a.49995.49995,0,0,0,.707-.707Z"/><path class="cls-1" d="M11.92871,15.5a.49971.49971,0,0,0,.5-.5V13.167h1.78516a2.8339,2.8339,0,0,0,0-5.667H11.92871a.49971.49971,0,0,0-.5.5v7A.49971.49971,0,0,0,11.92871,15.5Zm2.28516-7a1.83412,1.83412,0,0,1,0,3.667H12.42871V8.5Z"/><path class="cls-1" d="M8.5,15.5A.49971.49971,0,0,0,9,15V8A.5.5,0,0,0,8,8v7A.49971.49971,0,0,0,8.5,15.5Z"/></g></svg>