<svg xmlns="http://www.w3.org/2000/svg" viewBox="0 0 48 48"><defs><style>.cls-1{fill:#ff6c2c;}</style></defs><g id="Base_Icons" data-name="Base Icons"><path d="M42.17383,25.751H40.09027a10.62714,10.62714,0,0,0-.08636-14.6836l-.002-.002A10.06325,10.06325,0,0,0,32.7627,8h-.002a10.06276,10.06276,0,0,0-7.24219,3.06738L24,12.62109l-1.51953-1.55371a10.08661,10.08661,0,0,0-14.48535,0,10.62965,10.62965,0,0,0,0,14.78125l3.13141,3.20215H9.13086a.5.5,0,0,0,0,1h2.97357L23.64258,41.84961a.49992.49992,0,0,0,.71484,0L39.12158,26.751h3.05225a.5.5,0,1,0,0-1ZM8.71,25.14941a9.62364,9.62364,0,0,1,0-13.38281,9.08679,9.08679,0,0,1,13.05566,0l1.877,1.91895a.51484.51484,0,0,0,.71484,0l1.87891-1.92188A9.06843,9.06843,0,0,1,32.76074,9h.002a9.074,9.074,0,0,1,6.52636,2.7666l.35742-.34961-.35351.35352a9.62254,9.62254,0,0,1-.00391,13.3789l-.58819.60157H36.48633L31.668,16.127a.511.511,0,0,0-.46777-.27636.50122.50122,0,0,0-.44336.31445L24.59668,31.5459,20.11426,21.10352a.52991.52991,0,0,0-.46485-.30274.49978.49978,0,0,0-.458.31445L16.0127,29.05078H12.52509Z"/></g><g id="Sub_Icons" data-name="Sub Icons"><path class="cls-1" d="M24,40.78516,13.50293,30.05078h2.84863a.49836.49836,0,0,0,.46387-.31445l2.85547-7.13086,4.48242,10.44238a.49841.49841,0,0,0,.459.30274h.00586a.49978.49978,0,0,0,.458-.31446l6.19531-15.46777,4.459,8.90625a.49931.49931,0,0,0,.44726.27637H37.723Z"/></g></svg>