<svg xmlns="http://www.w3.org/2000/svg" viewBox="0 0 48 48"><defs><style>.cls-1{fill:#ff6c2c;}</style></defs><g id="Base_Icons" data-name="Base Icons"><path d="M23.5,28.5V30a.5.5,0,0,0,1,0V28.5a.5.5,0,0,0-1,0Z"/><path d="M27,35.5a.49971.49971,0,0,0-.5.5v4h-5V36a.5.5,0,0,0-1,0v4h-5V29.98242a.50051.50051,0,0,0-.1084-.31054l-.42871-.53809C13.19727,26.92578,11,24.17676,11,21.30664A13.17132,13.17132,0,0,1,24,8,13.17132,13.17132,0,0,1,37,21.30664c0,2.30274-1.41211,4.49316-2.64258,6.14453a.5004.5004,0,0,0,.80274.59766C36.48242,26.27344,38,23.90332,38,21.30664A14.17181,14.17181,0,0,0,24,7,14.17181,14.17181,0,0,0,10,21.30664c0,3.2207,2.31934,6.12109,4.18262,8.45215l.31738.39844V40.5a.49971.49971,0,0,0,.5.5H27a.49971.49971,0,0,0,.5-.5V36A.49971.49971,0,0,0,27,35.5Z"/><path d="M31.25,21.75A2.75,2.75,0,1,0,28.5,24.5,2.7528,2.7528,0,0,0,31.25,21.75ZM28.5,23.5a1.75,1.75,0,1,1,1.75-1.75A1.75213,1.75213,0,0,1,28.5,23.5Z"/><path d="M16.75,21.75A2.75,2.75,0,1,0,19.5,19,2.7528,2.7528,0,0,0,16.75,21.75Zm4.5,0A1.75,1.75,0,1,1,19.5,20,1.75213,1.75213,0,0,1,21.25,21.75Z"/></g><g id="Sub_Icons" data-name="Sub Icons"><path class="cls-1" d="M41.55566,32.94238A1.48945,1.48945,0,0,0,40.5,32.50879h-.0166l-4.05078.0459a.513.513,0,0,1-.36914-.15723l-.40332-.42676a1.50726,1.50726,0,0,0-1.0918-.4707H31.501A1.50331,1.50331,0,0,0,30,33.001v5.998A1.50331,1.50331,0,0,0,31.501,40.5h8.99609A1.50414,1.50414,0,0,0,42,38.99707V34.00781A1.49122,1.49122,0,0,0,41.55566,32.94238ZM41,38.99707a.50347.50347,0,0,1-.50293.50293H31.501A.50138.50138,0,0,1,31,38.999V33.001a.50138.50138,0,0,1,.501-.501h3.06738a.49858.49858,0,0,1,.36426.15723l.40429.42773a1.50739,1.50739,0,0,0,1.09082.46973h.01563l4.05176-.0459a.4269.4269,0,0,1,.35644.14453A.49566.49566,0,0,1,41,34.00781Z"/></g></svg>