<svg xmlns="http://www.w3.org/2000/svg" viewBox="0 0 48 48"><defs><style>.cls-1{fill:#ff6c2c;}</style></defs><g id="Base_Icons" data-name="Base Icons"><path d="M41.99609,10.5H6.02051a1.50233,1.50233,0,0,0-1.50293,1.5293l.40527,23.99511A1.509,1.509,0,0,0,6.42383,37.5H28.001a.5.5,0,0,0,0-1H6.42383a.50427.50427,0,0,1-.501-.49316L5.52,12.1568,23.00488,22.61914a1.94034,1.94034,0,0,0,1.99121-.001L42.5,12.14484V31.001a.5.5,0,0,0,1,0V12.00391A1.5058,1.5058,0,0,0,41.99609,10.5ZM24.4834,21.75977a.95494.95494,0,0,1-.96582.001L6.369,11.5H41.631Z"/></g><g id="Sub_Icons" data-name="Sub Icons"><path class="cls-1" d="M36,30a5.98034,5.98034,0,0,0-4.23077,1.75024l-.01142.00757-.00757.01142a5.99665,5.99665,0,0,0,8.48053,8.48053l.01142-.00757.00757-.01142A5.99665,5.99665,0,0,0,36,30Zm5,6a4.95086,4.95086,0,0,1-1.14648,3.14648l-7-7A4.95086,4.95086,0,0,1,36,31,5.00588,5.00588,0,0,1,41,36ZM31,36a4.95086,4.95086,0,0,1,1.14648-3.14648l7,7A4.95086,4.95086,0,0,1,36,41,5.00588,5.00588,0,0,1,31,36Z"/></g></svg>