<svg xmlns="http://www.w3.org/2000/svg" viewBox="0 0 48 48"><defs><style>.cls-1{fill:#ff6c2c;}</style></defs><g id="Base_Icons" data-name="Base Icons"><path d="M22.75,28a.49874.49874,0,0,0,.4707-.332l2.5-7a.49977.49977,0,1,0-.9414-.33594l-2.5,7a.49921.49921,0,0,0,.30273.63867A.50509.50509,0,0,0,22.75,28Z"/><path d="M30.60352,27.85352l3.5-3.5a.49983.49983,0,0,0,0-.707l-3.5-3.5a.5.5,0,0,0-.707.707L33.043,24l-3.14649,3.14648a.5.5,0,1,0,.707.707Z"/><path d="M18.10352,20.14648a.49983.49983,0,0,0-.707,0l-3.5,3.5a.49983.49983,0,0,0,0,.707l3.5,3.5a.5.5,0,0,0,.707-.707L14.957,24l3.14649-3.14648A.49983.49983,0,0,0,18.10352,20.14648Z"/><path d="M41.49951,10H13.72217a.5.5,0,1,0,0,1H41.49951A.50107.50107,0,0,1,42,11.5v16a.5.5,0,0,0,1,0v-16A1.50206,1.50206,0,0,0,41.49951,10Z"/><path d="M26.49951,37H6.50049A.50107.50107,0,0,1,6,36.5V14.5498a.5.5,0,1,0-1,0V36.5A1.50206,1.50206,0,0,0,6.50049,38h19.999a.5.5,0,0,0,0-1Z"/><path d="M5.1499,10.84961a.36207.36207,0,0,0,.16016.11035A.40041.40041,0,0,0,5.5,11a.4664.4664,0,0,0,.34961-.15039A.35172.35172,0,0,0,5.96,10.68945.40679.40679,0,0,0,6,10.5a.4382.4382,0,0,0-.04-.19043.35694.35694,0,0,0-.11035-.16016A.4432.4432,0,0,0,5.68994,10.04a.49136.49136,0,0,0-.54.10937A.47136.47136,0,0,0,5,10.5a.40093.40093,0,0,0,.04.18945A.35074.35074,0,0,0,5.1499,10.84961Z"/><path d="M7.88965,10.84961A.36209.36209,0,0,0,8.0498,10.96a.47056.47056,0,0,0,.37989,0,.362.362,0,0,0,.16015-.11035.35445.35445,0,0,0,.10987-.16016.40093.40093,0,0,0,.04-.18945.455.455,0,0,0-.14991-.35059A.44939.44939,0,0,0,8.42969,10.04a.50157.50157,0,0,0-.37989,0,.44947.44947,0,0,0-.16015.10937.47317.47317,0,0,0-.1499.35059.40679.40679,0,0,0,.04.18945A.35435.35435,0,0,0,7.88965,10.84961Z"/><path d="M10.62988,10.84961A.49445.49445,0,0,0,10.98,11a.40294.40294,0,0,0,.18994-.04.35789.35789,0,0,0,.15967-.11035.35172.35172,0,0,0,.11035-.16016A.40679.40679,0,0,0,11.48,10.5a.4382.4382,0,0,0-.04-.19043.35694.35694,0,0,0-.11035-.16016.4432.4432,0,0,0-.15967-.10937.50154.50154,0,0,0-.37988,0,.44943.44943,0,0,0-.16016.10937.35592.35592,0,0,0-.10986.16016.43142.43142,0,0,0-.04.19043.40093.40093,0,0,0,.04.18945A.35074.35074,0,0,0,10.62988,10.84961Z"/><path d="M40.24817,37.648a5.2501,5.2501,0,0,0-.59827-6.2749L38.56055,30.2832a1.03858,1.03858,0,0,0-1.46143.04L35.484,31.93848l-1.066-1.06641a.49995.49995,0,1,0-.707.707l1.066,1.06641-2.13172,2.13183-1.06616-1.0664a.49995.49995,0,1,0-.707.707l1.06616,1.06641-1.615,1.61523A1.09516,1.09516,0,0,0,30,37.86816a.97465.97465,0,0,0,.28516.69532l1.08935,1.085a4.76444,4.76444,0,0,0,3.42432,1.374q.19555,0,.395-.01465a5.99876,5.99876,0,0,0,2.45721-.75708l1.60285,1.60279a.49995.49995,0,1,0,.707-.707l-1.45447-1.45459a6.64819,6.64819,0,0,0,.64392-.54248,6.5291,6.5291,0,0,0,.5398-.64526l1.45629,1.45679a.49995.49995,0,0,0,.707-.707Zm-1.80481.79443a5.25365,5.25365,0,0,1-3.31982,1.56836,3.83217,3.83217,0,0,1-3.04249-1.07031l-1.05078-1.13379,6.82325-6.81641,1.08837,1.08985h.00049C40.55859,33.69727,40.335,36.55078,38.44336,38.44238Z"/></g><g id="Sub_Icons" data-name="Sub Icons"><path class="cls-1" d="M40.24817,37.648a5.2501,5.2501,0,0,0-.59827-6.2749L38.56055,30.2832a1.03858,1.03858,0,0,0-1.46143.04L35.484,31.93848l-1.066-1.06641a.49995.49995,0,1,0-.707.707l1.066,1.06641-2.13172,2.13183-1.06616-1.0664a.49995.49995,0,1,0-.707.707l1.06616,1.06641-1.615,1.61523A1.09516,1.09516,0,0,0,30,37.86816a.97465.97465,0,0,0,.28516.69532l1.08935,1.085a4.76444,4.76444,0,0,0,3.42432,1.374q.19555,0,.395-.01465a5.99876,5.99876,0,0,0,2.45721-.75708l1.60285,1.60279a.49995.49995,0,1,0,.707-.707l-1.45447-1.45459a6.64819,6.64819,0,0,0,.64392-.54248,6.5291,6.5291,0,0,0,.5398-.64526l1.45629,1.45679a.49995.49995,0,0,0,.707-.707Zm-1.80481.79443a5.25365,5.25365,0,0,1-3.31982,1.56836,3.83217,3.83217,0,0,1-3.04249-1.07031l-1.05078-1.13379,6.82325-6.81641,1.08837,1.08985h.00049C40.55859,33.69727,40.335,36.55078,38.44336,38.44238Z"/></g></svg>