<svg xmlns="http://www.w3.org/2000/svg" viewBox="0 0 48 48"><defs><style>.cls-1{fill:#ff6c2c;}</style></defs><g id="Base_Icons" data-name="Base Icons"><path d="M41.95538,13.83276a.45952.45952,0,0,0-.22778-.37158,4.48218,4.48218,0,0,0-1.48053-1.39282L26.249,4.10059a4.52194,4.52194,0,0,0-4.49609-.001L7.751,12.06934a4.47649,4.47649,0,0,0-1.47864,1.3916.48783.48783,0,0,0-.16589.166.49307.49307,0,0,0-.06183.20557A4.45872,4.45872,0,0,0,5.5,15.94922V31.8877a4.49259,4.49259,0,0,0,2.25293,3.88085L21.751,43.73633a4.52356,4.52356,0,0,0,4.49609.001l3.42773-1.95117a.49989.49989,0,1,0-.49414-.86914L25.751,42.86914a3.505,3.505,0,0,1-1.251.42749V24.228l16.71948-9.63477a3.45467,3.45467,0,0,1,.28052,1.356V29.8877a.5.5,0,0,0,1,0V15.94922A4.45789,4.45789,0,0,0,41.95538,13.83276ZM8.249,34.90039A3.49006,3.49006,0,0,1,6.5,31.8877V15.94922a3.45574,3.45574,0,0,1,.28052-1.356L23.5,24.228V43.29712a3.4977,3.4977,0,0,1-1.25293-.429ZM24,23.36133,7.30542,13.74023a3.47014,3.47014,0,0,1,.94165-.80273L22.249,4.96777a3.52267,3.52267,0,0,1,3.50391.001L39.751,12.93652a3.48,3.48,0,0,1,.94342.804Z"/></g><g id="Sub_Icons" data-name="Sub Icons"><path class="cls-1" d="M38.5,35.5h-2v-2a.5.5,0,0,0-1,0v2h-2a.5.5,0,0,0,0,1h2v2a.5.5,0,0,0,1,0v-2h2a.5.5,0,0,0,0-1Z"/><path class="cls-1" d="M36,30a6,6,0,1,0,6,6A6.00657,6.00657,0,0,0,36,30Zm0,11a5,5,0,1,1,5-5A5.00588,5.00588,0,0,1,36,41Z"/></g></svg>