<svg xmlns="http://www.w3.org/2000/svg" viewBox="0 0 48 48"><defs><style>.cls-1{fill:#ff6c2c;}</style></defs><g id="Base_Icons" data-name="Base Icons"><path d="M44.27734,24.08105,37.701,19.68872l5.31463-5.61841a.501.501,0,0,0,.13086-.41894.4949.4949,0,0,0-.249-.36035L30.05762,6.06445a.49977.49977,0,0,0-.6084.0918L24.0285,11.88672,17.1084,7.26465a.49817.49817,0,0,0-.52344-.01953l-12.831,7.24023a.49988.49988,0,0,0-.03125.85156l6.62011,4.42286L5.0752,25.3291a.501.501,0,0,0-.13086.41895.49494.49494,0,0,0,.249.36035L10.69824,29.207v5.05078a.50041.50041,0,0,0,.25488.43555L23.7998,41.93555a.49835.49835,0,0,0,.49024,0l12.84668-7.24219a.50039.50039,0,0,0,.25488-.43555V28.80029l6.85449-3.86767a.49989.49989,0,0,0,.03125-.85157ZM24.006,26.335,12.24414,19.71289l11.81207-6.66382,11.76294,6.62036ZM29.90723,7.127l11.9414,6.72168-4.97949,5.26465L24.92773,12.3916ZM4.9541,14.957,16.80859,8.26758l6.26758,4.18554L11.21973,19.14258Zm6.74414,14.81275,6.334,3.56518a.49963.49963,0,0,0,.60839-.0918l4.9043-5.18457V40.644L11.69824,33.96582Zm24.69336,4.196L24.54492,40.644V27.915l6.34668,4.23828a.50094.50094,0,0,0,.52344.01953l4.97656-2.8081Zm-5.20019-2.81543-6.26758-4.18457L36.7793,20.27637l6.2666,4.18457Z"/></g><g id="Sub_Icons" data-name="Sub Icons"><polygon class="cls-1" points="11.222 20.285 23.162 27.008 18.183 32.272 6.242 25.551 11.222 20.285"/></g></svg>