<svg xmlns="http://www.w3.org/2000/svg" viewBox="0 0 48 48"><defs><style>.cls-1{fill:#ff6c2c;}</style></defs><g id="Base_Icons" data-name="Base Icons"><path d="M28.52148,43h-11.043a1.49441,1.49441,0,0,1-1.06348-.44043L5.44043,31.585A1.49441,1.49441,0,0,1,5,30.52148v-13.043A1.49441,1.49441,0,0,1,5.44043,16.415L16.415,5.44043A1.49441,1.49441,0,0,1,17.47852,5h13.043a1.49441,1.49441,0,0,1,1.06348.44043L42.55957,16.415A1.49441,1.49441,0,0,1,43,17.47852v11.043a.5.5,0,0,1-1,0v-11.043a.50158.50158,0,0,0-.14746-.35645L30.87793,6.14746A.50158.50158,0,0,0,30.52148,6h-13.043a.50158.50158,0,0,0-.35645.14746L6.14746,17.12207A.50158.50158,0,0,0,6,17.47852v13.043a.50158.50158,0,0,0,.14746.35645L17.12207,41.85254A.50158.50158,0,0,0,17.47852,42h11.043a.5.5,0,0,1,0,1Z"/><path d="M24,28a.5.5,0,0,1-.49707-.44434L22.01172,14.31055a2.14524,2.14524,0,0,1,.53516-1.65723,1.98793,1.98793,0,0,1,2.90624,0,2.13928,2.13928,0,0,1,.53516,1.65137l-1.49121,13.251A.5.5,0,0,1,24,28Zm0-15a.95486.95486,0,0,0-.71191.32422,1.14464,1.14464,0,0,0-.28223.88086L24,23.03125l.99414-8.832a1.13864,1.13864,0,0,0-.28223-.875A.95486.95486,0,0,0,24,13Z"/><path d="M24,36a2.5,2.5,0,1,1,2.5-2.5A2.50231,2.50231,0,0,1,24,36Zm0-4a1.5,1.5,0,1,0,1.5,1.5A1.50164,1.50164,0,0,0,24,32Z"/></g><g id="Sub_Icons" data-name="Sub Icons"><path class="cls-1" d="M36.92969,42H35.07031a1.08567,1.08567,0,0,1-1.0957-1.07324A7.45965,7.45965,0,0,1,32.667,40.165c-.02734.01562-.14941.03027-.17969.041a1.08452,1.08452,0,0,1-1.40625-.4248l-.92968-1.54687a1.0447,1.0447,0,0,1-.11524-.81739,1.06586,1.06586,0,0,1,.52051-.66113c.00195-.27441-.01562-.5127-.01562-.75586a5.09248,5.09248,0,0,1,.05078-.71582,1.184,1.184,0,0,1-.55567-.70117,1.0447,1.0447,0,0,1,.11524-.81739l.92871-1.54589a1.11444,1.11444,0,0,1,1.48828-.38868,9.82442,9.82442,0,0,1,1.375-.708A1.14287,1.14287,0,0,1,35.07031,30h1.85938a1.08567,1.08567,0,0,1,1.0957,1.07324A7.45965,7.45965,0,0,1,39.333,31.835c.02734-.01562.14941-.03027.17969-.041a1.08551,1.08551,0,0,1,1.40625.4248l.92968,1.54687a1.04234,1.04234,0,0,1,.11524.81641,1.06623,1.06623,0,0,1-.51953.66211c-.00293.27441.01464.5127.01464.75586a5.09248,5.09248,0,0,1-.05078.71582l-.207.47754.24219-.4375a1.06586,1.06586,0,0,1,.52051.66113,1.0447,1.0447,0,0,1-.11524.81739l-.92871,1.54589a1.11367,1.11367,0,0,1-1.48633.39063h0L39.333,40.165h0a5.50691,5.50691,0,0,1-1.27637.71191A1.14287,1.14287,0,0,1,36.92969,42ZM32.626,39.15332a1.06959,1.06959,0,0,1,.64062.21094,4.52182,4.52182,0,0,0,1.044.583,1.047,1.047,0,0,1,.66406.97851A.08846.08846,0,0,0,35.07031,41h1.85938a.08744.08744,0,0,0,.0957-.07324,1.0489,1.0489,0,0,1,.66309-.97949,4.50867,4.50867,0,0,0,1.04492-.583,1.08729,1.08729,0,0,1,1.18066-.07031.1119.1119,0,0,0,.14843-.02833l.92872-1.54687-.03418-.08887a1.04216,1.04216,0,0,1-.53906-1.05761,4.02012,4.02012,0,0,0,0-1.14551,1.04154,1.04154,0,0,1,.53906-1.05664l-.89551-1.63672a.10882.10882,0,0,0-.14257-.0293,1.09122,1.09122,0,0,1-1.18555-.06836,4.52223,4.52223,0,0,0-1.044-.583,1.047,1.047,0,0,1-.66406-.97851A.08846.08846,0,0,0,36.92969,31H35.07031a.08744.08744,0,0,0-.0957.07324,1.0489,1.0489,0,0,1-.66309.97949,4.50826,4.50826,0,0,0-1.04492.583,1.0916,1.0916,0,0,1-1.18066.07031.11762.11762,0,0,0-.14845.02833l-.9287,1.54687a1.21383,1.21383,0,0,1,.57324,1.14648,4.02012,4.02012,0,0,0,0,1.14551,1.04154,1.04154,0,0,1-.53906,1.05664l.89551,1.63672a.10874.10874,0,0,0,.14257.0293A1.11619,1.11619,0,0,1,32.626,39.15332Z"/><path class="cls-1" d="M35.99512,38.499A2.49951,2.49951,0,1,1,38.166,37.25h-.001A2.50151,2.50151,0,0,1,35.99512,38.499Zm.00781-3.999a1.49962,1.49962,0,1,0,.74707.2002A1.50364,1.50364,0,0,0,36.00293,34.5ZM37.73242,37h0Z"/></g></svg>