<svg xmlns="http://www.w3.org/2000/svg" viewBox="0 0 48 48"><defs><style>.cls-1{fill:#ff6c2c;}</style></defs><g id="Base_Icons" data-name="Base Icons"><path d="M42,8.50293A1.50414,1.50414,0,0,0,40.49707,7H7.502A1.50373,1.50373,0,0,0,6,8.502V22.49707a1.49064,1.49064,0,0,0,.38959,1.00049A1.48448,1.48448,0,0,0,6,24.49512V38.50293A1.49915,1.49915,0,0,0,7.49707,40H27a.5.5,0,0,0,0-1H7.49707A.49722.49722,0,0,1,7,38.50293v-13.998A.50554.50554,0,0,1,7.50488,24H40.49512A.50554.50554,0,0,1,41,24.50488V27a.5.5,0,0,0,1,0V24.50488l-.00067-.00659L42,24.49512a1.48416,1.48416,0,0,0-.39-.998,1.49189,1.49189,0,0,0,.39-1.001ZM7.50488,23H7.50293A.50347.50347,0,0,1,7,22.49707V8.502A.50305.50305,0,0,1,7.502,8H40.49707A.50347.50347,0,0,1,41,8.50293V22.49609A.50389.50389,0,0,1,40.49609,23H7.50488Z"/><path d="M10.5,12.5a.49971.49971,0,0,0-.5.5v5a.5.5,0,0,0,1,0V13A.49971.49971,0,0,0,10.5,12.5Z"/><path d="M10,29v5a.5.5,0,0,0,1,0V29a.5.5,0,0,0-1,0Z"/><path d="M14,29v5a.5.5,0,0,0,1,0V29a.5.5,0,0,0-1,0Z"/></g><g id="Sub_Icons" data-name="Sub Icons"><circle class="cls-1" cx="34" cy="33.5" r="0.5"/><circle class="cls-1" cx="38" cy="33.5" r="0.5"/><path class="cls-1" d="M39.834,30H38.167a.5.5,0,0,0,0,1h1.667A1.16781,1.16781,0,0,1,41,32.166v3.335a1.16781,1.16781,0,0,1-1.166,1.166.5.5,0,0,0,0,1A2.16848,2.16848,0,0,0,42,35.501V32.166A2.16848,2.16848,0,0,0,39.834,30Z"/><path class="cls-1" d="M32.166,36.667A1.16781,1.16781,0,0,1,31,35.501V32.166A1.16781,1.16781,0,0,1,32.166,31h1.667a.5.5,0,0,0,0-1H32.166A2.16848,2.16848,0,0,0,30,32.166v3.335a2.16848,2.16848,0,0,0,2.166,2.166.5.5,0,0,0,0-1Z"/><path class="cls-1" d="M39.333,41H37.6709A1.17239,1.17239,0,0,1,36.5,39.8291V35.833a.5.5,0,0,0-1,0V39.8291A2.17306,2.17306,0,0,0,37.6709,42H39.333a.5.5,0,0,0,0-1Z"/></g></svg>