<svg xmlns="http://www.w3.org/2000/svg" viewBox="0 0 48 48"><defs><style>.cls-1{fill:#ff6c2c;}</style></defs><g id="Base_Icons" data-name="Base Icons"><path d="M42,8.50293A1.50414,1.50414,0,0,0,40.49707,7H7.502A1.50373,1.50373,0,0,0,6,8.502V22.49707a1.49064,1.49064,0,0,0,.38959,1.00049A1.48448,1.48448,0,0,0,6,24.49512V38.50293A1.49915,1.49915,0,0,0,7.49707,40H27a.5.5,0,0,0,0-1H7.49707A.49722.49722,0,0,1,7,38.50293v-13.998A.50554.50554,0,0,1,7.50488,24H40.49512A.50554.50554,0,0,1,41,24.50488V28a.5.5,0,0,0,1,0V24.50488l-.00067-.00659L42,24.49512a1.48416,1.48416,0,0,0-.39-.998,1.49189,1.49189,0,0,0,.39-1.001ZM7.50488,23H7.50293A.50347.50347,0,0,1,7,22.49707V8.502A.50305.50305,0,0,1,7.502,8H40.49707A.50347.50347,0,0,1,41,8.50293V22.49609A.50389.50389,0,0,1,40.49609,23H7.50488Z"/><path d="M10.5,12.5a.49971.49971,0,0,0-.5.5v5a.5.5,0,0,0,1,0V13A.49971.49971,0,0,0,10.5,12.5Z"/><path d="M10,29v5a.5.5,0,0,0,1,0V29a.5.5,0,0,0-1,0Z"/><path d="M14,29v5a.5.5,0,0,0,1,0V29a.5.5,0,0,0-1,0Z"/></g><g id="Sub_Icons" data-name="Sub Icons"><path class="cls-1" d="M36,30c-3.4209,0-6,1.22852-6,2.85742s2.5791,2.85645,6,2.85645a8.9565,8.9565,0,0,0,5-1.23462v4.66333C41,40.01953,38.86133,41,36,41s-5-.98047-5-1.85742V37.57324a.5.5,0,0,0-1,0v1.56934C30,40.77148,32.5791,42,36,42s6-1.22852,6-2.85742V32.85742C42,31.22852,39.4209,30,36,30Zm0,4.71387c-2.86133,0-5-.98047-5-1.85645C31,31.98047,33.13867,31,36,31s5,.98047,5,1.85742C41,33.7334,38.86133,34.71387,36,34.71387Z"/><path class="cls-1" d="M38.877,38.35742a.49971.49971,0,0,0-.5-.5h-.00976a.49557.49557,0,0,0-.49512.5.50245.50245,0,0,0,1.00488,0Z"/></g></svg>