<svg xmlns="http://www.w3.org/2000/svg" viewBox="0 0 48 48"><defs><style>.cls-1{fill:#ff6c2c;}</style></defs><g id="Base_Icons" data-name="Base Icons"><path d="M10.5,18.5A.49971.49971,0,0,0,11,18V13a.5.5,0,0,0-1,0v5A.49971.49971,0,0,0,10.5,18.5Z"/><path d="M18,39H7.49707A.49722.49722,0,0,1,7,38.50293v-13.998A.50554.50554,0,0,1,7.50488,24H40.49512A.50554.50554,0,0,1,41,24.50488V30a.5.5,0,0,0,1,0V24.50488l-.00067-.00659L42,24.49512a1.48416,1.48416,0,0,0-.39-.998,1.49189,1.49189,0,0,0,.39-1.001V8.50293A1.50414,1.50414,0,0,0,40.49707,7H7.502A1.50373,1.50373,0,0,0,6,8.502V22.49707a1.49064,1.49064,0,0,0,.38959,1.00049A1.48448,1.48448,0,0,0,6,24.49512V38.50293A1.49915,1.49915,0,0,0,7.49707,40H18a.5.5,0,0,0,0-1ZM7,8.502A.50305.50305,0,0,1,7.502,8H40.49707A.50347.50347,0,0,1,41,8.50293V22.49609A.50389.50389,0,0,1,40.49609,23H7.50293A.50347.50347,0,0,1,7,22.49707Z"/><path d="M10,29v5a.5.5,0,0,0,1,0V29a.5.5,0,0,0-1,0Z"/></g><g id="Sub_Icons" data-name="Sub Icons"><path class="cls-1" d="M42,34a.49971.49971,0,0,0-.5.5v3H37.794v-3a.5.5,0,0,0-1,0v7a.5.5,0,0,0,1,0v-3H41.5v3a.5.5,0,0,0,1,0v-7A.49971.49971,0,0,0,42,34Z"/><path class="cls-1" d="M32.58789,37.5H31.41211a1.25008,1.25008,0,1,1,0-2.5h1.76465a.5.5,0,0,0,0-1H31.41211a2.25,2.25,0,1,0,0,4.5h1.17578a1.25008,1.25008,0,1,1,0,2.5H29.64746a.5.5,0,1,0,0,1h2.94043a2.25,2.25,0,1,0,0-4.5Z"/><path class="cls-1" d="M24.94141,37.5H23.76465a1.25008,1.25008,0,1,1,0-2.5H25.5293a.5.5,0,0,0,0-1H23.76465a2.25,2.25,0,1,0,0,4.5h1.17676a1.25008,1.25008,0,1,1,0,2.5H22a.5.5,0,0,0,0,1h2.94141a2.25,2.25,0,1,0,0-4.5Z"/></g></svg>