<svg xmlns="http://www.w3.org/2000/svg" viewBox="0 0 48 48"><defs><style>.cls-1{fill:#ff6c2c;}</style></defs><g id="Base_Icons" data-name="Base Icons"><path d="M14.5,22.5v1h-1a.5.5,0,0,0,0,1h.56573l-.48175.72266a.5.5,0,1,0,.832.55468l.584-.876.584.876a.5.5,0,0,0,.832-.55468L15.93427,24.5H16.5a.5.5,0,0,0,0-1h-1v-1a.5.5,0,0,0-1,0Z"/><path d="M22.5,23.5h-1v-1a.5.5,0,0,0-1,0v1h-1a.5.5,0,0,0,0,1h.56573l-.48175.72266a.5.5,0,1,0,.832.55468l.584-.876.584.876a.5.5,0,0,0,.832-.55468L21.93427,24.5H22.5a.5.5,0,0,0,0-1Z"/><path d="M27,22a.49971.49971,0,0,0-.5.5v1h-1a.5.5,0,0,0,0,1h.56573l-.48175.72266a.5.5,0,1,0,.832.55468l.584-.876.584.876a.5.5,0,0,0,.832-.55468L27.93427,24.5H28.5a.5.5,0,0,0,0-1h-1v-1A.49971.49971,0,0,0,27,22Z"/><path d="M34.5,26a.5.5,0,0,0,0-1h-3a.5.5,0,0,0,0,1Z"/><path d="M41.5,10H18.72266a.5.5,0,0,0,0,1H41.5a.501.501,0,0,1,.5.5v17a.5.5,0,0,0,1,0v-17A1.50164,1.50164,0,0,0,41.5,10Z"/><path d="M21.68555,37H6.5a.501.501,0,0,1-.5-.5V16.5498a.5.5,0,0,0-1,0V36.5A1.50164,1.50164,0,0,0,6.5,38H21.68555a.5.5,0,0,0,0-1Z"/></g><g id="Sub_Icons" data-name="Sub Icons"><path class="cls-1" d="M42.5,32a.49971.49971,0,0,0-.5.5V35H39V32.5a.5.5,0,0,0-1,0v6a.5.5,0,0,0,1,0V36h3v2.5a.5.5,0,0,0,1,0v-6A.49971.49971,0,0,0,42.5,32Z"/><path class="cls-1" d="M34.5,35h-1a1,1,0,0,1,0-2H35a.5.5,0,0,0,0-1H33.5a2,2,0,0,0,0,4h1a1,1,0,0,1,0,2H32a.5.5,0,0,0,0,1h2.5a2,2,0,0,0,0-4Z"/><path class="cls-1" d="M28,35H27a1,1,0,0,1,0-2h1.5a.5.5,0,0,0,0-1H27a2,2,0,0,0,0,4h1a1,1,0,0,1,0,2H25.5a.5.5,0,0,0,0,1H28a2,2,0,0,0,0-4Z"/><path class="cls-1" d="M8.33887,13.60645a3.9641,3.9641,0,0,0,2.95312.13183l1.10938,1.11426A.49874.49874,0,0,0,12.75586,15h.00586a.49953.49953,0,0,0,.32812-.874l-1.32226-1.32715a.49882.49882,0,0,0-.56153-.10254,2.98133,2.98133,0,0,1-4.165-3.209l1.60546,1.6045a1.08177,1.08177,0,0,0,1.5127-.00489l.93262-.93261a1.07909,1.07909,0,0,0-.0127-1.51856L9.48535,7.043A2.97491,2.97491,0,0,1,12.69629,11.207a.50062.50062,0,0,0,.10156.56055l1.34863,1.34863a.49995.49995,0,1,0,.707-.707L13.73828,11.294a3.97794,3.97794,0,0,0-5.39746-4.9375.49923.49923,0,0,0-.14746.80859L10.374,9.34473a.07811.07811,0,0,1,.00489.10839l-.92676.92676a.07657.07657,0,0,1-.10352,0L7.16309,8.19531a.5.5,0,0,0-.80957.14746,3.98112,3.98112,0,0,0,1.98535,5.26368Z"/></g></svg>