<svg xmlns="http://www.w3.org/2000/svg" viewBox="0 0 48 48"><defs><style>.cls-1{fill:#ff6c2c;}</style></defs><g id="Base_Icons" data-name="Base Icons"><path d="M28.5,41H7.5a.501.501,0,0,1-.5-.5V33H27a.5.5,0,0,0,0-1H7.10547l1.55847-8.11328h22.839a.5.5,0,0,0,0-1H8.85608L10.371,15H30a.5.5,0,0,0,0-1H10.56317l.95538-4.97363A1.49761,1.49761,0,0,1,12.94238,8H35.05762a1.4897,1.4897,0,0,1,1.40722.96289l3.86524,20.10352a.5.5,0,0,0,.49023.40527.53691.53691,0,0,0,.09571-.00879.50137.50137,0,0,0,.39647-.58594L37.43066,8.71A2.49864,2.49864,0,0,0,35.05762,7H12.94238a2.51147,2.51147,0,0,0-2.38965,1.77344L6.00879,32.40527a.48546.48546,0,0,0,.00152.14331c-.00158.01783-.01031.033-.01031.051V40.5A1.50164,1.50164,0,0,0,7.5,42h21a.5.5,0,0,0,0-1Z"/></g><g id="Sub_Icons" data-name="Sub Icons"><path class="cls-1" d="M41.44336,36.75586l-.24219.4375.207-.47754A5.09248,5.09248,0,0,0,41.459,36c0-.24316-.01757-.48145-.01464-.75586a1.06623,1.06623,0,0,0,.51953-.66211,1.04234,1.04234,0,0,0-.11524-.81641L40.919,32.21875a1.08524,1.08524,0,0,0-1.40625-.4248c-.03028.01074-.15235.02539-.17969.041a7.45965,7.45965,0,0,0-1.30762-.76172A1.08567,1.08567,0,0,0,36.92969,30H35.07031a1.14287,1.14287,0,0,0-1.127,1.123,9.82442,9.82442,0,0,0-1.375.708,1.11376,1.11376,0,0,0-1.48828.38868l-.92871,1.54589a1.0447,1.0447,0,0,0-.11524.81739,1.184,1.184,0,0,0,.55567.70117A5.09248,5.09248,0,0,0,30.541,36c0,.24316.01757.48145.01562.75586a1.06586,1.06586,0,0,0-.52051.66113,1.0447,1.0447,0,0,0,.11524.81739l.92968,1.54687a1.08327,1.08327,0,0,0,1.40625.4248c.03028-.01074.15235-.02539.17969-.041a7.45965,7.45965,0,0,0,1.30762.76172A1.08567,1.08567,0,0,0,35.07031,42h1.85938a1.14287,1.14287,0,0,0,1.127-1.123A5.50691,5.50691,0,0,0,39.333,40.165l.10058.00586a1.11318,1.11318,0,0,0,1.48633-.39063l.92871-1.54589a1.0447,1.0447,0,0,0,.11524-.81739A1.06586,1.06586,0,0,0,41.44336,36.75586Zm-1.38087,2.50976a.11019.11019,0,0,1-.14843.02833,1.08538,1.08538,0,0,0-1.18066.07031,4.50867,4.50867,0,0,1-1.04492.583,1.0489,1.0489,0,0,0-.66309.97949A.08744.08744,0,0,1,36.92969,41H35.07031a.08846.08846,0,0,1-.0957-.07422,1.047,1.047,0,0,0-.66406-.97851,4.52182,4.52182,0,0,1-1.044-.583,1.06959,1.06959,0,0,0-.64062-.21094,1.11619,1.11619,0,0,0-.54493.14258.11009.11009,0,0,1-.14257-.0293L31.043,37.62988a1.04154,1.04154,0,0,0,.53906-1.05664,4.02012,4.02012,0,0,1,0-1.14551,1.21383,1.21383,0,0,0-.57324-1.14648l.9287-1.54687a.1185.1185,0,0,1,.14845-.02833,1.08957,1.08957,0,0,0,1.18066-.07031,4.50826,4.50826,0,0,1,1.04492-.583,1.0489,1.0489,0,0,0,.66309-.97949A.08744.08744,0,0,1,35.07031,31h1.85938a.08846.08846,0,0,1,.0957.07422,1.047,1.047,0,0,0,.66406.97851,4.52223,4.52223,0,0,1,1.044.583,1.09134,1.09134,0,0,0,1.18555.06836.10755.10755,0,0,1,.14257.0293l.89551,1.63672a1.04154,1.04154,0,0,0-.53906,1.05664,4.02012,4.02012,0,0,1,0,1.14551,1.04216,1.04216,0,0,0,.53906,1.05761l.03418.08887Z"/><path class="cls-1" d="M37.25,33.834a2.49982,2.49982,0,1,0,.915,3.416h.001A2.50612,2.50612,0,0,0,37.25,33.834Zm.0498,2.916a1.49962,1.49962,0,1,1-.5498-2.0498A1.50451,1.50451,0,0,1,37.2998,36.75Z"/></g></svg>