<svg xmlns="http://www.w3.org/2000/svg" viewBox="0 0 48 48"><defs><style>.cls-1{fill:#ff6c2c;}</style></defs><g id="Base_Icons" data-name="Base Icons"><path d="M42.68457,27.793a1.4483,1.4483,0,0,1-.77148-1.43555,16.53241,16.53241,0,0,0,0-4.71484,1.4483,1.4483,0,0,1,.77148-1.43555A2.524,2.524,0,0,0,43.916,18.64551a2.44671,2.44671,0,0,0-.27149-1.91113L40.34961,11.248a2.67171,2.67171,0,0,0-3.5752-.91309,1.60971,1.60971,0,0,1-1.7207-.084A18.18631,18.18631,0,0,0,30.82227,7.8916a1.46565,1.46565,0,0,1-.91211-1.3584A2.57789,2.57789,0,0,0,27.2959,4H20.7041a2.57807,2.57807,0,0,0-2.61426,2.53418,1.46431,1.46431,0,0,1-.91211,1.35742A18.18631,18.18631,0,0,0,12.94629,10.251a1.61472,1.61472,0,0,1-1.73145.07714,2.67542,2.67542,0,0,0-3.56836.92676l-3.291,5.4795A2.44671,2.44671,0,0,0,4.084,18.64551,2.524,2.524,0,0,0,5.31543,20.207a1.4483,1.4483,0,0,1,.77148,1.43555,16.53241,16.53241,0,0,0,0,4.71484A1.4483,1.4483,0,0,1,5.31543,27.793,2.51879,2.51879,0,0,0,4.085,29.35254a2.45165,2.45165,0,0,0,.27051,1.91308L7.65039,36.752a2.6724,2.6724,0,0,0,3.5752.91309,1.60573,1.60573,0,0,1,1.7207.084,18.18631,18.18631,0,0,0,4.23144,2.35938,1.46565,1.46565,0,0,1,.91211,1.3584A2.57789,2.57789,0,0,0,20.7041,44h6.5918a2.57807,2.57807,0,0,0,2.61426-2.53418,1.46431,1.46431,0,0,1,.91211-1.35742.49979.49979,0,1,0-.36719-.92969,2.44033,2.44033,0,0,0-1.54492,2.28809A1.57718,1.57718,0,0,1,27.2959,43H20.7041a1.578,1.578,0,0,1-1.61426-1.53418,2.44,2.44,0,0,0-1.54492-2.28711,17.236,17.236,0,0,1-3.999-2.23047,2.6,2.6,0,0,0-2.82227-.14746,1.65838,1.65838,0,0,1-2.21582-.56445L5.21289,30.75a1.45646,1.45646,0,0,1-.16211-1.1377,1.52686,1.52686,0,0,1,.749-.94433,2.45252,2.45252,0,0,0,1.27735-2.45313,15.4883,15.4883,0,0,1,0-4.42968A2.45252,2.45252,0,0,0,5.7998,19.332a1.53022,1.53022,0,0,1-.75-.94531A1.45449,1.45449,0,0,1,5.21289,17.25l3.291-5.48047a1.669,1.669,0,0,1,2.2373-.55957,2.59241,2.59241,0,0,0,2.80469-.1582,17.236,17.236,0,0,1,3.999-2.23047A2.44033,2.44033,0,0,0,19.08984,6.5332,1.57718,1.57718,0,0,1,20.7041,5h6.5918a1.578,1.578,0,0,1,1.61426,1.53418,2.44,2.44,0,0,0,1.54492,2.28711,17.236,17.236,0,0,1,3.999,2.23047,2.59807,2.59807,0,0,0,2.82227.14746,1.6577,1.6577,0,0,1,2.21582.56445L42.78711,17.25a1.45449,1.45449,0,0,1,.16309,1.13672,1.53022,1.53022,0,0,1-.75.94531,2.45252,2.45252,0,0,0-1.27735,2.45313,15.4883,15.4883,0,0,1,0,4.42968A2.45252,2.45252,0,0,0,42.2002,28.668a1.52686,1.52686,0,0,1,.749.94433,1.45646,1.45646,0,0,1-.16211,1.1377l-.53906.89746a.50026.50026,0,0,0,.85742.51563l.53906-.89747a2.45165,2.45165,0,0,0,.27051-1.91308A2.51879,2.51879,0,0,0,42.68457,27.793Z"/><path d="M23.999,13.5A10.5,10.5,0,1,0,34.5,24.001,10.51106,10.51106,0,0,0,23.999,13.5Zm.002,20A9.5,9.5,0,1,1,33.5,24.001,9.51122,9.51122,0,0,1,24.001,33.5Z"/></g><g id="Sub_Icons" data-name="Sub Icons"><path class="cls-1" d="M37,30a3.49476,3.49476,0,0,0-2.49829,5.94385l-.9939,5.46631a.50026.50026,0,0,0,.76953.50586L37,40.10059,39.72266,41.916a.50026.50026,0,0,0,.76953-.50586l-.9939-5.46631A3.49476,3.49476,0,0,0,37,30Zm0,1a2.5,2.5,0,1,1-2.5,2.5A2.50231,2.50231,0,0,1,37,31Zm.27734,8.084a.50238.50238,0,0,0-.55468,0l-2.02051,1.34668.69812-3.83593a3.36,3.36,0,0,0,3.19946,0l.69812,3.83593Z"/></g></svg>