<svg xmlns="http://www.w3.org/2000/svg" viewBox="0 0 48 48"><defs><style>.cls-1{fill:#ff6c2c;}</style></defs><g id="Base_Icons" data-name="Base Icons"><path d="M8.5,40a.49971.49971,0,0,1-.5-.5v-12a.5.5,0,0,1,1,0v12A.49971.49971,0,0,1,8.5,40Z"/><path d="M12.5,40a.49971.49971,0,0,1-.5-.5v-22a.5.5,0,0,1,1,0v22A.49971.49971,0,0,1,12.5,40Z"/><path d="M16.5,40a.49971.49971,0,0,1-.5-.5v-19a.5.5,0,0,1,1,0v19A.49971.49971,0,0,1,16.5,40Z"/><path d="M20.5,40a.49971.49971,0,0,1-.5-.5V8.5a.5.5,0,0,1,1,0v31A.49971.49971,0,0,1,20.5,40Z"/><path d="M32.5,28a.49971.49971,0,0,1-.5-.5v-12a.5.5,0,0,1,1,0v12A.49971.49971,0,0,1,32.5,28Z"/><path d="M24.5,40a.49971.49971,0,0,1-.5-.5v-14a.5.5,0,0,1,1,0v14A.49971.49971,0,0,1,24.5,40Z"/><path d="M28.5,28a.49971.49971,0,0,1-.5-.5v-9a.5.5,0,0,1,1,0v9A.49971.49971,0,0,1,28.5,28Z"/><path d="M36.5,28a.49971.49971,0,0,1-.5-.5v-1a.5.5,0,0,1,1,0v1A.49971.49971,0,0,1,36.5,28Z"/><path d="M40.5,28a.49971.49971,0,0,1-.5-.5v-5a.5.5,0,0,1,1,0v5A.49971.49971,0,0,1,40.5,28Z"/></g><g id="Sub_Icons" data-name="Sub Icons"><path class="cls-1" d="M36.92969,42H35.07031a1.08567,1.08567,0,0,1-1.0957-1.07324A7.45965,7.45965,0,0,1,32.667,40.165c-.02734.01562-.14941.03027-.17969.041a1.08354,1.08354,0,0,1-1.40625-.4248l-.92968-1.54687a1.0447,1.0447,0,0,1-.11524-.81739,1.06586,1.06586,0,0,1,.52051-.66113c.00195-.27441-.01562-.5127-.01562-.75586a5.09248,5.09248,0,0,1,.05078-.71582,1.184,1.184,0,0,1-.55567-.70117,1.0447,1.0447,0,0,1,.11524-.81739l.92871-1.54589a1.11376,1.11376,0,0,1,1.48828-.38868,9.82442,9.82442,0,0,1,1.375-.708A1.14287,1.14287,0,0,1,35.07031,30h1.85938a1.08567,1.08567,0,0,1,1.0957,1.07324A7.45965,7.45965,0,0,1,39.333,31.835c.02734-.01562.14941-.03027.17969-.041a1.08407,1.08407,0,0,1,1.40625.4248l.92968,1.54687a1.04234,1.04234,0,0,1,.11524.81641,1.06623,1.06623,0,0,1-.51953.66211c-.00293.27441.01464.5127.01464.75586a5.09248,5.09248,0,0,1-.05078.71582l-.207.47754.24219-.4375a1.06586,1.06586,0,0,1,.52051.66113,1.0447,1.0447,0,0,1-.11524.81739l-.92871,1.54589a1.11342,1.11342,0,0,1-1.48633.39063h0L39.333,40.165h0a5.50691,5.50691,0,0,1-1.27637.71191A1.14287,1.14287,0,0,1,36.92969,42ZM32.626,39.15332a1.06959,1.06959,0,0,1,.64062.21094,4.52182,4.52182,0,0,0,1.044.583,1.047,1.047,0,0,1,.66406.97851A.08846.08846,0,0,0,35.07031,41h1.85938a.08744.08744,0,0,0,.0957-.07324,1.0489,1.0489,0,0,1,.66309-.97949,4.50867,4.50867,0,0,0,1.04492-.583,1.08729,1.08729,0,0,1,1.18066-.07031.11115.11115,0,0,0,.14843-.02833l.92872-1.54687-.03418-.08887a1.04216,1.04216,0,0,1-.53906-1.05761,4.02012,4.02012,0,0,0,0-1.14551,1.04154,1.04154,0,0,1,.53906-1.05664l-.89551-1.63672a.10755.10755,0,0,0-.14257-.0293,1.09146,1.09146,0,0,1-1.18555-.06836,4.52223,4.52223,0,0,0-1.044-.583,1.047,1.047,0,0,1-.66406-.97851A.08846.08846,0,0,0,36.92969,31H35.07031a.08744.08744,0,0,0-.0957.07324,1.0489,1.0489,0,0,1-.66309.97949,4.50826,4.50826,0,0,0-1.04492.583,1.08955,1.08955,0,0,1-1.18066.07031.11731.11731,0,0,0-.14845.02833l-.9287,1.54687a1.21383,1.21383,0,0,1,.57324,1.14648,4.02012,4.02012,0,0,0,0,1.14551,1.04154,1.04154,0,0,1-.53906,1.05664l.89551,1.63672a.11009.11009,0,0,0,.14257.0293A1.11619,1.11619,0,0,1,32.626,39.15332Z"/><path class="cls-1" d="M35.99512,38.499A2.49951,2.49951,0,1,1,38.166,37.25h-.001A2.50151,2.50151,0,0,1,35.99512,38.499Zm.00781-3.999a1.49962,1.49962,0,1,0,.74707.2002A1.50364,1.50364,0,0,0,36.00293,34.5ZM37.73242,37h0Z"/></g></svg>