<svg xmlns="http://www.w3.org/2000/svg" viewBox="0 0 48 48"><defs><style>.cls-1{fill:#ff6c2c;}</style></defs><g id="Base_Icons" data-name="Base Icons"><path d="M41.666,22h-.23615A17.70851,17.70851,0,0,0,24,5,17.70851,17.70851,0,0,0,6.57013,22H6.334A2.33644,2.33644,0,0,0,4,24.334v8.23243a2.33644,2.33644,0,0,0,2.334,2.334H6.5769C6.90735,37.75452,10.03,40,13.82617,40H20.6084a.5.5,0,1,0,0-1H13.82617c-3.233,0-5.90173-1.798-6.24341-4.09961h.17017a2.33643,2.33643,0,0,0,2.334-2.334V24.334A2.33644,2.33644,0,0,0,7.75293,22H7.57007A16.69518,16.69518,0,0,1,24,6,16.69518,16.69518,0,0,1,40.42993,22h-.18286a2.33644,2.33644,0,0,0-2.334,2.334v3.23243a.5.5,0,1,0,1,0V24.334A1.33576,1.33576,0,0,1,40.24707,23h1.419A1.33576,1.33576,0,0,1,43,24.334v7.23243a.5.5,0,1,0,1,0V24.334A2.33644,2.33644,0,0,0,41.666,22ZM9.08691,24.334v8.23243a1.33576,1.33576,0,0,1-1.334,1.334H6.334A1.33576,1.33576,0,0,1,5,32.56641V24.334A1.33576,1.33576,0,0,1,6.334,23H7.75293A1.33576,1.33576,0,0,1,9.08691,24.334Z"/></g><g id="Sub_Icons" data-name="Sub Icons"><path class="cls-1" d="M36,30a5.98034,5.98034,0,0,0-4.23077,1.75024l-.01142.00757-.00757.01142a5.99686,5.99686,0,0,0,8.48719,8.47448l.00378-.0025.0025-.00378A5.99707,5.99707,0,0,0,36,30Zm3.85352,9.14648L38.79333,38.0863a3.433,3.433,0,0,0,0-4.1726l1.06019-1.06018a4.891,4.891,0,0,1,0,6.293ZM33.5,36A2.5,2.5,0,1,1,36,38.5,2.50231,2.50231,0,0,1,33.5,36Zm5.64648-3.85352L38.0863,33.20667a3.433,3.433,0,0,0-4.1726,0l-1.06018-1.06019a4.891,4.891,0,0,1,6.293,0ZM31,36a4.95086,4.95086,0,0,1,1.14648-3.14648l1.06019,1.06018a3.433,3.433,0,0,0,0,4.1726l-1.06019,1.06018A4.95086,4.95086,0,0,1,31,36Zm1.85352,3.85352,1.06018-1.06019a3.433,3.433,0,0,0,4.1726,0l1.06018,1.06019a4.891,4.891,0,0,1-6.293,0Z"/></g></svg>