<svg xmlns="http://www.w3.org/2000/svg" viewBox="0 0 48 48"><defs><style>.cls-1{fill:#ff6c2c;}</style></defs><g id="Base_Icons" data-name="Base Icons"><path d="M19.22852,6H7.77148A1.77379,1.77379,0,0,0,6,7.77148v2.54688a.5.5,0,0,0,1,0V7.77148A.77186.77186,0,0,1,7.77148,7h11.457A.77186.77186,0,0,1,20,7.77148v5.86524H7.77148A1.77379,1.77379,0,0,0,6,15.4082v3.82032A1.77379,1.77379,0,0,0,7.77148,21h11.457A1.77379,1.77379,0,0,0,21,19.22852V7.77148A1.77379,1.77379,0,0,0,19.22852,6ZM20,19.22852A.77186.77186,0,0,1,19.22852,20H7.77148A.77186.77186,0,0,1,7,19.22852V15.4082a.77186.77186,0,0,1,.77148-.77148H20Z"/><path d="M10.81836,10.9541V9.68164a.5.5,0,0,0-1,0V10.9541a.5.5,0,0,0,1,0Z"/><path d="M13.36328,10.9541V9.68164a.5.5,0,1,0-1,0V10.9541a.5.5,0,0,0,1,0Z"/><path d="M27.5,13h6.00293A.49722.49722,0,0,1,34,13.49707V20.293l-2.14648-2.14649a.5.5,0,0,0-.707.707l2.99939,2.99939a.5015.5015,0,0,0,.70826,0l2.99939-2.99939a.5.5,0,1,0-.707-.707L35,20.293v-6.7959A1.49915,1.49915,0,0,0,33.50293,12H27.5a.5.5,0,0,0,0,1Z"/><path d="M20.5,35H14.502a.50305.50305,0,0,1-.502-.502V27.707l2.14648,2.14649a.5.5,0,0,0,.707-.707l-2.99939-2.99939a.5015.5015,0,0,0-.70826,0l-2.99939,2.99939a.5.5,0,0,0,.707.707L13,27.707v6.791A1.50373,1.50373,0,0,0,14.502,36H20.5a.5.5,0,0,0,0-1Z"/></g><g id="Sub_Icons" data-name="Sub Icons"><path class="cls-1" d="M40.22852,27h-11.457A1.77379,1.77379,0,0,0,27,28.77148v2.54688a.5.5,0,0,0,1,0V28.77148A.77186.77186,0,0,1,28.77148,28h11.457A.77186.77186,0,0,1,41,28.77148v5.86524H28.77148A1.77379,1.77379,0,0,0,27,36.4082v3.82032A1.77379,1.77379,0,0,0,28.77148,42h11.457A1.77379,1.77379,0,0,0,42,40.22852v-11.457A1.77379,1.77379,0,0,0,40.22852,27ZM41,40.22852A.77186.77186,0,0,1,40.22852,41h-11.457A.77186.77186,0,0,1,28,40.22852V36.4082a.77186.77186,0,0,1,.77148-.77148H41Z"/><path class="cls-1" d="M31.81836,31.9541V30.68164a.5.5,0,0,0-1,0V31.9541a.5.5,0,0,0,1,0Z"/><path class="cls-1" d="M34.36328,31.9541V30.68164a.5.5,0,0,0-1,0V31.9541a.5.5,0,1,0,1,0Z"/></g></svg>