<svg xmlns="http://www.w3.org/2000/svg" viewBox="0 0 48 48"><defs><style>.cls-1{fill:#ff6c2c;}</style></defs><g id="Base_Icons" data-name="Base Icons"><path d="M41.5,10H13.72266a.5.5,0,1,0,0,1H41.5a.501.501,0,0,1,.5.5v18a.5.5,0,0,0,1,0v-18A1.50164,1.50164,0,0,0,41.5,10Z"/><path d="M28.5,37H6.5a.501.501,0,0,1-.5-.5V14.5498a.5.5,0,1,0-1,0V36.5A1.50164,1.50164,0,0,0,6.5,38h22a.5.5,0,0,0,0-1Z"/><path d="M5.5,11a.40093.40093,0,0,0,.18945-.04.42265.42265,0,0,0,.16016-.11035A.35936.35936,0,0,0,5.96,10.68945.40093.40093,0,0,0,6,10.5a.47.47,0,0,0-.15039-.35059A.34975.34975,0,0,0,5.68945,10.04a.49189.49189,0,0,0-.54.10937A.4727.4727,0,0,0,5,10.5a.4542.4542,0,0,0,.14941.34961A.47.47,0,0,0,5.5,11Z"/><path d="M7.88965,10.84961A.49438.49438,0,0,0,8.24023,11a.401.401,0,0,0,.18946-.04.53712.53712,0,0,0,.27051-.27051.41308.41308,0,0,0,.04-.18945.47365.47365,0,0,0-.15039-.35059A.34978.34978,0,0,0,8.42969,10.04a.45659.45659,0,0,0-.37989,0,.35488.35488,0,0,0-.16015.10937A.51253.51253,0,0,0,7.74023,10.5a.40093.40093,0,0,0,.04.18945A.3497.3497,0,0,0,7.88965,10.84961Z"/><path d="M10.79,10.96a.47053.47053,0,0,0,.37988,0,.36482.36482,0,0,0,.16016-.11035.34975.34975,0,0,0,.10937-.16016.40081.40081,0,0,0,.04-.18945.4727.4727,0,0,0-.14941-.35059.49189.49189,0,0,0-.54-.10937.40916.40916,0,0,0-.16016.10937.47365.47365,0,0,0-.15039.35059.455.455,0,0,0,.15039.34961A.35936.35936,0,0,0,10.79,10.96Z"/><path d="M30.86621,25.07324a.19127.19127,0,0,1-.10937-.18164A6.38828,6.38828,0,0,0,30.82031,24a6.29015,6.29015,0,0,0-.06445-.89355.19308.19308,0,0,1,.11035-.17969,1.2352,1.2352,0,0,0,.60059-.7627,1.20674,1.20674,0,0,0-.13282-.9414l-1.18261-1.96973a1.29,1.29,0,0,0-1.72461-.44629.24881.24881,0,0,1-.26172-.00586,6.86791,6.86791,0,0,0-1.59668-.89062.19169.19169,0,0,1-.11719-.18067,1.25455,1.25455,0,0,0-1.26758-1.23828H22.81641a1.25474,1.25474,0,0,0-1.26758,1.23926.1907.1907,0,0,1-.11817.17969,6.88152,6.88152,0,0,0-1.5957.89062.24572.24572,0,0,1-.26465.00391,1.28869,1.28869,0,0,0-1.72265.45117L16.665,21.22266a1.21055,1.21055,0,0,0-.13184.9414,1.2352,1.2352,0,0,0,.60059.7627.19127.19127,0,0,1,.10937.18164A6.38828,6.38828,0,0,0,17.17969,24a6.29015,6.29015,0,0,0,.06445.89355.19308.19308,0,0,1-.11035.17969,1.2352,1.2352,0,0,0-.60059.7627,1.20674,1.20674,0,0,0,.13282.9414l1.18261,1.96973a1.29,1.29,0,0,0,1.72461.44629.24665.24665,0,0,1,.26172.00586,6.86791,6.86791,0,0,0,1.59668.89062.19169.19169,0,0,1,.11719.18067,1.25455,1.25455,0,0,0,1.26758,1.23828h2.36718a1.25474,1.25474,0,0,0,1.26758-1.23926.1907.1907,0,0,1,.11817-.17969,6.88152,6.88152,0,0,0,1.5957-.89062.24534.24534,0,0,1,.26562-.00391,1.28865,1.28865,0,0,0,1.72071-.45019L31.335,26.77734a1.21055,1.21055,0,0,0,.13184-.9414A1.2352,1.2352,0,0,0,30.86621,25.07324Zm-.40332,1.18067-1.18262,1.96777a.26536.26536,0,0,1-.36132.08105,1.26051,1.26051,0,0,0-1.36329.082,5.85419,5.85419,0,0,1-1.35839.75781,1.21689,1.21689,0,0,0-.76368,1.12793.23684.23684,0,0,1-.25.2207H22.81641a.2376.2376,0,0,1-.25-.22168,1.21613,1.21613,0,0,0-.7627-1.127,5.8406,5.8406,0,0,1-1.35937-.75781,1.2252,1.2252,0,0,0-.73731-.24317,1.30438,1.30438,0,0,0-.63183.165.26611.26611,0,0,1-.3545-.083l-1.18261-1.96972a.19294.19294,0,0,1-.02247-.1543.22272.22272,0,0,1,.11036-.13574,1.21026,1.21026,0,0,0,.625-1.21485A5.26163,5.26163,0,0,1,18.19727,24a5.36012,5.36012,0,0,1,.05273-.74707,1.20919,1.20919,0,0,0-.624-1.2168.22272.22272,0,0,1-.11036-.13574.196.196,0,0,1,.02149-.1543l1.18164-1.96582a.27167.27167,0,0,1,.3623-.083,1.26219,1.26219,0,0,0,1.36329-.082,5.85419,5.85419,0,0,1,1.35839-.75781,1.21689,1.21689,0,0,0,.76368-1.12793.23684.23684,0,0,1,.25-.2207h2.36718a.2376.2376,0,0,1,.25.22168,1.21613,1.21613,0,0,0,.7627,1.127,5.8406,5.8406,0,0,1,1.35937.75781,1.25777,1.25777,0,0,0,1.36914.07813.268.268,0,0,1,.3545.083l1.18261,1.96972a.19294.19294,0,0,1,.02247.1543.22272.22272,0,0,1-.11036.13574,1.21026,1.21026,0,0,0-.625,1.21485,5.26163,5.26163,0,0,1,.05371.749,5.36012,5.36012,0,0,1-.05273.74707,1.20919,1.20919,0,0,0,.624,1.2168.22272.22272,0,0,1,.11036.13574A.196.196,0,0,1,30.46289,26.25391Z"/><path d="M25.2998,21.749a2.59931,2.59931,0,1,0-1.30371,4.85157,2.62911,2.62911,0,0,0,.67676-.08887,2.59931,2.59931,0,0,0,.627-4.7627Zm.08594,3.05078a1.6,1.6,0,1,1-1.7998-2.3457,1.6391,1.6391,0,0,1,.416-.05469,1.60008,1.60008,0,0,1,1.38379,2.40039Z"/></g><g id="Sub_Icons" data-name="Sub Icons"><path class="cls-1" d="M36.3291,31.124a.4883.4883,0,0,0-.07867-.04736.4249.4249,0,0,0-.50086,0,.4883.4883,0,0,0-.07867.04736l-4,3.5a.49967.49967,0,1,0,.6582.752L35.5,32.60156V40.5a.5.5,0,0,0,1,0V32.60156L39.6709,35.376a.49967.49967,0,0,0,.6582-.752Z"/></g></svg>