<svg xmlns="http://www.w3.org/2000/svg" viewBox="0 0 48 48"><defs><style>.cls-1{fill:#ff6c2c;}</style></defs><g id="Base_Icons" data-name="Base Icons"><path d="M40.99975,11h-21a.5.5,0,0,1,0-1h21a.5.5,0,0,1,0,1Z"/><path d="M12.24975,40.5h-3.5a2.25309,2.25309,0,0,1-2.25-2.25v-3.5a2.25309,2.25309,0,0,1,2.25-2.25h3.5a2.25309,2.25309,0,0,1,2.25,2.25v3.5A2.25309,2.25309,0,0,1,12.24975,40.5Zm-3.5-7a1.25116,1.25116,0,0,0-1.25,1.25v3.5a1.25116,1.25116,0,0,0,1.25,1.25h3.5a1.25116,1.25116,0,0,0,1.25-1.25v-3.5a1.25116,1.25116,0,0,0-1.25-1.25Z"/><path d="M40.99975,24h-21a.5.5,0,0,1,0-1h21a.5.5,0,1,1,0,1Z"/><path d="M26.99975,37h-7a.5.5,0,0,1,0-1h7a.5.5,0,0,1,0,1Z"/><path d="M9.24975,27.5a.50119.50119,0,0,1-.39355-.19141l-2.75-3.5a.50011.50011,0,0,1,.78711-.61718L9.241,26.17871l4.8584-6.47851a.50019.50019,0,1,1,.80078.5996l-5.25,7a.5.5,0,0,1-.39453.2002Z"/><path d="M9.24975,14.5a.50119.50119,0,0,1-.39355-.19141l-2.75-3.5a.50011.50011,0,0,1,.78711-.61718L9.241,13.17871l4.8584-6.47851a.50019.50019,0,1,1,.80078.5996l-5.25,7a.5.5,0,0,1-.39453.2002Z"/></g><g id="Sub_Icons" data-name="Sub Icons"><path class="cls-1" d="M36.0896,38.499a.49971.49971,0,0,1-.5-.5v-2a.5.5,0,0,1,1,0v2A.49972.49972,0,0,1,36.0896,38.499Z"/><path class="cls-1" d="M36.09057,34.5a.40492.40492,0,0,1-.19043-.04.46317.46317,0,0,1-.16992-.11035A.49909.49909,0,0,1,35.59057,34a.40492.40492,0,0,1,.04-.19043.43259.43259,0,0,1,.09961-.16016.44822.44822,0,0,1,.16992-.10937.49117.49117,0,0,1,.54.10937.50056.50056,0,0,1-.34961.85059Z"/><path class="cls-1" d="M36.0896,41.999a6,6,0,1,1,6-6A6.00655,6.00655,0,0,1,36.0896,41.999Zm0-11a5,5,0,1,0,5,5A5.00589,5.00589,0,0,0,36.0896,30.999Z"/></g></svg>