<svg xmlns="http://www.w3.org/2000/svg" viewBox="0 0 48 48"><defs><style>.cls-1{fill:#ff6c2c;}</style></defs><g id="Base_Icons" data-name="Base Icons"><path d="M26.71973,38H9.03027a1.88954,1.88954,0,0,1-1.44336-.59863.82469.82469,0,0,1-.19726-.68457C8.65625,30.33887,17.05371,29,23.875,29a38.12755,38.12755,0,0,1,7.1748.60742.51138.51138,0,0,0,.58594-.39648.50116.50116,0,0,0-.39648-.58594A39.13442,39.13442,0,0,0,23.875,28C13.55566,28,7.5166,30.94629,6.40918,36.52148a1.80376,1.80376,0,0,0,.4043,1.51368A2.86458,2.86458,0,0,0,9.03027,39H26.71973a.5.5,0,0,0,0-1Z"/><path d="M33.25391,24.16406A.5.5,0,0,0,33.625,25a.4947.4947,0,0,0,.06555-.01367.49289.49289,0,0,0,.2616.23242,18.68763,18.68763,0,0,1,6.8164,4.38184.5.5,0,0,0,.7129-.70118,19.68151,19.68151,0,0,0-7.07135-4.56958,12.70537,12.70537,0,0,0-.414-16.16577.50056.50056,0,1,0-.74218.67188A11.667,11.667,0,0,1,33.25391,24.16406Z"/><path d="M24,25.5A9.5,9.5,0,1,0,14.5,16,9.51081,9.51081,0,0,0,24,25.5Zm0-18A8.5,8.5,0,1,1,15.5,16,8.51014,8.51014,0,0,1,24,7.5Z"/></g><g id="Sub_Icons" data-name="Sub Icons"><path class="cls-1" d="M40.24976,40.23071a5.99663,5.99663,0,0,0-8.48053-8.48047l-.01142.00757-.00757.01148a5.99663,5.99663,0,0,0,8.48053,8.48047l.01142-.00757ZM41,36a4.95074,4.95074,0,0,1-1.14648,3.14648l-7-7A4.9512,4.9512,0,0,1,36,31,5.00588,5.00588,0,0,1,41,36ZM31,36a4.95074,4.95074,0,0,1,1.14648-3.14648l7,7A4.9512,4.9512,0,0,1,36,41,5.00588,5.00588,0,0,1,31,36Z"/></g></svg>