<svg xmlns="http://www.w3.org/2000/svg" viewBox="0 0 48 48"><defs><style>.cls-1{fill:#ff6c2c;}</style></defs><g id="Base_Icons" data-name="Base Icons"><path d="M41.50488,38H6.5A1.50164,1.50164,0,0,1,5,36.5V14.5498a.5.5,0,1,1,1,0V36.5a.501.501,0,0,0,.5.5H41.50488A.49513.49513,0,0,0,42,36.50488V11.5a.501.501,0,0,0-.5-.5H13.72266a.5.5,0,1,1,0-1H41.5A1.50164,1.50164,0,0,1,43,11.5V36.50488A1.49706,1.49706,0,0,1,41.50488,38Z"/><path d="M5.5,11a.47.47,0,0,1-.35059-.15039A.34975.34975,0,0,1,5.04,10.68945.40093.40093,0,0,1,5,10.5a.4727.4727,0,0,1,.14941-.35059.49543.49543,0,0,1,.54-.10937.34975.34975,0,0,1,.16016.10937A.47.47,0,0,1,6,10.5a.40093.40093,0,0,1-.04.18945.35936.35936,0,0,1-.11035.16016A.4664.4664,0,0,1,5.5,11Z"/><path d="M8.24023,11a.4287.4287,0,0,1-.19043-.04.36479.36479,0,0,1-.16015-.11035.48486.48486,0,0,1,0-.7002A.35488.35488,0,0,1,8.0498,10.04a.50157.50157,0,0,1,.37989,0,.34978.34978,0,0,1,.16015.10937.4827.4827,0,0,1,0,.7002A.46638.46638,0,0,1,8.24023,11Z"/><path d="M10.97949,11a.51411.51411,0,0,1-.5-.5.44536.44536,0,0,1,.04-.19043.36482.36482,0,0,1,.11035-.16016.49507.49507,0,0,1,.54-.10937.35491.35491,0,0,1,.16016.10937A.50054.50054,0,0,1,10.97949,11Z"/></g><g id="Sub_Icons" data-name="Sub Icons"><path class="cls-1" d="M36,29H17.5127a.5.5,0,1,1,0-1H36a.5.5,0,0,1,0,1Z"/><path class="cls-1" d="M12.5,28.5a.5.5,0,0,1-.35352-.85352L15.793,24l-3.64649-3.64648a.5.5,0,0,1,.707-.707l4,4a.49983.49983,0,0,1,0,.707l-4,4A.49842.49842,0,0,1,12.5,28.5Z"/></g></svg>