<svg xmlns="http://www.w3.org/2000/svg" viewBox="0 0 48 48"><defs><style>.cls-1{fill:#ff6c2c;}</style></defs><g id="Base_Icons" data-name="Base Icons"><path d="M41.5,10h-30a.5.5,0,0,0,0,1h30a.501.501,0,0,1,.5.5v2.5498H5.5a.49972.49972,0,0,0-.5.5V36.5A1.50206,1.50206,0,0,0,6.50049,38H27.5a.5.5,0,0,0,0-1H6.50049A.50107.50107,0,0,1,6,36.5V15.0498H42V28.5a.5.5,0,0,0,1,0v-17A1.50164,1.50164,0,0,0,41.5,10Z"/><path d="M5.1499,10.84961a.48213.48213,0,0,0,.69971,0A.35172.35172,0,0,0,5.96,10.68945a.47053.47053,0,0,0,0-.37988.35694.35694,0,0,0-.11035-.16016A.34833.34833,0,0,0,5.68994,10.04a.50154.50154,0,0,0-.37988,0,.35231.35231,0,0,0-.16016.10937.35592.35592,0,0,0-.10986.16016.47053.47053,0,0,0,0,.37988A.35074.35074,0,0,0,5.1499,10.84961Z"/><path d="M7.30957,10.96a.47053.47053,0,0,0,.37988,0,.35936.35936,0,0,0,.16016-.11035A.45171.45171,0,0,0,8,10.5a.60133.60133,0,0,0-.04-.19043.36482.36482,0,0,0-.11035-.16016.49472.49472,0,0,0-.54-.10937.52365.52365,0,0,0-.26953.26953A.40492.40492,0,0,0,7,10.5a.4542.4542,0,0,0,.14941.34961A.36482.36482,0,0,0,7.30957,10.96Z"/><path d="M9.14941,10.84961a.4827.4827,0,0,0,.7002,0A.45171.45171,0,0,0,10,10.5a.40492.40492,0,0,0-.04-.19043.36482.36482,0,0,0-.11035-.16016A.34975.34975,0,0,0,9.68945,10.04a.50154.50154,0,0,0-.37988,0,.52365.52365,0,0,0-.26953.26953.47053.47053,0,0,0,0,.37988A.34975.34975,0,0,0,9.14941,10.84961Z"/></g><g id="Sub_Icons" data-name="Sub Icons"><path class="cls-1" d="M41.97266,34.585a1.05479,1.05479,0,0,0-.11719-.82324l-.92871-1.54785a1.09189,1.09189,0,0,0-1.417-.42774,1.69849,1.69849,0,0,0-.17188.042,7.13949,7.13949,0,0,0-1.30371-.75488,1.095,1.095,0,0,0-1.10449-1.082H35.07031a1.14245,1.14245,0,0,0-1.12988,1.124,9.40491,9.40491,0,0,0-1.36816.708,1.12124,1.12124,0,0,0-1.499.39258l-.92871,1.5459a1.05538,1.05538,0,0,0-.11719.82324,1.16719,1.16719,0,0,0,.55664.69824A4.96433,4.96433,0,0,0,30.53223,36c0,.24316.01757.48242.0205.748a1.08184,1.08184,0,0,0-.52539.667,1.05538,1.05538,0,0,0,.11719.82324l.92871,1.54785a1.09458,1.09458,0,0,0,1.417.42774,1.69849,1.69849,0,0,0,.17188-.042,7.13949,7.13949,0,0,0,1.30371.75488,1.095,1.095,0,0,0,1.10449,1.082h1.85938a1.14245,1.14245,0,0,0,1.12988-1.124,9.55132,9.55132,0,0,0,1.36914-.707,1.12361,1.12361,0,0,0,1.498-.39355l.92871-1.5459a1.05538,1.05538,0,0,0,.11719-.82324,1.08184,1.08184,0,0,0-.52539-.667l-.2461.44531.21485-.47656A4.96433,4.96433,0,0,0,41.46777,36c0-.24316-.01757-.48242-.01855-.749A1.077,1.077,0,0,0,41.97266,34.585Zm-1.918,4.67578a.10216.10216,0,0,1-.13672.02539,1.09474,1.09474,0,0,0-1.18945.07129,4.492,4.492,0,0,1-1.043.582,1.056,1.056,0,0,0-.669.98731.07971.07971,0,0,1-.08691.06445H35.07031a.07959.07959,0,0,1-.08691-.06543,1.05517,1.05517,0,0,0-.66992-.98633,4.50545,4.50545,0,0,1-1.042-.582,1.07723,1.07723,0,0,0-.6455-.21289,1.12874,1.12874,0,0,0-.54981.14453.10031.10031,0,0,1-.13086-.02636l-.89746-1.626a1.04722,1.04722,0,0,0,.542-1.06445,4.10259,4.10259,0,0,1,0-1.14356,1.19653,1.19653,0,0,0-.57422-1.14355l.92969-1.5459a.10686.10686,0,0,1,.13672-.02539,1.09486,1.09486,0,0,0,1.18945-.07129,4.492,4.492,0,0,1,1.043-.582,1.056,1.056,0,0,0,.669-.98731.07971.07971,0,0,1,.08691-.06445h1.85938a.07959.07959,0,0,1,.08691.06543,1.05517,1.05517,0,0,0,.66992.98633,4.50545,4.50545,0,0,1,1.042.582,1.098,1.098,0,0,0,1.19531.06836.10059.10059,0,0,1,.13086.02636l.89746,1.626a1.04722,1.04722,0,0,0-.542,1.06445,4.10259,4.10259,0,0,1,0,1.14356,1.04785,1.04785,0,0,0,.542,1.06543l.03223.07812Z"/><path class="cls-1" d="M37.25,33.834a2.49982,2.49982,0,1,0,.915,3.416h.001A2.50658,2.50658,0,0,0,37.25,33.834Zm.0498,2.916a1.50066,1.50066,0,1,1-1.29687-2.25,1.48942,1.48942,0,0,1,.74707.2002A1.50451,1.50451,0,0,1,37.2998,36.75Z"/></g></svg>