<svg xmlns="http://www.w3.org/2000/svg" viewBox="0 0 48 48"><defs><style>.cls-1{fill:#ff6c2c;}</style></defs><g id="Base_Icons" data-name="Base Icons"><path d="M12.5,30a.49971.49971,0,0,0,.5-.5v-6.002a.49888.49888,0,0,1,.498-.498H34.50391A.4968.4968,0,0,1,35,23.49609V29.5a.5.5,0,0,0,1,0V23.49609A1.49747,1.49747,0,0,0,34.50391,22H24.5V18h9.00293A1.49915,1.49915,0,0,0,35,16.50293V8.49707A1.49915,1.49915,0,0,0,33.50293,7H14.49707A1.49915,1.49915,0,0,0,13,8.49707v8.00586A1.49915,1.49915,0,0,0,14.49707,18H23.5v4h-10.002A1.49956,1.49956,0,0,0,12,23.49805V29.5A.49971.49971,0,0,0,12.5,30Zm1.99707-13A.49722.49722,0,0,1,14,16.50293V8.49707A.49722.49722,0,0,1,14.49707,8H33.50293A.49722.49722,0,0,1,34,8.49707v8.00586A.49722.49722,0,0,1,33.50293,17Z"/></g><g id="Sub_Icons" data-name="Sub Icons"><path class="cls-1" d="M16.85352,32.14648a.49983.49983,0,0,0-.707,0L12.5,35.793,8.85352,32.14648a.5.5,0,0,0-.707.707L11.793,36.5,8.14648,40.14648a.5.5,0,1,0,.707.707L12.5,37.207l3.64648,3.64649a.5.5,0,0,0,.707-.707L13.207,36.5l3.64649-3.64648A.49983.49983,0,0,0,16.85352,32.14648Z"/><path class="cls-1" d="M40.84277,32.63574a.501.501,0,0,0-.707.02149l-6.23535,6.61364-4.03613-4.28064a.50018.50018,0,0,0-.72852.68555l4.40039,4.667.01233.00861.00916.01288a.48243.48243,0,0,0,.10119.06384.40345.40345,0,0,0,.48316,0,.48217.48217,0,0,0,.10119-.06384l.0091-.01288.01239-.00861,6.59961-7A.5.5,0,0,0,40.84277,32.63574Z"/></g></svg>