<svg xmlns="http://www.w3.org/2000/svg" viewBox="0 0 48 48"><defs><style>.cls-1{fill:#ff6c2c;}</style></defs><g id="Base_Icons" data-name="Base Icons"><path d="M43.35352,34.31934,37.5127,28.48145a17.08143,17.08143,0,0,0,1.4024-6.60035c.00067-.00964.00568-.01782.0058-.02758.001-.10669-.01319-.21106-.0141-.31763-.00421-.44861-.01984-.89673-.05975-1.34473-.01954-.22449-.05243-.446-.08075-.6687-.04456-.34448-.09424-.688-.16-1.03076-.04956-.25952-.10827-.51685-.17-.7738q-.11434-.47591-.25635-.94666c-.07269-.24-.1474-.479-.231-.71619-.04614-.13244-.0791-.26709-.1286-.3988-.09-.2395-.20288-.46558-.30261-.69946-.04822-.11182-.08221-.22754-.13293-.33863-.02582-.05712-.05878-.10876-.08515-.16552-.17639-.38-.36993-.74793-.57165-1.11133-.07563-.136-.1474-.27466-.22626-.40772-.21906-.37048-.45569-.72705-.70068-1.07812-.0788-.11279-.15351-.22888-.23475-.33936-.25561-.3479-.52844-.68066-.8092-1.00732-.08667-.10083-.16937-.20557-.25812-.3042-.27838-.30884-.57263-.60181-.87311-.88953-.10791-.10339-.212-.21093-.32226-.3114-.27973-.2539-.57318-.49243-.87006-.728-.14978-.11914-.29638-.24206-.44983-.35595-.2594-.1919-.52942-.36975-.80047-.54749-.21051-.13855-.41913-.27893-.63513-.40808-.228-.1355-.46363-.25952-.69886-.38525-.27337-.14673-.54675-.29175-.82733-.42334-.07171-.03357-.13806-.075-.21039-.10767a.47971.47971,0,0,0-.08-.01806A17.15048,17.15048,0,0,0,14.62793,6.0293a.5.5,0,0,0-.14746.80957L24.96289,17.32031a2.28062,2.28062,0,0,1,.00488,3.1875l-4.44531,4.44531a2.29085,2.29085,0,0,1-3.21875-.02636L6.84766,14.4707a.51212.51212,0,0,0-.44239-.13867.49811.49811,0,0,0-.36621.28516A17.16853,17.16853,0,0,0,26.9375,38.09375a.49969.49969,0,1,0-.30664-.95117A16.19564,16.19564,0,0,1,6.66309,15.7002l9.96875,9.96972a3.28031,3.28031,0,0,0,4.59277-.00488l4.45019-4.4502a3.28592,3.28592,0,0,0,0-4.59668L15.71094,6.65527a16.15731,16.15731,0,0,1,12.95532.44117c.29242.13842.57855.28576.86.43981.19952.10975.3977.22193.59265.34009.22558.136.44507.27942.66272.42554.233.1571.46435.317.68939.48645.16449.12341.32355.25281.48279.38208.25458.2074.50628.4187.74878.64221.12.11035.235.22559.3515.33948.25928.25415.514.51367.75708.7865.09283.10412.18078.21252.27087.31921.24719.29248.48834.59156.716.90406.07843.10766.15173.21936.2276.3291.22186.321.43658.64868.6369.98913.0708.12049.13592.24475.20373.36731.18805.33936.36866.68506.53437,1.04248.06524.14112.1242.28589.18566.4292q.23.5299.42054,1.07007c.07959.22827.152.458.221.68823q.13247.43872.23938.8833c.06048.25257.11584.50562.16394.75977.058.30823.10479.61865.14453.93054.02948.228.05883.45593.07837.68457.03112.37268.04473.74829.0498,1.12525a16.07569,16.07569,0,0,1-1.443,6.92492.499.499,0,0,0,.10156.56055l6.084,6.08008a.49995.49995,0,0,0,.707-.707Z"/></g><g id="Sub_Icons" data-name="Sub Icons"><path class="cls-1" d="M31.88116,35.5H36.5a.5.5,0,0,0,0-1H31.88116l1.93915-1.61621a.49989.49989,0,1,0-.64062-.76758l-3,2.5a.4997.4997,0,0,0,0,.76758l3,2.5a.49989.49989,0,1,0,.64062-.76758Z"/><path class="cls-1" d="M38.82031,36.11621a.49989.49989,0,0,0-.64062.76758L40.11884,38.5H35.5a.5.5,0,0,0,0,1h4.61884l-1.93915,1.61621a.49989.49989,0,1,0,.64062.76758l3-2.5a.4997.4997,0,0,0,0-.76758Z"/></g></svg>