<svg xmlns="http://www.w3.org/2000/svg" viewBox="0 0 48 48"><defs><style>.cls-1{fill:#ff6c2c;}</style></defs><g id="Base_Icons" data-name="Base Icons"><path d="M26.71777,40H8.28223a1.91749,1.91749,0,0,1-1.46485-.64551,1.247,1.247,0,0,1-.2998-1.02637C7.87012,30.61816,16.77051,29,24,29c5.88574,0,10.38867,1.02539,13.38086,3.04688a.5.5,0,1,0,.56055-.82813C34.7793,29.083,30.08887,28,24,28,13.084,28,6.69824,31.51172,5.5332,38.15625a2.23093,2.23093,0,0,0,.51856,1.8418A2.92568,2.92568,0,0,0,8.28223,41H26.71777a.5.5,0,0,0,0-1Z"/><path d="M18.33105,8.665a8.49959,8.49959,0,1,1-2.10742,9.77246.49974.49974,0,0,0-.91406.4043A9.502,9.502,0,1,0,17.665,7.9209a.49933.49933,0,0,0,.666.74414Z"/></g><g id="Sub_Icons" data-name="Sub Icons"><path class="cls-1" d="M34.70154,37.89624l.33581-1.17261H32.86877a3.02958,3.02958,0,0,0-.92114.14014,2.97279,2.97279,0,0,0-.80127.3894,2.66672,2.66672,0,0,0-.62372.60376,2.45589,2.45589,0,0,0-.38861.7743l-.03839.13122a2.33511,2.33511,0,0,0-.03357,1.19446,2.47729,2.47729,0,0,0,.523,1.03674,2.82586,2.82586,0,0,0,.96436.73072A2.92688,2.92688,0,0,0,32.8208,42h.67169l.38385-1.295a.28337.28337,0,0,0-.06238-.28431.35878.35878,0,0,0-.28308-.127h-.61413a1.09565,1.09565,0,0,1-.46057-.09619.95407.95407,0,0,1-.34546-.25818.924.924,0,0,1-.18707-.37195.84929.84929,0,0,1,.01434-.446.96208.96208,0,0,1,.36944-.49878,1.03945,1.03945,0,0,1,.60932-.18384h1.00757a.82843.82843,0,0,0,.48932-.14868A.74188.74188,0,0,0,34.70154,37.89624Z"/><path class="cls-1" d="M41.93652,37.04321a2.52938,2.52938,0,0,0-.52777-1.037,2.82862,2.82862,0,0,0-.96429-.7306A2.92578,2.92578,0,0,0,39.173,35H37.16754a.82781.82781,0,0,0-.48938.14868.741.741,0,0,0-.28784.3938L34.5,42h1.33374a.81318.81318,0,0,0,.4798-.14868.74316.74316,0,0,0,.28784-.385l1.40094-4.75122h1.07477a1.05639,1.05639,0,0,1,.46057.10058,1.00243,1.00243,0,0,1,.34546.26245.93154.93154,0,0,1,.187.37183.78586.78586,0,0,1-.01434.42883.8928.8928,0,0,1-.35987.49866,1.04843,1.04843,0,0,1-.61883.19263h-.55658a.828.828,0,0,0-.48938.14868.74213.74213,0,0,0-.28784.385L37.39783,40.285h1.73675a3.031,3.031,0,0,0,.92121-.14,2.90024,2.90024,0,0,0,.8012-.3938,2.66287,2.66287,0,0,0,.619-.60815,2.51661,2.51661,0,0,0,.38379-.77442l.03833-.1311A2.237,2.237,0,0,0,41.93652,37.04321Z"/><path class="cls-1" d="M7.88116,9.5H12.5a.5.5,0,0,0,0-1H7.88116L9.82031,6.88379a.49989.49989,0,0,0-.64062-.76758l-3,2.5a.4997.4997,0,0,0,0,.76758l3,2.5a.49989.49989,0,0,0,.64062-.76758Z"/><path class="cls-1" d="M14.17969,15.11621a.49989.49989,0,1,0,.64062.76758l3-2.5a.4997.4997,0,0,0,0-.76758l-3-2.5a.49989.49989,0,1,0-.64062.76758L16.11884,12.5H11.5a.5.5,0,0,0,0,1h4.61884Z"/></g></svg>