<svg xmlns="http://www.w3.org/2000/svg" viewBox="0 0 48 48"><defs><style>.cls-1{fill:#ff6c2c;}</style></defs><g id="Base_Icons" data-name="Base Icons"><path d="M12.5,21a.49971.49971,0,0,0,.5-.5V6.5a.5.5,0,0,0-1,0v14A.49971.49971,0,0,0,12.5,21Z"/><path d="M14.5,24h-4a.5.5,0,0,0,0,1H12V41.5a.5.5,0,0,0,1,0V25h1.5a.5.5,0,0,0,0-1Z"/><path d="M28.5,25a.49971.49971,0,0,0,.5-.5V6.5a.5.5,0,0,0-1,0v18A.49971.49971,0,0,0,28.5,25Z"/><path d="M30.5,28h-4a.5.5,0,0,0,0,1H28V41.5a.5.5,0,0,0,1,0V29h1.5a.5.5,0,0,0,0-1Z"/><path d="M36.5,26a.49971.49971,0,0,0-.5.5v15a.5.5,0,0,0,1,0v-15A.49971.49971,0,0,0,36.5,26Z"/><path d="M38.5,22H37V6.5a.5.5,0,0,0-1,0V22H34.5a.5.5,0,0,0,0,1h4a.5.5,0,0,0,0-1Z"/></g><g id="Sub_Icons" data-name="Sub Icons"><path class="cls-1" d="M20.5,22a.49971.49971,0,0,0-.5.5v19a.5.5,0,0,0,1,0v-19A.49971.49971,0,0,0,20.5,22Z"/><path class="cls-1" d="M22.5,18H21V6.5a.5.5,0,0,0-1,0V18H18.5a.5.5,0,0,0,0,1h4a.5.5,0,0,0,0-1Z"/></g></svg>