<svg xmlns="http://www.w3.org/2000/svg" viewBox="0 0 48 48"><defs><style>.cls-1{fill:#ff6c2c;}</style></defs><g id="Base_Icons" data-name="Base Icons"><path d="M40.05188,17.33887a.27433.27433,0,0,0-.10944-.17993,18.61025,18.61025,0,0,0-6.60357-6.6023.48045.48045,0,0,0-.08887-.07812.47455.47455,0,0,0-.08868-.02979,18.36165,18.36165,0,0,0-18.32087-.001.46784.46784,0,0,0-.09045.03077.48045.48045,0,0,0-.08887.07812A18.61063,18.61063,0,0,0,8.057,17.16a.27127.27127,0,0,0-.10883.17884A18.43761,18.43761,0,0,0,7.97754,35.751a.50055.50055,0,0,0,.68359.18164c.00525-.00305.00794-.0083.013-.01148l.00067-.00024,2.2959-1.3252a.49966.49966,0,1,0-.5-.86523L8.606,34.80676a17.48083,17.48083,0,0,1-2.0896-7.80969H8.667a.5.5,0,0,0,0-1H6.52533a17.37972,17.37972,0,0,1,2.07873-7.80981l1.86664,1.07739a.49966.49966,0,0,0,.5-.86524L9.12134,17.332a17.60305,17.60305,0,0,1,5.71155-5.71081l1.0675,1.84948a.49966.49966,0,1,0,.86523-.5L15.68823,11.104A17.38411,17.38411,0,0,1,23.5,9.02539V11.166a.5.5,0,1,0,1,0V9.02539A17.38411,17.38411,0,0,1,32.31177,11.104l-1.07739,1.8667a.49966.49966,0,1,0,.86523.5l1.0675-1.84948A17.60305,17.60305,0,0,1,38.87866,17.332L37.0293,18.39941a.49966.49966,0,1,0,.5.86524l1.86664-1.07739a17.37972,17.37972,0,0,1,2.07873,7.80981H39.333a.5.5,0,0,0,0,1h2.14538a17.61728,17.61728,0,0,1-.24206,2.543.4998.4998,0,0,0,.98437.17383,18.59753,18.59753,0,0,0,.2793-3.2168A18.36027,18.36027,0,0,0,40.05188,17.33887Z"/><path d="M30.61426,21.37305a.49995.49995,0,1,0-.707-.707l-4.2818,4.28088a2.85974,2.85974,0,1,0,.707.707ZM24,29.127a1.84766,1.84766,0,1,1,1.30536-3.15381l.0003.00049.00049.00025A1.84665,1.84665,0,0,1,24,29.127Z"/></g><g id="Sub_Icons" data-name="Sub Icons"><path class="cls-1" d="M36,30a6,6,0,1,0,6,6A6.00657,6.00657,0,0,0,36,30Zm0,11a5,5,0,1,1,5-5A5.00588,5.00588,0,0,1,36,41Z"/><path class="cls-1" d="M38.22363,35.55273l-3-1.5A.49973.49973,0,0,0,34.5,34.5v3a.50011.50011,0,0,0,.72363.44727l3-1.5a.50011.50011,0,0,0,0-.89454Z"/></g></svg>