<svg xmlns="http://www.w3.org/2000/svg" viewBox="0 0 48 48"><defs><style>.cls-1{fill:#ff6c2c;}</style></defs><g id="Base_Icons" data-name="Base Icons"><path d="M42,8.50293A1.50414,1.50414,0,0,0,40.49707,7H7.502A1.50373,1.50373,0,0,0,6,8.502V22.49707a1.49064,1.49064,0,0,0,.38959,1.00049A1.48448,1.48448,0,0,0,6,24.49512V38.50293A1.49915,1.49915,0,0,0,7.49707,40H29a.5.5,0,0,0,0-1H7.49707A.49722.49722,0,0,1,7,38.50293V24.49512A.49513.49513,0,0,1,7.49512,24h33A.50554.50554,0,0,1,41,24.50488V29a.5.5,0,0,0,1,0V24.50488A1.49386,1.49386,0,0,0,41.60754,23.5,1.49215,1.49215,0,0,0,42,22.49609ZM7.50293,23A.50347.50347,0,0,1,7,22.49707V8.502A.50305.50305,0,0,1,7.502,8H40.49707A.50347.50347,0,0,1,41,8.50293V22.49609A.50389.50389,0,0,1,40.49609,23H7.50293Z"/><path d="M10.5,12.5a.49971.49971,0,0,0-.5.5v5a.5.5,0,0,0,1,0V13A.49971.49971,0,0,0,10.5,12.5Z"/><path d="M10,29v5a.5.5,0,0,0,1,0V29a.5.5,0,0,0-1,0Z"/><path d="M14,29v5a.5.5,0,0,0,1,0V29a.5.5,0,0,0-1,0Z"/></g><g id="Sub_Icons" data-name="Sub Icons"><path class="cls-1" d="M36.3291,31.124a.4883.4883,0,0,0-.07867-.04736.4249.4249,0,0,0-.50086,0,.4883.4883,0,0,0-.07867.04736l-4,3.5a.49967.49967,0,1,0,.6582.752L35.5,32.60156V40.5a.5.5,0,0,0,1,0V32.60156L39.6709,35.376a.49967.49967,0,0,0,.6582-.752Z"/></g></svg>