<svg xmlns="http://www.w3.org/2000/svg" viewBox="0 0 48 48"><defs><style>.cls-1{fill:#ff6c2c;}</style></defs><g id="Base_Icons" data-name="Base Icons"><path d="M36.19818,8.16016h4.14166a.5.5,0,1,0,0-1H34.66016a.49971.49971,0,0,0-.5.5v5.67968a.5.5,0,1,0,1,0V8.62738A18.99713,18.99713,0,0,1,24,43a.5.5,0,0,0,0,1A19.99357,19.99357,0,0,0,36.19818,8.16016Z"/><path d="M13.33984,34.16016a.49972.49972,0,0,0-.5.5v4.71246A18.99713,18.99713,0,0,1,24,5a.5.5,0,0,0,0-1A19.99357,19.99357,0,0,0,11.80182,39.83984H7.66016a.5.5,0,1,0,0,1h5.67968a.49971.49971,0,0,0,.5-.5V34.66016A.49971.49971,0,0,0,13.33984,34.16016Z"/></g><g id="Sub_Icons" data-name="Sub Icons"><path class="cls-1" d="M26.72852,31.165a.2939.2939,0,0,1,.18164-.27442,7.76739,7.76739,0,0,0,1.80664-1.00683.35971.35971,0,0,1,.38183-.00977,1.39994,1.39994,0,0,0,1.86914-.48828l1.35254-2.249a1.31113,1.31113,0,0,0,.14356-1.01953,1.33679,1.33679,0,0,0-.65039-.82617l-.001-.001a.29.29,0,0,1-.164-.28027A7.04492,7.04492,0,0,0,31.72168,24a7.16173,7.16173,0,0,0-.07227-1.00879.28954.28954,0,0,1,.16407-.28223,1.33679,1.33679,0,0,0,.65039-.82617,1.30736,1.30736,0,0,0-.14453-1.01953l-1.35254-2.251a1.39962,1.39962,0,0,0-1.874-.48339.3559.3559,0,0,1-.376-.0127,7.80691,7.80691,0,0,0-1.80664-1.00781.29194.29194,0,0,1-.18164-.27442,1.36129,1.36129,0,0,0-1.376-1.34277H22.64746a1.36148,1.36148,0,0,0-1.376,1.34375.2939.2939,0,0,1-.18164.27442,7.76739,7.76739,0,0,0-1.80664,1.00683.36157.36157,0,0,1-.38183.00977,1.40212,1.40212,0,0,0-1.87012.48925l-1.35156,2.248a1.31113,1.31113,0,0,0-.14356,1.01953,1.33946,1.33946,0,0,0,.65136.82715.29.29,0,0,1,.16407.28027A7.04492,7.04492,0,0,0,16.27832,24a7.16173,7.16173,0,0,0,.07227,1.00879.28954.28954,0,0,1-.16407.28223,1.33679,1.33679,0,0,0-.65039.82617,1.30736,1.30736,0,0,0,.14453,1.01953l1.35254,2.251a1.39987,1.39987,0,0,0,1.874.48339.35776.35776,0,0,1,.376.0127,7.80691,7.80691,0,0,0,1.80664,1.00781.29194.29194,0,0,1,.18164.27442,1.36129,1.36129,0,0,0,1.376,1.34277h2.70508A1.36148,1.36148,0,0,0,26.72852,31.165Zm-4.43946,0a1.31675,1.31675,0,0,0-.82617-1.21973,6.78506,6.78506,0,0,1-1.57031-.876,1.32988,1.32988,0,0,0-.79883-.2627,1.41572,1.41572,0,0,0-.68848.17969.38082.38082,0,0,1-.501-.12207l-1.35157-2.251a.29628.29628,0,0,1-.03418-.23242.327.327,0,0,1,.16114-.2002,1.29353,1.29353,0,0,0,.67773-1.31543A6.15942,6.15942,0,0,1,17.2959,24a6.04094,6.04094,0,0,1,.0625-.86621,1.29379,1.29379,0,0,0-.67774-1.31348.32966.32966,0,0,1-.16211-.20117.2994.2994,0,0,1,.03321-.23242l1.35058-2.248a.38486.38486,0,0,1,.51075-.12109,1.3645,1.3645,0,0,0,1.47949-.08692,6.746,6.746,0,0,1,1.57031-.875,1.31939,1.31939,0,0,0,.82617-1.22168.34338.34338,0,0,1,.3584-.32519h2.70508a.34415.34415,0,0,1,.3584.32617,1.31675,1.31675,0,0,0,.82617,1.21973,6.78506,6.78506,0,0,1,1.57031.876,1.36885,1.36885,0,0,0,1.48731.083.37911.37911,0,0,1,.501.12207l1.35157,2.251a.29628.29628,0,0,1,.03418.23242.327.327,0,0,1-.16114.2002,1.29353,1.29353,0,0,0-.67773,1.31543A6.15942,6.15942,0,0,1,30.7041,24a6.04094,6.04094,0,0,1-.0625.86621,1.29454,1.29454,0,0,0,.67774,1.31348.32966.32966,0,0,1,.16211.20117.2994.2994,0,0,1-.03321.23242l-1.35254,2.249a.38313.38313,0,0,1-.50879.12012,1.36861,1.36861,0,0,0-1.47949.08692,6.746,6.746,0,0,1-1.57031.875,1.31939,1.31939,0,0,0-.82617,1.22168.34338.34338,0,0,1-.3584.32519H22.64746A.34415.34415,0,0,1,22.28906,31.165Z"/><path class="cls-1" d="M26.51074,25.4502A2.91077,2.91077,0,1,0,24.751,26.80078,2.878,2.878,0,0,0,26.51074,25.4502Zm-.86523-.5a1.90015,1.90015,0,1,1-2.1377-2.78516,1.91073,1.91073,0,0,1,.49512-.06543,1.90072,1.90072,0,0,1,1.64258,2.85059Z"/></g></svg>