<svg xmlns="http://www.w3.org/2000/svg" viewBox="0 0 48 48"><defs><style>.cls-1{fill:#ff6c2c;}</style></defs><g id="Base_Icons" data-name="Base Icons"><path d="M24,6a38.025,38.025,0,0,0-4.85352.30664.50026.50026,0,1,0,.12891.99219A36.886,36.886,0,0,1,24,7c9.21484,0,17,3.43457,17,7.5S33.21484,22,24,22c-5.81836,0-11.18457-1.31836-14.35449-3.52637a.5001.5001,0,0,0-.57227.82032C12.40527,21.61426,17.98535,23,24,23c7.98572,0,14.58466-2.34106,17-5.67773V24.167a4.34712,4.34712,0,0,1-1.59961,3.13379.49951.49951,0,1,0,.68359.72852,5.73631,5.73631,0,0,0,1.84107-3.1167A.48617.48617,0,0,0,42,24.665V14.5C42,9.7334,34.09375,6,24,6Z"/><path d="M24,32.667c1.1416,0,2.28613-.0498,3.40039-.14941a.50012.50012,0,0,0,.4541-.542.51164.51164,0,0,0-.542-.45411C26.22656,31.61816,25.1123,31.667,24,31.667c-9.21484,0-17-3.43457-17-7.5v-.66015a.5.5,0,0,0-1,0V33.5C6,38.2666,13.90625,42,24,42c1.1377,0,2.28223-.0498,3.40039-.14844a.49954.49954,0,0,0,.4541-.542.50626.50626,0,0,0-.542-.4541C26.22363,40.95117,25.1084,41,24,41c-9.21484,0-17-3.43457-17-7.5V26.98926C9.41534,30.32593,16.01428,32.667,24,32.667Z"/></g><g id="Sub_Icons" data-name="Sub Icons"><path class="cls-1" d="M12,16.5a.4993.4993,0,0,0,.38965-.18652C12.75977,15.85352,16,11.75879,16,9.63672A4.07425,4.07425,0,0,0,12,5.5,4.07425,4.07425,0,0,0,8,9.63672c0,2.12207,3.24023,6.2168,3.61035,6.67676A.4993.4993,0,0,0,12,16.5Zm0-10a3.07413,3.07413,0,0,1,3,3.13672c0,1.32422-1.9043,4.10644-3,5.5498-1.0957-1.44336-3-4.22558-3-5.5498A3.07413,3.07413,0,0,1,12,6.5Z"/><path class="cls-1" d="M13.5,9A1.5,1.5,0,1,0,12,10.5,1.50164,1.50164,0,0,0,13.5,9Zm-2,0a.5.5,0,1,1,.5.5A.501.501,0,0,1,11.5,9Z"/><path class="cls-1" d="M38.166,31.99805a1.34635,1.34635,0,0,0-.59766-.34864l-5.873-1.60156a1.342,1.342,0,0,0-1.64746,1.64844l1.60156,5.873a1.34582,1.34582,0,0,0,.34668.59472l3.68848,3.68946a.49995.49995,0,0,0,.707-.707l-3.69043-3.6914a.33775.33775,0,0,1-.08691-.15039l-.62079-2.27564,3.03528-3.0354,2.275.62061a.33835.33835,0,0,1,.15332.08886l3.68945,3.68848a.49995.49995,0,0,0,.707-.707ZM31.69043,33.918l-.67773-2.48438a.34193.34193,0,0,1,.41992-.42089l2.48517.678Z"/><path class="cls-1" d="M37.29492,36.58789a.49995.49995,0,0,0-.707.707l1.7832,1.7832a.49995.49995,0,0,0,.707-.707Z"/></g></svg>