<svg xmlns="http://www.w3.org/2000/svg" viewBox="0 0 48 48"><defs><style>.cls-1{fill:#ff6c2c;}</style></defs><g id="Base_Icons" data-name="Base Icons"><path d="M42.68457,27.793a1.4483,1.4483,0,0,1-.77148-1.43555,16.53241,16.53241,0,0,0,0-4.71484,1.4483,1.4483,0,0,1,.77148-1.43555A2.524,2.524,0,0,0,43.916,18.64551a2.44671,2.44671,0,0,0-.27149-1.91113L40.34961,11.248a2.67288,2.67288,0,0,0-3.5752-.91309,1.61346,1.61346,0,0,1-1.7207-.084A18.18631,18.18631,0,0,0,30.82227,7.8916a1.46565,1.46565,0,0,1-.91211-1.3584A2.57789,2.57789,0,0,0,27.2959,4H20.7041a2.57807,2.57807,0,0,0-2.61426,2.53418,1.46431,1.46431,0,0,1-.91211,1.35742A18.18631,18.18631,0,0,0,12.94629,10.251a1.615,1.615,0,0,1-1.73145.07714,2.67592,2.67592,0,0,0-3.56836.92676l-3.291,5.4795A2.44671,2.44671,0,0,0,4.084,18.64551,2.524,2.524,0,0,0,5.31543,20.207a1.4483,1.4483,0,0,1,.77148,1.43555,16.53241,16.53241,0,0,0,0,4.71484A1.4483,1.4483,0,0,1,5.31543,27.793,2.51879,2.51879,0,0,0,4.085,29.35254a2.45165,2.45165,0,0,0,.27051,1.91308L7.65039,36.752a2.6724,2.6724,0,0,0,3.5752.91309,1.608,1.608,0,0,1,1.7207.084,18.18631,18.18631,0,0,0,4.23144,2.35938,1.46565,1.46565,0,0,1,.91211,1.3584A2.57789,2.57789,0,0,0,20.7041,44h6.5918a2.57789,2.57789,0,0,0,2.61426-2.5332.5.5,0,0,0-1,0A1.57718,1.57718,0,0,1,27.2959,43H20.7041a1.578,1.578,0,0,1-1.61426-1.53418,2.44,2.44,0,0,0-1.54492-2.28711,17.236,17.236,0,0,1-3.999-2.23047,2.598,2.598,0,0,0-2.82227-.14746,1.65678,1.65678,0,0,1-2.21582-.56445L5.21289,30.75a1.45646,1.45646,0,0,1-.16211-1.1377,1.52686,1.52686,0,0,1,.749-.94433,2.45252,2.45252,0,0,0,1.27735-2.45313,15.4883,15.4883,0,0,1,0-4.42968A2.45252,2.45252,0,0,0,5.7998,19.332a1.53022,1.53022,0,0,1-.75-.94531A1.45449,1.45449,0,0,1,5.21289,17.25l3.291-5.48047a1.66805,1.66805,0,0,1,2.2373-.55957,2.59423,2.59423,0,0,0,2.80469-.1582,17.236,17.236,0,0,1,3.999-2.23047A2.44033,2.44033,0,0,0,19.08984,6.5332,1.57718,1.57718,0,0,1,20.7041,5h6.5918a1.578,1.578,0,0,1,1.61426,1.53418,2.44,2.44,0,0,0,1.54492,2.28711,17.236,17.236,0,0,1,3.999,2.23047,2.6,2.6,0,0,0,2.82227.14746,1.65746,1.65746,0,0,1,2.21582.56445L42.78711,17.25a1.45449,1.45449,0,0,1,.16309,1.13672,1.53022,1.53022,0,0,1-.75.94531,2.45252,2.45252,0,0,0-1.27735,2.45313,15.4883,15.4883,0,0,1,0,4.42968A2.45252,2.45252,0,0,0,42.2002,28.668a1.52686,1.52686,0,0,1,.749.94433,1.45646,1.45646,0,0,1-.16211,1.1377l-.53906.89746a.50026.50026,0,0,0,.85742.51563l.53906-.89747a2.45165,2.45165,0,0,0,.27051-1.91308A2.51879,2.51879,0,0,0,42.68457,27.793Z"/><path d="M24,34A10,10,0,1,1,34,24,10.01177,10.01177,0,0,1,24,34Zm0-19a9,9,0,1,0,9,9A9.00984,9.00984,0,0,0,24,15Z"/></g><g id="Sub_Icons" data-name="Sub Icons"><path class="cls-1" d="M36.332,30.126a.50054.50054,0,0,0-.66406,0l-4.5,4a.50013.50013,0,1,0,.66406.748L36,31.169,40.168,34.874a.50013.50013,0,1,0,.66406-.748Z"/><path class="cls-1" d="M36.332,34.126a.50054.50054,0,0,0-.66406,0l-4.5,4a.50013.50013,0,1,0,.66406.748L35.5,35.6134V41.5a.5.5,0,0,0,1,0V35.6134L40.168,38.874a.50013.50013,0,1,0,.66406-.748Z"/></g></svg>