<svg xmlns="http://www.w3.org/2000/svg" viewBox="0 0 48 48"><defs><style>.cls-1{fill:#ff6c2c;}</style></defs><g id="Base_Icons" data-name="Base Icons"><path d="M24,29a41.29253,41.29253,0,0,1,6.42188.499,30.29216,30.29216,0,0,1,3.00488.6377.5.5,0,0,0,.25586-.9668,31.58447,31.58447,0,0,0-3.1045-.65918A42.33374,42.33374,0,0,0,24,28C13.084,28,6.69824,31.51172,5.5332,38.15625a2.23093,2.23093,0,0,0,.51856,1.8418A2.92568,2.92568,0,0,0,8.28223,41H27.71777a.5.5,0,0,0,0-1H8.28223a1.91749,1.91749,0,0,1-1.46485-.64551,1.247,1.247,0,0,1-.2998-1.02637C7.87012,30.61816,16.77051,29,24,29Z"/><path d="M24,24.5A9.5,9.5,0,1,0,14.5,15,9.51081,9.51081,0,0,0,24,24.5Zm0-18A8.5,8.5,0,1,1,15.5,15,8.51014,8.51014,0,0,1,24,6.5Z"/></g><g id="Sub_Icons" data-name="Sub Icons"><path class="cls-1" d="M40.35352,32.14648l-1.99939-1.99939a.5015.5015,0,0,0-.70826,0l-1.99939,1.99939a.5.5,0,0,0,.707.707L37.5,31.707V36.5a.5.5,0,0,0,1,0V31.707l1.14648,1.14649a.5.5,0,0,0,.707-.707Z"/><path class="cls-1" d="M35.64648,39.14648,34.5,40.293V35.5a.5.5,0,0,0-1,0v4.793l-1.14648-1.14649a.5.5,0,1,0-.707.707l1.99939,1.99939a.5015.5015,0,0,0,.70826,0l1.99939-1.99939a.5.5,0,0,0-.707-.707Z"/></g></svg>