<svg xmlns="http://www.w3.org/2000/svg" viewBox="0 0 48 48"><defs><style>.cls-1{fill:#ff6c2c;}</style></defs><g id="Base_Icons" data-name="Base Icons"><path d="M40.2041,10.5H7.80176A1.84134,1.84134,0,0,0,6,12.374V35.62793A1.83926,1.83926,0,0,0,7.7998,37.5H26a.5.5,0,0,0,0-1H7.7998A.83923.83923,0,0,1,7,35.62793V12.58374l16.05469,9.65454a1.83217,1.83217,0,0,0,1.89062,0L41,12.58374V26a.5.5,0,0,0,1,0V12.36816A1.83509,1.83509,0,0,0,40.2041,10.5ZM24.42969,21.38086a.8286.8286,0,0,1-.85938,0L7.38373,11.647a.7353.7353,0,0,1,.418-.147H40.2041a.72953.72953,0,0,1,.41437.14575Z"/></g><g id="Sub_Icons" data-name="Sub Icons"><path class="cls-1" d="M40.96283,36.81543A78.66906,78.66906,0,0,1,40.874,36.668l-4-4.5a.50013.50013,0,0,0-.748.66406L39.3866,36.5H31.5a.5.5,0,0,0,0,1h7.8866L36.126,41.168a.50013.50013,0,0,0,.748.66406l4-4.5a78.66906,78.66906,0,0,1,.08881-.14746A.49965.49965,0,0,0,40.96283,36.81543Z"/></g></svg>