<svg xmlns="http://www.w3.org/2000/svg" viewBox="0 0 48 48"><defs><style>.cls-1{fill:#ff6c2c;}</style></defs><g id="Base_Icons" data-name="Base Icons"><path d="M29.5,19a10.52117,10.52117,0,1,0-3.90576,8.16l2.89014,3.17688a.50049.50049,0,1,0,.74023-.67382l-2.88318-3.16925A10.464,10.464,0,0,0,29.5,19Zm-20,0A9.5,9.5,0,1,1,19,28.5,9.51081,9.51081,0,0,1,9.5,19Z"/><path d="M19,6.5A12.51408,12.51408,0,0,1,31.5,19a.5.5,0,0,0,1,0A13.51476,13.51476,0,0,0,19,5.5a.5.5,0,0,0,0,1Z"/></g><g id="Sub_Icons" data-name="Sub Icons"><path class="cls-1" d="M36,30.5c-3.30859,0-6,2.25391-6,5.02539a4.51639,4.51639,0,0,0,1.22266,3.03809l-1.165,2.20312A.49943.49943,0,0,0,30.5,41.5a.506.506,0,0,0,.23535-.05859L33.36621,40.041A6.98143,6.98143,0,0,0,36,40.55176c3.30859,0,6-2.25488,6-5.02637S39.30859,30.5,36,30.5Zm0,9.05176a5.94948,5.94948,0,0,1-2.46-.52442.4893.4893,0,0,0-.50488.05664l-1.332.709.502-.94824a.45175.45175,0,0,0,.03515-.03907.50046.50046,0,0,0-.04492-.67773A3.5977,3.5977,0,0,1,31,35.52539C31,33.30566,33.24316,31.5,36,31.5s5,1.80566,5,4.02539S38.75684,39.55176,36,39.55176Z"/><path class="cls-1" d="M38,35H34a.5.5,0,0,0,0,1h4a.5.5,0,0,0,0-1Z"/></g></svg>