<svg xmlns="http://www.w3.org/2000/svg" viewBox="0 0 48 48"><defs><style>.cls-1{fill:#ff6c2c;}</style></defs><g id="Base_Icons" data-name="Base Icons"><path d="M39.5,12h-21a.5.5,0,0,1,0-1h21a.5.5,0,0,1,0,1Z"/><path d="M39.5,25h-21a.5.5,0,0,1,0-1h21a.5.5,0,0,1,0,1Z"/><path d="M26.5,38h-8a.5.5,0,0,1,0-1h8a.5.5,0,0,1,0,1Z"/><path d="M9.25,41.5a.50119.50119,0,0,1-.39355-.19141l-2.75-3.5a.50011.50011,0,1,1,.7871-.61718l2.34766,2.9873,4.8584-6.47851a.50019.50019,0,0,1,.80078.5996l-5.25,7a.50006.50006,0,0,1-.39453.2002Z"/><path d="M9.25,28.5a.50119.50119,0,0,1-.39355-.19141l-2.75-3.5a.50011.50011,0,1,1,.7871-.61718l2.34766,2.9873,4.8584-6.47851a.50019.50019,0,1,1,.80078.5996l-5.25,7a.50006.50006,0,0,1-.39453.2002Z"/><path d="M9.25,15.5a.50119.50119,0,0,1-.39355-.19141l-2.75-3.5a.50011.50011,0,0,1,.7871-.61718l2.34766,2.9873,4.8584-6.47851a.50019.50019,0,0,1,.80078.5996l-5.25,7a.50006.50006,0,0,1-.39453.2002Z"/></g><g id="Sub_Icons" data-name="Sub Icons"><path class="cls-1" d="M40.14551,40.5h-8.291A1.85673,1.85673,0,0,1,30,38.64551v-5.291A1.85673,1.85673,0,0,1,31.85449,31.5h8.291A1.85673,1.85673,0,0,1,42,33.35449v5.291A1.85673,1.85673,0,0,1,40.14551,40.5Zm-8.291-8A.85606.85606,0,0,0,31,33.35449v5.291a.85606.85606,0,0,0,.85449.85449h8.291A.85606.85606,0,0,0,41,38.64551v-5.291A.85606.85606,0,0,0,40.14551,32.5Z"/><path class="cls-1" d="M36,36.5a.49869.49869,0,0,1-.248-.06543l-3.5-2a.50038.50038,0,1,1,.4961-.86914L36,35.42383l3.252-1.8584a.50038.50038,0,0,1,.4961.86914l-3.5,2A.49869.49869,0,0,1,36,36.5Z"/></g></svg>