<svg xmlns="http://www.w3.org/2000/svg" viewBox="0 0 48 48"><defs><style>.cls-1{fill:#ff6c2c;}</style></defs><g id="Base_Icons" data-name="Base Icons"><path d="M8.5,27a.49971.49971,0,0,0-.5.5v12a.5.5,0,0,0,1,0v-12A.49971.49971,0,0,0,8.5,27Z"/><path d="M12.46387,20a.4997.4997,0,0,0-.5.5v19a.5.5,0,0,0,1,0v-19A.49972.49972,0,0,0,12.46387,20Z"/><path d="M16.5,20a.49971.49971,0,0,0-.5.5v19a.5.5,0,0,0,1,0v-19A.49971.49971,0,0,0,16.5,20Z"/><path d="M20.5,8a.49971.49971,0,0,0-.5.5v31a.5.5,0,0,0,1,0V8.5A.49971.49971,0,0,0,20.5,8Z"/><path d="M32.5,28a.49971.49971,0,0,0,.5-.5v-12a.5.5,0,0,0-1,0v12A.49971.49971,0,0,0,32.5,28Z"/><path d="M24.5,24.90918a.49971.49971,0,0,0-.5.5V39.5a.5.5,0,0,0,1,0V25.40918A.49971.49971,0,0,0,24.5,24.90918Z"/><path d="M28.5,18a.49971.49971,0,0,0-.5.5v13a.5.5,0,0,0,1,0v-13A.49971.49971,0,0,0,28.5,18Z"/><path d="M36.5,28a.49971.49971,0,0,0,.5-.5v-2a.5.5,0,0,0-1,0v2A.49971.49971,0,0,0,36.5,28Z"/><path d="M40.5,28a.49971.49971,0,0,0,.5-.5v-5a.5.5,0,0,0-1,0v5A.49971.49971,0,0,0,40.5,28Z"/></g><g id="Sub_Icons" data-name="Sub Icons"><path class="cls-1" d="M36,36a3,3,0,1,0-3-3A3.00328,3.00328,0,0,0,36,36Zm0-5a2,2,0,1,1-2,2A2.0026,2.0026,0,0,1,36,31Z"/><path class="cls-1" d="M41.5,38a.49971.49971,0,0,0-.5.5v2.001a.49929.49929,0,0,1-.499.499H31.499A.49929.49929,0,0,1,31,40.501V38.5a.5.5,0,0,0-1,0v2.001A1.50122,1.50122,0,0,0,31.499,42h9.002A1.50122,1.50122,0,0,0,42,40.501V38.5A.49971.49971,0,0,0,41.5,38Z"/><path class="cls-1" d="M16,9.5c-.06226,0-.12091.01276-.1817.01837l-.871-1.742A.5011.5011,0,0,0,14.5,7.5h-5a.49878.49878,0,0,0-.44141.26562L8.13226,9.51337C8.08771,9.51038,8.04529,9.5,8,9.5a2.00764,2.00764,0,1,0,1.09558.33026L9.80078,8.5H11.5v4.071a2,2,0,1,0,1,0V8.5h1.69141l.67669,1.35413A1.99667,1.99667,0,1,0,16,9.5Zm-8,3a1,1,0,1,1,1-1A1.00067,1.00067,0,0,1,8,12.5Zm5,2a1,1,0,1,1-1-1A1.00067,1.00067,0,0,1,13,14.5Zm3-2a1,1,0,1,1,1-1A1.00067,1.00067,0,0,1,16,12.5Z"/></g></svg>