<svg xmlns="http://www.w3.org/2000/svg" viewBox="0 0 48 48"><defs><style>.cls-1{fill:#ff6c2c;}</style></defs><g id="Base_Icons" data-name="Base Icons"><path d="M10.5,29.86426a.49989.49989,0,0,1-.4043-.79492L18.62207,17.3877a.498.498,0,0,1,.68848-.11622l9.49609,6.55079L37.06445,9.11914a.49979.49979,0,1,1,.8711.49024L29.40918,24.79a.49872.49872,0,0,1-.71973.166l-9.5459-6.585L10.9043,29.65918A.50105.50105,0,0,1,10.5,29.86426Z"/><path d="M26,36H6.5a.49971.49971,0,0,1-.5-.5V9A.5.5,0,0,1,7,9V35H26a.5.5,0,0,1,0,1Z"/></g><g id="Sub_Icons" data-name="Sub Icons"><path class="cls-1" d="M40.14551,40.5h-8.291A1.85673,1.85673,0,0,1,30,38.64551v-5.291A1.85673,1.85673,0,0,1,31.85449,31.5h8.291A1.85673,1.85673,0,0,1,42,33.35449v5.291A1.85673,1.85673,0,0,1,40.14551,40.5Zm-8.291-8A.85606.85606,0,0,0,31,33.35449v5.291a.85606.85606,0,0,0,.85449.85449h8.291A.85606.85606,0,0,0,41,38.64551v-5.291A.85606.85606,0,0,0,40.14551,32.5Z"/><path class="cls-1" d="M36,36.5a.49869.49869,0,0,1-.248-.06543l-3.5-2a.50038.50038,0,1,1,.4961-.86914L36,35.42383l3.252-1.8584a.50038.50038,0,0,1,.4961.86914l-3.5,2A.49869.49869,0,0,1,36,36.5Z"/></g></svg>