<svg xmlns="http://www.w3.org/2000/svg" viewBox="0 0 48 48"><defs><style>.cls-1{fill:#ff6c2c;}</style></defs><g id="Base_Icons" data-name="Base Icons"><path d="M9.5127,30H26a.5.5,0,0,0,0-1H9.5127a.5.5,0,0,0,0,1Z"/><path d="M41.5,10H13.72266a.5.5,0,1,0,0,1H41.5a.501.501,0,0,1,.5.5v17a.5.5,0,0,0,1,0v-17A1.50164,1.50164,0,0,0,41.5,10Z"/><path d="M26.68555,37H6.5a.501.501,0,0,1-.5-.5V14.5498a.5.5,0,1,0-1,0V36.5A1.50164,1.50164,0,0,0,6.5,38H26.68555a.5.5,0,1,0,0-1Z"/><path d="M5.14941,10.84961a.4827.4827,0,0,0,.7002,0A.35936.35936,0,0,0,5.96,10.68945.40093.40093,0,0,0,6,10.5a.47.47,0,0,0-.15039-.35059A.34975.34975,0,0,0,5.68945,10.04a.49189.49189,0,0,0-.54.10937A.4727.4727,0,0,0,5,10.5a.40093.40093,0,0,0,.04.18945A.34975.34975,0,0,0,5.14941,10.84961Z"/><path d="M7.88965,10.84961A.36479.36479,0,0,0,8.0498,10.96a.4287.4287,0,0,0,.19043.04.401.401,0,0,0,.18946-.04.53712.53712,0,0,0,.27051-.27051.41308.41308,0,0,0,.04-.18945.47365.47365,0,0,0-.15039-.35059.48757.48757,0,0,0-.54-.10937.35488.35488,0,0,0-.16015.10937A.47271.47271,0,0,0,7.74023,10.5a.40093.40093,0,0,0,.04.18945A.3497.3497,0,0,0,7.88965,10.84961Z"/><path d="M10.62988,10.84961A.482.482,0,0,0,10.97949,11a.4685.4685,0,0,0,.35059-.15039.34975.34975,0,0,0,.10937-.16016.40081.40081,0,0,0,.04-.18945.4727.4727,0,0,0-.14941-.35059.35491.35491,0,0,0-.16016-.10937.49507.49507,0,0,0-.54.10937.47365.47365,0,0,0-.15039.35059.413.413,0,0,0,.04.18945A.35936.35936,0,0,0,10.62988,10.84961Z"/><path d="M10.01074,24H38.002A.9986.9986,0,0,0,39,23.002V17.99414a.9986.9986,0,0,0-.998-.99805H10.01074a.99859.99859,0,0,0-.998.99805V23.002A.99859.99859,0,0,0,10.01074,24ZM38,17.99414,38.002,23H10.0127l-.002-5.00391Z"/></g><g id="Sub_Icons" data-name="Sub Icons"><path class="cls-1" d="M38.166,31.99805a1.34635,1.34635,0,0,0-.59766-.34864l-5.873-1.60156a1.342,1.342,0,0,0-1.64746,1.64844l1.60156,5.873a1.34582,1.34582,0,0,0,.34668.59472l3.68848,3.68946a.49995.49995,0,0,0,.707-.707l-3.69043-3.6914a.33775.33775,0,0,1-.08691-.15039l-.62079-2.27564,3.03528-3.0354,2.275.62061a.33835.33835,0,0,1,.15332.08886l3.68945,3.68848a.49995.49995,0,0,0,.707-.707ZM31.69043,33.918l-.67773-2.48438a.339.339,0,0,1,.08789-.333.349.349,0,0,1,.332-.08789l2.48517.678Z"/><path class="cls-1" d="M37.29492,36.58789a.49995.49995,0,0,0-.707.707l1.7832,1.7832a.49995.49995,0,0,0,.707-.707Z"/></g></svg>