<svg xmlns="http://www.w3.org/2000/svg" viewBox="0 0 48 48"><defs><style>.cls-1{fill:none;stroke:#000;stroke-linecap:round;stroke-linejoin:round;}.cls-2{fill:#ff6c2c;}</style></defs><g id="Base_Icons" data-name="Base Icons"><path class="cls-1" d="M19.21128,6.80321A37.30571,37.30571,0,0,1,24,6.5c9.665,0,17.5,3.58172,17.5,8s-7.835,8-17.5,8c-6.12407,0-11.51343-1.438-14.64037-3.61574"/><path class="cls-1" d="M27.35619,41.353C26.27,41.44948,25.1479,41.5,24,41.5c-9.665,0-17.5-3.58172-17.5-8V23.50685"/><line class="cls-1" x1="41.5" y1="14.5" x2="41.5" y2="24.66504"/><path class="cls-1" d="M27.3562,32.01969c-1.08621.09645-2.2083.147-3.3562.147-9.665,0-17.5-3.58173-17.5-8"/><path class="cls-1" d="M41.5,24.16667a4.85513,4.85513,0,0,1-1.75766,3.49849"/></g><g id="Sub_Icons" data-name="Sub Icons"><path class="cls-2" d="M36.03809,42a.49842.49842,0,0,1-.35352-.14648l-3.68848-3.68946a1.34582,1.34582,0,0,1-.34668-.59472l-1.60156-5.873a1.342,1.342,0,0,1,1.64746-1.64844l5.873,1.60156a1.34635,1.34635,0,0,1,.59766.34864l3.6875,3.68652a.49995.49995,0,0,1-.707.707L37.457,32.70312a.33835.33835,0,0,0-.15332-.08886L31.43262,31.0127a.34371.34371,0,0,0-.332.08789.339.339,0,0,0-.08789.333l1.60156,5.8711a.33775.33775,0,0,0,.08691.15039l3.69043,3.6914A.5.5,0,0,1,36.03809,42Z"/><path class="cls-2" d="M31.47656,35.33887a.5.5,0,0,1-.35351-.85352l3.3623-3.3623a.49995.49995,0,0,1,.707.707l-3.3623,3.3623A.49839.49839,0,0,1,31.47656,35.33887Z"/><path class="cls-2" d="M38.72461,39.22461a.49839.49839,0,0,1-.35352-.14649l-1.7832-1.7832a.49995.49995,0,0,1,.707-.707l1.7832,1.7832a.5.5,0,0,1-.35351.85352Z"/><path class="cls-2" d="M11.76074,16H10.23926a.97956.97956,0,0,1-.98731-.96875,3.463,3.463,0,0,1-1.0332-.55078.97138.97138,0,0,1-1.32129-.34082L6.13672,12.875a.94757.94757,0,0,1-.10352-.74023.9615.9615,0,0,1,.46875-.59571A1.91956,1.91956,0,0,1,6.44238,11a4.30548,4.30548,0,0,1,.043-.59766.749.749,0,0,1-.45215-.53711A.94464.94464,0,0,1,6.13672,9.126l.75976-1.26563A1.00621,1.00621,0,0,1,8.2373,7.50977a4.3819,4.3819,0,0,1,1.04786-.585A.92123.92123,0,0,1,10.23926,6h1.52148a.97956.97956,0,0,1,.98731.96875,3.463,3.463,0,0,1,1.0332.55078.97357.97357,0,0,1,1.32129.34082L15.86328,9.125a.94757.94757,0,0,1,.10352.74023.9615.9615,0,0,1-.46875.59571A1.91956,1.91956,0,0,1,15.55762,11a4.11268,4.11268,0,0,1-.03711.55176.9621.9621,0,0,1,.44629.583.94464.94464,0,0,1-.10352.73925l-.75976,1.2666a1.00648,1.00648,0,0,1-1.33887.35157,4.4966,4.4966,0,0,1-1.04981.583A.92123.92123,0,0,1,11.76074,16ZM8.24707,13.49121a.95964.95964,0,0,1,.56934.18652,3.56748,3.56748,0,0,0,.834.46778.95469.95469,0,0,1,.60156.88476L11.76074,15a.916.916,0,0,1,.58985-.85547,3.55326,3.55326,0,0,0,.831-.46484.98487.98487,0,0,1,1.06543-.06348l.73633-1.21973a.94113.94113,0,0,1-.459-.93847,3.16813,3.16813,0,0,0,0-.915.946.946,0,0,1,.48731-.95606L14.24512,8.375a.96786.96786,0,0,1-1.06153-.05273,3.56748,3.56748,0,0,0-.834-.46778.95469.95469,0,0,1-.60156-.88476L10.23926,7a.916.916,0,0,1-.58985.85547,3.55326,3.55326,0,0,0-.831.46484.98681.98681,0,0,1-1.06543.06348L6.99414,9.64062a.83666.83666,0,0,1,.48145.90137,3.16813,3.16813,0,0,0,0,.915.946.946,0,0,1-.48731.95606l.7666,1.21191A.972.972,0,0,1,8.24707,13.49121Zm6.75879-1.13183v0Z"/><path class="cls-2" d="M10.99609,13.13574a2.13581,2.13581,0,1,1,1.85352-1.06738h0A2.13811,2.13811,0,0,1,10.99609,13.13574ZM11.002,9.86426a1.13628,1.13628,0,1,0,.98243,1.7041h0a1.1352,1.1352,0,0,0-.98243-1.7041Zm1.415,1.9541h0Z"/></g></svg>