<svg xmlns="http://www.w3.org/2000/svg" viewBox="0 0 48 48"><defs><style>.cls-1{fill:#ff6c2c;}</style></defs><g id="Base_Icons" data-name="Base Icons"><path d="M40.49707,7H7.50293A1.50414,1.50414,0,0,0,6,8.50293V21.47949a.48717.48717,0,0,0,.06531.2334,5.87638,5.87638,0,0,0,2.94714,4.22546A.47628.47628,0,0,0,9,26V39.49707A1.50414,1.50414,0,0,0,10.50293,41H37.49707A1.50414,1.50414,0,0,0,39,39.49707V26a.46856.46856,0,0,0-.01428-.07086,5.87533,5.87533,0,0,0,2.94848-4.21552A.48738.48738,0,0,0,42,21.47949V8.50293A1.50414,1.50414,0,0,0,40.49707,7ZM38,39.49707A.50347.50347,0,0,1,37.49707,40H10.50293A.50347.50347,0,0,1,10,39.49707V26.39539a6.46607,6.46607,0,0,0,2.206.39074A6.22969,6.22969,0,0,0,17.928,23.18439,6.65011,6.65011,0,0,0,24,26.78613a6.65973,6.65973,0,0,0,6.03589-3.53277,6.27259,6.27259,0,0,0,5.72095,3.53277A6.53961,6.53961,0,0,0,38,26.38708Z"/></g><g id="Sub_Icons" data-name="Sub Icons"><path class="cls-1" d="M35.75684,25.78613a5.09937,5.09937,0,0,1-5.19507-4.43622c.01233-.14666.02514-.29327.02514-.44268V17.14258a.5.5,0,0,0-1,0v3.51953a.48627.48627,0,0,0-.07324.24512,5.57591,5.57591,0,0,0,.03095.57489A5.38012,5.38012,0,0,1,24,25.78613c-3.08105,0-5.58691-2.18847-5.58691-4.8789V17.14258a.5.5,0,0,0-1,0v3.76465a5.05664,5.05664,0,0,1-5.207,4.8789A5.05575,5.05575,0,0,1,7,20.90723V8.50293A.50347.50347,0,0,1,7.50293,8H40.49707A.50347.50347,0,0,1,41,8.50293v12.4043A5.07681,5.07681,0,0,1,35.75684,25.78613Z"/></g></svg>