<svg viewBox="0 0 1706 181" version="1.1" xmlns="http://www.w3.org/2000/svg"><path d="M67.268,44.476l50.851,0l-7.875,30.149c-1.203,4.202 -3.453,7.577 -6.75,10.125c-3.303,2.552 -7.127,3.827 -11.476,3.827l-23.625,0c-5.399,0 -10.163,1.572 -14.287,4.724c-4.128,3.151 -7.013,7.425 -8.663,12.824c-1.052,4.051 -1.163,7.875 -0.337,11.476c0.822,3.601 2.285,6.788 4.388,9.562c2.099,2.778 4.798,4.989 8.099,6.638c3.298,1.652 6.898,2.473 10.8,2.473l14.401,0c2.7,0 4.91,1.091 6.637,3.264c1.723,2.177 2.21,4.611 1.462,7.313l-9,33.298l-15.75,0c-10.8,0 -20.738,-2.361 -29.813,-7.086c-9.078,-4.726 -16.614,-10.986 -22.612,-18.789c-6,-7.795 -10.091,-16.684 -12.263,-26.661c-2.175,-9.974 -1.911,-20.211 0.789,-30.714l0.899,-3.375c1.948,-7.197 4.984,-13.836 9.112,-19.911c4.124,-6.075 9,-11.25 14.625,-15.526c5.625,-4.274 11.886,-7.611 18.789,-10.01c6.896,-2.4 14.097,-3.601 21.599,-3.601"/><path d="M92.916,180.15l44.326,-166.049c1.198,-4.198 3.448,-7.573 6.75,-10.125c3.297,-2.549 7.122,-3.826 11.474,-3.826l47.026,0c10.799,0 20.735,2.364 29.813,7.088c9.072,4.724 16.611,10.99 22.611,18.787c5.998,7.801 10.125,16.69 12.375,26.663c2.25,9.978 1.948,20.215 -0.9,30.712l-0.899,3.375c-1.951,7.201 -4.951,13.838 -9,19.913c-4.051,6.076 -8.889,11.288 -14.514,15.638c-5.625,4.351 -11.889,7.726 -18.787,10.125c-6.9,2.4 -14.102,3.599 -21.6,3.599l-40.724,0l8.099,-30.375c1.2,-4.05 3.45,-7.347 6.75,-9.9c3.297,-2.549 7.123,-3.824 11.475,-3.824l13.051,0c5.399,0 10.236,-1.649 14.512,-4.951c4.274,-3.297 7.087,-7.573 8.437,-12.825c1.048,-3.748 1.161,-7.425 0.337,-11.025c-0.826,-3.6 -2.287,-6.786 -4.387,-9.563c-2.102,-2.773 -4.802,-5.023 -8.1,-6.75c-3.3,-1.723 -6.901,-2.587 -10.799,-2.587l-25.201,0l-32.85,122.175c-1.202,4.051 -3.452,7.353 -6.75,9.901c-3.301,2.552 -7.053,3.824 -11.25,3.824l-31.275,0Z"/><path d="M373.489,91.5l0.675,-2.476c0.3,-1.197 0.112,-2.21 -0.562,-3.036c-0.675,-0.822 -1.614,-1.238 -2.813,-1.238l-73.125,0c-3.15,0 -6.001,-0.673 -8.55,-2.024c-2.553,-1.351 -4.651,-3.112 -6.3,-5.288c-1.653,-2.172 -2.778,-4.686 -3.375,-7.539c-0.601,-2.847 -0.528,-5.771 0.225,-8.774l4.5,-17.101l99,0c6.149,0 11.774,1.351 16.875,4.053c5.098,2.697 9.338,6.225 12.713,10.572c3.375,4.354 5.698,9.339 6.975,14.964c1.272,5.625 1.16,11.439 -0.338,17.437l-17.775,66.152c-1.8,6.75 -5.439,12.225 -10.913,16.423c-5.477,4.202 -11.737,6.3 -18.787,6.3l-73.125,-0.223c-6.451,0 -12.375,-1.386 -17.775,-4.164c-5.4,-2.774 -9.827,-6.448 -13.275,-11.024c-3.453,-4.575 -5.85,-9.823 -7.2,-15.75c-1.35,-5.924 -1.2,-11.962 0.45,-18.115l0.9,-3.375c1.047,-4.196 2.812,-8.099 5.288,-11.697c2.473,-3.601 5.361,-6.675 8.661,-9.226c3.299,-2.549 6.976,-4.535 11.026,-5.962c4.05,-1.424 8.325,-2.139 12.825,-2.139l61.425,0l-4.5,16.875c-1.203,4.05 -3.453,7.351 -6.75,9.899c-3.302,2.554 -7.053,3.827 -11.25,3.827l-27.45,0c-2.553,0 -4.201,1.276 -4.951,3.824c-0.449,1.653 -0.151,3.116 0.901,4.388c1.047,1.277 2.398,1.913 4.05,1.913l44.325,0c1.648,0 3.072,-0.452 4.275,-1.351c1.2,-0.899 1.948,-2.098 2.25,-3.601l0.45,-1.798l11.025,-40.726Z"/><path d="M504.439,44.476c10.947,0 20.959,2.361 30.037,7.087c9.074,4.725 16.611,10.989 22.612,18.788c5.997,7.801 10.087,16.727 12.263,26.774c2.172,10.052 1.835,20.328 -1.013,30.827l-11.25,42.298c-0.753,3.003 -2.362,5.399 -4.836,7.202c-2.476,1.798 -5.215,2.697 -8.214,2.697l-24.3,0c-2.85,0 -5.1,-1.085 -6.75,-3.26c-1.653,-2.174 -2.102,-4.615 -1.349,-7.312l13.5,-51.077c1.047,-3.747 1.16,-7.423 0.337,-11.024c-0.827,-3.601 -2.288,-6.785 -4.388,-9.563c-2.102,-2.774 -4.801,-5.024 -8.1,-6.75c-3.3,-1.722 -6.901,-2.586 -10.799,-2.586l-25.201,0l-21.825,81.673c-0.751,3.003 -2.363,5.399 -4.836,7.202c-2.476,1.798 -5.289,2.697 -8.438,2.697l-24.075,0c-2.701,0 -4.916,-1.085 -6.639,-3.26c-1.722,-2.174 -2.21,-4.615 -1.462,-7.312l33.301,-125.101l61.425,0Z"/><path d="M636.96,87.337c-1.8,1.428 -3.076,3.264 -3.825,5.514l-10.125,38.25c-0.6,2.102 -0.225,4.049 1.125,5.85c1.351,1.799 3.15,2.699 5.4,2.699l93.151,0l-7.2,26.775c-1.202,4.051 -3.452,7.353 -6.75,9.901c-3.301,2.552 -7.053,3.824 -11.25,3.824l-84.826,0c-6.153,0 -11.778,-1.31 -16.875,-3.938c-5.1,-2.622 -9.337,-6.148 -12.712,-10.573c-3.375,-4.424 -5.702,-9.451 -6.975,-15.076c-1.272,-5.625 -1.086,-11.362 0.562,-17.212l13.725,-51.076c1.497,-5.547 3.825,-10.648 6.976,-15.299c3.149,-4.648 6.862,-8.625 11.138,-11.926c4.274,-3.297 9.072,-5.884 14.399,-7.761c5.323,-1.875 10.835,-2.813 16.538,-2.813l60.074,0c6.15,0 11.775,1.35 16.875,4.049c5.098,2.701 9.338,6.227 12.713,10.576c3.375,4.352 5.659,9.375 6.862,15.074c1.2,5.703 1.047,11.475 -0.45,17.325l-4.05,15.3c-1.8,6.75 -5.439,12.189 -10.911,16.313c-5.479,4.126 -11.667,6.187 -18.563,6.187l-67.951,0l4.5,-16.65c1.049,-4.049 3.224,-7.348 6.526,-9.9c3.297,-2.549 7.122,-3.825 11.474,-3.825l27.451,0c2.549,0 4.197,-1.272 4.95,-3.824l0.899,-3.375c0.45,-1.65 0.148,-3.15 -0.899,-4.5c-1.052,-1.351 -2.401,-2.025 -4.051,-2.025l-41.85,0c-2.25,0 -4.275,0.713 -6.075,2.136"/><path d="M722.458,180.15l45.225,-169.875c0.749,-2.997 2.363,-5.435 4.837,-7.313c2.476,-1.872 5.288,-2.812 8.438,-2.812l24.076,0c2.847,0 5.135,1.089 6.861,3.264c1.723,2.176 2.212,4.611 1.463,7.312l-33.75,125.324c-1.652,6.603 -4.314,12.6 -7.987,18c-3.677,5.401 -8.026,10.013 -13.051,13.839c-5.027,3.823 -10.612,6.826 -16.762,9c-6.152,2.175 -12.6,3.261 -19.35,3.261"/><path d="M898.686,94.723c0.45,0.676 1.128,1.016 2.033,1.016l21.357,0c1.128,0 1.921,-0.619 2.374,-1.864l3.389,-12.882c0.226,-0.789 0.112,-1.525 -0.338,-2.205c-0.453,-0.676 -1.131,-1.017 -2.035,-1.017l-21.358,0c-1.13,0 -1.921,0.624 -2.371,1.867l-3.391,12.881c-0.227,0.792 -0.113,1.526 0.34,2.204m24.915,50.851l4.746,-4.578l-4.068,-8.984c-0.905,-2.033 -2.431,-3.05 -4.576,-3.05l-37.121,0c-1.245,0 -2.091,0.621 -2.542,1.864l-3.39,12.882c-0.229,0.792 -0.114,1.526 0.338,2.202c0.452,0.68 1.13,1.018 2.035,1.018l41.019,0c1.242,0 2.428,-0.449 3.559,-1.354m75.174,-32.207c0.62,1.584 0.309,2.996 -0.933,4.238l-27.798,27.119l11.865,26.443c1.018,2.148 0.904,4.181 -0.338,6.103c-1.245,1.922 -3.052,2.879 -5.425,2.879l-23.39,0c-1.924,0 -3.73,-0.533 -5.425,-1.609c-1.694,-1.073 -2.94,-2.513 -3.729,-4.323l-1.186,-2.711c-2.6,2.711 -5.652,4.83 -9.152,6.356c-3.504,1.526 -7.234,2.287 -11.188,2.287l-53.054,0c-4.634,0 -8.872,-1.016 -12.713,-3.049c-3.842,-2.035 -7.034,-4.688 -9.576,-7.967c-2.542,-3.277 -4.296,-7.061 -5.254,-11.358c-0.963,-4.291 -0.822,-8.643 0.423,-13.051l7.458,-28.137c1.242,-4.292 3.247,-8.021 6.018,-11.186c2.766,-3.162 6.073,-5.594 9.915,-7.288c-0.905,-3.842 -0.735,-7.909 0.508,-12.206l5.425,-20.508c0.789,-3.052 2.061,-5.847 3.814,-8.39c1.751,-2.543 3.813,-4.746 6.186,-6.611c2.373,-1.865 5.028,-3.306 7.968,-4.322c2.937,-1.017 5.988,-1.525 9.152,-1.525l37.12,0c4.632,0 8.87,1.016 12.714,3.051c3.839,2.033 7.034,4.69 9.576,7.966c2.542,3.278 4.263,7.063 5.17,11.357c0.902,4.296 0.788,8.644 -0.34,13.05l-5.424,20.511c-0.453,1.583 -0.99,3.049 -1.61,4.406c-0.622,1.356 -1.33,2.657 -2.118,3.899c0.45,0.677 0.873,1.386 1.271,2.118c0.395,0.737 0.704,1.5 0.933,2.289l0.169,0.509c0.338,0.791 0.62,1.525 0.847,2.203l0.17,-0.17l2.543,-2.033c2.033,-1.808 4.292,-2.713 6.779,-2.713l28.985,0c1.806,0 3.022,0.791 3.644,2.373"/><path d="M1298.92,10.951l-32.4,120.15c-1.952,7.2 -4.95,13.836 -9,19.913c-4.05,6.073 -8.888,11.25 -14.513,15.524c-5.625,4.274 -11.89,7.615 -18.787,10.013c-6.902,2.4 -14.101,3.599 -21.6,3.599l-177.525,0l45.225,-169.875c0.748,-2.997 2.363,-5.435 4.838,-7.313c2.474,-1.872 5.287,-2.812 8.437,-2.812l24.075,0c2.848,0 5.136,1.125 6.863,3.375c1.723,2.25 2.211,4.725 1.462,7.426l-33.525,125.1l45.675,0l33.75,-125.776c0.75,-2.997 2.362,-5.435 4.838,-7.313c2.474,-1.872 5.21,-2.812 8.212,-2.812l24.3,0c2.847,0 5.097,1.125 6.75,3.375c1.65,2.25 2.099,4.725 1.35,7.426l-33.525,125.1l27.45,0c5.4,0 10.237,-1.611 14.513,-4.839c4.275,-3.222 7.087,-7.459 8.437,-12.712l29.025,-108.225c0.749,-2.997 2.363,-5.435 4.837,-7.313c2.476,-1.872 5.288,-2.812 8.438,-2.812l24.075,0c2.848,0 5.136,1.125 6.862,3.375c1.723,2.25 2.212,4.725 1.463,7.426"/><path d="M1330.19,112.201l-15.525,57.824c-0.752,3.003 -2.362,5.44 -4.837,7.312c-2.476,1.878 -5.288,2.813 -8.438,2.813l-24.075,0c-2.7,0 -4.914,-1.125 -6.637,-3.375c-1.722,-2.25 -2.212,-4.647 -1.463,-7.199l42.525,-159.301c0.749,-2.997 2.362,-5.435 4.838,-7.313c2.475,-1.872 5.287,-2.812 8.437,-2.812l34.875,0l-17.775,67.951l56.25,0l15.525,-57.826c0.749,-2.997 2.363,-5.435 4.837,-7.313c2.476,-1.872 5.21,-2.812 8.213,-2.812l35.325,0l-45.675,169.875c-0.752,3.003 -2.363,5.44 -4.837,7.312c-2.476,1.878 -5.213,2.813 -8.213,2.813l-24.3,0c-2.851,0 -5.101,-1.125 -6.75,-3.375c-1.652,-2.25 -2.103,-4.647 -1.35,-7.199l15.3,-57.375l-56.25,0Z"/><path d="M1429.87,169.351l45.45,-169.202l142.199,0c10.948,0 20.96,2.365 30.038,7.089c9.074,4.724 16.611,10.991 22.611,18.786c5.999,7.803 10.125,16.729 12.375,26.777c2.25,10.05 1.949,20.327 -0.899,30.824l-23.175,86.399c-0.752,3.003 -2.363,5.441 -4.837,7.313c-2.476,1.878 -5.288,2.812 -8.437,2.812l-24.075,0c-2.853,0 -5.141,-1.125 -6.863,-3.375c-1.727,-2.25 -2.215,-4.723 -1.464,-7.423l24.527,-90.899c1.047,-4.199 1.125,-8.362 0.223,-12.49c-0.899,-4.122 -2.587,-7.796 -5.062,-11.024c-2.474,-3.223 -5.55,-5.811 -9.224,-7.762c-3.679,-1.947 -7.762,-2.926 -12.262,-2.926l-10.351,0l-33.75,125.774c-0.753,3.003 -2.363,5.441 -4.837,7.313c-2.476,1.878 -5.215,2.812 -8.213,2.812l-24.301,0c-2.85,0 -5.1,-1.125 -6.75,-3.375c-1.652,-2.25 -2.101,-4.723 -1.348,-7.423l33.524,-125.101l-45.676,0l-33.75,125.774c-0.751,3.003 -2.361,5.441 -4.837,7.313c-2.475,1.878 -5.288,2.812 -8.437,2.812l-24.074,0c-2.853,0 -5.141,-1.125 -6.864,-3.375c-1.725,-2.25 -2.214,-4.723 -1.461,-7.423"/><path d="M1687.64,14.786l2.215,0c1.094,0 1.972,-0.284 2.635,-0.851c0.664,-0.567 0.995,-1.288 0.995,-2.164c0,-1.025 -0.295,-1.76 -0.882,-2.204c-0.587,-0.444 -1.517,-0.667 -2.789,-0.667l-2.174,0l0,5.886Zm8.9,-3.097c0,1.095 -0.29,2.061 -0.871,2.902c-0.581,0.841 -1.397,1.466 -2.451,1.877l4.881,8.1l-3.445,0l-4.246,-7.26l-2.768,0l0,7.26l-3.035,0l0,-18.272l5.353,0c2.268,0 3.934,0.445 4.993,1.333c1.059,0.889 1.589,2.242 1.589,4.06m-19.523,3.733c0,2.366 0.595,4.576 1.784,6.634c1.19,2.059 2.813,3.679 4.871,4.861c2.058,1.182 4.263,1.773 6.613,1.773c2.379,0 4.587,-0.594 6.624,-1.784c2.038,-1.189 3.654,-2.799 4.851,-4.829c1.197,-2.03 1.794,-4.248 1.794,-6.655c0,-2.379 -0.594,-4.587 -1.784,-6.624c-1.189,-2.036 -2.8,-3.653 -4.83,-4.85c-2.03,-1.197 -4.248,-1.795 -6.655,-1.795c-2.379,0 -4.586,0.595 -6.624,1.784c-2.037,1.19 -3.653,2.8 -4.849,4.83c-1.197,2.031 -1.795,4.25 -1.795,6.655m-2.153,0c0,-2.734 0.684,-5.297 2.05,-7.69c1.367,-2.393 3.248,-4.279 5.64,-5.661c2.392,-1.38 4.971,-2.071 7.731,-2.071c2.736,0 5.299,0.684 7.691,2.051c2.392,1.368 4.279,3.248 5.66,5.639c1.382,2.394 2.072,4.971 2.072,7.732c0,2.693 -0.664,5.223 -1.99,7.588c-1.325,2.365 -3.186,4.26 -5.578,5.68c-2.392,1.423 -5.011,2.133 -7.855,2.133c-2.829,0 -5.442,-0.708 -7.833,-2.122c-2.392,-1.415 -4.256,-3.305 -5.589,-5.671c-1.332,-2.364 -1.999,-4.901 -1.999,-7.608"/></svg>