<?xml version="1.0" encoding="utf-8"?>
<!-- Generator: Adobe Illustrator 21.0.0, SVG Export Plug-In . SVG Version: 6.00 Build 0)  -->
<svg version="1.1" id="Layer_1" xmlns="http://www.w3.org/2000/svg" xmlns:xlink="http://www.w3.org/1999/xlink" x="0px" y="0px"
	 viewBox="0 0 25 25" style="enable-background:new 0 0 25 25;" xml:space="preserve">
<style type="text/css">
	.st0{fill:#666666;}
</style>
<g>
	<g>
		<g>
			<path class="st0" d="M7.6,17.7h15.5c0.5,0,0.9,0.4,0.9,1v1.2c0,0.5-0.4,1-0.9,1H7.6c-0.6,0-0.9-0.4-0.9-1v-1.1
				C6.6,18.2,7,17.7,7.6,17.7z"/>
		</g>
		<g>
			<path class="st0" d="M7.6,10.9h15.5c0.5,0,0.9,0.4,0.9,1V13c0,0.5-0.4,1-0.9,1H7.6c-0.6,0-0.9-0.4-0.9-1v-1.1
				C6.6,11.4,7,10.9,7.6,10.9z"/>
		</g>
		<g>
			<path class="st0" d="M7.6,4.1h15.5c0.5,0,0.9,0.4,0.9,1v1.1c0,0.5-0.4,1-0.9,1H7.6c-0.6,0-0.9-0.5-0.9-1V5.1
				C6.6,4.6,7,4.1,7.6,4.1z"/>
		</g>
	</g>
	<g>
		<polygon class="st0" points="5.2,16.7 5.2,8.4 1,12.5 		"/>
	</g>
</g>
</svg>
