<?xml version="1.0" encoding="utf-8"?>
<!-- Generator: Adobe Illustrator 21.0.0, SVG Export Plug-In . SVG Version: 6.00 Build 0)  -->
<svg version="1.1" id="Layer_1" xmlns="http://www.w3.org/2000/svg" xmlns:xlink="http://www.w3.org/1999/xlink" x="0px" y="0px"
	 viewBox="0 0 25 25" style="enable-background:new 0 0 25 25;" xml:space="preserve">
<style type="text/css">
	.st0{fill:#666666;}
</style>
<g>
	<g>
		<g>
			<path class="st0" d="M17.4,7.3H1.9C1.5,7.3,1,6.9,1,6.3V5.1c0-0.5,0.4-1,0.9-1h15.5c0.6,0,0.9,0.4,0.9,1v1.1
				C18.4,6.8,18,7.3,17.4,7.3z"/>
		</g>
		<g>
			<path class="st0" d="M17.4,14.1H1.9c-0.5,0-0.9-0.4-0.9-1V12c0-0.5,0.4-1,0.9-1h15.5c0.6,0,0.9,0.4,0.9,1v1.1
				C18.4,13.6,18,14.1,17.4,14.1z"/>
		</g>
		<g>
			<path class="st0" d="M17.4,20.9H1.9c-0.5,0-0.9-0.4-0.9-1v-1.1c0-0.5,0.4-1,0.9-1h15.5c0.6,0,0.9,0.5,0.9,1v1.1
				C18.4,20.4,18,20.9,17.4,20.9z"/>
		</g>
	</g>
	<g>
		<polygon class="st0" points="19.9,8.3 19.9,16.6 24,12.5 		"/>
	</g>
</g>
</svg>
