<svg width="945" height="312" viewBox="0 0 945 312" fill="none" xmlns="http://www.w3.org/2000/svg">
<path fill-rule="evenodd" clip-rule="evenodd" d="M40.11 0H271.9C282.536 0.00265173 292.736 4.22969 300.256 11.7515C307.776 19.2733 312 29.4739 312 40.11V226.03L270.3 267.15L269.94 267.51L225.94 312H40.11C29.4722 312 19.27 307.774 11.7479 300.252C4.22586 292.73 0 282.528 0 271.89L0 40.1C0.00265173 29.4639 4.22969 19.2643 11.7515 11.7444C19.2733 4.22449 29.4739 -3.30558e-07 40.11 0V0Z" fill="#F1C40F"/>
<path fill-rule="evenodd" clip-rule="evenodd" d="M156.3 98.06C163.714 98.0587 171.056 99.5178 177.906 102.354C184.756 105.19 190.98 109.348 196.223 114.59C201.466 119.832 205.625 126.056 208.462 132.905C211.3 139.755 212.76 147.096 212.76 154.51V205.63C212.76 213.044 211.3 220.386 208.462 227.236C205.625 234.086 201.466 240.31 196.223 245.553C190.98 250.796 184.756 254.955 177.906 257.792C171.056 260.63 163.714 262.09 156.3 262.09C148.886 262.09 141.544 260.63 134.694 257.792C127.844 254.955 121.62 250.796 116.377 245.553C111.134 240.31 106.975 234.086 104.138 227.236C101.3 220.386 99.84 213.044 99.84 205.63V154.5C99.8426 139.529 105.791 125.173 116.377 114.587C126.963 104.001 141.319 98.0527 156.29 98.05L156.3 98.06Z" fill="black"/>
<path d="M277.23 90.03C277.23 83.4102 274.6 77.0615 269.919 72.3806C265.238 67.6997 258.89 65.07 252.27 65.07C245.65 65.07 239.302 67.6997 234.621 72.3806C229.94 77.0615 227.31 83.4102 227.31 90.03V105.19C227.31 111.81 229.94 118.158 234.621 122.839C239.302 127.52 245.65 130.15 252.27 130.15C258.89 130.15 265.238 127.52 269.919 122.839C274.6 118.158 277.23 111.81 277.23 105.19V90.03ZM85.58 90.03C85.58 86.7522 84.9344 83.5065 83.68 80.4782C82.4257 77.4499 80.5871 74.6984 78.2694 72.3806C75.9516 70.0629 73.2001 68.2243 70.1718 66.97C67.1435 65.7156 63.8978 65.07 60.62 65.07C57.3422 65.07 54.0965 65.7156 51.0682 66.97C48.0399 68.2243 45.2884 70.0629 42.9706 72.3806C40.6529 74.6984 38.8143 77.4499 37.56 80.4782C36.3056 83.5065 35.66 86.7522 35.66 90.03V105.19C35.66 111.81 38.2897 118.158 42.9706 122.839C47.6515 127.52 54.0002 130.15 60.62 130.15C67.2398 130.15 73.5885 127.52 78.2694 122.839C82.9503 118.158 85.58 111.81 85.58 105.19V90.03Z" fill="black"/>
<path fill-rule="evenodd" clip-rule="evenodd" d="M312.9 243.36V312H244.25L312.89 243.36H312.9Z" fill="black"/>
<path d="M418.44 175.48L411.13 182.8V206H390.8V98H411.11V157.84L415.05 152.77L434.53 129.92H458.93L431.43 161.63L461.33 206H437.98L418.44 175.48ZM463.12 167.26C463.12 159.71 464.58 152.98 467.48 147.08C470.206 141.372 474.563 136.601 480 133.37C485.48 130.13 491.83 128.52 499.05 128.52C509.32 128.52 517.68 131.66 524.15 137.94C530.67 144.22 534.3 152.75 535.05 163.54L535.19 168.74C535.19 180.41 531.93 189.78 525.42 196.86C518.9 203.89 510.16 207.41 499.19 207.41C488.22 207.41 479.46 203.89 472.89 196.86C466.38 189.83 463.12 180.26 463.12 168.17V167.26ZM483.44 168.73C483.44 175.95 484.8 181.48 487.52 185.33C490.24 189.13 494.13 191.03 499.19 191.03C504.12 191.03 507.96 189.15 510.72 185.4C513.49 181.6 514.87 175.56 514.87 167.26C514.87 160.18 513.49 154.7 510.72 150.81C507.96 146.91 504.07 144.97 499.05 144.97C494.08 144.97 490.24 146.91 487.52 150.81C484.8 154.65 483.44 160.62 483.44 168.73ZM590.35 206C589.317 203.848 588.632 201.546 588.32 199.18C583.39 204.66 576.99 207.41 569.12 207.41C561.67 207.41 555.48 205.25 550.56 200.94C548.209 198.933 546.333 196.429 545.069 193.608C543.804 190.787 543.183 187.72 543.25 184.63C543.25 176.56 546.22 170.38 552.17 166.06C558.17 161.75 566.82 159.57 578.12 159.52H587.47V155.16C587.47 151.65 586.56 148.84 584.73 146.73C582.95 144.62 580.11 143.56 576.23 143.56C572.8 143.56 570.1 144.38 568.13 146.02C566.21 147.66 565.25 149.92 565.25 152.77H544.93C544.93 148.37 546.29 144.29 549.01 140.54C551.73 136.79 555.57 133.86 560.54 131.75C565.837 129.53 571.537 128.43 577.28 128.52C586.65 128.52 594.08 130.88 599.57 135.62C605.1 140.31 607.87 146.92 607.87 155.44V188.42C607.91 195.64 608.92 201.1 610.89 204.81V206H590.35ZM573.55 191.87C576.55 191.87 579.32 191.21 581.85 189.9C584.221 188.693 586.178 186.806 587.47 184.48V171.41H579.87C569.71 171.41 564.29 174.92 563.64 181.95L563.57 183.15C563.57 185.68 564.46 187.77 566.24 189.41C568.02 191.05 570.46 191.87 573.55 191.87ZM643.48 206H623.08V98H643.48V206ZM680.29 206H659.89V129.92H680.29V206ZM658.7 110.23C658.7 107.19 659.7 104.68 661.72 102.71C663.79 100.74 666.58 99.76 670.09 99.76C673.56 99.76 676.33 100.74 678.39 102.71C679.407 103.674 680.209 104.843 680.744 106.139C681.278 107.435 681.532 108.829 681.49 110.23C681.49 113.33 680.43 115.86 678.32 117.83C676.26 119.8 673.52 120.78 670.09 120.78C666.67 120.78 663.9 119.8 661.79 117.83C660.768 116.853 659.965 115.67 659.432 114.36C658.9 113.051 658.65 111.643 658.7 110.23ZM719.98 111.22V129.92H732.98V144.82H719.98V182.8C719.98 185.6 720.52 187.62 721.6 188.84C722.67 190.06 724.74 190.67 727.78 190.67C730.03 190.67 732.03 190.51 733.76 190.18V205.58C729.774 206.8 725.628 207.416 721.46 207.41C707.21 207.41 699.94 200.21 699.66 185.82V144.82H688.55V129.92H699.65V111.22H719.98ZM771.27 177.24L785.34 129.92H807.14L776.54 217.82L774.86 221.82C770.31 231.76 762.81 236.72 752.36 236.72C749.312 236.708 746.281 236.26 743.36 235.39V220L746.46 220.07C750.3 220.07 753.16 219.49 755.03 218.32C756.95 217.14 758.45 215.2 759.53 212.48L761.93 206.22L735.27 129.93H757.14L771.27 177.25V177.24Z" fill="black"/>
</svg>
