<svg xmlns="http://www.w3.org/2000/svg" viewBox="0 0 282.94 289.38"><defs><style>.cls-1{fill:#179bd7;}.cls-2{fill:#e6e6e6;}.cls-3{fill:#293a4a;}.cls-4,.cls-5{fill:#fff;stroke-width:5px;}.cls-4{stroke:#cccccb;}.cls-4,.cls-5,.cls-6{stroke-linecap:round;stroke-linejoin:round;}.cls-5,.cls-6{stroke:#b3b4b4;}.cls-6{fill:none;stroke-width:3px;}.cls-7{fill:#b3b4b4;}.cls-8{fill:#f36c32;}</style></defs><title>logoAsset 216@1x</title><g id="Layer_2" data-name="Layer 2"><g id="Try_-_Getting_Started" data-name="Try - Getting Started"><path class="cls-1" d="M282.94,42.57a8.82,8.82,0,0,0-8.83-8.82H8.83A8.82,8.82,0,0,0,0,42.57v40H282.94Z"/><path class="cls-2" d="M0,82.57v198a8.82,8.82,0,0,0,8.83,8.82H274.11a8.82,8.82,0,0,0,8.83-8.82v-198Z"/><rect class="cls-3" x="54.44" width="26.13" height="65.28" rx="12"/><rect class="cls-3" x="202.36" width="26.13" height="65.28" rx="12"/><line class="cls-4" x1="62.2" y1="152.38" x2="62.2" y2="152.38"/><line class="cls-4" x1="101.88" y1="152.38" x2="101.88" y2="152.38"/><line class="cls-4" x1="141.56" y1="152.38" x2="141.56" y2="152.38"/><line class="cls-4" x1="181.24" y1="152.38" x2="181.24" y2="152.38"/><line class="cls-4" x1="220.92" y1="152.38" x2="220.92" y2="152.38"/><line class="cls-4" x1="260.59" y1="152.38" x2="260.59" y2="152.38"/><rect class="cls-5" x="22.53" y="151.25" width="238.6" height="111.73"/><line class="cls-6" x1="62.2" y1="151.25" x2="62.2" y2="189.25"/><line class="cls-6" x1="101.88" y1="151.25" x2="101.88" y2="189.25"/><line class="cls-6" x1="141.56" y1="151.25" x2="141.56" y2="189.25"/><line class="cls-6" x1="181.24" y1="151.25" x2="181.24" y2="189.25"/><line class="cls-6" x1="220.92" y1="151.25" x2="220.92" y2="189.25"/><line class="cls-6" x1="62.2" y1="188.12" x2="62.2" y2="226.11"/><line class="cls-6" x1="101.88" y1="188.12" x2="101.88" y2="226.11"/><line class="cls-6" x1="141.56" y1="188.12" x2="141.56" y2="226.11"/><line class="cls-6" x1="181.24" y1="188.12" x2="181.24" y2="226.11"/><line class="cls-6" x1="220.92" y1="188.12" x2="220.92" y2="226.11"/><line class="cls-6" x1="62.2" y1="224.98" x2="62.2" y2="262.98"/><line class="cls-6" x1="101.88" y1="224.98" x2="101.88" y2="262.98"/><line class="cls-6" x1="141.56" y1="224.98" x2="141.56" y2="262.98"/><line class="cls-6" x1="181.24" y1="224.98" x2="181.24" y2="262.98"/><line class="cls-6" x1="220.92" y1="224.98" x2="220.92" y2="262.98"/><line class="cls-6" x1="22.53" y1="189.25" x2="260.59" y2="189.25"/><line class="cls-6" x1="22.53" y1="226.11" x2="260.59" y2="226.11"/><rect class="cls-7" x="54.37" y="102.07" width="181.14" height="27.41" rx="6.11"/><rect class="cls-8" x="182.51" y="190.79" width="36.97" height="33.84"/></g></g></svg>