<?xml version="1.0" encoding="utf-8"?>
<!-- Generator: Adobe Illustrator 19.1.0, SVG Export Plug-In . SVG Version: 6.00 Build 0)  -->
<svg version="1.1" id="Layer_1" xmlns="http://www.w3.org/2000/svg" xmlns:xlink="http://www.w3.org/1999/xlink" x="0px" y="0px"
	 viewBox="0 0 98.6 96.3" style="enable-background:new 0 0 98.6 96.3;" xml:space="preserve">
<style type="text/css">
	.st0{fill:#C4122E;}
</style>
<path class="st0" d="M54.2,11.2c-3.7,0-7.1,0.3-10.2,0.8c-18.4,2.7-28.4,12.8-30.7,29.8l-1.6,12.9c-1.1,9,0.5,15.6,4.9,20.4
	c5,5.6,13.6,10.1,26.3,10.1h22.3c12.9,0,14.5-13.6,14.5-13.6H50c-4,0-7.9-0.4-10.7-1.4c-3.7-1.4-6-3.8-6.8-8.1
	c-0.3-1.7-0.2-5.5,0.1-8L34,42.8c0.5-2.9,1.4-6.1,1.7-7.1c1.1-2.7,2.9-5.5,5.8-7.5c1.7-1.2,5.7-3.6,15.6-3.6h16.5
	c11.5,0,13.6-13.6,13.6-13.5L54.2,11.2"/>
</svg>
