<svg xmlns="http://www.w3.org/2000/svg" width="88.712" height="81.898" viewBox="0 0 66.533868 61.423596"><clipPath id="a"><path d="M0 528h612V264H0z"/></clipPath><g clip-path="url(#a)" transform="translate(-391.632 -333.187)" fill="#c4122e"><path d="M426.062 333.196l-27.4-.01.057 1.877c.09 4.084 1.47 9.22 8.36 9.22h8.05l10.266-.004c10.685 0 16.38 3.51 14.76 15.44l-1.3 9.55c-1.59 12.356-10.44 14.163-18.26 14.163h-10.37l2.902-23.755c.43-3.417-1.296-9.018-7.785-9.018v.002h-8.977l-2.39 19.574-2.27 17.185c-.63 4.6 2.74 7.176 9.97 7.176l21.057-.003c21.44 0 27.23-7.75 30.183-12.613 1.61-2.78 2.745-6.178 3.395-10.107.14-.766 1.597-13.02 1.597-13.02.887-7.417-.5-13.058-4.22-17.253-4.957-5.547-13.98-8.414-27.625-8.414M188.68 358.63l-1.33 10.14c-.593 4.525-1.824 7.977-3.76 10.542-2.678 3.403-6.762 5.526-12.438 5.526h-3.322c-5.643 0-9.724-1.957-11.46-5.18-1.166-2.415-1.47-5.84-.872-10.397l1.322-10.13c.723-5.45 2.458-9.45 5.303-12.2 2.764-2.706 6.725-4 11.478-4h3.11c3.27 0 7.6.542 10.02 3.745 2.02 2.66 2.657 6.58 1.96 11.956zm-11.235-26.836h-.026l-3.01.005c-21.55.22-32.81 9.18-35.18 26.33l-1.43 11.12c-.906 7.66.46 13.4 4.17 17.57 4.59 5.14 12.603 8.85 24.79 8.98h3.026c21.07-.215 32.31-8.91 34.956-24.855l.18-1.15 1.424-11.104c.945-7.963-.454-13.9-4.262-18.18-4.6-5.157-12.59-8.605-24.645-8.73m345.82 26.84l-1.34 10.14c-.587 4.526-1.813 7.978-3.75 10.543-2.68 3.402-6.765 5.525-12.44 5.525h-3.32c-5.65 0-9.727-1.957-11.46-5.18-1.17-2.415-1.47-5.84-.878-10.397l1.326-10.13c.72-5.447 2.46-9.446 5.3-12.203 2.76-2.705 6.72-4 11.483-4h3.103c3.268 0 7.6.543 10.018 3.746 2.016 2.66 2.657 6.58 1.96 11.953zm13.41-18.11c-4.6-5.154-12.59-8.603-24.646-8.725H512l-3.015.005c-21.543.223-32.805 9.18-35.175 26.333l-1.425 11.12c-.9 7.663.462 13.4 4.17 17.57 4.58 5.14 12.602 8.855 24.79 8.984h3.02c21.075-.213 32.32-8.91 34.968-24.853l.18-1.147 1.416-11.103c.942-7.964-.46-13.9-4.26-18.18m-174.45 18.11l-1.336 10.14c-.59 4.525-1.814 7.977-3.753 10.542-2.677 3.4-6.76 5.524-12.437 5.524h-3.328c-5.64 0-9.72-1.956-11.45-5.18-1.177-2.414-1.473-5.84-.876-10.396l1.32-10.13c.724-5.448 2.46-9.447 5.306-12.204 2.765-2.705 6.72-4 11.483-4h3.09c3.284 0 7.61.543 10.03 3.746 2.023 2.66 2.653 6.58 1.955 11.95zm-11.23-26.837h-.02l-3.02.006c-21.542.222-32.8 9.18-35.172 26.332l-1.428 11.12c-.9 7.663.46 13.4 4.172 17.57 4.58 5.14 12.603 8.855 24.783 8.984h3.024c21.073-.214 32.31-8.91 34.965-24.854l.18-1.147 1.42-11.104c.944-7.966-.457-13.9-4.265-18.18-4.59-5.16-12.587-8.608-24.643-8.73m-68.16 4.804l-23.66 26.84-16.63-26.57c-1.59-2.46-4.827-3.7-9.597-3.7h-7.506l-7.498 61.46h9.16c3.056 0 5.204-1.305 6.456-2.407a10.665 10.665 0 0 0 3.555-6.61l3.325-26.96 12.27 23.306c.545.87 2.04 2.835 4.002 2.85h.15c2.075-.02 3.81-1.934 4.355-2.578l18.612-23.472-4.444 35.848 8.832.012a9.7 9.7 0 0 0 6.455-2.404 10.74 10.74 0 0 0 3.547-6.616l6.507-52.434h-7.82c-4.626 0-8.016 1.155-10.078 3.437m-177.07-3.417c-3.066 0-5.845.26-8.476.656-15.296 2.278-23.53 10.626-25.48 24.764l-1.373 10.745c-.88 7.4.44 12.94 4.02 16.968 4.154 4.652 11.26 8.424 21.818 8.424h18.556c10.755 0 12.036-11.247 12.036-11.247h-24.59c-3.337-.028-6.56-.29-8.84-1.128-3.093-1.14-4.97-3.134-5.61-6.766-.252-1.43-.18-4.605.09-6.623l1.22-9.405c.367-2.405 1.1-5.086 1.454-5.952.91-2.243 2.368-4.558 4.77-6.243 1.4-.978 4.69-2.98 13.01-2.98h13.64c9.49 0 11.23-11.215 11.23-11.21h-27.46"/></g></svg>