<svg xmlns="http://www.w3.org/2000/svg" viewBox="0 0 382.5 153.75" height="153.75" width="382.5"><path d="M160.614 75.988l86.104-71.222s6.443-5.165 14.368.353c5.233 3.642 64.676 43.183 67.146 45.653 4.043 4.044.795 7.227.795 7.227L295.65 84.924s-3.57 3.17-10.35-1.406c-2.208-1.49-49.503-34.418-51.744-36.32-5.977-5.075-11.404-.704-11.404-.704l-49.386 38.903s-3.893 3.645-6.407 2.007c-1.756-1.143-6.085-4.472-8.172-6.123-2.063-1.786 2.426-5.292 2.426-5.292M42.375 75.603L140.57 2.286s6.163-4.527 13.16.353c4.776 3.328 38.815 27.138 41.553 29.308 4.653 3.69.795 7.226.795 7.226l-39.534 33.644s-4.28 3.47-9.143 0c-2.168-1.546-27.88-19.994-33.155-24.214-5.413-4.33-11.404.704-11.404.704L54.527 85.012s-4.817 3.843-7.297 1.67c-1.577-1.38-2.464-2.092-6.03-5.2-2.918-3.1 1.175-5.88 1.175-5.88" fill="#5ac4a8"/><path d="M39.566 112.06c4.68 4.363 6.98 10.047 6.98 16.81 0 14.81-10.857 22.957-24.946 22.957H3.458c-1.396 0-2.623-1.227-2.623-2.623v-40.96c0-1.395 1.227-2.622 2.623-2.622H21.6c7.216 0 13.293 2.077 17.966 6.437zm-27.1 4.7v23.928h9.23c7.682 0 13.023-3.847 13.023-11.916 0-7.715-5.653-12.01-13.023-12.01h-9.232M92.895 138.064c2.868-2.454 4.263-5.485 4.263-9.29 0-8.84-8.044-13.093-15.94-13.093-7.947 0-15.842 4.228-15.842 13.094s7.896 13.093 15.843 13.093c4.974 0 8.79-1.333 11.675-3.803zm-31.397 8.208c-5.268-4.617-7.947-10.51-7.947-17.497 0-15.552 13.302-24.233 27.67-24.233 14.435 0 27.763 8.578 27.763 24.233 0 15.58-13.364 24.33-27.764 24.33-7.818 0-14.464-2.224-19.722-6.833M133.77 151.827c-1.014 0-2.065-.89-2.345-1.446-8.92-17.764-17.626-34.738-20.836-41.374-.637-1.316.186-3.384 2.613-3.384h6.807c1.276 0 1.817.426 2.344 1.446l13.026 25.943 12.817-25.927c.517-1.268 1.445-1.422 2.352-1.46h7.045c2.042 0 2.767 2.36 2.15 3.52-1.04 1.943-12.11 23.9-20.324 41.235-.266.565-1.093 1.45-2.344 1.45h-3.307M167.548 108.245c0-1.396 1.227-2.623 2.622-2.623h38.403c1.395 0 2.62 1.227 2.62 2.623v5.992c0 1.395-1.225 2.622-2.62 2.622h-29.395v4.97h18.395c1.395 0 2.622 1.226 2.622 2.622v5.893c0 1.396-1.227 2.623-2.622 2.623h-18.395v7.72h31.162c1.395 0 2.623 1.227 2.623 2.623v5.894c0 1.396-1.228 2.623-2.623 2.623h-40.17c-1.395 0-2.622-1.227-2.622-2.623v-40.96M259.55 149.922c-4.206 2.142-8.934 3.182-14.12 3.182-14.317 0-27.377-8.838-27.377-24.234 0-15.385 13.038-24.328 27.376-24.328 8.89 0 17.753 3.336 23.13 10.698.728.996.65 2.135-.542 3.224-.654.598-4.034 2.917-5.184 3.637-1.15.72-2.818.837-3.595-.23-3.193-4.38-8.56-6.19-13.806-6.19-7.793 0-15.557 4.49-15.557 13.094 0 8.574 7.792 13.093 15.557 13.093 8.7 0 13.617-6.18 14.613-7.6.997-1.42 2.402-1.78 3.855-.777.677.465 4.912 3.33 5.587 3.968.674.637.97 1.78.23 2.94-2.58 4.056-5.954 7.375-10.17 9.524M316.134 138.064c2.867-2.454 4.26-5.485 4.26-9.29 0-8.84-8.043-13.093-15.936-13.093-7.95 0-15.843 4.228-15.843 13.094s7.895 13.093 15.843 13.093c4.975 0 8.79-1.333 11.676-3.803zm-31.398 8.208c-5.267-4.617-7.947-10.51-7.947-17.497 0-15.552 13.3-24.233 27.667-24.233 14.435 0 27.764 8.578 27.764 24.233 0 15.58-13.363 24.33-27.763 24.33-7.816 0-14.462-2.224-19.72-6.833M353.293 116.565H338.63c-1.395 0-2.623-1.228-2.623-2.623v-5.697c0-1.396 1.228-2.623 2.623-2.623h40.955c1.395 0 2.623 1.227 2.623 2.623v5.697c0 1.395-1.228 2.623-2.623 2.623h-14.662v32.64c0 1.395-1.228 2.622-2.624 2.622h-6.385c-1.395 0-2.623-1.227-2.623-2.623v-32.64" fill="#231f20"/></svg>
