<svg xmlns="http://www.w3.org/2000/svg" viewBox="0 0 47.92 47.92"><defs><style>.cls-1{fill:#336792;}.cls-2{fill:#fff;}.cls-3,.cls-6{fill:#e0e0e0;}.cls-4{fill:#bcbcbc;}.cls-5{fill:#d34231;}.cls-6{font-size:8.7px;font-family:NirmalaUI-Bold, Nirmala UI;font-weight:700;}</style></defs><g id="Layer_2" data-name="Layer 2"><g id="Layer_1-2" data-name="Layer 1"><path class="cls-1" d="M25,47.9h.18l.39,0,.19,0,.41,0,.27,0,.21,0,.32,0H27A24,24,0,0,0,47.53,28.27V28.2c0-.13.05-.26.07-.39a.59.59,0,0,0,0-.14l.06-.35,0-.22c0-.15,0-.3.05-.44s0-.23,0-.34,0-.14,0-.21l0-.33c0-.07,0-.14,0-.21s0-.23,0-.34a1.34,1.34,0,0,1,0-.2c0-.12,0-.24,0-.37a.86.86,0,0,1,0-.16V23.38c0-.19,0-.38,0-.56h0A23.92,23.92,0,0,0,46.17,15h0c-.07-.16-.14-.32-.2-.48l0-.09L45.75,14a2.29,2.29,0,0,1-.1-.23,2.1,2.1,0,0,1-.13-.26l-.18-.35L45.28,13,45,12.56l0,0a24.06,24.06,0,0,0-1.85-2.9l0,0-.31-.4c-.07-.09-.14-.17-.2-.26l-.16-.18-.25-.3a1.34,1.34,0,0,0-.11-.14c-.1-.11-.2-.23-.31-.34l-.08-.09-.36-.39,0,0c-.14-.15-.27-.29-.42-.43h0l-.42-.42,0,0L40,6.2,40,6.12l-.34-.3-.14-.12-.29-.25L39,5.3l-.25-.2-.41-.32,0,0A23.6,23.6,0,0,0,35.4,2.9l0,0-.45-.24-.13-.06-.35-.18-.26-.12L34,2.17,33.55,2l-.09,0L33,1.76h0A23.92,23.92,0,0,0,25.11,0h0l-.56,0H23.38l-.56,0h0A23.92,23.92,0,0,0,15,1.75h0l-.48.2-.09,0L14,2.17l-.23.11-.26.12-.35.18L13,2.64l-.45.24,0,0a23,23,0,0,0-2.9,1.86l0,0-.4.32-.26.2-.18.15-.3.25-.14.12L8,6.12l-.09.08-.39.36,0,0L7,7H7l-.28.28-.06.06-.27.29h0l-.27.29,0,0A24,24,0,0,0,5.39,39.1l0,0,.29.34,0,0,.28.33H6l.28.32.06.06.29.3,0,.06L7,40.9H7c.14.15.28.28.43.42l0,0,.39.36L8,41.8l.34.31.14.11.3.25.18.16.26.2.4.31,0,0A24.06,24.06,0,0,0,12.53,45l0,0,.45.24.13.06.35.18.26.13.23.1.39.18.09,0,.48.2h0a23.92,23.92,0,0,0,7.86,1.72h0l.56,0H25Z"/><rect class="cls-2" x="11.8" y="8.2" width="22.73" height="29.99"/><path d="M31.16,4.31H15.41a4.08,4.08,0,0,0-4.08,4.08V38.94A4.08,4.08,0,0,0,15.41,43H31.16a4.08,4.08,0,0,0,4.08-4.08V8.39A4.08,4.08,0,0,0,31.16,4.31ZM20.72,6.64a.2.2,0,0,1,.19-.19H25.6a.19.19,0,0,1,.19.19v.6a.19.19,0,0,1-.19.19H20.91a.2.2,0,0,1-.19-.19Zm-5.31,0a.34.34,0,1,1-.34.34A.34.34,0,0,1,15.41,6.6ZM26,40.44a.53.53,0,0,1-.53.53H21a.53.53,0,0,1-.53-.53v-.85a.53.53,0,0,1,.53-.53h4.44a.53.53,0,0,1,.53.53Zm8-3H12.58V8.86H34Z"/><rect class="cls-1" x="23.35" y="20.13" width="15.35" height="13.57"/><path class="cls-1" d="M38.7,14a2.35,2.35,0,0,0-2.34-2.35H17.46A2.35,2.35,0,0,0,15.12,14v3.34H38.7Z"/><path class="cls-3" d="M28.4,31.8H25.28V28.55h2.59a6.17,6.17,0,0,1,.39-1.49h-3V23.8h3.26v2.69a5.9,5.9,0,0,1,1.06-1.38V23.8h2.16a5.82,5.82,0,0,1,3.69,0h1.72v.93a5.69,5.69,0,0,1,1.53,1.81V17.36H15.12v14a2.35,2.35,0,0,0,2.34,2.35H29.83A5.69,5.69,0,0,1,28.4,31.8Zm5.52-12.74h3.25v3.25H33.92Zm-4.32,0h3.26v3.25H29.6Zm-4.32,0h3.26v3.25H25.28ZM19.9,31.8H16.65V28.55H19.9Zm0-4.74H16.65V23.8H19.9Zm0-4.75H16.65V19.06H19.9Zm4.32,9.49H21V28.55h3.25Zm0-4.74H21V23.8h3.25Zm0-4.75H21V19.06h3.25Z"/><path class="cls-1" d="M38.7,14a2.35,2.35,0,0,0-2.34-2.35H17.46A2.35,2.35,0,0,0,15.12,14v3.34H38.7Z"/><rect class="cls-4" x="16.65" y="19.06" width="3.26" height="3.26"/><rect class="cls-4" x="20.97" y="19.06" width="3.26" height="3.26"/><rect class="cls-4" x="25.28" y="19.06" width="3.26" height="3.26"/><rect class="cls-4" x="29.6" y="19.06" width="3.26" height="3.26"/><rect class="cls-5" x="33.92" y="19.06" width="3.26" height="3.26"/><rect class="cls-4" x="16.65" y="23.8" width="3.26" height="3.26"/><rect class="cls-4" x="20.97" y="23.8" width="3.26" height="3.26"/><path class="cls-4" d="M25.28,23.8v3.26h3a5,5,0,0,1,.28-.57V23.8Z"/><path class="cls-4" d="M29.6,25.11a5.89,5.89,0,0,1,2.16-1.31H29.6Z"/><path class="cls-5" d="M35.45,23.8a5.73,5.73,0,0,1,1.72.93V23.8Z"/><rect class="cls-4" x="16.65" y="28.55" width="3.26" height="3.26"/><rect class="cls-4" x="20.97" y="28.55" width="3.26" height="3.26"/><path class="cls-4" d="M25.28,31.8H28.4a5.72,5.72,0,0,1-.58-2.51,6,6,0,0,1,.05-.74H25.28Z"/><rect class="cls-2" x="17.35" y="13.73" width="1.85" height="1.85" rx="0.9"/><rect class="cls-2" x="34.62" y="13.73" width="1.85" height="1.85" rx="0.9"/><text class="cls-6" transform="translate(29.6 31.8) scale(0.97 1)">@</text><path class="cls-3" d="M28.4,31.8H25.28V28.55h2.59a6.17,6.17,0,0,1,.39-1.49h-3V23.8h3.26v2.69a5.9,5.9,0,0,1,1.06-1.38V23.8h2.16a5.82,5.82,0,0,1,3.69,0h1.72v.93a5.69,5.69,0,0,1,1.53,1.81V17.36H15.12v14a2.35,2.35,0,0,0,2.34,2.35H29.83A5.69,5.69,0,0,1,28.4,31.8Zm5.52-12.74h3.25v3.25H33.92Zm-4.32,0h3.26v3.25H29.6Zm-4.32,0h3.26v3.25H25.28ZM19.9,31.8H16.65V28.55H19.9Zm0-4.74H16.65V23.8H19.9Zm0-4.75H16.65V19.06H19.9Zm4.32,9.49H21V28.55h3.25Zm0-4.74H21V23.8h3.25Zm0-4.75H21V19.06h3.25Z"/><path d="M36.3,33.85H17.52A2.56,2.56,0,0,1,15,31.29V14.08a2.56,2.56,0,0,1,2.55-2.56H36.3a2.56,2.56,0,0,1,2.56,2.56V31.29A2.56,2.56,0,0,1,36.3,33.85Zm-18.78-22a2.25,2.25,0,0,0-2.25,2.25V31.29a2.25,2.25,0,0,0,2.25,2.25H36.3a2.25,2.25,0,0,0,2.25-2.25V14.08a2.25,2.25,0,0,0-2.25-2.25Z"/></g></g></svg>