<svg xmlns="http://www.w3.org/2000/svg" height="201.333" width="770.413"><path d="M186.284 0h26.027l34.792 99.108h.533L282.162 0h26.295v187.17h-27.09V73.346h-.534L254.01 153.79h-13.546l-26.56-80.444h-.534V187.17h-27.09V0M424.002 145.11c0 24.45-19.653 43.64-43.823 43.64s-43.83-19.19-43.83-43.64V0h27.096v142.484c0 13.144 7.17 19.453 16.732 19.453 9.558 0 16.732-6.31 16.732-19.453V0H424v145.11M450.83 0h26.025l40.904 112.773h.528V0h27.095v187.17h-25.5L478.448 74.66h-.53v112.51h-27.09V0M573.003 187.17h27.095V0h-27.095v187.17zM627.722 0h26.033l40.9 112.773h.532V0h27.087v187.17H696.78L655.34 74.66h-.533v112.51H627.72V0"/><path d="M157.173 167.29v-.71h-1.395l-1.163.913v-.508h-1.394v-3.862h-1.16v-3.556h-.698v-.71H150.2v4.47h-1.626v3.455h-1.744v-1.07l-.928.41-1.278.558h-.93v1.625h-1.86v-5.793h-1.393v-1.016h-1.395v-4.575l-1.393.002v4.574l-.697.305v5.337h-1.277l-1.278.56h-1.396l-1.162-.507h-2.09v-1.22h-1.397v1.93h-1.16v1.32h-.933v.864h-2.087l.004.002v-.56h-.935v-7.317h-.928v-4.98l-.582-.255v-3.304h-1.046v7.828h-.932v7.928h-.926v.66h-1.16v-.66h-.933v-4.168h-.698v-4.88h-.697v-15.443h-.465v-7.213h-1.162v9.852h-.93v20.022l-.697.307v1.523h-.926v-1.424h-.466v-2.64h-1.162v-1.627h-.93v3.05h-.696v.81h-.93v-1.522h-1.16v1.726h-1.628v1.726h-1.394v-4.674l-.583-.254v-5.03h-1.74v4.167l-1.164.508v5.843h-.693v-25.764h-.7v-10.055h-.696v8.53h-.93v17.785h-.696v.916h-.696v7.317h-.93v-2.54h-1.162v-11.789H91.41V144.02l-.58-.255v6.654h-1.743v11.891h-.698v2.237l-.93.407v5.132h-1.158v-5.64h-.7v-15.244h-.698v12.195h-1.16v6.504l-.695.307v-1.322h-1.63v.813h-.93v1.828h-.696v-1.93h-.93v-1.728H77.7v.916l-.35-.155v1.474l-.988.432v1.093l-1.13.493v-1.714H73.75v-1.22h-.698v-1.627H71.66v-1.627h-.7v-2.64H69.8V155.4h-1.162v7.723h-1.162v2.44l-.93.406v3.048h-.695v1.068h-.926v-6.047l-.7-.307v-6.197h-1.162v-6.61h-.7v-17.04h-1.16v14.195h-.7v10.776h-.928v.812h-.93v4.473h-1.393v5.946h-1.16v-.965h-1.163v-.813h-1.16v-2.033H52.14v-10.062h-1.163v-12.6h-1.394v10.67h-.93v-1.83h-1.16v-9.248l-.583-.253v-5.914h-1.044v8.202h-1.162v9.347h-.93v6.61h-.93v5.893h-.465v-2.338h-1.396v3.05h-1.627v-1.83h-1.16v3.456h-1.394v-2.338H35.41v.914h-1.163v1.424h-1.162v.66h-1.392v-1.78h-1.63v1.78h-2.088v-.763H26.81v.763h-2.087v-.865h-.934v-1.32h-1.162v-1.93h-1.395v1.22" fill="none" stroke="#3f0" stroke-width="1.501" stroke-linecap="round" stroke-linejoin="round"/><path d="M158.45 6.297c-2.433 3.644-8.54 3.664-8.54 3.664L151.488 6c-8.027 2.006-16.21 10.492-16.21 10.492l-.015-4.975-10.81 8.215 2.184-6.1-4.315 2.89c-5.246 3.11-11.197 4.363-11.197 4.363-9.006.558-21.876 11.42-21.876 11.42 1.563-4.03.438-12.333.438-12.333-7.925 15.512-23.023 22.49-25.186 23.372-2.168.878-13.547 6.085-23.885 15.536-10.33 9.44-13.614 25.228-13.614 25.228-.827 2.963-8.522 7.936-12.067 12.58-1.622 2.12-10.724 13.488-13.902 27.39-2.69 11.802.72 23.19.72 23.19s.597 4.31 3.87-3.39l1.36-.273s-1.663 3.598-.64 3.246c1.022-.347 6.896-6.68 11.707-12.034 4.815-5.36 21.21-18.53 35.98-19.484 0 0 10.022-3.783 17.447 2.025 0 0 4.896 6.06 12.463 5.305 0 0 .888-.248 3.307 1.393l-.142-3.16s8.69 5.1 17.81 1.494l-1.6-2.267s1.64-2.414 6.473.86l.286-2.155s8.588 4.576 13 4.428l-1.21-3.883s9.094-1.276 18.104-1.832c0 0 11.222-2.42 18.628 5.763l-.148-117.006"/><g fill="none" stroke="#000" stroke-linecap="round" stroke-linejoin="round"><path d="M20.674 186.095v-49.072M20.674 85.4V.42h137.38v185.675" stroke-width="1.501"/><path d="M20.686 186.083h136.9" stroke-width="1.525"/></g></svg>
