<svg xmlns="http://www.w3.org/2000/svg" height="550" width="417.16"><g fill="#35b56c"><path d="M414.396 26c7-11 0-26-13-26H187.395c-45 0-81 12-107 36s-42 58-46 103l-10 116c-4 45 5 79 28 103 22 24 56 36 101 36h49v-1c9.001-1 15.001-7 16.001-17l5-57c0-11-7-19-18.001-19h-27c-17 0-30-4-37-12-7-7-10-20-8-39l9-104c2-18 7-31 15-39s21-12 39-12h144.001c17 0 34-9 44-23l30-45"/><path d="M3.395 524c-8 11-1 26 12 26h217.001c45 0 81-12 108-36 26-24 41-58 45-102l11-117c3-45-6-79-28-103-23-24-56-36-101-36h-49v1c-10.001 1-15.001 7-16.001 17l-5 58c-1 10 7 18 17.001 18h27c18 0 30 4 37 12s10 21 9 39l-10 104c-1 19-6 32-14 39-9 8-22 12-40 12H76.395c-17 0-33 9-43 24l-30 44"/></g></svg>