<svg xmlns="http://www.w3.org/2000/svg" width="270.673" height="136.872" viewBox="0 0 203.005 102.654"><defs><clipPath id="a"><path d="M0 36h49v66.652H0zm0 0"/></clipPath><clipPath id="b"><path d="M53 53h47v49.652H53zm0 0"/></clipPath><clipPath id="c"><path d="M106 35h17v67.652h-17zm0 0"/></clipPath><clipPath id="d"><path d="M163 29h40.004v23H163zm0 0"/></clipPath></defs><g clip-path="url(#a)"><path d="M40.762 70.89c-2.348-1.245-4.996-2.124-7.875-2.613a51.673 51.673 0 0 0-8.555-.715c-2.328 0-4.68-.203-7-.597-2.254-.387-4.297-1.094-6.074-2.106-1.73-.985-3.16-2.36-4.254-4.094-1.078-1.707-1.62-3.97-1.62-6.7.05-2.41.608-4.468 1.663-6.13a12.58 12.58 0 0 1 4.148-4.065c1.727-1.038 3.72-1.804 5.922-2.272 3.75-.797 7.71-.946 11.746-.383 1.578.222 3.133.617 4.633 1.168a16.75 16.75 0 0 1 4.106 2.22 14.086 14.086 0 0 1 3.246 3.41l.51.753 3.79-1.594-.804-1.133a24.813 24.813 0 0 0-3.395-3.9 17.135 17.135 0 0 0-4.356-2.906c-1.625-.765-3.48-1.355-5.524-1.754-2.02-.39-4.375-.59-7-.59-2.52 0-5.12.29-7.73.86-2.65.578-5.106 1.54-7.3 2.848a16.61 16.61 0 0 0-5.497 5.308c-1.422 2.22-2.148 4.957-2.148 8.137 0 3.34.67 6.184 1.992 8.45 1.316 2.253 3.078 4.077 5.238 5.42 2.117 1.32 4.586 2.27 7.34 2.82 2.687.54 5.504.814 8.367.814 2.277 0 4.688.172 7.164.516 2.41.332 4.656 1.003 6.668 1.996 1.96.967 3.598 2.315 4.86 4.002 1.218 1.637 1.835 3.844 1.835 6.563 0 2.44-.598 4.523-1.77 6.195-1.21 1.723-2.785 3.145-4.68 4.227-1.933 1.105-4.12 1.922-6.508 2.418-2.425.508-4.824.765-7.132.765-3.872 0-7.7-.738-11.375-2.2a27.255 27.255 0 0 1-9.64-6.48l-.735-.765L0 91.402l.848.848c2.703 2.703 6.058 5.06 9.976 7 3.96 1.97 8.656 2.965 13.946 2.965 2.515 0 5.187-.285 7.937-.856 2.79-.575 5.41-1.56 7.78-2.93 2.41-1.39 4.415-3.207 5.962-5.407 1.59-2.257 2.394-5.082 2.394-8.398 0-3.36-.754-6.207-2.246-8.457-1.47-2.223-3.434-3.996-5.836-5.277" fill="#241f2b"/></g><g clip-path="url(#b)"><path d="M76.39 98.668c-2.734 0-5.23-.563-7.425-1.676a19.12 19.12 0 0 1-5.84-4.555c-1.66-1.906-2.977-4.136-3.918-6.628a24.93 24.93 0 0 1-1.594-7.755c0-2.43.453-4.91 1.336-7.38a21.664 21.664 0 0 1 3.835-6.667 20.342 20.342 0 0 1 5.985-4.817c2.277-1.22 4.84-1.838 7.62-1.838 2.614 0 5.083.578 7.337 1.718a20.016 20.016 0 0 1 5.98 4.606c1.684 1.91 3.03 4.14 4 6.633a21.28 21.28 0 0 1 1.457 7.745c0 2.425-.45 4.906-1.336 7.375a21.642 21.642 0 0 1-3.832 6.668 19.786 19.786 0 0 1-5.976 4.77c-2.278 1.195-4.844 1.8-7.63 1.8m16.58-37.375a24.322 24.322 0 0 0-7.165-5.695c-2.81-1.48-5.977-2.23-9.414-2.23-3.132 0-6.124.667-8.894 1.99a23.134 23.134 0 0 0-7.223 5.384c-2.04 2.25-3.67 4.9-4.855 7.875-1.188 2.977-1.79 6.153-1.79 9.438 0 3.1.556 6.14 1.653 9.027a25.735 25.735 0 0 0 4.626 7.78c1.985 2.294 4.4 4.165 7.172 5.568 2.797 1.414 5.926 2.164 9.293 2.222h.04c3.188-.058 6.203-.777 8.97-2.125a23.82 23.82 0 0 0 7.218-5.425c2.035-2.25 3.652-4.872 4.808-7.786a25.09 25.09 0 0 0 1.742-9.26c0-2.92-.54-5.892-1.597-8.837a25.42 25.42 0 0 0-4.58-7.927" fill="#241f2b"/></g><g clip-path="url(#c)"><path d="M119.78 97.563c-.667.167-1.257.292-1.75.374-.518.09-1.077.176-1.682.262-.56.077-1.11.12-1.64.12-1.337 0-2.32-.445-3.01-1.355-.76-1.004-1.132-2.004-1.132-3.05V35.577h-3.984v58.336c0 2.188.69 4.125 2.055 5.754 1.414 1.69 3.425 2.547 5.984 2.547.802 0 1.6-.047 2.368-.137.742-.09 1.407-.18 2.004-.27.61-.09 1.317-.23 2.102-.41l1.35-.312-1.772-3.746zm0 0" fill="#241f2b"/></g><path d="M136.977 57.38c-2.07 1.456-3.903 3.307-5.47 5.522v-8.836h-3.984v47.71h3.985V72.075a24.057 24.057 0 0 1 2.262-5.426 17.213 17.213 0 0 1 3.535-4.363c1.39-1.226 3.007-2.22 4.812-2.957 1.797-.738 3.828-1.168 6.03-1.277l1.06-.054v-3.93h-1.113c-4.25 0-7.99 1.114-11.117 3.313" fill="#241f2b"/><path d="M193.91 10.613l-33 35.676 41.473-19.134a33.46 33.46 0 0 0-8.473-16.543M169.426 0c-4.57 0-8.926.918-12.9 2.574L152.1 39.887l22.13-39.54A33.548 33.548 0 0 0 169.425 0" fill="#da3522"/><g clip-path="url(#d)"><path d="M202.715 29.21l-39.3 21.993 36.87-4.375a33.427 33.427 0 0 0 2.72-13.25c0-1.48-.107-2.937-.29-4.367" fill="#da3522"/></g><path d="M188.227 61.406a33.744 33.744 0 0 0 10.61-11.617l-34.56 6.858zm0 0M176.25.695L157.012 42.39l35.683-33.007A33.488 33.488 0 0 0 176.25.695M172.234 67.03a33.36 33.36 0 0 0 10.54-2.635l-19.36-2.297zm0 0M138.82 19.773a33.342 33.342 0 0 0-2.832 10.793l5.215 9.32zm0 0M153.617 3.953a33.738 33.738 0 0 0-11.832 10.567l4.867 24.503zm0 0" fill="#da3522"/></svg>
