<svg xmlns="http://www.w3.org/2000/svg" viewBox="0 0 471.79999 474.10001" id="svg2" width="471.8" height="474.1"><style id="style4">.st0{display:none}.st1{fill:#73cb0b}.st2{fill:#d9d9d9}</style><g id="Layer_2"><g id="g9"><path class="st1" d="M471.3 260.2v-42l-56.4-17.6-4.3-20.7 39.9-41-20.7-38.3-57.4 14.9-14.4-14.9 14.9-55.9-37.8-22.9-42 41.5-21.3-6.4L258 .6h-44.7L201.1 57l-23.9 6.4-38.8-41.5-38.3 21.8 16 54.8-16 16.5-56.4-14.9-21.8 37.8 41 41.5-6 20.7L.5 215.5 0 258.6l56.9 14.9 4.8 23.9-39.9 39.4 20.7 36.7 58.5-14.9 14.4 17-16 53.2 39.4 22.9 38.3-40.4 22.9 5.9 13.3 56.4 44.7.5 13.3-56.9 22.9-6.9 41 42.6 40.4-23.9-17.6-55.3 15.4-16 56.9 17.6 20.2-39.9-41-37.2 4.3-23.9 57.5-14.1zM235.6 348c-61.5 0-111.3-49.9-111.3-111.3 0-61.5 49.9-111.3 111.3-111.3s111.3 49.8 111.3 111.2c0 61.5-49.8 111.4-111.3 111.4z" id="path11" fill="#73cb0b"/><path class="st2" d="M471.8 138.1v-22.4l-30-9.3-2.3-11 21.2-21.8-11-20.4-30.6 7.9-7.6-7.9 7.9-29.7-20.1-12.2-22.4 22.1-11.3-3.4-7.4-30h-23.8l-6.5 30-12.7 3.4-20.7-22.1-20.4 11.6 8.5 29.2-8.5 8.8-30-7.9-11.6 20.1 21.8 22.1-3.1 11-30 8.2-.3 22.9 30.3 7.9 2.5 12.7-21.2 21 11 19.5 31.2-7.9 7.6 9.1-8.5 28.3 21 12.2 20.4-21.5 12.2 3.1 7.1 30 23.8.3 7.1-30.3 12.2-3.7 21.8 22.7 21.5-12.7-9.3-29.5 8.2-8.5 30.3 9.3 10.8-21.2-22-19.8 2.3-12.7 30.6-7.5zm-125.5 47.6c-33 0-59.8-26.8-59.8-59.8s26.8-59.8 59.8-59.8 59.8 26.8 59.8 59.8c0 33.1-26.8 59.8-59.8 59.8z" id="path13" fill="#d9d9d9"/></g></g></svg>