<svg width="290" height="180" viewBox="0 0 290 180" fill="none" xmlns="http://www.w3.org/2000/svg">
<g id="chartperson">
<g id="Frame 117">
<rect x="5.5" y="5.5" width="242.505" height="169" rx="3.5" fill="#F8F9FA"/>
<rect x="5.5" y="5.5" width="242.505" height="169" rx="3.5" stroke="#E7E7E8"/>
<g id="Frame 121">
<rect x="15.5" y="15.5" width="222.505" height="79" rx="3.5" fill="white"/>
<rect x="15.5" y="15.5" width="222.505" height="79" rx="3.5" stroke="#E7E7E8"/>
<g id="Frame 117_2">
<g id="Frame 128">
<path id="Rectangle 5" d="M25 58.5C25 57.1193 26.1193 56 27.5 56V56C28.8807 56 30 57.1193 30 58.5V94H25V58.5Z" fill="#FF6C37"/>
</g>
<g id="Frame 131">
<path id="Rectangle 5_2" d="M32 62.5C32 61.1193 33.1193 60 34.5 60V60C35.8807 60 37 61.1193 37 62.5V94H32V62.5Z" fill="#668BCA"/>
</g>
</g>
<g id="Frame 117_3">
<g id="Frame 129">
<path id="Rectangle 5_3" d="M52.3578 33.5C52.3578 32.1193 53.4771 31 54.8578 31V31C56.2385 31 57.3578 32.1193 57.3578 33.5V94H52.3578V33.5Z" fill="#FF6C37"/>
</g>
<g id="Frame 132">
<path id="Rectangle 5_4" d="M59.3578 30.5C59.3578 29.1193 60.4771 28 61.8578 28V28C63.2385 28 64.3578 29.1193 64.3578 30.5V94H59.3578V30.5Z" fill="#668BCA"/>
</g>
</g>
<g id="Frame 117_4">
<g id="Frame 130">
<path id="Rectangle 5_5" d="M79.7156 43.5C79.7156 42.1193 80.8349 41 82.2156 41V41C83.5963 41 84.7156 42.1193 84.7156 43.5V94H79.7156V43.5Z" fill="#FF6C37"/>
</g>
<g id="Frame 133">
<path id="Rectangle 5_6" d="M86.7156 36.5C86.7156 35.1193 87.8349 34 89.2156 34V34C90.5963 34 91.7156 35.1193 91.7156 36.5V94H86.7156V36.5Z" fill="#668BCA"/>
</g>
</g>
<g id="Frame 117_5">
<g id="Frame 123">
<path id="Rectangle 5_7" d="M107.073 22.5C107.073 21.1193 108.193 20 109.573 20V20C110.954 20 112.073 21.1193 112.073 22.5V94H107.073V22.5Z" fill="#FF6C37"/>
</g>
<g id="Frame 134">
<path id="Rectangle 5_8" d="M114.073 32.5C114.073 31.1193 115.193 30 116.573 30V30C117.954 30 119.073 31.1193 119.073 32.5V94H114.073V32.5Z" fill="#668BCA"/>
</g>
</g>
<g id="Frame 117_6">
<g id="Frame 124">
<path id="Rectangle 5_9" d="M134.431 58.5C134.431 57.1193 135.551 56 136.931 56V56C138.312 56 139.431 57.1193 139.431 58.5V94H134.431V58.5Z" fill="#FF6C37"/>
</g>
<g id="Frame 135">
<path id="Rectangle 5_10" d="M141.431 58.5C141.431 57.1193 142.551 56 143.931 56V56C145.312 56 146.431 57.1193 146.431 58.5V94H141.431V58.5Z" fill="#668BCA"/>
</g>
</g>
<g id="Frame 117_7">
<g id="Frame 125">
<path id="Rectangle 5_11" d="M161.789 43.5C161.789 42.1193 162.908 41 164.289 41V41C165.67 41 166.789 42.1193 166.789 43.5V94H161.789V43.5Z" fill="#FF6C37"/>
</g>
<g id="Frame 136">
<path id="Rectangle 5_12" d="M168.789 47.5C168.789 46.1193 169.908 45 171.289 45V45C172.67 45 173.789 46.1193 173.789 47.5V94H168.789V47.5Z" fill="#668BCA"/>
</g>
</g>
<g id="Frame 117_8">
<g id="Frame 126">
<path id="Rectangle 5_13" d="M189.147 33.5C189.147 32.1193 190.266 31 191.647 31V31C193.028 31 194.147 32.1193 194.147 33.5V94H189.147V33.5Z" fill="#FF6C37"/>
</g>
<g id="Frame 137">
<path id="Rectangle 5_14" d="M196.147 31.5C196.147 30.1193 197.266 29 198.647 29V29C200.028 29 201.147 30.1193 201.147 31.5V94H196.147V31.5Z" fill="#668BCA"/>
</g>
</g>
<g id="Frame 117_9">
<g id="Frame 127">
<path id="Rectangle 5_15" d="M216.505 43.5C216.505 42.1193 217.624 41 219.005 41V41C220.385 41 221.505 42.1193 221.505 43.5V94H216.505V43.5Z" fill="#FF6C37"/>
</g>
<g id="Frame 138">
<path id="Rectangle 5_16" d="M223.505 39.5C223.505 38.1193 224.624 37 226.005 37V37C227.385 37 228.505 38.1193 228.505 39.5V94H223.505V39.5Z" fill="#668BCA"/>
</g>
</g>
</g>
<g id="Frame 120">
<g id="Frame 123_2">
<g id="Frame 2608751">
<path id="Vector" d="M23.7134 125.542C24.2161 124.807 24.4898 123.94 24.4998 123.05L23.7134 125.542ZM23.7134 125.542C23.2107 126.276 22.5014 126.845 21.6754 127.176M23.7134 125.542L21.6754 127.176M21.6754 127.176C20.8494 127.508 19.9436 127.587 19.0727 127.403M21.6754 127.176L19.0727 127.403M19.0727 127.403C18.2017 127.22 17.4048 126.782 16.7826 126.146M19.0727 127.403L16.7826 126.146M16.7826 126.146C16.1603 125.51 15.7408 124.703 15.5769 123.828M16.7826 126.146L15.5769 123.828M15.5769 123.828C15.4131 122.954 15.5123 122.05 15.8621 121.231M15.5769 123.828L15.8621 121.231M15.8621 121.231C16.2119 120.413 16.7965 119.717 17.542 119.231M15.8621 121.231L17.542 119.231M17.542 119.231C18.2875 118.744 19.1603 118.49 20.0502 118.5M17.542 119.231L20.0502 118.5M20.0502 118.5C21.2432 118.515 22.3816 119.002 23.2158 119.856C24.0499 120.709 24.5116 121.857 24.4998 123.05L20.0502 118.5Z" fill="#FF6C37" stroke="#E7E7E8"/>
<path id="Vector_2" d="M24.4998 140.051C24.4897 140.941 24.216 141.808 23.7134 142.542C23.2107 143.276 22.5014 143.845 21.6754 144.176C20.8494 144.508 19.9436 144.587 19.0727 144.403C18.2018 144.22 17.4048 143.782 16.7825 143.146C16.1603 142.51 15.7407 141.703 15.5769 140.828C15.4131 139.954 15.5123 139.05 15.8621 138.231C16.2119 137.413 16.7965 136.717 17.542 136.231C18.2875 135.745 19.1603 135.49 20.0502 135.5C21.2432 135.515 22.3817 136.002 23.2158 136.856C24.05 137.709 24.5118 138.858 24.4998 140.051Z" fill="#668BCA" stroke="#E7E7E8"/>
<path id="Vector_3" d="M23.7134 159.542C24.2161 158.807 24.4898 157.94 24.4998 157.05L23.7134 159.542ZM23.7134 159.542C23.2107 160.276 22.5014 160.845 21.6754 161.177M23.7134 159.542L21.6754 161.177M21.6754 161.177C20.8494 161.508 19.9436 161.587 19.0727 161.403M21.6754 161.177L19.0727 161.403M19.0727 161.403C18.2017 161.22 17.4048 160.782 16.7826 160.146M19.0727 161.403L16.7826 160.146M16.7826 160.146C16.1603 159.51 15.7408 158.703 15.5769 157.828M16.7826 160.146L15.5769 157.828M15.5769 157.828C15.4131 156.954 15.5123 156.05 15.8621 155.231M15.5769 157.828L15.8621 155.231M15.8621 155.231C16.2119 154.413 16.7965 153.717 17.542 153.231M15.8621 155.231L17.542 153.231M17.542 153.231C18.2875 152.744 19.1603 152.49 20.0502 152.5M17.542 153.231L20.0502 152.5M20.0502 152.5C21.2432 152.515 22.3816 153.002 23.2158 153.856C24.0499 154.709 24.5116 155.858 24.4998 157.05L20.0502 152.5Z" fill="white" stroke="#E7E7E8"/>
</g>
<g id="Group 116">
<path id="Ellipse 1" d="M85 140C85 143.283 84.3534 146.534 83.097 149.567C81.8406 152.6 79.9991 155.356 77.6777 157.678C75.3562 159.999 72.6002 161.841 69.5671 163.097C66.5339 164.353 63.283 165 60 165L60 140H85Z" fill="white" stroke="#E7E7E8"/>
<path id="Ellipse 2" d="M60 165C53.3696 165 47.0107 162.366 42.3223 157.678C37.6339 152.989 35 146.63 35 140C35 133.37 37.6339 127.011 42.3223 122.322C47.0107 117.634 53.3696 115 60 115L60 140L60 165Z" fill="#FF6C37" stroke="#E7E7E8"/>
<path id="Ellipse 3" d="M60 115C63.283 115 66.5339 115.647 69.5671 116.903C72.6002 118.159 75.3562 120.001 77.6777 122.322C79.9991 124.644 81.8406 127.4 83.097 130.433C84.3534 133.466 85 136.717 85 140L60 140L60 115Z" fill="#668BCA" stroke="#E7E7E8"/>
</g>
</g>
<g id="Frame 123_3">
<g id="Frame 123_4">
<rect x="105.5" y="123.5" width="132.505" height="11" rx="5.5" fill="white"/>
<rect x="105.5" y="123.5" width="132.505" height="11" rx="5.5" stroke="#E7E7E8"/>
<rect id="Rectangle 11" x="105" y="124" width="98.5046" height="10" rx="5" fill="#668BCA"/>
</g>
<g id="Frame 124_2">
<rect x="105.5" y="145.5" width="132.505" height="11" rx="5.5" fill="white"/>
<rect x="105.5" y="145.5" width="132.505" height="11" rx="5.5" stroke="#E7E7E8"/>
<rect id="Rectangle 11_2" x="105" y="146" width="118.505" height="10" rx="5" fill="#668BCA"/>
</g>
</g>
</g>
</g>
<g id="Group 117">
<path id="Vector_4" d="M280.003 155.754L275.182 160.817L270.044 156.067L274.865 151.004L280.003 155.754Z" fill="#FFC4AF"/>
<path id="Vector_5" d="M283.854 160.939L273.606 171.7C272.73 172.62 271.636 173.347 270.442 173.802L267.585 174.891C266.994 175.116 266.314 174.986 265.852 174.559C265.31 174.058 265.173 173.256 265.519 172.608L268.267 167.452L271.2 156.997L271.232 157.017C272.029 157.508 273.239 158.246 273.326 158.277C274.844 158.331 275.932 157.949 276.557 157.142C277.649 155.735 276.956 153.488 276.949 153.465L276.944 153.448L276.958 153.436C277.276 153.165 277.611 153.056 277.954 153.113C278.682 153.235 279.202 154.052 279.279 154.178C279.962 154.149 282.058 155.792 282.227 155.925C283.257 155.922 284.011 156.166 284.47 156.65C284.872 157.074 285.046 157.675 284.99 158.437C284.922 159.353 284.518 160.242 283.854 160.939Z" fill="#212529"/>
<path id="Vector_6" d="M274.437 161.583H267.391V168.525H274.437V161.583Z" fill="#FFC4AF"/>
<path id="Vector_7" d="M273.235 174.84H258.257C256.977 174.84 255.691 174.551 254.537 174.005L251.776 172.697C251.205 172.427 250.836 171.849 250.836 171.225C250.836 170.493 251.336 169.845 252.052 169.65L257.748 168.097L267.493 163.05L267.501 163.087C267.683 163.996 267.965 165.37 268.001 165.453C269.001 166.581 270.027 167.101 271.053 166.999C272.841 166.82 274.03 164.785 274.042 164.765L274.051 164.749L274.069 164.751C274.488 164.793 274.798 164.96 274.99 165.245C275.398 165.852 275.149 166.785 275.108 166.926C275.597 167.397 275.816 170.027 275.833 170.239C276.539 170.977 276.875 171.687 276.831 172.348C276.792 172.926 276.466 173.462 275.864 173.943C275.139 174.521 274.205 174.84 273.235 174.84Z" fill="#212529"/>
<path id="Vector_8" d="M275.274 74.1532L250.306 74.1654L241.984 126.084L266.951 155.759L275.274 148.341L255.542 126.084L275.274 74.1532Z" fill="#212529"/>
<path id="Vector_9" d="M260.517 81.8066L275.274 74.1532V163.178L266.951 163.407L260.517 81.8066Z" fill="#212529"/>
<path id="Vector_10" d="M245.735 94.9731L245.91 86.869L241.179 86.7664L241.003 94.8704C240.12 95.69 239.537 96.9634 239.506 98.4071C239.451 100.933 241.101 103.018 243.192 103.063C245.283 103.109 247.022 101.098 247.077 98.5714C247.108 97.1276 246.581 95.8302 245.735 94.9731Z" fill="#FFC4AF"/>
<path id="Vector_11" d="M268.172 15.8276C268.172 15.8276 274.964 15.8129 272.427 9.26829C269.89 2.72367 265.165 5.65405 265.165 5.65405C265.165 5.65405 263.174 6.70564 263.585 9.05184" fill="#212529"/>
<path id="Vector_12" d="M268.852 18.9668C268.852 13.949 264.784 9.88129 259.766 9.88129C254.749 9.88129 250.681 13.949 250.681 18.9668C250.681 23.0363 253.357 26.4804 257.044 27.6371L258.801 39.2447L267.755 31.7832C267.755 31.7832 265.82 29.3194 264.783 26.5412C267.235 24.9142 268.852 22.1299 268.852 18.9668Z" fill="#FFC4AF"/>
<path id="Vector_13" d="M264.132 26.6419C264.132 26.6419 265.338 22.0161 263.365 19.8892C261.397 17.7671 261.143 21.069 261.143 21.069L259.722 20.7602C259.722 20.7602 259.969 17.5492 257.191 16.9934L258.981 13.1648C258.981 13.1648 252.125 14.496 251.936 13.832C250.449 8.60707 264.634 4.14376 268.553 12.115C274.647 24.513 264.132 26.6419 264.132 26.6419Z" fill="#212529"/>
<path id="Vector_14" d="M256.107 34.7359C249.511 36.0248 244.559 41.5169 243.959 48.2108L239.853 93.9898H247.058L256.107 34.7359Z" fill="#003DA6"/>
<path id="Vector_15" d="M249.294 71.2097L248.172 84.1355L278.631 75.177L274.919 65.8346L281.83 49.9654L267.723 29.7448L256.461 30.5127L252.11 36.1437" fill="#003DA6"/>
<path id="Vector_16" d="M274.133 83.4851L278.381 76.5816L274.351 74.1011L270.102 81.0047C268.926 81.2656 267.78 82.0697 267.023 83.2996C265.699 85.4515 266.069 88.0844 267.85 89.1803C269.631 90.2762 272.148 89.4202 273.472 87.2683C274.229 86.0384 274.43 84.6525 274.133 83.4851Z" fill="#FFC4AF"/>
<path id="Vector_17" d="M265.419 30.0007L267.875 29.8989L272.074 33.0722C277.05 33.9207 278.493 34.1586 280.017 37.4451C280.658 38.8262 281.082 40.2974 281.32 41.8011L284.872 64.2989L275.943 85.7992L270.027 79.1444L276.352 62.3349L275.301 58.314" fill="#003DA6"/>
</g>
</g>
</svg>
