<svg id="Layer_1" data-name="Layer 1" xmlns="http://www.w3.org/2000/svg" viewBox="0 0 48 48"><path d="M24,4A19.99357,19.99357,0,0,0,11.80182,39.83984H7.66016a.5.5,0,1,0,0,1h5.67968a.49971.49971,0,0,0,.5-.5V34.66016a.5.5,0,0,0-1,0v4.71246A18.99549,18.99549,0,1,1,24,43a.5.5,0,0,0,0,1A20,20,0,0,0,24,4Z"/><path d="M33,27.93848v-7.877A2.56483,2.56483,0,0,0,30.43848,17.5h-12.877A2.56483,2.56483,0,0,0,15,20.06152v7.877A2.56483,2.56483,0,0,0,17.56152,30.5h12.877A2.56483,2.56483,0,0,0,33,27.93848Zm-17,0v-7.877A1.56291,1.56291,0,0,1,17.56152,18.5h12.877A1.56291,1.56291,0,0,1,32,20.06152v7.877A1.56291,1.56291,0,0,1,30.43848,29.5h-12.877A1.56291,1.56291,0,0,1,16,27.93848Z"/><path d="M30.416,20.72266a.49912.49912,0,0,0-.69336-.13868L24,24.39941,18.27734,20.584a.5.5,0,0,0-.55468.832l6,4a.49994.49994,0,0,0,.55468,0l6-4A.50016.50016,0,0,0,30.416,20.72266Z"/></svg>