<svg id="Layer_1" data-name="Layer 1" xmlns="http://www.w3.org/2000/svg" viewBox="0 0 48 48"><path d="M42,39.5H37.5V25.707l4.85352-4.85351a.5.5,0,1,0-.707-.707L37.5,24.293V19.59961l-.0022-.011a2.3207,2.3207,0,0,0-.68237-1.63061L26.042,7.18457a2.39527,2.39527,0,0,0-3.30664,0L5.18457,24.73535a2.33877,2.33877,0,0,0,0,3.30664L15.958,38.81543a2.33877,2.33877,0,0,0,3.30664,0L36.5,21.58008V39.5H10a.5.5,0,0,0,0,1H42a.5.5,0,0,0,0-1ZM36.1084,20.55762,18.55762,38.1084a1.36982,1.36982,0,0,1-1.89258,0L5.8916,27.335a1.33914,1.33914,0,0,1,0-1.89258L23.44238,7.8916a1.33914,1.33914,0,0,1,1.89258,0L36.1084,18.665a1.33914,1.33914,0,0,1,0,1.89258Z"/></svg>