<svg id="Layer_1" data-name="Layer 1" xmlns="http://www.w3.org/2000/svg" viewBox="0 0 48 48"><path d="M13.5,24.5h.56573l-.48175.72266a.5.5,0,1,0,.832.55468l.584-.876.584.876a.5.5,0,0,0,.832-.55468L15.93427,24.5H16.5a.5.5,0,0,0,0-1h-1v-1a.5.5,0,0,0-1,0v1h-1a.5.5,0,0,0,0,1Z"/><path d="M21,22a.49971.49971,0,0,0-.5.5v1h-1a.5.5,0,0,0,0,1h.56573l-.48175.72266a.5.5,0,1,0,.832.55468l.584-.876.584.876a.5.5,0,0,0,.832-.55468L21.93427,24.5H22.5a.5.5,0,0,0,0-1h-1v-1A.49971.49971,0,0,0,21,22Z"/><path d="M27,22a.49971.49971,0,0,0-.5.5v1h-1a.5.5,0,0,0,0,1h.56573l-.48175.72266a.5.5,0,1,0,.832.55468l.584-.876.584.876a.5.5,0,0,0,.832-.55468L27.93427,24.5H28.5a.5.5,0,0,0,0-1h-1v-1A.49971.49971,0,0,0,27,22Z"/><path d="M34.5,26a.5.5,0,0,0,0-1h-3a.5.5,0,0,0,0,1Z"/><path d="M41.5,10H13.72266a.5.5,0,1,0,0,1H41.5a.501.501,0,0,1,.5.5v25a.501.501,0,0,1-.5.5H6.5a.501.501,0,0,1-.5-.5V14.5498a.5.5,0,1,0-1,0V36.5A1.50164,1.50164,0,0,0,6.5,38h35A1.50164,1.50164,0,0,0,43,36.5v-25A1.50164,1.50164,0,0,0,41.5,10Z"/><path d="M5.30957,10.96A.40492.40492,0,0,0,5.5,11a.4664.4664,0,0,0,.34961-.15039A.45171.45171,0,0,0,6,10.5a.40492.40492,0,0,0-.04-.19043.36482.36482,0,0,0-.11035-.16016.49472.49472,0,0,0-.54-.10937.52365.52365,0,0,0-.26953.26953A.40492.40492,0,0,0,5,10.5a.469.469,0,0,0,.14941.34961A.36482.36482,0,0,0,5.30957,10.96Z"/><path d="M8.24023,11a.51411.51411,0,0,0,.5-.5.4172.4172,0,0,0-.04-.19043.36476.36476,0,0,0-.11036-.16016.49507.49507,0,0,0-.54-.10937.41618.41618,0,0,0-.16015.10937.45368.45368,0,0,0-.10938.16016.40492.40492,0,0,0-.04.19043.45421.45421,0,0,0,.14942.34961A.467.467,0,0,0,8.24023,11Z"/><path d="M10.62988,10.84961a.4827.4827,0,0,0,.7002,0A.4542.4542,0,0,0,11.47949,10.5a.4048.4048,0,0,0-.04-.19043.35491.35491,0,0,0-.10937-.16016.50236.50236,0,0,0-.7002,0,.36482.36482,0,0,0-.11035.16016.47053.47053,0,0,0,0,.37988A.35936.35936,0,0,0,10.62988,10.84961Z"/></svg>