<svg id="Layer_1" data-name="Layer 1" xmlns="http://www.w3.org/2000/svg" viewBox="0 0 48 48"><path d="M41.5,31.75h-11a.5.5,0,0,1,0-1h11a.5.5,0,0,1,0,1Z"/><path d="M41.5,36.5h-11a.5.5,0,0,1,0-1h11a.5.5,0,0,1,0,1Z"/><path d="M39.92871,41.25H30.5a.5.5,0,0,1,0-1h9.42871a.5.5,0,0,1,0,1Z"/><path d="M26.71777,40.5H8.28223a2.92568,2.92568,0,0,1-2.23047-1.002,2.23093,2.23093,0,0,1-.51856-1.8418C6.69824,31.01172,13.084,27.5,24,27.5a40.03476,40.03476,0,0,1,6.07617.42871.5.5,0,0,1-.15234.98828A39.04887,39.04887,0,0,0,24,28.5c-7.22949,0-16.12988,1.61816-17.48242,9.32812a1.247,1.247,0,0,0,.2998,1.02637A1.91749,1.91749,0,0,0,8.28223,39.5H26.71777a.5.5,0,0,1,0,1Z"/><path d="M24,24.5A9.5,9.5,0,1,1,33.5,15,9.51081,9.51081,0,0,1,24,24.5Zm0-18A8.5,8.5,0,1,0,32.5,15,8.51014,8.51014,0,0,0,24,6.5Z"/></svg>