<svg id="Layer_1" data-name="Layer 1" xmlns="http://www.w3.org/2000/svg" viewBox="0 0 48 48"><path d="M21.66406,37.71387a2.765,2.765,0,0,0,4.67188.001c.56152-.82812,1.21484-1.74707,1.91211-2.73046,3.67675-5.17872,8.252-11.624,8.252-16.31153C36.5,11.13379,30.89258,5,24,5S11.5,11.13379,11.5,18.67285c0,4.6875,4.5752,11.13281,8.252,16.31153C20.44922,35.96777,21.10254,36.88672,21.66406,37.71387ZM24,6c6.34082,0,11.5,5.68457,11.5,12.67285,0,4.36914-4.66211,10.93653-8.06738,15.73242-.70215.98926-1.3584,1.915-1.92481,2.748a1.811,1.811,0,0,1-3.01562-.001c-.56641-.832-1.22266-1.75781-1.92481-2.74707C17.16211,29.60938,12.5,23.042,12.5,18.67285,12.5,11.68457,17.65918,6,24,6Z"/><path d="M31.5,43h-15a.5.5,0,0,0,0,1h15a.5.5,0,0,0,0-1Z"/><path d="M30,19.89551v-5.291A1.85673,1.85673,0,0,0,28.14551,12.75h-8.291A1.85673,1.85673,0,0,0,18,14.60449v5.291A1.85673,1.85673,0,0,0,19.85449,21.75h8.291A1.85673,1.85673,0,0,0,30,19.89551Zm-11,0v-5.291a.85606.85606,0,0,1,.85449-.85449h8.291A.85606.85606,0,0,1,29,14.60449v5.291a.85606.85606,0,0,1-.85449.85449h-8.291A.85606.85606,0,0,1,19,19.89551Z"/><path d="M27.252,14.81543,24,16.67383l-3.252-1.8584a.50038.50038,0,0,0-.4961.86914l3.5,2a.5029.5029,0,0,0,.4961,0l3.5-2a.50038.50038,0,0,0-.4961-.86914Z"/></svg>