<svg id="Layer_1" data-name="Layer 1" xmlns="http://www.w3.org/2000/svg" viewBox="0 0 48 48"><path d="M41.44727,36.74805l-.2461.44531.21485-.47656A4.96433,4.96433,0,0,0,41.46777,36c0-.24316-.01757-.48242-.01855-.749a1.077,1.077,0,0,0,.52344-.666,1.05479,1.05479,0,0,0-.11719-.82324l-.92871-1.54785a1.09118,1.09118,0,0,0-1.417-.42774,1.69849,1.69849,0,0,0-.17188.042,7.13949,7.13949,0,0,0-1.30371-.75488,1.095,1.095,0,0,0-1.10449-1.082H35.07031a1.14245,1.14245,0,0,0-1.12988,1.124,9.4044,9.4044,0,0,0-1.36816.708,1.11983,1.11983,0,0,0-1.499.39258l-.92871,1.5459a1.05538,1.05538,0,0,0-.11719.82324,1.16719,1.16719,0,0,0,.55664.69824A4.96433,4.96433,0,0,0,30.53223,36c0,.24316.01757.48242.0205.748a1.08184,1.08184,0,0,0-.52539.667,1.05538,1.05538,0,0,0,.11719.82324l.92871,1.54785a1.09458,1.09458,0,0,0,1.417.42774,1.69849,1.69849,0,0,0,.17188-.042,7.13916,7.13916,0,0,0,1.30371.75488,1.095,1.095,0,0,0,1.10449,1.082h1.85938a1.14245,1.14245,0,0,0,1.12988-1.124,9.55132,9.55132,0,0,0,1.36914-.707,1.1222,1.1222,0,0,0,1.498-.39355l.92871-1.5459a1.05538,1.05538,0,0,0,.11719-.82324A1.08184,1.08184,0,0,0,41.44727,36.74805Zm-1.39258,2.51269a.10264.10264,0,0,1-.13672.02539,1.09666,1.09666,0,0,0-1.18945.07129,4.492,4.492,0,0,1-1.043.582,1.056,1.056,0,0,0-.669.98731.07971.07971,0,0,1-.08691.06445H35.07031a.07959.07959,0,0,1-.08691-.06543,1.05517,1.05517,0,0,0-.66992-.98633,4.50545,4.50545,0,0,1-1.042-.582,1.07723,1.07723,0,0,0-.6455-.21289,1.12874,1.12874,0,0,0-.54981.14453.10167.10167,0,0,1-.13086-.02636l-.89746-1.626a1.04722,1.04722,0,0,0,.542-1.06445,4.10259,4.10259,0,0,1,0-1.14356,1.19653,1.19653,0,0,0-.57422-1.14355l.92969-1.5459a.10468.10468,0,0,1,.13672-.02539,1.09486,1.09486,0,0,0,1.18945-.07129,4.492,4.492,0,0,1,1.043-.582,1.056,1.056,0,0,0,.669-.98731.07971.07971,0,0,1,.08691-.06445h1.85938a.07959.07959,0,0,1,.08691.06543,1.05517,1.05517,0,0,0,.66992.98633,4.50545,4.50545,0,0,1,1.042.582,1.09986,1.09986,0,0,0,1.19531.06836.10167.10167,0,0,1,.13086.02636l.89746,1.626a1.04722,1.04722,0,0,0-.542,1.06445,4.10259,4.10259,0,0,1,0,1.14356,1.04785,1.04785,0,0,0,.542,1.06543l.03222.07812Z"/><path d="M37.0752,34.13867a2.14956,2.14956,0,1,0-1.07813,4.0127,2.19735,2.19735,0,0,0,.55957-.07422,2.14956,2.14956,0,0,0,.51856-3.93848Zm-.07911,2.43653h-.001a1.1494,1.1494,0,1,1-1.293-1.68653,1.16452,1.16452,0,0,1,.2998-.03906,1.15473,1.15473,0,0,1,1.10938.85254A1.14685,1.14685,0,0,1,36.99609,36.5752Z"/><path d="M26.84473,38H9.15527a1.88954,1.88954,0,0,1-1.44336-.59863.82469.82469,0,0,1-.19726-.68457C8.78125,30.33887,17.17871,29,24,29a38.12755,38.12755,0,0,1,7.1748.60742.51243.51243,0,0,0,.58594-.39648.50114.50114,0,0,0-.39648-.58594A39.13442,39.13442,0,0,0,24,28C13.68066,28,7.6416,30.94629,6.53418,36.52148a1.80376,1.80376,0,0,0,.4043,1.51368A2.86458,2.86458,0,0,0,9.15527,39H26.84473a.5.5,0,0,0,0-1Z"/><path d="M24,25a9,9,0,1,0-9-9A9.00984,9.00984,0,0,0,24,25ZM24,8a8,8,0,1,1-8,8A8.00917,8.00917,0,0,1,24,8Z"/><path d="M32.583,24.16406a.49764.49764,0,0,0-.1286.36316.48309.48309,0,0,0,.01776.07257.48962.48962,0,0,0,.029.113.49815.49815,0,0,0,.11554.15662l.00049.00067a.49593.49593,0,0,0,.16607.09887l.00287.00171a19.04154,19.04154,0,0,1,6.915,4.28223.5.5,0,0,0,.69922-.71484,19.95364,19.95364,0,0,0-6.63525-4.24018,12.668,12.668,0,0,0-.4419-16.13385.49984.49984,0,1,0-.74023.67188A11.63567,11.63567,0,0,1,32.583,24.16406Z"/><path d="M15.21387,24.9707l.00287-.00171a.49593.49593,0,0,0,.16607-.09887l.00043-.00061a.40687.40687,0,0,0,.14435-.26862.48311.48311,0,0,0,.01806-.07379.49776.49776,0,0,0-.12866-.363,11.63567,11.63567,0,0,1,0-15.32812.49984.49984,0,1,0-.74023-.67188,12.6687,12.6687,0,0,0-.45124,16.12244C7.58545,26.90155,3,32.64862,3,38.48242a.5.5,0,0,0,1,0C4,32.87305,8.61133,27.31738,15.21387,24.9707Z"/></svg>