<svg xmlns="http://www.w3.org/2000/svg" viewBox="0 0 48 48"><defs><style>.cls-1{fill:#ff6c2c;}</style></defs><g id="Base_Icons" data-name="Base Icons"><path d="M24,3.5a20.5,20.5,0,1,0,7.62891,39.5332c.61718-.248,1.22851-.52832,1.81445-.834a.49968.49968,0,1,0-.46094-.88672c-.55762.29-1.13867.55664-1.72656.793A19.49682,19.49682,0,1,1,41.76953,32.044a.49955.49955,0,1,0,.91016.4121A20.509,20.509,0,0,0,24,3.5Z"/><path d="M33.09082,29.77246a.49971.49971,0,0,0,.5-.5V14.90918a.5.5,0,0,0-1,0v5.06195a9.5173,9.5173,0,1,0,0,8.05212v1.24921A.49971.49971,0,0,0,33.09082,29.77246Zm-.84375-3.708A8.50564,8.50564,0,1,1,32.5,24,8.51943,8.51943,0,0,1,32.24707,26.06445Z"/></g><g id="Sub_Icons" data-name="Sub Icons"><path class="cls-1" d="M36.3291,31.124a165.14347,165.14347,0,0,0-.14471-.08685.49452.49452,0,0,0-.36878,0,165.14347,165.14347,0,0,0-.14471.08685l-4,3.5a.49967.49967,0,1,0,.6582.752L35.5,32.60156V40.5a.5.5,0,0,0,1,0V32.60156L39.6709,35.376a.49967.49967,0,0,0,.6582-.752Z"/></g></svg>