<svg xmlns="http://www.w3.org/2000/svg" viewBox="0 0 48 48"><defs><style>.cls-1{fill:#ff6c2c;}</style></defs><g id="Base_Icons" data-name="Base Icons"><path d="M33,16.5a6.50272,6.50272,0,0,0-6.48132,6.131,4.87411,4.87411,0,0,0-5.03736,0,6.49482,6.49482,0,1,0-.051,1.268,3.88878,3.88878,0,0,1,5.1394,0A6.49664,6.49664,0,1,0,33,16.5Zm-18,12A5.5,5.5,0,1,1,20.5,23,5.50685,5.50685,0,0,1,15,28.5Zm18,0A5.5,5.5,0,1,1,38.5,23,5.50685,5.50685,0,0,1,33,28.5Z"/><path d="M43.5,14a.5.5,0,0,0,0-1H40.34711L38.76465,8.76953a.50885.50885,0,0,0-.05274-.10254A1.49357,1.49357,0,0,0,37.46582,8H10.53418a1.49357,1.49357,0,0,0-1.24609.667.50885.50885,0,0,0-.05274.10254L7.65289,13H4.5a.5.5,0,0,0,0,1ZM10.14844,9.18262A.497.497,0,0,1,10.53418,9H37.46582a.497.497,0,0,1,.38574.18262L39.27893,13H8.72107Z"/></g><g id="Sub_Icons" data-name="Sub Icons"><path class="cls-1" d="M26,32.5H20a.49971.49971,0,0,0-.5.5v9a.5.5,0,0,0,1,0V38h4a.5.5,0,0,0,0-1h-4V33.5H26a.5.5,0,0,0,0-1Z"/><path class="cls-1" d="M42,32.5H39a.49971.49971,0,0,0-.5.5v9a.5.5,0,0,0,1,0V39.5H42a3.5,3.5,0,0,0,0-7Zm0,6H39.5v-5H42a2.5,2.5,0,0,1,0,5Z"/><path class="cls-1" d="M36.25,32.5h-7.5a.5.5,0,0,0,0,1H32V42a.5.5,0,0,0,1,0V33.5h3.25a.5.5,0,0,0,0-1Z"/></g></svg>