<svg id="Base_Icons" data-name="Base Icons" xmlns="http://www.w3.org/2000/svg" xmlns:xlink="http://www.w3.org/1999/xlink" viewBox="0 0 48 48"><defs><style>.cls-1{fill:none;}.cls-2{fill:#662e8d;}.cls-3{fill:#f69923;}.cls-4{fill:#be202e;}.cls-5{isolation:isolate;opacity:0.35;}.cls-6{fill:#c92037;}.cls-7{fill:#9e2064;}.cls-8{clip-path:url(#clip-path);}.cls-9{fill:#c82038;}.cls-10{clip-path:url(#clip-path-2);}.cls-11{fill:#ca2136;}.cls-12{clip-path:url(#clip-path-3);}.cls-13{fill:#b6204a;}</style><clipPath id="clip-path"><path class="cls-1" d="M26.8617,22.7469c-.06906.00776-.13891.01461-.20953.01972C26.72279,22.76151,26.79264,22.75466,26.8617,22.7469Z"/></clipPath><clipPath id="clip-path-2"><path class="cls-1" d="M27.50843,21.04637c.02236-.0012.044-.00416.06549-.00541C27.55241,21.04221,27.53085,21.04432,27.50843,21.04637Z"/></clipPath><clipPath id="clip-path-3"><path class="cls-1" d="M27.51087,21.04589l.0009-.00081Z"/></clipPath></defs><path d="M41.85352,35.64648l-1.09961-1.0996a.49995.49995,0,0,0-.707.707L40.793,36l-.7461.74609a.49995.49995,0,1,0,.707.707l1.09961-1.0996A.49983.49983,0,0,0,41.85352,35.64648Z"/><path d="M36.35352,30.14648a.49983.49983,0,0,0-.707,0l-2.20019,2.2002a.49995.49995,0,0,0,.707.707L36,31.207l1.84668,1.84668a.49995.49995,0,0,0,.707-.707Z"/><path d="M37.84668,38.94629,36,40.793l-1.84668-1.84668a.49995.49995,0,0,0-.707.707l2.20019,2.2002a.49984.49984,0,0,0,.707,0l2.20019-2.2002a.49995.49995,0,0,0-.707-.707Z"/><path d="M31.95312,34.54688a.4998.4998,0,0,0-.707,0l-1.09961,1.0996a.49983.49983,0,0,0,0,.707l1.09961,1.0996a.49995.49995,0,0,0,.707-.707L31.207,36l.74609-.74609A.4998.4998,0,0,0,31.95312,34.54688Z"/><path class="cls-2" d="M17.90363,27.24l.00024-.00024a20.58315,20.58315,0,0,0-.50153,2.51471c-.00354.02972-.00866.05841-.01214.08807a5.36617,5.36617,0,0,0-1.46741-1.41644,7.49091,7.49091,0,0,1,1.30493,3.5512,3.42747,3.42747,0,0,1-1.69128-.394,3.4471,3.4471,0,0,0,1.40484.97022,4.19641,4.19641,0,0,0-2.08557.88275,4.35168,4.35168,0,0,1,2.426-.29321C16.2038,35.68927,15.1073,38.506,14,41.5a.80446.80446,0,0,0,.57922-.49689c.19782-.54229,1.50843-4.09948,3.5069-8.75811q.08514-.19859.17218-.39954c.01593-.03742.03278-.07483.04865-.11145q.3163-.73279.65417-1.49506.07727-.1734.15454-.34759l.00293-.00666-1.19134-2.73809C17.91943,27.176,17.9115,27.20886,17.90363,27.24Z"/><path class="cls-3" d="M31.50332,6.63641a9.35888,9.35888,0,0,0-1.82521,1.48843c-.32906.32311-.649.65538-.96273.99318q.45815,1.00154.91626,2.00305A25.14889,25.14889,0,0,1,32.091,8.41364a23.38671,23.38671,0,0,0-2.32748,2.75388,38.7692,38.7692,0,0,0,4.04389-.24876,4.94127,4.94127,0,0,0-.093-3.037A2.60307,2.60307,0,0,0,32.436,6.56958a1.14445,1.14445,0,0,0-.93258.06669Z"/><path class="cls-1" d="M29.09605,17.59857l.02332-.00285-.14961.00713c-.00965.00369-.0176.00747-.0272.01031.05172-.00455.10263-.01.15349-.01459Z"/><path class="cls-1" d="M27.83548,21.01c-.08569.01358-.17284.0228-.26074.03027C27.66264,21.03277,27.74984,21.0227,27.83548,21.01Z"/><path class="cls-1" d="M27.50843,21.04637l.00176-.00075Z"/><path class="cls-4" d="M27.06548,22.72c-.133.01583-.27019.03055-.41086.04591l-.00262.00069c.07067-.00595.14047-.01195.20953-.01971s.13645-.01647.204-.02689Z"/><g class="cls-5"><path class="cls-4" d="M27.06548,22.72c-.133.01583-.27019.03055-.41086.04591l-.00262.00069c.07067-.00595.14047-.01195.20953-.01971s.13645-.01647.204-.02689Z"/></g><path class="cls-4" d="M27.512,21.0448l-.0009.0008-.00176.00076c.02236-.00121.044-.00416.06548-.00542.08876-.00741.176-.01749.26075-.03027-.1061.01064-.214.02287-.32357.03414Z"/><g class="cls-5"><path class="cls-4" d="M27.512,21.0448l-.0009.0008-.00176.00076c.02236-.00121.044-.00416.06548-.00542.08876-.00741.176-.01749.26075-.03027-.1061.01064-.214.02287-.32357.03414Z"/></g><path class="cls-6" d="M26.29039,15.9495q.52251-.84708,1.05457-1.65262.5514-.83511,1.1115-1.615c.02153-.03029.044-.06138.06554-.09253q.55239-.76584,1.11045-1.46816l-.91627-2.003c-.08338.08973-.16685.18117-.25214.2742-.31933.35127-.6523.7299-.99436,1.13187-.38543.45316-.783.938-1.18808,1.4472-.37363.471-.75375.96459-1.13493,1.47606-.32434.43551-.65122.88453-.97626,1.34565l-.03648.05077c.3278.94634.79025,1.816,1.18537,2.724q.48122-.82272.97108-1.61841Z"/><path class="cls-7" d="M19.93667,28.074q.40647-.88491.83372-1.78819.4091-.86426.83757-1.73758.42762-.87334.87251-1.74823.45174-.88981.91946-1.77356.4623-.87253.93848-1.73314.17153-.30985.34461-.617.29921-.53144.60291-1.05231c.01057-.019.02193-.0371.03335-.056l-1.18549-2.72387c-.02434.03439-.04783.06884-.07217.10323-.343.48988-.68591.99174-1.02349,1.505q-.51192.77727-1.00675,1.58379-.41733.67924-.81665,1.37242c-.05363.09411-.1063.18656-.159.27987q-.49323.87324-.8998,1.68852-.46269.92245-.82535,1.76308-.24.55168-.44168,1.06555c-.11174.29214-.21926.5854-.32155.87726q-.36381,1.03227-.64011,2.06389c.38288.90761.76683,1.83575,1.19138,2.73809q.31032-.696.63551-1.41164c.06018-.13214.12132-.26594.18242-.39889Z"/><path class="cls-7" d="M25.51443,17.8044c-.04311.07595-.08628.15276-.13035.23037q-.19567.3481-.39734.71037-.21763.39289-.4398.80429c-.07511.13807-.14942.277-.22559.41845q-.34.634-.69121,1.31086-.43159.83211-.88091,1.73066-.4279.85668-.86979,1.77488-.41977.87128-.85158,1.79989-.38508.82854-.77892,1.70269c-.01283.02826-.02567.05652-.03764.08483q-.39137.86916-.79073,1.78568l-.01791.04162,1.09287-.05228c-.0211-.00556-.04316-.00946-.06427-.015a7.753,7.753,0,0,0,4.27836-2.06894,10.25885,10.25885,0,0,0,1.5289-1.87146,16.8545,16.8545,0,0,0,1.02226-1.82968c.28732-.59066.56735-1.23213.84217-1.92944a3.9505,3.9505,0,0,1-1.0376.28967c-.06659.00962-.13489.01913-.20395.02689s-.13891.01461-.20953.01972l.00261-.00069a4.72275,4.72275,0,0,0,2.67614-2.30308,4.32326,4.32326,0,0,1-1.49451.54716c-.08569.01358-.17284.0228-.26074.03026-.02242.00206-.044.00416-.06549.00542l.00176-.00076.00091-.0008a4.93529,4.93529,0,0,0,1.11835-.53672c.06872-.04536.13584-.09253.20055-.1424.0988-.07514.19272-.15483.28348-.239.05808-.05369.11454-.10919.16946-.16735a4.20169,4.20169,0,0,0,.36688-.444c.03551-.04908.07022-.09908.105-.15077.04477-.075.08773-.1484.12979-.221.18935-.32842.34235-.62231.46582-.88128.06174-.12949.116-.24917.163-.36077.01893-.04412.03694-.08744.054-.1291.05033-.12506.09211-.23612.12539-.334a3.34,3.34,0,0,0,.10051-.34834,1.303,1.303,0,0,1-.14669.08759,5.13085,5.13085,0,0,1-1.52876.417l1.00349-.04829-1.00349.04829-.02332.00286c-.05091.00544-.10262.01-.15439.01538.00965-.00368.01611-.00872.02571-.01155l-3.432.1666-.021.03545Z"/><path class="cls-6" d="M29.7643,11.16846c-.33095.44537-.69384.952-1.08566,1.52689-.02062.0295-.04135.06069-.062.091q-.50754.74679-1.07985,1.6451-.49392.77712-1.031,1.67371-.46851.78248-.97036,1.66374l3.40565-.15463A4.25809,4.25809,0,0,0,30.926,16.25394c.12427-.15729.24984-.32217.37493-.49307.38274-.52335.762-1.10245,1.10511-1.68031a18.05515,18.05515,0,0,0,.85777-1.61592,8.71792,8.71792,0,0,0,.35435-.88123c.07643-.23193.13847-.45279.1888-.66411a39.08093,39.08093,0,0,1-4.043.24957Z"/><path class="cls-4" d="M26.8617,22.7469c-.06906.00776-.13891.01461-.20953.01972C26.72279,22.76151,26.79264,22.75466,26.8617,22.7469Z"/><g class="cls-5"><path class="cls-4" d="M26.8617,22.7469c-.06906.00776-.13891.01461-.20953.01972C26.72279,22.76151,26.79264,22.75466,26.8617,22.7469Z"/></g><g class="cls-8"><rect class="cls-9" x="26.65217" y="22.7469" width="0.20953" height="0.01972"/></g><path class="cls-4" d="M27.50843,21.04637c.02236-.0012.044-.00416.06549-.00541C27.55241,21.04221,27.53085,21.04432,27.50843,21.04637Z"/><g class="cls-5"><path class="cls-4" d="M27.50843,21.04637c.02236-.0012.044-.00416.06549-.00541C27.55241,21.04221,27.53085,21.04432,27.50843,21.04637Z"/></g><g class="cls-10"><rect class="cls-11" x="27.50843" y="21.04096" width="0.06549" height="0.00541"/></g><path class="cls-4" d="M27.51087,21.04589l.0009-.00081Z"/><g class="cls-5"><path class="cls-4" d="M27.51087,21.04589l.0009-.00081Z"/></g><g class="cls-12"><rect class="cls-13" x="27.51087" y="21.045" width="0.00091" height="0.00097"/></g><path class="cls-2" d="M22.95605,31.64819a3.58456,3.58456,0,0,0,.23664-.38873,1.87581,1.87581,0,0,1-1.84528.54889,5.23106,5.23106,0,0,0,2.76709-1.98749c.15631-.21942.30957-.46039.46784-.72833a4.26593,4.26593,0,0,1-4.0871,1.05328l-.06378-.01422-1.02906.06647c-.03961.089-.07836.178-.11712.26794l.00036-.00006q-.31.71392-.62439,1.45581l-.009.02167c-.02991.07-.0589.13989-.0888.20984-.14081.33392-.26423.63476-.546,1.31885a2.71991,2.71991,0,0,1,.94311,1.2514,2.16082,2.16082,0,0,0-.613-1.52515C20.29272,33.4046,22.00244,33.01575,22.95605,31.64819Z"/></svg>