<svg xmlns="http://www.w3.org/2000/svg" viewBox="0 0 48 48"><defs><style>.cls-1{fill:#ff6c2c;}</style></defs><g id="Base_Icons" data-name="Base Icons"><path d="M41.3291,10.25781a2.126,2.126,0,0,0,.51074-2.36328A2.24619,2.24619,0,0,0,39.7373,6.5H8.2627A2.24619,2.24619,0,0,0,6.16016,7.89453a2.10341,2.10341,0,0,0,.47656,2.32715L22.375,28.82617c.01074.0127.02246.02442.03418.03613a2.24237,2.24237,0,0,0,1.1029.57789A.46779.46779,0,0,0,23.5,29.5v12a.5.5,0,0,0,1,0v-12a.46624.46624,0,0,0-.01337-.06641,2.35016,2.35016,0,0,0,1.13837-.60742Zm-18.208,17.90137L7.36621,9.53906a1.13021,1.13021,0,0,1-.2793-1.26953A1.23571,1.23571,0,0,1,8.2627,7.5H39.7373a1.23571,1.23571,0,0,1,1.17579.76953,1.15576,1.15576,0,0,1-.31348,1.30567L24.89551,28.14355A1.29929,1.29929,0,0,1,23.12109,28.15918Z"/></g><g id="Sub_Icons" data-name="Sub Icons"><path class="cls-1" d="M38.75,43h-4.5a.49965.49965,0,0,1-.35352-.14648l-3.75-3.75A.49965.49965,0,0,1,30,38.75v-4.5a.49965.49965,0,0,1,.14648-.35352l3.75-3.75A.49965.49965,0,0,1,34.25,30h4.5a.49965.49965,0,0,1,.35352.14648l3.75,3.75A.49965.49965,0,0,1,43,34.25v4.5a.49965.49965,0,0,1-.14648.35352l-3.75,3.75A.49965.49965,0,0,1,38.75,43Zm-4.293-1H38.543L42,38.543V34.457L38.543,31H34.457L31,34.457V38.543Z"/><path class="cls-1" d="M36.5,36.5A.49971.49971,0,0,1,36,36V33a.5.5,0,0,1,1,0v3A.49971.49971,0,0,1,36.5,36.5Z"/><circle class="cls-1" cx="36.5" cy="39" r="0.5"/></g></svg>