<svg xmlns="http://www.w3.org/2000/svg" viewBox="0 0 48 48"><defs><style>.cls-1{fill:#ff6c2c;}</style></defs><g id="Base_Icons" data-name="Base Icons"><path d="M20.333,26H10.667A1.66919,1.66919,0,0,0,9,27.667v9.666A1.66919,1.66919,0,0,0,10.667,39h9.666A1.66919,1.66919,0,0,0,22,37.333V27.667A1.66919,1.66919,0,0,0,20.333,26ZM21,37.333a.66726.66726,0,0,1-.667.667H10.667A.66726.66726,0,0,1,10,37.333V27.667A.66726.66726,0,0,1,10.667,27h9.666a.66726.66726,0,0,1,.667.667Z"/><path d="M38.833,26.5a.49972.49972,0,0,0-.5-.5H28.667A1.66919,1.66919,0,0,0,27,27.667v9.666a.5.5,0,0,0,1,0V27.667A.66726.66726,0,0,1,28.667,27h9.666A.49972.49972,0,0,0,38.833,26.5Z"/><path d="M20.333,9H10.667A1.66919,1.66919,0,0,0,9,10.667v9.666A1.66919,1.66919,0,0,0,10.667,22h9.666A1.66919,1.66919,0,0,0,22,20.333V10.667A1.66919,1.66919,0,0,0,20.333,9ZM21,20.333a.66726.66726,0,0,1-.667.667H10.667A.66726.66726,0,0,1,10,20.333V10.667A.66726.66726,0,0,1,10.667,10h9.666a.66726.66726,0,0,1,.667.667Z"/><path d="M33.14062,23.19043a1.66434,1.66434,0,0,0,1.17872-.48633l5.86718-5.86719a1.668,1.668,0,0,0,0-2.35742L34.31934,8.6123a1.668,1.668,0,0,0-2.35743,0l-5.86718,5.86719a1.668,1.668,0,0,0,0,2.35742l5.86718,5.86719A1.66433,1.66433,0,0,0,33.14062,23.19043Zm-6.33886-8.00391L32.669,9.31934a.66718.66718,0,0,1,.94335,0l5.86719,5.86718a.66839.66839,0,0,1,0,.94336L33.6123,21.99707a.66837.66837,0,0,1-.94335,0l-5.86719-5.86719A.66839.66839,0,0,1,26.80176,15.18652Z"/></g><g id="Sub_Icons" data-name="Sub Icons"><path class="cls-1" d="M36,30a3,3,0,1,0,3,3A3.00328,3.00328,0,0,0,36,30Zm0,5a2,2,0,1,1,2-2A2.0026,2.0026,0,0,1,36,35Z"/><path class="cls-1" d="M41,38a.49971.49971,0,0,0-.5.5v2.001a.49929.49929,0,0,1-.499.499H31.999a.49929.49929,0,0,1-.499-.499V38.5a.5.5,0,0,0-1,0v2.001A1.50122,1.50122,0,0,0,31.999,42h8.002A1.50122,1.50122,0,0,0,41.5,40.501V38.5A.49971.49971,0,0,0,41,38Z"/></g></svg>