<svg xmlns="http://www.w3.org/2000/svg" viewBox="0 0 48 48"><defs><style>.cls-1{fill:#ff6c2c;}</style></defs><g id="Base_Icons" data-name="Base Icons"><path d="M40.17676,8H7.82324A1.82589,1.82589,0,0,0,6,9.82324v4.35352A1.82589,1.82589,0,0,0,7.82324,16h.23554L11,39.5A1.50164,1.50164,0,0,0,12.5,41h23a1.48377,1.48377,0,0,0,1.49609-1.4375L39.94141,16h.23535A1.82589,1.82589,0,0,0,42,14.17676V9.82324A1.82589,1.82589,0,0,0,40.17676,8ZM36,39.5a.501.501,0,0,1-.5.5h-23a.52321.52321,0,0,1-.50391-.5625L9.06641,16H38.93359Zm5-25.32324A.824.824,0,0,1,40.17676,15H7.82324A.824.824,0,0,1,7,14.17676V9.82324A.824.824,0,0,1,7.82324,9H40.17676A.824.824,0,0,1,41,9.82324Z"/><path d="M16.31641,24.5H31.68359A1.31826,1.31826,0,0,0,33,23.18359V20.81641A1.31826,1.31826,0,0,0,31.68359,19.5H16.31641A1.31826,1.31826,0,0,0,15,20.81641v2.36718A1.31826,1.31826,0,0,0,16.31641,24.5Z"/></g><g id="Sub_Icons" data-name="Sub Icons"><rect class="cls-1" x="16" y="20.5" width="16" height="3" rx="0.31641"/></g></svg>