<svg xmlns="http://www.w3.org/2000/svg" viewBox="0 0 48 48"><defs><style>.cls-1{fill:#ff6c2c;}</style></defs><g id="Base_Icons" data-name="Base Icons"><path d="M36.19818,8.16016h4.14166a.5.5,0,1,0,0-1H34.66016a.49971.49971,0,0,0-.5.5v5.67968a.5.5,0,1,0,1,0V8.62738A18.99549,18.99549,0,1,1,24,5a.5.5,0,0,0,0-1A20.01891,20.01891,0,1,0,36.19818,8.16016Z"/></g><g id="Sub_Icons" data-name="Sub Icons"><path class="cls-1" d="M23.5,14a.5.5,0,0,0-1,0V25a.49971.49971,0,0,0,.5.5h9a.5.5,0,0,0,0-1H23.5Z"/></g></svg>