<svg xmlns="http://www.w3.org/2000/svg" viewBox="0 0 48 48"><defs><style>.cls-1{fill:#ff6c2c;}</style></defs><g id="Base_Icons" data-name="Base Icons"><path d="M23.5,14a.5.5,0,0,0-1,0V25a.49971.49971,0,0,0,.5.5h9a.5.5,0,0,0,0-1H23.5Z"/><path d="M27.4502,42.6875A19.24461,19.24461,0,0,1,24,43,19,19,0,0,1,24,5a.5.5,0,0,0,0-1,20,20,0,0,0,0,40,20.25208,20.25208,0,0,0,3.62988-.32812.50072.50072,0,0,0,.40235-.582A.5096.5096,0,0,0,27.4502,42.6875Z"/><path d="M36.19818,8.16016h4.14166a.5.5,0,1,0,0-1H34.66016a.49971.49971,0,0,0-.5.5v5.67968a.5.5,0,1,0,1,0V8.62738a19.02775,19.02775,0,0,1,7.40429,19.439c-.13183.59863-.293,1.19824-.48047,1.78027a.49913.49913,0,0,0,.32227.62891.49309.49309,0,0,0,.15332.02441.50017.50017,0,0,0,.47559-.34668c.19824-.6123.36816-1.24316.50586-1.874A20.01594,20.01594,0,0,0,36.19818,8.16016Z"/></g><g id="Sub_Icons" data-name="Sub Icons"><path class="cls-1" d="M37.85352,34.14648a.49983.49983,0,0,0-.707,0l-7,7a.5.5,0,1,0,.707.707l7-7A.49983.49983,0,0,0,37.85352,34.14648Z"/><circle class="cls-1" cx="41.5" cy="35.5" r="0.75"/><circle class="cls-1" cx="35.5" cy="30.5" r="0.75"/><circle class="cls-1" cx="38.5" cy="38.5" r="0.75"/><circle class="cls-1" cx="33.5" cy="33.5" r="0.75"/><circle class="cls-1" cx="39.5" cy="31.5" r="0.75"/></g></svg>