<svg xmlns="http://www.w3.org/2000/svg" viewBox="0 0 48 48"><defs><style>.cls-1{fill:#ff6c2c;}</style></defs><g id="Base_Icons" data-name="Base Icons"><path d="M41.59277,10.5H6.40723A1.90592,1.90592,0,0,0,4.5,12.40039V35.59961A1.90592,1.90592,0,0,0,6.40723,37.5H27.7041a.5.5,0,0,0,0-1H6.40723A.90526.90526,0,0,1,5.5,35.59961V14.5h37V31.7998a.5.5,0,0,0,1,0V12.40039A1.90592,1.90592,0,0,0,41.59277,10.5ZM5.5,13.5V12.40039A.90526.90526,0,0,1,6.40723,11.5H41.59277a.90526.90526,0,0,1,.90723.90039V13.5Z"/><path d="M16.5,18a.49971.49971,0,0,0-.5-.5H14a.49971.49971,0,0,0-.5.5v2a.49971.49971,0,0,0,.5.5h2a.49971.49971,0,0,0,.5-.5Zm-1,1.5h-1v-1h1Z"/><path d="M22.5,18a.49971.49971,0,0,0-.5-.5H20a.49971.49971,0,0,0-.5.5v2a.49971.49971,0,0,0,.5.5h2a.49971.49971,0,0,0,.5-.5Zm-1,1.5h-1v-1h1Z"/><path d="M28,17.5H26a.49971.49971,0,0,0-.5.5v2a.49971.49971,0,0,0,.5.5h2a.49971.49971,0,0,0,.5-.5V18A.49971.49971,0,0,0,28,17.5Zm-.5,2h-1v-1h1Z"/><path d="M32,20.5h2a.49971.49971,0,0,0,.5-.5V18a.49971.49971,0,0,0-.5-.5H32a.49971.49971,0,0,0-.5.5v2A.49971.49971,0,0,0,32,20.5Zm.5-2h1v1h-1Z"/><path d="M38,20.5h2a.49971.49971,0,0,0,.5-.5V18a.49971.49971,0,0,0-.5-.5H38a.49971.49971,0,0,0-.5.5v2A.49971.49971,0,0,0,38,20.5Zm.5-2h1v1h-1Z"/><path d="M16.5,24a.49971.49971,0,0,0-.5-.5H14a.49971.49971,0,0,0-.5.5v2a.49971.49971,0,0,0,.5.5h2a.49971.49971,0,0,0,.5-.5Zm-1,1.5h-1v-1h1Z"/><path d="M22.5,24a.49971.49971,0,0,0-.5-.5H20a.49971.49971,0,0,0-.5.5v2a.49971.49971,0,0,0,.5.5h2a.49971.49971,0,0,0,.5-.5Zm-1,1.5h-1v-1h1Z"/><path d="M28,23.5H26a.49971.49971,0,0,0-.5.5v2a.49971.49971,0,0,0,.5.5h2a.49971.49971,0,0,0,.5-.5V24A.49971.49971,0,0,0,28,23.5Zm-.5,2h-1v-1h1Z"/><path d="M31.5,26a.49971.49971,0,0,0,.5.5h2a.49971.49971,0,0,0,.5-.5V24a.49971.49971,0,0,0-.5-.5H32a.49971.49971,0,0,0-.5.5Zm1-1.5h1v1h-1Z"/><path d="M37.5,26a.49971.49971,0,0,0,.5.5h2a.49971.49971,0,0,0,.5-.5V24a.49971.49971,0,0,0-.5-.5H38a.49971.49971,0,0,0-.5.5Zm1-1.5h1v1h-1Z"/><path d="M16,29.5H14a.49971.49971,0,0,0-.5.5v2a.49971.49971,0,0,0,.5.5h2a.49971.49971,0,0,0,.5-.5V30A.49971.49971,0,0,0,16,29.5Zm-.5,2h-1v-1h1Z"/><path d="M22,29.5H20a.49971.49971,0,0,0-.5.5v2a.49971.49971,0,0,0,.5.5h2a.49971.49971,0,0,0,.5-.5V30A.49971.49971,0,0,0,22,29.5Zm-.5,2h-1v-1h1Z"/><path d="M28,29.5H26a.49971.49971,0,0,0-.5.5v2a.49971.49971,0,0,0,.5.5h2a.49971.49971,0,0,0,.5-.5V30A.49971.49971,0,0,0,28,29.5Zm-.5,2h-1v-1h1Z"/><path d="M10.5,18a.49971.49971,0,0,0-.5-.5H8a.49971.49971,0,0,0-.5.5v2a.49971.49971,0,0,0,.5.5h2a.49971.49971,0,0,0,.5-.5Zm-1,1.5h-1v-1h1Z"/><path d="M10.5,24a.49971.49971,0,0,0-.5-.5H8a.49971.49971,0,0,0-.5.5v2a.49971.49971,0,0,0,.5.5h2a.49971.49971,0,0,0,.5-.5Zm-1,1.5h-1v-1h1Z"/><path d="M10,29.5H8a.49971.49971,0,0,0-.5.5v2a.49971.49971,0,0,0,.5.5h2a.49971.49971,0,0,0,.5-.5V30A.49971.49971,0,0,0,10,29.5Zm-.5,2h-1v-1h1Z"/></g><g id="Sub_Icons" data-name="Sub Icons"><path class="cls-1" d="M36,30a6,6,0,1,0,2.23242,11.57031c.10156-.04.20215-.084.30078-.12988a.50023.50023,0,0,0-.42383-.90625q-.12157.05714-.249.1084a4.99,4.99,0,1,1,2.65918-2.499l-.085.169-.0003.0011-.00654.00867a.75069.75069,0,0,1-.40136.375A.77509.77509,0,0,1,39,38V33.7998a.49844.49844,0,0,0-.99664-.01672,3.035,3.035,0,1,0,.01593,4.40741A1.74638,1.74638,0,0,0,39.75,39.75a1.69826,1.69826,0,0,0,1.5061-.8949.4751.4751,0,0,0,.06714-.08362l.09571-.19238A6.00265,6.00265,0,0,0,36,30Zm.74512,7.85742A2.00084,2.00084,0,1,1,38,36a1.96834,1.96834,0,0,1-.05957.48633A2.00756,2.00756,0,0,1,36.74512,37.85742Z"/></g></svg>