<svg xmlns:inkscape="http://www.inkscape.org/namespaces/inkscape" xmlns:sodipodi="http://sodipodi.sourceforge.net/DTD/sodipodi-0.dtd" xmlns="http://www.w3.org/2000/svg" xmlns:svg="http://www.w3.org/2000/svg" viewBox="0 0 48 48" version="1.1" id="svg44" sodipodi:docname="calendar_and_contacts_manager.svg" inkscape:export-filename="/home/teo/Downloads/calendar_and_contacts.png" inkscape:export-xdpi="96" inkscape:export-ydpi="96" inkscape:version="1.1.2 (0a00cf5339, 2022-02-04)">
  <defs id="defs4">
    <style id="style2">.cls-1{fill:#ff6c2c;}</style>
  </defs>
  <g id="Base_Icons" data-name="Base Icons">
    <path d="M41.59277,10.5H6.40723A1.90592,1.90592,0,0,0,4.5,12.40039V35.59961A1.90592,1.90592,0,0,0,6.40723,37.5H27.7041a.5.5,0,0,0,0-1H6.40723A.90526.90526,0,0,1,5.5,35.59961V14.5h37V31.7998a.5.5,0,0,0,1,0V12.40039A1.90592,1.90592,0,0,0,41.59277,10.5ZM5.5,13.5V12.40039A.90526.90526,0,0,1,6.40723,11.5H41.59277a.90526.90526,0,0,1,.90723.90039V13.5Z" id="path6"/>
    <path d="M16.5,18a.49971.49971,0,0,0-.5-.5H14a.49971.49971,0,0,0-.5.5v2a.49971.49971,0,0,0,.5.5h2a.49971.49971,0,0,0,.5-.5Zm-1,1.5h-1v-1h1Z" id="path8"/>
    <path d="M22.5,18a.49971.49971,0,0,0-.5-.5H20a.49971.49971,0,0,0-.5.5v2a.49971.49971,0,0,0,.5.5h2a.49971.49971,0,0,0,.5-.5Zm-1,1.5h-1v-1h1Z" id="path10"/>
    <path d="M28,17.5H26a.49971.49971,0,0,0-.5.5v2a.49971.49971,0,0,0,.5.5h2a.49971.49971,0,0,0,.5-.5V18A.49971.49971,0,0,0,28,17.5Zm-.5,2h-1v-1h1Z" id="path12"/>
    <path d="M32,20.5h2a.49971.49971,0,0,0,.5-.5V18a.49971.49971,0,0,0-.5-.5H32a.49971.49971,0,0,0-.5.5v2A.49971.49971,0,0,0,32,20.5Zm.5-2h1v1h-1Z" id="path14"/>
    <path d="M38,20.5h2a.49971.49971,0,0,0,.5-.5V18a.49971.49971,0,0,0-.5-.5H38a.49971.49971,0,0,0-.5.5v2A.49971.49971,0,0,0,38,20.5Zm.5-2h1v1h-1Z" id="path16"/>
    <path d="M16.5,24a.49971.49971,0,0,0-.5-.5H14a.49971.49971,0,0,0-.5.5v2a.49971.49971,0,0,0,.5.5h2a.49971.49971,0,0,0,.5-.5Zm-1,1.5h-1v-1h1Z" id="path18"/>
    <path d="M22.5,24a.49971.49971,0,0,0-.5-.5H20a.49971.49971,0,0,0-.5.5v2a.49971.49971,0,0,0,.5.5h2a.49971.49971,0,0,0,.5-.5Zm-1,1.5h-1v-1h1Z" id="path20"/>
    <path d="M28,23.5H26a.49971.49971,0,0,0-.5.5v2a.49971.49971,0,0,0,.5.5h2a.49971.49971,0,0,0,.5-.5V24A.49971.49971,0,0,0,28,23.5Zm-.5,2h-1v-1h1Z" id="path22"/>
    <path d="M31.5,26a.49971.49971,0,0,0,.5.5h2a.49971.49971,0,0,0,.5-.5V24a.49971.49971,0,0,0-.5-.5H32a.49971.49971,0,0,0-.5.5Zm1-1.5h1v1h-1Z" id="path24"/>
    <path d="M37.5,26a.49971.49971,0,0,0,.5.5h2a.49971.49971,0,0,0,.5-.5V24a.49971.49971,0,0,0-.5-.5H38a.49971.49971,0,0,0-.5.5Zm1-1.5h1v1h-1Z" id="path26"/>
    <path d="M16,29.5H14a.49971.49971,0,0,0-.5.5v2a.49971.49971,0,0,0,.5.5h2a.49971.49971,0,0,0,.5-.5V30A.49971.49971,0,0,0,16,29.5Zm-.5,2h-1v-1h1Z" id="path28"/>
    <path d="M22,29.5H20a.49971.49971,0,0,0-.5.5v2a.49971.49971,0,0,0,.5.5h2a.49971.49971,0,0,0,.5-.5V30A.49971.49971,0,0,0,22,29.5Zm-.5,2h-1v-1h1Z" id="path30"/>
    <path d="M28,29.5H26a.49971.49971,0,0,0-.5.5v2a.49971.49971,0,0,0,.5.5h2a.49971.49971,0,0,0,.5-.5V30A.49971.49971,0,0,0,28,29.5Zm-.5,2h-1v-1h1Z" id="path32"/>
    <path d="M10.5,18a.49971.49971,0,0,0-.5-.5H8a.49971.49971,0,0,0-.5.5v2a.49971.49971,0,0,0,.5.5h2a.49971.49971,0,0,0,.5-.5Zm-1,1.5h-1v-1h1Z" id="path34"/>
    <path d="M10.5,24a.49971.49971,0,0,0-.5-.5H8a.49971.49971,0,0,0-.5.5v2a.49971.49971,0,0,0,.5.5h2a.49971.49971,0,0,0,.5-.5Zm-1,1.5h-1v-1h1Z" id="path36"/>
    <path d="M10,29.5H8a.49971.49971,0,0,0-.5.5v2a.49971.49971,0,0,0,.5.5h2a.49971.49971,0,0,0,.5-.5V30A.49971.49971,0,0,0,10,29.5Zm-.5,2h-1v-1h1Z" id="path38"/>
  </g>
  <path style="fill:#ff6600;stroke:#ff6600;stroke-width:1px;stroke-linecap:butt;stroke-linejoin:miter;stroke-opacity:1" d="m 29.51998,31.338184 2.495285,5.055135 1.02969,-0.531855 -2.463418,-5.025892 z" id="path14795"/>
  <path style="fill:#ff6600;stroke:#ff6600;stroke-width:1px;stroke-linecap:butt;stroke-linejoin:miter;stroke-opacity:1" d="m 33.094232,34.408036 6.726145,-3.55695 -1.425266,-2.766786 -6.531815,3.572051 z" id="path14863"/>
  <path style="fill:#ff6600;stroke:#ff6600;stroke-width:1px;stroke-linecap:butt;stroke-linejoin:miter;stroke-opacity:1" d="m 38.677799,39.585319 -3.245425,-5.930234 2.240934,-1.311242 3.161518,5.837509 z" id="path15120"/>
</svg>