<svg xmlns="http://www.w3.org/2000/svg" viewBox="0 0 48 48"><defs><style>.cls-1{fill:#ff6c2c;}</style></defs><g id="Base_Icons" data-name="Base Icons"><path d="M29.5,17a.5.5,0,0,0,.35352-.85352L27.707,14h6.7959A.49722.49722,0,0,1,35,14.49707V20.5a.5.5,0,0,0,1,0V14.49707A1.49915,1.49915,0,0,0,34.50293,13H27.707l2.14649-2.14648a.5.5,0,0,0-.707-.707l-2.99939,2.99939a.5015.5015,0,0,0,0,.70826l2.99939,2.99939A.49842.49842,0,0,0,29.5,17Z"/><path d="M22.96155,35.30908a.50008.50008,0,0,0-.10864-.16321l-2.99939-2.99939a.5.5,0,0,0-.707.707L21.293,35H14.502a.50305.50305,0,0,1-.502-.502V28.5a.5.5,0,0,0-1,0v5.998A1.50373,1.50373,0,0,0,14.502,36h6.791l-2.14649,2.14648a.5.5,0,1,0,.707.707l2.99939-2.99939a.5015.5015,0,0,0,.10864-.545Z"/></g><g id="Sub_Icons" data-name="Sub Icons"><path class="cls-1" d="M15.8291,16.84768l1.71221,3.71a.50029.50029,0,0,0,.90821-.41992l-6-13a.52144.52144,0,0,0-.90821,0l-6,13a.50029.50029,0,0,0,.90821.41992l1.71222-3.71ZM11.99542,8.541l3.37213,7.30664H8.62329Z"/><path class="cls-1" d="M39.49542,39.84768a8.52753,8.52753,0,0,1-4.5492-1.34955,10.54239,10.54239,0,0,0,3.65064-7.65045h.89856a.5.5,0,0,0,0-1h-5v-1.5a.5.5,0,0,0-1,0v1.5h-5a.5.5,0,0,0,0,1h9.1015a9.51725,9.51725,0,0,1-3.50586,7.043,9.81855,9.81855,0,0,1-2.999-4.10748.5.5,0,0,0-.93164.36328,10.892,10.892,0,0,0,3.0664,4.35321,8.917,8.917,0,0,1-4.73144,1.348.5.5,0,1,0,0,1A9.92093,9.92093,0,0,0,34.08013,39.149a9.563,9.563,0,0,0,5.41529,1.69873.5.5,0,0,0,0-1Z"/></g></svg>