<svg xmlns="http://www.w3.org/2000/svg" viewBox="0 0 48 48"><defs><style>.cls-1{fill:#ff6c2c;}</style></defs><g id="Base_Icons" data-name="Base Icons"><path d="M40.85352,40.14648,30.17139,29.46436A12.43422,12.43422,0,0,0,33.47467,21.5H34a.5.5,0,0,0,0-1h-.52533a12.48406,12.48406,0,0,0-24.94934,0H8a.5.5,0,0,0,0,1h.52533A12.49623,12.49623,0,0,0,20.5,33.47467V34a.5.5,0,0,0,1,0v-.52533a12.43422,12.43422,0,0,0,7.96436-3.30328L40.14648,40.85352a.5.5,0,0,0,.707-.707ZM21,31.5a.49971.49971,0,0,0-.5.5v.47467A11.49663,11.49663,0,0,1,9.52533,21.5H10a.5.5,0,0,0,0-1H9.52533a11.48491,11.48491,0,0,1,22.94934,0H32a.5.5,0,0,0,0,1h.47467A11.49663,11.49663,0,0,1,21.5,32.47467V32A.49971.49971,0,0,0,21,31.5Z"/></g><g id="Sub_Icons" data-name="Sub Icons"><path class="cls-1" d="M24.0899,23.50909A1.4976,1.4976,0,0,1,25.5,25a.5.5,0,0,0,1,0,2.49588,2.49588,0,0,0-1.83881-2.40009,3.94691,3.94691,0,0,0,0-3.19982A2.49588,2.49588,0,0,0,26.5,17a.5.5,0,0,0-1,0,1.4976,1.4976,0,0,1-1.4101,1.49091,3.94735,3.94735,0,0,0-6.1798,0A1.4976,1.4976,0,0,1,16.5,17a.5.5,0,0,0-1,0,2.49588,2.49588,0,0,0,1.83881,2.40009,3.94691,3.94691,0,0,0,0,3.19982A2.49588,2.49588,0,0,0,15.5,25a.5.5,0,0,0,1,0,1.4976,1.4976,0,0,1,1.4101-1.49091,3.94735,3.94735,0,0,0,6.1798,0ZM21,24a3,3,0,1,1,3-3A3.00328,3.00328,0,0,1,21,24Z"/></g></svg>