<svg width="48" height="48" xmlns="http://www.w3.org/2000/svg" data-name="Layer 2">
    <g stroke="none" data-name="Layer 1" stroke-width="0">
        <path fill="#241f20" d="M4.033 5.283v29.765h14.702l-2.221 6.61h-3.385c-.296 0-.53.233-.53.53s.234.529.53.529h21.503c.296 0 .53-.233.53-.53s-.234-.528-.53-.528h-3.321l-2.295-6.611h.825c.296 0 .529-.233.529-.53s-.233-.528-.53-.528H5.09v-3.12h19.907c.296 0 .529-.233.529-.53s-.233-.529-.53-.529H5.092V6.341h37.073v23.756c0 .297.233.53.529.53s.529-.233.529-.53V5.283H4.032zM30.2 41.67H17.635l2.221-6.611h8.05l2.294 6.61z"/>
        <path fill="#ff6c2c" d="M43.834 35.757 30.02 19.53s-.074-.074-.116-.094l-5.743-3.131a.532.532 0 0 0-.582.053.504.504 0 0 0-.18.55l1.746 6.536s.042.095.074.138l13.623 16.627a.552.552 0 0 0 .37.19h.043a.49.49 0 0 0 .35-.137l4.188-3.766a.542.542 0 0 0 .053-.74h-.012zM28.7 19.975l-2.75 2.369-1.207-4.527 3.956 2.158zm12.016 13.74-3.502 2.844-10.82-13.189 3.173-2.739 11.149 13.094v-.01zm1.988 2.337-3.396 3.057-1.417-1.725L41.4 34.53l1.301 1.534v-.011z"/>
    </g>
</svg>