<svg xmlns="http://www.w3.org/2000/svg" viewBox="0 0 48 48"><defs><style>.cls-1{fill:#ff6c2c;}</style></defs><g id="Base_Icons" data-name="Base Icons"><path d="M23.5,17H21V13h2.5a.5.5,0,0,0,0-1H21V10.45508A1.45621,1.45621,0,0,0,19.54492,9H18V6.5a.5.5,0,0,0-1,0V9H13V6.5a.5.5,0,0,0-1,0V9H10.45508A1.45621,1.45621,0,0,0,9,10.45508V12H6.5a.5.5,0,0,0,0,1H9v4H6.5a.5.5,0,0,0,0,1H9v1.54492A1.45621,1.45621,0,0,0,10.45508,21H12v2.5a.5.5,0,0,0,1,0V21h4v2.5a.5.5,0,0,0,1,0V21h1.54492A1.45621,1.45621,0,0,0,21,19.54492V18h2.5a.5.5,0,0,0,0-1ZM20,19.54492A.45553.45553,0,0,1,19.54492,20H10.45508A.45553.45553,0,0,1,10,19.54492V10.45508A.45553.45553,0,0,1,10.45508,10h9.08984A.45553.45553,0,0,1,20,10.45508Z"/><path d="M27,15.5h4.96191a.53847.53847,0,0,1,.53809.53809V21a.5.5,0,0,0,1,0V16.03809A1.54041,1.54041,0,0,0,31.96191,14.5H27a.5.5,0,0,0,0,1Z"/><path d="M21,32.5H16.03809A.53847.53847,0,0,1,15.5,31.96191V27a.5.5,0,0,0-1,0v4.96191A1.54041,1.54041,0,0,0,16.03809,33.5H21a.5.5,0,0,0,0-1Z"/></g><g id="Sub_Icons" data-name="Sub Icons"><path class="cls-1" d="M41.5,35H39V31h2.5a.5.5,0,0,0,0-1H39V28.45508A1.45621,1.45621,0,0,0,37.54492,27H36V24.5a.5.5,0,0,0-1,0V27H31V24.5a.5.5,0,0,0-1,0V27H28.45508A1.45621,1.45621,0,0,0,27,28.45508V30H24.5a.5.5,0,0,0,0,1H27v4H24.5a.5.5,0,0,0,0,1H27v1.54492A1.45621,1.45621,0,0,0,28.45508,39H30v2.5a.5.5,0,0,0,1,0V39h4v2.5a.5.5,0,0,0,1,0V39h1.54492A1.45621,1.45621,0,0,0,39,37.54492V36h2.5a.5.5,0,0,0,0-1ZM38,37.54492A.45553.45553,0,0,1,37.54492,38H28.45508A.45553.45553,0,0,1,28,37.54492V28.45508A.45553.45553,0,0,1,28.45508,28h9.08984A.45553.45553,0,0,1,38,28.45508Z"/></g></svg>