<svg id="Base_Icons" data-name="Base Icons" xmlns="http://www.w3.org/2000/svg" viewBox="0 0 48 48"><path d="M24,3.5A20.50613,20.50613,0,1,0,34.9541,41.33008a.49957.49957,0,1,0-.53515-.84375,19.48837,19.48837,0,1,1,7.19335-8.10449c-.09753.20355-.19812.40411-.302.604-.00567.01-.0152.0163-.02026.02686a4.04639,4.04639,0,0,1-7.69922-1.74024V14.90918a.5.5,0,0,0-1,0v5.06195a9.5173,9.5173,0,1,0,0,8.05212v3.24921a5.04031,5.04031,0,0,0,9.55689,2.24664.48157.48157,0,0,0,.03686-.04547q.17139-.32666.33008-.66211A20.50858,20.50858,0,0,0,24,3.5Zm8.24707,22.56445A8.50564,8.50564,0,1,1,32.5,24,8.51943,8.51943,0,0,1,32.24707,26.06445Z"/></svg>