<svg xmlns="http://www.w3.org/2000/svg" viewBox="0 0 48 48"><defs><style>.cls-1{fill:#ff6c2c;}</style></defs><g id="Base_Icons" data-name="Base Icons"><path d="M44.54687,22.72363C42.22754,19.85645,33.89258,10.5,24,10.5S5.77246,19.85645,3.45312,22.72363a2.01332,2.01332,0,0,0,0,2.55274C5.77246,28.14355,14.10742,37.5,24,37.5a16.89243,16.89243,0,0,0,3.56738-.39062.49954.49954,0,1,0-.21093-.97657A15.99426,15.99426,0,0,1,24,36.5c-9.44922,0-17.52051-9.07227-19.76953-11.85254a1.02133,1.02133,0,0,1,0-1.29492C6.47949,20.57227,14.55078,11.5,24,11.5s17.52051,9.07227,19.76953,11.85254a1.02136,1.02136,0,0,1,0,1.29492A43.76131,43.76131,0,0,1,38.7832,29.835a.50031.50031,0,1,0,.66016.752,44.75689,44.75689,0,0,0,5.10351-5.31054A2.01329,2.01329,0,0,0,44.54687,22.72363Z"/><path d="M19,24a5,5,0,1,0,5-5A5.00588,5.00588,0,0,0,19,24Zm9,0a4,4,0,1,1-4-4A4.004,4.004,0,0,1,28,24Z"/></g><g id="Sub_Icons" data-name="Sub Icons"><path class="cls-1" d="M40.5,32.50879h-.0166l-4.05078.0459a.48431.48431,0,0,1-.36914-.15723l-.40332-.42676a1.50726,1.50726,0,0,0-1.0918-.4707H31.501A1.50331,1.50331,0,0,0,30,33.001v5.998A1.50331,1.50331,0,0,0,31.501,40.5h8.99609A1.50414,1.50414,0,0,0,42,38.99707V34.00781a1.49867,1.49867,0,0,0-1.5-1.499Zm.5,6.48828a.50347.50347,0,0,1-.50293.50293H31.501A.50138.50138,0,0,1,31,38.999V33.001a.50138.50138,0,0,1,.501-.501h3.06738a.49858.49858,0,0,1,.36426.15723l.40429.42773a1.50739,1.50739,0,0,0,1.09082.46973h.01563l4.05176-.0459a.46915.46915,0,0,1,.35644.14453A.49566.49566,0,0,1,41,34.00781Z"/></g></svg>