<svg xmlns="http://www.w3.org/2000/svg" viewBox="0 0 48 48"><defs><style>.cls-1{fill:#ff6c2c;}</style></defs><g id="Base_Icons" data-name="Base Icons"><path d="M28.5,41H19V38.5a.5.5,0,0,0-1,0V41H15V38.5a.5.5,0,0,0-1,0V41H11V38.5a.5.5,0,0,0-1,0V41H7.5a.501.501,0,0,1-.5-.5V33H27a.5.5,0,0,0,0-1H7.10547L11.51855,9.02637A1.49761,1.49761,0,0,1,12.94238,8H35.05762a1.4897,1.4897,0,0,1,1.40722.96289l4.54395,23.63184A.5.5,0,0,0,41.499,33a.537.537,0,0,0,.09571-.00879.50138.50138,0,0,0,.39648-.58594L37.43066,8.71A2.49864,2.49864,0,0,0,35.05762,7H12.94238a2.51147,2.51147,0,0,0-2.38965,1.77344L6.00879,32.40527a.486.486,0,0,0,.00152.14338c-.00158.01763-.01031.03289-.01031.051V40.5A1.50164,1.50164,0,0,0,7.5,42h21a.5.5,0,0,0,0-1Z"/></g><g id="Sub_Icons" data-name="Sub Icons"><path class="cls-1" d="M42,35.5H36.5V30a.49971.49971,0,0,0-.5-.5A6.5,6.5,0,1,0,42.5,36,.49971.49971,0,0,0,42,35.5Zm-6,6a5.50016,5.50016,0,0,1-.5-10.97754V36a.49971.49971,0,0,0,.5.5h5.47754A5.50689,5.50689,0,0,1,36,41.5Z"/></g></svg>