<svg xmlns="http://www.w3.org/2000/svg" viewBox="0 0 48 48"><defs><style>.cls-1{fill:#ff6c2c;}</style></defs><g id="Base_Icons" data-name="Base Icons"><path d="M33,26.5a.49971.49971,0,0,0-.5-.5h-17a.50008.50008,0,0,0-.3252.87988l7,6A.4954.4954,0,0,0,22.5,33a.5.5,0,0,0,.3252-.87988L16.85156,27H32.5A.49971.49971,0,0,0,33,26.5Z"/><path d="M15,21.5a.49971.49971,0,0,0,.5.5h17a.49988.49988,0,0,0,.3252-.87939l-7-6a.49969.49969,0,1,0-.6504.75878L31.14844,21H15.5A.49971.49971,0,0,0,15,21.5Z"/><path d="M24,3a21,21,0,1,0,6.21582,41.06445.49978.49978,0,1,0-.29492-.95507A19.98364,19.98364,0,1,1,43.05273,30.09766a.50032.50032,0,0,0,.95313.30468A21.01517,21.01517,0,0,0,24,3Z"/></g><g id="Sub_Icons" data-name="Sub Icons"><path class="cls-1" d="M36,30a6,6,0,1,0,6,6A6,6,0,0,0,36,30Zm4.94946,5.5H38.98737a8.92055,8.92055,0,0,0-1.071-4.11517A4.99414,4.99414,0,0,1,40.94946,35.5ZM36,41c-.76874,0-1.85284-1.74451-1.97595-4.5H37.976C37.85284,39.25549,36.7688,41,36,41Zm-1.97595-5.5C34.14716,32.74445,35.23126,31,36,31c.7688,0,1.85284,1.74445,1.97595,4.5Zm.05957-4.11517A8.92055,8.92055,0,0,0,33.01263,35.5H31.05054A4.99414,4.99414,0,0,1,34.08362,31.38483ZM31.05054,36.5h1.96209a8.92055,8.92055,0,0,0,1.071,4.11517A4.99414,4.99414,0,0,1,31.05054,36.5Zm6.86584,4.11517A8.92055,8.92055,0,0,0,38.98737,36.5h1.96209A4.99414,4.99414,0,0,1,37.91638,40.61517Z"/></g></svg>