<svg id="Base_Icons" data-name="Base Icons" xmlns="http://www.w3.org/2000/svg" viewBox="0 0 48 48"><path d="M41.83984,7.89453A2.24619,2.24619,0,0,0,39.7373,6.5H8.2627A2.24619,2.24619,0,0,0,6.16016,7.89453a2.10341,2.10341,0,0,0,.47656,2.32715L22.375,28.82617c.01074.0127.02246.02442.03418.03613a2.24237,2.24237,0,0,0,1.1029.57789A.46779.46779,0,0,0,23.5,29.5v12a.5.5,0,0,0,1,0v-12a.46624.46624,0,0,0-.01337-.06641,2.35016,2.35016,0,0,0,1.13837-.60742L41.3291,10.25781A2.126,2.126,0,0,0,41.83984,7.89453ZM40.59961,9.5752,24.89551,28.14355a1.29929,1.29929,0,0,1-1.77442.01563L7.36621,9.53906a1.13021,1.13021,0,0,1-.2793-1.26953A1.23571,1.23571,0,0,1,8.2627,7.5H39.7373a1.23571,1.23571,0,0,1,1.17579.76953A1.15576,1.15576,0,0,1,40.59961,9.5752Z"/></svg>