<svg xmlns="http://www.w3.org/2000/svg" viewBox="0 0 48 48"><defs><style>.cls-1{fill:#ff6c2c;}</style></defs><g id="Base_Icons" data-name="Base Icons"><path d="M28,37H14.94946a4.50006,4.50006,0,1,0,0,1H28a.5.5,0,0,0,0-1ZM10.5,41A3.5,3.5,0,1,1,14,37.5,3.50424,3.50424,0,0,1,10.5,41Z"/><path d="M38.01953,23.5H29a.46549.46549,0,0,0-.04956.01,4.97195,4.97195,0,0,0-9.90088,0A.46549.46549,0,0,0,19,23.5H9.98047A2.99353,2.99353,0,0,1,7,20.5V14a2.99353,2.99353,0,0,1,2.98047-3H32a5.00027,5.00027,0,1,0,.10107-1H9.98047A3.9942,3.9942,0,0,0,6,14v6.5a3.9942,3.9942,0,0,0,3.98047,4H19a.46549.46549,0,0,0,.04956-.01,4.97195,4.97195,0,0,0,9.90088,0A.46549.46549,0,0,0,29,24.5h9.01953A2.99353,2.99353,0,0,1,41,27.5v2.27832a.5.5,0,1,0,1,0V27.5A3.9942,3.9942,0,0,0,38.01953,23.5ZM37,7a4,4,0,1,1-4,4A4.004,4.004,0,0,1,37,7ZM24,28a4,4,0,1,1,4-4A4.004,4.004,0,0,1,24,28Z"/></g><g id="Sub_Icons" data-name="Sub Icons"><path class="cls-1" d="M40.14551,31.5h-8.291A1.85673,1.85673,0,0,0,30,33.35449v5.291A1.85673,1.85673,0,0,0,31.85449,40.5h8.291A1.85673,1.85673,0,0,0,42,38.64551v-5.291A1.85673,1.85673,0,0,0,40.14551,31.5ZM41,38.64551a.85606.85606,0,0,1-.85449.85449h-8.291A.85606.85606,0,0,1,31,38.64551v-5.291A.85606.85606,0,0,1,31.85449,32.5h8.291A.85606.85606,0,0,1,41,33.35449Z"/><path class="cls-1" d="M39.252,33.56543,36,35.42383l-3.252-1.8584a.50038.50038,0,1,0-.4961.86914l3.5,2a.5029.5029,0,0,0,.4961,0l3.5-2a.50038.50038,0,0,0-.4961-.86914Z"/></g></svg>