<svg xmlns="http://www.w3.org/2000/svg" viewBox="0 0 48 48"><defs><style>.cls-1{fill:#ff6c2c;}</style></defs><g id="Base_Icons" data-name="Base Icons"><path d="M26.59473,38H6.90527a1.88954,1.88954,0,0,1-1.44336-.59863.82469.82469,0,0,1-.19726-.68457C6.53125,30.33887,14.92871,29,21.75,29a34.6226,34.6226,0,0,1,8.7207.959.5.5,0,1,0,.25586-.96679A35.63167,35.63167,0,0,0,21.75,28C11.43066,28,5.3916,30.94629,4.28418,36.52148a1.80376,1.80376,0,0,0,.4043,1.51368A2.86458,2.86458,0,0,0,6.90527,39H26.59473a.5.5,0,0,0,0-1Z"/><path d="M21.75,25a9,9,0,1,0-9-9A9.00984,9.00984,0,0,0,21.75,25Zm0-17a8,8,0,1,1-8,8A8.00917,8.00917,0,0,1,21.75,8Z"/><path d="M31.20441,24.52722a.48309.48309,0,0,0,.01776.07257.48962.48962,0,0,0,.029.113.49815.49815,0,0,0,.11554.15662l.00049.00067a.49593.49593,0,0,0,.16607.09887l.00287.00171a18.82235,18.82235,0,0,1,7.498,4.88184.50032.50032,0,0,0,.73437-.67969,19.7208,19.7208,0,0,0-7.2423-4.88855,12.66871,12.66871,0,0,0-.453-16.12024.49984.49984,0,1,0-.74023.67188,11.63567,11.63567,0,0,1,0,15.32812A.49764.49764,0,0,0,31.20441,24.52722Z"/></g><g id="Sub_Icons" data-name="Sub Icons"><path class="cls-1" d="M40.14551,31.5h-8.291A1.85673,1.85673,0,0,0,30,33.35449v5.291A1.85673,1.85673,0,0,0,31.85449,40.5h8.291A1.85673,1.85673,0,0,0,42,38.64551v-5.291A1.85673,1.85673,0,0,0,40.14551,31.5ZM41,38.64551a.85606.85606,0,0,1-.85449.85449h-8.291A.85606.85606,0,0,1,31,38.64551v-5.291A.85606.85606,0,0,1,31.85449,32.5h8.291A.85606.85606,0,0,1,41,33.35449Z"/><path class="cls-1" d="M39.252,33.56543,36,35.42383l-3.252-1.8584a.50038.50038,0,1,0-.4961.86914l3.5,2a.5029.5029,0,0,0,.4961,0l3.5-2a.50038.50038,0,0,0-.4961-.86914Z"/></g></svg>