<svg xmlns="http://www.w3.org/2000/svg" viewBox="0 0 48 48"><defs><style>.cls-1{fill:#ff6c2c;}</style></defs><g id="Base_Icons" data-name="Base Icons"><path d="M39.915,17H8.085A2.08763,2.08763,0,0,0,6,19.085V36.915A2.08763,2.08763,0,0,0,8.085,39H39.915A2.08763,2.08763,0,0,0,42,36.915V19.085A2.08763,2.08763,0,0,0,39.915,17ZM41,36.915A1.0857,1.0857,0,0,1,39.915,38H8.085A1.0857,1.0857,0,0,1,7,36.915V19.085A1.0857,1.0857,0,0,1,8.085,18H39.915A1.0857,1.0857,0,0,1,41,19.085Z"/><path d="M13.5,16a.49971.49971,0,0,0,.5-.5V9.49707A1.49914,1.49914,0,0,1,15.49707,8H32.50293A1.49915,1.49915,0,0,1,34,9.49707V15.5a.5.5,0,0,0,1,0V9.49707A2.49982,2.49982,0,0,0,32.50293,7H15.49707A2.49982,2.49982,0,0,0,13,9.49707V15.5A.49971.49971,0,0,0,13.5,16Z"/></g><g id="Sub_Icons" data-name="Sub Icons"><path class="cls-1" d="M28.5,26a2,2,0,1,0,2,2A2.0026,2.0026,0,0,0,28.5,26Zm0,3a1,1,0,1,1,1-1A1.00067,1.00067,0,0,1,28.5,29Z"/><path class="cls-1" d="M19.5,26a2,2,0,1,0,2,2A2.0026,2.0026,0,0,0,19.5,26Zm0,3a1,1,0,1,1,1-1A1.00067,1.00067,0,0,1,19.5,29Z"/></g></svg>