<svg xmlns="http://www.w3.org/2000/svg" viewBox="0 0 48 48"><defs><style>.cls-1{fill:#ff6c2c;}</style></defs><g id="Base_Icons" data-name="Base Icons"><path d="M14,25H31a.5.5,0,0,0,0-1H14a.5.5,0,0,0,0,1Z"/><path d="M14,30H25a.5.5,0,0,0,0-1H14a.5.5,0,0,0,0,1Z"/><path d="M14,20H33a.5.5,0,0,0,0-1H14a.5.5,0,0,0,0,1Z"/><path d="M41.5,10H13.72266a.5.5,0,1,0,0,1H41.5a.501.501,0,0,1,.5.5v17a.5.5,0,0,0,1,0v-17A1.50164,1.50164,0,0,0,41.5,10Z"/><path d="M26.68555,37H6.5a.501.501,0,0,1-.5-.5V14.5498a.5.5,0,1,0-1,0V36.5A1.50164,1.50164,0,0,0,6.5,38H26.68555a.5.5,0,1,0,0-1Z"/><path d="M5.5,11a.51411.51411,0,0,0,.5-.5.40492.40492,0,0,0-.04-.19043.36482.36482,0,0,0-.11035-.16016.49117.49117,0,0,0-.54-.10937.52365.52365,0,0,0-.26953.26953A.40492.40492,0,0,0,5,10.5a.51228.51228,0,0,0,.5.5Z"/><path d="M8.24023,11a.51411.51411,0,0,0,.5-.5.4172.4172,0,0,0-.04-.19043.36476.36476,0,0,0-.11036-.16016.49153.49153,0,0,0-.54-.10937.35488.35488,0,0,0-.16015.10937.48486.48486,0,0,0,0,.7002A.467.467,0,0,0,8.24023,11Z"/><path d="M10.97949,11a.51228.51228,0,0,0,.5-.5.4048.4048,0,0,0-.04-.19043.52365.52365,0,0,0-.26953-.26953.49153.49153,0,0,0-.54.10937.36482.36482,0,0,0-.11035.16016.41708.41708,0,0,0-.04.19043.51411.51411,0,0,0,.5.5Z"/></g><g id="Sub_Icons" data-name="Sub Icons"><path class="cls-1" d="M39.10352,30.14648A.49965.49965,0,0,0,38.75,30h-4.5a.49965.49965,0,0,0-.35352.14648l-3.75,3.75A.49965.49965,0,0,0,30,34.25v4.5a.49965.49965,0,0,0,.14648.35352l3.75,3.75A.49965.49965,0,0,0,34.25,43h4.5a.49965.49965,0,0,0,.35352-.14648l3.75-3.75A.49965.49965,0,0,0,43,38.75v-4.5a.49965.49965,0,0,0-.14648-.35352ZM42,38.543,38.543,42H34.457L31,38.543V34.457L34.457,31H38.543L42,34.457Z"/><path class="cls-1" d="M36.42676,32.46973a.49971.49971,0,0,0-.5.5v3a.5.5,0,0,0,1,0v-3A.49972.49972,0,0,0,36.42676,32.46973Z"/><circle class="cls-1" cx="36.42676" cy="38.96967" r="0.5"/></g></svg>