<svg xmlns="http://www.w3.org/2000/svg" viewBox="0 0 48 48"><defs><style>.cls-1{fill:#ff6c2c;}</style></defs><g id="Base_Icons" data-name="Base Icons"><path d="M27,38.5H12A2.5,2.5,0,0,1,9.5,36V12A2.5,2.5,0,0,1,12,9.5H36A2.5,2.5,0,0,1,38.5,12V27a.5.5,0,0,0,1,0V12A3.5,3.5,0,0,0,36,8.5H12A3.5,3.5,0,0,0,8.5,12V36A3.5,3.5,0,0,0,12,39.5H27a.5.5,0,0,0,0-1Z"/></g><g id="Sub_Icons" data-name="Sub Icons"><path class="cls-1" d="M41,36.6h0V35.4a1.8,1.8,0,0,0,.5-.7,2.5,2.5,0,0,0-.1-.8l-.9-1.4a1.1,1.1,0,0,0-1.4-.3l-1.2-.7a1.1,1.1,0,0,0-1.1-1H35.2a1.1,1.1,0,0,0-1.1,1l-1.2.7a1.1,1.1,0,0,0-1.4.3l-.9,1.4a2.5,2.5,0,0,0-.1.8,1,1,0,0,0,.5.6v1.3a1.8,1.8,0,0,0-.5.7,2.5,2.5,0,0,0,.1.8l.9,1.4a1.1,1.1,0,0,0,1.4.3l1.2.7a1.1,1.1,0,0,0,1.1,1h1.6a1.1,1.1,0,0,0,1.1-1l1.2-.7a1.1,1.1,0,0,0,1.4-.3l.9-1.4a2.5,2.5,0,0,0,.1-.8A1.8,1.8,0,0,0,41,36.6Zm-1.4,2.3a1.1,1.1,0,0,0-1.1.1,3.1,3.1,0,0,1-1,.5,1.4,1.4,0,0,0-.7,1H35.1a1.1,1.1,0,0,0-.6-1,3.1,3.1,0,0,1-1-.5l-.6-.2h-.5l-.9-1.4a.9.9,0,0,0,.5-1v-1a.9.9,0,0,0-.5-1l.9-1.4a1.1,1.1,0,0,0,1.1-.1,3.1,3.1,0,0,1,1-.5,1.4,1.4,0,0,0,.7-1h1.7a1.1,1.1,0,0,0,.6,1,3.1,3.1,0,0,1,1,.5,1.1,1.1,0,0,0,1.1.1l.9,1.4a.9.9,0,0,0-.5,1v1a.9.9,0,0,0,.5,1h0Z"/><path class="cls-1" d="M37,34.3a1.6,1.6,0,0,0-1.5-.2,1.6,1.6,0,0,0-1.2.9,1.6,1.6,0,0,0-.2,1.5,1.6,1.6,0,0,0,.9,1.2,1.9,1.9,0,0,0,1,.3h.5a1.6,1.6,0,0,0,1.2-.9,1.6,1.6,0,0,0,.2-1.5A1.6,1.6,0,0,0,37,34.3Zm-.1,2.2a1,1,0,1,1-1.8-1A1.2,1.2,0,0,1,36,35h.5A1.1,1.1,0,0,1,36.9,36.5Z"/><path class="cls-1" d="M18.8,21.1h3.6L21.8,23a1,1,0,0,1-.4.7l-.9.2H18.9a2,2,0,0,0-1.1.3,2.4,2.4,0,0,0-.6.8,2.2,2.2,0,0,0,0,.8l.3.6.6.4h1.8c.2,0,.3.1.5.3a.6.6,0,0,1,.1.4l-.7,2.2H18.7a4.6,4.6,0,0,1-2.1-.5,4.5,4.5,0,0,1-2.5-2.9,3.5,3.5,0,0,1,.1-2v-.2a8.3,8.3,0,0,1,.7-1.3,4.3,4.3,0,0,1,1-.9l1.3-.7Z"/><path class="cls-1" d="M21.5,29.8l3.2-10.7c0-.2.2-.4.4-.6a1.3,1.3,0,0,1,.8-.3h3.4a4.6,4.6,0,0,1,2.1.5A4,4,0,0,1,33,19.9a5.6,5.6,0,0,1,.9,1.7,3.5,3.5,0,0,1-.1,2v.2a8.3,8.3,0,0,1-.7,1.3l-1,1-1.3.6a4.1,4.1,0,0,1-1.6.2H26.3l.6-1.9a1,1,0,0,1,.5-.6,1.1,1.1,0,0,1,.8-.3h.9a2,2,0,0,0,1.1-.3,1.6,1.6,0,0,0,.6-.8v-.7a1.6,1.6,0,0,0-.3-.6l-.6-.5H27.3L25,28.9a1.3,1.3,0,0,1-.5.6,1.1,1.1,0,0,1-.8.3Z"/></g></svg>