<svg xmlns="http://www.w3.org/2000/svg" viewBox="0 0 48 48"><defs><style>.cls-1{fill:#ff6c2c;}</style></defs><g id="Base_Icons" data-name="Base Icons"><path d="M15.59473,38H6.90527a1.88954,1.88954,0,0,1-1.44336-.59863.82469.82469,0,0,1-.19726-.68457C6.53125,30.33887,14.92871,29,21.75,29a29.16275,29.16275,0,0,1,11.05762,1.74414.49985.49985,0,0,0,.38672-.92187A30.11574,30.11574,0,0,0,21.75,28C11.43066,28,5.3916,30.94629,4.28418,36.52148a1.80376,1.80376,0,0,0,.4043,1.51368A2.86458,2.86458,0,0,0,6.90527,39h8.68946a.5.5,0,0,0,0-1Z"/><path d="M21.75,25a9,9,0,1,0-9-9A9.00984,9.00984,0,0,0,21.75,25Zm0-17a8,8,0,1,1-8,8A8.00917,8.00917,0,0,1,21.75,8Z"/><path d="M31.20441,24.52722a.48309.48309,0,0,0,.01776.07257.48962.48962,0,0,0,.029.113.49815.49815,0,0,0,.11554.15662l.00049.00067a.49593.49593,0,0,0,.16607.09887l.00287.00171A18.78628,18.78628,0,0,1,39.624,30.52441a.5.5,0,0,0,.76953-.63867,19.69784,19.69784,0,0,0-7.86895-5.59936,12.66852,12.66852,0,0,0-.45136-16.12232.49984.49984,0,1,0-.74023.67188,11.63567,11.63567,0,0,1,0,15.32812A.49764.49764,0,0,0,31.20441,24.52722Z"/></g><g id="Sub_Icons" data-name="Sub Icons"><path class="cls-1" d="M26,32.5H20a.49971.49971,0,0,0-.5.5v9a.5.5,0,0,0,1,0V38h4a.5.5,0,0,0,0-1h-4V33.5H26a.5.5,0,0,0,0-1Z"/><path class="cls-1" d="M42,32.5H39a.49971.49971,0,0,0-.5.5v9a.5.5,0,0,0,1,0V39.5H42a3.5,3.5,0,0,0,0-7Zm0,6H39.5v-5H42a2.5,2.5,0,0,1,0,5Z"/><path class="cls-1" d="M36.25,32.5h-7.5a.5.5,0,0,0,0,1H32V42a.5.5,0,0,0,1,0V33.5h3.25a.5.5,0,0,0,0-1Z"/></g></svg>