<svg xmlns="http://www.w3.org/2000/svg" viewBox="0 0 48 48"><defs><style>.cls-1{fill:#ff6c2c;}</style></defs><g id="Base_Icons" data-name="Base Icons"><path d="M34.5,21.5a3.983,3.983,0,0,0-3.52,2.11l-4.19-1.62A5.20942,5.20942,0,0,0,27,20.5a5.31476,5.31476,0,0,0-.6-2.48l8-5a3.95809,3.95809,0,0,0,3.1,1.48,4,4,0,1,0-4-4,3.799,3.799,0,0,0,.38,1.68l-8,5a5.48392,5.48392,0,0,0-9.01.37l-6.57-3.4A3.39067,3.39067,0,0,0,10.5,13a3.52323,3.52323,0,1,0-.66,2.03L16.41,18.42A5.51027,5.51027,0,0,0,16,20.5a5.38605,5.38605,0,0,0,1.14,3.33L11.2,29.29A3.42389,3.42389,0,0,0,9,28.5,3.5,3.5,0,1,0,12.5,32a3.36685,3.36685,0,0,0-.62-1.97l5.93-5.46a5.47681,5.47681,0,0,0,8.61-1.64l4.2,1.62a3.69037,3.69037,0,0,0-.12.95,4,4,0,1,0,4-4Zm3-14a3,3,0,1,1-2.24,4.98l-.53-.83a2.91537,2.91537,0,0,1-.23-1.15A3.00879,3.00879,0,0,1,37.5,7.5ZM9.4,13.68a2.41758,2.41758,0,0,1-.45.89A2.50412,2.50412,0,1,1,9.5,13,2.19692,2.19692,0,0,1,9.4,13.68ZM9,34.5a2.5,2.5,0,0,1,0-5,2.4705,2.4705,0,0,1,1.46.47c.00995,0,.00995,0,.00995.01l.66.72a.00979.00979,0,0,1,.01.00995A2.45272,2.45272,0,0,1,11.5,32,2.50091,2.50091,0,0,1,9,34.5ZM25.85,21.63a3.80916,3.80916,0,0,1-.36.94A4.50742,4.50742,0,0,1,21.5,25a4.418,4.418,0,0,1-2.95-1.11,3.93588,3.93588,0,0,1-.67-.74005A4.37214,4.37214,0,0,1,17,20.5a4.51521,4.51521,0,0,1,.3-1.61,4.09208,4.09208,0,0,1,.46-.88A4.4912,4.4912,0,0,1,25.03,17.71a4.532,4.532,0,0,1,.52.84A4.40029,4.40029,0,0,1,26,20.5,4.21979,4.21979,0,0,1,25.85,21.63ZM34.5,28.5a3.00883,3.00883,0,0,1-3-3,2.88209,2.88209,0,0,1,.06-.59,3.05722,3.05722,0,0,1,.36-.94A2.99982,2.99982,0,1,1,34.5,28.5Z"/></g><g id="Sub_Icons" data-name="Sub Icons"><path class="cls-1" d="M26,32.5H20a.49971.49971,0,0,0-.5.5v9a.5.5,0,0,0,1,0V38h4a.5.5,0,0,0,0-1h-4V33.5H26a.5.5,0,0,0,0-1Z"/><path class="cls-1" d="M42,32.5H39a.49971.49971,0,0,0-.5.5v9a.5.5,0,0,0,1,0V39.5H42a3.5,3.5,0,0,0,0-7Zm0,6H39.5v-5H42a2.5,2.5,0,0,1,0,5Z"/><path class="cls-1" d="M36.25,32.5h-7.5a.5.5,0,0,0,0,1H32V42a.5.5,0,0,0,1,0V33.5h3.25a.5.5,0,0,0,0-1Z"/></g></svg>