<svg xmlns="http://www.w3.org/2000/svg" viewBox="0 0 48 48"><defs><style>.cls-1{fill:#ff6c2c;}</style></defs><g id="Base_Icons" data-name="Base Icons"><path d="M41.3291,10.25781a2.126,2.126,0,0,0,.51074-2.36328A2.24619,2.24619,0,0,0,39.7373,6.5H8.2627A2.24619,2.24619,0,0,0,6.16016,7.89453a2.10341,2.10341,0,0,0,.47656,2.32715L22.375,28.82617c.01074.0127.02246.02442.03418.03613a2.24237,2.24237,0,0,0,1.1029.57789A.46779.46779,0,0,0,23.5,29.5v12a.5.5,0,0,0,1,0v-12a.46624.46624,0,0,0-.01337-.06641,2.35016,2.35016,0,0,0,1.13837-.60742Zm-18.208,17.90137L7.36621,9.53906a1.13021,1.13021,0,0,1-.2793-1.26953A1.23571,1.23571,0,0,1,8.2627,7.5H39.7373a1.23571,1.23571,0,0,1,1.17579.76953,1.15576,1.15576,0,0,1-.31348,1.30567L24.89551,28.14355A1.29929,1.29929,0,0,1,23.12109,28.15918Z"/></g><g id="Sub_Icons" data-name="Sub Icons"><path class="cls-1" d="M36,29.5A6.5,6.5,0,1,0,42.5,36,6.50753,6.50753,0,0,0,36,29.5Zm5.47546,6.01514A.46981.46981,0,0,0,41.40039,35.5H39.48682A9.13386,9.13386,0,0,0,38.251,30.98724,5.50707,5.50707,0,0,1,41.47546,35.51514ZM36,41.5c-1.11926,0-2.34515-2.03546-2.47479-5h4.94958C38.34515,39.46454,37.11926,41.5,36,41.5Zm-2.47479-6c.12964-2.96454,1.35553-5,2.47479-5s2.34515,2.03546,2.47479,5Zm.22381-4.51276A9.13386,9.13386,0,0,0,32.51318,35.5H30.59961a.46981.46981,0,0,0-.07507.01514A5.50707,5.50707,0,0,1,33.749,30.98724Zm-3.22448,5.49762a.46981.46981,0,0,0,.07507.01514h1.91357A9.13386,9.13386,0,0,0,33.749,41.01276,5.50707,5.50707,0,0,1,30.52454,36.48486Zm7.72644,4.5279A9.13386,9.13386,0,0,0,39.48682,36.5h1.91357a.46981.46981,0,0,0,.07507-.01514A5.50707,5.50707,0,0,1,38.251,41.01276Z"/></g></svg>