<svg xmlns="http://www.w3.org/2000/svg" viewBox="0 0 48 48"><defs><style>.cls-1{fill:#ff6c2c;}</style></defs><g id="Base_Icons" data-name="Base Icons"><path d="M27.5,11H6.5a.5.5,0,0,0,0,1h21a.5.5,0,0,0,0-1Z"/><path d="M34.75,15.5h3.5a2.25309,2.25309,0,0,0,2.25-2.25V9.75A2.25309,2.25309,0,0,0,38.25,7.5h-3.5A2.25309,2.25309,0,0,0,32.5,9.75v3.5A2.25309,2.25309,0,0,0,34.75,15.5ZM33.5,9.75A1.25116,1.25116,0,0,1,34.75,8.5h3.5A1.25116,1.25116,0,0,1,39.5,9.75v3.5a1.25116,1.25116,0,0,1-1.25,1.25h-3.5a1.25116,1.25116,0,0,1-1.25-1.25Z"/><path d="M27.5,24H6.5a.5.5,0,0,0,0,1h21a.5.5,0,0,0,0-1Z"/><path d="M34.75,28.5h3.5a2.25309,2.25309,0,0,0,2.25-2.25v-3.5a2.25309,2.25309,0,0,0-2.25-2.25h-3.5a2.25309,2.25309,0,0,0-2.25,2.25v3.5A2.25309,2.25309,0,0,0,34.75,28.5ZM33.5,22.75a1.25116,1.25116,0,0,1,1.25-1.25h3.5a1.25116,1.25116,0,0,1,1.25,1.25v3.5a1.25116,1.25116,0,0,1-1.25,1.25h-3.5a1.25116,1.25116,0,0,1-1.25-1.25Z"/><path d="M27.5,37H6.5a.5.5,0,0,0,0,1h21a.5.5,0,0,0,0-1Z"/></g><g id="Sub_Icons" data-name="Sub Icons"><path class="cls-1" d="M40.7998,33.59961a.5023.5023,0,0,0-.70019.10059l-4.8584,6.47851-2.34766-2.9873a.50011.50011,0,1,0-.7871.61718l2.75,3.5A.50119.50119,0,0,0,35.25,41.5h.00586a.50006.50006,0,0,0,.39453-.2002l5.25-7A.50116.50116,0,0,0,40.7998,33.59961Z"/></g></svg>