<svg xmlns="http://www.w3.org/2000/svg" viewBox="0 0 32 32"><defs><style>.cls-1{fill:#ff6c2c;}</style></defs><g id="Category_Icons" data-name="Category Icons"><path class="cls-1" d="M2.5,9.5V7A.50065.50065,0,0,1,3,6.5H29a.501.501,0,0,1,.5.5V9.5Z"/><path d="M29,7V9H3V7H29m0-1H3A1,1,0,0,0,2,7v3H30V7a1,1,0,0,0-1-1Z"/><path d="M29,7V25H3V7H29m0-1H3A1,1,0,0,0,2,7V25a1,1,0,0,0,1,1H29a1,1,0,0,0,1-1V7a1,1,0,0,0-1-1Z"/><path d="M15.5,21a.49912.49912,0,0,1-.47412-.6582l1.99951-6a.50028.50028,0,1,1,.94922.3164l-2.00049,6A.50037.50037,0,0,1,15.5,21Z"/><path d="M20.5,21a.5.5,0,0,1-.35352-.85352l3-3a.5.5,0,0,1,.707.707l-3,3A.49842.49842,0,0,1,20.5,21Z"/><path d="M23.5,18a.49842.49842,0,0,1-.35352-.14648l-3-3a.5.5,0,0,1,.707-.707l3,3A.5.5,0,0,1,23.5,18Z"/><path d="M12.5,21a.49842.49842,0,0,1-.35352-.14648l-3-3a.5.5,0,0,1,.707-.707l3,3A.5.5,0,0,1,12.5,21Z"/><path d="M9.5,18a.5.5,0,0,1-.35352-.85352l3-3a.5.5,0,0,1,.707.707l-3,3A.49842.49842,0,0,1,9.5,18Z"/></g></svg>