<svg xmlns="http://www.w3.org/2000/svg" viewBox="0 0 32 32"><defs><style>.cls-1{fill:#ff6c2c;}</style></defs><g id="Category_Icons" data-name="Category Icons"><polygon class="cls-1" points="3.167 7 16 16 28.833 7 3.167 7"/><path d="M29,7V25H3V7H29m0-1H3A1,1,0,0,0,2,7V25a1,1,0,0,0,1,1H29a1,1,0,0,0,1-1V7a1,1,0,0,0-1-1Z"/><path d="M16,16.85742a.50113.50113,0,0,1-.28369-.08789L2.88281,7.92969a.50032.50032,0,0,1,.56739-.82422L16,15.75,28.5498,7.10547a.5.5,0,1,1,.56641.82422L16.28369,16.76953A.50113.50113,0,0,1,16,16.85742Z"/></g></svg>