<svg xmlns="http://www.w3.org/2000/svg" viewBox="0 0 32 32"><defs><style>.cls-1{fill:#ff6c2c;}</style></defs><g id="Category_Icons" data-name="Category Icons"><path class="cls-1" d="M15.67073,2.5c3.81886,0,6.91463,5.72007,6.91463,13.5,0,7.78-3.09577,13.5-6.91463,13.5C23.30845,29.5,29.5,23.78,29.5,16,29.5,8.22008,23.30845,2.5,15.67073,2.5Z"/><path d="M16,30A14,14,0,1,1,30,16,14.01572,14.01572,0,0,1,16,30ZM16,3A13,13,0,1,0,29,16,13.01442,13.01442,0,0,0,16,3Z"/><path d="M16,30c-3.97314,0-7.08545-6.14941-7.08545-14S12.02686,2,16,2c3.97266,0,7.085,6.14941,7.085,14S19.97266,30,16,30ZM16,3C12.70117,3,9.91455,8.95312,9.91455,16S12.70117,29,16,29s6.085-5.95312,6.085-13S19.29883,3,16,3Z"/><rect x="3.48779" y="10.89014" width="25.02393" height="1"/><rect x="3.48779" y="20.10938" width="25.02393" height="1"/></g></svg>