<svg xmlns="http://www.w3.org/2000/svg" viewBox="0 0 32 32"><defs><style>.cls-1{fill:#ff6c2c;}</style></defs><g id="Category_Icons" data-name="Category Icons"><polygon class="cls-1" points="14.6 9.5 12.5 6.5 2.5 6.5 2.5 9.5 2.5 11.5 29.5 11.5 29.5 9.5 14.6 9.5"/><path d="M12.46481,7l1.40677,2.11014A1.99429,1.99429,0,0,0,15.53427,10L29,9.99829,29.00171,25,3,25.00171V9L2.99829,7h9.46652m.00092-1H2.99829A.9983.9983,0,0,0,2,6.99829V25.00171A.9983.9983,0,0,0,2.99829,26H29.00171A.9983.9983,0,0,0,30,25.00171V9.99829A.9983.9983,0,0,0,29.00171,9H15.53427a.99827.99827,0,0,1-.83063-.44455l-1.40728-2.1109A.99827.99827,0,0,0,12.46573,6Z"/><path d="M29,12H3a.5.5,0,0,1,0-1H29a.5.5,0,0,1,0,1Z"/></g></svg>