<svg xmlns="http://www.w3.org/2000/svg" viewBox="0 0 32 32"><defs><style>.cls-1{fill:#ff6c2c;}</style></defs><g id="Category_Icons" data-name="Category Icons"><path d="M16,15C9.271,15,4,12.80371,4,10S9.271,5,16,5c6.72852,0,12,2.19629,12,5S22.72852,15,16,15Zm0-9C9.51758,6,5,8.1084,5,10s4.51758,4,11,4,11-2.1084,11-4S22.48242,6,16,6Z"/><path d="M16,27C9.271,27,4,24.80371,4,22V18a.5.5,0,0,1,1,0v4c0,1.8916,4.51758,4,11,4s11-2.1084,11-4V18a.5.5,0,0,1,1,0v4C28,24.80371,22.72852,27,16,27Z"/><path d="M16,23C9.271,23,4,20.80371,4,18V14a.5.5,0,0,1,1,0v4c0,1.8916,4.51758,4,11,4s11-2.1084,11-4V14a.5.5,0,0,1,1,0v4C28,20.80371,22.72852,23,16,23Z"/><path class="cls-1" d="M16,14.5C9.64874,14.5,4.5,12.48529,4.5,10v4c0,2.48529,5.14874,4.5,11.5,4.5S27.5,16.48529,27.5,14V10C27.5,12.48529,22.35126,14.5,16,14.5Z"/><path d="M16,19C9.271,19,4,16.80371,4,14V10H5c0,1.8916,4.51758,4,11,4s11-2.1084,11-4h1v4C28,16.80371,22.72852,19,16,19ZM5,12.03418V14c0,1.8916,4.51758,4,11,4s11-2.1084,11-4V12.03418C25.16309,13.7959,20.98145,15,16,15,11.019,15,6.83643,13.7959,5,12.03418Z"/><path d="M23.01953,16a.50453.50453,0,0,1-.50488-.5.49557.49557,0,0,1,.49512-.5h.00976a.5.5,0,1,1,0,1Z"/><path d="M23.01953,20a.50453.50453,0,0,1-.50488-.5.49557.49557,0,0,1,.49512-.5h.00976a.5.5,0,1,1,0,1Z"/><path d="M23.01953,24a.50453.50453,0,0,1-.50488-.5.49557.49557,0,0,1,.49512-.5h.00976a.5.5,0,1,1,0,1Z"/></g></svg>