<svg xmlns="http://www.w3.org/2000/svg" viewBox="0 0 48 48"><defs><style>.cls-1{fill:#ff6c2c;}</style></defs><g id="Base_Icons" data-name="Base Icons"><path d="M43.44629,10H4.55371A1.55583,1.55583,0,0,0,3,11.55371V36.44629A1.55583,1.55583,0,0,0,4.55371,38H43.44629A1.55583,1.55583,0,0,0,45,36.44629V11.55371A1.55583,1.55583,0,0,0,43.44629,10ZM4.55371,11H43.44629A.5539.5539,0,0,1,44,11.55371v7.64313L23.49512,29.93848l-9.77149-4.88575a.50056.50056,0,0,0-.44726,0L4,29.69092V11.55371A.5539.5539,0,0,1,4.55371,11ZM43.44629,37H4.55371A.5539.5539,0,0,1,4,36.44629V30.80908l9.5-4.75049,9.77637,4.88868a.5068.5068,0,0,0,.45605-.00391L44,20.327V36.44629A.5539.5539,0,0,1,43.44629,37Z"/></g><g id="Sub_Icons" data-name="Sub Icons"><path class="cls-1" d="M13.5,22A3.5,3.5,0,1,0,10,18.5,3.50424,3.50424,0,0,0,13.5,22Zm0-6A2.5,2.5,0,1,1,11,18.5,2.50231,2.50231,0,0,1,13.5,16Z"/></g></svg>