<svg xmlns="http://www.w3.org/2000/svg" viewBox="0 0 48 48"><defs><style>.cls-1{fill:#ff6c2c;}</style></defs><g id="Base_Icons" data-name="Base Icons"><path d="M42.45117,16.30664,31.69336,5.54883A1.86163,1.86163,0,0,0,30.36914,5H17.63086a1.86163,1.86163,0,0,0-1.32422.54883L5.54883,16.30664A1.86163,1.86163,0,0,0,5,17.63086V30.36914a1.86163,1.86163,0,0,0,.54883,1.32422L16.30664,42.45117A1.86163,1.86163,0,0,0,17.63086,43H27a.5.5,0,0,0,0-1H17.63086a.86644.86644,0,0,1-.61719-.25586L6.25586,30.98633A.86644.86644,0,0,1,6,30.36914V17.63086a.86644.86644,0,0,1,.25586-.61719L17.01367,6.25586A.86644.86644,0,0,1,17.63086,6H30.36914a.86644.86644,0,0,1,.61719.25586L41.74414,17.01367A.86644.86644,0,0,1,42,17.63086V27a.5.5,0,0,0,1,0V17.63086A1.86163,1.86163,0,0,0,42.45117,16.30664Z"/><path d="M20,24a.49971.49971,0,0,0-.5-.5h-1v-1a.5.5,0,0,0-1,0v1h-1a.5.5,0,0,0,0,1h.56573l-.48175.72266a.5.5,0,1,0,.832.55468l.584-.876.584.876a.5.5,0,0,0,.832-.55468L18.93427,24.5H19.5A.49971.49971,0,0,0,20,24Z"/><path d="M26,24a.49971.49971,0,0,0-.5-.5h-1v-1a.5.5,0,0,0-1,0v1h-1a.5.5,0,0,0,0,1h.56573l-.48175.72266a.5.5,0,1,0,.832.55468l.584-.876.584.876a.5.5,0,0,0,.832-.55468L24.93427,24.5H25.5A.49971.49971,0,0,0,26,24Z"/><path d="M30.584,25.77734a.5.5,0,0,0,.832-.55468L30.93427,24.5H31.5a.5.5,0,0,0,0-1h-1v-1a.5.5,0,0,0-1,0v1h-1a.5.5,0,0,0,0,1h.56573l-.48175.72266a.5.5,0,1,0,.832.55468l.584-.876Z"/></g><g id="Sub_Icons" data-name="Sub Icons"><path class="cls-1" d="M40.49707,34H31.50293A1.50414,1.50414,0,0,0,30,35.50293v4.99414A1.50414,1.50414,0,0,0,31.50293,42h8.99414A1.50414,1.50414,0,0,0,42,40.49707V35.50293A1.50414,1.50414,0,0,0,40.49707,34ZM41,40.49707A.50347.50347,0,0,1,40.49707,41H31.50293A.50347.50347,0,0,1,31,40.49707V35.50293A.50347.50347,0,0,1,31.50293,35h8.99414A.50347.50347,0,0,1,41,35.50293Z"/><path class="cls-1" d="M39.5,33a.49971.49971,0,0,0,.5-.5V31.48145A1.48373,1.48373,0,0,0,38.51855,30h-5.0371A1.48373,1.48373,0,0,0,32,31.48145V32.5a.5.5,0,0,0,1,0V31.48145A.48179.48179,0,0,1,33.48145,31h5.0371A.48179.48179,0,0,1,39,31.48145V32.5A.49971.49971,0,0,0,39.5,33Z"/><circle class="cls-1" cx="34.5" cy="38" r="0.54999"/><circle class="cls-1" cx="37.5" cy="38" r="0.54999"/></g></svg>