<svg xmlns="http://www.w3.org/2000/svg" viewBox="0 0 48 48"><defs><style>.cls-1{fill:#ff6c2c;}</style></defs><g id="Base_Icons" data-name="Base Icons"><path d="M41.59277,10.5H6.40723A1.90592,1.90592,0,0,0,4.5,12.40039V35.59961A1.90592,1.90592,0,0,0,6.40723,37.5H27.7041a.5.5,0,0,0,0-1H6.40723A.90526.90526,0,0,1,5.5,35.59961V14.5h37V30.7998a.5.5,0,1,0,1,0V12.40039A1.90592,1.90592,0,0,0,41.59277,10.5ZM5.5,13.5V12.40039A.90526.90526,0,0,1,6.40723,11.5H41.59277a.90526.90526,0,0,1,.90723.90039V13.5Z"/><path d="M16.5,18a.49971.49971,0,0,0-.5-.5H14a.49971.49971,0,0,0-.5.5v2a.49971.49971,0,0,0,.5.5h2a.49971.49971,0,0,0,.5-.5Zm-1,1.5h-1v-1h1Z"/><path d="M22.5,18a.49971.49971,0,0,0-.5-.5H20a.49971.49971,0,0,0-.5.5v2a.49971.49971,0,0,0,.5.5h2a.49971.49971,0,0,0,.5-.5Zm-1,1.5h-1v-1h1Z"/><path d="M28,17.5H26a.49971.49971,0,0,0-.5.5v2a.49971.49971,0,0,0,.5.5h2a.49971.49971,0,0,0,.5-.5V18A.49971.49971,0,0,0,28,17.5Zm-.5,2h-1v-1h1Z"/><path d="M32,20.5h2a.49971.49971,0,0,0,.5-.5V18a.49971.49971,0,0,0-.5-.5H32a.49971.49971,0,0,0-.5.5v2A.49971.49971,0,0,0,32,20.5Zm.5-2h1v1h-1Z"/><path d="M38,20.5h2a.49971.49971,0,0,0,.5-.5V18a.49971.49971,0,0,0-.5-.5H38a.49971.49971,0,0,0-.5.5v2A.49971.49971,0,0,0,38,20.5Zm.5-2h1v1h-1Z"/><path d="M16.5,24a.49971.49971,0,0,0-.5-.5H14a.49971.49971,0,0,0-.5.5v2a.49971.49971,0,0,0,.5.5h2a.49971.49971,0,0,0,.5-.5Zm-1,1.5h-1v-1h1Z"/><path d="M22.5,24a.49971.49971,0,0,0-.5-.5H20a.49971.49971,0,0,0-.5.5v2a.49971.49971,0,0,0,.5.5h2a.49971.49971,0,0,0,.5-.5Zm-1,1.5h-1v-1h1Z"/><path d="M28,23.5H26a.49971.49971,0,0,0-.5.5v2a.49971.49971,0,0,0,.5.5h2a.49971.49971,0,0,0,.5-.5V24A.49971.49971,0,0,0,28,23.5Zm-.5,2h-1v-1h1Z"/><path d="M31.5,26a.49971.49971,0,0,0,.5.5h2a.49971.49971,0,0,0,.5-.5V24a.49971.49971,0,0,0-.5-.5H32a.49971.49971,0,0,0-.5.5Zm1-1.5h1v1h-1Z"/><path d="M37.5,26a.49971.49971,0,0,0,.5.5h2a.49971.49971,0,0,0,.5-.5V24a.49971.49971,0,0,0-.5-.5H38a.49971.49971,0,0,0-.5.5Zm1-1.5h1v1h-1Z"/><path d="M16,29.5H14a.49971.49971,0,0,0-.5.5v2a.49971.49971,0,0,0,.5.5h2a.49971.49971,0,0,0,.5-.5V30A.49971.49971,0,0,0,16,29.5Zm-.5,2h-1v-1h1Z"/><path d="M22,29.5H20a.49971.49971,0,0,0-.5.5v2a.49971.49971,0,0,0,.5.5h2a.49971.49971,0,0,0,.5-.5V30A.49971.49971,0,0,0,22,29.5Zm-.5,2h-1v-1h1Z"/><path d="M28,29.5H26a.49971.49971,0,0,0-.5.5v2a.49971.49971,0,0,0,.5.5h2a.49971.49971,0,0,0,.5-.5V30A.49971.49971,0,0,0,28,29.5Zm-.5,2h-1v-1h1Z"/><path d="M10.5,18a.49971.49971,0,0,0-.5-.5H8a.49971.49971,0,0,0-.5.5v2a.49971.49971,0,0,0,.5.5h2a.49971.49971,0,0,0,.5-.5Zm-1,1.5h-1v-1h1Z"/><path d="M10.5,24a.49971.49971,0,0,0-.5-.5H8a.49971.49971,0,0,0-.5.5v2a.49971.49971,0,0,0,.5.5h2a.49971.49971,0,0,0,.5-.5Zm-1,1.5h-1v-1h1Z"/><path d="M10,29.5H8a.49971.49971,0,0,0-.5.5v2a.49971.49971,0,0,0,.5.5h2a.49971.49971,0,0,0,.5-.5V30A.49971.49971,0,0,0,10,29.5Zm-.5,2h-1v-1h1Z"/></g><g id="Sub_Icons" data-name="Sub Icons"><path class="cls-1" d="M42.9707,34.94238a1.09943,1.09943,0,0,0-.12207-.86035L41.834,32.39355a1.18055,1.18055,0,0,0-1.57714-.4082.142.142,0,0,1-.14356,0,5.97824,5.97824,0,0,0-1.38379-.77246.0916.0916,0,0,1-.05566-.08691,1.14862,1.14862,0,0,0-1.15918-1.13477h-2.0293A1.14862,1.14862,0,0,0,34.32617,31.126a.0916.0916,0,0,1-.05566.08691,5.95181,5.95181,0,0,0-1.38281.77246.1505.1505,0,0,1-.1504-.00293,1.18142,1.18142,0,0,0-1.57324.41406L30.15137,34.082a1.09943,1.09943,0,0,0-.12207.86035,1.12665,1.12665,0,0,0,.54882.7002.10207.10207,0,0,1,.05958.081,5.37154,5.37154,0,0,0-.05665.77637,5.46564,5.46564,0,0,0,.05567.77441.09867.09867,0,0,1-.0586.083,1.12665,1.12665,0,0,0-.54882.7002,1.09943,1.09943,0,0,0,.12207.86035L31.166,40.60645a1.181,1.181,0,0,0,1.57714.4082.13767.13767,0,0,1,.14356,0,5.97824,5.97824,0,0,0,1.38379.77246.0916.0916,0,0,1,.05566.08691,1.14862,1.14862,0,0,0,1.15918,1.13477h2.0293A1.14862,1.14862,0,0,0,38.67383,41.874a.0916.0916,0,0,1,.05566-.08691,5.95181,5.95181,0,0,0,1.38281-.77246.1479.1479,0,0,1,.1504.00195,1.17584,1.17584,0,0,0,1.57226-.41211L42.84863,38.918a1.09943,1.09943,0,0,0,.12207-.86035,1.12663,1.12663,0,0,0-.54883-.7002.10205.10205,0,0,1-.05957-.081A5.37154,5.37154,0,0,0,42.419,36.5a5.46564,5.46564,0,0,0-.05567-.77441.09866.09866,0,0,1,.05859-.083A1.12663,1.12663,0,0,0,42.9707,34.94238Zm-.99316,3.45215-1.01465,1.68652a.15835.15835,0,0,1-.21.04493,1.14751,1.14751,0,0,0-1.249.07422,4.90174,4.90174,0,0,1-1.14746.63964,1.10435,1.10435,0,0,0-.7002,1.03418.1327.1327,0,0,1-.1416.11719h-2.0293a.1327.1327,0,0,1-.1416-.11719,1.10435,1.10435,0,0,0-.7002-1.03418,4.92753,4.92753,0,0,1-1.14843-.63964,1.12521,1.12521,0,0,0-.67481-.22266,1.18363,1.18363,0,0,0-.57812.15137.15769.15769,0,0,1-.20508-.0459l-1.01465-1.68848.04981-.14844a1.09769,1.09769,0,0,0,.57128-1.11621A4.45965,4.45965,0,0,1,31.59863,36.5a4.36524,4.36524,0,0,1,.0459-.63184,1.09869,1.09869,0,0,0-.57226-1.11425l-.24707.44433.19726-.59277,1.01367-1.68555a.16449.16449,0,0,1,.21094-.0459,1.1535,1.1535,0,0,0,1.249-.07422,4.90174,4.90174,0,0,1,1.14746-.63964,1.10435,1.10435,0,0,0,.7002-1.03418.1327.1327,0,0,1,.1416-.11719h2.0293a.1327.1327,0,0,1,.1416.11719,1.10435,1.10435,0,0,0,.7002,1.03418,4.92753,4.92753,0,0,1,1.14843.63964,1.15354,1.15354,0,0,0,1.25293.07129.15488.15488,0,0,1,.20508.0459l1.01465,1.68848-.04981.14844a1.09769,1.09769,0,0,0-.57128,1.11621,4.45965,4.45965,0,0,1,.04492.62988,4.36524,4.36524,0,0,1-.0459.63184,1.09869,1.09869,0,0,0,.57226,1.11425l.24707-.44433Z"/><path class="cls-1" d="M37.75,34.33594a2.49913,2.49913,0,1,0-1.25391,4.665,2.52522,2.52522,0,0,0,.65137-.08692A2.49913,2.49913,0,0,0,37.75,34.33594ZM37.79883,37.25a1.50062,1.50062,0,1,1,.14941-1.13867A1.48876,1.48876,0,0,1,37.79883,37.25Z"/></g></svg>