<svg xmlns="http://www.w3.org/2000/svg" viewBox="0 0 48 48"><defs><style>.cls-1{fill:#ff6c2c;}</style></defs><g id="Base_Icons" data-name="Base Icons"><path d="M27.8916,22A1.8967,1.8967,0,0,1,26,20.10645v-9.2129a1.89268,1.89268,0,0,1,2.73828-1.69238l9.21582,4.60645a1.89218,1.89218,0,0,1,0,3.38476l-9.21582,4.60645A1.88959,1.88959,0,0,1,27.8916,22Zm-.001-12.001a.88416.88416,0,0,0-.46777.13672A.87446.87446,0,0,0,27,10.89355v9.2129a.89287.89287,0,0,0,1.291.79785l9.21582-4.60645a.892.892,0,0,0,0-1.5957L28.291,10.0957A.892.892,0,0,0,27.89062,9.999Z"/><path d="M20.167,39H10.833A1.83507,1.83507,0,0,1,9,37.167V27.833A1.83507,1.83507,0,0,1,10.833,26h9.334A1.83507,1.83507,0,0,1,22,27.833v9.334A1.83507,1.83507,0,0,1,20.167,39ZM10.833,27a.83438.83438,0,0,0-.833.833v9.334a.83438.83438,0,0,0,.833.833h9.334A.83438.83438,0,0,0,21,37.167V27.833A.83438.83438,0,0,0,20.167,27Z"/><path d="M35.5,27h-9a.5.5,0,0,1,0-1h9a.5.5,0,0,1,0,1Z"/><path d="M32.5,33h-6a.5.5,0,0,1,0-1h6a.5.5,0,0,1,0,1Z"/></g><g id="Sub_Icons" data-name="Sub Icons"><path class="cls-1" d="M15.5,22A6.5,6.5,0,1,1,22,15.5,6.50753,6.50753,0,0,1,15.5,22Zm0-12A5.5,5.5,0,1,0,21,15.5,5.50685,5.50685,0,0,0,15.5,10Z"/></g></svg>