<svg xmlns="http://www.w3.org/2000/svg" viewBox="0 0 48 48"><defs><style>.cls-1{fill:#ff6c2c;}</style></defs><g id="Base_Icons" data-name="Base Icons"><path d="M16.5,30H6.5a.5.5,0,0,0,0,1h10a.5.5,0,0,0,0-1Z"/><path d="M13.5,33h-7a.5.5,0,0,0,0,1h7a.5.5,0,0,0,0-1Z"/><path d="M13.73853,15.36041h-5.286L6,28H8.74884l.652-3.36047h2.35461a8.41409,8.41409,0,0,0,2.56446-.328A4.85339,4.85339,0,0,0,16.14954,23.212a5.49412,5.49412,0,0,0,1.72613-3.0962,3.94069,3.94069,0,0,0-.65777-3.50134A4.38594,4.38594,0,0,0,13.73853,15.36041Zm1.296,4.56232A3.33333,3.33333,0,0,1,13.936,22.01764a4.03219,4.03219,0,0,1-2.4762.62732H9.78778l1.02643-5.29h1.88342a2.80894,2.80894,0,0,1,2.08832.57929A2.29829,2.29829,0,0,1,15.03455,19.92273Z"/><path d="M25.58868,15.36041H23.15515L23.80823,12H21.07654L18.61993,24.63953h2.73169l1.40711-7.24115H24.942a1.91957,1.91957,0,0,1,1.37066.34723,1.51764,1.51764,0,0,1,.13648,1.30151l-1.08667,5.59241h2.775l1.143-5.88172a2.6506,2.6506,0,0,0-.52313-2.59625A4.739,4.739,0,0,0,25.58868,15.36041Z"/><path d="M41.2179,16.6145a4.38613,4.38613,0,0,0-3.47937-1.25409H32.45258L30,28h2.74884l.65192-3.36047h2.35461a8.41424,8.41424,0,0,0,2.56452-.328A4.85392,4.85392,0,0,0,40.14954,23.212a5.49357,5.49357,0,0,0,1.72607-3.0962A3.94033,3.94033,0,0,0,41.2179,16.6145Zm-2.18342,3.30823A3.33267,3.33267,0,0,1,37.936,22.01764a4.03218,4.03218,0,0,1-2.47619.62732h-1.672l1.02637-5.29h1.88342a2.80921,2.80921,0,0,1,2.08838.57929A2.29764,2.29764,0,0,1,39.03448,19.92273Z"/></g><g id="Sub_Icons" data-name="Sub Icons"><path class="cls-1" d="M36,36a3,3,0,1,1,3-3A3.00328,3.00328,0,0,1,36,36Zm0-5a2,2,0,1,0,2,2A2.0026,2.0026,0,0,0,36,31Z"/><path class="cls-1" d="M40.501,42H31.499A1.50122,1.50122,0,0,1,30,40.501V38.5a.5.5,0,0,1,1,0v2.001a.49929.49929,0,0,0,.499.499h9.002A.49929.49929,0,0,0,41,40.501V38.5a.5.5,0,0,1,1,0v2.001A1.50122,1.50122,0,0,1,40.501,42Z"/></g></svg>