<svg xmlns="http://www.w3.org/2000/svg" viewBox="0 0 48 48"><defs><style>.cls-1{fill:#ff6c2c;}</style></defs><g id="Base_Icons" data-name="Base Icons"><path d="M16.5,30H6.5a.5.5,0,0,0,0,1h10a.5.5,0,0,0,0-1Z"/><path d="M13.5,33h-7a.5.5,0,0,0,0,1h7a.5.5,0,0,0,0-1Z"/><path d="M13.73853,15.36041h-5.286L6,28H8.74884l.652-3.36047h2.35461a8.41409,8.41409,0,0,0,2.56446-.328A4.85339,4.85339,0,0,0,16.14954,23.212a5.49412,5.49412,0,0,0,1.72613-3.0962,3.94069,3.94069,0,0,0-.65777-3.50134A4.38594,4.38594,0,0,0,13.73853,15.36041Zm1.296,4.56232A3.33333,3.33333,0,0,1,13.936,22.01764a4.03219,4.03219,0,0,1-2.4762.62732H9.78778l1.02643-5.29h1.88342a2.80894,2.80894,0,0,1,2.08832.57929A2.29829,2.29829,0,0,1,15.03455,19.92273Z"/><path d="M25.58868,15.36041H23.15515L23.80823,12H21.07654L18.61993,24.63953h2.73169l1.40711-7.24115H24.942a1.91957,1.91957,0,0,1,1.37066.34723,1.51764,1.51764,0,0,1,.13648,1.30151l-1.08667,5.59241h2.775l1.143-5.88172a2.6506,2.6506,0,0,0-.52313-2.59625A4.739,4.739,0,0,0,25.58868,15.36041Z"/><path d="M33.40076,24.63953h2.35461a8.41424,8.41424,0,0,0,2.56452-.328A4.85392,4.85392,0,0,0,40.14954,23.212a5.49357,5.49357,0,0,0,1.72607-3.0962,3.94033,3.94033,0,0,0-.65771-3.50134,4.38613,4.38613,0,0,0-3.47937-1.25409H32.45258L30,28h2.74884ZM34.81415,17.355h1.88342a2.80921,2.80921,0,0,1,2.08838.57929,2.29764,2.29764,0,0,1,.24853,1.98846A3.33267,3.33267,0,0,1,37.936,22.01764a4.03218,4.03218,0,0,1-2.47619.62732h-1.672Z"/></g><g id="Sub_Icons" data-name="Sub Icons"><path class="cls-1" d="M42.47461,38.13965l-.00391.00683A4.41909,4.41909,0,0,0,42.5166,37.5a4.85182,4.85182,0,0,0-.042-.63965,1.0213,1.0213,0,0,0,.499-.63574.998.998,0,0,0-.11133-.7832l-.84375-1.40528a1.08893,1.08893,0,0,0-1.457-.36621,4.89877,4.89877,0,0,0-1.166-.64844,1.04188,1.04188,0,0,0-1.05078-1.03027H36.65527a1.03044,1.03044,0,0,0-1.04394,1.02441,6.39663,6.39663,0,0,0-1.20508.64649,1.06707,1.06707,0,0,0-1.4248.374l-.84375,1.4043a1.00092,1.00092,0,0,0-.11133.78418.92586.92586,0,0,0,.50488.61523A4.46072,4.46072,0,0,0,32.4834,37.5a4.85182,4.85182,0,0,0,.042.63965,1.0213,1.0213,0,0,0-.499.63574.998.998,0,0,0,.11133.7832l.84375,1.40528a1.08893,1.08893,0,0,0,1.457.36621,4.89858,4.89858,0,0,0,1.166.64844,1.04188,1.04188,0,0,0,1.05078,1.03027h1.68946a1.03044,1.03044,0,0,0,1.04394-1.02441,6.39694,6.39694,0,0,0,1.20508-.64649,1.0723,1.0723,0,0,0,1.42578-.373l.84277-1.40527a1.00092,1.00092,0,0,0,.11133-.78418A1.0213,1.0213,0,0,0,42.47461,38.13965ZM41.084,40.44629a1.05085,1.05085,0,0,0-1.13183.06933,4.03272,4.03272,0,0,1-.93555.52247,1.09012,1.09012,0,0,0-.67187.95312l-1.72266-.01269a1.002,1.002,0,0,0-.6377-.93946,4.05836,4.05836,0,0,1-.93652-.52344,1.04135,1.04135,0,0,0-.63086-.2041,1.34423,1.34423,0,0,0-.56347.12989l-.835-1.41211a.99969.99969,0,0,0,.51856-1.01758A3.53716,3.53716,0,0,1,33.501,37.5a3.47072,3.47072,0,0,1,.03711-.51465,1.00522,1.00522,0,0,0-.5293-1.02051l.90723-1.41113a1.04673,1.04673,0,0,0,1.13183-.06933,4.03272,4.03272,0,0,1,.93555-.52247,1.09012,1.09012,0,0,0,.67187-.95312l1.72266.01269a1.002,1.002,0,0,0,.63769.93946,4.05822,4.05822,0,0,1,.93653.52344,1.15089,1.15089,0,0,0,1.19433.07421l.835,1.41211a.99969.99969,0,0,0-.51856,1.01758A3.53716,3.53716,0,0,1,41.499,37.5a3.47072,3.47072,0,0,1-.03711.51465,1.00006,1.00006,0,0,0,.51954,1.01465l.00878.00586Z"/><path class="cls-1" d="M38.5,35.76855A1.99948,1.99948,0,1,0,37.49707,39.501a2.01729,2.01729,0,0,0,.52051-.06934A1.99948,1.99948,0,0,0,38.5,35.76855ZM38.36621,38A.99991.99991,0,1,1,38,36.63379,1.00464,1.00464,0,0,1,38.36621,38Z"/></g></svg>