<svg xmlns="http://www.w3.org/2000/svg" viewBox="0 0 48 48"><defs><style>.cls-1{fill:#ff6c2c;}</style></defs><g id="Base_Icons" data-name="Base Icons"><path d="M23.665,10.52832a.50037.50037,0,0,0-.55567.15918L15.5,20.19922,7.89062,10.6875A.50032.50032,0,0,0,7,11V29a.5.5,0,0,0,1,0V12.42578l7.10937,8.88672a.51906.51906,0,0,0,.78125,0L23,12.42578V29a.5.5,0,0,0,1,0V11A.49961.49961,0,0,0,23.665,10.52832Z"/><path d="M40.09668,29.22559a.49792.49792,0,0,0,.80664-.584l-6.27673-8.65875L40.90332,11.292a.49792.49792,0,1,0-.80664-.584l-6.08545,8.426-6.10791-8.426a.49792.49792,0,1,0-.80664.584l6.30078,8.6919L27.09668,28.708a.49792.49792,0,1,0,.80664.584l6.10938-8.45923Z"/></g><g id="Sub_Icons" data-name="Sub Icons"><path class="cls-1" d="M41.5,32H35.49609A1.49747,1.49747,0,0,0,34,33.49609v6.90235L30.8291,37.624a.49967.49967,0,1,0-.6582.752l4,3.5a.49866.49866,0,0,0,.6582,0l4-3.5a.49967.49967,0,0,0-.6582-.752L35,40.39844V33.49609A.4968.4968,0,0,1,35.49609,33H41.5a.5.5,0,0,0,0-1Z"/></g></svg>