<svg xmlns="http://www.w3.org/2000/svg" viewBox="0 0 48 48"><defs><style>.cls-1{fill:#ff6c2c;}</style></defs><g id="Base_Icons" data-name="Base Icons"><path d="M24,23c7.98572,0,14.58466-2.34106,17-5.67761V24.167a4.34712,4.34712,0,0,1-1.59961,3.13379.49951.49951,0,1,0,.68359.72852,5.73685,5.73685,0,0,0,1.84107-3.11658A.48678.48678,0,0,0,42,24.665V14.5C42,9.7334,34.09375,6,24,6S6,9.7334,6,14.5,13.90625,23,24,23ZM24,7c9.21484,0,17,3.43457,17,7.5S33.21484,22,24,22,7,18.56543,7,14.5,14.78516,7,24,7Z"/><path d="M24,32.667c1.1416,0,2.28613-.0498,3.40039-.14941a.50012.50012,0,0,0,.4541-.542.515.515,0,0,0-.542-.45411c-1.08594.09668-2.2002.14551-3.3125.14551-9.21484,0-17-3.43457-17-7.5v-.66015a.5.5,0,0,0-1,0V33.5C6,38.2666,13.90625,42,24,42c1.1377,0,2.28223-.0498,3.40039-.14844a.49954.49954,0,0,0,.4541-.542.508.508,0,0,0-.542-.4541C26.22363,40.95117,25.1084,41,24,41c-9.21484,0-17-3.43457-17-7.5V26.98938C9.41534,30.32593,16.01428,32.667,24,32.667Z"/></g><g id="Sub_Icons" data-name="Sub Icons"><path class="cls-1" d="M37.85352,34.14648a.49983.49983,0,0,0-.707,0l-7,7a.5.5,0,1,0,.707.707l7-7A.49983.49983,0,0,0,37.85352,34.14648Z"/><circle class="cls-1" cx="41.5" cy="35.5" r="0.75"/><circle class="cls-1" cx="35.5" cy="30.5" r="0.75"/><circle class="cls-1" cx="38.5" cy="38.5" r="0.75"/><circle class="cls-1" cx="33.5" cy="33.5" r="0.75"/><circle class="cls-1" cx="39.5" cy="31.5" r="0.75"/></g></svg>