<svg xmlns="http://www.w3.org/2000/svg" viewBox="0 0 48 48"><defs><style>.cls-1{fill:#ff6c2c;}</style></defs><g id="Base_Icons" data-name="Base Icons"><path d="M41.5,10H13.72266a.5.5,0,1,0,0,1H41.5a.501.501,0,0,1,.5.5v25a.501.501,0,0,1-.5.5H6.5a.501.501,0,0,1-.5-.5V14.5498a.5.5,0,1,0-1,0V36.5A1.50164,1.50164,0,0,0,6.5,38h35A1.50164,1.50164,0,0,0,43,36.5v-25A1.50164,1.50164,0,0,0,41.5,10Z"/><path d="M5.14941,10.84961a.36482.36482,0,0,0,.16016.11035.47053.47053,0,0,0,.37988,0A.537.537,0,0,0,5.96,10.68945.40093.40093,0,0,0,6,10.5a.47.47,0,0,0-.15039-.35059A.34975.34975,0,0,0,5.68945,10.04a.49543.49543,0,0,0-.54.10937A.4727.4727,0,0,0,5,10.5a.40093.40093,0,0,0,.04.18945A.34975.34975,0,0,0,5.14941,10.84961Z"/><path d="M8.0498,10.96a.42868.42868,0,0,0,.19043.04.401.401,0,0,0,.18946-.04.35938.35938,0,0,0,.16015-.11035A.455.455,0,0,0,8.74023,10.5a.47365.47365,0,0,0-.15039-.35059A.34978.34978,0,0,0,8.42969,10.04a.41994.41994,0,0,0-.37989,0,.35488.35488,0,0,0-.16015.10937A.47271.47271,0,0,0,7.74023,10.5a.45421.45421,0,0,0,.14942.34961A.36479.36479,0,0,0,8.0498,10.96Z"/><path d="M10.97949,11a.40492.40492,0,0,0,.19043-.04.36482.36482,0,0,0,.16016-.11035A.4542.4542,0,0,0,11.47949,10.5a.4727.4727,0,0,0-.14941-.35059.35491.35491,0,0,0-.16016-.10937.45657.45657,0,0,0-.37988,0,.40916.40916,0,0,0-.16016.10937.47365.47365,0,0,0-.15039.35059.455.455,0,0,0,.15039.34961A.46641.46641,0,0,0,10.97949,11Z"/></g><g id="Sub_Icons" data-name="Sub Icons"><path class="cls-1" d="M16.2428,24.983a4.6981,4.6981,0,0,0,1.13568-.13556,2.85549,2.85549,0,0,0,.96423-.42938,2.09938,2.09938,0,0,0,.66431-.774,2.56618,2.56618,0,0,0,.2464-1.18078,2.61319,2.61319,0,0,0-.23035-1.15821,1.99542,1.99542,0,0,0-.63214-.757,2.66632,2.66632,0,0,0-.94281-.41809A4.96652,4.96652,0,0,0,16.28564,20H13.5v8h1.83209V24.983Zm-.85565-3.45819h.82763a3.54883,3.54883,0,0,1,.49115.03314,1.27634,1.27634,0,0,1,.42487.13263.76961.76961,0,0,1,.298.27625.84326.84326,0,0,1,.11035.453.87264.87264,0,0,1-.11035.45856.82805.82805,0,0,1-.30353.29284,1.3599,1.3599,0,0,1-.43591.15467,2.82891,2.82891,0,0,1-.50763.04425h-.79455Z"/><rect class="cls-1" x="32.77399" y="20" width="1.72601" height="8"/><path class="cls-1" d="M26.15753,25.42316v-.21564a3.43983,3.43983,0,0,0-.20508-1.22913,2.65263,2.65263,0,0,0-.57092-.91644,2.44219,2.44219,0,0,0-.87573-.57678,3.04793,3.04793,0,0,0-1.11969-.19946,3.30386,3.30386,0,0,0-1.175.20483,2.82952,2.82952,0,0,0-.94226.57684,2.6921,2.6921,0,0,0-.6319.90564,2.94949,2.94949,0,0,0-.23279,1.19141,2.90762,2.90762,0,0,0,.23835,1.20752,2.5484,2.5484,0,0,0,.65405.88946,2.871,2.871,0,0,0,.97.54987A3.6217,3.6217,0,0,0,23.44159,28a3.47483,3.47483,0,0,0,1.47992-.29651,2.53994,2.53994,0,0,0,1.02539-.84637l-1.26373-.77625a1.43862,1.43862,0,0,1-.4878.4043,1.56552,1.56552,0,0,1-.73162.15631,1.48563,1.48563,0,0,1-.47114-.07544,1.46347,1.46347,0,0,1-.41015-.21027,1.1771,1.1771,0,0,1-.29932-.318.91976.91976,0,0,1-.13861-.40973h4.00189A1.805,1.805,0,0,0,26.15753,25.42316Zm-4.0274-.85175a1.057,1.057,0,0,1,.12274-.43909,1.22392,1.22392,0,0,1,.29443-.36694,1.40482,1.40482,0,0,1,.42951-.24658,1.55294,1.55294,0,0,1,.53985-.09027,1.14692,1.14692,0,0,1,.90192.33685,1.1695,1.1695,0,0,1,.3006.806Z"/><path class="cls-1" d="M27.88354,22.442V28h1.71558V25.14282a1.47159,1.47159,0,0,1,.06275-.39062,1.25563,1.25563,0,0,1,.204-.41291,1.19982,1.19982,0,0,1,.37658-.32367,1.1583,1.1583,0,0,1,.58057-.134,2.12192,2.12192,0,0,1,.21442.01117,1.26061,1.26061,0,0,1,.22491.04468l.07324-1.60718a.74557.74557,0,0,0-.16217-.03344,1.82366,1.82366,0,0,0-.204-.01117,1.39721,1.39721,0,0,0-.84729.26782,1.77428,1.77428,0,0,0-.56488.692h-.02093V22.442Z"/></g></svg>