<svg xmlns="http://www.w3.org/2000/svg" viewBox="0 0 48 48"><defs><style>.cls-1{fill:#ff6c2c;}</style></defs><g id="Base_Icons" data-name="Base Icons"><path d="M41.5,38H6.5A1.50164,1.50164,0,0,1,5,36.5V14.5498a.5.5,0,1,1,1,0V36.5a.501.501,0,0,0,.5.5h35a.501.501,0,0,0,.5-.5v-25a.501.501,0,0,0-.5-.5H13.72266a.5.5,0,1,1,0-1H41.5A1.50164,1.50164,0,0,1,43,11.5v25A1.50164,1.50164,0,0,1,41.5,38Z"/><path d="M5.5,11a.40492.40492,0,0,1-.19043-.04.36482.36482,0,0,1-.16016-.11035A.34975.34975,0,0,1,5.04,10.68945.40093.40093,0,0,1,5,10.5a.4727.4727,0,0,1,.14941-.35059A.35491.35491,0,0,1,5.30957,10.04a.49117.49117,0,0,1,.54.10937A.47.47,0,0,1,6,10.5a.40093.40093,0,0,1-.04.18945.537.537,0,0,1-.27051.27051A.40093.40093,0,0,1,5.5,11Z"/><path d="M8.24023,11a.467.467,0,0,1-.35058-.15039A.45421.45421,0,0,1,7.74023,10.5a.47271.47271,0,0,1,.14942-.35059.49542.49542,0,0,1,.54-.10937.34978.34978,0,0,1,.16015.10937A.47365.47365,0,0,1,8.74023,10.5a.455.455,0,0,1-.15039.34961A.46638.46638,0,0,1,8.24023,11Z"/><path d="M10.97949,11a.42732.42732,0,0,1-.18945-.04.42265.42265,0,0,1-.16016-.11035.35936.35936,0,0,1-.11035-.16016.413.413,0,0,1-.04-.18945.47365.47365,0,0,1,.15039-.35059.49507.49507,0,0,1,.54-.10937.52365.52365,0,0,1,.26953.26953.4048.4048,0,0,1,.04.19043.4542.4542,0,0,1-.14941.34961A.46852.46852,0,0,1,10.97949,11Z"/></g><g id="Sub_Icons" data-name="Sub Icons"><path class="cls-1" d="M16.589,20.66531H12.7713L11,29.75h1.98527l.4709-2.41531h1.70051a6.10348,6.10348,0,0,0,1.85214-.23574,3.50857,3.50857,0,0,0,1.32141-.79029,3.94379,3.94379,0,0,0,1.24662-2.22539,2.82172,2.82172,0,0,0-.475-2.5166A3.17634,3.17634,0,0,0,16.589,20.66531Zm.936,3.27915a2.39247,2.39247,0,0,1-.79335,1.50572,2.92284,2.92284,0,0,1-1.78837.4509H13.7356l.74134-3.80216h1.36023a2.03546,2.03546,0,0,1,1.50824.41636A1.64515,1.64515,0,0,1,17.52493,23.94446Z"/><path class="cls-1" d="M27.8137,23.10717a1.89838,1.89838,0,0,0-.37779-1.86605,3.4349,3.4349,0,0,0-2.28851-.57581H23.38983L23.86151,18.25h-1.9729l-1.77423,9.08469h1.9729l1.01626-5.20461h1.57682a1.39112,1.39112,0,0,1,.98989.24957q.23262.24945.09859.93546L24.984,27.33469h2.00422Z"/><path class="cls-1" d="M33.92225,20.66531H30.10464L28.33333,29.75h1.98528l.47084-2.41531H32.49a6.10355,6.10355,0,0,0,1.85215-.23574,3.50861,3.50861,0,0,0,1.32142-.79029,3.94388,3.94388,0,0,0,1.24663-2.22539,2.82157,2.82157,0,0,0-.475-2.5166A3.17637,3.17637,0,0,0,33.92225,20.66531Zm.936,3.27915a2.39215,2.39215,0,0,1-.79336,1.50572,2.92285,2.92285,0,0,1-1.78838.4509H31.069l.74128-3.80216h1.36024a2.03549,2.03549,0,0,1,1.50825.41636A1.64467,1.64467,0,0,1,34.85824,23.94446Z"/></g></svg>