<svg xmlns="http://www.w3.org/2000/svg" viewBox="0 0 48 48"><defs><style>.cls-1{fill:#ff6c2c;}</style></defs><g id="Base_Icons" data-name="Base Icons"><path d="M13.73853,15.36041h-5.286L6,28H8.74884l.652-3.36047h2.35461a8.41409,8.41409,0,0,0,2.56446-.328A4.85339,4.85339,0,0,0,16.14954,23.212a5.49412,5.49412,0,0,0,1.72613-3.0962,3.94069,3.94069,0,0,0-.65777-3.50134A4.38594,4.38594,0,0,0,13.73853,15.36041Zm1.296,4.56232A3.33333,3.33333,0,0,1,13.936,22.01764a4.03219,4.03219,0,0,1-2.4762.62732H9.78778l1.02643-5.29h1.88342a2.80894,2.80894,0,0,1,2.08832.57929A2.29829,2.29829,0,0,1,15.03455,19.92273Z"/><path d="M25.58868,15.36041H23.15515L23.80823,12H21.07654L18.61993,24.63953h2.73169l1.40711-7.24115H24.942a1.91957,1.91957,0,0,1,1.37066.34723,1.51764,1.51764,0,0,1,.13648,1.30151l-1.08667,5.59241h2.775l1.143-5.88172a2.6506,2.6506,0,0,0-.52313-2.59625A4.739,4.739,0,0,0,25.58868,15.36041Z"/><path d="M33.40076,24.63953h2.35461a8.41424,8.41424,0,0,0,2.56452-.328A4.85392,4.85392,0,0,0,40.14954,23.212a5.49357,5.49357,0,0,0,1.72607-3.0962,3.94033,3.94033,0,0,0-.65771-3.50134,4.38613,4.38613,0,0,0-3.47937-1.25409H32.45258L30,28h2.74884ZM34.81415,17.355h1.88342a2.80921,2.80921,0,0,1,2.08838.57929,2.29764,2.29764,0,0,1,.24853,1.98846A3.33267,3.33267,0,0,1,37.936,22.01764a4.03218,4.03218,0,0,1-2.47619.62732h-1.672Z"/></g><g id="Sub_Icons" data-name="Sub Icons"><path class="cls-1" d="M42,33.72266a2.68488,2.68488,0,0,0-.697-1.793l.47235-.62983a.50019.50019,0,1,0-.80078-.5996l-.46307.61749a2.73368,2.73368,0,0,0-3.96467,1.905H36.4375a4.38894,4.38894,0,1,0,4.4375,4.38867,4.314,4.314,0,0,0-.27246-1.51856A2.71016,2.71016,0,0,0,42,33.72266Zm-2.06641,1.585-.01074.00488-.17773.0791a.50027.50027,0,0,0-.24121.68652,3.30891,3.30891,0,0,1,.37109,1.53321,3.43785,3.43785,0,1,1-3.4375-3.38867H37a.49972.49972,0,0,0,.5-.5A1.73832,1.73832,0,0,1,39.25,32a1.7578,1.7578,0,0,1,.98956.30414.484.484,0,0,0,.08564.09625c.01666.01251.038.00842.0556.01849a1.69913,1.69913,0,0,1-.44721,2.88874Z"/><path class="cls-1" d="M31.42676,35.44824a.5.5,0,0,0-.918-.39648,6.25874,6.25874,0,0,0,.5791,5.98144A.49948.49948,0,0,0,31.5,41.25a.49447.49447,0,0,0,.2832-.08789.50054.50054,0,0,0,.12891-.69531A5.25147,5.25147,0,0,1,31.42676,35.44824Z"/></g></svg>