<svg xmlns="http://www.w3.org/2000/svg" viewBox="0 0 48 48"><defs><style>.cls-1{fill:#ff6c2c;}</style></defs><g id="Base_Icons" data-name="Base Icons"><path d="M24,6a38.025,38.025,0,0,0-4.85352.30664.50026.50026,0,1,0,.12891.99219A36.886,36.886,0,0,1,24,7c9.21484,0,17,3.43457,17,7.5S33.21484,22,24,22c-5.81836,0-11.18457-1.31836-14.35449-3.52637a.5001.5001,0,0,0-.57227.82032C12.40527,21.61426,17.98535,23,24,23c7.98572,0,14.58466-2.34106,17-5.67761V24.167a4.34712,4.34712,0,0,1-1.59961,3.13379.49951.49951,0,1,0,.68359.72852,5.73685,5.73685,0,0,0,1.84107-3.11658A.48678.48678,0,0,0,42,24.665V14.5C42,9.7334,34.09375,6,24,6Z"/><path d="M24,32.667c1.1416,0,2.28613-.0498,3.40039-.14941a.50012.50012,0,0,0,.4541-.542.51382.51382,0,0,0-.542-.45411C26.22656,31.61816,25.1123,31.667,24,31.667c-9.21484,0-17-3.43457-17-7.5v-.66015a.5.5,0,0,0-1,0V33.5C6,38.2666,13.90625,42,24,42c1.1377,0,2.28223-.0498,3.40039-.14844a.49954.49954,0,0,0,.4541-.542.50566.50566,0,0,0-.542-.4541C26.22363,40.95117,25.1084,41,24,41c-9.21484,0-17-3.43457-17-7.5V26.98938C9.41534,30.32593,16.01428,32.667,24,32.667Z"/><path d="M6.5,18a.49842.49842,0,0,0,.35352-.14648l7-7a.5.5,0,0,0-.707-.707l-7,7A.5.5,0,0,0,6.5,18Z"/><circle cx="17.5" cy="11.5" r="0.75"/><circle cx="11.5" cy="6.5" r="0.75"/><circle cx="14.5" cy="14.5" r="0.75"/><circle cx="9.5" cy="9.5" r="0.75"/><circle cx="15.5" cy="7.5" r="0.75"/></g><g id="Sub_Icons" data-name="Sub Icons"><circle class="cls-1" cx="34" cy="33.5" r="0.5"/><circle class="cls-1" cx="38" cy="33.5" r="0.5"/><path class="cls-1" d="M39.834,30H38.167a.5.5,0,0,0,0,1h1.667A1.16781,1.16781,0,0,1,41,32.166v3.335a1.16781,1.16781,0,0,1-1.166,1.166.5.5,0,0,0,0,1A2.16848,2.16848,0,0,0,42,35.501V32.166A2.16848,2.16848,0,0,0,39.834,30Z"/><path class="cls-1" d="M32.166,36.667A1.16781,1.16781,0,0,1,31,35.501V32.166A1.16781,1.16781,0,0,1,32.166,31h1.667a.5.5,0,0,0,0-1H32.166A2.16848,2.16848,0,0,0,30,32.166v3.335a2.16848,2.16848,0,0,0,2.166,2.166.5.5,0,0,0,0-1Z"/><path class="cls-1" d="M39.333,41H37.6709A1.17239,1.17239,0,0,1,36.5,39.8291V35.833a.5.5,0,0,0-1,0V39.8291A2.17306,2.17306,0,0,0,37.6709,42H39.333a.5.5,0,0,0,0-1Z"/></g></svg>