<svg xmlns="http://www.w3.org/2000/svg" viewBox="0 0 48 48"><defs><style>.cls-1{fill:#ff6c2c;}</style></defs><g id="Base_Icons" data-name="Base Icons"><path d="M11.165,10.00293l6.11133,3.05566a.50006.50006,0,1,0,.44726-.89453l-5.21679-2.6084,5.21679-2.60839a.50006.50006,0,0,0-.44726-.89454L11.165,9.1084a.5001.5001,0,0,0,0,.89453Z"/><path d="M6.05273,17.72363a.50024.50024,0,0,0,.6709.22364L12.835,14.8916a.5001.5001,0,0,0,0-.89453L6.72363,10.94141a.50006.50006,0,1,0-.44726.89453l5.21679,2.6084L6.27637,17.05273A.50056.50056,0,0,0,6.05273,17.72363Z"/><path d="M24,6c-1.26953,0-2.53223.06152-3.752.18164a.50122.50122,0,0,0-.44922.54688.50688.50688,0,0,0,.54687.44921C21.53418,7.05957,22.76367,7,24,7c9.21484,0,17,3.43457,17,7.5S33.21484,22,24,22c-5.51855,0-10.72754-1.21484-13.93652-3.248a.49958.49958,0,1,0-.53516.84375C12.88965,21.72754,18.2998,23,24,23c7.98572,0,14.58466-2.34106,17-5.67761V24.167a4.34712,4.34712,0,0,1-1.59961,3.13379.49951.49951,0,1,0,.68359.72852,5.73685,5.73685,0,0,0,1.84107-3.11658A.48678.48678,0,0,0,42,24.665V14.5C42,9.7334,34.09375,6,24,6Z"/><path d="M24,32.667c1.1416,0,2.28613-.0498,3.40039-.14941a.50012.50012,0,0,0,.4541-.542.515.515,0,0,0-.542-.45411C26.22656,31.61816,25.1123,31.667,24,31.667c-9.21484,0-17-3.43457-17-7.5v-.66015a.5.5,0,0,0-1,0V33.5C6,38.2666,13.90625,42,24,42c1.1377,0,2.28223-.0498,3.40039-.14844a.49954.49954,0,0,0,.4541-.542.50566.50566,0,0,0-.542-.4541C26.22363,40.95117,25.1084,41,24,41c-9.21484,0-17-3.43457-17-7.5V26.98938C9.41534,30.32593,16.01428,32.667,24,32.667Z"/></g><g id="Sub_Icons" data-name="Sub Icons"><circle class="cls-1" cx="34" cy="33.5" r="0.5"/><circle class="cls-1" cx="38" cy="33.5" r="0.5"/><path class="cls-1" d="M39.834,30H38.167a.5.5,0,0,0,0,1h1.667A1.16781,1.16781,0,0,1,41,32.166v3.335a1.16781,1.16781,0,0,1-1.166,1.166.5.5,0,0,0,0,1A2.16848,2.16848,0,0,0,42,35.501V32.166A2.16848,2.16848,0,0,0,39.834,30Z"/><path class="cls-1" d="M32.166,36.667A1.16781,1.16781,0,0,1,31,35.501V32.166A1.16781,1.16781,0,0,1,32.166,31h1.667a.5.5,0,0,0,0-1H32.166A2.16848,2.16848,0,0,0,30,32.166v3.335a2.16848,2.16848,0,0,0,2.166,2.166.5.5,0,0,0,0-1Z"/><path class="cls-1" d="M39.333,41H37.6709A1.17239,1.17239,0,0,1,36.5,39.8291V35.833a.5.5,0,0,0-1,0V39.8291A2.17306,2.17306,0,0,0,37.6709,42H39.333a.5.5,0,0,0,0-1Z"/></g></svg>