<svg xmlns="http://www.w3.org/2000/svg" viewBox="0 0 48 48"><defs><style>.cls-1{fill:#ff6c2c;}</style></defs><g id="Base_Icons" data-name="Base Icons"><path d="M40.327,13.80359a2.79469,2.79469,0,0,0,.36737-4.23132L38.46582,7.31348A2.7481,2.7481,0,0,0,36.52441,6.5H11.47559a2.74412,2.74412,0,0,0-1.94043.81348L7.30566,9.57227A2.79523,2.79523,0,0,0,7.678,13.8075a2.79588,2.79588,0,0,0-.86652,1.0382,3.06109,3.06109,0,0,0,.3125,3.20215L21.9707,40.49512A2.57975,2.57975,0,0,0,23.99121,41.5l.00354-.00043.00232.00043h.001l.0141-.00244a2.57987,2.57987,0,0,0,2.00055-1.00244l14.84082-22.4375a3.062,3.062,0,0,0,.33691-3.21973A2.77913,2.77913,0,0,0,40.327,13.80359ZM8.0166,10.27539,10.24707,8.0166A1.71386,1.71386,0,0,1,11.47559,7.5H36.52441a1.71776,1.71776,0,0,1,1.2295.5166l2.22949,2.25879a1.76518,1.76518,0,0,1,.373,1.94727,1.72015,1.72015,0,0,1-1.60157,1.07714H9.24512a1.72015,1.72015,0,0,1-1.60157-1.07714A1.76518,1.76518,0,0,1,8.0166,10.27539Zm-.084,7.18652a2.07412,2.07412,0,0,1-.22071-2.18066A1.628,1.628,0,0,1,9.1748,14.2998H19.17609a8.87875,8.87875,0,0,0-.05695,3.55958l3.93378,22.30786a1.43529,1.43529,0,0,1-.27362-.25806Zm32.1123.00977L25.2168,39.88965a1.56893,1.56893,0,0,1-.27069.26117l3.9328-22.30023a8.87855,8.87855,0,0,0-.053-3.55079H38.83887a1.61427,1.61427,0,0,1,1.45117.97364A2.07851,2.07851,0,0,1,40.04492,17.47168Z"/></g><g id="Sub_Icons" data-name="Sub Icons"><path class="cls-1" d="M27.89746,17.66016,23.99805,39.76953,20.10059,17.669a7.43994,7.43994,0,0,1,.11621-3.36915h7.56933A7.46632,7.46632,0,0,1,27.89746,17.66016Z"/></g></svg>