<svg xmlns="http://www.w3.org/2000/svg" viewBox="0 0 48 48"><defs><style>.cls-1{fill:#ff6c2c;}</style></defs><g id="Base_Icons" data-name="Base Icons"><path d="M40.2041,14.56836a2.788,2.788,0,0,0-.89862-1.07446,2.87722,2.87722,0,0,0,.37909-4.33374L37.41406,6.835A2.73469,2.73469,0,0,0,35.44336,6H14.55664a2.73469,2.73469,0,0,0-1.9707.835l-2.27051,2.3252a2.87776,2.87776,0,0,0,.38379,4.33746,2.80455,2.80455,0,0,0-.90235,1.07855A2.98547,2.98547,0,0,0,10.19141,17.79l12.7539,13.21582A2.6377,2.6377,0,0,0,24.99121,32l.00458-.00055L24.99805,32l.00647-.00153a2.63758,2.63758,0,0,0,2.01989-.975l12.81543-13.29A2.955,2.955,0,0,0,40.2041,14.56836Zm-29.17383-4.709,2.27149-2.3252A1.7386,1.7386,0,0,1,14.55664,7H35.44336a1.74245,1.74245,0,0,1,1.25586.53418l2.27051,2.3252a1.84908,1.84908,0,0,1,.37793,2.03613A1.763,1.763,0,0,1,37.71387,13H12.28613a1.763,1.763,0,0,1-1.63379-1.10449A1.84908,1.84908,0,0,1,11.03027,9.85938Zm17.8252,7.41992L25.01465,30.55176l-.00488.01953c-.00391.0166-.00782.03223-.0127.04785-.00488-.02148-.01074-.04394-.0166-.06738L21.15039,17.32422A6.22181,6.22181,0,0,1,21.293,14H28.71A6.17714,6.17714,0,0,1,28.85547,17.2793Zm-17.917-.15235a1.98994,1.98994,0,0,1-.23926-2.12109A1.66947,1.66947,0,0,1,12.21387,14h8.022a7.84737,7.84737,0,0,0-.05127,3.58105L23.9538,30.59949a1.80865,1.80865,0,0,1-.26142-.25672Zm28.15332-.05566L26.29,30.34375l-.02734.03125a1.63914,1.63914,0,0,1-.21729.2132l3.77588-13.05207A7.78119,7.78119,0,0,0,29.76685,14H37.7998a1.65545,1.65545,0,0,1,1.502.998A1.9616,1.9616,0,0,1,39.0918,17.07129Z"/></g><g id="Sub_Icons" data-name="Sub Icons"><path class="cls-1" d="M31.25,39.4375H18.75a.5.5,0,0,0,0,1h12.5a.5.5,0,0,0,0-1Z"/><path class="cls-1" d="M32.49512,33.502a.4996.4996,0,0,0-.92774.3711l3.125,7.8125a.4996.4996,0,0,0,.92774-.3711Z"/><path class="cls-1" d="M18.1543,33.22363a.5.5,0,0,0-.64942.27832l-3.125,7.8125a.4996.4996,0,1,0,.92774.3711l3.125-7.8125A.49916.49916,0,0,0,18.1543,33.22363Z"/><path class="cls-1" d="M29.68749,37.3125a.5.5,0,0,0,0-1h-9.375a.5.5,0,1,0,0,1Z"/></g></svg>