<svg xmlns="http://www.w3.org/2000/svg" viewBox="0 0 48 48"><defs><style>.cls-1{fill:#ff6c2c;}</style></defs><g id="Base_Icons" data-name="Base Icons"><path d="M24.57916,26.09442l5.27735-5.278a.49995.49995,0,0,0-.707-.707l-5.50293,5.50348a.50108.50108,0,0,0-.11622.52545l5.70118,15.53351a.50018.50018,0,1,0,.93945-.34376Z"/><path d="M18.32141,23.5509,7.80975,18.38428,40.7041,7.29523,33.98151,27.238,33.626,28.30243a.50135.50135,0,0,0,.3164.63281.50136.50136,0,0,0,.63282-.3164l7.39837-21.9599a.49986.49986,0,0,0-.63379-.63331L6.34,17.82422a.5.5,0,0,0-.06055.92236L17.88,24.44836a.50007.50007,0,1,0,.44141-.89746Z"/></g><g id="Sub_Icons" data-name="Sub Icons"><path class="cls-1" d="M36,29.99976a6.00012,6.00012,0,1,0,6,6.00012A6,6,0,0,0,36,29.99976Zm4.94946,5.50012H38.98737a8.92115,8.92115,0,0,0-1.071-4.1153A4.99432,4.99432,0,0,1,40.94946,35.49988ZM36,40.99994c-.76874,0-1.85278-1.74451-1.97589-4.50006H37.976C37.85284,39.25543,36.7688,40.99994,36,40.99994Zm-1.97589-5.50006c.12311-2.75562,1.20715-4.50012,1.97589-4.50012.7688,0,1.85284,1.7445,1.97595,4.50012Zm.05957-4.1153a8.921,8.921,0,0,0-1.071,4.1153H31.0506A4.99443,4.99443,0,0,1,34.08368,31.38458Zm-3.03308,5.1153h1.9621a8.92146,8.92146,0,0,0,1.071,4.11523A4.99434,4.99434,0,0,1,31.0506,36.49988Zm6.86578,4.11523a8.92158,8.92158,0,0,0,1.071-4.11523h1.96209A4.99434,4.99434,0,0,1,37.91638,40.61511Z"/></g></svg>