<svg id="Base_Icons" data-name="Base Icons" xmlns="http://www.w3.org/2000/svg" viewBox="0 0 48 48"><defs><style>.cls-1{fill:#ff6c2c;}</style></defs><path class="cls-1" d="M34.794,20a.49971.49971,0,0,0-.5.5v7a.5.5,0,0,0,1,0v-3H39v3a.5.5,0,0,0,1,0v-7a.5.5,0,0,0-1,0v3H35.294v-3A.49972.49972,0,0,0,34.794,20Z"/><path class="cls-1" d="M30.08789,27H27.14746a.5.5,0,1,0,0,1h2.94043a2.25,2.25,0,1,0,0-4.5H28.91211a1.25008,1.25008,0,1,1,0-2.5h1.76465a.5.5,0,0,0,0-1H28.91211a2.25,2.25,0,1,0,0,4.5h1.17578a1.25008,1.25008,0,1,1,0,2.5Z"/><path class="cls-1" d="M22.44141,27H19.5a.5.5,0,0,0,0,1h2.94141a2.25,2.25,0,1,0,0-4.5H21.26465a1.25008,1.25008,0,1,1,0-2.5H23.0293a.5.5,0,0,0,0-1H21.26465a2.25,2.25,0,1,0,0,4.5h1.17676a1.25008,1.25008,0,1,1,0,2.5Z"/><path d="M12.5,27.5a.49971.49971,0,0,0,.5.5h3a.5.5,0,0,0,0-1H13A.49971.49971,0,0,0,12.5,27.5Z"/><path d="M8.124,27.8291a.49886.49886,0,0,0,.70508.04688l4-3.5a.499.499,0,0,0,0-.752l-4-3.5a.49967.49967,0,0,0-.6582.752L11.74023,24,8.1709,27.124A.49855.49855,0,0,0,8.124,27.8291Z"/><path d="M42.5,33a.49971.49971,0,0,0-.5.5v3.002a.49888.49888,0,0,1-.498.498h-35A.50305.50305,0,0,1,6,36.49805V33.5a.5.5,0,0,0-1,0v2.998A1.50373,1.50373,0,0,0,6.502,38h35A1.49956,1.49956,0,0,0,43,36.502V33.5A.49971.49971,0,0,0,42.5,33Z"/><path d="M41.49805,10H11.5a.5.5,0,0,0,0,1H41.49805a.50305.50305,0,0,1,.502.502V13.5a.5.5,0,0,0,1,0V11.502A1.50373,1.50373,0,0,0,41.49805,10Z"/><path d="M5.5,11a.40093.40093,0,0,0,.18945-.04.35936.35936,0,0,0,.16016-.11035.4827.4827,0,0,0,0-.7002A.34975.34975,0,0,0,5.68945,10.04a.45657.45657,0,0,0-.37988,0,.35491.35491,0,0,0-.16016.10937A.50054.50054,0,0,0,5.5,11Z"/><path d="M7.5,11a.49517.49517,0,0,0,.34961-.85059A.34975.34975,0,0,0,7.68945,10.04a.50154.50154,0,0,0-.37988,0,.35491.35491,0,0,0-.16016.10937A.50054.50054,0,0,0,7.5,11Z"/><path d="M9.30957,10.96A.40492.40492,0,0,0,9.5,11a.49517.49517,0,0,0,.34961-.85059A.34975.34975,0,0,0,9.68945,10.04a.49543.49543,0,0,0-.54.10937A.4727.4727,0,0,0,9,10.5a.4542.4542,0,0,0,.14941.34961A.36482.36482,0,0,0,9.30957,10.96Z"/></svg>