<svg xmlns="http://www.w3.org/2000/svg" viewBox="0 0 48 48"><defs><style>.cls-1{fill:#ff6c2c;}</style></defs><g id="Base_Icons" data-name="Base Icons"><path d="M15.53418,28h12a.5.5,0,0,0,0-1h-12a.5.5,0,0,0,0,1Z"/><path d="M15.53418,34h17a.5.5,0,0,0,0-1h-17a.5.5,0,0,0,0,1Z"/><path d="M15,21.5a.49971.49971,0,0,0,.5.5h17a.5.5,0,0,0,0-1h-17A.49971.49971,0,0,0,15,21.5Z"/><path d="M37.499,6H18.38672a.5.5,0,0,0,0,1H37.499A.50138.50138,0,0,1,38,7.501V40.499a.50138.50138,0,0,1-.501.501H10.501A.50138.50138,0,0,1,10,40.499V20.78516a.5.5,0,0,0-1,0V40.499A1.50331,1.50331,0,0,0,10.501,42H37.499A1.50331,1.50331,0,0,0,39,40.499V7.501A1.50331,1.50331,0,0,0,37.499,6Z"/><path d="M32.53418,16a.5.5,0,0,0,0-1h-14a.5.5,0,0,0,0,1Z"/></g><g id="Sub_Icons" data-name="Sub Icons"><path class="cls-1" d="M12,16.55859l2.77637,1.38868a.49945.49945,0,0,0,.70215-.59082L13.98474,12.3772a3.5,3.5,0,1,0-3.96948,0L8.52148,17.35645a.49945.49945,0,0,0,.70215.59082ZM9.5,9.5A2.5,2.5,0,1,1,12,12,2.50231,2.50231,0,0,1,9.5,9.5Zm1.42737,3.31421a3.18923,3.18923,0,0,0,2.14526,0l1.11585,3.721-1.96485-.98243a.50056.50056,0,0,0-.44726,0l-1.96485.98243Z"/></g></svg>