<svg xmlns="http://www.w3.org/2000/svg" viewBox="0 0 48 48"><defs><style>.cls-1{fill:#ff6c2c;}</style></defs><g id="Base_Icons" data-name="Base Icons"><path d="M28.03418,27.5a.49971.49971,0,0,0-.5-.5h-12a.5.5,0,0,0,0,1h12A.49971.49971,0,0,0,28.03418,27.5Z"/><path d="M15.53418,33a.5.5,0,0,0,0,1h11a.5.5,0,0,0,0-1Z"/><path d="M33,21.5a.49971.49971,0,0,0-.5-.5h-17a.5.5,0,0,0,0,1h17A.49971.49971,0,0,0,33,21.5Z"/><path d="M18.38672,7H37.49707A.50347.50347,0,0,1,38,7.50293V26.49707a.5.5,0,1,0,1,0V7.50293A1.50414,1.50414,0,0,0,37.49707,6H18.38672a.5.5,0,0,0,0,1Z"/><path d="M28.49707,41H10.50293A.50347.50347,0,0,1,10,40.49707V20.78516a.5.5,0,0,0-1,0V40.49707A1.50414,1.50414,0,0,0,10.50293,42H28.49707a.5.5,0,1,0,0-1Z"/><path d="M32.53418,16a.5.5,0,0,0,0-1h-14a.5.5,0,0,0,0,1Z"/></g><g id="Sub_Icons" data-name="Sub Icons"><path class="cls-1" d="M36.08887,35.499a.49971.49971,0,0,0-.5.5v2a.5.5,0,0,0,1,0v-2A.49972.49972,0,0,0,36.08887,35.499Z"/><path class="cls-1" d="M36.28027,33.54a.504.504,0,0,0-.38086,0,.45573.45573,0,0,0-.16992.10937A.50316.50316,0,0,0,35.58984,34a.55181.55181,0,0,0,.13965.34961.50746.50746,0,0,0,.36035.15039.46638.46638,0,0,0,.34961-.15039.34443.34443,0,0,0,.11035-.16016.42718.42718,0,0,0,.04-.18945.47.47,0,0,0-.15039-.35059A.352.352,0,0,0,36.28027,33.54Z"/><path class="cls-1" d="M36.08887,29.999a6,6,0,1,0,6,6A6.00656,6.00656,0,0,0,36.08887,29.999Zm0,11a5,5,0,1,1,5-5A5.00588,5.00588,0,0,1,36.08887,40.999Z"/><path class="cls-1" d="M12,16.55859l2.77637,1.38868a.49945.49945,0,0,0,.70215-.59082L13.98474,12.3772a3.5,3.5,0,1,0-3.96948,0L8.52148,17.35645a.49945.49945,0,0,0,.70215.59082ZM9.5,9.5A2.5,2.5,0,1,1,12,12,2.50231,2.50231,0,0,1,9.5,9.5Zm1.42737,3.31421a3.18923,3.18923,0,0,0,2.14526,0l1.11585,3.721-1.96485-.98243a.50056.50056,0,0,0-.44726,0l-1.96485.98243Z"/></g></svg>