<svg xmlns="http://www.w3.org/2000/svg" viewBox="0 0 48 48"><defs><style>.cls-1{fill:#ff6c2c;}</style></defs><g id="Base_Icons" data-name="Base Icons"><path d="M24,4.5c-6.89258,0-12.5,6.13379-12.5,13.67285,0,4.293,3.93945,10.2207,7.63281,15.43945a.50019.50019,0,1,0,.81641-.57812C16.34473,27.94141,12.5,22.17285,12.5,18.17285,12.5,11.18457,17.65918,5.5,24,5.5s11.5,5.68457,11.5,12.67285c0,3.52149-3.09961,8.51074-5.43164,11.957a.5.5,0,1,0,.82812.56055C33.50586,26.834,36.5,21.92676,36.5,18.17285,36.5,10.63379,30.89258,4.5,24,4.5Z"/><path d="M18.5,42.5h-2a.5.5,0,0,0,0,1h2a.5.5,0,0,0,0-1Z"/><path d="M24,12.5A3.5,3.5,0,1,0,27.5,16,3.50424,3.50424,0,0,0,24,12.5Zm0,6A2.5,2.5,0,1,1,26.5,16,2.50231,2.50231,0,0,1,24,18.5Z"/></g><g id="Sub_Icons" data-name="Sub Icons"><path class="cls-1" d="M23.17676,34H22a.49971.49971,0,0,0-.5.5v7a.49971.49971,0,0,0,.5.5h1.17676a4.00011,4.00011,0,1,0,0-8Zm0,7H22.5V35h.67676a3.00014,3.00014,0,1,1,0,6Z"/><path class="cls-1" d="M34.35254,34a.49971.49971,0,0,0-.5.5v5.35938l-3.79-5.63868a.50012.50012,0,0,0-.915.2793v7a.5.5,0,0,0,1,0V36.14062l3.79,5.63868a.50013.50013,0,0,0,.91505-.2793v-7A.49971.49971,0,0,0,34.35254,34Z"/><path class="cls-1" d="M40.23535,37.5H39.05859a1.25008,1.25008,0,1,1,0-2.5h1.76465a.5.5,0,0,0,0-1H39.05859a2.25,2.25,0,1,0,0,4.5h1.17676a1.25008,1.25008,0,1,1,0,2.5H37.294a.5.5,0,1,0,0,1h2.9414a2.25,2.25,0,1,0,0-4.5Z"/></g></svg>