<svg xmlns="http://www.w3.org/2000/svg" viewBox="0 0 48 48"><defs><style>.cls-1{fill:#ff6c2c;}</style></defs><g id="Base_Icons" data-name="Base Icons"><path d="M26.84473,38H9.15527a1.88954,1.88954,0,0,1-1.44336-.59863.82469.82469,0,0,1-.19726-.68457C8.78125,30.33887,17.17871,29,24,29a38.12755,38.12755,0,0,1,7.1748.60742.51243.51243,0,0,0,.58594-.39648.50115.50115,0,0,0-.39648-.58594A39.13442,39.13442,0,0,0,24,28C13.68066,28,7.6416,30.94629,6.53418,36.52148a1.80376,1.80376,0,0,0,.4043,1.51368A2.86458,2.86458,0,0,0,9.15527,39H26.84473a.5.5,0,0,0,0-1Z"/><path d="M24,25a9,9,0,1,0-9-9A9.00984,9.00984,0,0,0,24,25ZM24,8a8,8,0,1,1-8,8A8.00917,8.00917,0,0,1,24,8Z"/><path d="M32.583,24.16406a.49764.49764,0,0,0-.1286.36316.48309.48309,0,0,0,.01776.07257.48962.48962,0,0,0,.029.113.49815.49815,0,0,0,.11554.15662l.00049.00067a.49593.49593,0,0,0,.16607.09887l.00287.00171a19.04154,19.04154,0,0,1,6.915,4.28223.5.5,0,0,0,.69922-.71484,19.95364,19.95364,0,0,0-6.63525-4.24018,12.668,12.668,0,0,0-.4419-16.13385.49984.49984,0,1,0-.74023.67188A11.63567,11.63567,0,0,1,32.583,24.16406Z"/><path d="M15.21387,24.9707l.00287-.00171a.49593.49593,0,0,0,.16607-.09887l.00043-.00061a.40687.40687,0,0,0,.14435-.26862.48311.48311,0,0,0,.01806-.07379.49776.49776,0,0,0-.12866-.363,11.63567,11.63567,0,0,1,0-15.32812.49984.49984,0,1,0-.74023-.67188,12.6687,12.6687,0,0,0-.45124,16.12244C7.58545,26.90155,3,32.64862,3,38.48242a.5.5,0,0,0,1,0C4,32.87305,8.61133,27.31738,15.21387,24.9707Z"/></g><g id="Sub_Icons" data-name="Sub Icons"><path class="cls-1" d="M39.94268,36.59573l-.24609.44531.21484-.47656a4.96432,4.96432,0,0,0,.05176-.7168c0-.24316-.01758-.48242-.01855-.749a1.077,1.077,0,0,0,.52343-.666,1.05474,1.05474,0,0,0-.11718-.82324l-.92872-1.54785a1.09118,1.09118,0,0,0-1.417-.42774,1.699,1.699,0,0,0-.17187.042,7.13949,7.13949,0,0,0-1.30371-.75488,1.095,1.095,0,0,0-1.1045-1.082H33.56573a1.14245,1.14245,0,0,0-1.12988,1.124,9.40449,9.40449,0,0,0-1.36817.708,1.11982,1.11982,0,0,0-1.499.39258L28.64,33.6094a1.05533,1.05533,0,0,0-.11719.82324,1.16718,1.16718,0,0,0,.55664.69824,4.96432,4.96432,0,0,0-.05176.7168c0,.24316.01758.48242.02051.74805a1.0818,1.0818,0,0,0-.52539.667A1.05533,1.05533,0,0,0,28.64,38.086l.92871,1.54785a1.09458,1.09458,0,0,0,1.417.42774,1.6965,1.6965,0,0,0,.17188-.042,7.13827,7.13827,0,0,0,1.30371.75489,1.095,1.095,0,0,0,1.10449,1.082H35.4251a1.14246,1.14246,0,0,0,1.12989-1.124,9.55132,9.55132,0,0,0,1.36914-.707,1.12219,1.12219,0,0,0,1.498-.39355l.92872-1.5459a1.05533,1.05533,0,0,0,.11718-.82324A1.0818,1.0818,0,0,0,39.94268,36.59573ZM38.5501,39.10842a.10263.10263,0,0,1-.13671.02539,1.09666,1.09666,0,0,0-1.18946.07129,4.49155,4.49155,0,0,1-1.043.582,1.056,1.056,0,0,0-.66894.98731.07972.07972,0,0,1-.08692.06445H33.56573a.0796.0796,0,0,1-.08692-.06543,1.05516,1.05516,0,0,0-.66992-.98633,4.50539,4.50539,0,0,1-1.042-.582,1.07728,1.07728,0,0,0-.64551-.21289,1.12873,1.12873,0,0,0-.5498.14453.10166.10166,0,0,1-.13086-.02637l-.89746-1.626a1.04722,1.04722,0,0,0,.542-1.06445,4.10259,4.10259,0,0,1,0-1.14356,1.19655,1.19655,0,0,0-.57422-1.14355l.92969-1.5459a.10468.10468,0,0,1,.13672-.02539,1.09487,1.09487,0,0,0,1.18945-.07129,4.49175,4.49175,0,0,1,1.043-.582,1.056,1.056,0,0,0,.66894-.98731.07972.07972,0,0,1,.08692-.06445H35.4251a.0796.0796,0,0,1,.08692.06543,1.05516,1.05516,0,0,0,.66992.98633,4.50518,4.50518,0,0,1,1.042.582,1.09986,1.09986,0,0,0,1.19531.06836.10167.10167,0,0,1,.13086.02636l.89746,1.626a1.04722,1.04722,0,0,0-.542,1.06445,4.10259,4.10259,0,0,1,0,1.14356,1.04785,1.04785,0,0,0,.542,1.06543l.03223.07812Z"/><path class="cls-1" d="M35.57061,33.98635a2.14956,2.14956,0,1,0-1.07812,4.0127,2.19735,2.19735,0,0,0,.55957-.07422,2.14956,2.14956,0,0,0,.51855-3.93848Zm-.0791,2.43652h-.001a1.14939,1.14939,0,1,1-1.293-1.68652,1.16454,1.16454,0,0,1,.29981-.03906,1.15473,1.15473,0,0,1,1.10937.85254A1.14677,1.14677,0,0,1,35.49151,36.42287Z"/></g></svg>