<svg xmlns="http://www.w3.org/2000/svg" viewBox="0 0 48 48"><defs><style>.cls-1{fill:#ff6c2c;}</style></defs><g id="Base_Icons" data-name="Base Icons"><path d="M33,19.5a4.95062,4.95062,0,0,0-3.15033,1.14966L29.83,20.63l-6.96-6.96-.01966-.01965A4.95062,4.95062,0,0,0,24,10.5a5.00588,5.00588,0,0,0-5-5,4.95086,4.95086,0,0,0-3.14648,1.14648l-3-3a.5.5,0,0,0-.707.707l3,3A4.94885,4.94885,0,0,0,18.51,15.45044.46549.46549,0,0,0,18.5,15.5v18a.46549.46549,0,0,0,.01.04956,5.00007,5.00007,0,1,0,.98,0A.46549.46549,0,0,0,19.5,33.5v-18a.46549.46549,0,0,0-.01-.04956,4.94459,4.94459,0,0,0,2.66034-1.1001L22.17,14.37l6.96,6.96.01966.01965A4.95066,4.95066,0,0,0,28,24.5a5,5,0,1,0,5-5Zm-18-9a4.00006,4.00006,0,1,1,6.94336,2.68665l-.2569.25683A3.98415,3.98415,0,0,1,15,10.5Zm18,18a3.98029,3.98029,0,0,1-2.98871-6.63129l.35712-.35717A3.99253,3.99253,0,1,1,33,28.5Z"/></g><g id="Sub_Icons" data-name="Sub Icons"><circle class="cls-1" cx="19" cy="38.5" r="4"/></g></svg>