<svg xmlns="http://www.w3.org/2000/svg" viewBox="0 0 48 48"><defs><style>.cls-1{fill:#ff6c2c;}</style></defs><g id="Base_Icons" data-name="Base Icons"><path d="M41.98969,32.54865a.486.486,0,0,0,.00152-.14338L37.43066,8.71A2.49864,2.49864,0,0,0,35.05762,7H12.94238a2.51147,2.51147,0,0,0-2.38965,1.77344L6.00879,32.40527a.486.486,0,0,0,.00152.14338c-.00158.01763-.01031.03289-.01031.051V40.5A1.50164,1.50164,0,0,0,7.5,42h33A1.50164,1.50164,0,0,0,42,40.5V32.59961C42,32.58154,41.99127,32.56628,41.98969,32.54865ZM11.51855,9.02637A1.49761,1.49761,0,0,1,12.94238,8H35.05762a1.4897,1.4897,0,0,1,1.40722.96289L40.89441,32H7.10547ZM41,40.5a.501.501,0,0,1-.5.5H19V38.5a.5.5,0,0,0-1,0V41H15V38.5a.5.5,0,0,0-1,0V41H11V38.5a.5.5,0,0,0-1,0V41H7.5a.501.501,0,0,1-.5-.5V33H41Z"/></g><g id="Sub_Icons" data-name="Sub Icons"><path class="cls-1" d="M37,38.5A1.5,1.5,0,1,0,35.5,37,1.50164,1.50164,0,0,0,37,38.5Zm0-2a.5.5,0,1,1-.5.5A.501.501,0,0,1,37,36.5Z"/></g></svg>