<svg xmlns="http://www.w3.org/2000/svg" viewBox="0 0 48 48"><defs><style>.cls-1{fill:#ff6c2c;}</style></defs><g id="Base_Icons" data-name="Base Icons"><path d="M15.89984,27.5a3.089,3.089,0,0,0,.93073-.14,3.02114,3.02114,0,0,0,.808-.38947,2.6,2.6,0,0,0,.62537-.60376,2.50625,2.50625,0,0,0,.38781-.77447l1.39453-4.67212h.00135a.29007.29007,0,0,0-.06305-.28876.37018.37018,0,0,0-.29572-.13129H18.65173a.62914.62914,0,0,0-.36358.10944.499.499,0,0,0-.20844.28436l-1.25043,4.20831a.87512.87512,0,0,1-.36358.49445,1.085,1.085,0,0,1-.62537.18811H14.65784l1.44427-4.86462a.29615.29615,0,0,0-.05816-.28876.35492.35492,0,0,0-.29084-.13129H14.7063a.613.613,0,0,0-.35388.10944.49852.49852,0,0,0-.20813.28436l-1.45435,4.89087H10.72205l1.44628-4.86462a.29021.29021,0,0,0-.06463-.28876.37034.37034,0,0,0-.29572-.13129H10.77087a.62941.62941,0,0,0-.364.10944.49892.49892,0,0,0-.20843.28436L8.25,27.5Z"/><path d="M27.04926,20.60938a.49768.49768,0,0,0-.20813.28436L26.173,23.14215H23.75238L24.51727,20.5H23.01685a.62767.62767,0,0,0-.36341.10913.49881.49881,0,0,0-.20819.28436L20.61554,27.0874a.27771.27771,0,0,0,.063.28.357.357,0,0,0,.28564.13123h1.036a.62726.62726,0,0,0,.3631-.10938.49958.49958,0,0,0,.20813-.28436l.66809-2.24841,2.41907.00116-.65845,2.23089a.28124.28124,0,0,0,.05811.28.35429.35429,0,0,0,.29046.13123h1.04572a.61162.61162,0,0,0,.35406-.11054.4991.4991,0,0,0,.2082-.28436L28.92187,20.5H27.402A.61129.61129,0,0,0,27.04926,20.60938Z"/><path d="M30.67432,27.39044a.49779.49779,0,0,0,.2055-.28442l1.436-4.89093h1.94336l-1.42609,4.86468a.29761.29761,0,0,0,.05713.28876.34864.34864,0,0,0,.28723.13129H34.2113a.60061.60061,0,0,0,.34943-.10938.49958.49958,0,0,0,.20581-.28442l1.436-4.89093h.44037a1.18069,1.18069,0,0,1,.52179.11371,1.04692,1.04692,0,0,1,.59833,1.21612l-1.0448,3.53485a.29216.29216,0,0,0,.06384.28876.36132.36132,0,0,0,.292.13129h1.024a.61526.61526,0,0,0,.359-.10938.501.501,0,0,0,.20581-.28442l.98609-3.3598a2.25967,2.25967,0,0,0,.038-1.19861,2.64148,2.64148,0,0,0-1.48639-1.77179,2.938,2.938,0,0,0-1.278-.2757H30.87317l-1.93347,6.58-.00287-.00031a.29117.29117,0,0,0,.06219.28876.36132.36132,0,0,0,.292.13129h1.02435A.617.617,0,0,0,30.67432,27.39044Z"/><path d="M41.5,10H13.72266a.5.5,0,1,0,0,1H41.5a.501.501,0,0,1,.5.5v17a.5.5,0,0,0,1,0v-17A1.50164,1.50164,0,0,0,41.5,10Z"/><path d="M26.68555,37H6.5a.501.501,0,0,1-.5-.5V14.5498a.5.5,0,1,0-1,0V36.5A1.50164,1.50164,0,0,0,6.5,38H26.68555a.5.5,0,1,0,0-1Z"/><path d="M5.5,11a.51411.51411,0,0,0,.5-.5.40492.40492,0,0,0-.04-.19043.36482.36482,0,0,0-.11035-.16016A.34975.34975,0,0,0,5.68945,10.04a.49189.49189,0,0,0-.54.10937.35491.35491,0,0,0-.10937.16016A.40492.40492,0,0,0,5,10.5a.51228.51228,0,0,0,.5.5Z"/><path d="M8.24023,11a.51411.51411,0,0,0,.5-.5.4172.4172,0,0,0-.04-.19043.36476.36476,0,0,0-.11036-.16016A.34978.34978,0,0,0,8.42969,10.04a.49153.49153,0,0,0-.54.10937.35485.35485,0,0,0-.10938.16016.40492.40492,0,0,0-.04.19043.5123.5123,0,0,0,.5.5Z"/><path d="M10.79,10.96a.401.401,0,0,0,.18945.04.46852.46852,0,0,0,.35059-.15039.34975.34975,0,0,0,.10937-.16016.40081.40081,0,0,0,.04-.18945.4727.4727,0,0,0-.14941-.35059.49542.49542,0,0,0-.54-.10937.34975.34975,0,0,0-.16016.10937.4827.4827,0,0,0,0,.7002A.35936.35936,0,0,0,10.79,10.96Z"/></g><g id="Sub_Icons" data-name="Sub Icons"><path class="cls-1" d="M41.96387,34.582a1.04234,1.04234,0,0,0-.11524-.81641L40.919,32.21875a1.08479,1.08479,0,0,0-1.40625-.4248c-.03028.01074-.15235.02539-.17969.041a7.45965,7.45965,0,0,0-1.30762-.76172A1.08567,1.08567,0,0,0,36.92969,30H35.07031a1.14287,1.14287,0,0,0-1.127,1.123,9.82442,9.82442,0,0,0-1.375.708,1.11351,1.11351,0,0,0-1.48828.38868l-.92871,1.54589a1.0447,1.0447,0,0,0-.11524.81739,1.184,1.184,0,0,0,.55567.70117A5.09248,5.09248,0,0,0,30.541,36c0,.24316.01757.48145.01562.75586a1.06582,1.06582,0,0,0-.52051.66113,1.0447,1.0447,0,0,0,.11524.81739l.92968,1.54687a1.08452,1.08452,0,0,0,1.40625.4248c.03028-.01074.15235-.02539.17969-.041a7.45965,7.45965,0,0,0,1.30762.76172A1.08567,1.08567,0,0,0,35.07031,42h1.85938a1.14287,1.14287,0,0,0,1.127-1.123A5.50691,5.50691,0,0,0,39.333,40.165l.10058.00586a1.11367,1.11367,0,0,0,1.48633-.39063l.92871-1.54589a1.0447,1.0447,0,0,0,.11524-.81739,1.06586,1.06586,0,0,0-.52051-.66113l-.24219.4375.207-.47754A5.09248,5.09248,0,0,0,41.459,36c0-.24316-.01757-.48145-.01464-.75586A1.06623,1.06623,0,0,0,41.96387,34.582ZM40.0625,39.26562a.11117.11117,0,0,1-.14844.02833,1.08348,1.08348,0,0,0-1.18066.07031,4.50847,4.50847,0,0,1-1.04492.583,1.0489,1.0489,0,0,0-.66309.97949A.08744.08744,0,0,1,36.92969,41H35.07031a.08846.08846,0,0,1-.0957-.07422,1.047,1.047,0,0,0-.66406-.97851,4.522,4.522,0,0,1-1.044-.583,1.06959,1.06959,0,0,0-.64062-.21094,1.11619,1.11619,0,0,0-.54493.14258.109.109,0,0,1-.14257-.0293L31.043,37.62988a1.04154,1.04154,0,0,0,.53906-1.05664,4.02012,4.02012,0,0,1,0-1.14551,1.21383,1.21383,0,0,0-.57324-1.14648l.92871-1.54687a.1173.1173,0,0,1,.14844-.02833,1.09148,1.09148,0,0,0,1.18066-.07031,4.50847,4.50847,0,0,1,1.04492-.583,1.0489,1.0489,0,0,0,.66309-.97949A.08744.08744,0,0,1,35.07031,31h1.85938a.08846.08846,0,0,1,.0957.07422,1.047,1.047,0,0,0,.66406.97851,4.522,4.522,0,0,1,1.044.583,1.09134,1.09134,0,0,0,1.18555.06836.10855.10855,0,0,1,.14257.0293l.89551,1.63672a1.04154,1.04154,0,0,0-.53906,1.05664,4.02012,4.02012,0,0,1,0,1.14551,1.04216,1.04216,0,0,0,.53906,1.05761l.03418.08887Z"/><path class="cls-1" d="M37.25,33.834a2.49982,2.49982,0,1,0,.915,3.416h.001A2.50612,2.50612,0,0,0,37.25,33.834Zm.0498,2.916a1.49962,1.49962,0,1,1-.5498-2.0498A1.50365,1.50365,0,0,1,37.2998,36.75Z"/></g></svg>