<svg xmlns="http://www.w3.org/2000/svg" viewBox="0 0 48 48"><defs><style>.cls-1{fill:#ff6c2c;}</style></defs><g id="Base_Icons" data-name="Base Icons"><path d="M8.5,27a.49971.49971,0,0,0-.5.5v12a.5.5,0,0,0,1,0v-12A.49971.49971,0,0,0,8.5,27Z"/><path d="M12.5,17a.49971.49971,0,0,0-.5.5v22a.5.5,0,0,0,1,0v-22A.49971.49971,0,0,0,12.5,17Z"/><path d="M32.5,15a.49971.49971,0,0,0-.5.5v24a.5.5,0,0,0,1,0v-24A.49971.49971,0,0,0,32.5,15Z"/><path d="M28.5,18a.49971.49971,0,0,0-.5.5v21a.5.5,0,0,0,1,0v-21A.49971.49971,0,0,0,28.5,18Z"/><path d="M36.5,27a.49971.49971,0,0,0-.5.5v12a.5.5,0,0,0,1,0v-12A.49971.49971,0,0,0,36.5,27Z"/><path d="M40.5,22a.49971.49971,0,0,0-.5.5v17a.5.5,0,0,0,1,0v-17A.49971.49971,0,0,0,40.5,22Z"/></g><g id="Sub_Icons" data-name="Sub Icons"><path class="cls-1" d="M16.5,20a.49971.49971,0,0,0-.5.5v19a.5.5,0,0,0,1,0v-19A.49971.49971,0,0,0,16.5,20Z"/><path class="cls-1" d="M20.5,8a.49971.49971,0,0,0-.5.5v31a.5.5,0,0,0,1,0V8.5A.49971.49971,0,0,0,20.5,8Z"/><path class="cls-1" d="M24.5,25a.49971.49971,0,0,0-.5.5v14a.5.5,0,0,0,1,0v-14A.49971.49971,0,0,0,24.5,25Z"/></g></svg>