<svg xmlns="http://www.w3.org/2000/svg" viewBox="0 0 48 48"><defs><style>.cls-1{fill:#ff6c2c;}</style></defs><g id="Base_Icons" data-name="Base Icons"><path d="M8.5,27a.49971.49971,0,0,0-.5.5v12a.5.5,0,0,0,1,0v-12A.49971.49971,0,0,0,8.5,27Z"/><path d="M12.46387,17a.4997.4997,0,0,0-.5.5v22a.5.5,0,0,0,1,0v-22A.49972.49972,0,0,0,12.46387,17Z"/><path d="M16.5,20a.49971.49971,0,0,0-.5.5v19a.5.5,0,0,0,1,0v-19A.49971.49971,0,0,0,16.5,20Z"/><path d="M20.5,30a.49971.49971,0,0,0,.5-.5V8.5a.5.5,0,0,0-1,0v21A.49971.49971,0,0,0,20.5,30Z"/><path d="M32.5,30a.49971.49971,0,0,0,.5-.5v-14a.5.5,0,0,0-1,0v14A.49971.49971,0,0,0,32.5,30Z"/><path d="M24.5,30a.49971.49971,0,0,0,.5-.5V25.40918a.5.5,0,0,0-1,0V29.5A.49971.49971,0,0,0,24.5,30Z"/><path d="M29,29.5v-11a.5.5,0,0,0-1,0v11a.5.5,0,0,0,1,0Z"/><path d="M36.5,27a.49971.49971,0,0,0-.5.5v2a.5.5,0,0,0,1,0v-2A.49971.49971,0,0,0,36.5,27Z"/><path d="M40.5,30a.49971.49971,0,0,0,.5-.5v-7a.5.5,0,0,0-1,0v7A.49971.49971,0,0,0,40.5,30Z"/></g><g id="Sub_Icons" data-name="Sub Icons"><path class="cls-1" d="M26,32.5H20a.49971.49971,0,0,0-.5.5v9a.5.5,0,0,0,1,0V38h4a.5.5,0,0,0,0-1h-4V33.5H26a.5.5,0,0,0,0-1Z"/><path class="cls-1" d="M42,32.5H39a.49971.49971,0,0,0-.5.5v9a.5.5,0,0,0,1,0V39.5H42a3.5,3.5,0,0,0,0-7Zm0,6H39.5v-5H42a2.5,2.5,0,0,1,0,5Z"/><path class="cls-1" d="M36.25,32.5h-7.5a.5.5,0,0,0,0,1H32V42a.5.5,0,0,0,1,0V33.5h3.25a.5.5,0,0,0,0-1Z"/></g></svg>