<svg xmlns="http://www.w3.org/2000/svg" viewBox="0 0 48 48"><defs><style>.cls-1{fill:#ff6c2c;}</style></defs><g id="Base_Icons" data-name="Base Icons"><path d="M32.85352,23.83789a.50041.50041,0,0,0,0-.70752l-4.915-4.92285a1.9004,1.9004,0,0,0-.84082-.48828l-4.35248-1.1886a.48215.48215,0,0,0-.11231-.0307l-5.24225-1.43158a1.89179,1.89179,0,0,0-2.32226,2.32422l1.42889,5.24652a.48811.48811,0,0,0,.03162.11609l1.18695,4.35809a1.88789,1.88789,0,0,0,.4873.84082l4.89258,4.89942a.49995.49995,0,1,0,.707-.707l-4.89355-4.90039a.886.886,0,0,1-.22852-.3955l-1.134-4.16364,5.13111-5.13788,4.15618,1.135a.89363.89363,0,0,1,.39649.23l4.916,4.92334A.50071.50071,0,0,0,32.85352,23.83789ZM17.2439,21.57513l-1.2107-4.44525a.88646.88646,0,0,1,.23047-.86767.877.877,0,0,1,.86328-.229l4.44049,1.21265Z"/><path d="M22.22852,24.00684a.4998.4998,0,0,0,0,.707l2.65136,2.65429a.49995.49995,0,1,0,.707-.707l-2.65136-2.65429A.4998.4998,0,0,0,22.22852,24.00684Z"/><path d="M26.999,25.74707a.5.5,0,0,0,.35352-.85352l-2.65137-2.65478a.49995.49995,0,1,0-.707.707l2.65137,2.65479A.49838.49838,0,0,0,26.999,25.74707Z"/><path d="M24,3a21,21,0,1,0,6.21582,41.06445.49978.49978,0,1,0-.29492-.95507A19.98364,19.98364,0,1,1,43.05273,30.09766a.50032.50032,0,0,0,.95313.30468A21.01517,21.01517,0,0,0,24,3Z"/></g><g id="Sub_Icons" data-name="Sub Icons"><path class="cls-1" d="M36,30a6,6,0,1,0,6,6A6,6,0,0,0,36,30Zm4.94946,5.5H38.98737a8.92055,8.92055,0,0,0-1.071-4.11517A4.99414,4.99414,0,0,1,40.94946,35.5ZM36,41c-.76874,0-1.85284-1.74451-1.97595-4.5H37.976C37.85284,39.25549,36.7688,41,36,41Zm-1.97595-5.5C34.14716,32.74445,35.23126,31,36,31c.7688,0,1.85284,1.74445,1.97595,4.5Zm.05957-4.11517A8.92055,8.92055,0,0,0,33.01263,35.5H31.05054A4.99414,4.99414,0,0,1,34.08362,31.38483ZM31.05054,36.5h1.96209a8.92055,8.92055,0,0,0,1.071,4.11517A4.99414,4.99414,0,0,1,31.05054,36.5Zm6.86584,4.11517A8.92055,8.92055,0,0,0,38.98737,36.5h1.96209A4.99414,4.99414,0,0,1,37.91638,40.61517Z"/></g></svg>