<svg xmlns="http://www.w3.org/2000/svg" width="1137.617" height="932.766" viewBox="0 0 1137.617 932.766"><g transform="translate(-329.692 -1241.347)"><g transform="translate(329.692 1238.104)"><path d="M752.911,962.124c-196.565,0-365.759-131.908-404.107-315.055s64.83-366.524,246.433-437.985,391.055-11.1,500.261,144.163,87.753,362.192-51.24,494.234c-77.1,73.645-182.012,114.927-291.347,114.643Zm0-779.827c-225.444,0-408.857,174.24-408.857,388.409S527.467,959.114,752.911,959.114s408.858-174.238,408.858-388.408S978.356,182.3,752.911,182.3Z" transform="translate(-163.641 -81.096)" fill="#ccc"/><rect width="335.648" height="249.814" transform="translate(693.716 488.222) rotate(90)" fill="#2f2e41"/><rect width="335.648" height="133.234" transform="translate(400.984 477.973)" fill="#f2f2f2" stroke="#707070" stroke-width="1"/><rect width="335.648" height="133.234" transform="translate(400.984 626.581)" fill="#f2f2f2" stroke="#707070" stroke-width="1"/><rect width="335.648" height="133.234" transform="translate(400.984 775.188)" fill="#f2f2f2" stroke="#707070" stroke-width="1"/><rect width="335.648" height="20.498" transform="translate(400.984 534.465)" fill="var(--cp-graphic-color)"/><rect width="335.648" height="20.498" transform="translate(400.984 683.072)" fill="var(--cp-graphic-color)"/><rect width="335.648" height="20.498" transform="translate(400.984 831.68)" fill="var(--cp-graphic-color)"/><circle cx="7.687" cy="7.687" r="7.687" transform="translate(663.61 489.503)" fill="var(--cp-graphic-color)"/><circle cx="7.687" cy="7.687" r="7.687" transform="translate(690.513 489.503)" fill="var(--cp-graphic-color)"/><circle cx="7.687" cy="7.687" r="7.687" transform="translate(717.416 489.503)" fill="var(--cp-graphic-color)"/><circle cx="7.687" cy="7.687" r="7.687" transform="translate(663.61 635.548)" fill="var(--cp-graphic-color)"/><circle cx="7.687" cy="7.687" r="7.687" transform="translate(690.513 635.548)" fill="var(--cp-graphic-color)"/><circle cx="7.687" cy="7.687" r="7.687" transform="translate(717.416 635.548)" fill="var(--cp-graphic-color)"/><circle cx="7.687" cy="7.687" r="7.687" transform="translate(663.61 781.594)" fill="var(--cp-graphic-color)"/><circle cx="7.687" cy="7.687" r="7.687" transform="translate(690.513 781.594)" fill="var(--cp-graphic-color)"/><circle cx="7.687" cy="7.687" r="7.687" transform="translate(717.416 781.594)" fill="var(--cp-graphic-color)"/><rect width="1137.617" height="2.562" transform="translate(0 907.141)" fill="#3f3d56"/><path d="M315,157.475h0Z" transform="translate(411.375 43.533)" fill="#e6e6e6"/><circle cx="2.686" cy="2.686" r="2.686" transform="translate(418.499 3.244)" fill="#fff"/><circle cx="2.686" cy="2.686" r="2.686" transform="translate(427.913 3.244)" fill="#fff"/><circle cx="2.686" cy="2.686" r="2.686" transform="translate(437.328 3.244)" fill="#fff"/></g><g transform="translate(430 1346)"><path d="M978.52,751.182l.127-.123Z" transform="translate(-41.642 -11.679)" fill="var(--cp-graphic-color)"/><path d="M743.708,785.571l-6.76-5.022s-4.474,24.993.518,28.738,23.716,9.986,23.716,17.475S803.622,844.237,804.87,833s-3.745-17.475-3.745-17.475-19.972-19.972-22.468-23.716-8.737-11.234-8.737-11.234Z" transform="translate(-56.051 -9.934)" fill="#2f2e41"/><path d="M843.63,492.621s-.187,1.1-.512,3.108c-.3,1.785-.712,4.306-1.211,7.414-5.243,31.992-20.533,126.17-19.5,129.278,1.248,3.745,9.986,17.475,0,21.22-.961.362-2,1.535-3.108,3.383a72.546,72.546,0,0,0-5.28,12.457c-5.954,17.275-12.32,44.923-16,64.071-1.61,8.413-2.709,15.178-3.033,18.723a10.178,10.178,0,0,0-.038,2.471c1.248,4.993-7.489,22.468-11.234,27.461s-9.986,9.986-8.738,14.979-31.205,18.723-34.95,9.986-3.745-13.73-4.993-16.227-2.5-19.971,3.745-22.468,2.5-46.184,8.737-54.922c2.084-2.908,5.267-12.757,8.6-24.6,1.311-4.643,2.634-9.586,3.932-14.542,5.267-20.309,9.936-40.742,9.936-40.742l-1.248-146.042,68.652-8.738,1.76,3.882,3.508,7.7Z" transform="translate(-56.115 -27.79)" fill="#2f2e41"/><path d="M841.806,718.366s9.986-9.986,14.979,0,9.986,48.681,18.723,57.418S895.48,828.209,883,830.706s-26.213-3.745-27.461-11.234-27.461-46.184-27.461-49.929,17.475-17.475,17.475-17.475Z" transform="translate(-50.547 -13.877)" fill="#2f2e41"/><path d="M696.088,427.23S712.315,573.271,716.06,587s23.716,66.156,29.957,74.893,46.184,79.886,51.177,83.631,14.979,13.73,14.979,13.73,18.723,18.723,21.22,22.468,23.716-7.489,24.964-14.979-1.248-19.972-2.5-24.964,2.5-12.482-1.248-16.227-22.468-22.468-22.468-31.206S799.69,634.434,787.208,623.2s-9.986-29.957-9.986-29.957V517.1l68.652-21.22s-3.745-59.914-12.482-59.914S709.819,416,696.088,427.23Z" transform="translate(-58.36 -31.051)" fill="#2f2e41"/><circle cx="41.191" cy="41.191" r="41.191" transform="translate(697.643 105.344)" fill="#9f616a"/><path d="M779.27,223.174s-4.993,18.723-11.234,23.716S784.263,273.1,784.263,273.1l42.439,2.5,7.489-23.716s-13.73-27.461-9.986-44.936S779.27,223.174,779.27,223.174Z" transform="translate(-54.166 -44.185)" fill="#9f616a"/><path d="M765.791,242.02s11.234,1.248,13.73,4.993,19.971,14.979,33.7,12.482,22.468-6.241,24.964-4.993,7.489,27.461,7.489,27.461l-13.73,39.943,2.5,109.843,3.745,29.957s7.489-9.986-22.468-3.745-68.652-4.993-81.134-6.241-33.7-4.993-34.95-12.482,3.745-34.95,3.745-34.95l19.971-83.631,12.482-44.936Z" transform="translate(-58.162 -41.811)" fill="#3f3d56"/><path d="M778.979,236.85s-10.559-5.6-14.3-.607S713.5,248.725,713.5,252.47s-9.986,104.85-7.489,113.588-4.993,18.723-4.993,18.723l-8.738,37.447s-23.716,71.148-13.73,73.645,18.723,0,22.468,0,2.5-47.432,12.482-59.915,23.716-43.688,26.213-49.929,33.7-92.368,32.454-102.354S778.979,236.85,778.979,236.85Z" transform="translate(-59.544 -42.276)" fill="#d0cde1"/><path d="M823.676,242.02s9.986,0,11.234,2.5,13.73,18.723,18.723,22.468S876.1,286.955,876.1,290.7s-36.2,31.205-36.2,31.205-14.979,73.645-7.489,98.609,18.723,84.879,13.73,88.624-16.227,4.993-16.227,0-7.489-58.666-13.73-69.9-24.964-82.382-17.475-102.354S823.676,242.02,823.676,242.02Z" transform="translate(-52.388 -41.811)" fill="#d0cde1"/><path d="M666.628,358.687s-1.248,38.695,12.482,58.666,22.468,42.439,22.468,42.439,22.468-6.241,26.213-13.73,27.461-1.248,27.461-3.745-28.709-14.979-31.205-17.475-11.234-2.5-16.227-7.489-6.241-16.227-6.241-16.227l-4.993-32.454Z" transform="translate(-60.106 -34.905)" fill="#9f616a"/><path d="M765.606,169.52c-3.169-.288-6.437-.6-9.238-2.115-6.275-3.384-7.939-13.022-3.162-18.314a23.666,23.666,0,0,1,4.388-3.529l9.488-6.458c4.2-2.856,8.492-5.759,13.386-7.106,4.427-1.218,9.1-1.093,13.685-.808,8.9.553,17.847,1.7,26.214,4.766s16.172,8.21,21.24,15.542c8.034,11.624,8.144,27.3,3.719,40.72s-12.829,25.1-21.111,36.553l-4.3-20.967c-.383-1.867-.878-3.914-2.431-5.019-3.86-2.747-8.582,2.893-13.32,2.857-3.044-.023-5.6-2.527-6.754-5.345s-1.23-5.937-1.5-8.97c-.565-6.423-2.81-15.36-8.893-18.9C781.355,169.124,771.977,170.1,765.606,169.52Z" transform="translate(-55.142 -48.383)" fill="#2f2e41"/><path d="M766.94,492.826s4.216,121.942,6.712,125.687,0-126.07,0-126.07Z" transform="translate(-54.166 -26.988)" opacity="0.1"/><path d="M724.572,251.447h-9.986s-42.439,57.418-37.447,61.163,0,13.73,0,13.73l-9.986,18.723s-12.482,11.234-8.737,13.73,8.737,12.482,8.737,12.482,24.964-3.745,32.454,11.234L715.8,362.072Z" transform="translate(-60.631 -41.253)" fill="#d0cde1"/><path d="M836.725,356.611s-27.461,1.248-58.666-18.723l-31.205-13.73s-27.461-42.439-29.957-34.95,3.745,22.468,3.745,22.468S682.981,329.1,682,331.408s21.163-3.506,21.163-3.506-3.745,23.716,17.475,24.964,27.461-3.745,27.461-3.745,89.872,74.893,104.85,51.177S836.725,356.611,836.725,356.611Z" transform="translate(-59.196 -39.07)" fill="#9f616a"/><path d="M860.887,283.266l13.73,4.993v37.447l4.993,7.489s-1.248,14.979-4.993,18.723-11.234,2.5-8.737,11.234a47.311,47.311,0,0,1,1.248,17.475s-22.468,28.709-23.716,24.964-18.723-49.929-21.22-49.929,24.964-72.4,24.964-72.4Z" transform="translate(-50.905 -39.37)" fill="#d0cde1"/><path d="M704.21,463.016s-12.906-12.482-6.453-13.106,28.921-13.106,32.666-6.865S704.21,463.016,704.21,463.016Z" transform="translate(-58.368 -30.015)" fill="#2f2e41"/><path d="M542.8,828.422A240.354,240.354,0,0,0,576.992,704.5c0-133.375-108.122-241.5-241.5-241.5S94,571.121,94,704.5a240.355,240.355,0,0,0,34.194,123.926Z" transform="translate(-94 -28.73)" fill="#3f3d56"/><ellipse cx="23.5" cy="23" rx="23.5" ry="23" transform="translate(218 637)" fill="var(--cp-graphic-color)"/><circle cx="12" cy="12" r="12" transform="translate(44 686)" fill="var(--cp-graphic-color)"/><circle cx="11.651" cy="11.651" r="11.651" transform="translate(51.323 585.444)" fill="var(--cp-graphic-color)"/><circle cx="11.651" cy="11.651" r="11.651" transform="translate(109.157 502.466)" fill="var(--cp-graphic-color)"/><circle cx="11.651" cy="11.651" r="11.651" transform="translate(201.467 461.126)" fill="var(--cp-graphic-color)"/><circle cx="11.651" cy="11.651" r="11.651" transform="translate(301.884 473.235)" fill="var(--cp-graphic-color)"/><circle cx="11.651" cy="11.651" r="11.651" transform="translate(381.723 535.332)" fill="var(--cp-graphic-color)"/><circle cx="11.651" cy="11.651" r="11.651" transform="translate(418.174 629.68)" fill="var(--cp-graphic-color)"/><circle cx="11.651" cy="11.651" r="11.651" transform="translate(400.827 729.326)" fill="var(--cp-graphic-color)"/><line y1="91" x2="120" transform="translate(241 569)" fill="none" stroke="var(--cp-graphic-color)" stroke-miterlimit="10" stroke-width="4"/><circle cx="15.629" cy="15.629" r="15.629" transform="translate(336.598 194.464)" fill="none" stroke="#3f3d56" stroke-miterlimit="10" stroke-width="2"/><circle cx="15.629" cy="15.629" r="15.629" transform="translate(276.224 304.157)" fill="#3f3d56"/><circle cx="45.309" cy="45.309" r="45.309" transform="translate(132.871 305.459)" fill="#d0cde1"/></g></g></svg>