<?xml version="1.0" encoding="UTF-8"?>
<svg id="a" data-name="Layer 1" xmlns="http://www.w3.org/2000/svg" width="150" height="24" viewBox="0 0 150 24">
  <text/>
  <g id="b" data-name="Layer 2-2">
    <g id="c" data-name="Layer 1-2">
      <g>
        <g>
          <polygon points="85.450185 3.360965 85.450185 1.122458 75.690294 1.122458 75.690294 13.926718 85.450185 13.926718 85.450185 11.688211 77.928801 11.688211 77.928801 8.643841 83.659379 8.643841 83.659379 6.405334 77.928801 6.405334 77.928801 3.360965 85.450185 3.360965" style="fill: #ff6c2c;"/>
          <rect x="57.155456" y="1.122458" width="2.238507" height="12.80426" style="fill: #ff6c2c;"/>
          <polygon points="73.272707 1.122458 61.81155 1.122458 61.81155 3.360965 66.378105 3.360965 66.378105 13.926718 66.378105 13.926718 68.616612 13.926718 68.616612 13.926718 68.616612 3.360965 73.272707 3.360965 73.272707 1.122458" style="fill: #ff6c2c;"/>
          <path d="m52.3378,4.125442l1.298334-1.862438s-1.710219-1.325196-4.33375-1.325196c-3.116002,0-5.20229,1.692311-5.20229,3.832324,0,4.700865,7.610924,3.286128,7.610924,5.605221,0,.877495-.787955,1.486369-2.632484,1.486369-2.292231,0-4.038267-1.611725-4.038267-1.611725l-1.24461,1.817669s1.862438,2.041519,5.354509,2.041519c3.080186,0,5.023209-1.763943,5.023209-3.814416,0-4.575508-7.610924-3.214496-7.610924-5.632084,0-.877495.975989-1.477415,2.53399-1.477415,1.790806,0,3.241358.940173,3.241358.940173h0Z" style="fill: #ff6c2c;"/>
          <g>
            <polygon points="125.11653 1.122458 113.655374 1.122458 113.655374 3.360965 118.311469 3.360965 118.311469 13.926718 118.311469 13.926718 120.549976 13.926718 120.549976 13.926718 120.549976 3.360965 125.11653 3.360965 125.11653 1.122458" style="fill: #ff6c2c;"/>
            <polygon points="111.237787 3.360965 111.237787 1.122458 101.477896 1.122458 101.477896 13.926718 111.237787 13.926718 111.237787 11.688211 103.716403 11.688211 103.716403 8.643841 109.446981 8.643841 109.446981 6.405334 103.716403 6.405334 103.716403 3.360965 111.237787 3.360965" style="fill: #ff6c2c;"/>
            <path d="m97.985825,1.122458h-8.685407v2.238507h6.35736v5.551498c0,1.790806-.752141,2.919013-3.08914,2.919013-1.898255,0-3.536841-1.611725-3.536841-1.611725l-1.244609,1.817668s1.99675,2.041519,4.960531,2.041519c3.259268,0,5.148566-1.835576,5.148566-4.862038l.08954-8.108964v.014523Z" style="fill: #ff6c2c;"/>
          </g>
        </g>
        <g>
          <path d="m82.047654,23.86569v-6.17828h2.897461c.561661,0,.998511.142645,1.328374.436847.329866.294204.49034.668645.49034,1.141154,0,.374441-.106984.686475-.329866.936103s-.49034.419017-.81129.481424c.347695.053492.6419.222882.891527.517086s.374442.632984.374442.99851c0,.499255-.16939.900442-.499255,1.212477s-.793458.454679-1.381866.454679h-2.959869.000003Zm.797071-3.492071h1.925914c.351765,0,.624384-.087941.817853-.272619s.290205-.413324.290205-.703531-.096736-.518853-.290205-.712325-.466088-.281412-.809061-.281412h-1.925914v1.969885h-.008795.000003Zm-.000238,2.86529h2.013528c.379231,0,.677196-.099323.902928-.288937s.325055-.460494.325055-.785547c0-.306995-.108352-.559815-.316025-.767489-.216702-.207674-.51467-.306995-.902928-.306995h-2.013528v2.148968h-.00903Z" style="fill: #221f1f;"/>
          <path d="m88.763175,17.59787h.805863v3.853617c-.036203.573057.124971,1.029713.447314,1.361012s.779002.492472,1.369965.492472,1.047622-.161173,1.369965-.492472.48352-.779.483908-1.361012v-3.764076h.805863v3.787554c0,.787955-.222343,1.405782-.675922,1.853484s-1.111717.671552-1.965514.671552-1.520827-.223851-1.965516-.671552c-.453581-.447701-.675925-1.065529-.675925-1.84453v-3.886048Z" style="fill: #221f1f;"/>
          <path d="m96.105479,23.86569v-6.17828h.805863v6.17828h-.805863Z" style="fill: #221f1f;"/>
          <path d="m98.881227,23.86569v-6.17828h.805863v5.551498h3.04437v.626782h-3.850232Z" style="fill: #221f1f;"/>
          <path d="m104.343185,23.86569v-6.17828h2.219903c.998511,0,1.800885.294204,2.416035.882611s.918271,1.328374.918271,2.210986-.303121,1.631494-.918271,2.210986-1.417529.873696-2.416035.873696h-2.219903Zm.805863-.716322h1.426334c.771473,0,1.381481-.233237,1.838982-.690739s.672798-1.031624.672798-1.722363-.224266-1.273831-.66383-1.731334c-.448532-.457503-1.058535-.690739-1.84795-.690739h-1.426334v4.835177h0Z" style="fill: #221f1f;"/>
          <path d="m111.685488,23.95523v-6.26782h4.297934v.716322h-3.492071v1.969886h3.402531v.716322h-3.402531v2.148967h3.492071v.626782l-4.262509.08954h-.035425Z" style="fill: #221f1f;"/>
          <path d="m121.489984,23.86569l-1.635166-2.417588h-1.274728v2.417588h-.805863v-6.17828h2.594706c.602184,0,1.089245.16939,1.461183.50817s.557905.793458.557905,1.35512-.159401.953933-.487061,1.265967-.717306.49034-1.195514.526l1.744565,2.523019h-.960023s-.000005.000003-.000005.000003Zm-.209497-5.213948c-.246321-.228074-.565625-.33755-.957912-.33755h-1.742485v2.417588h1.742485c.392287,0,.711591-.109475.957912-.33755s.364919-.520009.364919-.875806-.118598-.638608-.364919-.866682h0Z" style="fill: #221f1f;"/>
        </g>
      </g>
    </g>
  </g>
  <g id="d" data-name="b">
    <g>
      <path d="m23.437878,21.788255h-1.471896l-1.054288-3.169712c.29438-.041076.527145-.280687.527145-.581913,0-.328608-.266995-.602451-.60245-.602451H7.069021v-1.170671h11.07003c.328609,0,.60245-.266994.60245-.60245s-.266995-.60245-.60245-.60245H7.069021V2.20861h20.716087v13.123839c0,.328609.266994.60245.602451.60245s.602451-.266995.602451-.60245V1.613006c0-.328609-.266994-.60245-.602451-.60245H6.473416c-.328609,0-.60245.266995-.60245.60245v16.430471c0,.328608.266995.602449.60245.602449h7.756551l-1.013213,3.149174h-2.019578c-.32861,0-.60245.266994-.60245.602449s.266995.602451.60245.602451h12.240702c.328608,0,.602449-.266994.602449-.602451s-.266994-.602451-.602451-.602451c0,0,0-.006847.000002-.006843Zm-8.961453,0l1.013212-3.149174h4.169232l1.047442,3.149174s-6.229887,0-6.229887,0Z" style="fill: #241f20;"/>
      <path d="m27.922027,17.310951l-6.702264-7.872934s-.068461-.054768-.10269-.082152c-.013692-.013692-.027385-.03423-.041076-.041077l-3.005406-1.834736c-.212227-.130074-.472376-.116382-.670911.03423-.198535.143767-.280687.397069-.219072.636681l.96529,3.573628h0c.020538.075306.054768.150613.109537.212227l6.428421,7.975625h0l1.574586,1.978502,3.299787-2.75895-1.629355-1.827891-.006847.006849Zm-8.865609-6.811799l-.328609-1.211748,1.020059.622989-.561374.479222s-.130075.109537-.130076.109537Zm.49976,1.150133l.629835-.540837.506606-.4313,5.914969,6.94872-1.369206,1.081672-5.689052-7.058257s.006848,0,.006849.000002Zm6.873415,8.543844l-.438145-.547682,1.403435-1.115903.438145.486068-1.403435,1.177517Z" style="fill: #ff6c2c;"/>
    </g>
  </g>
</svg>