<?xml version="1.0" encoding="UTF-8"?>
<svg id="a" data-name="Layer 2" xmlns="http://www.w3.org/2000/svg" width="150" height="24" viewBox="0 0 150 24">
  <g id="b" data-name="Layer 2-2">
    <g id="c" data-name="Layer 1-2">
      <g>
        <g>
          <polygon points="85.367079 2.75631 85.367079 .524727 75.637375 .524727 75.637375 13.289384 85.367079 13.289384 85.367079 11.057801 77.868959 11.057801 77.868959 8.022847 83.581812 8.022847 83.581812 5.791264 77.868959 5.791264 77.868959 2.75631 85.367079 2.75631" style="fill: #ff6c2c;"/>
          <rect x="57.249128" y=".524727" width="2.231583" height="12.764657" style="fill: #ff6c2c;"/>
          <polygon points="73.227265 .524727 61.801558 .524727 61.801558 2.75631 66.443252 2.75631 66.443252 13.289384 66.443252 13.289384 68.674835 13.289384 68.674835 13.289384 68.674835 2.75631 73.227265 2.75631 73.227265 .524727" style="fill: #ff6c2c;"/>
          <path d="m52.409904,3.532613l1.294318-1.856677s-1.70493-1.321097-4.320346-1.321097c-3.106364,0-5.1862,1.687077-5.1862,3.820471,0,4.686325,7.587384,3.275964,7.587384,5.587884,0,.874781-.785518,1.481771-2.624342,1.481771-2.285141,0-4.025776-1.60674-4.025776-1.60674l-1.240761,1.812047s1.856677,2.035204,5.337947,2.035204c3.070659,0,5.007673-1.758487,5.007673-3.802618,0-4.561356-7.587384-3.204554-7.587384-5.614664,0-.874781.97297-1.472845,2.526152-1.472845,1.785267,0,3.231333.937265,3.231333.937265h0Z" style="fill: #ff6c2c;"/>
          <g>
            <polygon points="125 .524727 113.574293 .524727 113.574293 2.75631 118.126723 2.75631 118.126723 13.289384 118.126723 13.289384 120.358307 13.289384 120.358307 13.289384 120.358307 2.75631 125 2.75631 125 .524727" style="fill: #ff6c2c;"/>
            <polygon points="111.164183 2.75631 111.164183 .524727 101.434479 .524727 101.434479 13.289384 111.164183 13.289384 111.164183 11.057801 103.666063 11.057801 103.666063 8.022847 109.378916 8.022847 109.378916 5.791264 103.666063 5.791264 103.666063 2.75631 111.164183 2.75631" style="fill: #ff6c2c;"/>
            <path d="m97.863946.524727h-8.56928v2.231583h6.337697v5.578671c-.036856,1.785267-.78667,2.909985-3.116441,2.909985-1.892384,0-3.525902-1.60674-3.525902-1.60674l-1.24076,1.812046s1.990574,2.035204,4.945188,2.035204c3.249188,0,5.080235-4.846999,5.080235-4.846999l.089263-8.114037v.000288Z" style="fill: #ff6c2c;"/>
          </g>
        </g>
        <g>
          <path d="m82.064335,23.197614v-6.15917h2.8885c.559923,0,.995422.142204,1.324265.435496.328846.293294.488823.666577.488823,1.137625,0,.373283-.106653.684352-.328846.933208s-.488823.417721-.80878.479935c.346619.053327.639915.222192.888769.515486s.373284.631027.373284.995421c0,.497711-.168866.897657-.497711,1.208727s-.791004.453273-1.377592.453273h-2.950715.000003Zm.794605-3.48127h1.919957c.350677,0,.622453-.087669.815324-.271775s.289308-.412045.289308-.701354-.096437-.517248-.289308-.710122-.464646-.280542-.806559-.280542h-1.919957v1.963792h-.008767.000003Zm-.000237,2.856428h2.0073c.378058,0,.675101-.099015.900135-.288043s.324049-.459069.324049-.783117c0-.306045-.108017-.558083-.315047-.765115-.216032-.207031-.513078-.306045-.900135-.306045h-2.0073v2.142321h-.009002Z" style="fill: #fff;"/>
          <path d="m88.759086,17.038444h.714107v3.766624c.016703.571285.177378,1.026528.498724,1.356802s.776592.490948,1.365728.490948,1.044382-.160674,1.365728-.490948.482024-.776591.429617-1.356802v-3.677361h.80337v3.775839c0,.785518-.221656,1.401434-.673831,1.847751s-1.108279.669475-1.959434.669475-1.516123-.223158-1.959437-.669475c-.452178-.446317-.673834-1.062233-.673834-1.838825l.089263-3.874317v.000288Z" style="fill: #fff;"/>
          <path d="m95.989416,23.197614v-6.15917h.80337v6.15917h-.80337Z" style="fill: #fff;"/>
          <path d="m98.845843,23.197614v-6.15917h.80337v5.445063h3.034953v.714107h-3.838323Z" style="fill: #fff;"/>
          <path d="m104.290906,23.197614v-6.15917h2.213037c.995422,0,1.795315.293294,2.408562.879881s.915431,1.324265.915431,2.204148-.302184,1.626448-.915431,2.204148-1.413145.870994-2.408562.870994h-2.213037Zm.80337-.624843h1.421923c.769087,0,1.377208-.232516,1.833294-.688603s.670717-1.028433.670717-1.717036-.223572-1.269891-.661776-1.725979c-.447145-.456088-1.055261-.688603-1.842234-.688603h-1.421923v4.820222h0Z" style="fill: #fff;"/>
          <path d="m111.6105,23.286878v-6.248434h4.28464v.714107h-3.48127v1.963793h3.392007v.714107h-3.392007v2.14232h3.48127v.624843l-4.285794.089263h.001154Z" style="fill: #fff;"/>
          <path d="m121.38467,23.197614l-1.630109-2.41011h-1.270785v2.41011h-.80337v-6.15917h2.586681c.600321,0,1.085876.168866,1.456664.506598s.55618.791004.55618,1.350929-.158908.950983-.485555,1.262052-.715087.488823-1.191816.524373l1.739169,2.515215h-.957054s-.000005.000003-.000005.000003Zm-.208849-5.197821c-.245559-.227369-.563876-.336506-.954949-.336506h-1.737096v2.41011h1.737096c.391073,0,.70939-.109137.954949-.336506s.36379-.518401.36379-.873097-.118231-.636633-.36379-.864002h0Z" style="fill: #fff;"/>
        </g>
      </g>
    </g>
  </g>
  <g id="d" data-name="Layer 2-2">
    <g>
      <path d="m24.080544,21.862166h-1.500749l-1.074955-3.037479c.30015-.039362.537478-.268978.537478-.557637,0-.3149-.272229-.577317-.61426-.577317H7.390811v-1.390811h11.009826c.333794.037688.611956-.233519.611956-.574268s-.611956-.816543-.611956-.816543H7.390811V1.695406h20.862166v13.695451c-.054074.333794.217133.611956.557883.611956s.832928-.611956.832928-.611956V1.611957c0-.333795-.273055-.611957-.616125-.611957H6.616125c-.336068,0-.616125.271208-.616125.611957v16.108011c0,.36282.294791.66517.66517.66517h8.564069l-1.118696,3.477028h-2.761319s-.611957.364526-.611957.705274.271208.611958.611957.685537h12.433851c.333794-.073579.611956-.344787.611956-.685535s-.314488-.611956-.314488-.611956v-.093319Zm-9.675465,0l1.118695-3.477028h4.603282l1.15649,3.477028h-6.878467Z" style="fill: #fff;"/>
      <path d="m28.337981,17.400578l-6.808021-7.997163s-.069541-.055632-.104311-.083449c-.013908-.013908-.027817-.03477-.041724-.041725l-3.05283-1.863687c-.215575-.132127-.47983-.118219-.681497.03477-.201668.146035-.285116.403335-.22253.646727l.980522,3.630017h0c.020863.076494.055632.152989.111265.215576l6.529857,8.101475h0l1.599432,2.009722,3.351854-2.802485-1.655066-1.856733-.006953.006954Zm-9.005502-6.919285l-.333794-1.230867,1.036154.632819-.570232.486784-.132127.111265Zm.507646.94979l.639773-.54937.5146-.438106,6.008303,7.058366-1.390811,1.098741-5.778821-7.169631h.006956Zm6.981872,8.897153l-.445059-.556324,1.425581-1.13351.445059.493737-1.425581,1.196097Z" style="fill: #fff;"/>
    </g>
  </g>
  <g id="e" data-name="b">
    <path d="m28.400978,17.112125l-6.702264-7.872934s-.068461-.054768-.10269-.082152c-.013692-.013692-.027385-.03423-.041076-.041077l-3.005406-1.834736c-.212227-.130074-.472376-.116382-.670911.03423-.198535.143767-.280687.397069-.219072.636681l.96529,3.573628h0c.020538.075306.054768.150613.109537.212227l6.428421,7.975625h0l1.574586,1.978502,3.299787-2.75895-1.629355-1.827891-.006847.006849Zm-8.865609-6.811799l-.328609-1.211748,1.020059.622989-.561374.479222s-.130075.109537-.130076.109537Zm.49976,1.150133l.629835-.540837.506606-.4313,5.914969,6.94872-1.369206,1.081672-5.689052-7.058257s.006848,0,.006849.000002Zm6.873415,8.543844l-.438145-.547682,1.403435-1.115903.438145.486068-1.403435,1.177517Z" style="fill: #ff6c2c;"/>
  </g>
</svg>