<svg xmlns="http://www.w3.org/2000/svg" width="46.006" height="34.629" viewBox="0 0 46.006 34.629">
  <g id="Layer_1" data-name="Layer 1" transform="translate(299.705 16.315)">
    <g id="Group_98" data-name="Group 98" transform="translate(-299.705 -16.315)">
      <path id="Path_630" data-name="Path 630" d="M44.19,0H7.869a.6.6,0,0,0-.605.609.6.6,0,0,0,.605.609H44.19a.6.6,0,0,1,.605.609V4.936H.605A.6.6,0,0,0,0,5.546V32.3a1.82,1.82,0,0,0,1.816,1.828l28.381.016a.609.609,0,0,0,0-1.219L1.816,32.91a.6.6,0,0,1-.605-.609V6.155H44.8V24.677c0,.341.287.829.626.829s.584-.487.584-.829V1.828A1.82,1.82,0,0,0,44.19,0Z"/>
      <path id="Path_631" data-name="Path 631" d="M.15.85A.469.469,0,0,0,.5,1,.469.469,0,0,0,.85.85.454.454,0,0,0,1,.5.406.406,0,0,0,.96.31.355.355,0,0,0,.85.15.355.355,0,0,0,.69.04a.617.617,0,0,0-.38,0A.355.355,0,0,0,.15.15.355.355,0,0,0,.04.31.406.406,0,0,0,0,.5.313.313,0,0,0,.04.69.355.355,0,0,0,.15.85Z"/>
      <path id="Path_632" data-name="Path 632" d="M2.15.85a.483.483,0,0,0,.7,0A.355.355,0,0,0,2.96.69.406.406,0,0,0,3,.5.406.406,0,0,0,2.96.31.355.355,0,0,0,2.85.15.355.355,0,0,0,2.69.04a.5.5,0,0,0-.38,0,.355.355,0,0,0-.16.11.355.355,0,0,0-.11.16A.406.406,0,0,0,2,.5a.313.313,0,0,0,.04.19.355.355,0,0,0,.11.16Z"/>
      <path id="Path_633" data-name="Path 633" d="M4.31.96A.406.406,0,0,0,4.5,1,.454.454,0,0,0,4.85.85.355.355,0,0,0,4.96.69.406.406,0,0,0,5,.5.469.469,0,0,0,4.85.15.5.5,0,0,0,4.31.04a.355.355,0,0,0-.16.11.355.355,0,0,0-.11.16A.406.406,0,0,0,4,.5a.454.454,0,0,0,.15.35.355.355,0,0,0,.16.11Z"/>
      <path id="Path_634" data-name="Path 634" d="M30.7,24.4l.34-1.17H28.87a3.1,3.1,0,0,0-.92.14,2.832,2.832,0,0,0-.8.39,2.72,2.72,0,0,0-.62.6,2.335,2.335,0,0,0-.39.77l-.04.13a2.2,2.2,0,0,0-.03,1.19,2.553,2.553,0,0,0,.52,1.04,2.914,2.914,0,0,0,.96.73,2.989,2.989,0,0,0,1.27.28h.67l.38-1.3a.287.287,0,0,0-.06-.28.372.372,0,0,0-.28-.13h-.61a1,1,0,0,1-.46-.1.919.919,0,0,1-.35-.26,1,1,0,0,1-.19-.37.863.863,0,0,1,.01-.45.935.935,0,0,1,.37-.5,1.067,1.067,0,0,1,.61-.18h1.01a.814.814,0,0,0,.49-.15.749.749,0,0,0,.29-.39Z" transform="translate(7.316 6.129)" fill="#ff6c2c"/>
      <path id="Path_635" data-name="Path 635" d="M37.94,23.54a2.572,2.572,0,0,0-.53-1.04,2.914,2.914,0,0,0-.96-.73,2.989,2.989,0,0,0-1.27-.28H33.17a.814.814,0,0,0-.49.15.749.749,0,0,0-.29.39L30.5,28.49h1.33a.805.805,0,0,0,.48-.15.749.749,0,0,0,.29-.39L34,23.2h1.07a1,1,0,0,1,.46.1,1.034,1.034,0,0,1,.35.26,1,1,0,0,1,.19.37.788.788,0,0,1-.01.43.941.941,0,0,1-.36.5,1.035,1.035,0,0,1-.62.19h-.56a.814.814,0,0,0-.49.15.749.749,0,0,0-.29.39l-.35,1.18h1.74a3.1,3.1,0,0,0,.92-.14,2.832,2.832,0,0,0,.8-.39,2.566,2.566,0,0,0,.62-.61,2.516,2.516,0,0,0,.38-.77l.04-.13a2.3,2.3,0,0,0,.04-1.19Z" transform="translate(8.006 6.129)" fill="#ff6c2c"/>
    </g>
  </g>
</svg>
