<svg id="Layer_3" data-name="Layer 3" xmlns="http://www.w3.org/2000/svg" width="37" height="37.704" viewBox="0 0 37 37.704">
  <path id="Path_636" data-name="Path 636" d="M21.643,36.657H1.584a.527.527,0,0,1-.528-.524V1.571a.527.527,0,0,1,.528-.524h28.5a.527.527,0,0,1,.528.524V23.565a.528.528,0,0,0,1.056,0V1.571A1.575,1.575,0,0,0,30.088,0H1.584A1.575,1.575,0,0,0,0,1.571V36.133A1.575,1.575,0,0,0,1.584,37.7H21.643a.524.524,0,1,0,0-1.047Z"/>
  <path id="Path_637" data-name="Path 637" d="M19.03,23.5a.5.5,0,0,0-.5-.5h-12a.5.5,0,0,0,0,1h12A.5.5,0,0,0,19.03,23.5Z" transform="translate(0.452 1.12)"/>
  <path id="Path_638" data-name="Path 638" d="M6.53,29a.5.5,0,0,0,0,1h11a.5.5,0,0,0,0-1Z" transform="translate(0.432 1.704)"/>
  <path id="Path_639" data-name="Path 639" d="M24,17.5a.5.5,0,0,0-.5-.5H6.5a.5.5,0,0,0,0,1h17A.5.5,0,0,0,24,17.5Z" transform="translate(0.579 0.828)"/>
  <path id="Path_640" data-name="Path 640" d="M21.53,12a.5.5,0,0,0,0-1h-4a.5.5,0,0,0,0,1Z" transform="translate(0.939 0.535)"/>
  <path id="Path_641" data-name="Path 641" d="M23.53,6h-6a.5.5,0,0,0,0,1h6a.5.5,0,0,0,0-1Z" transform="translate(1.005)"/>
  <path id="Path_642" data-name="Path 642" d="M7.5,12h5.01a1.5,1.5,0,0,0,1.5-1.5V7.49a1.5,1.5,0,0,0-1.5-1.5H7.5A1.5,1.5,0,0,0,6,7.49V10.5A1.5,1.5,0,0,0,7.5,12ZM7,7.5A.5.5,0,0,1,7.5,7h5.01a.5.5,0,0,1,.5.5v3.01a.5.5,0,0,1-.5.5H7.5a.5.5,0,0,1-.5-.5Z" transform="translate(0.367 0.34)"/>
  <path id="Path_643" data-name="Path 643" d="M26.33,29.26l.41-1.44H24.07a3.984,3.984,0,0,0-1.14.17,3.5,3.5,0,0,0-.99.48,3.382,3.382,0,0,0-.77.74,2.937,2.937,0,0,0-.48.95l-.05.16a2.827,2.827,0,0,0-.04,1.47,3.1,3.1,0,0,0,.64,1.28A3.6,3.6,0,0,0,24,34.31h.83l.47-1.6a.347.347,0,0,0-.08-.35.463.463,0,0,0-.35-.16h-.76a1.355,1.355,0,0,1-.57-.12,1.275,1.275,0,0,1-.43-.32,1.11,1.11,0,0,1-.23-.46,1.035,1.035,0,0,1,.02-.55,1.176,1.176,0,0,1,.46-.61,1.3,1.3,0,0,1,.75-.23h1.24a1.014,1.014,0,0,0,.6-.18.879.879,0,0,0,.35-.49Z" transform="translate(1.179 1.704)" fill="#ff6c2c"/>
  <path id="Path_644" data-name="Path 644" d="M35.24,28.2a3.24,3.24,0,0,0-.65-1.28,3.6,3.6,0,0,0-2.76-1.24H29.36a1.014,1.014,0,0,0-.6.18.879.879,0,0,0-.35.49l-2.33,7.96h1.64a1,1,0,0,0,.59-.18.9.9,0,0,0,.35-.47l1.73-5.85h1.32a1.388,1.388,0,0,1,.57.12,1.275,1.275,0,0,1,.43.32,1.11,1.11,0,0,1,.23.46.96.96,0,0,1-.02.53,1.08,1.08,0,0,1-.44.61,1.273,1.273,0,0,1-.76.24h-.69a1.014,1.014,0,0,0-.6.18.9.9,0,0,0-.35.47l-.43,1.46h2.14a3.984,3.984,0,0,0,1.14-.17,3.393,3.393,0,0,0,.99-.49,3.185,3.185,0,0,0,.76-.75,3.123,3.123,0,0,0,.47-.95l.05-.16a2.729,2.729,0,0,0,.05-1.47Z" transform="translate(1.672 1.704)" fill="#ff6c2c"/>
</svg>
