<svg xmlns="http://www.w3.org/2000/svg" data-name="Layer 2" viewBox="0 0 48 48">
  <g data-name="Layer 2-2">
    <path fill="#241f20" d="M35.597689 43.829639H32.61503l-2.136415-6.423121c.596532-.083236 1.068209-.568786 1.068209-1.179191 0-.665895-.54104-1.220808-1.220808-1.220808H2.427746v-2.372253h22.432371c.665895 0 1.220808-.54104 1.220808-1.220808s-.54104-1.220808-1.220808-1.220808H2.427746V4.153336h41.979196v26.594221c0 .665895.54104 1.220808 1.220811 1.220808s1.220811-.54104 1.220811-1.220808V2.9464c0-.665896-.54104-1.220809-1.220811-1.220809H1.220809C.554913 1.725591 0 2.266631 0 2.9464v33.294798c0 .665895.54104 1.220808 1.220809 1.220808h15.71792l-2.05318 6.381504h-4.092485c-.665896 0-1.220809.54104-1.220809 1.220808s.54104 1.220811 1.220809 1.220811H35.59769c.665895 0 1.220808-.54104 1.220808-1.220808s-.54104-1.220808-1.220808-1.220808v-.013873Zm-18.159539 0 2.053179-6.381504h8.448555l2.122544 6.381504H17.438149Z"/>
    <path fill="#ff6c2c" d="M44.684394 34.756805 31.102889 18.803047s-.138729-.110983-.208092-.166474c-.027746-.027746-.055493-.069364-.083236-.083238l-6.090173-3.71792c-.430057-.263583-.957226-.235838-1.359537.069364-.402313.29133-.568786.804624-.44393 1.290174l1.956069 7.241619c.041619.152601.110983.305203.221965.430058l13.026589 16.161851 3.190751 4.009248L48 38.446976l-3.301736-3.704047-.013871.013873Zm-17.96532-13.803469-.665895-2.455491 2.067052 1.262428-1.137572.971098-.263585.221965Zm1.012716 2.330636 1.276301-1.095954 1.026589-.873989 11.986127 14.080926-2.774567 2.191908-11.528326-14.302891h.013876Zm13.928326 17.313296-.88786-1.109826 2.84393-2.261271.88786.98497-2.84393 2.386126Z"/>
  </g>
</svg>
