<svg width="95" height="25" viewBox="0 0 909 240" version="1.1" id="svg115" xmlns="http://www.w3.org/2000/svg" xmlns:svg="http://www.w3.org/2000/svg"><defs id="defs107"><clipPath  id="a"> <path d="M867 0h41.727v42H867zm0 0" id="path104" /></clipPath></defs><path fill="#fff" d="M365.102 14.398l-43.204 160.204c-2.597 9.597-6.597 18.45-12 26.546-5.398 8.102-11.847 15-19.347 20.704-7.5 5.7-15.855 10.152-25.05 13.347-9.2 3.202-18.8 4.8-28.8 4.8H0L60.3 13.5c.997-3.996 3.15-7.246 6.45-9.75C70.05 1.254 73.8 0 78 0h32.102c3.796 0 6.847 1.5 9.148 4.5 2.297 3 2.95 6.3 1.95 9.898l-44.7 166.8h60.898l45-167.698c1-3.996 3.153-7.246 6.454-9.75 3.296-2.496 6.945-3.75 10.95-3.75h32.397c3.796 0 6.796 1.5 9 4.5 2.198 3 2.8 6.3 1.8 9.898l-44.7 166.8H234.9c7.204 0 13.653-2.143 19.352-6.448 5.7-4.297 9.45-9.945 11.25-16.95l38.7-144.3c1-3.996 3.152-7.246 6.448-9.75 3.3-2.496 7.05-3.75 11.25-3.75H354c3.797 0 6.848 1.5 9.148 4.5 2.297 3 2.95 6.3 1.954 9.898M406.797 149.398l-20.7 77.102c-1.003 4.004-3.152 7.25-6.45 9.75-3.3 2.504-7.05 3.75-11.25 3.75h-32.1c-3.602 0-6.555-1.5-8.852-4.5-2.297-3-2.945-6.195-1.95-9.602l56.7-212.398c1-3.996 3.153-7.246 6.453-9.75 3.297-2.496 7.047-3.75 11.25-3.75h46.5l-23.703 90.602h75L518.398 13.5c.997-3.996 3.15-7.246 6.45-9.75 3.3-2.496 6.945-3.75 10.95-3.75h47.1l-60.902 226.5c-1 4.004-3.148 7.25-6.45 9.75-3.3 2.504-6.948 3.75-10.948 3.75h-32.403c-3.8 0-6.8-1.5-9-4.5-2.203-3-2.8-6.195-1.797-9.602l20.4-76.5h-75M539.695 225.602L600.297 0h189.598c14.597 0 27.95 3.148 40.05 9.45 12.098 6.3 22.15 14.655 30.15 25.05 8 10.402 13.5 22.305 16.5 35.7 3 13.402 2.596 27.105-1.2 41.1l-30.9 115.2c-1.003 4.004-3.15 7.25-6.448 9.75-3.3 2.504-7.05 3.75-11.25 3.75h-32.102c-3.8 0-6.85-1.5-9.148-4.5-2.305-3-2.953-6.3-1.953-9.898l32.703-121.204c1.394-5.593 1.5-11.144.297-16.648-1.2-5.496-3.45-10.395-6.75-14.7-3.297-4.296-7.4-7.75-12.297-10.35-4.906-2.595-10.352-3.9-16.352-3.9h-13.8l-45 167.7c-1.004 4.004-3.15 7.25-6.45 9.75-3.3 2.504-6.953 3.75-10.95 3.75h-32.4c-3.802 0-6.802-1.5-9-4.5-2.204-3-2.802-6.3-1.798-9.898l44.7-166.8h-60.903l-45 167.698c-1 4.004-3.15 7.25-6.45 9.75-3.3 2.504-7.05 3.75-11.25 3.75h-32.097c-3.805 0-6.856-1.5-9.152-4.5-2.3-3-2.954-6.3-1.95-9.898" id="path109" /><g clip-path="url(#a)" id="g113"><path  d="m 884.637,20.516 h 2.953 c 1.46,0 2.63,-0.375 3.515,-1.133 0.883,-0.758 1.325,-1.72 1.325,-2.887 0,-1.367 -0.39,-2.348 -1.176,-2.937 -0.78,-0.595 -2.024,-0.892 -3.72,-0.892 h -2.897 z m 11.867,-4.13 c 0,1.462 -0.387,2.75 -1.16,3.872 -0.778,1.12 -1.864,1.953 -3.27,2.5 l 6.508,10.8 h -4.594 l -5.66,-9.68 h -3.69 v 9.68 H 880.59 V 9.196 h 7.137 c 3.027,0 5.246,0.594 6.66,1.778 1.41,1.183 2.117,2.992 2.117,5.414 z m -26.03,4.977 c 0,3.157 0.792,6.106 2.378,8.848 a 17.347,-17.347 0 0 0 6.496,6.477 c 2.742,1.583 5.683,2.368 8.816,2.368 3.172,0 6.117,-0.793 8.832,-2.38 a 17.818,-17.818 0 0 0 6.47,-6.44 c 1.593,-2.708 2.39,-5.665 2.39,-8.872 0,-3.172 -0.793,-6.117 -2.38,-8.832 a 17.838,-17.838 0 0 0 -6.437,-6.467 c -2.708,-1.59 -5.665,-2.39 -8.876,-2.39 -3.172,0 -6.113,0.792 -8.832,2.378 a 17.797,-17.797 0 0 0 -6.465,6.438 c -1.597,2.707 -2.394,5.668 -2.394,8.875 z m -2.872,0 c 0,-3.644 0.914,-7.062 2.734,-10.254 a 20.096,-20.096 0 0 1 7.52,-7.547 c 3.189,-1.84 6.627,-2.762 10.307,-2.762 3.65,0 7.066,0.915 10.254,2.735 a 20.04,-20.04 0 0 1 7.547,7.52 c 1.844,3.19 2.762,6.63 2.762,10.308 0,3.59 -0.883,6.965 -2.653,10.117 -1.765,3.157 -4.246,5.68 -7.437,7.575 -3.188,1.894 -6.68,2.843 -10.473,2.843 -3.773,0 -7.254,-0.945 -10.445,-2.832 -3.19,-1.882 -5.673,-4.406 -7.45,-7.558 C 868.49,28.355 867.6,24.973 867.6,21.363"  id="path111"  style="fill:#ffffff;fill-opacity:1" /></g></svg>
