<svg id="Base_Icons" data-name="Base Icons" xmlns="http://www.w3.org/2000/svg" viewBox="0 0 48 48"><path d="M17.63013,3.98987c.12042-.03833.24316-.07111.3645-.1073C17.87317,3.91876,17.75061,3.95154,17.63013,3.98987Z"/><path d="M15.58618,4.76575c.13172-.0578.26245-.11743.39563-.17255C15.84851,4.64832,15.71808,4.708,15.58618,4.76575Z"/><path d="M19.561,3.4798c.097-.02088.19238-.04627.28991-.06586C19.75336,3.43347,19.65814,3.45886,19.561,3.4798Z"/><path d="M21.66412,3.13721c.13965-.01551.28022-.02777.42072-.04053C21.94421,3.10944,21.80389,3.1217,21.66412,3.13721Z"/><path d="M13.929,5.57178c.084-.046.1715-.08625.25616-.13111C14.10034,5.4856,14.013,5.52576,13.929,5.57178Z"/><path d="M12.0498,6.74274q.20829-.14466.41987-.28443C12.32825,6.55145,12.18878,6.6463,12.0498,6.74274Z"/><path d="M9.00079,9.31573c.12683-.12957.25782-.25494.38788-.38122C9.25836,9.06091,9.12775,9.186,9.00079,9.31573Z"/><path d="M10.44611,7.97339c.08654-.07337.16882-.15143.25659-.22339C10.61481,7.822,10.53271,7.9,10.44611,7.97339Z"/><path d="M30.07758,3.90112c.27832.084.54785.18714.8211.28229C30.62524,4.0882,30.356,3.98523,30.07758,3.90112Z"/><polygon points="24 3 23.999 3 24 3 24 3"/><path d="M35.4505,6.40985c.2561.16712.5047.34436.75293.52222C35.955,6.75409,35.70685,6.57709,35.4505,6.40985Z"/><path d="M31.95923,4.57159c.27624.11329.54364.24256.81384.36719C32.50275,4.81409,32.23566,4.68494,31.95923,4.57159Z"/><path d="M33.75385,5.41125c.26806.141.52777.295.78881.447C34.28137,5.70605,34.02216,5.55237,33.75385,5.41125Z"/><path d="M26.08838,3.10541c.23059.02276.4541.068.68243.0982C26.54242,3.1734,26.319,3.12817,26.08838,3.10541Z"/><path d="M7.58405,10.92468c.10888-.13653.21453-.27575.32672-.40954C7.79846,10.64905,7.69305,10.788,7.58405,10.92468Z"/><path d="M28.1178,3.40918c.26849.05341.52868.12848.79339.192C28.64636,3.5376,28.38641,3.46265,28.1178,3.40918Z"/><path d="M12.30005,41.4386c-.07684-.0517-.14874-.10974-.22485-.16235C12.15131,41.32892,12.22321,41.387,12.30005,41.4386Z"/><path d="M9.40179,39.07739c-.10943-.10595-.22338-.20727-.3305-.31561C9.17847,38.87018,9.2923,38.97131,9.40179,39.07739Z"/><path d="M6.50439,12.3938c.09552-.14374.19855-.28192.29749-.42316C6.70282,12.112,6.6,12.24994,6.50439,12.3938Z"/><path d="M7.9007,37.47382c-.108-.12891-.209-.26349-.314-.395C7.69171,37.21045,7.79266,37.34479,7.9007,37.47382Z"/><path d="M4.75677,32.3952c-.07348-.16815-.14263-.33844-.21179-.50879C4.6142,32.057,4.68323,32.22693,4.75677,32.3952Z"/><path d="M14.2962,42.61285c-.16546-.08642-.33178-.17132-.49463-.262C13.96454,42.44159,14.13055,42.52631,14.2962,42.61285Z"/><path d="M4.05273,30.54156c-.04516-.13763-.09582-.2727-.13818-.41162C3.957,30.269,4.00757,30.40381,4.05273,30.54156Z"/><path d="M37.04108,7.55841c.24054.191.47454.38971.70636.59094C37.51538,7.94788,37.28186,7.74969,37.04108,7.55841Z"/><path d="M10.85638,40.36487c-.15167-.122-.30059-.24726-.44873-.37329C10.556,40.1178,10.70453,40.2428,10.85638,40.36487Z"/><path d="M5.54852,34.03278c-.02661-.04877-.04858-.10035-.07483-.14942C5.49994,33.93243,5.52191,33.984,5.54852,34.03278Z"/><path d="M3.8811,18.00024c.04-.13409.07782-.2691.12049-.402C3.959,17.73126,3.92108,17.866,3.8811,18.00024Z"/><path d="M3.45935,28.35938c-.03058-.14472-.05261-.29255-.0802-.43836C3.4068,28.067,3.42871,28.21454,3.45935,28.35938Z"/><path d="M3.39709,19.96143c.01923-.09815.0351-.19758.05567-.29523C3.43225,19.764,3.41626,19.8631,3.39709,19.96143Z"/><path d="M4.55713,16.08032c.0611-.14966.1217-.2995.1861-.44745C4.67877,15.781,4.61823,15.93048,4.55713,16.08032Z"/><path d="M3.15558,26.45618c-.02088-.179-.04236-.35779-.05872-.53815C3.11322,26.09857,3.1347,26.277,3.15558,26.45618Z"/><polygon points="3 24 3 24.003 3 24 3 24"/><path d="M3.10284,21.96289c.005-.0517.00715-.10413.01252-.15564C3.11,21.85883,3.10779,21.91119,3.10284,21.96289Z"/><path d="M6.785,36.00677c-.10656-.15246-.21392-.30419-.31646-.45959C6.57123,35.7027,6.67841,35.85413,6.785,36.00677Z"/><path d="M22.10559,44.90436c-.20074-.01819-.3999-.04175-.59894-.06561C21.706,44.86237,21.9046,44.88635,22.10559,44.90436Z"/><path d="M43.39813,32.042c-.03064.07367-.05981.14783-.09125.22107C43.33826,32.18982,43.36755,32.11566,43.39813,32.042Z"/><path d="M41.54211,35.52954c-.08209.12457-.16369.24921-.24835.37189C41.37842,35.77863,41.46,35.65417,41.54211,35.52954Z"/><path d="M40.38831,37.1123q-.19885.24812-.4054.48957C40.12042,37.44043,40.25562,37.27789,40.38831,37.1123Z"/><path d="M44.864,21.67175c.015.13544.0268.27173.03913.40784C44.89069,21.9433,44.879,21.80731,44.864,21.67175Z"/><path d="M26.69574,44.80786c-.23651.03058-.4704.06922-.70935.09186C26.22552,44.87726,26.459,44.83826,26.69574,44.80786Z"/><path d="M28.749,44.44049c-.27923.06488-.55871.12878-.842.1825C28.19061,44.56952,28.46942,44.50525,28.749,44.44049Z"/><path d="M44.90369,25.9079q-.0217.241-.04889.48034C44.87292,26.22852,44.88916,26.06873,44.90369,25.9079Z"/><path d="M20.19208,44.63812c-.19843-.03668-.39911-.06659-.59552-.10876C19.79315,44.57135,19.99347,44.60168,20.19208,44.63812Z"/><path d="M30.62988,43.915c-.28375.09442-.5711.18048-.86.26306C30.05908,44.09546,30.34589,44.00946,30.62988,43.915Z"/><path d="M44.1181,30.00293q-.073.24464-.15179.48651C44.0188,30.32788,44.06946,30.1662,44.1181,30.00293Z"/><path d="M44.58081,28.18353c-.00476.0235-.00836.04743-.01318.07093C44.57251,28.231,44.57605,28.207,44.58081,28.18353Z"/><path d="M36.051,41.182c-.1867.13122-.374.26147-.56506.38671C35.67719,41.44336,35.86407,41.31323,36.051,41.182Z"/><path d="M44.522,19.56818c.02045.095.045.18841.06421.28387C44.56708,19.75647,44.54242,19.66321,44.522,19.56818Z"/><path d="M42.58466,33.76221q-.13221.25075-.271.49737C42.40619,34.09485,42.49652,33.92963,42.58466,33.76221Z"/><polygon points="45 24 45 24 45 24.001 45 24"/><path d="M37.60022,39.98444q-.25863.22019-.525.43158C37.25256,40.27454,37.42755,40.13147,37.60022,39.98444Z"/><polygon points="24 45 24 45 23.999 45 24 45"/><path d="M43.23883,15.59558c.05713.13037.11554.25995.17.39172C43.35431,15.85541,43.296,15.72607,43.23883,15.59558Z"/><path d="M38.6344,39.04449c.15228-.14813.30041-.29925.44812-.4519C38.93488,38.74512,38.78656,38.89655,38.6344,39.04449Z"/><path d="M42.439,13.94666c.03565.06518.06635.13336.10132.199C42.50531,14.08,42.47461,14.0119,42.439,13.94666Z"/><path d="M44.01526,17.64423c.03516.11071.065.22369.09833.3352C44.08026,17.8678,44.05042,17.75507,44.01526,17.64423Z"/><path d="M3,23.999v.00061c0-.68762.03821-1.366.10284-2.03668C3.0379,22.63318,3,23.31152,3,23.999Z"/><path d="M12.0752,41.27625q-.62678-.43351-1.21882-.91138Q11.4492,40.84158,12.0752,41.27625Z"/><path d="M3.11536,21.80725c.06482-.62457.16339-1.23877.28173-1.84582C3.2782,20.56836,3.1806,21.18274,3.11536,21.80725Z"/><path d="M3.45276,19.6662c.11859-.56482.26538-1.11878.42834-1.666C3.71771,18.54724,3.57184,19.10156,3.45276,19.6662Z"/><path d="M4.81818,15.45264c-.02643.05932-.049.12066-.075.18023.02459-.05658.055-.10992.08007-.1662Z"/><path d="M14.83563,42.89856l-.01147-.03137c-.1756-.08557-.35517-.16407-.528-.25434C14.47662,42.70715,14.65216,42.80939,14.83563,42.89856Z"/><path d="M13.80157,42.35083c-.51275-.28564-1.01629-.586-1.50152-.91223C12.78534,41.76483,13.28876,42.06519,13.80157,42.35083Z"/><path d="M4.00159,17.59821c.16491-.51557.35272-1.02051.55554-1.51789C4.35419,16.5777,4.16687,17.08282,4.00159,17.59821Z"/><path d="M5.47369,33.88336c-.259-.48437-.49578-.98205-.71692-1.48816C4.978,32.90137,5.21466,33.39893,5.47369,33.88336Z"/><path d="M3.91455,30.12994q-.26514-.86984-.4552-1.77056Q3.6496,29.25952,3.91455,30.12994Z"/><path d="M4.545,31.88641q-.26842-.66156-.49225-1.34485Q4.27677,31.22474,4.545,31.88641Z"/><path d="M9.07129,38.76178q-.61194-.61881-1.17059-1.288Q8.46017,38.14141,9.07129,38.76178Z"/><path d="M7.58673,37.07886q-.4173-.523-.8017-1.07209Q7.16911,36.55628,7.58673,37.07886Z"/><path d="M10.40765,39.99158q-.518-.44074-1.00586-.91419Q9.89024,39.55035,10.40765,39.99158Z"/><path d="M3.37915,27.921q-.13687-.724-.22357-1.46484Q3.2421,27.197,3.37915,27.921Z"/><path d="M6.46857,35.54718c-.32489-.49237-.6366-.99432-.92-1.5144C5.832,34.55292,6.14355,35.05487,6.46857,35.54718Z"/><path d="M3.09686,25.918c-.05731-.63171-.09668-1.2688-.09674-1.91541C3.00024,24.64935,3.03955,25.28625,3.09686,25.918Z"/><path d="M36.20343,6.93207c.28369.20324.56476.4096.83765.62634C36.76794,7.34149,36.48737,7.13544,36.20343,6.93207Z"/><path d="M24.00043,3h-.00025c.705,0,1.40107.03754,2.0882.10541C25.40131,3.03754,24.70538,3,24.00043,3Z"/><path d="M22.08484,3.09668c.63141-.05719,1.26813-.09662,1.91443-.09662C23.35284,3.00012,22.71631,3.03949,22.08484,3.09668Z"/><path d="M15.98181,4.5932q.80814-.33426,1.64832-.60333Q16.78977,4.25738,15.98181,4.5932Z"/><path d="M17.99463,3.88257q.77151-.23,1.56641-.40277Q18.76589,3.65128,17.99463,3.88257Z"/><path d="M26.77081,3.20361c.452.05976.90461.11756,1.347.20557C27.67529,3.32111,27.22284,3.26337,26.77081,3.20361Z"/><path d="M19.851,3.41394c.59522-.11932,1.20093-.20892,1.81317-.27673C21.05176,3.20508,20.44629,3.29449,19.851,3.41394Z"/><path d="M32.77307,4.93878c.33008.15216.66028.304.98078.47247C33.43317,5.24255,33.10327,5.09106,32.77307,4.93878Z"/><path d="M28.91119,3.6012c.3913.09393.78394.18444,1.16639.29992C29.69507,3.78552,29.30261,3.69519,28.91119,3.6012Z"/><path d="M38.1817,8.51263c-.1391-.12744-.29175-.23956-.43426-.36328.13519.11731.26507.24036.39721.361Z"/><path d="M30.89868,4.18341c.35614.124.71338.24579,1.06055.38818C31.61194,4.42908,31.255,4.30756,30.89868,4.18341Z"/><path d="M34.54266,5.85828c.30634.1784.61158.35833.90784.55157C35.15405,6.21643,34.84918,6.03687,34.54266,5.85828Z"/><path d="M9.38867,8.93451q.51288-.4975,1.05744-.96112Q9.90046,8.43554,9.38867,8.93451Z"/><path d="M10.7027,7.75c.43341-.355.8858-.68719,1.3471-1.00726C11.58856,7.06293,11.136,7.39478,10.7027,7.75Z"/><path d="M7.91077,10.51514q.52129-.62129,1.09-1.19941C8.62286,9.7019,8.25824,10.10083,7.91077,10.51514Z"/><path d="M6.80188,11.97064q.37527-.5354.78217-1.046Q7.17709,11.43518,6.80188,11.97064Z"/><path d="M6.4541,12.46533l.00672.00019c.01538-.02332.02813-.04847.04357-.07172C6.48822,12.41809,6.47015,12.441,6.4541,12.46533Z"/><path d="M12.46967,6.45831c.47467-.31268.95874-.61236,1.45929-.88653C13.42847,5.84607,12.94434,6.14545,12.46967,6.45831Z"/><path d="M14.18512,5.44067q.68545-.36327,1.40106-.67492C15.10992,4.97455,14.64209,5.19824,14.18512,5.44067Z"/><path d="M21.50665,44.83875c-.44287-.0525-.88055-.121-1.31457-.20063Q20.84293,44.75842,21.50665,44.83875Z"/><path d="M30.97418,43.80963l-.009-.01739c-.11243.03955-.222.085-.33533.12274C30.74347,43.8772,30.86145,43.84924,30.97418,43.80963Z"/><path d="M27.90692,44.623c-.39917.07519-.80438.13263-1.21118.18487C27.1026,44.75519,27.50769,44.69861,27.90692,44.623Z"/><path d="M23.9989,44.99994c-.63922-.00006-1.26868-.03967-1.89331-.09558C22.73,44.96106,23.3595,44.99988,23.9989,44.99994Z"/><path d="M18.068,44.14447c.50165.14746,1.01215.27405,1.52857.38489-.51673-.11029-1.02417-.24481-1.526-.3924Z"/><path d="M24.00043,45c.67059,0,1.33172-.03833,1.986-.10028C25.33191,44.96118,24.67072,45,24.00018,45Z"/><path d="M29.76984,44.178c-.3368.09619-.67737.18292-1.02088.26245C29.09253,44.36066,29.43292,44.27441,29.76984,44.178Z"/><path d="M37.0752,40.416q-.4997.39852-1.02424.76593Q36.57492,40.81381,37.0752,40.416Z"/><path d="M38.6344,39.04449q-.50088.48733-1.03418.93995Q38.13269,39.53107,38.6344,39.04449Z"/><path d="M34.55731,42.15094c.31616-.18439.62317-.3822.92859-.58228-.3.19654-.61023.37793-.92065.55927Z"/><path d="M44.11359,17.97943q.23391.78232.40844,1.58875Q44.34845,18.7616,44.11359,17.97943Z"/><path d="M42.42737,13.92383l.00043.00445.01116.01838Z"/><path d="M42.31366,34.25958q-.36447.6492-.77155,1.27C41.81445,35.11646,42.07043,34.69232,42.31366,34.25958Z"/><path d="M43.96631,30.48944c-.171.52625-.35767,1.04541-.56818,1.55255C43.60883,31.53491,43.79517,31.01569,43.96631,30.48944Z"/><path d="M43.30688,32.26306c-.21929.51172-.46435,1.00934-.72222,1.49915C42.84271,33.27246,43.0874,32.77472,43.30688,32.26306Z"/><path d="M39.08252,38.59259q.46582-.481.90039-.99072Q39.5485,38.11181,39.08252,38.59259Z"/><path d="M41.29376,35.90143c-.28656.41553-.59051.81775-.90545,1.21087C40.70343,36.71924,41.007,36.31689,41.29376,35.90143Z"/><path d="M44.56763,28.25446c-.12213.59356-.27838,1.17431-.44953,1.74847C44.28943,29.42877,44.44531,28.84808,44.56763,28.25446Z"/><path d="M43.40887,15.9873c.22382.54163.42768,1.09363.60639,1.65693C43.83636,17.08087,43.63293,16.52893,43.40887,15.9873Z"/><path d="M42.54028,14.14563c.25165.47241.48285.95691.69855,1.44995C43.023,15.10254,42.79205,14.618,42.54028,14.14563Z"/><path d="M44.8548,26.38824c-.06867.60572-.15485,1.20624-.274,1.79529C44.70007,27.59448,44.78607,26.99408,44.8548,26.38824Z"/><path d="M44.58624,19.852c.11969.59735.2099,1.2052.27771,1.8197C44.79608,21.05713,44.70605,20.44952,44.58624,19.852Z"/><path d="M45,23.99939c.00006-.64819-.03943-1.28656-.09692-1.9198.05749.6333.09692,1.27191.09692,1.92017Z"/><path d="M44.99994,24.00122c-.00006.64368-.03955,1.27777-.09625,1.90668C44.96051,25.27893,44.99988,24.645,44.99994,24.00122Z"/><path d="M23.81226,3a21,21,0,1,0,21,21A21,21,0,0,0,23.81226,3Zm0,1a19.89609,19.89609,0,0,1,13.337,5.13861,3.49419,3.49419,0,0,0-3.26159,3.56464c0,1.66058.95788,3.06683,1.97979,4.72741A10.61352,10.61352,0,0,1,37.53,22.99036c0,1.72583-.66327,3.72851-1.53485,6.51684l-2.01081,6.71936L26.699,14.556c1.213-.06372,2.30744-.1922,2.30744-.1922a.83293.83293,0,0,0-.12933-1.66058s-3.26447.25586-5.37269.25586c-1.98095,0-5.31024-.25586-5.31024-.25586a.8329.8329,0,0,0-.12738,1.66058s1.02851.12848,2.11408.1922l3.14093,8.60547L18.91,36.3927,11.5686,14.55676c1.21527-.06366,2.30738-.1922,2.30738-.1922A.83291.83291,0,0,0,13.7467,12.704s-3.264.25586-5.37274.25586c-.35431,0-.77032-.00909-1.20971-.022A19.99214,19.99214,0,0,1,23.81226,4Zm-20,20a19.86108,19.86108,0,0,1,1.72943-8.0993l9.50787,26.04974A20.00445,20.00445,0,0,1,3.81226,24ZM18.275,43.20331l5.99933-17.43225,6.19745,16.97656c.01074.02661.02625.04877.03833.07416a19.6333,19.6333,0,0,1-12.23511.38153ZM34.18054,41.07l6.03235-17.44049a19.016,19.016,0,0,0,1.5329-7.22071c0-.46759-.02545-.90729-.06171-1.33459A19.89459,19.89459,0,0,1,34.18054,41.07Z"/></svg>