<svg fill="none" xmlns="http://www.w3.org/2000/svg" viewBox="0 0 945 312"><g clip-path="url(#clip0)"><path fill-rule="evenodd" clip-rule="evenodd" d="M40.11 0H271.9A40.11 40.11 0 01312 40.11v185.92l-41.7 41.12-.36.36-44 44.49H40.11A40.11 40.11 0 010 271.89V40.1A40.11 40.11 0 0140.11 0z" fill="#F1C40F"/><path fill-rule="evenodd" clip-rule="evenodd" d="M156.3 98.06a56.45 56.45 0 0156.46 56.45v51.12a56.46 56.46 0 11-112.92 0V154.5a56.46 56.46 0 0156.45-56.45z" fill="#000"/><path d="M277.23 90.03a24.96 24.96 0 00-49.92 0v15.16a24.96 24.96 0 0049.92 0V90.03zM85.58 90.03a24.96 24.96 0 10-49.92 0v15.16a24.96 24.96 0 0049.92 0V90.03z" fill="#000"/><path fill-rule="evenodd" clip-rule="evenodd" d="M312.9 243.36V312h-68.65l68.64-68.64z" fill="#000"/></g><path d="M418.44 175.48l-7.31 7.32V206H390.8V98h20.31v59.84l3.94-5.07 19.48-22.85h24.4l-27.5 31.71L461.33 206h-23.35l-19.54-30.52zM463.12 167.26c0-7.55 1.46-14.28 4.36-20.18A31.98 31.98 0 01480 133.37c5.48-3.24 11.83-4.85 19.05-4.85 10.27 0 18.63 3.14 25.1 9.42 6.52 6.28 10.15 14.81 10.9 25.6l.14 5.2c0 11.67-3.26 21.04-9.77 28.12-6.52 7.03-15.26 10.55-26.23 10.55s-19.73-3.52-26.3-10.55c-6.51-7.03-9.77-16.6-9.77-28.69v-.91zm20.32 1.47c0 7.22 1.36 12.75 4.08 16.6 2.72 3.8 6.61 5.7 11.67 5.7 4.93 0 8.77-1.88 11.53-5.63 2.77-3.8 4.15-9.84 4.15-18.14 0-7.08-1.38-12.56-4.15-16.45-2.76-3.9-6.65-5.84-11.67-5.84-4.97 0-8.81 1.94-11.53 5.84-2.72 3.84-4.08 9.81-4.08 17.92zM590.35 206a22.59 22.59 0 01-2.03-6.82c-4.93 5.48-11.33 8.23-19.2 8.23-7.45 0-13.64-2.16-18.56-6.47a20.85 20.85 0 01-7.31-16.31c0-8.07 2.97-14.25 8.92-18.57 6-4.31 14.65-6.49 25.95-6.54h9.35v-4.36c0-3.51-.91-6.32-2.74-8.43-1.78-2.11-4.62-3.17-8.5-3.17-3.43 0-6.13.82-8.1 2.46-1.92 1.64-2.88 3.9-2.88 6.75h-20.32c0-4.4 1.36-8.48 4.08-12.23 2.72-3.75 6.56-6.68 11.53-8.79a41.63 41.63 0 0116.74-3.23c9.37 0 16.8 2.36 22.29 7.1 5.53 4.69 8.3 11.3 8.3 19.82v32.98c.04 7.22 1.05 12.68 3.02 16.39V206h-20.54zm-16.8-14.13c3 0 5.77-.66 8.3-1.97a13.37 13.37 0 005.62-5.42v-13.07h-7.6c-10.16 0-15.58 3.51-16.23 10.54l-.07 1.2c0 2.53.89 4.62 2.67 6.26 1.78 1.64 4.22 2.46 7.31 2.46zM643.48 206h-20.4V98h20.4v108zM680.29 206h-20.4v-76.08h20.4V206zm-21.59-95.77c0-3.04 1-5.55 3.02-7.52 2.07-1.97 4.86-2.95 8.37-2.95 3.47 0 6.24.98 8.3 2.95a9.95 9.95 0 013.1 7.52c0 3.1-1.06 5.63-3.17 7.6-2.06 1.97-4.8 2.95-8.23 2.95-3.42 0-6.19-.98-8.3-2.95a10.03 10.03 0 01-3.09-7.6zM719.98 111.22v18.7h13v14.9h-13v37.98c0 2.8.54 4.82 1.62 6.04 1.07 1.22 3.14 1.83 6.18 1.83 2.25 0 4.25-.16 5.98-.49v15.4a41.82 41.82 0 01-12.3 1.83c-14.25 0-21.52-7.2-21.8-21.59v-41h-11.11v-14.9h11.1v-18.7h20.33zM771.27 177.24l14.07-47.32h21.8l-30.6 87.9-1.68 4c-4.55 9.94-12.05 14.9-22.5 14.9a32 32 0 01-9-1.33V220l3.1.07c3.84 0 6.7-.58 8.57-1.75 1.92-1.18 3.42-3.12 4.5-5.84l2.4-6.26-26.66-76.29h21.87l14.13 47.32zM816.1 200.94c0-1.64.51-3.03 1.55-4.15a5.72 5.72 0 014.43-1.76 5.77 5.77 0 016.05 5.9c0 1.65-.55 3-1.62 4.09-1.08 1.03-2.56 1.54-4.43 1.54-1.88 0-3.36-.51-4.43-1.54a5.66 5.66 0 01-1.55-4.08zM859.3 206h-8.43v-76.08h8.44V206zm-9.9-98.09c0-1.59.51-2.93 1.54-4a5.44 5.44 0 014.22-1.7c1.78 0 3.19.57 4.22 1.7a5.44 5.44 0 011.62 4 5.56 5.56 0 01-5.84 5.63 5.56 5.56 0 01-4.22-1.62 5.57 5.57 0 01-1.55-4zM876.15 166.84c0-7.32 1.4-13.9 4.22-19.76a32.5 32.5 0 0112.02-13.64 32.38 32.38 0 0117.65-4.92c10.13 0 18.33 3.56 24.6 10.68 6.3 7.08 9.43 16.48 9.43 28.2v1.76c0 7.36-1.43 13.99-4.29 19.9a31.57 31.57 0 01-11.95 13.56c-5.16 3.2-11.04 4.79-17.65 4.79-10.08 0-18.28-3.54-24.6-10.62-6.29-7.13-9.43-16.55-9.43-28.27v-1.68zm8.44 2.32c0 9.09 2.34 16.57 7.03 22.43 4.73 5.8 10.92 8.72 18.56 8.72 7.6 0 13.74-2.91 18.42-8.72 4.74-5.86 7.1-13.57 7.1-23.14v-1.61a38.7 38.7 0 00-3.23-15.97c-2.16-4.82-5.18-8.55-9.07-11.18-3.9-2.67-8.34-4-13.36-4-7.5 0-13.62 2.95-18.35 8.86-4.74 5.86-7.1 13.54-7.1 23.06v1.55z" fill="#000"/><defs><clipPath id="clip0"><path fill="#fff" d="M0 0h312v312H0z"/></clipPath></defs></svg>
