<svg id="Layer_1" data-name="Layer 1" xmlns="http://www.w3.org/2000/svg" xmlns:xlink="http://www.w3.org/1999/xlink" viewBox="255.99679565429688 357.1100158691406 811.9998779296875 632.06005859375"><defs><style>.cls-1{fill:#e9f7fd;}.cls-2{fill:#fff;}.cls-3{fill:url(#linear-gradient);}.cls-4{fill:#1f2c38;}.cls-5{fill:#189bd7;}</style><linearGradient id="linear-gradient" x1="857.66" y1="500.28" x2="1020.59" y2="500.28" gradientUnits="userSpaceOnUse"><stop offset="0" stop-color="#83b755"/><stop offset="0.13" stop-color="#70b26d"/><stop offset="0.41" stop-color="#4aa89a"/><stop offset="0.66" stop-color="#2fa1bb"/><stop offset="0.86" stop-color="#1e9dd0"/><stop offset="1" stop-color="#189bd7"/></linearGradient></defs><circle class="cls-1" cx="666.25" cy="673.14" r="316.03"/><path class="cls-2" d="M857.66,494.73s-45.2,17.56-67.61,53.51-19.47,65.3-44.14,80.1c0,0-24.2,12.26-50.53,16.43,0,0-17.87-40.87-61.85-41.67S552,646.31,552,646.31s-50.67-7.77-68,10.35-15.17,41.32-4.31,58.59c0,0-21.14,21.27-84.51,38.6s-100,7.15-119.5-3.46l-17.18,36.9S295,804,336.84,802.8,438,789,465.69,772.07s45.59-28.14,45.59-28.14S558,777.61,597.35,779s75.75-5.08,95.84-39.54,14-55.53,14-55.53,49.46-12.45,68.23-25.89,25.35-35.8,35.23-59,24.27-50.6,59.36-65.32ZM629.83,643.81c11.11.11,15.62,6,15.62,6H612.92S618.72,643.7,629.83,643.81Zm-5.8,94.6c-44.13,6-79.73-20.78-79.73-20.78l25.93-28.83s47.52,7.25,96,1.13C666.23,689.93,668.17,732.45,624,738.41Z"/><polygon class="cls-3" points="857.65 494.73 863.27 483.99 880.58 478.72 878.73 471.11 894.09 467.34 896.16 473.59 910.27 470.17 912.2 476.01 1001.33 463.39 1001.33 459.99 1011.87 457.85 1020.59 486.57 1009.6 489.85 1008.24 488.07 926.46 522.3 926.45 527.7 913.19 532.76 914.31 538.65 899.42 542.71 896.96 536.59 879.91 540.6 870.02 533.68 857.65 494.73"/><path class="cls-4" d="M334.44,805.3c-25.67,0-52.28-4.21-77-15.74a2.5,2.5,0,0,1-1.21-3.32l17.18-36.9a2.51,2.51,0,0,1,3.32-1.22c28.25,13.16,64.34,15.1,107.28,5.8a320.28,320.28,0,0,0,62.3-20.46c2.58-1.46,14.74-8.46,30.07-19l-.34-.61a66.09,66.09,0,0,1-4.27-9.69c-4.34-12.63-4.13-24.94.61-35.61,4.88-11,18.69-29.08,56.48-26.68,6.67.42,14.18,1.09,22.85,1.87l.79-.9c21.79-24.36,45.55-38.77,68.71-41.7,19.47-2.45,38.27,3,54.37,15.9A89,89,0,0,1,696.67,642l.21,0c17.92-3.62,34-8.94,47.92-15.82l1.94-1a2.62,2.62,0,0,1,.49-.19l.46-.11c2.21-1.43,13.2-9.82,22.08-39.9,8.22-27.8,25.29-52.28,49.39-70.81a161.19,161.19,0,0,1,37.54-21.71,2.5,2.5,0,1,1,1.91,4.62,156.21,156.21,0,0,0-36.4,21.05C799,536,782.48,559.58,774.57,586.35c-9.7,32.85-22.22,41.56-24.63,43a2.48,2.48,0,0,1-.65.27l-.57.14-1.7.85c-14,6.94-30.17,12.33-48.09,16,2.59,6.06,8.35,20.61,10.4,34.3l.21,0a233.62,233.62,0,0,0,52.19-17.72l.21-.1c9.21-3.47,32.2-16.92,46.87-66.57,8.56-29,29.37-51.46,60.2-65.08a2.5,2.5,0,1,1,2,4.57c-29.44,13-49.3,34.43-57.42,61.93-15.25,51.61-39.82,66-49.79,69.79a238.43,238.43,0,0,1-53.22,18.07l-.76.16a92.63,92.63,0,0,1,0,11.18c-1.86,30.08-17.72,55.74-44.64,72.25a86.43,86.43,0,0,1-18,8.33c-24.66,8.19-53.88,6.41-86.85-5.29a245.13,245.13,0,0,1-50.45-24.92l-.47-.31a479.86,479.86,0,0,1-41.61,26.62l-1,.52C463.3,776,402.13,805.3,334.44,805.3Zm-72.65-19.24c87.55,39,198.1-13.94,202.81-16.24l.88-.46a472.7,472.7,0,0,0,42.41-27.24l.06,0c.71-.55,24.9-19,33.56-26.7l.08-.07a261.93,261.93,0,0,0,24.18-24.38l-45.94-3.25-.82,0c-12.83,11.67-36.52,28.65-37.88,29.63l-.1.06c-16.57,11.47-29.88,19.11-32.38,20.53l-.17.09A326,326,0,0,1,385,758.81c-42.9,9.29-79.27,7.57-108.17-5.12ZM513.71,744a240.85,240.85,0,0,0,48.34,23.71c31.44,11.16,60.35,13,83.59,5.25a81.06,81.06,0,0,0,16.93-7.84c25.49-15.63,40.5-39.89,42.26-68.3a88.85,88.85,0,0,0-.12-12.63v0c-1.88-16.76-10.92-36.81-11.56-38.21A84.35,84.35,0,0,0,672.42,621c-15-12-32.52-17.13-50.62-14.85-21.33,2.69-43.35,15.85-63.82,38.1l51.07,3.48,1.47-.82a46,46,0,0,1,15.75-5.33,29.2,29.2,0,0,1,13.13,1.28,29.7,29.7,0,0,1,14,10.31c5.15,6.76,14.07,20.46,15.85,36.28a.25.25,0,0,0,0,.08v.15c.05,1.64,0,3.29-.07,4.91-.72,11.65-5.7,28-25.3,40.07-12.16,7.46-28.54,9.23-48.66,5.26-15.51-3-33.22-9.67-49.87-18.64l-1.83-1C535.75,727,520.12,739.05,513.71,744Zm33.78-27.24.28.15c45.35,24.43,78.05,23,93.52,13.51,17.77-10.9,22.27-25.66,22.92-36.12,0-.61.06-1.22.07-1.83-34.52,2.71-67.35.9-92.35-1l-1.73,2.07A259.7,259.7,0,0,1,547.49,716.72Zm-25.26-70c-30,0-41.24,14.74-45.32,23.93-4.22,9.49-4.37,20.54-.45,31.95a61.49,61.49,0,0,0,3.92,8.91l.07.12c5.29-3.84,18.95-13.88,29.41-22.63a5.84,5.84,0,0,1,.8-3.06,6,6,0,0,1,4-2.88l.3-.06a18.8,18.8,0,0,1,2.39-.29,2.48,2.48,0,0,1,1.4,0l1.42.06,50.8,3.6h.08c25,2,58.11,3.88,92.86,1.14-2.25-13.55-9.94-25.28-14.5-31.26a27.11,27.11,0,0,0-3.16-3.49l-.9,0c-11.34.43-23,.44-35.78,0l-.23,0-56.8-3.87h-.13l-.64-.06c-8.88-.8-16.54-1.49-23.28-1.91C526.33,646.75,524.23,646.68,522.23,646.68ZM620.44,648c6.31.09,12.39.06,18.35-.08q-.49-.2-1-.36a23.86,23.86,0,0,0-10.91-1.05A34.13,34.13,0,0,0,620.44,648Z"/><path class="cls-4" d="M880.08,543.11A4.25,4.25,0,0,1,876,540l-15.2-54.29a4.24,4.24,0,0,1,2.93-5.21l14.87-4.16a4.19,4.19,0,0,1,3.21.38,4.26,4.26,0,0,1,2,2.55L899,533.58a4.23,4.23,0,0,1-2.93,5.21h0L881.22,543A4.46,4.46,0,0,1,880.08,543.11Zm-14.25-58,14.79,52.79L894,534.19l-14.79-52.8Zm29.58,51.25h0Z"/><path class="cls-4" d="M900.37,545.5a4.23,4.23,0,0,1-4.07-3.08L877,473.61a4.21,4.21,0,0,1,.39-3.22,4.16,4.16,0,0,1,2.54-2l12.44-3.49a4.24,4.24,0,0,1,5.21,2.93l19.27,68.81a4.2,4.2,0,0,1-2.93,5.21l-12.44,3.49A4.46,4.46,0,0,1,900.37,545.5ZM882.06,473l18.85,67.32,11-3.06L893,469.94Z"/><path class="cls-4" d="M914.28,534.49a4.22,4.22,0,0,1-4.06-3.09l-15.64-55.86a4.22,4.22,0,0,1,2.93-5.21L908,467.39a4.24,4.24,0,0,1,5.21,2.93l15.64,55.87a4.23,4.23,0,0,1-2.93,5.21h0l-10.48,2.93A4.09,4.09,0,0,1,914.28,534.49ZM899.6,474.94l15.23,54.37,9-2.52-15.23-54.37ZM925.24,529h0Zm-.68-2.41Z"/><path class="cls-4" d="M1010.07,492.43a4.24,4.24,0,0,1-4.07-3.09l-7.55-27a4.14,4.14,0,0,1,.39-3.21,4.21,4.21,0,0,1,2.54-2l8-2.25a4.23,4.23,0,0,1,5.21,2.93l7.55,27a4.23,4.23,0,0,1-2.93,5.21l-8,2.26A4.48,4.48,0,0,1,1010.07,492.43Zm-6.6-30.66,7.14,25.48,6.56-1.84L1010,459.93Zm14.44,23.43Z"/><path class="cls-4" d="M878.73,542.46a2.47,2.47,0,0,1-1.46-.47l-8.71-6.29a2.45,2.45,0,0,1-.92-1.27l-12.37-38.94a2.51,2.51,0,0,1,.17-1.92l5.62-10.74a2.5,2.5,0,1,1,4.43,2.31L860.35,495l11.8,37.16,8,5.81a2.49,2.49,0,0,1-1.46,4.52Z"/><path class="cls-4" d="M912.19,478.51a2.5,2.5,0,0,1-.37-5l88.85-13.62a2.5,2.5,0,0,1,.76,4.94l-88.86,13.62A2.34,2.34,0,0,1,912.19,478.51Z"/><path class="cls-4" d="M925.3,525.29a2.5,2.5,0,0,1-1-4.81l82.95-34.71a2.5,2.5,0,1,1,1.93,4.61l-83,34.71A2.36,2.36,0,0,1,925.3,525.29Z"/><path class="cls-5" d="M1053,451.3a11.62,11.62,0,1,1,6.28,22.37c-6.18,1.73-32.81-2.87-32.81-2.87S1046.86,453,1053,451.3Z"/><path class="cls-5" d="M1017.88,446.63a8.52,8.52,0,1,1,16.39,4.66c-1.29,4.53-12.09,12.1-12.09,12.1S1016.59,451.16,1017.88,446.63Z"/><path class="cls-5" d="M1043.8,481.34a8.53,8.53,0,0,1-10.72,13.26c-3.66-3-6.39-15.87-6.39-15.87S1040.14,478.38,1043.8,481.34Z"/></svg>