<svg id="Layer_1" data-name="Layer 1" xmlns="http://www.w3.org/2000/svg" viewBox="0 0 724.39 749.55"><defs><style>.cls-1{fill:#293a4a;}.cls-2{fill:#ff6c2c;}.cls-3{fill:#fff;}</style></defs><circle class="cls-1" cx="338.13" cy="368.01" r="338.13"/><path class="cls-2" d="M66.6,254.35l38.88-77,52.13,26.33a258.09,258.09,0,0,1,25.17-19.86l-27.34-44.32,73.41-45.29,32.67,53q11.43-3.1,23.26-5.15V79.52H371v62.2a252.15,252.15,0,0,1,24.85,5.38l32.62-52.88,73.41,45.29-27.24,44.14a258.14,258.14,0,0,1,28.1,22.48L546,181.18l43.12,74.7s-39.25,23.74-42.71,25.24A204.5,204.5,0,0,0,206.62,295.2H92.17Q97,283.66,103,272.73Z"/><path class="cls-2" d="M609.65,495.17l-38.88,77-52.13-26.33a258.09,258.09,0,0,1-25.17,19.86L520.81,610,447.4,655.3l-32.67-53q-11.43,3.1-23.26,5.15V670H305.21V607.8a252.78,252.78,0,0,1-24.85-5.38L247.74,655.3,174.33,610l27.24-44.14a259.11,259.11,0,0,1-28.1-22.48l-43.21,25-43.12-74.7,62.47-2.05a204.48,204.48,0,0,0,320-37.27H584.09c-3.25,7.69-6.88,15.18-10.83,22.47Z"/><path class="cls-3" d="M270.44,329.22h50.7l-7.85,30.06a19,19,0,0,1-6.73,10.1,18.21,18.21,0,0,1-11.44,3.81H271.57a22.83,22.83,0,0,0-14.25,4.71,24.61,24.61,0,0,0-8.63,12.79,23.85,23.85,0,0,0-.34,11.44,24.76,24.76,0,0,0,4.37,9.53,22.74,22.74,0,0,0,8.08,6.62,23.8,23.8,0,0,0,10.77,2.46h14.35a8.09,8.09,0,0,1,6.62,3.26,7.79,7.79,0,0,1,1.46,7.29l-9,33.19h-15.7a63.41,63.41,0,0,1-29.72-7.06,67,67,0,0,1-22.54-18.73,66.2,66.2,0,0,1-12.23-26.58,65.44,65.44,0,0,1,.79-30.62l.9-3.37a66.22,66.22,0,0,1,23.66-35.32,67.24,67.24,0,0,1,18.73-10A65.12,65.12,0,0,1,270.44,329.22Z"/><path class="cls-3" d="M296,464.48,340.2,298.94a19,19,0,0,1,6.73-10.09A18.19,18.19,0,0,1,358.37,285h46.88A63.38,63.38,0,0,1,435,292.1a66.65,66.65,0,0,1,34.88,45.31A62.59,62.59,0,0,1,469,368l-.9,3.37a67.41,67.41,0,0,1-9,19.85,65.55,65.55,0,0,1-54.74,29.27h-40.6l8.08-30.28a19,19,0,0,1,6.73-9.87A18.2,18.2,0,0,1,390,376.55h13a23.58,23.58,0,0,0,22.88-17.72,22.07,22.07,0,0,0,.33-11,24.76,24.76,0,0,0-4.37-9.53,24,24,0,0,0-8.07-6.73A23,23,0,0,0,403,329H377.89L345.14,450.8a19,19,0,0,1-6.73,9.87,17.82,17.82,0,0,1-11.22,3.81Z"/><path class="cls-3" d="M473.44,309.19h-2.78V287.81h-7.55v-2.46H481v2.46h-7.55Z"/><path class="cls-3" d="M495.13,309.19,487,288.06h-.13q.22,2.51.23,6v15.17h-2.56V285.35h4.17L496.3,305h.13l7.62-19.67h4.14v23.84h-2.77V293.83c0-1.76.07-3.68.23-5.74h-.13l-8.16,21.1Z"/><path class="cls-1" d="M453.59,571.77a135.41,135.41,0,1,1,32.81,88.36A135.4,135.4,0,0,1,453.59,571.77Z"/><circle class="cls-3" cx="588.99" cy="571.77" r="125.88"/><ellipse class="cls-3" cx="591.35" cy="501.59" rx="55.49" ry="15.8"/><path class="cls-2" d="M656.79,498.16h0c0-11-30.35-19.91-67.8-19.91s-67.8,8.91-67.8,19.91h0V645.38c0,11,30.36,19.91,67.8,19.91s67.8-8.91,67.8-19.91V498.16Zm-50.13,19.23-17.61-28.53c26.68,0,48.31,5.59,48.31,12.48s-21.63,12.48-48.31,12.48-48.3-5.59-48.3-12.48S562.38,488.86,589.05,488.86Z"/><polygon class="cls-3" points="632.66 525.36 545.94 596.38 575.53 596.38 542.53 650.09 630.16 580.44 601.03 580.44 632.66 525.36"/></svg>