<svg xmlns="http://www.w3.org/2000/svg" width="165" height="110" viewBox="0 0 165 110">
    <g fill="none" fill-rule="evenodd">
        <path fill="#F9F9F9" d="M8.594 51.633l-.013-.008c-.135.123-1.442 1.255-3.784 1.255-2.294 0-3.595-1.086-3.775-1.246H1l.785 14.335h5.957l.852-14.336z"/>
        <path stroke="#E1E2EC" stroke-linecap="round" stroke-linejoin="round" d="M8.594 51.633l-.013-.008c-.135.123-1.442 1.255-3.784 1.255-2.294 0-3.595-1.086-3.775-1.246H1l.785 14.335h5.957l.852-14.336z"/>
        <path fill="#FFF" d="M15.344 65.969H34.75v-54H15.344z"/>
        <path stroke="#E1E2EC" stroke-linecap="round" stroke-linejoin="round" d="M15.344 65.969H34.75v-54H15.344z"/>
        <path fill="#F9F9F9" d="M15.344 29.688H34.75V28H15.344z"/>
        <path stroke="#E1E2EC" stroke-linecap="round" stroke-linejoin="round" d="M15.344 29.688H34.75V28H15.344z"/>
        <path fill="#F9F9F9" d="M15.344 46.563H34.75v-1.688H15.344z"/>
        <path stroke="#E1E2EC" stroke-linecap="round" stroke-linejoin="round" d="M15.344 46.563H34.75v-1.688H15.344z"/>
        <path fill="#F9F9F9" d="M15.344 65.969H34.75v-5.063H15.344z"/>
        <path stroke="#E1E2EC" stroke-linecap="round" stroke-linejoin="round" d="M15.344 65.969H34.75v-4.784H15.344v4.784zm0-4.8h19.374V44.844H15.344V61.17zm7.849-44.138h5.71-5.71zm.397 32.906h5.71-5.71z"/>
        <path fill="#F9F9F9" d="M15.344 13.656H34.75V11.97H15.344z"/>
        <path stroke="#E1E2EC" stroke-linecap="round" stroke-linejoin="round" d="M15.344 13.935h19.344V11.97H15.344v1.966zm.019 32.627H34.75 15.363zm8.251-14.197h5.713-5.713z"/>
        <path fill="#FFF" stroke="#E1E2EC" stroke-linecap="round" stroke-linejoin="round" d="M8.594 51.625L7.8 65.969H1.793L1 51.625"/>
        <path stroke="#E1E2EC" stroke-linecap="round" stroke-linejoin="round" d="M1 51.625s1.32.844 3.797.844c2.476 0 3.797-.844 3.797-.844"/>
        <path stroke="#E1E2EC" stroke-linecap="round" stroke-linejoin="round" d="M1.844 52.156l.563-1.375.906.688 1.062-.02-.086 1.02"/>
        <path stroke="#E1E2EC" stroke-linecap="round" stroke-linejoin="round" d="M3.726 50.77l-.195-.562 1.577-.27.599.486h.697l.346.378m-1.457.653s.704-.518.852-.545c.148-.027 1.297 0 1.297 0l.308.704m-3.68 0c.111.025 1.89 0 1.89 0"/>
        <path stroke="#E1E2EC" stroke-linecap="round" stroke-linejoin="round" d="M3.62 50.574l-.864-.636-.522.383h-.868v.647l-.366.27v.387m4.516-.783l.74-.545.55.406h.944v.922"/>
        <path stroke="#E1E2EC" stroke-linecap="round" stroke-linejoin="round" d="M4.375 50.55v-.612h1.259l.428.34v.503"/>
        <path fill="#F9F9F9" d="M6.048 50.785l-.815.837"/>
        <path stroke="#E1E2EC" stroke-linecap="round" stroke-linejoin="round" d="M6.048 50.785l-.815.837"/>
        <path fill="#F9F9F9" d="M1.4 52.027l.002.04h.043l-.046-.04"/>
        <path stroke="#E1E2EC" stroke-linecap="round" stroke-linejoin="round" d="M1.4 52.027l.002.04h.043z"/>
        <path fill="#F9F9F9" d="M9.028 52.028l-.025.023.023.015z"/>
        <path stroke="#E1E2EC" stroke-linecap="round" stroke-linejoin="round" d="M9.028 52.028l-.025.023.023.015z"/>
        <path fill="#E4E7EC" d="M140.353 23.58l-6.723 9.483-5.03-.993-1.881-11.561 22.781-2.634z"/>
        <path fill="#E4E7EC" d="M151.188 24.113l-4.572 7.262-3.681-.956-1.029-5.957 3.972-4.9z"/>
        <path fill="#FFF" d="M152.031 7.75h-4.784l-63.56 10.282 2.452 15.03 63.559-10.282-2.042-12.52z"/>
        <path stroke="#585C81" stroke-linecap="round" stroke-linejoin="round" d="M152.031 7.75h-4.784l-63.56 10.282 2.452 15.03 63.559-10.282-2.042-12.52z"/>
        <path fill="#E4E7EC" fill-rule="nonzero" d="M63.808 45.726c-9.093 1.443-17.654-4.63-19.123-13.561-1.468-8.933 4.713-17.343 13.806-18.785 9.092-1.443 17.654 4.63 19.122 13.561 1.469 8.932-4.712 17.342-13.805 18.785m28.85-20.57C90.185 10.114 75.476-.582 56.672 2.32 41.351 4.684 30.954 18.91 33.426 33.95c2.473 15.04 18.477 25.663 33.789 23.234 15.31-2.43 27.915-16.99 25.443-32.03"/>
        <path fill="#FFF" d="M141.906 30.795l-3.924.58L136 20.142l3.925-.58z"/>
        <path stroke="#585C81" stroke-linecap="round" stroke-linejoin="round" d="M141.906 30.795l-3.924.58L136 20.142l3.925-.58z"/>
        <path fill="#FFF" fill-rule="nonzero" d="M68.727 45.166c-9.05 1.456-17.572-4.672-19.034-13.686-1.461-9.014 4.69-17.502 13.741-18.958 9.051-1.456 17.573 4.672 19.035 13.686 1.462 9.015-4.69 17.502-13.742 18.958zm86.328-22.957l-.323-1.996-3.81.603-.544-3.791L152.59 7.01l-61.218 9.962C86.2 6.026 74.217-.665 61.625 1.36c-15.24 2.451-25.6 16.743-23.138 31.922 2.461 15.179 16.81 25.496 32.05 23.045 12.596-2.026 21.857-12.139 23.303-24.156l38.88-6.328 1.177 7.257 9.15-1.472-1.228-7.58 3.68-.59 1.24 7.649 9.511-1.53-1.194-7.369z"/>
        <path stroke="#E1E2EC" stroke-linecap="round" stroke-linejoin="round" d="M68.727 45.166c-9.05 1.456-17.572-4.672-19.034-13.686-1.461-9.014 4.69-17.502 13.741-18.958 9.051-1.456 17.573 4.672 19.035 13.686 1.462 9.015-4.69 17.502-13.742 18.958zm86.328-22.957l-.323-1.996-3.81.603-.544-3.791L152.59 7.01l-61.218 9.962C86.2 6.026 74.217-.665 61.625 1.36c-15.24 2.451-25.6 16.743-23.138 31.922 2.461 15.179 16.81 25.496 32.05 23.045 12.596-2.026 21.857-12.139 23.303-24.156l38.88-6.328 1.177 7.257 9.15-1.472-1.228-7.58 3.68-.59 1.24 7.649 9.511-1.53-1.194-7.369z"/>
        <path fill="#E4E7EC" d="M143.585 20.406l4.227-.007-1.678-10.962-4.228.007z"/>
        <path fill="#FFF" d="M163.844 18.024l-15.937 2.382-1.782-11.118 15.937-2.382z"/>
        <path fill="#E4E7EC" d="M161.313 6.33l-17.824-1.111-53.052 8.96 1.425 2.852 49.516-8.184 4.855-.14z"/>
        <path stroke="#E1E2EC" stroke-linecap="round" stroke-linejoin="round" d="M163.844 18.024l-15.937 2.382-1.782-11.118 15.937-2.382z"/>
        <path fill="#FFF" d="M75.25 55.63l-3.691 1.901-4.746-11.105 2.758-4.082 2.868 6.71c.596.296.971.933.959 1.627l-.012.59 1.864 4.36z"/>
        <path stroke="#E4E7EC" stroke-linecap="round" stroke-linejoin="round" d="M73.563 52.357l-.325.066a2.238 2.238 0 0 1-2.207-.798M70.188 48.25l.843 1.688"/>
        <path stroke="#E4E7EC" stroke-linecap="round" stroke-linejoin="round" d="M71.559 57.531l-4.746-11.105 2.758-4.082 2.868 6.71c.596.296.971.933.959 1.627l-.012.59 1.864 4.36-3.691 1.9z"/>
        <path fill="#FFF" d="M55.892 54.614l-1.363-.217-1.218-2.33c-.203-.39-.665-.556-1.044-.358a.81.81 0 0 0-.398.488.855.855 0 0 0 .06.64l.821 1.57-2.461-.252-1.564-.648c-.366-.151-.65.354-.347.616a11.004 11.004 0 0 0 5.564 2.565h1.784l1.805-.134c-.027-.977-.717-1.794-1.64-1.94"/>
        <path stroke="#E4E7EC" stroke-linecap="round" stroke-linejoin="round" d="M55.892 54.614l-1.363-.217-1.218-2.33c-.203-.39-.665-.556-1.044-.358a.81.81 0 0 0-.398.488.855.855 0 0 0 .06.64l.821 1.57-2.461-.252-1.564-.648c-.366-.151-.65.354-.347.616a11.004 11.004 0 0 0 5.564 2.565h1.784l1.805-.134c-.027-.977-.717-1.794-1.64-1.94z"/>
        <path fill="#F4F5F7" stroke="#E1E2EC" stroke-linecap="round" stroke-linejoin="round" d="M111.531 98.031v2.361c0 .56.404 1.014.901 1.014h9.48c.325 0 .588-.297.588-.664 0-.366-.264-.663-.59-.662l-1.582.003c-.861.001-1.692-.363-2.326-1.02-.634-.658-1.465-1.023-2.328-1.02l-.6.001-3.542-.013z"/>
        <path fill="#FFF" stroke="#E1E2EC" stroke-linecap="round" stroke-linejoin="round" d="M111.531 98.031v2.361c0 .56.404 1.014.901 1.014h9.48c.325 0 .588-.297.588-.664 0-.366-.264-.663-.59-.662l-1.582.003c-.861.001-1.692-.363-2.326-1.02-.634-.658-1.465-1.023-2.328-1.02l-.6.001-3.542-.013z"/>
        <path fill="#FFF" d="M100.34 26.92l-1.43 4.744-1.722.29s.684 2.026.816 1.965l2.596 1.675 2.337-4.273c.205-.374.362-.774.467-1.189l.506-1.995a.867.867 0 0 0-.52-1.027l-1.963-.744a.814.814 0 0 0-.66.035.855.855 0 0 0-.428.518"/>
        <path stroke="#E1E2EC" stroke-linecap="round" stroke-linejoin="round" d="M100.34 26.92l-1.43 4.744-1.722.29s.684 2.026.816 1.965l2.596 1.675 2.337-4.273c.205-.374.362-.774.467-1.189l.506-1.995a.867.867 0 0 0-.52-1.027l-1.963-.744a.814.814 0 0 0-.66.035.855.855 0 0 0-.428.518z"/>
        <path fill="#FFF" stroke="#E1E2EC" stroke-linecap="round" stroke-linejoin="round" d="M83.853 76.082L80.775 57.57l13.509-7.917 6.278-13.762-2.652-1.985-6.35 13.002s-13.937 6.895-16.733 8.14c-3.998 1.78-18.533 13.865-18.533 13.865l1.003-12.269-3.555.126-1.265 15.272c-.17 2.046 2.307 3.203 3.782 1.767l12.076-9.406 6.712 15.062.002.004a13.364 13.364 0 0 1 5.226-2.538l3.578-.85v.001z"/>
        <path fill="#E4E7EC" d="M113.04 74.19a2.509 2.509 0 0 0-1.023-1.825 2.546 2.546 0 0 0-2.058-.428l-25.414 5.695-.207-1.245-3.588.85a13.414 13.414 0 0 0-5.24 2.54 33.387 33.387 0 0 0 5.15 8.125l10.665 12.426-22.713-.995a1.752 1.752 0 0 0-1.798 1.666 1.749 1.749 0 0 0 1.643 1.818l25.498 1.118c2.107.092 3.327-2.337 1.986-3.952L84.999 83.66l24.798-8.056 1.542 22.512 3.567.012-1.867-23.937z"/>
        <path fill="#FFF" d="M56.688 68.5L55 70.188M91.281 100.14h1.688M53.313 55l-.844-.844M68.5 64.281l-.844-1.687"/>
        <path fill="#E4E7EC" d="M69.415 42.344l-2.603 3.858 1.954 4.58.342-3.363 1.923-1.286z"/>
        <path stroke="#E4E7EC" stroke-linecap="round" stroke-linejoin="round" d="M69.415 42.344l-2.603 3.858 1.954 4.58.342-3.363 1.923-1.286z"/>
        <path fill="#FFF" stroke="#E1E2EC" stroke-linecap="round" stroke-linejoin="round" d="M66.37 98.88l2.167.233-.551 6.254a1.355 1.355 0 0 0 1.314 1.452l1.086.03a.654.654 0 0 1-.017 1.307h-3.903a1.342 1.342 0 0 1-1.34-1.408l.295-7.047a.858.858 0 0 1 .948-.821"/>
        <path fill="#FFF" d="M109.844 75.226l.844-.796"/>
        <path fill="#E4E7EC" d="M128.406 27.05l5.063 3.481-.665-4.218zM142.076 25.358L146.125 28l-.7-4.219-3.519.635z"/>
        <path fill="#FFF" d="M102.25 26.313l-.844 3.375"/>
        <path stroke="#E1E2EC" stroke-linecap="round" stroke-linejoin="round" d="M102.25 26.313l-.844 3.375"/>
        <path fill="#FFF" d="M103.094 27.156l-.844 3.375"/>
        <path stroke="#E4E7EC" stroke-linecap="round" stroke-linejoin="round" d="M103.094 27.156l-1.165 3.663m-71.886 77.952h6.923m-10.654 0h2.362"/>
        <path stroke="#E1E2EC" stroke-linecap="round" stroke-linejoin="round" d="M35.594 108.156h16.875V95.5H35.594z"/>
        <path fill="#FFF" d="M33.906 108.156h1.688V95.5h-1.688z"/>
        <path stroke="#E1E2EC" stroke-linecap="round" stroke-linejoin="round" d="M33.906 108.156h1.876V96.01h-1.876v12.147zM45.15 93.812H43.01a1.415 1.415 0 0 0-1.413 1.411v.768h4.965v-.768a1.409 1.409 0 0 0-1.413-1.41z"/>
        <path stroke="#FFF" stroke-linecap="round" stroke-linejoin="round" d="M36.438 96.766h15.187"/>
    </g>
</svg>
