<svg xmlns="http://www.w3.org/2000/svg" width="51" height="53" viewBox="0 0 51 53">
    <path fill="#00A7DF" fill-rule="evenodd" d="M41.527 15.143c1.405 0 2.504-1.09 2.504-2.484 0-1.393-1.1-2.483-2.504-2.483-1.405 0-2.504 1.09-2.504 2.483 0 1.333 1.1 2.484 2.504 2.484zm6.23 9.146c-1.71 0-3.115 1.393-3.115 3.09 0 1.695 1.404 3.088 3.114 3.088s3.115-1.393 3.115-3.089c.06-1.696-1.344-3.089-3.115-3.089zm-6.23 14.658c-2.076 0-3.725 1.636-3.725 3.695 0 2.06 1.649 3.695 3.725 3.695s3.725-1.635 3.725-3.695c.061-2.06-1.649-3.695-3.725-3.695zm-15.145 5.33c-2.443 0-4.397 1.939-4.397 4.362S23.939 53 26.382 53c2.443 0 4.397-1.938 4.397-4.361s-1.954-4.361-4.397-4.361zm-15.084-6.602c-2.748 0-5.008 2.242-5.008 4.967 0 2.726 2.26 4.967 5.008 4.967s5.007-2.241 5.007-4.967c0-2.725-2.26-4.967-5.007-4.967zM10.26 27.378c0-2.786-2.321-5.088-5.13-5.088-2.81 0-5.13 2.302-5.13 5.088 0 2.787 2.32 5.088 5.13 5.088 2.809 0 5.13-2.24 5.13-5.088zm1.038-20.17c-3.054 0-5.496 2.423-5.496 5.451 0 3.029 2.442 5.452 5.496 5.452 3.053 0 5.496-2.423 5.496-5.452 0-3.028-2.504-5.451-5.496-5.451zM26.382 0c-3.603 0-6.473 2.907-6.473 6.42 0 3.514 2.93 6.421 6.473 6.421 3.542 0 6.473-2.907 6.473-6.42 0-3.514-2.87-6.421-6.473-6.421z"/>
</svg>
