<?xml version="1.0" encoding="utf-8"?>
<!-- Generator: Adobe Illustrator 20.0.0, SVG Export Plug-In . SVG Version: 6.00 Build 0)  -->
<svg version="1.1" id="Layer_1" xmlns="http://www.w3.org/2000/svg" xmlns:xlink="http://www.w3.org/1999/xlink" x="0px" y="0px"
	 viewBox="0 0 73.2 20" style="enable-background:new 0 0 73.2 20;" xml:space="preserve">
<style type="text/css">
	.st0{fill:#FFFFFF;}
</style>
<title>Asset 1</title>
<g id="Layer_2">
	<g id="Layer_1-2">
		<path class="st0" d="M30.4,1.2l-3.6,13.3c-0.2,0.8-0.5,1.5-1,2.2c-0.4,0.7-1,1.2-1.6,1.7c-0.6,0.5-1.3,0.9-2.1,1.1
			c-0.8,0.3-1.6,0.4-2.4,0.4H0L5,1.1c0.1-0.3,0.3-0.6,0.5-0.8C5.8,0.1,6.2,0,6.5,0h2.7c0.3,0,0.6,0.1,0.8,0.4
			c0.2,0.2,0.3,0.5,0.2,0.8L6.4,15.1h5.1l3.7-14c0.1-0.3,0.3-0.6,0.5-0.8C16,0.1,16.3,0,16.6,0h2.7c0.3,0,0.6,0.1,0.7,0.4
			c0.2,0.2,0.2,0.5,0.1,0.8l-3.7,13.9h3c0.6,0,1.2-0.2,1.6-0.5c0.5-0.3,0.8-0.8,0.9-1.4l3.2-12c0.1-0.3,0.3-0.6,0.5-0.8
			C26.2,0.1,26.5,0,26.8,0h2.7c0.3,0,0.6,0.1,0.8,0.4C30.4,0.6,30.5,0.9,30.4,1.2z"/>
		<path class="st0" d="M33.9,12.4l-1.7,6.4c-0.1,0.3-0.3,0.6-0.5,0.8C31.4,19.9,31,20,30.7,20H28c-0.3,0-0.6-0.1-0.7-0.4
			c-0.2-0.2-0.3-0.5-0.2-0.8l4.7-17.7c0.1-0.3,0.3-0.6,0.5-0.8C32.7,0.1,33,0,33.3,0h3.9l-2,7.5h6.2l1.7-6.4
			c0.1-0.3,0.3-0.6,0.5-0.8C44,0.1,44.3,0,44.6,0h3.9l-5.1,18.9c-0.1,0.3-0.3,0.6-0.5,0.8C42.7,19.9,42.4,20,42,20h-2.7
			c-0.3,0-0.6-0.1-0.7-0.4c-0.2-0.2-0.2-0.5-0.1-0.8l1.7-6.4H33.9z"/>
		<path class="st0" d="M45,18.8L50,0h15.8c1.2,0,2.3,0.3,3.3,0.8c2,1,3.4,2.9,3.9,5.1c0.2,1.1,0.2,2.3-0.1,3.4l-2.6,9.6
			c-0.1,0.3-0.3,0.6-0.5,0.8c-0.3,0.2-0.6,0.3-0.9,0.3h-2.7c-0.3,0-0.6-0.1-0.8-0.4c-0.2-0.2-0.3-0.5-0.2-0.8L68,8.7
			c0.1-0.5,0.1-0.9,0-1.4c-0.1-0.4-0.3-0.9-0.6-1.2c-0.3-0.4-0.6-0.7-1-0.9C66,5,65.6,4.9,65.1,4.9h-1.1l-3.7,14
			c-0.1,0.3-0.3,0.6-0.5,0.8c-0.3,0.2-0.6,0.3-0.9,0.3H56c-0.3,0-0.6-0.1-0.7-0.4c-0.2-0.2-0.2-0.5-0.1-0.8l3.7-13.9h-5.1l-3.7,14
			c-0.1,0.3-0.3,0.6-0.5,0.8c-0.3,0.2-0.6,0.3-0.9,0.3h-2.7c-0.3,0-0.6-0.1-0.8-0.4C44.9,19.4,44.9,19.1,45,18.8z"/>
	</g>
</g>
</svg>
