<svg id="Layer_1" data-name="Layer 1" xmlns="http://www.w3.org/2000/svg" viewBox="0 0 351.77 84.01"><defs><style>.cls-1{fill:#f36c32;}</style></defs><path class="cls-1" d="M33.58,28.56H44.75L43,35.18a4.2,4.2,0,0,1-1.49,2.22,4,4,0,0,1-2.52.84H33.83a5,5,0,0,0-3.14,1,5.38,5.38,0,0,0-1.9,2.82,5.28,5.28,0,0,0-.08,2.52,5.47,5.47,0,0,0,1,2.1,4.89,4.89,0,0,0,1.78,1.45,5.1,5.1,0,0,0,2.37.55H37a1.8,1.8,0,0,1,1.46.71A1.76,1.76,0,0,1,38.77,51l-2,7.31H33.33a13.9,13.9,0,0,1-6.54-1.56,14.51,14.51,0,0,1-7.66-10,14.4,14.4,0,0,1,.17-6.74l.2-.74a14.35,14.35,0,0,1,2-4.37,14.51,14.51,0,0,1,3.21-3.41,14.88,14.88,0,0,1,4.13-2.2A14.2,14.2,0,0,1,33.58,28.56Z"/><path class="cls-1" d="M39.21,58.35l9.73-36.46a4.2,4.2,0,0,1,1.49-2.22A4,4,0,0,1,53,18.83H63.27a14.09,14.09,0,0,1,6.55,1.55,14.74,14.74,0,0,1,7.68,10,13.83,13.83,0,0,1-.2,6.75l-.19.74a14.79,14.79,0,0,1-2,4.37,14.45,14.45,0,0,1-7.31,5.66,14.57,14.57,0,0,1-4.75.79H54.13L55.91,42a4.2,4.2,0,0,1,1.48-2.18A4,4,0,0,1,59.91,39h2.87a5.19,5.19,0,0,0,5-3.9,4.85,4.85,0,0,0,.07-2.42,5.45,5.45,0,0,0-1-2.1,5.27,5.27,0,0,0-1.78-1.48,5.06,5.06,0,0,0-2.37-.57H57.24L50,55.34a4.17,4.17,0,0,1-1.48,2.17,4,4,0,0,1-2.47.84Z"/><path class="cls-1" d="M100.82,38.88l.15-.54a.73.73,0,0,0-.74-.94H84.17A4,4,0,0,1,82.29,37a4.23,4.23,0,0,1-1.38-1.16,4.11,4.11,0,0,1-.74-1.66,4.17,4.17,0,0,1,0-1.92l1-3.76h21.73a7.85,7.85,0,0,1,3.71.89,8.54,8.54,0,0,1,2.79,2.32A8.3,8.3,0,0,1,111,35a8.15,8.15,0,0,1-.07,3.83L107,53.31a6.53,6.53,0,0,1-2.39,3.61,6.61,6.61,0,0,1-4.13,1.38l-16,0a8.46,8.46,0,0,1-6.82-3.33A8.9,8.9,0,0,1,76,51.46a8,8,0,0,1,.1-4l.19-.74a7.77,7.77,0,0,1,1.17-2.57,8.72,8.72,0,0,1,1.9-2,8.45,8.45,0,0,1,2.42-1.31,8.25,8.25,0,0,1,2.81-.47H98.1l-1,3.7a4.14,4.14,0,0,1-1.48,2.18,3.93,3.93,0,0,1-2.47.84h-6a1,1,0,0,0-1.08.84,1,1,0,0,0,.19,1,1.1,1.1,0,0,0,.89.42h9.74a1.48,1.48,0,0,0,.93-.3,1.27,1.27,0,0,0,.5-.79l.1-.39Z"/><path class="cls-1" d="M130.07,28.56a14,14,0,0,1,6.59,1.56,14.49,14.49,0,0,1,7.66,10,14.15,14.15,0,0,1-.22,6.77l-2.47,9.29a2.72,2.72,0,0,1-1.07,1.58,3,3,0,0,1-1.8.59h-5.33a1.78,1.78,0,0,1-1.49-.72,1.73,1.73,0,0,1-.29-1.6l3-11.22a4.86,4.86,0,0,0,.08-2.42,5.62,5.62,0,0,0-1-2.1,5.17,5.17,0,0,0-1.78-1.48,5,5,0,0,0-2.37-.57H124l-4.79,17.94a2.72,2.72,0,0,1-1.07,1.58,3.09,3.09,0,0,1-1.85.59h-5.28a1.77,1.77,0,0,1-1.46-.72,1.68,1.68,0,0,1-.32-1.6l7.31-27.47Z"/><path class="cls-1" d="M158.92,38a2.47,2.47,0,0,0-.84,1.21l-2.23,8.4a1.5,1.5,0,0,0,1.44,1.88h20.45l-1.58,5.88a4.17,4.17,0,0,1-1.48,2.17,4,4,0,0,1-2.47.84H153.58a8,8,0,0,1-6.49-3.19,8.33,8.33,0,0,1-1.54-3.31,7.6,7.6,0,0,1,.13-3.78l3-11.21a11.14,11.14,0,0,1,1.53-3.36,11.08,11.08,0,0,1,5.61-4.32,10.9,10.9,0,0,1,3.63-.62h13.19a7.85,7.85,0,0,1,3.71.89,8.54,8.54,0,0,1,2.79,2.32,8,8,0,0,1,1.5,3.31,8.15,8.15,0,0,1-.09,3.8l-.89,3.36a6.48,6.48,0,0,1-2.4,3.59,6.62,6.62,0,0,1-4.07,1.35H158.28l1-3.65a3.94,3.94,0,0,1,1.44-2.18,4,4,0,0,1,2.52-.83h6a1,1,0,0,0,1.09-.84l.2-.75a1.05,1.05,0,0,0-.2-1,1.08,1.08,0,0,0-.89-.45h-9.19A2.1,2.1,0,0,0,158.92,38Z"/><path class="cls-1" d="M177.69,58.35l9.93-37.3a2.84,2.84,0,0,1,1.06-1.61,3,3,0,0,1,1.85-.61h5.29a1.84,1.84,0,0,1,1.51.71,1.73,1.73,0,0,1,.32,1.61l-7.41,27.52a12.16,12.16,0,0,1-1.76,3.95,12.76,12.76,0,0,1-2.86,3,13.16,13.16,0,0,1-3.68,2A12.61,12.61,0,0,1,177.69,58.35Z"/><path class="cls-1" d="M248.88,33.45a11.34,11.34,0,0,1,2.45-2.62,11.17,11.17,0,0,1,3.16-1.7,10.9,10.9,0,0,1,3.63-.62h13.19a7.85,7.85,0,0,1,3.71.89,8.64,8.64,0,0,1,2.79,2.32A8.32,8.32,0,0,1,279.34,35a7.59,7.59,0,0,1-.13,3.81l-3,11.21a11.14,11.14,0,0,1-1.53,3.36A11.34,11.34,0,0,1,272.22,56a11.17,11.17,0,0,1-3.16,1.7,10.9,10.9,0,0,1-3.63.62H252.24a7.85,7.85,0,0,1-3.71-.89,8.54,8.54,0,0,1-2.79-2.32,8.32,8.32,0,0,1-1.53-3.31,7.59,7.59,0,0,1,.13-3.81l3-11.21A11.14,11.14,0,0,1,248.88,33.45ZM266.17,48.2A2.51,2.51,0,0,0,267,47l1.93-7.36a1.11,1.11,0,0,0-.17-1,1,1,0,0,0-.87-.45h-9.19a2.16,2.16,0,0,0-1.38.47,2.24,2.24,0,0,0-.79,1.21l-2,7.36a1.07,1.07,0,0,0,.2,1,1.08,1.08,0,0,0,.89.45h9.19A2.1,2.1,0,0,0,266.17,48.2Z"/><path class="cls-1" d="M277.34,58.35l9.93-37.3a2.84,2.84,0,0,1,1.06-1.61,3,3,0,0,1,1.85-.61h5.29a1.86,1.86,0,0,1,1.51.71,1.76,1.76,0,0,1,.32,1.61l-7.41,27.52a12.37,12.37,0,0,1-1.76,3.95,13,13,0,0,1-2.86,3,13.3,13.3,0,0,1-3.68,2A12.65,12.65,0,0,1,277.34,58.35Z"/><path class="cls-1" d="M297.74,33.45a11.34,11.34,0,0,1,2.45-2.62,11.17,11.17,0,0,1,3.16-1.7,10.9,10.9,0,0,1,3.63-.62h13.19a7.85,7.85,0,0,1,3.71.89,8.64,8.64,0,0,1,2.79,2.32A8.32,8.32,0,0,1,328.2,35a7.59,7.59,0,0,1-.13,3.81l-3,11.21a11.14,11.14,0,0,1-1.53,3.36A11.34,11.34,0,0,1,321.08,56a11.17,11.17,0,0,1-3.16,1.7,10.9,10.9,0,0,1-3.63.62H301.1a7.78,7.78,0,0,1-3.7-.89,8.58,8.58,0,0,1-2.8-2.32,8.32,8.32,0,0,1-1.53-3.31A7.59,7.59,0,0,1,293.2,48l3-11.21A11.14,11.14,0,0,1,297.74,33.45ZM315,48.2a2.51,2.51,0,0,0,.84-1.21l1.93-7.36a1.11,1.11,0,0,0-.17-1,1,1,0,0,0-.87-.45h-9.19a2.16,2.16,0,0,0-1.38.47,2.24,2.24,0,0,0-.79,1.21l-2,7.36a1.07,1.07,0,0,0,.2,1,1.08,1.08,0,0,0,.89.45h9.19A2.1,2.1,0,0,0,315,48.2Z"/><path class="cls-1" d="M227,18.55H250.1l-1.78,6.66a4.21,4.21,0,0,1-1.49,2.18,3.91,3.91,0,0,1-2.47.84H227a2.5,2.5,0,0,0-1.58.54,2.55,2.55,0,0,0-1,2.62,2.49,2.49,0,0,0,.47,1.06,2.35,2.35,0,0,0,.88.74,2.54,2.54,0,0,0,1.19.28h3a16,16,0,0,1,5.7,1,11.05,11.05,0,0,1,4.47,3,9.94,9.94,0,0,1,2.35,4.86A13.24,13.24,0,0,1,241.8,49a17.75,17.75,0,0,1-2,4.3,10.72,10.72,0,0,1-2.64,2.79,9.73,9.73,0,0,1-3.31,1.53,15.79,15.79,0,0,1-3.9.47H208.54l1.73-6.67a4.17,4.17,0,0,1,1.48-2.17,3.93,3.93,0,0,1,2.47-.84H230a2.47,2.47,0,0,0,1.58-.55,2.63,2.63,0,0,0,.93-1.38,2.89,2.89,0,0,0,0-1.24,2.74,2.74,0,0,0-.47-1.06,2.47,2.47,0,0,0-.89-.74,2.62,2.62,0,0,0-1.18-.27h-3a12,12,0,0,1-5.58-1.31,12.32,12.32,0,0,1-4.18-3.48,12.62,12.62,0,0,1-2.27-5,12.08,12.08,0,0,1,.17-5.75A12.43,12.43,0,0,1,216.8,24a12.6,12.6,0,0,1,2.7-2.89A11.92,11.92,0,0,1,223,19.21,12.25,12.25,0,0,1,227,18.55Z"/><path class="cls-1" d="M330.89,32.9h-.72V29.3H329v-.62h3.18v.62h-1.24Zm3.52,0-1.18-3.27h-.05l0,.75V32.9h-.7V28.68h1.1L334.76,32,336,28.68H337V32.9h-.75V30.44l0-.8h-.05L335,32.9Z"/></svg>